<svg xmlns="http://www.w3.org/2000/svg" xmlns:xlink="http://www.w3.org/1999/xlink" width="600" height="400" viewBox="0 0 2400 1600">
<defs>
  <clipPath id="clip990">
    <rect x="0" y="0" width="2400" height="1600"></rect>
  </clipPath>
</defs>
<path clip-path="url(#clip990)" d="M0 1600 L2400 1600 L2400 0 L0 0  Z" fill="#ffffff" fill-rule="evenodd" fill-opacity="1"></path>
<defs>
  <clipPath id="clip991">
    <rect x="480" y="0" width="1681" height="1600"></rect>
  </clipPath>
</defs>
<path clip-path="url(#clip990)" d="M175.445 1423.18 L2352.76 1423.18 L2352.76 123.472 L175.445 123.472  Z" fill="#ffffff" fill-rule="evenodd" fill-opacity="1"></path>
<defs>
  <clipPath id="clip992">
    <rect x="175" y="123" width="2178" height="1301"></rect>
  </clipPath>
</defs>
<polyline clip-path="url(#clip992)" style="stroke:#000000; stroke-linecap:round; stroke-linejoin:round; stroke-width:2; stroke-opacity:0.1; fill:none" points="223.282,1423.18 223.282,123.472 "></polyline>
<polyline clip-path="url(#clip992)" style="stroke:#000000; stroke-linecap:round; stroke-linejoin:round; stroke-width:2; stroke-opacity:0.1; fill:none" points="912.566,1423.18 912.566,123.472 "></polyline>
<polyline clip-path="url(#clip992)" style="stroke:#000000; stroke-linecap:round; stroke-linejoin:round; stroke-width:2; stroke-opacity:0.1; fill:none" points="1601.85,1423.18 1601.85,123.472 "></polyline>
<polyline clip-path="url(#clip992)" style="stroke:#000000; stroke-linecap:round; stroke-linejoin:round; stroke-width:2; stroke-opacity:0.1; fill:none" points="2291.13,1423.18 2291.13,123.472 "></polyline>
<polyline clip-path="url(#clip992)" style="stroke:#000000; stroke-linecap:round; stroke-linejoin:round; stroke-width:2; stroke-opacity:0.1; fill:none" points="175.445,1210.68 2352.76,1210.68 "></polyline>
<polyline clip-path="url(#clip992)" style="stroke:#000000; stroke-linecap:round; stroke-linejoin:round; stroke-width:2; stroke-opacity:0.1; fill:none" points="175.445,961.031 2352.76,961.031 "></polyline>
<polyline clip-path="url(#clip992)" style="stroke:#000000; stroke-linecap:round; stroke-linejoin:round; stroke-width:2; stroke-opacity:0.1; fill:none" points="175.445,711.382 2352.76,711.382 "></polyline>
<polyline clip-path="url(#clip992)" style="stroke:#000000; stroke-linecap:round; stroke-linejoin:round; stroke-width:2; stroke-opacity:0.1; fill:none" points="175.445,461.732 2352.76,461.732 "></polyline>
<polyline clip-path="url(#clip992)" style="stroke:#000000; stroke-linecap:round; stroke-linejoin:round; stroke-width:2; stroke-opacity:0.1; fill:none" points="175.445,212.083 2352.76,212.083 "></polyline>
<polyline clip-path="url(#clip990)" style="stroke:#000000; stroke-linecap:round; stroke-linejoin:round; stroke-width:4; stroke-opacity:1; fill:none" points="175.445,1423.18 2352.76,1423.18 "></polyline>
<polyline clip-path="url(#clip990)" style="stroke:#000000; stroke-linecap:round; stroke-linejoin:round; stroke-width:4; stroke-opacity:1; fill:none" points="223.282,1423.18 223.282,1404.28 "></polyline>
<polyline clip-path="url(#clip990)" style="stroke:#000000; stroke-linecap:round; stroke-linejoin:round; stroke-width:4; stroke-opacity:1; fill:none" points="912.566,1423.18 912.566,1404.28 "></polyline>
<polyline clip-path="url(#clip990)" style="stroke:#000000; stroke-linecap:round; stroke-linejoin:round; stroke-width:4; stroke-opacity:1; fill:none" points="1601.85,1423.18 1601.85,1404.28 "></polyline>
<polyline clip-path="url(#clip990)" style="stroke:#000000; stroke-linecap:round; stroke-linejoin:round; stroke-width:4; stroke-opacity:1; fill:none" points="2291.13,1423.18 2291.13,1404.28 "></polyline>
<path clip-path="url(#clip990)" d="M223.282 1454.1 Q219.67 1454.1 217.842 1457.66 Q216.036 1461.2 216.036 1468.33 Q216.036 1475.44 217.842 1479.01 Q219.67 1482.55 223.282 1482.55 Q226.916 1482.55 228.721 1479.01 Q230.55 1475.44 230.55 1468.33 Q230.55 1461.2 228.721 1457.66 Q226.916 1454.1 223.282 1454.1 M223.282 1450.39 Q229.092 1450.39 232.147 1455 Q235.226 1459.58 235.226 1468.33 Q235.226 1477.06 232.147 1481.67 Q229.092 1486.25 223.282 1486.25 Q217.471 1486.25 214.393 1481.67 Q211.337 1477.06 211.337 1468.33 Q211.337 1459.58 214.393 1455 Q217.471 1450.39 223.282 1450.39 Z" fill="#000000" fill-rule="nonzero" fill-opacity="1"></path><path clip-path="url(#clip990)" d="M887.265 1451.02 L905.621 1451.02 L905.621 1454.96 L891.547 1454.96 L891.547 1463.43 Q892.566 1463.08 893.584 1462.92 Q894.603 1462.73 895.621 1462.73 Q901.408 1462.73 904.788 1465.9 Q908.168 1469.08 908.168 1474.49 Q908.168 1480.07 904.695 1483.17 Q901.223 1486.25 894.904 1486.25 Q892.728 1486.25 890.459 1485.88 Q888.214 1485.51 885.807 1484.77 L885.807 1480.07 Q887.89 1481.2 890.112 1481.76 Q892.334 1482.32 894.811 1482.32 Q898.816 1482.32 901.154 1480.21 Q903.492 1478.1 903.492 1474.49 Q903.492 1470.88 901.154 1468.77 Q898.816 1466.67 894.811 1466.67 Q892.936 1466.67 891.061 1467.08 Q889.209 1467.5 887.265 1468.38 L887.265 1451.02 Z" fill="#000000" fill-rule="nonzero" fill-opacity="1"></path><path clip-path="url(#clip990)" d="M927.38 1454.1 Q923.769 1454.1 921.941 1457.66 Q920.135 1461.2 920.135 1468.33 Q920.135 1475.44 921.941 1479.01 Q923.769 1482.55 927.38 1482.55 Q931.015 1482.55 932.82 1479.01 Q934.649 1475.44 934.649 1468.33 Q934.649 1461.2 932.82 1457.66 Q931.015 1454.1 927.38 1454.1 M927.38 1450.39 Q933.191 1450.39 936.246 1455 Q939.325 1459.58 939.325 1468.33 Q939.325 1477.06 936.246 1481.67 Q933.191 1486.25 927.38 1486.25 Q921.57 1486.25 918.492 1481.67 Q915.436 1477.06 915.436 1468.33 Q915.436 1459.58 918.492 1455 Q921.57 1450.39 927.38 1450.39 Z" fill="#000000" fill-rule="nonzero" fill-opacity="1"></path><path clip-path="url(#clip990)" d="M1561.46 1481.64 L1569.1 1481.64 L1569.1 1455.28 L1560.79 1456.95 L1560.79 1452.69 L1569.05 1451.02 L1573.72 1451.02 L1573.72 1481.64 L1581.36 1481.64 L1581.36 1485.58 L1561.46 1485.58 L1561.46 1481.64 Z" fill="#000000" fill-rule="nonzero" fill-opacity="1"></path><path clip-path="url(#clip990)" d="M1600.81 1454.1 Q1597.2 1454.1 1595.37 1457.66 Q1593.56 1461.2 1593.56 1468.33 Q1593.56 1475.44 1595.37 1479.01 Q1597.2 1482.55 1600.81 1482.55 Q1604.44 1482.55 1606.25 1479.01 Q1608.08 1475.44 1608.08 1468.33 Q1608.08 1461.2 1606.25 1457.66 Q1604.44 1454.1 1600.81 1454.1 M1600.81 1450.39 Q1606.62 1450.39 1609.67 1455 Q1612.75 1459.58 1612.75 1468.33 Q1612.75 1477.06 1609.67 1481.67 Q1606.62 1486.25 1600.81 1486.25 Q1595 1486.25 1591.92 1481.67 Q1588.86 1477.06 1588.86 1468.33 Q1588.86 1459.58 1591.92 1455 Q1595 1450.39 1600.81 1450.39 Z" fill="#000000" fill-rule="nonzero" fill-opacity="1"></path><path clip-path="url(#clip990)" d="M1630.97 1454.1 Q1627.36 1454.1 1625.53 1457.66 Q1623.72 1461.2 1623.72 1468.33 Q1623.72 1475.44 1625.53 1479.01 Q1627.36 1482.55 1630.97 1482.55 Q1634.6 1482.55 1636.41 1479.01 Q1638.24 1475.44 1638.24 1468.33 Q1638.24 1461.2 1636.41 1457.66 Q1634.6 1454.1 1630.97 1454.1 M1630.97 1450.39 Q1636.78 1450.39 1639.84 1455 Q1642.91 1459.58 1642.91 1468.33 Q1642.91 1477.06 1639.84 1481.67 Q1636.78 1486.25 1630.97 1486.25 Q1625.16 1486.25 1622.08 1481.67 Q1619.03 1477.06 1619.03 1468.33 Q1619.03 1459.58 1622.08 1455 Q1625.16 1450.39 1630.97 1450.39 Z" fill="#000000" fill-rule="nonzero" fill-opacity="1"></path><path clip-path="url(#clip990)" d="M2250.74 1481.64 L2258.38 1481.64 L2258.38 1455.28 L2250.07 1456.95 L2250.07 1452.69 L2258.33 1451.02 L2263.01 1451.02 L2263.01 1481.64 L2270.65 1481.64 L2270.65 1485.58 L2250.74 1485.58 L2250.74 1481.64 Z" fill="#000000" fill-rule="nonzero" fill-opacity="1"></path><path clip-path="url(#clip990)" d="M2280.14 1451.02 L2298.49 1451.02 L2298.49 1454.96 L2284.42 1454.96 L2284.42 1463.43 Q2285.44 1463.08 2286.46 1462.92 Q2287.48 1462.73 2288.5 1462.73 Q2294.28 1462.73 2297.66 1465.9 Q2301.04 1469.08 2301.04 1474.49 Q2301.04 1480.07 2297.57 1483.17 Q2294.1 1486.25 2287.78 1486.25 Q2285.6 1486.25 2283.33 1485.88 Q2281.09 1485.51 2278.68 1484.77 L2278.68 1480.07 Q2280.76 1481.2 2282.99 1481.76 Q2285.21 1482.32 2287.68 1482.32 Q2291.69 1482.32 2294.03 1480.21 Q2296.37 1478.1 2296.37 1474.49 Q2296.37 1470.88 2294.03 1468.77 Q2291.69 1466.67 2287.68 1466.67 Q2285.81 1466.67 2283.93 1467.08 Q2282.08 1467.5 2280.14 1468.38 L2280.14 1451.02 Z" fill="#000000" fill-rule="nonzero" fill-opacity="1"></path><path clip-path="url(#clip990)" d="M2320.25 1454.1 Q2316.64 1454.1 2314.81 1457.66 Q2313.01 1461.2 2313.01 1468.33 Q2313.01 1475.44 2314.81 1479.01 Q2316.64 1482.55 2320.25 1482.55 Q2323.89 1482.55 2325.69 1479.01 Q2327.52 1475.44 2327.52 1468.33 Q2327.52 1461.2 2325.69 1457.66 Q2323.89 1454.1 2320.25 1454.1 M2320.25 1450.39 Q2326.06 1450.39 2329.12 1455 Q2332.2 1459.58 2332.2 1468.33 Q2332.2 1477.06 2329.12 1481.67 Q2326.06 1486.25 2320.25 1486.25 Q2314.44 1486.25 2311.37 1481.67 Q2308.31 1477.06 2308.31 1468.33 Q2308.31 1459.58 2311.37 1455 Q2314.44 1450.39 2320.25 1450.39 Z" fill="#000000" fill-rule="nonzero" fill-opacity="1"></path><path clip-path="url(#clip990)" d="M1093.05 1520.52 L1102.63 1520.52 L1114.76 1552.86 L1126.95 1520.52 L1136.53 1520.52 L1136.53 1568.04 L1130.26 1568.04 L1130.26 1526.32 L1118.01 1558.91 L1111.55 1558.91 L1099.29 1526.32 L1099.29 1568.04 L1093.05 1568.04 L1093.05 1520.52 Z" fill="#000000" fill-rule="nonzero" fill-opacity="1"></path><path clip-path="url(#clip990)" d="M1165.24 1550.12 Q1158.14 1550.12 1155.41 1551.75 Q1152.67 1553.37 1152.67 1557.29 Q1152.67 1560.4 1154.71 1562.25 Q1156.77 1564.07 1160.31 1564.07 Q1165.18 1564.07 1168.11 1560.63 Q1171.07 1557.16 1171.07 1551.43 L1171.07 1550.12 L1165.24 1550.12 M1176.92 1547.71 L1176.92 1568.04 L1171.07 1568.04 L1171.07 1562.63 Q1169.06 1565.88 1166.07 1567.44 Q1163.08 1568.97 1158.75 1568.97 Q1153.27 1568.97 1150.03 1565.91 Q1146.81 1562.82 1146.81 1557.67 Q1146.81 1551.65 1150.82 1548.6 Q1154.87 1545.54 1162.85 1545.54 L1171.07 1545.54 L1171.07 1544.97 Q1171.07 1540.93 1168.39 1538.73 Q1165.75 1536.5 1160.94 1536.5 Q1157.89 1536.5 1154.99 1537.23 Q1152.1 1537.97 1149.42 1539.43 L1149.42 1534.02 Q1152.64 1532.78 1155.66 1532.17 Q1158.68 1531.54 1161.55 1531.54 Q1169.28 1531.54 1173.1 1535.55 Q1176.92 1539.56 1176.92 1547.71 Z" fill="#000000" fill-rule="nonzero" fill-opacity="1"></path><path clip-path="url(#clip990)" d="M1218.62 1532.4 L1205.73 1549.74 L1219.29 1568.04 L1212.38 1568.04 L1202 1554.04 L1191.63 1568.04 L1184.72 1568.04 L1198.57 1549.39 L1185.9 1532.4 L1192.8 1532.4 L1202.26 1545.1 L1211.71 1532.4 L1218.62 1532.4 Z" fill="#000000" fill-rule="nonzero" fill-opacity="1"></path><path clip-path="url(#clip990)" d="M1254.97 1525.81 L1254.97 1562.76 L1262.73 1562.76 Q1272.57 1562.76 1277.12 1558.3 Q1281.7 1553.85 1281.7 1544.24 Q1281.7 1534.69 1277.12 1530.26 Q1272.57 1525.81 1262.73 1525.81 L1254.97 1525.81 M1248.54 1520.52 L1261.75 1520.52 Q1275.56 1520.52 1282.02 1526.28 Q1288.48 1532.01 1288.48 1544.24 Q1288.48 1556.52 1281.99 1562.28 Q1275.5 1568.04 1261.75 1568.04 L1248.54 1568.04 L1248.54 1520.52 Z" fill="#000000" fill-rule="nonzero" fill-opacity="1"></path><path clip-path="url(#clip990)" d="M1328.97 1548.76 L1328.97 1551.62 L1302.04 1551.62 Q1302.42 1557.67 1305.67 1560.85 Q1308.95 1564 1314.77 1564 Q1318.15 1564 1321.3 1563.17 Q1324.48 1562.35 1327.6 1560.69 L1327.6 1566.23 Q1324.45 1567.57 1321.14 1568.27 Q1317.83 1568.97 1314.42 1568.97 Q1305.89 1568.97 1300.89 1564 Q1295.93 1559.04 1295.93 1550.57 Q1295.93 1541.82 1300.64 1536.69 Q1305.38 1531.54 1313.4 1531.54 Q1320.6 1531.54 1324.77 1536.18 Q1328.97 1540.8 1328.97 1548.76 M1323.11 1547.04 Q1323.05 1542.23 1320.41 1539.37 Q1317.8 1536.5 1313.47 1536.5 Q1308.57 1536.5 1305.6 1539.27 Q1302.68 1542.04 1302.23 1547.07 L1323.11 1547.04 Z" fill="#000000" fill-rule="nonzero" fill-opacity="1"></path><path clip-path="url(#clip990)" d="M1344.24 1562.7 L1344.24 1581.6 L1338.36 1581.6 L1338.36 1532.4 L1344.24 1532.4 L1344.24 1537.81 Q1346.09 1534.62 1348.89 1533.1 Q1351.72 1531.54 1355.64 1531.54 Q1362.13 1531.54 1366.17 1536.69 Q1370.25 1541.85 1370.25 1550.25 Q1370.25 1558.65 1366.17 1563.81 Q1362.13 1568.97 1355.64 1568.97 Q1351.72 1568.97 1348.89 1567.44 Q1346.09 1565.88 1344.24 1562.7 M1364.17 1550.25 Q1364.17 1543.79 1361.5 1540.13 Q1358.85 1536.44 1354.21 1536.44 Q1349.56 1536.44 1346.89 1540.13 Q1344.24 1543.79 1344.24 1550.25 Q1344.24 1556.71 1346.89 1560.4 Q1349.56 1564.07 1354.21 1564.07 Q1358.85 1564.07 1361.5 1560.4 Q1364.17 1556.71 1364.17 1550.25 Z" fill="#000000" fill-rule="nonzero" fill-opacity="1"></path><path clip-path="url(#clip990)" d="M1385.75 1522.27 L1385.75 1532.4 L1397.81 1532.4 L1397.81 1536.95 L1385.75 1536.95 L1385.75 1556.3 Q1385.75 1560.66 1386.93 1561.9 Q1388.14 1563.14 1391.8 1563.14 L1397.81 1563.14 L1397.81 1568.04 L1391.8 1568.04 Q1385.02 1568.04 1382.44 1565.53 Q1379.86 1562.98 1379.86 1556.3 L1379.86 1536.95 L1375.56 1536.95 L1375.56 1532.4 L1379.86 1532.4 L1379.86 1522.27 L1385.75 1522.27 Z" fill="#000000" fill-rule="nonzero" fill-opacity="1"></path><path clip-path="url(#clip990)" d="M1435.15 1546.53 L1435.15 1568.04 L1429.29 1568.04 L1429.29 1546.72 Q1429.29 1541.66 1427.32 1539.14 Q1425.34 1536.63 1421.4 1536.63 Q1416.65 1536.63 1413.92 1539.65 Q1411.18 1542.68 1411.18 1547.9 L1411.18 1568.04 L1405.29 1568.04 L1405.29 1518.52 L1411.18 1518.52 L1411.18 1537.93 Q1413.28 1534.72 1416.11 1533.13 Q1418.98 1531.54 1422.7 1531.54 Q1428.85 1531.54 1432 1535.36 Q1435.15 1539.14 1435.15 1546.53 Z" fill="#000000" fill-rule="nonzero" fill-opacity="1"></path><polyline clip-path="url(#clip990)" style="stroke:#000000; stroke-linecap:round; stroke-linejoin:round; stroke-width:4; stroke-opacity:1; fill:none" points="175.445,1423.18 175.445,123.472 "></polyline>
<polyline clip-path="url(#clip990)" style="stroke:#000000; stroke-linecap:round; stroke-linejoin:round; stroke-width:4; stroke-opacity:1; fill:none" points="175.445,1210.68 194.343,1210.68 "></polyline>
<polyline clip-path="url(#clip990)" style="stroke:#000000; stroke-linecap:round; stroke-linejoin:round; stroke-width:4; stroke-opacity:1; fill:none" points="175.445,961.031 194.343,961.031 "></polyline>
<polyline clip-path="url(#clip990)" style="stroke:#000000; stroke-linecap:round; stroke-linejoin:round; stroke-width:4; stroke-opacity:1; fill:none" points="175.445,711.382 194.343,711.382 "></polyline>
<polyline clip-path="url(#clip990)" style="stroke:#000000; stroke-linecap:round; stroke-linejoin:round; stroke-width:4; stroke-opacity:1; fill:none" points="175.445,461.732 194.343,461.732 "></polyline>
<polyline clip-path="url(#clip990)" style="stroke:#000000; stroke-linecap:round; stroke-linejoin:round; stroke-width:4; stroke-opacity:1; fill:none" points="175.445,212.083 194.343,212.083 "></polyline>
<path clip-path="url(#clip990)" d="M119.538 1224.03 L127.177 1224.03 L127.177 1197.66 L118.867 1199.33 L118.867 1195.07 L127.13 1193.4 L131.806 1193.4 L131.806 1224.03 L139.445 1224.03 L139.445 1227.96 L119.538 1227.96 L119.538 1224.03 Z" fill="#000000" fill-rule="nonzero" fill-opacity="1"></path><path clip-path="url(#clip990)" d="M123.126 974.376 L139.445 974.376 L139.445 978.311 L117.501 978.311 L117.501 974.376 Q120.163 971.621 124.746 966.992 Q129.353 962.339 130.533 960.996 Q132.779 958.473 133.658 956.737 Q134.561 954.978 134.561 953.288 Q134.561 950.534 132.617 948.797 Q130.695 947.061 127.593 947.061 Q125.394 947.061 122.941 947.825 Q120.51 948.589 117.732 950.14 L117.732 945.418 Q120.556 944.284 123.01 943.705 Q125.464 943.126 127.501 943.126 Q132.871 943.126 136.066 945.811 Q139.26 948.496 139.26 952.987 Q139.26 955.117 138.45 957.038 Q137.663 958.936 135.556 961.529 Q134.978 962.2 131.876 965.418 Q128.774 968.612 123.126 974.376 Z" fill="#000000" fill-rule="nonzero" fill-opacity="1"></path><path clip-path="url(#clip990)" d="M132.316 710.028 Q135.672 710.745 137.547 713.014 Q139.445 715.282 139.445 718.616 Q139.445 723.731 135.927 726.532 Q132.408 729.333 125.927 729.333 Q123.751 729.333 121.436 728.893 Q119.144 728.477 116.691 727.62 L116.691 723.106 Q118.635 724.24 120.95 724.819 Q123.265 725.398 125.788 725.398 Q130.186 725.398 132.478 723.662 Q134.792 721.926 134.792 718.616 Q134.792 715.56 132.64 713.847 Q130.51 712.111 126.691 712.111 L122.663 712.111 L122.663 708.268 L126.876 708.268 Q130.325 708.268 132.154 706.903 Q133.982 705.514 133.982 702.921 Q133.982 700.259 132.084 698.847 Q130.209 697.412 126.691 697.412 Q124.769 697.412 122.57 697.829 Q120.371 698.245 117.732 699.125 L117.732 694.958 Q120.394 694.218 122.709 693.847 Q125.047 693.477 127.107 693.477 Q132.431 693.477 135.533 695.907 Q138.635 698.315 138.635 702.435 Q138.635 705.305 136.992 707.296 Q135.348 709.264 132.316 710.028 Z" fill="#000000" fill-rule="nonzero" fill-opacity="1"></path><path clip-path="url(#clip990)" d="M129.862 448.526 L118.056 466.975 L129.862 466.975 L129.862 448.526 M128.635 444.452 L134.515 444.452 L134.515 466.975 L139.445 466.975 L139.445 470.864 L134.515 470.864 L134.515 479.012 L129.862 479.012 L129.862 470.864 L114.26 470.864 L114.26 466.35 L128.635 444.452 Z" fill="#000000" fill-rule="nonzero" fill-opacity="1"></path><path clip-path="url(#clip990)" d="M118.543 194.803 L136.899 194.803 L136.899 198.738 L122.825 198.738 L122.825 207.21 Q123.843 206.863 124.862 206.701 Q125.88 206.516 126.899 206.516 Q132.686 206.516 136.066 209.687 Q139.445 212.858 139.445 218.275 Q139.445 223.854 135.973 226.956 Q132.501 230.034 126.181 230.034 Q124.005 230.034 121.737 229.664 Q119.492 229.294 117.084 228.553 L117.084 223.854 Q119.168 224.988 121.39 225.544 Q123.612 226.099 126.089 226.099 Q130.093 226.099 132.431 223.993 Q134.769 221.886 134.769 218.275 Q134.769 214.664 132.431 212.558 Q130.093 210.451 126.089 210.451 Q124.214 210.451 122.339 210.868 Q120.487 211.284 118.543 212.164 L118.543 194.803 Z" fill="#000000" fill-rule="nonzero" fill-opacity="1"></path><path clip-path="url(#clip990)" d="M16.4842 908.597 L16.4842 902.168 L58.5933 902.168 L58.5933 879.029 L64.0042 879.029 L64.0042 908.597 L16.4842 908.597 Z" fill="#000000" fill-rule="nonzero" fill-opacity="1"></path><path clip-path="url(#clip990)" d="M32.4621 859.868 Q32.4621 864.578 36.1542 867.316 Q39.8145 870.053 46.212 870.053 Q52.6095 870.053 56.3017 867.347 Q59.9619 864.61 59.9619 859.868 Q59.9619 855.189 56.2698 852.452 Q52.5777 849.714 46.212 849.714 Q39.8781 849.714 36.186 852.452 Q32.4621 855.189 32.4621 859.868 M27.4968 859.868 Q27.4968 852.229 32.4621 847.868 Q37.4273 843.508 46.212 843.508 Q54.9649 843.508 59.9619 847.868 Q64.9272 852.229 64.9272 859.868 Q64.9272 867.538 59.9619 871.899 Q54.9649 876.228 46.212 876.228 Q37.4273 876.228 32.4621 871.899 Q27.4968 867.538 27.4968 859.868 Z" fill="#000000" fill-rule="nonzero" fill-opacity="1"></path><path clip-path="url(#clip990)" d="M45.7664 810.343 Q39.4007 810.343 35.8996 812.984 Q32.3984 815.594 32.3984 820.337 Q32.3984 825.047 35.8996 827.689 Q39.4007 830.299 45.7664 830.299 Q52.1003 830.299 55.6014 827.689 Q59.1026 825.047 59.1026 820.337 Q59.1026 815.594 55.6014 812.984 Q52.1003 810.343 45.7664 810.343 M59.58 804.486 Q68.683 804.486 73.1071 808.528 Q77.5631 812.571 77.5631 820.91 Q77.5631 823.997 77.0857 826.734 Q76.6401 829.472 75.6852 832.05 L69.9879 832.05 Q71.3884 829.472 72.0568 826.957 Q72.7252 824.443 72.7252 821.833 Q72.7252 816.072 69.7015 813.207 Q66.7096 810.343 60.6303 810.343 L57.7339 810.343 Q60.885 812.157 62.4446 814.99 Q64.0042 817.822 64.0042 821.769 Q64.0042 828.326 59.0071 832.336 Q54.01 836.346 45.7664 836.346 Q37.491 836.346 32.4939 832.336 Q27.4968 828.326 27.4968 821.769 Q27.4968 817.822 29.0564 814.99 Q30.616 812.157 33.7671 810.343 L28.3562 810.343 L28.3562 804.486 L59.58 804.486 Z" fill="#000000" fill-rule="nonzero" fill-opacity="1"></path><path clip-path="url(#clip990)" d="M16.4842 771.448 L16.4842 765.019 L58.5933 765.019 L58.5933 741.879 L64.0042 741.879 L64.0042 771.448 L16.4842 771.448 Z" fill="#000000" fill-rule="nonzero" fill-opacity="1"></path><path clip-path="url(#clip990)" d="M32.4621 722.719 Q32.4621 727.429 36.1542 730.166 Q39.8145 732.904 46.212 732.904 Q52.6095 732.904 56.3017 730.198 Q59.9619 727.461 59.9619 722.719 Q59.9619 718.04 56.2698 715.303 Q52.5777 712.565 46.212 712.565 Q39.8781 712.565 36.186 715.303 Q32.4621 718.04 32.4621 722.719 M27.4968 722.719 Q27.4968 715.08 32.4621 710.719 Q37.4273 706.359 46.212 706.359 Q54.9649 706.359 59.9619 710.719 Q64.9272 715.08 64.9272 722.719 Q64.9272 730.389 59.9619 734.75 Q54.9649 739.078 46.212 739.078 Q37.4273 739.078 32.4621 734.75 Q27.4968 730.389 27.4968 722.719 Z" fill="#000000" fill-rule="nonzero" fill-opacity="1"></path><path clip-path="url(#clip990)" d="M29.4065 673.925 L34.9447 673.925 Q33.6716 676.408 33.035 679.082 Q32.3984 681.755 32.3984 684.62 Q32.3984 688.98 33.7352 691.177 Q35.072 693.341 37.7456 693.341 Q39.7826 693.341 40.9603 691.781 Q42.1061 690.222 43.1565 685.511 L43.6021 683.506 Q44.9389 677.267 47.3897 674.658 Q49.8086 672.016 54.1691 672.016 Q59.1344 672.016 62.0308 675.963 Q64.9272 679.877 64.9272 686.752 Q64.9272 689.617 64.3543 692.736 Q63.8132 695.824 62.6992 699.261 L56.6518 699.261 Q58.3387 696.014 59.198 692.863 Q60.0256 689.712 60.0256 686.625 Q60.0256 682.487 58.6251 680.259 Q57.1929 678.031 54.6147 678.031 Q52.2276 678.031 50.9545 679.655 Q49.6813 681.246 48.5037 686.689 L48.0262 688.726 Q46.8804 694.168 44.5251 696.587 Q42.138 699.006 38.0002 699.006 Q32.9713 699.006 30.2341 695.442 Q27.4968 691.877 27.4968 685.32 Q27.4968 682.074 27.9743 679.209 Q28.4517 676.344 29.4065 673.925 Z" fill="#000000" fill-rule="nonzero" fill-opacity="1"></path><path clip-path="url(#clip990)" d="M29.4065 639.964 L34.9447 639.964 Q33.6716 642.447 33.035 645.121 Q32.3984 647.794 32.3984 650.659 Q32.3984 655.019 33.7352 657.215 Q35.072 659.38 37.7456 659.38 Q39.7826 659.38 40.9603 657.82 Q42.1061 656.261 43.1565 651.55 L43.6021 649.545 Q44.9389 643.306 47.3897 640.696 Q49.8086 638.055 54.1691 638.055 Q59.1344 638.055 62.0308 642.001 Q64.9272 645.916 64.9272 652.791 Q64.9272 655.656 64.3543 658.775 Q63.8132 661.862 62.6992 665.3 L56.6518 665.3 Q58.3387 662.053 59.198 658.902 Q60.0256 655.751 60.0256 652.664 Q60.0256 648.526 58.6251 646.298 Q57.1929 644.07 54.6147 644.07 Q52.2276 644.07 50.9545 645.694 Q49.6813 647.285 48.5037 652.728 L48.0262 654.765 Q46.8804 660.207 44.5251 662.626 Q42.138 665.045 38.0002 665.045 Q32.9713 665.045 30.2341 661.481 Q27.4968 657.916 27.4968 651.359 Q27.4968 648.113 27.9743 645.248 Q28.4517 642.383 29.4065 639.964 Z" fill="#000000" fill-rule="nonzero" fill-opacity="1"></path><path clip-path="url(#clip990)" d="M954.733 12.096 L962.916 12.096 L962.916 65.6895 L992.366 65.6895 L992.366 72.576 L954.733 72.576 L954.733 12.096 Z" fill="#000000" fill-rule="nonzero" fill-opacity="1"></path><path clip-path="url(#clip990)" d="M1037.98 48.0275 L1037.98 51.6733 L1003.71 51.6733 Q1004.19 59.3701 1008.33 63.421 Q1012.5 67.4314 1019.91 67.4314 Q1024.21 67.4314 1028.22 66.3781 Q1032.27 65.3249 1036.24 63.2184 L1036.24 70.267 Q1032.23 71.9684 1028.01 72.8596 Q1023.8 73.7508 1019.47 73.7508 Q1008.61 73.7508 1002.25 67.4314 Q995.931 61.1119 995.931 50.3365 Q995.931 39.1965 1001.93 32.6746 Q1007.96 26.1121 1018.17 26.1121 Q1027.33 26.1121 1032.63 32.0264 Q1037.98 37.9003 1037.98 48.0275 M1030.53 45.84 Q1030.44 39.7232 1027.08 36.0774 Q1023.76 32.4315 1018.25 32.4315 Q1012.01 32.4315 1008.25 35.9558 Q1004.52 39.4801 1003.95 45.8805 L1030.53 45.84 Z" fill="#000000" fill-rule="nonzero" fill-opacity="1"></path><path clip-path="url(#clip990)" d="M1070.83 49.7694 Q1061.8 49.7694 1058.31 51.8354 Q1054.83 53.9013 1054.83 58.8839 Q1054.83 62.8538 1057.42 65.2034 Q1060.06 67.5124 1064.55 67.5124 Q1070.75 67.5124 1074.48 63.1374 Q1078.25 58.7219 1078.25 51.4303 L1078.25 49.7694 L1070.83 49.7694 M1085.7 46.6907 L1085.7 72.576 L1078.25 72.576 L1078.25 65.6895 Q1075.69 69.8214 1071.89 71.8063 Q1068.08 73.7508 1062.57 73.7508 Q1055.6 73.7508 1051.47 69.8619 Q1047.38 65.9325 1047.38 59.3701 Q1047.38 51.7138 1052.48 47.825 Q1057.63 43.9361 1067.79 43.9361 L1078.25 43.9361 L1078.25 43.2069 Q1078.25 38.0623 1074.84 35.2672 Q1071.48 32.4315 1065.36 32.4315 Q1061.47 32.4315 1057.79 33.3632 Q1054.1 34.295 1050.7 36.1584 L1050.7 29.2718 Q1054.79 27.692 1058.64 26.9223 Q1062.49 26.1121 1066.13 26.1121 Q1075.98 26.1121 1080.84 31.2163 Q1085.7 36.3204 1085.7 46.6907 Z" fill="#000000" fill-rule="nonzero" fill-opacity="1"></path><path clip-path="url(#clip990)" d="M1127.34 34.1734 Q1126.09 33.4443 1124.59 33.1202 Q1123.13 32.7556 1121.35 32.7556 Q1115.03 32.7556 1111.62 36.8875 Q1108.26 40.9789 1108.26 48.6757 L1108.26 72.576 L1100.77 72.576 L1100.77 27.2059 L1108.26 27.2059 L1108.26 34.2544 Q1110.61 30.1225 1114.38 28.1376 Q1118.15 26.1121 1123.53 26.1121 Q1124.3 26.1121 1125.24 26.2337 Q1126.17 26.3147 1127.3 26.5172 L1127.34 34.1734 Z" fill="#000000" fill-rule="nonzero" fill-opacity="1"></path><path clip-path="url(#clip990)" d="M1171.42 45.1919 L1171.42 72.576 L1163.96 72.576 L1163.96 45.4349 Q1163.96 38.994 1161.45 35.7938 Q1158.94 32.5936 1153.92 32.5936 Q1147.88 32.5936 1144.4 36.4419 Q1140.91 40.2903 1140.91 46.9338 L1140.91 72.576 L1133.42 72.576 L1133.42 27.2059 L1140.91 27.2059 L1140.91 34.2544 Q1143.59 30.163 1147.19 28.1376 Q1150.84 26.1121 1155.58 26.1121 Q1163.4 26.1121 1167.41 30.9732 Q1171.42 35.7938 1171.42 45.1919 Z" fill="#000000" fill-rule="nonzero" fill-opacity="1"></path><path clip-path="url(#clip990)" d="M1186.28 27.2059 L1193.74 27.2059 L1193.74 72.576 L1186.28 72.576 L1186.28 27.2059 M1186.28 9.54393 L1193.74 9.54393 L1193.74 18.9825 L1186.28 18.9825 L1186.28 9.54393 Z" fill="#000000" fill-rule="nonzero" fill-opacity="1"></path><path clip-path="url(#clip990)" d="M1247.05 45.1919 L1247.05 72.576 L1239.59 72.576 L1239.59 45.4349 Q1239.59 38.994 1237.08 35.7938 Q1234.57 32.5936 1229.55 32.5936 Q1223.51 32.5936 1220.03 36.4419 Q1216.54 40.2903 1216.54 46.9338 L1216.54 72.576 L1209.05 72.576 L1209.05 27.2059 L1216.54 27.2059 L1216.54 34.2544 Q1219.22 30.163 1222.82 28.1376 Q1226.47 26.1121 1231.21 26.1121 Q1239.03 26.1121 1243.04 30.9732 Q1247.05 35.7938 1247.05 45.1919 Z" fill="#000000" fill-rule="nonzero" fill-opacity="1"></path><path clip-path="url(#clip990)" d="M1291.77 49.3643 Q1291.77 41.2625 1288.41 36.8065 Q1285.08 32.3505 1279.05 32.3505 Q1273.05 32.3505 1269.69 36.8065 Q1266.37 41.2625 1266.37 49.3643 Q1266.37 57.4256 1269.69 61.8816 Q1273.05 66.3376 1279.05 66.3376 Q1285.08 66.3376 1288.41 61.8816 Q1291.77 57.4256 1291.77 49.3643 M1299.22 66.9452 Q1299.22 78.5308 1294.08 84.1616 Q1288.93 89.8329 1278.32 89.8329 Q1274.39 89.8329 1270.91 89.2252 Q1267.42 88.6581 1264.14 87.4428 L1264.14 80.1917 Q1267.42 81.9741 1270.62 82.8248 Q1273.82 83.6755 1277.14 83.6755 Q1284.48 83.6755 1288.12 79.8271 Q1291.77 76.0193 1291.77 68.282 L1291.77 64.5957 Q1289.46 68.6061 1285.85 70.5911 Q1282.25 72.576 1277.23 72.576 Q1268.88 72.576 1263.78 66.2161 Q1258.67 59.8562 1258.67 49.3643 Q1258.67 38.832 1263.78 32.472 Q1268.88 26.1121 1277.23 26.1121 Q1282.25 26.1121 1285.85 28.0971 Q1289.46 30.082 1291.77 34.0924 L1291.77 27.2059 L1299.22 27.2059 L1299.22 66.9452 Z" fill="#000000" fill-rule="nonzero" fill-opacity="1"></path><path clip-path="url(#clip990)" d="M1386.56 16.7545 L1386.56 25.383 Q1382.43 21.5346 1377.73 19.6307 Q1373.07 17.7268 1367.8 17.7268 Q1357.43 17.7268 1351.92 24.0867 Q1346.41 30.4061 1346.41 42.3968 Q1346.41 54.3469 1351.92 60.7069 Q1357.43 67.0263 1367.8 67.0263 Q1373.07 67.0263 1377.73 65.1223 Q1382.43 63.2184 1386.56 59.3701 L1386.56 67.9175 Q1382.27 70.8341 1377.44 72.2924 Q1372.66 73.7508 1367.32 73.7508 Q1353.59 73.7508 1345.69 65.3654 Q1337.79 56.9395 1337.79 42.3968 Q1337.79 27.8135 1345.69 19.4281 Q1353.59 11.0023 1367.32 11.0023 Q1372.75 11.0023 1377.53 12.4606 Q1382.35 13.8784 1386.56 16.7545 Z" fill="#000000" fill-rule="nonzero" fill-opacity="1"></path><path clip-path="url(#clip990)" d="M1398.1 54.671 L1398.1 27.2059 L1405.56 27.2059 L1405.56 54.3874 Q1405.56 60.8284 1408.07 64.0691 Q1410.58 67.2693 1415.6 67.2693 Q1421.64 67.2693 1425.12 63.421 Q1428.65 59.5726 1428.65 52.9291 L1428.65 27.2059 L1436.1 27.2059 L1436.1 72.576 L1428.65 72.576 L1428.65 65.6084 Q1425.93 69.7404 1422.33 71.7658 Q1418.76 73.7508 1414.02 73.7508 Q1406.21 73.7508 1402.16 68.8897 Q1398.1 64.0286 1398.1 54.671 M1416.86 26.1121 L1416.86 26.1121 Z" fill="#000000" fill-rule="nonzero" fill-opacity="1"></path><path clip-path="url(#clip990)" d="M1477.75 34.1734 Q1476.49 33.4443 1474.99 33.1202 Q1473.53 32.7556 1471.75 32.7556 Q1465.43 32.7556 1462.03 36.8875 Q1458.67 40.9789 1458.67 48.6757 L1458.67 72.576 L1451.17 72.576 L1451.17 27.2059 L1458.67 27.2059 L1458.67 34.2544 Q1461.02 30.1225 1464.78 28.1376 Q1468.55 26.1121 1473.94 26.1121 Q1474.71 26.1121 1475.64 26.2337 Q1476.57 26.3147 1477.7 26.5172 L1477.75 34.1734 Z" fill="#000000" fill-rule="nonzero" fill-opacity="1"></path><path clip-path="url(#clip990)" d="M1480.22 27.2059 L1488.12 27.2059 L1502.29 65.2844 L1516.47 27.2059 L1524.37 27.2059 L1507.36 72.576 L1497.23 72.576 L1480.22 27.2059 Z" fill="#000000" fill-rule="nonzero" fill-opacity="1"></path><path clip-path="url(#clip990)" d="M1573.47 48.0275 L1573.47 51.6733 L1539.2 51.6733 Q1539.68 59.3701 1543.82 63.421 Q1547.99 67.4314 1555.4 67.4314 Q1559.7 67.4314 1563.71 66.3781 Q1567.76 65.3249 1571.73 63.2184 L1571.73 70.267 Q1567.72 71.9684 1563.5 72.8596 Q1559.29 73.7508 1554.96 73.7508 Q1544.1 73.7508 1537.74 67.4314 Q1531.42 61.1119 1531.42 50.3365 Q1531.42 39.1965 1537.42 32.6746 Q1543.45 26.1121 1553.66 26.1121 Q1562.81 26.1121 1568.12 32.0264 Q1573.47 37.9003 1573.47 48.0275 M1566.01 45.84 Q1565.93 39.7232 1562.57 36.0774 Q1559.25 32.4315 1553.74 32.4315 Q1547.5 32.4315 1543.73 35.9558 Q1540.01 39.4801 1539.44 45.8805 L1566.01 45.84 Z" fill="#000000" fill-rule="nonzero" fill-opacity="1"></path><polyline clip-path="url(#clip992)" style="stroke:#009af9; stroke-linecap:round; stroke-linejoin:round; stroke-width:4; stroke-opacity:1; fill:none" points="237.067,1291.01 250.853,1377.16 264.639,1386.4 278.424,1330.08 292.21,1285.44 305.996,1212.53 319.781,1088.64 333.567,957.319 347.353,823.68 374.924,573.525 402.495,388.826 443.852,275.434 485.209,230.312 526.567,183.608 595.495,230.312 664.423,191.392 747.137,160.256 843.637,199.176 953.923,238.096 1091.78,238.096 1257.21,191.392 1450.21,230.312 1684.56,175.824 1960.28,238.096 2291.13,168.04 "></polyline>
<polyline clip-path="url(#clip992)" style="stroke:#e26f46; stroke-linecap:round; stroke-linejoin:round; stroke-width:4; stroke-opacity:1; fill:none" stroke-dasharray="16, 10" points="237.067,1255.99 2291.13,1255.99 "></polyline>
<path clip-path="url(#clip990)" d="M1620.51 1379.86 L2280.18 1379.86 L2280.18 1224.34 L1620.51 1224.34  Z" fill="#ffffff" fill-rule="evenodd" fill-opacity="1"></path>
<polyline clip-path="url(#clip990)" style="stroke:#000000; stroke-linecap:round; stroke-linejoin:round; stroke-width:4; stroke-opacity:1; fill:none" points="1620.51,1379.86 2280.18,1379.86 2280.18,1224.34 1620.51,1224.34 1620.51,1379.86 "></polyline>
<polyline clip-path="url(#clip990)" style="stroke:#009af9; stroke-linecap:round; stroke-linejoin:round; stroke-width:4; stroke-opacity:1; fill:none" points="1644.7,1276.18 1789.85,1276.18 "></polyline>
<path clip-path="url(#clip990)" d="M1818.72 1262.74 L1818.72 1289.61 L1824.37 1289.61 Q1831.52 1289.61 1834.83 1286.37 Q1838.16 1283.13 1838.16 1276.14 Q1838.16 1269.2 1834.83 1265.98 Q1831.52 1262.74 1824.37 1262.74 L1818.72 1262.74 M1814.04 1258.9 L1823.65 1258.9 Q1833.7 1258.9 1838.4 1263.09 Q1843.1 1267.25 1843.1 1276.14 Q1843.1 1285.08 1838.37 1289.27 Q1833.65 1293.46 1823.65 1293.46 L1814.04 1293.46 L1814.04 1258.9 Z" fill="#000000" fill-rule="nonzero" fill-opacity="1"></path><path clip-path="url(#clip990)" d="M1872.54 1279.43 L1872.54 1281.51 L1852.96 1281.51 Q1853.23 1285.91 1855.6 1288.22 Q1857.98 1290.52 1862.22 1290.52 Q1864.67 1290.52 1866.96 1289.91 Q1869.28 1289.31 1871.54 1288.11 L1871.54 1292.14 Q1869.25 1293.11 1866.85 1293.62 Q1864.44 1294.13 1861.96 1294.13 Q1855.76 1294.13 1852.12 1290.52 Q1848.51 1286.91 1848.51 1280.75 Q1848.51 1274.38 1851.94 1270.66 Q1855.39 1266.91 1861.22 1266.91 Q1866.45 1266.91 1869.48 1270.29 Q1872.54 1273.64 1872.54 1279.43 M1868.28 1278.18 Q1868.23 1274.68 1866.31 1272.6 Q1864.41 1270.52 1861.27 1270.52 Q1857.7 1270.52 1855.55 1272.53 Q1853.42 1274.54 1853.1 1278.2 L1868.28 1278.18 Z" fill="#000000" fill-rule="nonzero" fill-opacity="1"></path><path clip-path="url(#clip990)" d="M1898.19 1268.53 L1898.19 1272.51 Q1896.38 1271.51 1894.55 1271.03 Q1892.75 1270.52 1890.9 1270.52 Q1886.75 1270.52 1884.46 1273.16 Q1882.17 1275.77 1882.17 1280.52 Q1882.17 1285.26 1884.46 1287.9 Q1886.75 1290.52 1890.9 1290.52 Q1892.75 1290.52 1894.55 1290.03 Q1896.38 1289.52 1898.19 1288.53 L1898.19 1292.46 Q1896.41 1293.29 1894.48 1293.71 Q1892.59 1294.13 1890.43 1294.13 Q1884.58 1294.13 1881.13 1290.45 Q1877.68 1286.77 1877.68 1280.52 Q1877.68 1274.17 1881.15 1270.54 Q1884.65 1266.91 1890.71 1266.91 Q1892.68 1266.91 1894.55 1267.32 Q1896.43 1267.72 1898.19 1268.53 Z" fill="#000000" fill-rule="nonzero" fill-opacity="1"></path><path clip-path="url(#clip990)" d="M1905.59 1267.53 L1909.85 1267.53 L1909.85 1293.46 L1905.59 1293.46 L1905.59 1267.53 M1905.59 1257.44 L1909.85 1257.44 L1909.85 1262.83 L1905.59 1262.83 L1905.59 1257.44 Z" fill="#000000" fill-rule="nonzero" fill-opacity="1"></path><path clip-path="url(#clip990)" d="M1935.29 1268.29 L1935.29 1272.32 Q1933.49 1271.4 1931.54 1270.93 Q1929.6 1270.47 1927.52 1270.47 Q1924.34 1270.47 1922.75 1271.44 Q1921.17 1272.41 1921.17 1274.36 Q1921.17 1275.84 1922.31 1276.7 Q1923.44 1277.53 1926.87 1278.29 L1928.33 1278.62 Q1932.86 1279.59 1934.76 1281.37 Q1936.68 1283.13 1936.68 1286.3 Q1936.68 1289.91 1933.81 1292.02 Q1930.97 1294.13 1925.97 1294.13 Q1923.88 1294.13 1921.61 1293.71 Q1919.37 1293.32 1916.87 1292.51 L1916.87 1288.11 Q1919.23 1289.34 1921.52 1289.96 Q1923.81 1290.56 1926.06 1290.56 Q1929.07 1290.56 1930.69 1289.54 Q1932.31 1288.5 1932.31 1286.63 Q1932.31 1284.89 1931.13 1283.97 Q1929.97 1283.04 1926.01 1282.18 L1924.53 1281.84 Q1920.57 1281 1918.81 1279.29 Q1917.05 1277.55 1917.05 1274.54 Q1917.05 1270.89 1919.65 1268.9 Q1922.24 1266.91 1927.01 1266.91 Q1929.37 1266.91 1931.45 1267.25 Q1933.53 1267.6 1935.29 1268.29 Z" fill="#000000" fill-rule="nonzero" fill-opacity="1"></path><path clip-path="url(#clip990)" d="M1943.47 1267.53 L1947.72 1267.53 L1947.72 1293.46 L1943.47 1293.46 L1943.47 1267.53 M1943.47 1257.44 L1947.72 1257.44 L1947.72 1262.83 L1943.47 1262.83 L1943.47 1257.44 Z" fill="#000000" fill-rule="nonzero" fill-opacity="1"></path><path clip-path="url(#clip990)" d="M1966.68 1270.52 Q1963.26 1270.52 1961.27 1273.2 Q1959.28 1275.86 1959.28 1280.52 Q1959.28 1285.17 1961.24 1287.85 Q1963.23 1290.52 1966.68 1290.52 Q1970.09 1290.52 1972.08 1287.83 Q1974.07 1285.15 1974.07 1280.52 Q1974.07 1275.91 1972.08 1273.22 Q1970.09 1270.52 1966.68 1270.52 M1966.68 1266.91 Q1972.24 1266.91 1975.41 1270.52 Q1978.58 1274.13 1978.58 1280.52 Q1978.58 1286.88 1975.41 1290.52 Q1972.24 1294.13 1966.68 1294.13 Q1961.1 1294.13 1957.93 1290.52 Q1954.78 1286.88 1954.78 1280.52 Q1954.78 1274.13 1957.93 1270.52 Q1961.1 1266.91 1966.68 1266.91 Z" fill="#000000" fill-rule="nonzero" fill-opacity="1"></path><path clip-path="url(#clip990)" d="M2007.19 1277.81 L2007.19 1293.46 L2002.93 1293.46 L2002.93 1277.95 Q2002.93 1274.27 2001.5 1272.44 Q2000.06 1270.61 1997.19 1270.61 Q1993.74 1270.61 1991.75 1272.81 Q1989.76 1275.01 1989.76 1278.8 L1989.76 1293.46 L1985.48 1293.46 L1985.48 1267.53 L1989.76 1267.53 L1989.76 1271.56 Q1991.29 1269.22 1993.35 1268.06 Q1995.43 1266.91 1998.14 1266.91 Q2002.61 1266.91 2004.9 1269.68 Q2007.19 1272.44 2007.19 1277.81 Z" fill="#000000" fill-rule="nonzero" fill-opacity="1"></path><path clip-path="url(#clip990)" d="M2026.15 1258.9 L2055.39 1258.9 L2055.39 1262.83 L2043.12 1262.83 L2043.12 1293.46 L2038.42 1293.46 L2038.42 1262.83 L2026.15 1262.83 L2026.15 1258.9 Z" fill="#000000" fill-rule="nonzero" fill-opacity="1"></path><path clip-path="url(#clip990)" d="M2067.77 1271.51 Q2067.05 1271.1 2066.2 1270.91 Q2065.36 1270.7 2064.34 1270.7 Q2060.73 1270.7 2058.79 1273.06 Q2056.87 1275.4 2056.87 1279.8 L2056.87 1293.46 L2052.58 1293.46 L2052.58 1267.53 L2056.87 1267.53 L2056.87 1271.56 Q2058.21 1269.2 2060.36 1268.06 Q2062.52 1266.91 2065.59 1266.91 Q2066.03 1266.91 2066.57 1266.97 Q2067.1 1267.02 2067.75 1267.14 L2067.77 1271.51 Z" fill="#000000" fill-rule="nonzero" fill-opacity="1"></path><path clip-path="url(#clip990)" d="M2093.37 1279.43 L2093.37 1281.51 L2073.79 1281.51 Q2074.07 1285.91 2076.43 1288.22 Q2078.81 1290.52 2083.05 1290.52 Q2085.5 1290.52 2087.79 1289.91 Q2090.11 1289.31 2092.38 1288.11 L2092.38 1292.14 Q2090.08 1293.11 2087.68 1293.62 Q2085.27 1294.13 2082.79 1294.13 Q2076.59 1294.13 2072.96 1290.52 Q2069.34 1286.91 2069.34 1280.75 Q2069.34 1274.38 2072.77 1270.66 Q2076.22 1266.91 2082.05 1266.91 Q2087.28 1266.91 2090.32 1270.29 Q2093.37 1273.64 2093.37 1279.43 M2089.11 1278.18 Q2089.07 1274.68 2087.14 1272.6 Q2085.25 1270.52 2082.1 1270.52 Q2078.53 1270.52 2076.38 1272.53 Q2074.25 1274.54 2073.93 1278.2 L2089.11 1278.18 Z" fill="#000000" fill-rule="nonzero" fill-opacity="1"></path><path clip-path="url(#clip990)" d="M2122.54 1279.43 L2122.54 1281.51 L2102.95 1281.51 Q2103.23 1285.91 2105.59 1288.22 Q2107.98 1290.52 2112.21 1290.52 Q2114.67 1290.52 2116.96 1289.91 Q2119.27 1289.31 2121.54 1288.11 L2121.54 1292.14 Q2119.25 1293.11 2116.84 1293.62 Q2114.44 1294.13 2111.96 1294.13 Q2105.76 1294.13 2102.12 1290.52 Q2098.51 1286.91 2098.51 1280.75 Q2098.51 1274.38 2101.94 1270.66 Q2105.39 1266.91 2111.22 1266.91 Q2116.45 1266.91 2119.48 1270.29 Q2122.54 1273.64 2122.54 1279.43 M2118.28 1278.18 Q2118.23 1274.68 2116.31 1272.6 Q2114.41 1270.52 2111.27 1270.52 Q2107.7 1270.52 2105.55 1272.53 Q2103.42 1274.54 2103.09 1278.2 L2118.28 1278.18 Z" fill="#000000" fill-rule="nonzero" fill-opacity="1"></path><polyline clip-path="url(#clip990)" style="stroke:#e26f46; stroke-linecap:round; stroke-linejoin:round; stroke-width:4; stroke-opacity:1; fill:none" stroke-dasharray="16, 10" points="1644.7,1328.02 1789.85,1328.02 "></polyline>
<path clip-path="url(#clip990)" d="M1841.91 1313.4 L1841.91 1318.33 Q1839.55 1316.13 1836.87 1315.04 Q1834.21 1313.95 1831.2 1313.95 Q1825.27 1313.95 1822.12 1317.59 Q1818.97 1321.2 1818.97 1328.05 Q1818.97 1334.88 1822.12 1338.51 Q1825.27 1342.12 1831.2 1342.12 Q1834.21 1342.12 1836.87 1341.04 Q1839.55 1339.95 1841.91 1337.75 L1841.91 1342.63 Q1839.46 1344.3 1836.71 1345.13 Q1833.97 1345.97 1830.92 1345.97 Q1823.07 1345.97 1818.56 1341.18 Q1814.04 1336.36 1814.04 1328.05 Q1814.04 1319.72 1818.56 1314.93 Q1823.07 1310.11 1830.92 1310.11 Q1834.02 1310.11 1836.75 1310.94 Q1839.51 1311.75 1841.91 1313.4 Z" fill="#000000" fill-rule="nonzero" fill-opacity="1"></path><path clip-path="url(#clip990)" d="M1859 1322.36 Q1855.57 1322.36 1853.58 1325.04 Q1851.59 1327.7 1851.59 1332.36 Q1851.59 1337.01 1853.56 1339.69 Q1855.55 1342.36 1859 1342.36 Q1862.4 1342.36 1864.39 1339.67 Q1866.38 1336.99 1866.38 1332.36 Q1866.38 1327.75 1864.39 1325.06 Q1862.4 1322.36 1859 1322.36 M1859 1318.75 Q1864.55 1318.75 1867.72 1322.36 Q1870.9 1325.97 1870.9 1332.36 Q1870.9 1338.72 1867.72 1342.36 Q1864.55 1345.97 1859 1345.97 Q1853.42 1345.97 1850.25 1342.36 Q1847.1 1338.72 1847.1 1332.36 Q1847.1 1325.97 1850.25 1322.36 Q1853.42 1318.75 1859 1318.75 Z" fill="#000000" fill-rule="nonzero" fill-opacity="1"></path><path clip-path="url(#clip990)" d="M1899.51 1329.65 L1899.51 1345.3 L1895.25 1345.3 L1895.25 1329.79 Q1895.25 1326.11 1893.81 1324.28 Q1892.38 1322.45 1889.51 1322.45 Q1886.06 1322.45 1884.07 1324.65 Q1882.08 1326.85 1882.08 1330.64 L1882.08 1345.3 L1877.79 1345.3 L1877.79 1319.37 L1882.08 1319.37 L1882.08 1323.4 Q1883.6 1321.06 1885.66 1319.9 Q1887.75 1318.75 1890.46 1318.75 Q1894.92 1318.75 1897.22 1321.52 Q1899.51 1324.28 1899.51 1329.65 Z" fill="#000000" fill-rule="nonzero" fill-opacity="1"></path><path clip-path="url(#clip990)" d="M1924.53 1320.13 L1924.53 1324.16 Q1922.72 1323.24 1920.78 1322.77 Q1918.84 1322.31 1916.75 1322.31 Q1913.58 1322.31 1911.98 1323.28 Q1910.41 1324.25 1910.41 1326.2 Q1910.41 1327.68 1911.54 1328.54 Q1912.68 1329.37 1916.1 1330.13 L1917.56 1330.46 Q1922.1 1331.43 1924 1333.21 Q1925.92 1334.97 1925.92 1338.14 Q1925.92 1341.75 1923.05 1343.86 Q1920.2 1345.97 1915.2 1345.97 Q1913.12 1345.97 1910.85 1345.55 Q1908.6 1345.16 1906.1 1344.35 L1906.1 1339.95 Q1908.47 1341.18 1910.76 1341.8 Q1913.05 1342.4 1915.29 1342.4 Q1918.3 1342.4 1919.92 1341.38 Q1921.54 1340.34 1921.54 1338.47 Q1921.54 1336.73 1920.36 1335.81 Q1919.21 1334.88 1915.25 1334.02 L1913.77 1333.68 Q1909.81 1332.84 1908.05 1331.13 Q1906.29 1329.39 1906.29 1326.38 Q1906.29 1322.73 1908.88 1320.74 Q1911.47 1318.75 1916.24 1318.75 Q1918.6 1318.75 1920.69 1319.09 Q1922.77 1319.44 1924.53 1320.13 Z" fill="#000000" fill-rule="nonzero" fill-opacity="1"></path><path clip-path="url(#clip990)" d="M1936.91 1312.01 L1936.91 1319.37 L1945.69 1319.37 L1945.69 1322.68 L1936.91 1322.68 L1936.91 1336.75 Q1936.91 1339.93 1937.77 1340.83 Q1938.65 1341.73 1941.31 1341.73 L1945.69 1341.73 L1945.69 1345.3 L1941.31 1345.3 Q1936.38 1345.3 1934.51 1343.47 Q1932.63 1341.62 1932.63 1336.75 L1932.63 1322.68 L1929.51 1322.68 L1929.51 1319.37 L1932.63 1319.37 L1932.63 1312.01 L1936.91 1312.01 Z" fill="#000000" fill-rule="nonzero" fill-opacity="1"></path><path clip-path="url(#clip990)" d="M1963.07 1332.26 Q1957.91 1332.26 1955.92 1333.44 Q1953.93 1334.63 1953.93 1337.47 Q1953.93 1339.74 1955.41 1341.08 Q1956.91 1342.4 1959.48 1342.4 Q1963.03 1342.4 1965.15 1339.9 Q1967.31 1337.38 1967.31 1333.21 L1967.31 1332.26 L1963.07 1332.26 M1971.57 1330.5 L1971.57 1345.3 L1967.31 1345.3 L1967.31 1341.36 Q1965.85 1343.72 1963.67 1344.86 Q1961.5 1345.97 1958.35 1345.97 Q1954.37 1345.97 1952.01 1343.75 Q1949.67 1341.5 1949.67 1337.75 Q1949.67 1333.38 1952.59 1331.15 Q1955.53 1328.93 1961.34 1328.93 L1967.31 1328.93 L1967.31 1328.51 Q1967.31 1325.57 1965.36 1323.98 Q1963.44 1322.36 1959.95 1322.36 Q1957.72 1322.36 1955.62 1322.89 Q1953.51 1323.42 1951.57 1324.49 L1951.57 1320.55 Q1953.9 1319.65 1956.1 1319.21 Q1958.3 1318.75 1960.39 1318.75 Q1966.01 1318.75 1968.79 1321.66 Q1971.57 1324.58 1971.57 1330.5 Z" fill="#000000" fill-rule="nonzero" fill-opacity="1"></path><path clip-path="url(#clip990)" d="M2001.89 1329.65 L2001.89 1345.3 L1997.63 1345.3 L1997.63 1329.79 Q1997.63 1326.11 1996.2 1324.28 Q1994.76 1322.45 1991.89 1322.45 Q1988.44 1322.45 1986.45 1324.65 Q1984.46 1326.85 1984.46 1330.64 L1984.46 1345.3 L1980.18 1345.3 L1980.18 1319.37 L1984.46 1319.37 L1984.46 1323.4 Q1985.99 1321.06 1988.05 1319.9 Q1990.13 1318.75 1992.84 1318.75 Q1997.31 1318.75 1999.6 1321.52 Q2001.89 1324.28 2001.89 1329.65 Z" fill="#000000" fill-rule="nonzero" fill-opacity="1"></path><path clip-path="url(#clip990)" d="M2014.6 1312.01 L2014.6 1319.37 L2023.37 1319.37 L2023.37 1322.68 L2014.6 1322.68 L2014.6 1336.75 Q2014.6 1339.93 2015.46 1340.83 Q2016.34 1341.73 2019 1341.73 L2023.37 1341.73 L2023.37 1345.3 L2019 1345.3 Q2014.07 1345.3 2012.19 1343.47 Q2010.32 1341.62 2010.32 1336.75 L2010.32 1322.68 L2007.19 1322.68 L2007.19 1319.37 L2010.32 1319.37 L2010.32 1312.01 L2014.6 1312.01 Z" fill="#000000" fill-rule="nonzero" fill-opacity="1"></path><path clip-path="url(#clip990)" d="M2070.11 1313.4 L2070.11 1318.33 Q2067.75 1316.13 2065.06 1315.04 Q2062.4 1313.95 2059.39 1313.95 Q2053.46 1313.95 2050.32 1317.59 Q2047.17 1321.2 2047.17 1328.05 Q2047.17 1334.88 2050.32 1338.51 Q2053.46 1342.12 2059.39 1342.12 Q2062.4 1342.12 2065.06 1341.04 Q2067.75 1339.95 2070.11 1337.75 L2070.11 1342.63 Q2067.65 1344.3 2064.9 1345.13 Q2062.17 1345.97 2059.11 1345.97 Q2051.27 1345.97 2046.75 1341.18 Q2042.24 1336.36 2042.24 1328.05 Q2042.24 1319.72 2046.75 1314.93 Q2051.27 1310.11 2059.11 1310.11 Q2062.21 1310.11 2064.95 1310.94 Q2067.7 1311.75 2070.11 1313.4 Z" fill="#000000" fill-rule="nonzero" fill-opacity="1"></path><path clip-path="url(#clip990)" d="M2077.14 1309.28 L2081.4 1309.28 L2081.4 1345.3 L2077.14 1345.3 L2077.14 1309.28 Z" fill="#000000" fill-rule="nonzero" fill-opacity="1"></path><path clip-path="url(#clip990)" d="M2102.1 1332.26 Q2096.94 1332.26 2094.95 1333.44 Q2092.96 1334.63 2092.96 1337.47 Q2092.96 1339.74 2094.44 1341.08 Q2095.94 1342.4 2098.51 1342.4 Q2102.05 1342.4 2104.18 1339.9 Q2106.33 1337.38 2106.33 1333.21 L2106.33 1332.26 L2102.1 1332.26 M2110.59 1330.5 L2110.59 1345.3 L2106.33 1345.3 L2106.33 1341.36 Q2104.88 1343.72 2102.7 1344.86 Q2100.52 1345.97 2097.38 1345.97 Q2093.39 1345.97 2091.03 1343.75 Q2088.7 1341.5 2088.7 1337.75 Q2088.7 1333.38 2091.61 1331.15 Q2094.55 1328.93 2100.36 1328.93 L2106.33 1328.93 L2106.33 1328.51 Q2106.33 1325.57 2104.39 1323.98 Q2102.47 1322.36 2098.97 1322.36 Q2096.75 1322.36 2094.64 1322.89 Q2092.54 1323.42 2090.59 1324.49 L2090.59 1320.55 Q2092.93 1319.65 2095.13 1319.21 Q2097.33 1318.75 2099.41 1318.75 Q2105.04 1318.75 2107.82 1321.66 Q2110.59 1324.58 2110.59 1330.5 Z" fill="#000000" fill-rule="nonzero" fill-opacity="1"></path><path clip-path="url(#clip990)" d="M2135.89 1320.13 L2135.89 1324.16 Q2134.09 1323.24 2132.14 1322.77 Q2130.2 1322.31 2128.12 1322.31 Q2124.95 1322.31 2123.35 1323.28 Q2121.77 1324.25 2121.77 1326.2 Q2121.77 1327.68 2122.91 1328.54 Q2124.04 1329.37 2127.47 1330.13 L2128.93 1330.46 Q2133.46 1331.43 2135.36 1333.21 Q2137.28 1334.97 2137.28 1338.14 Q2137.28 1341.75 2134.41 1343.86 Q2131.57 1345.97 2126.57 1345.97 Q2124.48 1345.97 2122.21 1345.55 Q2119.97 1345.16 2117.47 1344.35 L2117.47 1339.95 Q2119.83 1341.18 2122.12 1341.8 Q2124.41 1342.4 2126.66 1342.4 Q2129.67 1342.4 2131.29 1341.38 Q2132.91 1340.34 2132.91 1338.47 Q2132.91 1336.73 2131.73 1335.81 Q2130.57 1334.88 2126.61 1334.02 L2125.13 1333.68 Q2121.17 1332.84 2119.41 1331.13 Q2117.65 1329.39 2117.65 1326.38 Q2117.65 1322.73 2120.25 1320.74 Q2122.84 1318.75 2127.61 1318.75 Q2129.97 1318.75 2132.05 1319.09 Q2134.14 1319.44 2135.89 1320.13 Z" fill="#000000" fill-rule="nonzero" fill-opacity="1"></path><path clip-path="url(#clip990)" d="M2160.59 1320.13 L2160.59 1324.16 Q2158.79 1323.24 2156.84 1322.77 Q2154.9 1322.31 2152.82 1322.31 Q2149.64 1322.31 2148.05 1323.28 Q2146.47 1324.25 2146.47 1326.2 Q2146.47 1327.68 2147.61 1328.54 Q2148.74 1329.37 2152.17 1330.13 L2153.63 1330.46 Q2158.16 1331.43 2160.06 1333.21 Q2161.98 1334.97 2161.98 1338.14 Q2161.98 1341.75 2159.11 1343.86 Q2156.26 1345.97 2151.26 1345.97 Q2149.18 1345.97 2146.91 1345.55 Q2144.67 1345.16 2142.17 1344.35 L2142.17 1339.95 Q2144.53 1341.18 2146.82 1341.8 Q2149.11 1342.4 2151.36 1342.4 Q2154.37 1342.4 2155.99 1341.38 Q2157.61 1340.34 2157.61 1338.47 Q2157.61 1336.73 2156.43 1335.81 Q2155.27 1334.88 2151.31 1334.02 L2149.83 1333.68 Q2145.87 1332.84 2144.11 1331.13 Q2142.35 1329.39 2142.35 1326.38 Q2142.35 1322.73 2144.95 1320.74 Q2147.54 1318.75 2152.31 1318.75 Q2154.67 1318.75 2156.75 1319.09 Q2158.83 1319.44 2160.59 1320.13 Z" fill="#000000" fill-rule="nonzero" fill-opacity="1"></path><path clip-path="url(#clip990)" d="M2168.76 1319.37 L2173.02 1319.37 L2173.02 1345.3 L2168.76 1345.3 L2168.76 1319.37 M2168.76 1309.28 L2173.02 1309.28 L2173.02 1314.67 L2168.76 1314.67 L2168.76 1309.28 Z" fill="#000000" fill-rule="nonzero" fill-opacity="1"></path><path clip-path="url(#clip990)" d="M2195.06 1309.28 L2195.06 1312.82 L2190.99 1312.82 Q2188.7 1312.82 2187.79 1313.75 Q2186.91 1314.67 2186.91 1317.08 L2186.91 1319.37 L2193.93 1319.37 L2193.93 1322.68 L2186.91 1322.68 L2186.91 1345.3 L2182.63 1345.3 L2182.63 1322.68 L2178.56 1322.68 L2178.56 1319.37 L2182.63 1319.37 L2182.63 1317.56 Q2182.63 1313.24 2184.64 1311.27 Q2186.66 1309.28 2191.03 1309.28 L2195.06 1309.28 Z" fill="#000000" fill-rule="nonzero" fill-opacity="1"></path><path clip-path="url(#clip990)" d="M2198.63 1319.37 L2202.88 1319.37 L2202.88 1345.3 L2198.63 1345.3 L2198.63 1319.37 M2198.63 1309.28 L2202.88 1309.28 L2202.88 1314.67 L2198.63 1314.67 L2198.63 1309.28 Z" fill="#000000" fill-rule="nonzero" fill-opacity="1"></path><path clip-path="url(#clip990)" d="M2233.97 1331.27 L2233.97 1333.35 L2214.39 1333.35 Q2214.67 1337.75 2217.03 1340.06 Q2219.41 1342.36 2223.65 1342.36 Q2226.1 1342.36 2228.39 1341.75 Q2230.71 1341.15 2232.98 1339.95 L2232.98 1343.98 Q2230.69 1344.95 2228.28 1345.46 Q2225.87 1345.97 2223.39 1345.97 Q2217.19 1345.97 2213.56 1342.36 Q2209.95 1338.75 2209.95 1332.59 Q2209.95 1326.22 2213.37 1322.5 Q2216.82 1318.75 2222.65 1318.75 Q2227.88 1318.75 2230.92 1322.13 Q2233.97 1325.48 2233.97 1331.27 M2229.71 1330.02 Q2229.67 1326.52 2227.75 1324.44 Q2225.85 1322.36 2222.7 1322.36 Q2219.13 1322.36 2216.98 1324.37 Q2214.85 1326.38 2214.53 1330.04 L2229.71 1330.02 Z" fill="#000000" fill-rule="nonzero" fill-opacity="1"></path><path clip-path="url(#clip990)" d="M2255.99 1323.35 Q2255.27 1322.94 2254.41 1322.75 Q2253.58 1322.54 2252.56 1322.54 Q2248.95 1322.54 2247.01 1324.9 Q2245.08 1327.24 2245.08 1331.64 L2245.08 1345.3 L2240.8 1345.3 L2240.8 1319.37 L2245.08 1319.37 L2245.08 1323.4 Q2246.43 1321.04 2248.58 1319.9 Q2250.73 1318.75 2253.81 1318.75 Q2254.25 1318.75 2254.78 1318.81 Q2255.32 1318.86 2255.96 1318.98 L2255.99 1323.35 Z" fill="#000000" fill-rule="nonzero" fill-opacity="1"></path></svg>