<svg xmlns="http://www.w3.org/2000/svg" xmlns:xlink="http://www.w3.org/1999/xlink" width="600" height="400" viewBox="0 0 2400 1600">
<defs>
  <clipPath id="clip070">
    <rect x="0" y="0" width="2400" height="1600"></rect>
  </clipPath>
</defs>
<path clip-path="url(#clip070)" d="M0 1600 L2400 1600 L2400 0 L0 0  Z" fill="#ffffff" fill-rule="evenodd" fill-opacity="1"></path>
<defs>
  <clipPath id="clip071">
    <rect x="480" y="0" width="1681" height="1600"></rect>
  </clipPath>
</defs>
<path clip-path="url(#clip070)" d="M219.033 1423.18 L2352.76 1423.18 L2352.76 123.472 L219.033 123.472  Z" fill="#ffffff" fill-rule="evenodd" fill-opacity="1"></path>
<defs>
  <clipPath id="clip072">
    <rect x="219" y="123" width="2135" height="1301"></rect>
  </clipPath>
</defs>
<polyline clip-path="url(#clip072)" style="stroke:#000000; stroke-linecap:round; stroke-linejoin:round; stroke-width:2; stroke-opacity:0.1; fill:none" points="503.082,1423.18 503.082,123.472 "></polyline>
<polyline clip-path="url(#clip072)" style="stroke:#000000; stroke-linecap:round; stroke-linejoin:round; stroke-width:2; stroke-opacity:0.1; fill:none" points="950.403,1423.18 950.403,123.472 "></polyline>
<polyline clip-path="url(#clip072)" style="stroke:#000000; stroke-linecap:round; stroke-linejoin:round; stroke-width:2; stroke-opacity:0.1; fill:none" points="1397.72,1423.18 1397.72,123.472 "></polyline>
<polyline clip-path="url(#clip072)" style="stroke:#000000; stroke-linecap:round; stroke-linejoin:round; stroke-width:2; stroke-opacity:0.1; fill:none" points="1845.05,1423.18 1845.05,123.472 "></polyline>
<polyline clip-path="url(#clip072)" style="stroke:#000000; stroke-linecap:round; stroke-linejoin:round; stroke-width:2; stroke-opacity:0.1; fill:none" points="2292.37,1423.18 2292.37,123.472 "></polyline>
<polyline clip-path="url(#clip072)" style="stroke:#000000; stroke-linecap:round; stroke-linejoin:round; stroke-width:2; stroke-opacity:0.1; fill:none" points="219.033,1289.28 2352.76,1289.28 "></polyline>
<polyline clip-path="url(#clip072)" style="stroke:#000000; stroke-linecap:round; stroke-linejoin:round; stroke-width:2; stroke-opacity:0.1; fill:none" points="219.033,1051.07 2352.76,1051.07 "></polyline>
<polyline clip-path="url(#clip072)" style="stroke:#000000; stroke-linecap:round; stroke-linejoin:round; stroke-width:2; stroke-opacity:0.1; fill:none" points="219.033,812.862 2352.76,812.862 "></polyline>
<polyline clip-path="url(#clip072)" style="stroke:#000000; stroke-linecap:round; stroke-linejoin:round; stroke-width:2; stroke-opacity:0.1; fill:none" points="219.033,574.653 2352.76,574.653 "></polyline>
<polyline clip-path="url(#clip072)" style="stroke:#000000; stroke-linecap:round; stroke-linejoin:round; stroke-width:2; stroke-opacity:0.1; fill:none" points="219.033,336.445 2352.76,336.445 "></polyline>
<polyline clip-path="url(#clip070)" style="stroke:#000000; stroke-linecap:round; stroke-linejoin:round; stroke-width:4; stroke-opacity:1; fill:none" points="219.033,1423.18 2352.76,1423.18 "></polyline>
<polyline clip-path="url(#clip070)" style="stroke:#000000; stroke-linecap:round; stroke-linejoin:round; stroke-width:4; stroke-opacity:1; fill:none" points="503.082,1423.18 503.082,1404.28 "></polyline>
<polyline clip-path="url(#clip070)" style="stroke:#000000; stroke-linecap:round; stroke-linejoin:round; stroke-width:4; stroke-opacity:1; fill:none" points="950.403,1423.18 950.403,1404.28 "></polyline>
<polyline clip-path="url(#clip070)" style="stroke:#000000; stroke-linecap:round; stroke-linejoin:round; stroke-width:4; stroke-opacity:1; fill:none" points="1397.72,1423.18 1397.72,1404.28 "></polyline>
<polyline clip-path="url(#clip070)" style="stroke:#000000; stroke-linecap:round; stroke-linejoin:round; stroke-width:4; stroke-opacity:1; fill:none" points="1845.05,1423.18 1845.05,1404.28 "></polyline>
<polyline clip-path="url(#clip070)" style="stroke:#000000; stroke-linecap:round; stroke-linejoin:round; stroke-width:4; stroke-opacity:1; fill:none" points="2292.37,1423.18 2292.37,1404.28 "></polyline>
<path clip-path="url(#clip070)" d="M497.735 1481.64 L514.054 1481.64 L514.054 1485.58 L492.11 1485.58 L492.11 1481.64 Q494.772 1478.89 499.355 1474.26 Q503.962 1469.61 505.142 1468.27 Q507.388 1465.74 508.267 1464.01 Q509.17 1462.25 509.17 1460.56 Q509.17 1457.8 507.226 1456.07 Q505.304 1454.33 502.202 1454.33 Q500.003 1454.33 497.55 1455.09 Q495.119 1455.86 492.341 1457.41 L492.341 1452.69 Q495.165 1451.55 497.619 1450.97 Q500.073 1450.39 502.11 1450.39 Q507.48 1450.39 510.675 1453.08 Q513.869 1455.77 513.869 1460.26 Q513.869 1462.39 513.059 1464.31 Q512.272 1466.2 510.165 1468.8 Q509.587 1469.47 506.485 1472.69 Q503.383 1475.88 497.735 1481.64 Z" fill="#000000" fill-rule="nonzero" fill-opacity="1"></path><path clip-path="url(#clip070)" d="M953.413 1455.09 L941.607 1473.54 L953.413 1473.54 L953.413 1455.09 M952.186 1451.02 L958.065 1451.02 L958.065 1473.54 L962.996 1473.54 L962.996 1477.43 L958.065 1477.43 L958.065 1485.58 L953.413 1485.58 L953.413 1477.43 L937.811 1477.43 L937.811 1472.92 L952.186 1451.02 Z" fill="#000000" fill-rule="nonzero" fill-opacity="1"></path><path clip-path="url(#clip070)" d="M1398.13 1466.44 Q1394.98 1466.44 1393.13 1468.59 Q1391.3 1470.74 1391.3 1474.49 Q1391.3 1478.22 1393.13 1480.39 Q1394.98 1482.55 1398.13 1482.55 Q1401.28 1482.55 1403.11 1480.39 Q1404.96 1478.22 1404.96 1474.49 Q1404.96 1470.74 1403.11 1468.59 Q1401.28 1466.44 1398.13 1466.44 M1407.41 1451.78 L1407.41 1456.04 Q1405.65 1455.21 1403.85 1454.77 Q1402.07 1454.33 1400.31 1454.33 Q1395.68 1454.33 1393.22 1457.45 Q1390.79 1460.58 1390.44 1466.9 Q1391.81 1464.89 1393.87 1463.82 Q1395.93 1462.73 1398.41 1462.73 Q1403.62 1462.73 1406.63 1465.9 Q1409.66 1469.05 1409.66 1474.49 Q1409.66 1479.82 1406.51 1483.03 Q1403.36 1486.25 1398.13 1486.25 Q1392.13 1486.25 1388.96 1481.67 Q1385.79 1477.06 1385.79 1468.33 Q1385.79 1460.14 1389.68 1455.28 Q1393.57 1450.39 1400.12 1450.39 Q1401.88 1450.39 1403.66 1450.74 Q1405.47 1451.09 1407.41 1451.78 Z" fill="#000000" fill-rule="nonzero" fill-opacity="1"></path><path clip-path="url(#clip070)" d="M1845.05 1469.17 Q1841.71 1469.17 1839.79 1470.95 Q1837.89 1472.73 1837.89 1475.86 Q1837.89 1478.98 1839.79 1480.77 Q1841.71 1482.55 1845.05 1482.55 Q1848.38 1482.55 1850.3 1480.77 Q1852.22 1478.96 1852.22 1475.86 Q1852.22 1472.73 1850.3 1470.95 Q1848.4 1469.17 1845.05 1469.17 M1840.37 1467.18 Q1837.36 1466.44 1835.67 1464.38 Q1834 1462.32 1834 1459.35 Q1834 1455.21 1836.94 1452.8 Q1839.91 1450.39 1845.05 1450.39 Q1850.21 1450.39 1853.15 1452.8 Q1856.09 1455.21 1856.09 1459.35 Q1856.09 1462.32 1854.4 1464.38 Q1852.73 1466.44 1849.75 1467.18 Q1853.12 1467.96 1855 1470.26 Q1856.9 1472.55 1856.9 1475.86 Q1856.9 1480.88 1853.82 1483.57 Q1850.76 1486.25 1845.05 1486.25 Q1839.33 1486.25 1836.25 1483.57 Q1833.19 1480.88 1833.19 1475.86 Q1833.19 1472.55 1835.09 1470.26 Q1836.99 1467.96 1840.37 1467.18 M1838.66 1459.79 Q1838.66 1462.48 1840.32 1463.98 Q1842.01 1465.49 1845.05 1465.49 Q1848.06 1465.49 1849.75 1463.98 Q1851.46 1462.48 1851.46 1459.79 Q1851.46 1457.11 1849.75 1455.6 Q1848.06 1454.1 1845.05 1454.1 Q1842.01 1454.1 1840.32 1455.6 Q1838.66 1457.11 1838.66 1459.79 Z" fill="#000000" fill-rule="nonzero" fill-opacity="1"></path><path clip-path="url(#clip070)" d="M2267.06 1481.64 L2274.69 1481.64 L2274.69 1455.28 L2266.38 1456.95 L2266.38 1452.69 L2274.65 1451.02 L2279.32 1451.02 L2279.32 1481.64 L2286.96 1481.64 L2286.96 1485.58 L2267.06 1485.58 L2267.06 1481.64 Z" fill="#000000" fill-rule="nonzero" fill-opacity="1"></path><path clip-path="url(#clip070)" d="M2306.41 1454.1 Q2302.8 1454.1 2300.97 1457.66 Q2299.16 1461.2 2299.16 1468.33 Q2299.16 1475.44 2300.97 1479.01 Q2302.8 1482.55 2306.41 1482.55 Q2310.04 1482.55 2311.85 1479.01 Q2313.68 1475.44 2313.68 1468.33 Q2313.68 1461.2 2311.85 1457.66 Q2310.04 1454.1 2306.41 1454.1 M2306.41 1450.39 Q2312.22 1450.39 2315.27 1455 Q2318.35 1459.58 2318.35 1468.33 Q2318.35 1477.06 2315.27 1481.67 Q2312.22 1486.25 2306.41 1486.25 Q2300.6 1486.25 2297.52 1481.67 Q2294.46 1477.06 2294.46 1468.33 Q2294.46 1459.58 2297.52 1455 Q2300.6 1450.39 2306.41 1450.39 Z" fill="#000000" fill-rule="nonzero" fill-opacity="1"></path><path clip-path="url(#clip070)" d="M1114.85 1520.52 L1124.43 1520.52 L1136.55 1552.86 L1148.75 1520.52 L1158.33 1520.52 L1158.33 1568.04 L1152.06 1568.04 L1152.06 1526.32 L1139.8 1558.91 L1133.34 1558.91 L1121.09 1526.32 L1121.09 1568.04 L1114.85 1568.04 L1114.85 1520.52 Z" fill="#000000" fill-rule="nonzero" fill-opacity="1"></path><path clip-path="url(#clip070)" d="M1187.03 1550.12 Q1179.94 1550.12 1177.2 1551.75 Q1174.46 1553.37 1174.46 1557.29 Q1174.46 1560.4 1176.5 1562.25 Q1178.57 1564.07 1182.1 1564.07 Q1186.97 1564.07 1189.9 1560.63 Q1192.86 1557.16 1192.86 1551.43 L1192.86 1550.12 L1187.03 1550.12 M1198.72 1547.71 L1198.72 1568.04 L1192.86 1568.04 L1192.86 1562.63 Q1190.85 1565.88 1187.86 1567.44 Q1184.87 1568.97 1180.54 1568.97 Q1175.07 1568.97 1171.82 1565.91 Q1168.61 1562.82 1168.61 1557.67 Q1168.61 1551.65 1172.62 1548.6 Q1176.66 1545.54 1184.65 1545.54 L1192.86 1545.54 L1192.86 1544.97 Q1192.86 1540.93 1190.19 1538.73 Q1187.54 1536.5 1182.74 1536.5 Q1179.68 1536.5 1176.79 1537.23 Q1173.89 1537.97 1171.22 1539.43 L1171.22 1534.02 Q1174.43 1532.78 1177.45 1532.17 Q1180.48 1531.54 1183.34 1531.54 Q1191.08 1531.54 1194.9 1535.55 Q1198.72 1539.56 1198.72 1547.71 Z" fill="#000000" fill-rule="nonzero" fill-opacity="1"></path><path clip-path="url(#clip070)" d="M1240.41 1532.4 L1227.52 1549.74 L1241.08 1568.04 L1234.17 1568.04 L1223.8 1554.04 L1213.42 1568.04 L1206.51 1568.04 L1220.36 1549.39 L1207.69 1532.4 L1214.6 1532.4 L1224.05 1545.1 L1233.5 1532.4 L1240.41 1532.4 Z" fill="#000000" fill-rule="nonzero" fill-opacity="1"></path><path clip-path="url(#clip070)" d="M1276.76 1525.81 L1276.76 1562.76 L1284.53 1562.76 Q1294.36 1562.76 1298.91 1558.3 Q1303.5 1553.85 1303.5 1544.24 Q1303.5 1534.69 1298.91 1530.26 Q1294.36 1525.81 1284.53 1525.81 L1276.76 1525.81 M1270.33 1520.52 L1283.54 1520.52 Q1297.35 1520.52 1303.81 1526.28 Q1310.28 1532.01 1310.28 1544.24 Q1310.28 1556.52 1303.78 1562.28 Q1297.29 1568.04 1283.54 1568.04 L1270.33 1568.04 L1270.33 1520.52 Z" fill="#000000" fill-rule="nonzero" fill-opacity="1"></path><path clip-path="url(#clip070)" d="M1350.76 1548.76 L1350.76 1551.62 L1323.83 1551.62 Q1324.22 1557.67 1327.46 1560.85 Q1330.74 1564 1336.57 1564 Q1339.94 1564 1343.09 1563.17 Q1346.27 1562.35 1349.39 1560.69 L1349.39 1566.23 Q1346.24 1567.57 1342.93 1568.27 Q1339.62 1568.97 1336.22 1568.97 Q1327.69 1568.97 1322.69 1564 Q1317.72 1559.04 1317.72 1550.57 Q1317.72 1541.82 1322.43 1536.69 Q1327.18 1531.54 1335.2 1531.54 Q1342.39 1531.54 1346.56 1536.18 Q1350.76 1540.8 1350.76 1548.76 M1344.9 1547.04 Q1344.84 1542.23 1342.2 1539.37 Q1339.59 1536.5 1335.26 1536.5 Q1330.36 1536.5 1327.4 1539.27 Q1324.47 1542.04 1324.03 1547.07 L1344.9 1547.04 Z" fill="#000000" fill-rule="nonzero" fill-opacity="1"></path><path clip-path="url(#clip070)" d="M1366.04 1562.7 L1366.04 1581.6 L1360.15 1581.6 L1360.15 1532.4 L1366.04 1532.4 L1366.04 1537.81 Q1367.88 1534.62 1370.69 1533.1 Q1373.52 1531.54 1377.43 1531.54 Q1383.93 1531.54 1387.97 1536.69 Q1392.04 1541.85 1392.04 1550.25 Q1392.04 1558.65 1387.97 1563.81 Q1383.93 1568.97 1377.43 1568.97 Q1373.52 1568.97 1370.69 1567.44 Q1367.88 1565.88 1366.04 1562.7 M1385.96 1550.25 Q1385.96 1543.79 1383.29 1540.13 Q1380.65 1536.44 1376 1536.44 Q1371.35 1536.44 1368.68 1540.13 Q1366.04 1543.79 1366.04 1550.25 Q1366.04 1556.71 1368.68 1560.4 Q1371.35 1564.07 1376 1564.07 Q1380.65 1564.07 1383.29 1560.4 Q1385.96 1556.71 1385.96 1550.25 Z" fill="#000000" fill-rule="nonzero" fill-opacity="1"></path><path clip-path="url(#clip070)" d="M1407.54 1522.27 L1407.54 1532.4 L1419.61 1532.4 L1419.61 1536.95 L1407.54 1536.95 L1407.54 1556.3 Q1407.54 1560.66 1408.72 1561.9 Q1409.93 1563.14 1413.59 1563.14 L1419.61 1563.14 L1419.61 1568.04 L1413.59 1568.04 Q1406.81 1568.04 1404.23 1565.53 Q1401.65 1562.98 1401.65 1556.3 L1401.65 1536.95 L1397.36 1536.95 L1397.36 1532.4 L1401.65 1532.4 L1401.65 1522.27 L1407.54 1522.27 Z" fill="#000000" fill-rule="nonzero" fill-opacity="1"></path><path clip-path="url(#clip070)" d="M1456.94 1546.53 L1456.94 1568.04 L1451.08 1568.04 L1451.08 1546.72 Q1451.08 1541.66 1449.11 1539.14 Q1447.14 1536.63 1443.19 1536.63 Q1438.45 1536.63 1435.71 1539.65 Q1432.97 1542.68 1432.97 1547.9 L1432.97 1568.04 L1427.09 1568.04 L1427.09 1518.52 L1432.97 1518.52 L1432.97 1537.93 Q1435.07 1534.72 1437.91 1533.13 Q1440.77 1531.54 1444.5 1531.54 Q1450.64 1531.54 1453.79 1535.36 Q1456.94 1539.14 1456.94 1546.53 Z" fill="#000000" fill-rule="nonzero" fill-opacity="1"></path><polyline clip-path="url(#clip070)" style="stroke:#000000; stroke-linecap:round; stroke-linejoin:round; stroke-width:4; stroke-opacity:1; fill:none" points="219.033,1423.18 219.033,123.472 "></polyline>
<polyline clip-path="url(#clip070)" style="stroke:#000000; stroke-linecap:round; stroke-linejoin:round; stroke-width:4; stroke-opacity:1; fill:none" points="219.033,1289.28 237.931,1289.28 "></polyline>
<polyline clip-path="url(#clip070)" style="stroke:#000000; stroke-linecap:round; stroke-linejoin:round; stroke-width:4; stroke-opacity:1; fill:none" points="219.033,1051.07 237.931,1051.07 "></polyline>
<polyline clip-path="url(#clip070)" style="stroke:#000000; stroke-linecap:round; stroke-linejoin:round; stroke-width:4; stroke-opacity:1; fill:none" points="219.033,812.862 237.931,812.862 "></polyline>
<polyline clip-path="url(#clip070)" style="stroke:#000000; stroke-linecap:round; stroke-linejoin:round; stroke-width:4; stroke-opacity:1; fill:none" points="219.033,574.653 237.931,574.653 "></polyline>
<polyline clip-path="url(#clip070)" style="stroke:#000000; stroke-linecap:round; stroke-linejoin:round; stroke-width:4; stroke-opacity:1; fill:none" points="219.033,336.445 237.931,336.445 "></polyline>
<path clip-path="url(#clip070)" d="M126.853 1275.08 Q123.242 1275.08 121.413 1278.64 Q119.607 1282.18 119.607 1289.31 Q119.607 1296.42 121.413 1299.99 Q123.242 1303.53 126.853 1303.53 Q130.487 1303.53 132.292 1299.99 Q134.121 1296.42 134.121 1289.31 Q134.121 1282.18 132.292 1278.64 Q130.487 1275.08 126.853 1275.08 M126.853 1271.37 Q132.663 1271.37 135.718 1275.98 Q138.797 1280.56 138.797 1289.31 Q138.797 1298.04 135.718 1302.65 Q132.663 1307.23 126.853 1307.23 Q121.043 1307.23 117.964 1302.65 Q114.908 1298.04 114.908 1289.31 Q114.908 1280.56 117.964 1275.98 Q121.043 1271.37 126.853 1271.37 Z" fill="#000000" fill-rule="nonzero" fill-opacity="1"></path><path clip-path="url(#clip070)" d="M147.015 1300.68 L151.899 1300.68 L151.899 1306.56 L147.015 1306.56 L147.015 1300.68 Z" fill="#000000" fill-rule="nonzero" fill-opacity="1"></path><path clip-path="url(#clip070)" d="M162.13 1272 L180.487 1272 L180.487 1275.93 L166.413 1275.93 L166.413 1284.41 Q167.431 1284.06 168.45 1283.9 Q169.468 1283.71 170.487 1283.71 Q176.274 1283.71 179.653 1286.88 Q183.033 1290.05 183.033 1295.47 Q183.033 1301.05 179.561 1304.15 Q176.089 1307.23 169.769 1307.23 Q167.593 1307.23 165.325 1306.86 Q163.079 1306.49 160.672 1305.75 L160.672 1301.05 Q162.755 1302.18 164.977 1302.74 Q167.2 1303.3 169.677 1303.3 Q173.681 1303.3 176.019 1301.19 Q178.357 1299.08 178.357 1295.47 Q178.357 1291.86 176.019 1289.75 Q173.681 1287.65 169.677 1287.65 Q167.802 1287.65 165.927 1288.06 Q164.075 1288.48 162.13 1289.36 L162.13 1272 Z" fill="#000000" fill-rule="nonzero" fill-opacity="1"></path><path clip-path="url(#clip070)" d="M116.668 1064.42 L124.306 1064.42 L124.306 1038.05 L115.996 1039.72 L115.996 1035.46 L124.26 1033.79 L128.936 1033.79 L128.936 1064.42 L136.575 1064.42 L136.575 1068.35 L116.668 1068.35 L116.668 1064.42 Z" fill="#000000" fill-rule="nonzero" fill-opacity="1"></path><path clip-path="url(#clip070)" d="M146.019 1062.47 L150.903 1062.47 L150.903 1068.35 L146.019 1068.35 L146.019 1062.47 Z" fill="#000000" fill-rule="nonzero" fill-opacity="1"></path><path clip-path="url(#clip070)" d="M171.089 1036.87 Q167.477 1036.87 165.649 1040.43 Q163.843 1043.98 163.843 1051.11 Q163.843 1058.21 165.649 1061.78 Q167.477 1065.32 171.089 1065.32 Q174.723 1065.32 176.528 1061.78 Q178.357 1058.21 178.357 1051.11 Q178.357 1043.98 176.528 1040.43 Q174.723 1036.87 171.089 1036.87 M171.089 1033.17 Q176.899 1033.17 179.954 1037.77 Q183.033 1042.36 183.033 1051.11 Q183.033 1059.83 179.954 1064.44 Q176.899 1069.02 171.089 1069.02 Q165.278 1069.02 162.2 1064.44 Q159.144 1059.83 159.144 1051.11 Q159.144 1042.36 162.2 1037.77 Q165.278 1033.17 171.089 1033.17 Z" fill="#000000" fill-rule="nonzero" fill-opacity="1"></path><path clip-path="url(#clip070)" d="M117.663 826.207 L125.302 826.207 L125.302 799.841 L116.992 801.508 L116.992 797.249 L125.255 795.582 L129.931 795.582 L129.931 826.207 L137.57 826.207 L137.57 830.142 L117.663 830.142 L117.663 826.207 Z" fill="#000000" fill-rule="nonzero" fill-opacity="1"></path><path clip-path="url(#clip070)" d="M147.015 824.262 L151.899 824.262 L151.899 830.142 L147.015 830.142 L147.015 824.262 Z" fill="#000000" fill-rule="nonzero" fill-opacity="1"></path><path clip-path="url(#clip070)" d="M162.13 795.582 L180.487 795.582 L180.487 799.517 L166.413 799.517 L166.413 807.989 Q167.431 807.642 168.45 807.48 Q169.468 807.295 170.487 807.295 Q176.274 807.295 179.653 810.466 Q183.033 813.637 183.033 819.054 Q183.033 824.633 179.561 827.735 Q176.089 830.813 169.769 830.813 Q167.593 830.813 165.325 830.443 Q163.079 830.073 160.672 829.332 L160.672 824.633 Q162.755 825.767 164.977 826.323 Q167.2 826.878 169.677 826.878 Q173.681 826.878 176.019 824.772 Q178.357 822.665 178.357 819.054 Q178.357 815.443 176.019 813.337 Q173.681 811.23 169.677 811.23 Q167.802 811.23 165.927 811.647 Q164.075 812.063 162.13 812.943 L162.13 795.582 Z" fill="#000000" fill-rule="nonzero" fill-opacity="1"></path><path clip-path="url(#clip070)" d="M119.885 587.998 L136.204 587.998 L136.204 591.933 L114.26 591.933 L114.26 587.998 Q116.922 585.244 121.505 580.614 Q126.112 575.961 127.292 574.619 Q129.538 572.096 130.417 570.359 Q131.32 568.6 131.32 566.91 Q131.32 564.156 129.376 562.42 Q127.455 560.684 124.353 560.684 Q122.154 560.684 119.7 561.448 Q117.269 562.211 114.492 563.762 L114.492 559.04 Q117.316 557.906 119.769 557.327 Q122.223 556.748 124.26 556.748 Q129.63 556.748 132.825 559.434 Q136.019 562.119 136.019 566.61 Q136.019 568.739 135.209 570.66 Q134.422 572.559 132.316 575.151 Q131.737 575.822 128.635 579.04 Q125.533 582.234 119.885 587.998 Z" fill="#000000" fill-rule="nonzero" fill-opacity="1"></path><path clip-path="url(#clip070)" d="M146.019 586.054 L150.903 586.054 L150.903 591.933 L146.019 591.933 L146.019 586.054 Z" fill="#000000" fill-rule="nonzero" fill-opacity="1"></path><path clip-path="url(#clip070)" d="M171.089 560.452 Q167.477 560.452 165.649 564.017 Q163.843 567.559 163.843 574.688 Q163.843 581.795 165.649 585.359 Q167.477 588.901 171.089 588.901 Q174.723 588.901 176.528 585.359 Q178.357 581.795 178.357 574.688 Q178.357 567.559 176.528 564.017 Q174.723 560.452 171.089 560.452 M171.089 556.748 Q176.899 556.748 179.954 561.355 Q183.033 565.938 183.033 574.688 Q183.033 583.415 179.954 588.021 Q176.899 592.605 171.089 592.605 Q165.278 592.605 162.2 588.021 Q159.144 583.415 159.144 574.688 Q159.144 565.938 162.2 561.355 Q165.278 556.748 171.089 556.748 Z" fill="#000000" fill-rule="nonzero" fill-opacity="1"></path><path clip-path="url(#clip070)" d="M120.88 349.79 L137.2 349.79 L137.2 353.725 L115.256 353.725 L115.256 349.79 Q117.918 347.035 122.501 342.406 Q127.107 337.753 128.288 336.41 Q130.533 333.887 131.413 332.151 Q132.316 330.392 132.316 328.702 Q132.316 325.947 130.371 324.211 Q128.45 322.475 125.348 322.475 Q123.149 322.475 120.695 323.239 Q118.265 324.003 115.487 325.554 L115.487 320.832 Q118.311 319.697 120.765 319.119 Q123.218 318.54 125.255 318.54 Q130.626 318.54 133.82 321.225 Q137.015 323.91 137.015 328.401 Q137.015 330.531 136.204 332.452 Q135.417 334.35 133.311 336.943 Q132.732 337.614 129.63 340.831 Q126.529 344.026 120.88 349.79 Z" fill="#000000" fill-rule="nonzero" fill-opacity="1"></path><path clip-path="url(#clip070)" d="M147.015 347.845 L151.899 347.845 L151.899 353.725 L147.015 353.725 L147.015 347.845 Z" fill="#000000" fill-rule="nonzero" fill-opacity="1"></path><path clip-path="url(#clip070)" d="M162.13 319.165 L180.487 319.165 L180.487 323.1 L166.413 323.1 L166.413 331.572 Q167.431 331.225 168.45 331.063 Q169.468 330.878 170.487 330.878 Q176.274 330.878 179.653 334.049 Q183.033 337.22 183.033 342.637 Q183.033 348.216 179.561 351.318 Q176.089 354.396 169.769 354.396 Q167.593 354.396 165.325 354.026 Q163.079 353.655 160.672 352.915 L160.672 348.216 Q162.755 349.35 164.977 349.905 Q167.2 350.461 169.677 350.461 Q173.681 350.461 176.019 348.355 Q178.357 346.248 178.357 342.637 Q178.357 339.026 176.019 336.919 Q173.681 334.813 169.677 334.813 Q167.802 334.813 165.927 335.23 Q164.075 335.646 162.13 336.526 L162.13 319.165 Z" fill="#000000" fill-rule="nonzero" fill-opacity="1"></path><path clip-path="url(#clip070)" d="M16.4842 908.597 L16.4842 902.168 L58.5933 902.168 L58.5933 879.029 L64.0042 879.029 L64.0042 908.597 L16.4842 908.597 Z" fill="#000000" fill-rule="nonzero" fill-opacity="1"></path><path clip-path="url(#clip070)" d="M32.4621 859.868 Q32.4621 864.578 36.1542 867.316 Q39.8145 870.053 46.212 870.053 Q52.6095 870.053 56.3017 867.347 Q59.9619 864.61 59.9619 859.868 Q59.9619 855.189 56.2698 852.452 Q52.5777 849.714 46.212 849.714 Q39.8781 849.714 36.186 852.452 Q32.4621 855.189 32.4621 859.868 M27.4968 859.868 Q27.4968 852.229 32.4621 847.868 Q37.4273 843.508 46.212 843.508 Q54.9649 843.508 59.9619 847.868 Q64.9272 852.229 64.9272 859.868 Q64.9272 867.538 59.9619 871.899 Q54.9649 876.228 46.212 876.228 Q37.4273 876.228 32.4621 871.899 Q27.4968 867.538 27.4968 859.868 Z" fill="#000000" fill-rule="nonzero" fill-opacity="1"></path><path clip-path="url(#clip070)" d="M45.7664 810.343 Q39.4007 810.343 35.8996 812.984 Q32.3984 815.594 32.3984 820.337 Q32.3984 825.047 35.8996 827.689 Q39.4007 830.299 45.7664 830.299 Q52.1003 830.299 55.6014 827.689 Q59.1026 825.047 59.1026 820.337 Q59.1026 815.594 55.6014 812.984 Q52.1003 810.343 45.7664 810.343 M59.58 804.486 Q68.683 804.486 73.1071 808.528 Q77.5631 812.571 77.5631 820.91 Q77.5631 823.997 77.0857 826.734 Q76.6401 829.472 75.6852 832.05 L69.9879 832.05 Q71.3884 829.472 72.0568 826.957 Q72.7252 824.443 72.7252 821.833 Q72.7252 816.072 69.7015 813.207 Q66.7096 810.343 60.6303 810.343 L57.7339 810.343 Q60.885 812.157 62.4446 814.99 Q64.0042 817.822 64.0042 821.769 Q64.0042 828.326 59.0071 832.336 Q54.01 836.346 45.7664 836.346 Q37.491 836.346 32.4939 832.336 Q27.4968 828.326 27.4968 821.769 Q27.4968 817.822 29.0564 814.99 Q30.616 812.157 33.7671 810.343 L28.3562 810.343 L28.3562 804.486 L59.58 804.486 Z" fill="#000000" fill-rule="nonzero" fill-opacity="1"></path><path clip-path="url(#clip070)" d="M16.4842 771.448 L16.4842 765.019 L58.5933 765.019 L58.5933 741.879 L64.0042 741.879 L64.0042 771.448 L16.4842 771.448 Z" fill="#000000" fill-rule="nonzero" fill-opacity="1"></path><path clip-path="url(#clip070)" d="M32.4621 722.719 Q32.4621 727.429 36.1542 730.166 Q39.8145 732.904 46.212 732.904 Q52.6095 732.904 56.3017 730.198 Q59.9619 727.461 59.9619 722.719 Q59.9619 718.04 56.2698 715.303 Q52.5777 712.565 46.212 712.565 Q39.8781 712.565 36.186 715.303 Q32.4621 718.04 32.4621 722.719 M27.4968 722.719 Q27.4968 715.08 32.4621 710.719 Q37.4273 706.359 46.212 706.359 Q54.9649 706.359 59.9619 710.719 Q64.9272 715.08 64.9272 722.719 Q64.9272 730.389 59.9619 734.75 Q54.9649 739.078 46.212 739.078 Q37.4273 739.078 32.4621 734.75 Q27.4968 730.389 27.4968 722.719 Z" fill="#000000" fill-rule="nonzero" fill-opacity="1"></path><path clip-path="url(#clip070)" d="M29.4065 673.925 L34.9447 673.925 Q33.6716 676.408 33.035 679.082 Q32.3984 681.755 32.3984 684.62 Q32.3984 688.98 33.7352 691.177 Q35.072 693.341 37.7456 693.341 Q39.7826 693.341 40.9603 691.781 Q42.1061 690.222 43.1565 685.511 L43.6021 683.506 Q44.9389 677.267 47.3897 674.658 Q49.8086 672.016 54.1691 672.016 Q59.1344 672.016 62.0308 675.963 Q64.9272 679.877 64.9272 686.752 Q64.9272 689.617 64.3543 692.736 Q63.8132 695.824 62.6992 699.261 L56.6518 699.261 Q58.3387 696.014 59.198 692.863 Q60.0256 689.712 60.0256 686.625 Q60.0256 682.487 58.6251 680.259 Q57.1929 678.031 54.6147 678.031 Q52.2276 678.031 50.9545 679.655 Q49.6813 681.246 48.5037 686.689 L48.0262 688.726 Q46.8804 694.168 44.5251 696.587 Q42.138 699.006 38.0002 699.006 Q32.9713 699.006 30.2341 695.442 Q27.4968 691.877 27.4968 685.32 Q27.4968 682.074 27.9743 679.209 Q28.4517 676.344 29.4065 673.925 Z" fill="#000000" fill-rule="nonzero" fill-opacity="1"></path><path clip-path="url(#clip070)" d="M29.4065 639.964 L34.9447 639.964 Q33.6716 642.447 33.035 645.121 Q32.3984 647.794 32.3984 650.659 Q32.3984 655.019 33.7352 657.215 Q35.072 659.38 37.7456 659.38 Q39.7826 659.38 40.9603 657.82 Q42.1061 656.261 43.1565 651.55 L43.6021 649.545 Q44.9389 643.306 47.3897 640.696 Q49.8086 638.055 54.1691 638.055 Q59.1344 638.055 62.0308 642.001 Q64.9272 645.916 64.9272 652.791 Q64.9272 655.656 64.3543 658.775 Q63.8132 661.862 62.6992 665.3 L56.6518 665.3 Q58.3387 662.053 59.198 658.902 Q60.0256 655.751 60.0256 652.664 Q60.0256 648.526 58.6251 646.298 Q57.1929 644.07 54.6147 644.07 Q52.2276 644.07 50.9545 645.694 Q49.6813 647.285 48.5037 652.728 L48.0262 654.765 Q46.8804 660.207 44.5251 662.626 Q42.138 665.045 38.0002 665.045 Q32.9713 665.045 30.2341 661.481 Q27.4968 657.916 27.4968 651.359 Q27.4968 648.113 27.9743 645.248 Q28.4517 642.383 29.4065 639.964 Z" fill="#000000" fill-rule="nonzero" fill-opacity="1"></path><path clip-path="url(#clip070)" d="M976.527 12.096 L984.71 12.096 L984.71 65.6895 L1014.16 65.6895 L1014.16 72.576 L976.527 72.576 L976.527 12.096 Z" fill="#000000" fill-rule="nonzero" fill-opacity="1"></path><path clip-path="url(#clip070)" d="M1059.77 48.0275 L1059.77 51.6733 L1025.5 51.6733 Q1025.99 59.3701 1030.12 63.421 Q1034.29 67.4314 1041.71 67.4314 Q1046 67.4314 1050.01 66.3781 Q1054.06 65.3249 1058.03 63.2184 L1058.03 70.267 Q1054.02 71.9684 1049.81 72.8596 Q1045.59 73.7508 1041.26 73.7508 Q1030.4 73.7508 1024.04 67.4314 Q1017.72 61.1119 1017.72 50.3365 Q1017.72 39.1965 1023.72 32.6746 Q1029.76 26.1121 1039.96 26.1121 Q1049.12 26.1121 1054.43 32.0264 Q1059.77 37.9003 1059.77 48.0275 M1052.32 45.84 Q1052.24 39.7232 1048.88 36.0774 Q1045.55 32.4315 1040.05 32.4315 Q1033.81 32.4315 1030.04 35.9558 Q1026.31 39.4801 1025.75 45.8805 L1052.32 45.84 Z" fill="#000000" fill-rule="nonzero" fill-opacity="1"></path><path clip-path="url(#clip070)" d="M1092.63 49.7694 Q1083.59 49.7694 1080.11 51.8354 Q1076.62 53.9013 1076.62 58.8839 Q1076.62 62.8538 1079.22 65.2034 Q1081.85 67.5124 1086.35 67.5124 Q1092.54 67.5124 1096.27 63.1374 Q1100.04 58.7219 1100.04 51.4303 L1100.04 49.7694 L1092.63 49.7694 M1107.49 46.6907 L1107.49 72.576 L1100.04 72.576 L1100.04 65.6895 Q1097.49 69.8214 1093.68 71.8063 Q1089.87 73.7508 1084.36 73.7508 Q1077.39 73.7508 1073.26 69.8619 Q1069.17 65.9325 1069.17 59.3701 Q1069.17 51.7138 1074.28 47.825 Q1079.42 43.9361 1089.59 43.9361 L1100.04 43.9361 L1100.04 43.2069 Q1100.04 38.0623 1096.64 35.2672 Q1093.27 32.4315 1087.16 32.4315 Q1083.27 32.4315 1079.58 33.3632 Q1075.9 34.295 1072.49 36.1584 L1072.49 29.2718 Q1076.58 27.692 1080.43 26.9223 Q1084.28 26.1121 1087.93 26.1121 Q1097.77 26.1121 1102.63 31.2163 Q1107.49 36.3204 1107.49 46.6907 Z" fill="#000000" fill-rule="nonzero" fill-opacity="1"></path><path clip-path="url(#clip070)" d="M1149.14 34.1734 Q1147.88 33.4443 1146.38 33.1202 Q1144.92 32.7556 1143.14 32.7556 Q1136.82 32.7556 1133.42 36.8875 Q1130.06 40.9789 1130.06 48.6757 L1130.06 72.576 L1122.56 72.576 L1122.56 27.2059 L1130.06 27.2059 L1130.06 34.2544 Q1132.41 30.1225 1136.17 28.1376 Q1139.94 26.1121 1145.33 26.1121 Q1146.1 26.1121 1147.03 26.2337 Q1147.96 26.3147 1149.1 26.5172 L1149.14 34.1734 Z" fill="#000000" fill-rule="nonzero" fill-opacity="1"></path><path clip-path="url(#clip070)" d="M1193.21 45.1919 L1193.21 72.576 L1185.76 72.576 L1185.76 45.4349 Q1185.76 38.994 1183.24 35.7938 Q1180.73 32.5936 1175.71 32.5936 Q1169.67 32.5936 1166.19 36.4419 Q1162.71 40.2903 1162.71 46.9338 L1162.71 72.576 L1155.21 72.576 L1155.21 27.2059 L1162.71 27.2059 L1162.71 34.2544 Q1165.38 30.163 1168.99 28.1376 Q1172.63 26.1121 1177.37 26.1121 Q1185.19 26.1121 1189.2 30.9732 Q1193.21 35.7938 1193.21 45.1919 Z" fill="#000000" fill-rule="nonzero" fill-opacity="1"></path><path clip-path="url(#clip070)" d="M1208.08 27.2059 L1215.53 27.2059 L1215.53 72.576 L1208.08 72.576 L1208.08 27.2059 M1208.08 9.54393 L1215.53 9.54393 L1215.53 18.9825 L1208.08 18.9825 L1208.08 9.54393 Z" fill="#000000" fill-rule="nonzero" fill-opacity="1"></path><path clip-path="url(#clip070)" d="M1268.84 45.1919 L1268.84 72.576 L1261.39 72.576 L1261.39 45.4349 Q1261.39 38.994 1258.87 35.7938 Q1256.36 32.5936 1251.34 32.5936 Q1245.3 32.5936 1241.82 36.4419 Q1238.34 40.2903 1238.34 46.9338 L1238.34 72.576 L1230.84 72.576 L1230.84 27.2059 L1238.34 27.2059 L1238.34 34.2544 Q1241.01 30.163 1244.62 28.1376 Q1248.26 26.1121 1253 26.1121 Q1260.82 26.1121 1264.83 30.9732 Q1268.84 35.7938 1268.84 45.1919 Z" fill="#000000" fill-rule="nonzero" fill-opacity="1"></path><path clip-path="url(#clip070)" d="M1313.56 49.3643 Q1313.56 41.2625 1310.2 36.8065 Q1306.88 32.3505 1300.84 32.3505 Q1294.85 32.3505 1291.48 36.8065 Q1288.16 41.2625 1288.16 49.3643 Q1288.16 57.4256 1291.48 61.8816 Q1294.85 66.3376 1300.84 66.3376 Q1306.88 66.3376 1310.2 61.8816 Q1313.56 57.4256 1313.56 49.3643 M1321.02 66.9452 Q1321.02 78.5308 1315.87 84.1616 Q1310.73 89.8329 1300.11 89.8329 Q1296.18 89.8329 1292.7 89.2252 Q1289.22 88.6581 1285.93 87.4428 L1285.93 80.1917 Q1289.22 81.9741 1292.42 82.8248 Q1295.62 83.6755 1298.94 83.6755 Q1306.27 83.6755 1309.92 79.8271 Q1313.56 76.0193 1313.56 68.282 L1313.56 64.5957 Q1311.25 68.6061 1307.65 70.5911 Q1304.04 72.576 1299.02 72.576 Q1290.67 72.576 1285.57 66.2161 Q1280.47 59.8562 1280.47 49.3643 Q1280.47 38.832 1285.57 32.472 Q1290.67 26.1121 1299.02 26.1121 Q1304.04 26.1121 1307.65 28.0971 Q1311.25 30.082 1313.56 34.0924 L1313.56 27.2059 L1321.02 27.2059 L1321.02 66.9452 Z" fill="#000000" fill-rule="nonzero" fill-opacity="1"></path><path clip-path="url(#clip070)" d="M1408.35 16.7545 L1408.35 25.383 Q1404.22 21.5346 1399.52 19.6307 Q1394.86 17.7268 1389.6 17.7268 Q1379.23 17.7268 1373.72 24.0867 Q1368.21 30.4061 1368.21 42.3968 Q1368.21 54.3469 1373.72 60.7069 Q1379.23 67.0263 1389.6 67.0263 Q1394.86 67.0263 1399.52 65.1223 Q1404.22 63.2184 1408.35 59.3701 L1408.35 67.9175 Q1404.06 70.8341 1399.24 72.2924 Q1394.46 73.7508 1389.11 73.7508 Q1375.38 73.7508 1367.48 65.3654 Q1359.58 56.9395 1359.58 42.3968 Q1359.58 27.8135 1367.48 19.4281 Q1375.38 11.0023 1389.11 11.0023 Q1394.54 11.0023 1399.32 12.4606 Q1404.14 13.8784 1408.35 16.7545 Z" fill="#000000" fill-rule="nonzero" fill-opacity="1"></path><path clip-path="url(#clip070)" d="M1419.9 54.671 L1419.9 27.2059 L1427.35 27.2059 L1427.35 54.3874 Q1427.35 60.8284 1429.86 64.0691 Q1432.38 67.2693 1437.4 67.2693 Q1443.43 67.2693 1446.92 63.421 Q1450.44 59.5726 1450.44 52.9291 L1450.44 27.2059 L1457.9 27.2059 L1457.9 72.576 L1450.44 72.576 L1450.44 65.6084 Q1447.73 69.7404 1444.12 71.7658 Q1440.56 73.7508 1435.82 73.7508 Q1428 73.7508 1423.95 68.8897 Q1419.9 64.0286 1419.9 54.671 M1438.65 26.1121 L1438.65 26.1121 Z" fill="#000000" fill-rule="nonzero" fill-opacity="1"></path><path clip-path="url(#clip070)" d="M1499.54 34.1734 Q1498.28 33.4443 1496.78 33.1202 Q1495.33 32.7556 1493.54 32.7556 Q1487.22 32.7556 1483.82 36.8875 Q1480.46 40.9789 1480.46 48.6757 L1480.46 72.576 L1472.97 72.576 L1472.97 27.2059 L1480.46 27.2059 L1480.46 34.2544 Q1482.81 30.1225 1486.58 28.1376 Q1490.34 26.1121 1495.73 26.1121 Q1496.5 26.1121 1497.43 26.2337 Q1498.36 26.3147 1499.5 26.5172 L1499.54 34.1734 Z" fill="#000000" fill-rule="nonzero" fill-opacity="1"></path><path clip-path="url(#clip070)" d="M1502.01 27.2059 L1509.91 27.2059 L1524.09 65.2844 L1538.27 27.2059 L1546.17 27.2059 L1529.15 72.576 L1519.02 72.576 L1502.01 27.2059 Z" fill="#000000" fill-rule="nonzero" fill-opacity="1"></path><path clip-path="url(#clip070)" d="M1595.26 48.0275 L1595.26 51.6733 L1560.99 51.6733 Q1561.48 59.3701 1565.61 63.421 Q1569.78 67.4314 1577.19 67.4314 Q1581.49 67.4314 1585.5 66.3781 Q1589.55 65.3249 1593.52 63.2184 L1593.52 70.267 Q1589.51 71.9684 1585.3 72.8596 Q1581.08 73.7508 1576.75 73.7508 Q1565.89 73.7508 1559.53 67.4314 Q1553.21 61.1119 1553.21 50.3365 Q1553.21 39.1965 1559.21 32.6746 Q1565.24 26.1121 1575.45 26.1121 Q1584.61 26.1121 1589.91 32.0264 Q1595.26 37.9003 1595.26 48.0275 M1587.81 45.84 Q1587.73 39.7232 1584.37 36.0774 Q1581.04 32.4315 1575.53 32.4315 Q1569.3 32.4315 1565.53 35.9558 Q1561.8 39.4801 1561.23 45.8805 L1587.81 45.84 Z" fill="#000000" fill-rule="nonzero" fill-opacity="1"></path><polyline clip-path="url(#clip072)" style="stroke:#009af9; stroke-linecap:round; stroke-linejoin:round; stroke-width:4; stroke-opacity:1; fill:none" points="279.421,1204.37 503.082,1368.77 726.743,1386.4 950.403,1278.92 1174.06,1194.72 1397.72,1054.6 1621.39,788.385 1845.05,552.714 2068.71,342.082 2292.37,160.256 "></polyline>
<polyline clip-path="url(#clip072)" style="stroke:#e26f46; stroke-linecap:round; stroke-linejoin:round; stroke-width:4; stroke-opacity:1; fill:none" stroke-dasharray="16, 10" points="279.421,1137.54 2292.37,1137.54 "></polyline>
<path clip-path="url(#clip070)" d="M290.157 322.316 L945.471 322.316 L945.471 166.796 L290.157 166.796  Z" fill="#ffffff" fill-rule="evenodd" fill-opacity="1"></path>
<polyline clip-path="url(#clip070)" style="stroke:#000000; stroke-linecap:round; stroke-linejoin:round; stroke-width:4; stroke-opacity:1; fill:none" points="290.157,322.316 945.471,322.316 945.471,166.796 290.157,166.796 290.157,322.316 "></polyline>
<polyline clip-path="url(#clip070)" style="stroke:#009af9; stroke-linecap:round; stroke-linejoin:round; stroke-width:4; stroke-opacity:1; fill:none" points="313.865,218.636 456.113,218.636 "></polyline>
<path clip-path="url(#clip070)" d="M484.497 205.198 L484.497 232.073 L490.145 232.073 Q497.298 232.073 500.608 228.832 Q503.942 225.592 503.942 218.601 Q503.942 211.657 500.608 208.439 Q497.298 205.198 490.145 205.198 L484.497 205.198 M479.821 201.356 L489.428 201.356 Q499.474 201.356 504.173 205.546 Q508.872 209.712 508.872 218.601 Q508.872 227.536 504.15 231.726 Q499.428 235.916 489.428 235.916 L479.821 235.916 L479.821 201.356 Z" fill="#000000" fill-rule="nonzero" fill-opacity="1"></path><path clip-path="url(#clip070)" d="M538.316 221.888 L538.316 223.971 L518.733 223.971 Q519.011 228.369 521.372 230.684 Q523.756 232.976 527.992 232.976 Q530.446 232.976 532.738 232.374 Q535.052 231.772 537.321 230.569 L537.321 234.596 Q535.029 235.568 532.622 236.078 Q530.215 236.587 527.738 236.587 Q521.534 236.587 517.9 232.976 Q514.289 229.365 514.289 223.207 Q514.289 216.842 517.715 213.115 Q521.164 209.365 526.997 209.365 Q532.228 209.365 535.261 212.745 Q538.316 216.101 538.316 221.888 M534.057 220.638 Q534.011 217.143 532.09 215.059 Q530.191 212.976 527.043 212.976 Q523.478 212.976 521.326 214.99 Q519.196 217.004 518.872 220.661 L534.057 220.638 Z" fill="#000000" fill-rule="nonzero" fill-opacity="1"></path><path clip-path="url(#clip070)" d="M563.964 210.985 L563.964 214.967 Q562.159 213.971 560.33 213.485 Q558.525 212.976 556.673 212.976 Q552.529 212.976 550.238 215.615 Q547.946 218.231 547.946 222.976 Q547.946 227.721 550.238 230.36 Q552.529 232.976 556.673 232.976 Q558.525 232.976 560.33 232.49 Q562.159 231.981 563.964 230.985 L563.964 234.92 Q562.182 235.754 560.261 236.17 Q558.363 236.587 556.21 236.587 Q550.353 236.587 546.904 232.906 Q543.455 229.226 543.455 222.976 Q543.455 216.633 546.927 212.999 Q550.423 209.365 556.488 209.365 Q558.455 209.365 560.33 209.782 Q562.205 210.175 563.964 210.985 Z" fill="#000000" fill-rule="nonzero" fill-opacity="1"></path><path clip-path="url(#clip070)" d="M571.372 209.99 L575.631 209.99 L575.631 235.916 L571.372 235.916 L571.372 209.99 M571.372 199.897 L575.631 199.897 L575.631 205.291 L571.372 205.291 L571.372 199.897 Z" fill="#000000" fill-rule="nonzero" fill-opacity="1"></path><path clip-path="url(#clip070)" d="M601.071 210.754 L601.071 214.782 Q599.265 213.856 597.321 213.393 Q595.376 212.93 593.293 212.93 Q590.122 212.93 588.524 213.902 Q586.95 214.874 586.95 216.819 Q586.95 218.3 588.085 219.157 Q589.219 219.99 592.645 220.754 L594.103 221.078 Q598.64 222.05 600.538 223.832 Q602.46 225.592 602.46 228.763 Q602.46 232.374 599.589 234.481 Q596.742 236.587 591.742 236.587 Q589.659 236.587 587.39 236.17 Q585.145 235.777 582.645 234.967 L582.645 230.569 Q585.006 231.795 587.298 232.42 Q589.589 233.022 591.835 233.022 Q594.844 233.022 596.464 232.004 Q598.085 230.962 598.085 229.087 Q598.085 227.351 596.904 226.425 Q595.747 225.499 591.788 224.643 L590.307 224.295 Q586.349 223.462 584.589 221.749 Q582.83 220.013 582.83 217.004 Q582.83 213.346 585.423 211.356 Q588.015 209.365 592.784 209.365 Q595.145 209.365 597.228 209.712 Q599.311 210.059 601.071 210.754 Z" fill="#000000" fill-rule="nonzero" fill-opacity="1"></path><path clip-path="url(#clip070)" d="M609.242 209.99 L613.501 209.99 L613.501 235.916 L609.242 235.916 L609.242 209.99 M609.242 199.897 L613.501 199.897 L613.501 205.291 L609.242 205.291 L609.242 199.897 Z" fill="#000000" fill-rule="nonzero" fill-opacity="1"></path><path clip-path="url(#clip070)" d="M632.459 212.976 Q629.033 212.976 627.043 215.661 Q625.052 218.323 625.052 222.976 Q625.052 227.629 627.02 230.314 Q629.01 232.976 632.459 232.976 Q635.862 232.976 637.853 230.291 Q639.844 227.606 639.844 222.976 Q639.844 218.37 637.853 215.684 Q635.862 212.976 632.459 212.976 M632.459 209.365 Q638.015 209.365 641.186 212.976 Q644.357 216.587 644.357 222.976 Q644.357 229.342 641.186 232.976 Q638.015 236.587 632.459 236.587 Q626.881 236.587 623.709 232.976 Q620.561 229.342 620.561 222.976 Q620.561 216.587 623.709 212.976 Q626.881 209.365 632.459 209.365 Z" fill="#000000" fill-rule="nonzero" fill-opacity="1"></path><path clip-path="url(#clip070)" d="M672.968 220.268 L672.968 235.916 L668.709 235.916 L668.709 220.407 Q668.709 216.726 667.274 214.897 Q665.839 213.069 662.968 213.069 Q659.519 213.069 657.529 215.268 Q655.538 217.467 655.538 221.263 L655.538 235.916 L651.256 235.916 L651.256 209.99 L655.538 209.99 L655.538 214.018 Q657.066 211.68 659.126 210.522 Q661.209 209.365 663.918 209.365 Q668.385 209.365 670.677 212.143 Q672.968 214.897 672.968 220.268 Z" fill="#000000" fill-rule="nonzero" fill-opacity="1"></path><path clip-path="url(#clip070)" d="M691.927 201.356 L721.163 201.356 L721.163 205.291 L708.894 205.291 L708.894 235.916 L704.195 235.916 L704.195 205.291 L691.927 205.291 L691.927 201.356 Z" fill="#000000" fill-rule="nonzero" fill-opacity="1"></path><path clip-path="url(#clip070)" d="M733.547 213.971 Q732.829 213.555 731.973 213.37 Q731.139 213.161 730.121 213.161 Q726.51 213.161 724.565 215.522 Q722.644 217.86 722.644 222.258 L722.644 235.916 L718.362 235.916 L718.362 209.99 L722.644 209.99 L722.644 214.018 Q723.987 211.657 726.139 210.522 Q728.292 209.365 731.371 209.365 Q731.811 209.365 732.343 209.434 Q732.875 209.481 733.524 209.596 L733.547 213.971 Z" fill="#000000" fill-rule="nonzero" fill-opacity="1"></path><path clip-path="url(#clip070)" d="M759.149 221.888 L759.149 223.971 L739.565 223.971 Q739.843 228.369 742.204 230.684 Q744.588 232.976 748.824 232.976 Q751.278 232.976 753.57 232.374 Q755.885 231.772 758.153 230.569 L758.153 234.596 Q755.861 235.568 753.454 236.078 Q751.047 236.587 748.57 236.587 Q742.366 236.587 738.732 232.976 Q735.121 229.365 735.121 223.207 Q735.121 216.842 738.547 213.115 Q741.996 209.365 747.829 209.365 Q753.061 209.365 756.093 212.745 Q759.149 216.101 759.149 221.888 M754.889 220.638 Q754.843 217.143 752.922 215.059 Q751.024 212.976 747.875 212.976 Q744.311 212.976 742.158 214.99 Q740.028 217.004 739.704 220.661 L754.889 220.638 Z" fill="#000000" fill-rule="nonzero" fill-opacity="1"></path><path clip-path="url(#clip070)" d="M788.315 221.888 L788.315 223.971 L768.732 223.971 Q769.01 228.369 771.371 230.684 Q773.755 232.976 777.991 232.976 Q780.445 232.976 782.736 232.374 Q785.051 231.772 787.32 230.569 L787.32 234.596 Q785.028 235.568 782.621 236.078 Q780.213 236.587 777.736 236.587 Q771.533 236.587 767.898 232.976 Q764.287 229.365 764.287 223.207 Q764.287 216.842 767.713 213.115 Q771.162 209.365 776.996 209.365 Q782.227 209.365 785.259 212.745 Q788.315 216.101 788.315 221.888 M784.056 220.638 Q784.009 217.143 782.088 215.059 Q780.19 212.976 777.042 212.976 Q773.477 212.976 771.324 214.99 Q769.195 217.004 768.871 220.661 L784.056 220.638 Z" fill="#000000" fill-rule="nonzero" fill-opacity="1"></path><polyline clip-path="url(#clip070)" style="stroke:#e26f46; stroke-linecap:round; stroke-linejoin:round; stroke-width:4; stroke-opacity:1; fill:none" stroke-dasharray="16, 10" points="313.865,270.476 456.113,270.476 "></polyline>
<path clip-path="url(#clip070)" d="M507.692 255.858 L507.692 260.788 Q505.33 258.589 502.645 257.501 Q499.983 256.413 496.974 256.413 Q491.048 256.413 487.9 260.048 Q484.752 263.659 484.752 270.51 Q484.752 277.339 487.9 280.973 Q491.048 284.584 496.974 284.584 Q499.983 284.584 502.645 283.496 Q505.33 282.409 507.692 280.209 L507.692 285.094 Q505.238 286.76 502.483 287.594 Q499.752 288.427 496.696 288.427 Q488.849 288.427 484.335 283.635 Q479.821 278.821 479.821 270.51 Q479.821 262.177 484.335 257.386 Q488.849 252.571 496.696 252.571 Q499.798 252.571 502.53 253.404 Q505.284 254.214 507.692 255.858 Z" fill="#000000" fill-rule="nonzero" fill-opacity="1"></path><path clip-path="url(#clip070)" d="M524.775 264.816 Q521.349 264.816 519.358 267.501 Q517.367 270.163 517.367 274.816 Q517.367 279.469 519.335 282.154 Q521.326 284.816 524.775 284.816 Q528.178 284.816 530.168 282.131 Q532.159 279.446 532.159 274.816 Q532.159 270.21 530.168 267.524 Q528.178 264.816 524.775 264.816 M524.775 261.205 Q530.33 261.205 533.502 264.816 Q536.673 268.427 536.673 274.816 Q536.673 281.182 533.502 284.816 Q530.33 288.427 524.775 288.427 Q519.196 288.427 516.025 284.816 Q512.877 281.182 512.877 274.816 Q512.877 268.427 516.025 264.816 Q519.196 261.205 524.775 261.205 Z" fill="#000000" fill-rule="nonzero" fill-opacity="1"></path><path clip-path="url(#clip070)" d="M565.284 272.108 L565.284 287.756 L561.025 287.756 L561.025 272.247 Q561.025 268.566 559.589 266.737 Q558.154 264.909 555.284 264.909 Q551.835 264.909 549.844 267.108 Q547.853 269.307 547.853 273.103 L547.853 287.756 L543.571 287.756 L543.571 261.83 L547.853 261.83 L547.853 265.858 Q549.381 263.52 551.441 262.362 Q553.525 261.205 556.233 261.205 Q560.7 261.205 562.992 263.983 Q565.284 266.737 565.284 272.108 Z" fill="#000000" fill-rule="nonzero" fill-opacity="1"></path><path clip-path="url(#clip070)" d="M590.307 262.594 L590.307 266.622 Q588.501 265.696 586.557 265.233 Q584.612 264.77 582.529 264.77 Q579.358 264.77 577.761 265.742 Q576.187 266.714 576.187 268.659 Q576.187 270.14 577.321 270.997 Q578.455 271.83 581.881 272.594 L583.339 272.918 Q587.876 273.89 589.774 275.672 Q591.696 277.432 591.696 280.603 Q591.696 284.214 588.825 286.321 Q585.978 288.427 580.978 288.427 Q578.895 288.427 576.626 288.01 Q574.381 287.617 571.881 286.807 L571.881 282.409 Q574.242 283.635 576.534 284.26 Q578.825 284.862 581.071 284.862 Q584.08 284.862 585.7 283.844 Q587.321 282.802 587.321 280.927 Q587.321 279.191 586.14 278.265 Q584.983 277.339 581.024 276.483 L579.543 276.135 Q575.585 275.302 573.825 273.589 Q572.066 271.853 572.066 268.844 Q572.066 265.186 574.659 263.196 Q577.251 261.205 582.02 261.205 Q584.381 261.205 586.464 261.552 Q588.548 261.899 590.307 262.594 Z" fill="#000000" fill-rule="nonzero" fill-opacity="1"></path><path clip-path="url(#clip070)" d="M602.691 254.469 L602.691 261.83 L611.464 261.83 L611.464 265.14 L602.691 265.14 L602.691 279.214 Q602.691 282.385 603.547 283.288 Q604.427 284.191 607.089 284.191 L611.464 284.191 L611.464 287.756 L607.089 287.756 Q602.159 287.756 600.284 285.927 Q598.409 284.075 598.409 279.214 L598.409 265.14 L595.284 265.14 L595.284 261.83 L598.409 261.83 L598.409 254.469 L602.691 254.469 Z" fill="#000000" fill-rule="nonzero" fill-opacity="1"></path><path clip-path="url(#clip070)" d="M628.848 274.723 Q623.686 274.723 621.696 275.904 Q619.705 277.084 619.705 279.932 Q619.705 282.2 621.186 283.543 Q622.691 284.862 625.26 284.862 Q628.802 284.862 630.932 282.362 Q633.084 279.839 633.084 275.672 L633.084 274.723 L628.848 274.723 M637.344 272.964 L637.344 287.756 L633.084 287.756 L633.084 283.821 Q631.626 286.182 629.45 287.316 Q627.274 288.427 624.126 288.427 Q620.145 288.427 617.784 286.205 Q615.446 283.959 615.446 280.209 Q615.446 275.834 618.362 273.612 Q621.302 271.39 627.112 271.39 L633.084 271.39 L633.084 270.973 Q633.084 268.034 631.14 266.436 Q629.219 264.816 625.723 264.816 Q623.501 264.816 621.395 265.348 Q619.288 265.881 617.344 266.946 L617.344 263.01 Q619.682 262.108 621.881 261.668 Q624.08 261.205 626.163 261.205 Q631.788 261.205 634.566 264.122 Q637.344 267.038 637.344 272.964 Z" fill="#000000" fill-rule="nonzero" fill-opacity="1"></path><path clip-path="url(#clip070)" d="M667.668 272.108 L667.668 287.756 L663.408 287.756 L663.408 272.247 Q663.408 268.566 661.973 266.737 Q660.538 264.909 657.668 264.909 Q654.219 264.909 652.228 267.108 Q650.237 269.307 650.237 273.103 L650.237 287.756 L645.955 287.756 L645.955 261.83 L650.237 261.83 L650.237 265.858 Q651.765 263.52 653.825 262.362 Q655.908 261.205 658.617 261.205 Q663.084 261.205 665.376 263.983 Q667.668 266.737 667.668 272.108 Z" fill="#000000" fill-rule="nonzero" fill-opacity="1"></path><path clip-path="url(#clip070)" d="M680.376 254.469 L680.376 261.83 L689.149 261.83 L689.149 265.14 L680.376 265.14 L680.376 279.214 Q680.376 282.385 681.232 283.288 Q682.112 284.191 684.774 284.191 L689.149 284.191 L689.149 287.756 L684.774 287.756 Q679.843 287.756 677.968 285.927 Q676.093 284.075 676.093 279.214 L676.093 265.14 L672.968 265.14 L672.968 261.83 L676.093 261.83 L676.093 254.469 L680.376 254.469 Z" fill="#000000" fill-rule="nonzero" fill-opacity="1"></path><path clip-path="url(#clip070)" d="M735.885 255.858 L735.885 260.788 Q733.524 258.589 730.838 257.501 Q728.176 256.413 725.167 256.413 Q719.241 256.413 716.093 260.048 Q712.945 263.659 712.945 270.51 Q712.945 277.339 716.093 280.973 Q719.241 284.584 725.167 284.584 Q728.176 284.584 730.838 283.496 Q733.524 282.409 735.885 280.209 L735.885 285.094 Q733.431 286.76 730.676 287.594 Q727.945 288.427 724.889 288.427 Q717.042 288.427 712.528 283.635 Q708.015 278.821 708.015 270.51 Q708.015 262.177 712.528 257.386 Q717.042 252.571 724.889 252.571 Q727.991 252.571 730.723 253.404 Q733.477 254.214 735.885 255.858 Z" fill="#000000" fill-rule="nonzero" fill-opacity="1"></path><path clip-path="url(#clip070)" d="M742.922 251.737 L747.181 251.737 L747.181 287.756 L742.922 287.756 L742.922 251.737 Z" fill="#000000" fill-rule="nonzero" fill-opacity="1"></path><path clip-path="url(#clip070)" d="M767.875 274.723 Q762.713 274.723 760.723 275.904 Q758.732 277.084 758.732 279.932 Q758.732 282.2 760.213 283.543 Q761.718 284.862 764.287 284.862 Q767.829 284.862 769.959 282.362 Q772.111 279.839 772.111 275.672 L772.111 274.723 L767.875 274.723 M776.371 272.964 L776.371 287.756 L772.111 287.756 L772.111 283.821 Q770.653 286.182 768.477 287.316 Q766.301 288.427 763.153 288.427 Q759.172 288.427 756.811 286.205 Q754.473 283.959 754.473 280.209 Q754.473 275.834 757.389 273.612 Q760.329 271.39 766.139 271.39 L772.111 271.39 L772.111 270.973 Q772.111 268.034 770.167 266.436 Q768.246 264.816 764.75 264.816 Q762.528 264.816 760.422 265.348 Q758.315 265.881 756.371 266.946 L756.371 263.01 Q758.709 262.108 760.908 261.668 Q763.107 261.205 765.19 261.205 Q770.815 261.205 773.593 264.122 Q776.371 267.038 776.371 272.964 Z" fill="#000000" fill-rule="nonzero" fill-opacity="1"></path><path clip-path="url(#clip070)" d="M801.671 262.594 L801.671 266.622 Q799.866 265.696 797.921 265.233 Q795.977 264.77 793.894 264.77 Q790.722 264.77 789.125 265.742 Q787.551 266.714 787.551 268.659 Q787.551 270.14 788.685 270.997 Q789.82 271.83 793.246 272.594 L794.704 272.918 Q799.241 273.89 801.139 275.672 Q803.06 277.432 803.06 280.603 Q803.06 284.214 800.19 286.321 Q797.343 288.427 792.343 288.427 Q790.259 288.427 787.991 288.01 Q785.746 287.617 783.246 286.807 L783.246 282.409 Q785.607 283.635 787.898 284.26 Q790.19 284.862 792.435 284.862 Q795.445 284.862 797.065 283.844 Q798.685 282.802 798.685 280.927 Q798.685 279.191 797.505 278.265 Q796.347 277.339 792.389 276.483 L790.908 276.135 Q786.949 275.302 785.19 273.589 Q783.431 271.853 783.431 268.844 Q783.431 265.186 786.023 263.196 Q788.616 261.205 793.384 261.205 Q795.746 261.205 797.829 261.552 Q799.912 261.899 801.671 262.594 Z" fill="#000000" fill-rule="nonzero" fill-opacity="1"></path><path clip-path="url(#clip070)" d="M826.37 262.594 L826.37 266.622 Q824.565 265.696 822.62 265.233 Q820.676 264.77 818.593 264.77 Q815.421 264.77 813.824 265.742 Q812.25 266.714 812.25 268.659 Q812.25 270.14 813.384 270.997 Q814.519 271.83 817.944 272.594 L819.403 272.918 Q823.94 273.89 825.838 275.672 Q827.759 277.432 827.759 280.603 Q827.759 284.214 824.889 286.321 Q822.042 288.427 817.042 288.427 Q814.958 288.427 812.69 288.01 Q810.445 287.617 807.945 286.807 L807.945 282.409 Q810.306 283.635 812.597 284.26 Q814.889 284.862 817.134 284.862 Q820.144 284.862 821.764 283.844 Q823.384 282.802 823.384 280.927 Q823.384 279.191 822.204 278.265 Q821.046 277.339 817.088 276.483 L815.607 276.135 Q811.648 275.302 809.889 273.589 Q808.13 271.853 808.13 268.844 Q808.13 265.186 810.722 263.196 Q813.315 261.205 818.083 261.205 Q820.444 261.205 822.528 261.552 Q824.611 261.899 826.37 262.594 Z" fill="#000000" fill-rule="nonzero" fill-opacity="1"></path><path clip-path="url(#clip070)" d="M834.542 261.83 L838.801 261.83 L838.801 287.756 L834.542 287.756 L834.542 261.83 M834.542 251.737 L838.801 251.737 L838.801 257.131 L834.542 257.131 L834.542 251.737 Z" fill="#000000" fill-rule="nonzero" fill-opacity="1"></path><path clip-path="url(#clip070)" d="M860.838 251.737 L860.838 255.279 L856.764 255.279 Q854.472 255.279 853.569 256.205 Q852.69 257.131 852.69 259.538 L852.69 261.83 L859.704 261.83 L859.704 265.14 L852.69 265.14 L852.69 287.756 L848.407 287.756 L848.407 265.14 L844.333 265.14 L844.333 261.83 L848.407 261.83 L848.407 260.024 Q848.407 255.696 850.421 253.728 Q852.435 251.737 856.81 251.737 L860.838 251.737 Z" fill="#000000" fill-rule="nonzero" fill-opacity="1"></path><path clip-path="url(#clip070)" d="M864.403 261.83 L868.662 261.83 L868.662 287.756 L864.403 287.756 L864.403 261.83 M864.403 251.737 L868.662 251.737 L868.662 257.131 L864.403 257.131 L864.403 251.737 Z" fill="#000000" fill-rule="nonzero" fill-opacity="1"></path><path clip-path="url(#clip070)" d="M899.75 273.728 L899.75 275.811 L880.166 275.811 Q880.444 280.209 882.805 282.524 Q885.189 284.816 889.426 284.816 Q891.879 284.816 894.171 284.214 Q896.486 283.612 898.754 282.409 L898.754 286.436 Q896.463 287.408 894.055 287.918 Q891.648 288.427 889.171 288.427 Q882.967 288.427 879.333 284.816 Q875.722 281.205 875.722 275.047 Q875.722 268.682 879.148 264.955 Q882.597 261.205 888.43 261.205 Q893.662 261.205 896.694 264.585 Q899.75 267.941 899.75 273.728 M895.49 272.478 Q895.444 268.983 893.523 266.899 Q891.625 264.816 888.477 264.816 Q884.912 264.816 882.759 266.83 Q880.629 268.844 880.305 272.501 L895.49 272.478 Z" fill="#000000" fill-rule="nonzero" fill-opacity="1"></path><path clip-path="url(#clip070)" d="M921.763 265.811 Q921.046 265.395 920.189 265.21 Q919.356 265.001 918.337 265.001 Q914.726 265.001 912.782 267.362 Q910.861 269.7 910.861 274.098 L910.861 287.756 L906.578 287.756 L906.578 261.83 L910.861 261.83 L910.861 265.858 Q912.203 263.497 914.356 262.362 Q916.509 261.205 919.587 261.205 Q920.027 261.205 920.56 261.274 Q921.092 261.321 921.74 261.436 L921.763 265.811 Z" fill="#000000" fill-rule="nonzero" fill-opacity="1"></path></svg>