<svg xmlns="http://www.w3.org/2000/svg" xmlns:xlink="http://www.w3.org/1999/xlink" width="600" height="400" viewBox="0 0 2400 1600">
<defs>
  <clipPath id="clip560">
    <rect x="0" y="0" width="2400" height="1600"></rect>
  </clipPath>
</defs>
<path clip-path="url(#clip560)" d="M0 1600 L2400 1600 L2400 0 L0 0  Z" fill="#ffffff" fill-rule="evenodd" fill-opacity="1"></path>
<defs>
  <clipPath id="clip561">
    <rect x="480" y="0" width="1681" height="1600"></rect>
  </clipPath>
</defs>
<path clip-path="url(#clip560)" d="M175.445 1423.18 L2352.76 1423.18 L2352.76 123.472 L175.445 123.472  Z" fill="#ffffff" fill-rule="evenodd" fill-opacity="1"></path>
<defs>
  <clipPath id="clip562">
    <rect x="175" y="123" width="2178" height="1301"></rect>
  </clipPath>
</defs>
<polyline clip-path="url(#clip562)" style="stroke:#000000; stroke-linecap:round; stroke-linejoin:round; stroke-width:2; stroke-opacity:0.1; fill:none" points="236.382,1423.18 236.382,123.472 "></polyline>
<polyline clip-path="url(#clip562)" style="stroke:#000000; stroke-linecap:round; stroke-linejoin:round; stroke-width:2; stroke-opacity:0.1; fill:none" points="921.299,1423.18 921.299,123.472 "></polyline>
<polyline clip-path="url(#clip562)" style="stroke:#000000; stroke-linecap:round; stroke-linejoin:round; stroke-width:2; stroke-opacity:0.1; fill:none" points="1606.22,1423.18 1606.22,123.472 "></polyline>
<polyline clip-path="url(#clip562)" style="stroke:#000000; stroke-linecap:round; stroke-linejoin:round; stroke-width:2; stroke-opacity:0.1; fill:none" points="2291.13,1423.18 2291.13,123.472 "></polyline>
<polyline clip-path="url(#clip562)" style="stroke:#000000; stroke-linecap:round; stroke-linejoin:round; stroke-width:2; stroke-opacity:0.1; fill:none" points="175.445,1200.25 2352.76,1200.25 "></polyline>
<polyline clip-path="url(#clip562)" style="stroke:#000000; stroke-linecap:round; stroke-linejoin:round; stroke-width:2; stroke-opacity:0.1; fill:none" points="175.445,935.418 2352.76,935.418 "></polyline>
<polyline clip-path="url(#clip562)" style="stroke:#000000; stroke-linecap:round; stroke-linejoin:round; stroke-width:2; stroke-opacity:0.1; fill:none" points="175.445,670.585 2352.76,670.585 "></polyline>
<polyline clip-path="url(#clip562)" style="stroke:#000000; stroke-linecap:round; stroke-linejoin:round; stroke-width:2; stroke-opacity:0.1; fill:none" points="175.445,405.752 2352.76,405.752 "></polyline>
<polyline clip-path="url(#clip562)" style="stroke:#000000; stroke-linecap:round; stroke-linejoin:round; stroke-width:2; stroke-opacity:0.1; fill:none" points="175.445,140.919 2352.76,140.919 "></polyline>
<polyline clip-path="url(#clip560)" style="stroke:#000000; stroke-linecap:round; stroke-linejoin:round; stroke-width:4; stroke-opacity:1; fill:none" points="175.445,1423.18 2352.76,1423.18 "></polyline>
<polyline clip-path="url(#clip560)" style="stroke:#000000; stroke-linecap:round; stroke-linejoin:round; stroke-width:4; stroke-opacity:1; fill:none" points="236.382,1423.18 236.382,1404.28 "></polyline>
<polyline clip-path="url(#clip560)" style="stroke:#000000; stroke-linecap:round; stroke-linejoin:round; stroke-width:4; stroke-opacity:1; fill:none" points="921.299,1423.18 921.299,1404.28 "></polyline>
<polyline clip-path="url(#clip560)" style="stroke:#000000; stroke-linecap:round; stroke-linejoin:round; stroke-width:4; stroke-opacity:1; fill:none" points="1606.22,1423.18 1606.22,1404.28 "></polyline>
<polyline clip-path="url(#clip560)" style="stroke:#000000; stroke-linecap:round; stroke-linejoin:round; stroke-width:4; stroke-opacity:1; fill:none" points="2291.13,1423.18 2291.13,1404.28 "></polyline>
<path clip-path="url(#clip560)" d="M236.382 1454.1 Q232.771 1454.1 230.943 1457.66 Q229.137 1461.2 229.137 1468.33 Q229.137 1475.44 230.943 1479.01 Q232.771 1482.55 236.382 1482.55 Q240.017 1482.55 241.822 1479.01 Q243.651 1475.44 243.651 1468.33 Q243.651 1461.2 241.822 1457.66 Q240.017 1454.1 236.382 1454.1 M236.382 1450.39 Q242.192 1450.39 245.248 1455 Q248.327 1459.58 248.327 1468.33 Q248.327 1477.06 245.248 1481.67 Q242.192 1486.25 236.382 1486.25 Q230.572 1486.25 227.493 1481.67 Q224.438 1477.06 224.438 1468.33 Q224.438 1459.58 227.493 1455 Q230.572 1450.39 236.382 1450.39 Z" fill="#000000" fill-rule="nonzero" fill-opacity="1"></path><path clip-path="url(#clip560)" d="M865.825 1481.64 L873.464 1481.64 L873.464 1455.28 L865.154 1456.95 L865.154 1452.69 L873.418 1451.02 L878.094 1451.02 L878.094 1481.64 L885.733 1481.64 L885.733 1485.58 L865.825 1485.58 L865.825 1481.64 Z" fill="#000000" fill-rule="nonzero" fill-opacity="1"></path><path clip-path="url(#clip560)" d="M905.177 1454.1 Q901.566 1454.1 899.737 1457.66 Q897.932 1461.2 897.932 1468.33 Q897.932 1475.44 899.737 1479.01 Q901.566 1482.55 905.177 1482.55 Q908.811 1482.55 910.617 1479.01 Q912.445 1475.44 912.445 1468.33 Q912.445 1461.2 910.617 1457.66 Q908.811 1454.1 905.177 1454.1 M905.177 1450.39 Q910.987 1450.39 914.043 1455 Q917.121 1459.58 917.121 1468.33 Q917.121 1477.06 914.043 1481.67 Q910.987 1486.25 905.177 1486.25 Q899.367 1486.25 896.288 1481.67 Q893.233 1477.06 893.233 1468.33 Q893.233 1459.58 896.288 1455 Q899.367 1450.39 905.177 1450.39 Z" fill="#000000" fill-rule="nonzero" fill-opacity="1"></path><path clip-path="url(#clip560)" d="M935.339 1454.1 Q931.728 1454.1 929.899 1457.66 Q928.093 1461.2 928.093 1468.33 Q928.093 1475.44 929.899 1479.01 Q931.728 1482.55 935.339 1482.55 Q938.973 1482.55 940.779 1479.01 Q942.607 1475.44 942.607 1468.33 Q942.607 1461.2 940.779 1457.66 Q938.973 1454.1 935.339 1454.1 M935.339 1450.39 Q941.149 1450.39 944.204 1455 Q947.283 1459.58 947.283 1468.33 Q947.283 1477.06 944.204 1481.67 Q941.149 1486.25 935.339 1486.25 Q929.529 1486.25 926.45 1481.67 Q923.394 1477.06 923.394 1468.33 Q923.394 1459.58 926.45 1455 Q929.529 1450.39 935.339 1450.39 Z" fill="#000000" fill-rule="nonzero" fill-opacity="1"></path><path clip-path="url(#clip560)" d="M965.501 1454.1 Q961.89 1454.1 960.061 1457.66 Q958.255 1461.2 958.255 1468.33 Q958.255 1475.44 960.061 1479.01 Q961.89 1482.55 965.501 1482.55 Q969.135 1482.55 970.94 1479.01 Q972.769 1475.44 972.769 1468.33 Q972.769 1461.2 970.94 1457.66 Q969.135 1454.1 965.501 1454.1 M965.501 1450.39 Q971.311 1450.39 974.366 1455 Q977.445 1459.58 977.445 1468.33 Q977.445 1477.06 974.366 1481.67 Q971.311 1486.25 965.501 1486.25 Q959.69 1486.25 956.612 1481.67 Q953.556 1477.06 953.556 1468.33 Q953.556 1459.58 956.612 1455 Q959.69 1450.39 965.501 1450.39 Z" fill="#000000" fill-rule="nonzero" fill-opacity="1"></path><path clip-path="url(#clip560)" d="M1554.83 1481.64 L1571.15 1481.64 L1571.15 1485.58 L1549.2 1485.58 L1549.2 1481.64 Q1551.87 1478.89 1556.45 1474.26 Q1561.05 1469.61 1562.24 1468.27 Q1564.48 1465.74 1565.36 1464.01 Q1566.26 1462.25 1566.26 1460.56 Q1566.26 1457.8 1564.32 1456.07 Q1562.4 1454.33 1559.3 1454.33 Q1557.1 1454.33 1554.64 1455.09 Q1552.21 1455.86 1549.43 1457.41 L1549.43 1452.69 Q1552.26 1451.55 1554.71 1450.97 Q1557.17 1450.39 1559.2 1450.39 Q1564.57 1450.39 1567.77 1453.08 Q1570.96 1455.77 1570.96 1460.26 Q1570.96 1462.39 1570.15 1464.31 Q1569.37 1466.2 1567.26 1468.8 Q1566.68 1469.47 1563.58 1472.69 Q1560.48 1475.88 1554.83 1481.64 Z" fill="#000000" fill-rule="nonzero" fill-opacity="1"></path><path clip-path="url(#clip560)" d="M1590.96 1454.1 Q1587.35 1454.1 1585.52 1457.66 Q1583.72 1461.2 1583.72 1468.33 Q1583.72 1475.44 1585.52 1479.01 Q1587.35 1482.55 1590.96 1482.55 Q1594.6 1482.55 1596.4 1479.01 Q1598.23 1475.44 1598.23 1468.33 Q1598.23 1461.2 1596.4 1457.66 Q1594.6 1454.1 1590.96 1454.1 M1590.96 1450.39 Q1596.77 1450.39 1599.83 1455 Q1602.91 1459.58 1602.91 1468.33 Q1602.91 1477.06 1599.83 1481.67 Q1596.77 1486.25 1590.96 1486.25 Q1585.15 1486.25 1582.07 1481.67 Q1579.02 1477.06 1579.02 1468.33 Q1579.02 1459.58 1582.07 1455 Q1585.15 1450.39 1590.96 1450.39 Z" fill="#000000" fill-rule="nonzero" fill-opacity="1"></path><path clip-path="url(#clip560)" d="M1621.12 1454.1 Q1617.51 1454.1 1615.68 1457.66 Q1613.88 1461.2 1613.88 1468.33 Q1613.88 1475.44 1615.68 1479.01 Q1617.51 1482.55 1621.12 1482.55 Q1624.76 1482.55 1626.56 1479.01 Q1628.39 1475.44 1628.39 1468.33 Q1628.39 1461.2 1626.56 1457.66 Q1624.76 1454.1 1621.12 1454.1 M1621.12 1450.39 Q1626.93 1450.39 1629.99 1455 Q1633.07 1459.58 1633.07 1468.33 Q1633.07 1477.06 1629.99 1481.67 Q1626.93 1486.25 1621.12 1486.25 Q1615.31 1486.25 1612.24 1481.67 Q1609.18 1477.06 1609.18 1468.33 Q1609.18 1459.58 1612.24 1455 Q1615.31 1450.39 1621.12 1450.39 Z" fill="#000000" fill-rule="nonzero" fill-opacity="1"></path><path clip-path="url(#clip560)" d="M1651.29 1454.1 Q1647.67 1454.1 1645.85 1457.66 Q1644.04 1461.2 1644.04 1468.33 Q1644.04 1475.44 1645.85 1479.01 Q1647.67 1482.55 1651.29 1482.55 Q1654.92 1482.55 1656.73 1479.01 Q1658.55 1475.44 1658.55 1468.33 Q1658.55 1461.2 1656.73 1457.66 Q1654.92 1454.1 1651.29 1454.1 M1651.29 1450.39 Q1657.1 1450.39 1660.15 1455 Q1663.23 1459.58 1663.23 1468.33 Q1663.23 1477.06 1660.15 1481.67 Q1657.1 1486.25 1651.29 1486.25 Q1645.48 1486.25 1642.4 1481.67 Q1639.34 1477.06 1639.34 1468.33 Q1639.34 1459.58 1642.4 1455 Q1645.48 1450.39 1651.29 1450.39 Z" fill="#000000" fill-rule="nonzero" fill-opacity="1"></path><path clip-path="url(#clip560)" d="M2249.81 1466.95 Q2253.17 1467.66 2255.05 1469.93 Q2256.94 1472.2 2256.94 1475.53 Q2256.94 1480.65 2253.43 1483.45 Q2249.91 1486.25 2243.43 1486.25 Q2241.25 1486.25 2238.94 1485.81 Q2236.64 1485.39 2234.19 1484.54 L2234.19 1480.02 Q2236.13 1481.16 2238.45 1481.74 Q2240.76 1482.32 2243.29 1482.32 Q2247.69 1482.32 2249.98 1480.58 Q2252.29 1478.84 2252.29 1475.53 Q2252.29 1472.48 2250.14 1470.77 Q2248.01 1469.03 2244.19 1469.03 L2240.16 1469.03 L2240.16 1465.19 L2244.37 1465.19 Q2247.82 1465.19 2249.65 1463.82 Q2251.48 1462.43 2251.48 1459.84 Q2251.48 1457.18 2249.58 1455.77 Q2247.71 1454.33 2244.19 1454.33 Q2242.27 1454.33 2240.07 1454.75 Q2237.87 1455.16 2235.23 1456.04 L2235.23 1451.88 Q2237.89 1451.14 2240.21 1450.77 Q2242.55 1450.39 2244.61 1450.39 Q2249.93 1450.39 2253.03 1452.83 Q2256.13 1455.23 2256.13 1459.35 Q2256.13 1462.22 2254.49 1464.21 Q2252.85 1466.18 2249.81 1466.95 Z" fill="#000000" fill-rule="nonzero" fill-opacity="1"></path><path clip-path="url(#clip560)" d="M2275.81 1454.1 Q2272.2 1454.1 2270.37 1457.66 Q2268.56 1461.2 2268.56 1468.33 Q2268.56 1475.44 2270.37 1479.01 Q2272.2 1482.55 2275.81 1482.55 Q2279.44 1482.55 2281.25 1479.01 Q2283.08 1475.44 2283.08 1468.33 Q2283.08 1461.2 2281.25 1457.66 Q2279.44 1454.1 2275.81 1454.1 M2275.81 1450.39 Q2281.62 1450.39 2284.68 1455 Q2287.75 1459.58 2287.75 1468.33 Q2287.75 1477.06 2284.68 1481.67 Q2281.62 1486.25 2275.81 1486.25 Q2270 1486.25 2266.92 1481.67 Q2263.87 1477.06 2263.87 1468.33 Q2263.87 1459.58 2266.92 1455 Q2270 1450.39 2275.81 1450.39 Z" fill="#000000" fill-rule="nonzero" fill-opacity="1"></path><path clip-path="url(#clip560)" d="M2305.97 1454.1 Q2302.36 1454.1 2300.53 1457.66 Q2298.73 1461.2 2298.73 1468.33 Q2298.73 1475.44 2300.53 1479.01 Q2302.36 1482.55 2305.97 1482.55 Q2309.61 1482.55 2311.41 1479.01 Q2313.24 1475.44 2313.24 1468.33 Q2313.24 1461.2 2311.41 1457.66 Q2309.61 1454.1 2305.97 1454.1 M2305.97 1450.39 Q2311.78 1450.39 2314.84 1455 Q2317.92 1459.58 2317.92 1468.33 Q2317.92 1477.06 2314.84 1481.67 Q2311.78 1486.25 2305.97 1486.25 Q2300.16 1486.25 2297.08 1481.67 Q2294.03 1477.06 2294.03 1468.33 Q2294.03 1459.58 2297.08 1455 Q2300.16 1450.39 2305.97 1450.39 Z" fill="#000000" fill-rule="nonzero" fill-opacity="1"></path><path clip-path="url(#clip560)" d="M2336.13 1454.1 Q2332.52 1454.1 2330.69 1457.66 Q2328.89 1461.2 2328.89 1468.33 Q2328.89 1475.44 2330.69 1479.01 Q2332.52 1482.55 2336.13 1482.55 Q2339.77 1482.55 2341.57 1479.01 Q2343.4 1475.44 2343.4 1468.33 Q2343.4 1461.2 2341.57 1457.66 Q2339.77 1454.1 2336.13 1454.1 M2336.13 1450.39 Q2341.94 1450.39 2345 1455 Q2348.08 1459.58 2348.08 1468.33 Q2348.08 1477.06 2345 1481.67 Q2341.94 1486.25 2336.13 1486.25 Q2330.32 1486.25 2327.24 1481.67 Q2324.19 1477.06 2324.19 1468.33 Q2324.19 1459.58 2327.24 1455 Q2330.32 1450.39 2336.13 1450.39 Z" fill="#000000" fill-rule="nonzero" fill-opacity="1"></path><path clip-path="url(#clip560)" d="M1004.33 1539.24 Q1006.53 1535.29 1009.58 1533.41 Q1012.64 1531.54 1016.78 1531.54 Q1022.35 1531.54 1025.37 1535.45 Q1028.39 1539.33 1028.39 1546.53 L1028.39 1568.04 L1022.51 1568.04 L1022.51 1546.72 Q1022.51 1541.59 1020.69 1539.11 Q1018.88 1536.63 1015.15 1536.63 Q1010.6 1536.63 1007.96 1539.65 Q1005.32 1542.68 1005.32 1547.9 L1005.32 1568.04 L999.43 1568.04 L999.43 1546.72 Q999.43 1541.56 997.616 1539.11 Q995.802 1536.63 992.014 1536.63 Q987.527 1536.63 984.885 1539.68 Q982.243 1542.71 982.243 1547.9 L982.243 1568.04 L976.355 1568.04 L976.355 1532.4 L982.243 1532.4 L982.243 1537.93 Q984.248 1534.66 987.049 1533.1 Q989.85 1531.54 993.701 1531.54 Q997.584 1531.54 1000.29 1533.51 Q1003.03 1535.48 1004.33 1539.24 Z" fill="#000000" fill-rule="nonzero" fill-opacity="1"></path><path clip-path="url(#clip560)" d="M1040.08 1532.4 L1045.93 1532.4 L1045.93 1568.04 L1040.08 1568.04 L1040.08 1532.4 M1040.08 1518.52 L1045.93 1518.52 L1045.93 1525.93 L1040.08 1525.93 L1040.08 1518.52 Z" fill="#000000" fill-rule="nonzero" fill-opacity="1"></path><path clip-path="url(#clip560)" d="M1087.82 1546.53 L1087.82 1568.04 L1081.96 1568.04 L1081.96 1546.72 Q1081.96 1541.66 1079.99 1539.14 Q1078.02 1536.63 1074.07 1536.63 Q1069.33 1536.63 1066.59 1539.65 Q1063.85 1542.68 1063.85 1547.9 L1063.85 1568.04 L1057.96 1568.04 L1057.96 1532.4 L1063.85 1532.4 L1063.85 1537.93 Q1065.95 1534.72 1068.78 1533.13 Q1071.65 1531.54 1075.37 1531.54 Q1081.52 1531.54 1084.67 1535.36 Q1087.82 1539.14 1087.82 1546.53 Z" fill="#000000" fill-rule="nonzero" fill-opacity="1"></path><path clip-path="url(#clip560)" d="M1126.59 1578.87 L1126.59 1583.42 L1092.72 1583.42 L1092.72 1578.87 L1126.59 1578.87 Z" fill="#000000" fill-rule="nonzero" fill-opacity="1"></path><path clip-path="url(#clip560)" d="M1154.82 1533.45 L1154.82 1538.98 Q1152.33 1537.71 1149.66 1537.07 Q1146.99 1536.44 1144.12 1536.44 Q1139.76 1536.44 1137.57 1537.77 Q1135.4 1539.11 1135.4 1541.79 Q1135.4 1543.82 1136.96 1545 Q1138.52 1546.15 1143.23 1547.2 L1145.24 1547.64 Q1151.48 1548.98 1154.09 1551.43 Q1156.73 1553.85 1156.73 1558.21 Q1156.73 1563.17 1152.78 1566.07 Q1148.87 1568.97 1141.99 1568.97 Q1139.13 1568.97 1136.01 1568.39 Q1132.92 1567.85 1129.48 1566.74 L1129.48 1560.69 Q1132.73 1562.38 1135.88 1563.24 Q1139.03 1564.07 1142.12 1564.07 Q1146.26 1564.07 1148.48 1562.66 Q1150.71 1561.23 1150.71 1558.65 Q1150.71 1556.27 1149.09 1554.99 Q1147.5 1553.72 1142.05 1552.54 L1140.02 1552.07 Q1134.57 1550.92 1132.16 1548.56 Q1129.74 1546.18 1129.74 1542.04 Q1129.74 1537.01 1133.3 1534.27 Q1136.87 1531.54 1143.42 1531.54 Q1146.67 1531.54 1149.53 1532.01 Q1152.4 1532.49 1154.82 1533.45 Z" fill="#000000" fill-rule="nonzero" fill-opacity="1"></path><path clip-path="url(#clip560)" d="M1182.25 1550.12 Q1175.16 1550.12 1172.42 1551.75 Q1169.68 1553.37 1169.68 1557.29 Q1169.68 1560.4 1171.72 1562.25 Q1173.79 1564.07 1177.32 1564.07 Q1182.19 1564.07 1185.12 1560.63 Q1188.08 1557.16 1188.08 1551.43 L1188.08 1550.12 L1182.25 1550.12 M1193.93 1547.71 L1193.93 1568.04 L1188.08 1568.04 L1188.08 1562.63 Q1186.07 1565.88 1183.08 1567.44 Q1180.09 1568.97 1175.76 1568.97 Q1170.29 1568.97 1167.04 1565.91 Q1163.82 1562.82 1163.82 1557.67 Q1163.82 1551.65 1167.84 1548.6 Q1171.88 1545.54 1179.87 1545.54 L1188.08 1545.54 L1188.08 1544.97 Q1188.08 1540.93 1185.4 1538.73 Q1182.76 1536.5 1177.96 1536.5 Q1174.9 1536.5 1172 1537.23 Q1169.11 1537.97 1166.43 1539.43 L1166.43 1534.02 Q1169.65 1532.78 1172.67 1532.17 Q1175.7 1531.54 1178.56 1531.54 Q1186.3 1531.54 1190.12 1535.55 Q1193.93 1539.56 1193.93 1547.71 Z" fill="#000000" fill-rule="nonzero" fill-opacity="1"></path><path clip-path="url(#clip560)" d="M1233.75 1539.24 Q1235.95 1535.29 1239 1533.41 Q1242.06 1531.54 1246.2 1531.54 Q1251.77 1531.54 1254.79 1535.45 Q1257.81 1539.33 1257.81 1546.53 L1257.81 1568.04 L1251.93 1568.04 L1251.93 1546.72 Q1251.93 1541.59 1250.11 1539.11 Q1248.3 1536.63 1244.57 1536.63 Q1240.02 1536.63 1237.38 1539.65 Q1234.74 1542.68 1234.74 1547.9 L1234.74 1568.04 L1228.85 1568.04 L1228.85 1546.72 Q1228.85 1541.56 1227.04 1539.11 Q1225.22 1536.63 1221.43 1536.63 Q1216.95 1536.63 1214.3 1539.68 Q1211.66 1542.71 1211.66 1547.9 L1211.66 1568.04 L1205.77 1568.04 L1205.77 1532.4 L1211.66 1532.4 L1211.66 1537.93 Q1213.67 1534.66 1216.47 1533.1 Q1219.27 1531.54 1223.12 1531.54 Q1227 1531.54 1229.71 1533.51 Q1232.45 1535.48 1233.75 1539.24 Z" fill="#000000" fill-rule="nonzero" fill-opacity="1"></path><path clip-path="url(#clip560)" d="M1275.16 1562.7 L1275.16 1581.6 L1269.27 1581.6 L1269.27 1532.4 L1275.16 1532.4 L1275.16 1537.81 Q1277.01 1534.62 1279.81 1533.1 Q1282.64 1531.54 1286.56 1531.54 Q1293.05 1531.54 1297.09 1536.69 Q1301.16 1541.85 1301.16 1550.25 Q1301.16 1558.65 1297.09 1563.81 Q1293.05 1568.97 1286.56 1568.97 Q1282.64 1568.97 1279.81 1567.44 Q1277.01 1565.88 1275.16 1562.7 M1295.09 1550.25 Q1295.09 1543.79 1292.41 1540.13 Q1289.77 1536.44 1285.12 1536.44 Q1280.48 1536.44 1277.8 1540.13 Q1275.16 1543.79 1275.16 1550.25 Q1275.16 1556.71 1277.8 1560.4 Q1280.48 1564.07 1285.12 1564.07 Q1289.77 1564.07 1292.41 1560.4 Q1295.09 1556.71 1295.09 1550.25 Z" fill="#000000" fill-rule="nonzero" fill-opacity="1"></path><path clip-path="url(#clip560)" d="M1310.87 1518.52 L1316.73 1518.52 L1316.73 1568.04 L1310.87 1568.04 L1310.87 1518.52 Z" fill="#000000" fill-rule="nonzero" fill-opacity="1"></path><path clip-path="url(#clip560)" d="M1359.47 1548.76 L1359.47 1551.62 L1332.55 1551.62 Q1332.93 1557.67 1336.18 1560.85 Q1339.45 1564 1345.28 1564 Q1348.65 1564 1351.8 1563.17 Q1354.99 1562.35 1358.11 1560.69 L1358.11 1566.23 Q1354.96 1567.57 1351.64 1568.27 Q1348.33 1568.97 1344.93 1568.97 Q1336.4 1568.97 1331.4 1564 Q1326.44 1559.04 1326.44 1550.57 Q1326.44 1541.82 1331.15 1536.69 Q1335.89 1531.54 1343.91 1531.54 Q1351.1 1531.54 1355.27 1536.18 Q1359.47 1540.8 1359.47 1548.76 M1353.62 1547.04 Q1353.55 1542.23 1350.91 1539.37 Q1348.3 1536.5 1343.97 1536.5 Q1339.07 1536.5 1336.11 1539.27 Q1333.18 1542.04 1332.74 1547.07 L1353.62 1547.04 Z" fill="#000000" fill-rule="nonzero" fill-opacity="1"></path><path clip-path="url(#clip560)" d="M1391.81 1533.45 L1391.81 1538.98 Q1389.33 1537.71 1386.66 1537.07 Q1383.98 1536.44 1381.12 1536.44 Q1376.76 1536.44 1374.56 1537.77 Q1372.4 1539.11 1372.4 1541.79 Q1372.4 1543.82 1373.96 1545 Q1375.52 1546.15 1380.23 1547.2 L1382.23 1547.64 Q1388.47 1548.98 1391.08 1551.43 Q1393.72 1553.85 1393.72 1558.21 Q1393.72 1563.17 1389.78 1566.07 Q1385.86 1568.97 1378.99 1568.97 Q1376.12 1568.97 1373 1568.39 Q1369.91 1567.85 1366.48 1566.74 L1366.48 1560.69 Q1369.72 1562.38 1372.87 1563.24 Q1376.03 1564.07 1379.11 1564.07 Q1383.25 1564.07 1385.48 1562.66 Q1387.71 1561.23 1387.71 1558.65 Q1387.71 1556.27 1386.08 1554.99 Q1384.49 1553.72 1379.05 1552.54 L1377.01 1552.07 Q1371.57 1550.92 1369.15 1548.56 Q1366.73 1546.18 1366.73 1542.04 Q1366.73 1537.01 1370.3 1534.27 Q1373.86 1531.54 1380.42 1531.54 Q1383.66 1531.54 1386.53 1532.01 Q1389.39 1532.49 1391.81 1533.45 Z" fill="#000000" fill-rule="nonzero" fill-opacity="1"></path><path clip-path="url(#clip560)" d="M1430.13 1578.87 L1430.13 1583.42 L1396.27 1583.42 L1396.27 1578.87 L1430.13 1578.87 Z" fill="#000000" fill-rule="nonzero" fill-opacity="1"></path><path clip-path="url(#clip560)" d="M1435.64 1518.52 L1441.5 1518.52 L1441.5 1568.04 L1435.64 1568.04 L1435.64 1518.52 Z" fill="#000000" fill-rule="nonzero" fill-opacity="1"></path><path clip-path="url(#clip560)" d="M1484.24 1548.76 L1484.24 1551.62 L1457.32 1551.62 Q1457.7 1557.67 1460.94 1560.85 Q1464.22 1564 1470.05 1564 Q1473.42 1564 1476.57 1563.17 Q1479.75 1562.35 1482.87 1560.69 L1482.87 1566.23 Q1479.72 1567.57 1476.41 1568.27 Q1473.1 1568.97 1469.7 1568.97 Q1461.17 1568.97 1456.17 1564 Q1451.2 1559.04 1451.2 1550.57 Q1451.2 1541.82 1455.92 1536.69 Q1460.66 1531.54 1468.68 1531.54 Q1475.87 1531.54 1480.04 1536.18 Q1484.24 1540.8 1484.24 1548.76 M1478.39 1547.04 Q1478.32 1542.23 1475.68 1539.37 Q1473.07 1536.5 1468.74 1536.5 Q1463.84 1536.5 1460.88 1539.27 Q1457.95 1542.04 1457.51 1547.07 L1478.39 1547.04 Z" fill="#000000" fill-rule="nonzero" fill-opacity="1"></path><path clip-path="url(#clip560)" d="M1510.06 1550.12 Q1502.96 1550.12 1500.22 1551.75 Q1497.48 1553.37 1497.48 1557.29 Q1497.48 1560.4 1499.52 1562.25 Q1501.59 1564.07 1505.12 1564.07 Q1509.99 1564.07 1512.92 1560.63 Q1515.88 1557.16 1515.88 1551.43 L1515.88 1550.12 L1510.06 1550.12 M1521.74 1547.71 L1521.74 1568.04 L1515.88 1568.04 L1515.88 1562.63 Q1513.87 1565.88 1510.88 1567.44 Q1507.89 1568.97 1503.56 1568.97 Q1498.09 1568.97 1494.84 1565.91 Q1491.63 1562.82 1491.63 1557.67 Q1491.63 1551.65 1495.64 1548.6 Q1499.68 1545.54 1507.67 1545.54 L1515.88 1545.54 L1515.88 1544.97 Q1515.88 1540.93 1513.21 1538.73 Q1510.56 1536.5 1505.76 1536.5 Q1502.7 1536.5 1499.81 1537.23 Q1496.91 1537.97 1494.24 1539.43 L1494.24 1534.02 Q1497.45 1532.78 1500.48 1532.17 Q1503.5 1531.54 1506.36 1531.54 Q1514.1 1531.54 1517.92 1535.55 Q1521.74 1539.56 1521.74 1547.71 Z" fill="#000000" fill-rule="nonzero" fill-opacity="1"></path><path clip-path="url(#clip560)" d="M1551.85 1518.52 L1551.85 1523.39 L1546.24 1523.39 Q1543.09 1523.39 1541.85 1524.66 Q1540.64 1525.93 1540.64 1529.24 L1540.64 1532.4 L1550.29 1532.4 L1550.29 1536.95 L1540.64 1536.95 L1540.64 1568.04 L1534.75 1568.04 L1534.75 1536.95 L1529.15 1536.95 L1529.15 1532.4 L1534.75 1532.4 L1534.75 1529.91 Q1534.75 1523.96 1537.52 1521.26 Q1540.29 1518.52 1546.31 1518.52 L1551.85 1518.52 Z" fill="#000000" fill-rule="nonzero" fill-opacity="1"></path><polyline clip-path="url(#clip560)" style="stroke:#000000; stroke-linecap:round; stroke-linejoin:round; stroke-width:4; stroke-opacity:1; fill:none" points="175.445,1423.18 175.445,123.472 "></polyline>
<polyline clip-path="url(#clip560)" style="stroke:#000000; stroke-linecap:round; stroke-linejoin:round; stroke-width:4; stroke-opacity:1; fill:none" points="175.445,1200.25 194.343,1200.25 "></polyline>
<polyline clip-path="url(#clip560)" style="stroke:#000000; stroke-linecap:round; stroke-linejoin:round; stroke-width:4; stroke-opacity:1; fill:none" points="175.445,935.418 194.343,935.418 "></polyline>
<polyline clip-path="url(#clip560)" style="stroke:#000000; stroke-linecap:round; stroke-linejoin:round; stroke-width:4; stroke-opacity:1; fill:none" points="175.445,670.585 194.343,670.585 "></polyline>
<polyline clip-path="url(#clip560)" style="stroke:#000000; stroke-linecap:round; stroke-linejoin:round; stroke-width:4; stroke-opacity:1; fill:none" points="175.445,405.752 194.343,405.752 "></polyline>
<polyline clip-path="url(#clip560)" style="stroke:#000000; stroke-linecap:round; stroke-linejoin:round; stroke-width:4; stroke-opacity:1; fill:none" points="175.445,140.919 194.343,140.919 "></polyline>
<path clip-path="url(#clip560)" d="M119.538 1213.6 L127.177 1213.6 L127.177 1187.23 L118.867 1188.9 L118.867 1184.64 L127.13 1182.97 L131.806 1182.97 L131.806 1213.6 L139.445 1213.6 L139.445 1217.53 L119.538 1217.53 L119.538 1213.6 Z" fill="#000000" fill-rule="nonzero" fill-opacity="1"></path><path clip-path="url(#clip560)" d="M123.126 948.763 L139.445 948.763 L139.445 952.698 L117.501 952.698 L117.501 948.763 Q120.163 946.009 124.746 941.379 Q129.353 936.726 130.533 935.384 Q132.779 932.861 133.658 931.124 Q134.561 929.365 134.561 927.675 Q134.561 924.921 132.617 923.185 Q130.695 921.449 127.593 921.449 Q125.394 921.449 122.941 922.212 Q120.51 922.976 117.732 924.527 L117.732 919.805 Q120.556 918.671 123.01 918.092 Q125.464 917.513 127.501 917.513 Q132.871 917.513 136.066 920.199 Q139.26 922.884 139.26 927.374 Q139.26 929.504 138.45 931.425 Q137.663 933.324 135.556 935.916 Q134.978 936.587 131.876 939.805 Q128.774 942.999 123.126 948.763 Z" fill="#000000" fill-rule="nonzero" fill-opacity="1"></path><path clip-path="url(#clip560)" d="M132.316 669.231 Q135.672 669.949 137.547 672.217 Q139.445 674.486 139.445 677.819 Q139.445 682.935 135.927 685.736 Q132.408 688.536 125.927 688.536 Q123.751 688.536 121.436 688.097 Q119.144 687.68 116.691 686.823 L116.691 682.31 Q118.635 683.444 120.95 684.023 Q123.265 684.601 125.788 684.601 Q130.186 684.601 132.478 682.865 Q134.792 681.129 134.792 677.819 Q134.792 674.763 132.64 673.05 Q130.51 671.314 126.691 671.314 L122.663 671.314 L122.663 667.472 L126.876 667.472 Q130.325 667.472 132.154 666.106 Q133.982 664.717 133.982 662.125 Q133.982 659.463 132.084 658.05 Q130.209 656.615 126.691 656.615 Q124.769 656.615 122.57 657.032 Q120.371 657.449 117.732 658.328 L117.732 654.162 Q120.394 653.421 122.709 653.05 Q125.047 652.68 127.107 652.68 Q132.431 652.68 135.533 655.111 Q138.635 657.518 138.635 661.638 Q138.635 664.509 136.992 666.5 Q135.348 668.467 132.316 669.231 Z" fill="#000000" fill-rule="nonzero" fill-opacity="1"></path><path clip-path="url(#clip560)" d="M129.862 392.546 L118.056 410.995 L129.862 410.995 L129.862 392.546 M128.635 388.472 L134.515 388.472 L134.515 410.995 L139.445 410.995 L139.445 414.884 L134.515 414.884 L134.515 423.032 L129.862 423.032 L129.862 414.884 L114.26 414.884 L114.26 410.37 L128.635 388.472 Z" fill="#000000" fill-rule="nonzero" fill-opacity="1"></path><path clip-path="url(#clip560)" d="M118.543 123.639 L136.899 123.639 L136.899 127.574 L122.825 127.574 L122.825 136.046 Q123.843 135.699 124.862 135.537 Q125.88 135.351 126.899 135.351 Q132.686 135.351 136.066 138.523 Q139.445 141.694 139.445 147.111 Q139.445 152.689 135.973 155.791 Q132.501 158.87 126.181 158.87 Q124.005 158.87 121.737 158.499 Q119.492 158.129 117.084 157.388 L117.084 152.689 Q119.168 153.824 121.39 154.379 Q123.612 154.935 126.089 154.935 Q130.093 154.935 132.431 152.828 Q134.769 150.722 134.769 147.111 Q134.769 143.5 132.431 141.393 Q130.093 139.287 126.089 139.287 Q124.214 139.287 122.339 139.703 Q120.487 140.12 118.543 141 L118.543 123.639 Z" fill="#000000" fill-rule="nonzero" fill-opacity="1"></path><path clip-path="url(#clip560)" d="M16.4842 908.597 L16.4842 902.168 L58.5933 902.168 L58.5933 879.029 L64.0042 879.029 L64.0042 908.597 L16.4842 908.597 Z" fill="#000000" fill-rule="nonzero" fill-opacity="1"></path><path clip-path="url(#clip560)" d="M32.4621 859.868 Q32.4621 864.578 36.1542 867.316 Q39.8145 870.053 46.212 870.053 Q52.6095 870.053 56.3017 867.347 Q59.9619 864.61 59.9619 859.868 Q59.9619 855.189 56.2698 852.452 Q52.5777 849.714 46.212 849.714 Q39.8781 849.714 36.186 852.452 Q32.4621 855.189 32.4621 859.868 M27.4968 859.868 Q27.4968 852.229 32.4621 847.868 Q37.4273 843.508 46.212 843.508 Q54.9649 843.508 59.9619 847.868 Q64.9272 852.229 64.9272 859.868 Q64.9272 867.538 59.9619 871.899 Q54.9649 876.228 46.212 876.228 Q37.4273 876.228 32.4621 871.899 Q27.4968 867.538 27.4968 859.868 Z" fill="#000000" fill-rule="nonzero" fill-opacity="1"></path><path clip-path="url(#clip560)" d="M45.7664 810.343 Q39.4007 810.343 35.8996 812.984 Q32.3984 815.594 32.3984 820.337 Q32.3984 825.047 35.8996 827.689 Q39.4007 830.299 45.7664 830.299 Q52.1003 830.299 55.6014 827.689 Q59.1026 825.047 59.1026 820.337 Q59.1026 815.594 55.6014 812.984 Q52.1003 810.343 45.7664 810.343 M59.58 804.486 Q68.683 804.486 73.1071 808.528 Q77.5631 812.571 77.5631 820.91 Q77.5631 823.997 77.0857 826.734 Q76.6401 829.472 75.6852 832.05 L69.9879 832.05 Q71.3884 829.472 72.0568 826.957 Q72.7252 824.443 72.7252 821.833 Q72.7252 816.072 69.7015 813.207 Q66.7096 810.343 60.6303 810.343 L57.7339 810.343 Q60.885 812.157 62.4446 814.99 Q64.0042 817.822 64.0042 821.769 Q64.0042 828.326 59.0071 832.336 Q54.01 836.346 45.7664 836.346 Q37.491 836.346 32.4939 832.336 Q27.4968 828.326 27.4968 821.769 Q27.4968 817.822 29.0564 814.99 Q30.616 812.157 33.7671 810.343 L28.3562 810.343 L28.3562 804.486 L59.58 804.486 Z" fill="#000000" fill-rule="nonzero" fill-opacity="1"></path><path clip-path="url(#clip560)" d="M16.4842 771.448 L16.4842 765.019 L58.5933 765.019 L58.5933 741.879 L64.0042 741.879 L64.0042 771.448 L16.4842 771.448 Z" fill="#000000" fill-rule="nonzero" fill-opacity="1"></path><path clip-path="url(#clip560)" d="M32.4621 722.719 Q32.4621 727.429 36.1542 730.166 Q39.8145 732.904 46.212 732.904 Q52.6095 732.904 56.3017 730.198 Q59.9619 727.461 59.9619 722.719 Q59.9619 718.04 56.2698 715.303 Q52.5777 712.565 46.212 712.565 Q39.8781 712.565 36.186 715.303 Q32.4621 718.04 32.4621 722.719 M27.4968 722.719 Q27.4968 715.08 32.4621 710.719 Q37.4273 706.359 46.212 706.359 Q54.9649 706.359 59.9619 710.719 Q64.9272 715.08 64.9272 722.719 Q64.9272 730.389 59.9619 734.75 Q54.9649 739.078 46.212 739.078 Q37.4273 739.078 32.4621 734.75 Q27.4968 730.389 27.4968 722.719 Z" fill="#000000" fill-rule="nonzero" fill-opacity="1"></path><path clip-path="url(#clip560)" d="M29.4065 673.925 L34.9447 673.925 Q33.6716 676.408 33.035 679.082 Q32.3984 681.755 32.3984 684.62 Q32.3984 688.98 33.7352 691.177 Q35.072 693.341 37.7456 693.341 Q39.7826 693.341 40.9603 691.781 Q42.1061 690.222 43.1565 685.511 L43.6021 683.506 Q44.9389 677.267 47.3897 674.658 Q49.8086 672.016 54.1691 672.016 Q59.1344 672.016 62.0308 675.963 Q64.9272 679.877 64.9272 686.752 Q64.9272 689.617 64.3543 692.736 Q63.8132 695.824 62.6992 699.261 L56.6518 699.261 Q58.3387 696.014 59.198 692.863 Q60.0256 689.712 60.0256 686.625 Q60.0256 682.487 58.6251 680.259 Q57.1929 678.031 54.6147 678.031 Q52.2276 678.031 50.9545 679.655 Q49.6813 681.246 48.5037 686.689 L48.0262 688.726 Q46.8804 694.168 44.5251 696.587 Q42.138 699.006 38.0002 699.006 Q32.9713 699.006 30.2341 695.442 Q27.4968 691.877 27.4968 685.32 Q27.4968 682.074 27.9743 679.209 Q28.4517 676.344 29.4065 673.925 Z" fill="#000000" fill-rule="nonzero" fill-opacity="1"></path><path clip-path="url(#clip560)" d="M29.4065 639.964 L34.9447 639.964 Q33.6716 642.447 33.035 645.121 Q32.3984 647.794 32.3984 650.659 Q32.3984 655.019 33.7352 657.215 Q35.072 659.38 37.7456 659.38 Q39.7826 659.38 40.9603 657.82 Q42.1061 656.261 43.1565 651.55 L43.6021 649.545 Q44.9389 643.306 47.3897 640.696 Q49.8086 638.055 54.1691 638.055 Q59.1344 638.055 62.0308 642.001 Q64.9272 645.916 64.9272 652.791 Q64.9272 655.656 64.3543 658.775 Q63.8132 661.862 62.6992 665.3 L56.6518 665.3 Q58.3387 662.053 59.198 658.902 Q60.0256 655.751 60.0256 652.664 Q60.0256 648.526 58.6251 646.298 Q57.1929 644.07 54.6147 644.07 Q52.2276 644.07 50.9545 645.694 Q49.6813 647.285 48.5037 652.728 L48.0262 654.765 Q46.8804 660.207 44.5251 662.626 Q42.138 665.045 38.0002 665.045 Q32.9713 665.045 30.2341 661.481 Q27.4968 657.916 27.4968 651.359 Q27.4968 648.113 27.9743 645.248 Q28.4517 642.383 29.4065 639.964 Z" fill="#000000" fill-rule="nonzero" fill-opacity="1"></path><path clip-path="url(#clip560)" d="M954.733 12.096 L962.916 12.096 L962.916 65.6895 L992.366 65.6895 L992.366 72.576 L954.733 72.576 L954.733 12.096 Z" fill="#000000" fill-rule="nonzero" fill-opacity="1"></path><path clip-path="url(#clip560)" d="M1037.98 48.0275 L1037.98 51.6733 L1003.71 51.6733 Q1004.19 59.3701 1008.33 63.421 Q1012.5 67.4314 1019.91 67.4314 Q1024.21 67.4314 1028.22 66.3781 Q1032.27 65.3249 1036.24 63.2184 L1036.24 70.267 Q1032.23 71.9684 1028.01 72.8596 Q1023.8 73.7508 1019.47 73.7508 Q1008.61 73.7508 1002.25 67.4314 Q995.931 61.1119 995.931 50.3365 Q995.931 39.1965 1001.93 32.6746 Q1007.96 26.1121 1018.17 26.1121 Q1027.33 26.1121 1032.63 32.0264 Q1037.98 37.9003 1037.98 48.0275 M1030.53 45.84 Q1030.44 39.7232 1027.08 36.0774 Q1023.76 32.4315 1018.25 32.4315 Q1012.01 32.4315 1008.25 35.9558 Q1004.52 39.4801 1003.95 45.8805 L1030.53 45.84 Z" fill="#000000" fill-rule="nonzero" fill-opacity="1"></path><path clip-path="url(#clip560)" d="M1070.83 49.7694 Q1061.8 49.7694 1058.31 51.8354 Q1054.83 53.9013 1054.83 58.8839 Q1054.83 62.8538 1057.42 65.2034 Q1060.06 67.5124 1064.55 67.5124 Q1070.75 67.5124 1074.48 63.1374 Q1078.25 58.7219 1078.25 51.4303 L1078.25 49.7694 L1070.83 49.7694 M1085.7 46.6907 L1085.7 72.576 L1078.25 72.576 L1078.25 65.6895 Q1075.69 69.8214 1071.89 71.8063 Q1068.08 73.7508 1062.57 73.7508 Q1055.6 73.7508 1051.47 69.8619 Q1047.38 65.9325 1047.38 59.3701 Q1047.38 51.7138 1052.48 47.825 Q1057.63 43.9361 1067.79 43.9361 L1078.25 43.9361 L1078.25 43.2069 Q1078.25 38.0623 1074.84 35.2672 Q1071.48 32.4315 1065.36 32.4315 Q1061.47 32.4315 1057.79 33.3632 Q1054.1 34.295 1050.7 36.1584 L1050.7 29.2718 Q1054.79 27.692 1058.64 26.9223 Q1062.49 26.1121 1066.13 26.1121 Q1075.98 26.1121 1080.84 31.2163 Q1085.7 36.3204 1085.7 46.6907 Z" fill="#000000" fill-rule="nonzero" fill-opacity="1"></path><path clip-path="url(#clip560)" d="M1127.34 34.1734 Q1126.09 33.4443 1124.59 33.1202 Q1123.13 32.7556 1121.35 32.7556 Q1115.03 32.7556 1111.62 36.8875 Q1108.26 40.9789 1108.26 48.6757 L1108.26 72.576 L1100.77 72.576 L1100.77 27.2059 L1108.26 27.2059 L1108.26 34.2544 Q1110.61 30.1225 1114.38 28.1376 Q1118.15 26.1121 1123.53 26.1121 Q1124.3 26.1121 1125.24 26.2337 Q1126.17 26.3147 1127.3 26.5172 L1127.34 34.1734 Z" fill="#000000" fill-rule="nonzero" fill-opacity="1"></path><path clip-path="url(#clip560)" d="M1171.42 45.1919 L1171.42 72.576 L1163.96 72.576 L1163.96 45.4349 Q1163.96 38.994 1161.45 35.7938 Q1158.94 32.5936 1153.92 32.5936 Q1147.88 32.5936 1144.4 36.4419 Q1140.91 40.2903 1140.91 46.9338 L1140.91 72.576 L1133.42 72.576 L1133.42 27.2059 L1140.91 27.2059 L1140.91 34.2544 Q1143.59 30.163 1147.19 28.1376 Q1150.84 26.1121 1155.58 26.1121 Q1163.4 26.1121 1167.41 30.9732 Q1171.42 35.7938 1171.42 45.1919 Z" fill="#000000" fill-rule="nonzero" fill-opacity="1"></path><path clip-path="url(#clip560)" d="M1186.28 27.2059 L1193.74 27.2059 L1193.74 72.576 L1186.28 72.576 L1186.28 27.2059 M1186.28 9.54393 L1193.74 9.54393 L1193.74 18.9825 L1186.28 18.9825 L1186.28 9.54393 Z" fill="#000000" fill-rule="nonzero" fill-opacity="1"></path><path clip-path="url(#clip560)" d="M1247.05 45.1919 L1247.05 72.576 L1239.59 72.576 L1239.59 45.4349 Q1239.59 38.994 1237.08 35.7938 Q1234.57 32.5936 1229.55 32.5936 Q1223.51 32.5936 1220.03 36.4419 Q1216.54 40.2903 1216.54 46.9338 L1216.54 72.576 L1209.05 72.576 L1209.05 27.2059 L1216.54 27.2059 L1216.54 34.2544 Q1219.22 30.163 1222.82 28.1376 Q1226.47 26.1121 1231.21 26.1121 Q1239.03 26.1121 1243.04 30.9732 Q1247.05 35.7938 1247.05 45.1919 Z" fill="#000000" fill-rule="nonzero" fill-opacity="1"></path><path clip-path="url(#clip560)" d="M1291.77 49.3643 Q1291.77 41.2625 1288.41 36.8065 Q1285.08 32.3505 1279.05 32.3505 Q1273.05 32.3505 1269.69 36.8065 Q1266.37 41.2625 1266.37 49.3643 Q1266.37 57.4256 1269.69 61.8816 Q1273.05 66.3376 1279.05 66.3376 Q1285.08 66.3376 1288.41 61.8816 Q1291.77 57.4256 1291.77 49.3643 M1299.22 66.9452 Q1299.22 78.5308 1294.08 84.1616 Q1288.93 89.8329 1278.32 89.8329 Q1274.39 89.8329 1270.91 89.2252 Q1267.42 88.6581 1264.14 87.4428 L1264.14 80.1917 Q1267.42 81.9741 1270.62 82.8248 Q1273.82 83.6755 1277.14 83.6755 Q1284.48 83.6755 1288.12 79.8271 Q1291.77 76.0193 1291.77 68.282 L1291.77 64.5957 Q1289.46 68.6061 1285.85 70.5911 Q1282.25 72.576 1277.23 72.576 Q1268.88 72.576 1263.78 66.2161 Q1258.67 59.8562 1258.67 49.3643 Q1258.67 38.832 1263.78 32.472 Q1268.88 26.1121 1277.23 26.1121 Q1282.25 26.1121 1285.85 28.0971 Q1289.46 30.082 1291.77 34.0924 L1291.77 27.2059 L1299.22 27.2059 L1299.22 66.9452 Z" fill="#000000" fill-rule="nonzero" fill-opacity="1"></path><path clip-path="url(#clip560)" d="M1386.56 16.7545 L1386.56 25.383 Q1382.43 21.5346 1377.73 19.6307 Q1373.07 17.7268 1367.8 17.7268 Q1357.43 17.7268 1351.92 24.0867 Q1346.41 30.4061 1346.41 42.3968 Q1346.41 54.3469 1351.92 60.7069 Q1357.43 67.0263 1367.8 67.0263 Q1373.07 67.0263 1377.73 65.1223 Q1382.43 63.2184 1386.56 59.3701 L1386.56 67.9175 Q1382.27 70.8341 1377.44 72.2924 Q1372.66 73.7508 1367.32 73.7508 Q1353.59 73.7508 1345.69 65.3654 Q1337.79 56.9395 1337.79 42.3968 Q1337.79 27.8135 1345.69 19.4281 Q1353.59 11.0023 1367.32 11.0023 Q1372.75 11.0023 1377.53 12.4606 Q1382.35 13.8784 1386.56 16.7545 Z" fill="#000000" fill-rule="nonzero" fill-opacity="1"></path><path clip-path="url(#clip560)" d="M1398.1 54.671 L1398.1 27.2059 L1405.56 27.2059 L1405.56 54.3874 Q1405.56 60.8284 1408.07 64.0691 Q1410.58 67.2693 1415.6 67.2693 Q1421.64 67.2693 1425.12 63.421 Q1428.65 59.5726 1428.65 52.9291 L1428.65 27.2059 L1436.1 27.2059 L1436.1 72.576 L1428.65 72.576 L1428.65 65.6084 Q1425.93 69.7404 1422.33 71.7658 Q1418.76 73.7508 1414.02 73.7508 Q1406.21 73.7508 1402.16 68.8897 Q1398.1 64.0286 1398.1 54.671 M1416.86 26.1121 L1416.86 26.1121 Z" fill="#000000" fill-rule="nonzero" fill-opacity="1"></path><path clip-path="url(#clip560)" d="M1477.75 34.1734 Q1476.49 33.4443 1474.99 33.1202 Q1473.53 32.7556 1471.75 32.7556 Q1465.43 32.7556 1462.03 36.8875 Q1458.67 40.9789 1458.67 48.6757 L1458.67 72.576 L1451.17 72.576 L1451.17 27.2059 L1458.67 27.2059 L1458.67 34.2544 Q1461.02 30.1225 1464.78 28.1376 Q1468.55 26.1121 1473.94 26.1121 Q1474.71 26.1121 1475.64 26.2337 Q1476.57 26.3147 1477.7 26.5172 L1477.75 34.1734 Z" fill="#000000" fill-rule="nonzero" fill-opacity="1"></path><path clip-path="url(#clip560)" d="M1480.22 27.2059 L1488.12 27.2059 L1502.29 65.2844 L1516.47 27.2059 L1524.37 27.2059 L1507.36 72.576 L1497.23 72.576 L1480.22 27.2059 Z" fill="#000000" fill-rule="nonzero" fill-opacity="1"></path><path clip-path="url(#clip560)" d="M1573.47 48.0275 L1573.47 51.6733 L1539.2 51.6733 Q1539.68 59.3701 1543.82 63.421 Q1547.99 67.4314 1555.4 67.4314 Q1559.7 67.4314 1563.71 66.3781 Q1567.76 65.3249 1571.73 63.2184 L1571.73 70.267 Q1567.72 71.9684 1563.5 72.8596 Q1559.29 73.7508 1554.96 73.7508 Q1544.1 73.7508 1537.74 67.4314 Q1531.42 61.1119 1531.42 50.3365 Q1531.42 39.1965 1537.42 32.6746 Q1543.45 26.1121 1553.66 26.1121 Q1562.81 26.1121 1568.12 32.0264 Q1573.47 37.9003 1573.47 48.0275 M1566.01 45.84 Q1565.93 39.7232 1562.57 36.0774 Q1559.25 32.4315 1553.74 32.4315 Q1547.5 32.4315 1543.73 35.9558 Q1540.01 39.4801 1539.44 45.8805 L1566.01 45.84 Z" fill="#000000" fill-rule="nonzero" fill-opacity="1"></path><polyline clip-path="url(#clip562)" style="stroke:#009af9; stroke-linecap:round; stroke-linejoin:round; stroke-width:4; stroke-opacity:1; fill:none" points="237.067,160.256 237.752,578.25 238.437,767.938 239.122,860.926 239.807,902.163 241.177,1012.47 242.547,1090.37 244.601,1113.36 247.341,1143.4 250.766,1188.77 254.875,1218.58 261.039,1271.96 269.258,1309.4 279.532,1352.88 293.23,1367.2 311.038,1366.78 335.01,1373.52 366.517,1365.15 407.612,1386.4 462.405,1384.15 533.636,1379.02 628.155,1370.09 752.81,1290.55 917.19,1285.47 1133.62,1258.57 1419.23,1250.37 1795.25,1250.37 2291.13,1250.37 "></polyline>
<polyline clip-path="url(#clip562)" style="stroke:#e26f46; stroke-linecap:round; stroke-linejoin:round; stroke-width:4; stroke-opacity:1; fill:none" stroke-dasharray="16, 10" points="237.067,1248.32 2291.13,1248.32 "></polyline>
<path clip-path="url(#clip560)" d="M1620.51 322.316 L2280.18 322.316 L2280.18 166.796 L1620.51 166.796  Z" fill="#ffffff" fill-rule="evenodd" fill-opacity="1"></path>
<polyline clip-path="url(#clip560)" style="stroke:#000000; stroke-linecap:round; stroke-linejoin:round; stroke-width:4; stroke-opacity:1; fill:none" points="1620.51,322.316 2280.18,322.316 2280.18,166.796 1620.51,166.796 1620.51,322.316 "></polyline>
<polyline clip-path="url(#clip560)" style="stroke:#009af9; stroke-linecap:round; stroke-linejoin:round; stroke-width:4; stroke-opacity:1; fill:none" points="1644.7,218.636 1789.85,218.636 "></polyline>
<path clip-path="url(#clip560)" d="M1818.72 205.198 L1818.72 232.073 L1824.37 232.073 Q1831.52 232.073 1834.83 228.832 Q1838.16 225.592 1838.16 218.601 Q1838.16 211.657 1834.83 208.439 Q1831.52 205.198 1824.37 205.198 L1818.72 205.198 M1814.04 201.356 L1823.65 201.356 Q1833.7 201.356 1838.4 205.546 Q1843.1 209.712 1843.1 218.601 Q1843.1 227.536 1838.37 231.726 Q1833.65 235.916 1823.65 235.916 L1814.04 235.916 L1814.04 201.356 Z" fill="#000000" fill-rule="nonzero" fill-opacity="1"></path><path clip-path="url(#clip560)" d="M1872.54 221.888 L1872.54 223.971 L1852.96 223.971 Q1853.23 228.369 1855.6 230.684 Q1857.98 232.976 1862.22 232.976 Q1864.67 232.976 1866.96 232.374 Q1869.28 231.772 1871.54 230.569 L1871.54 234.596 Q1869.25 235.568 1866.85 236.078 Q1864.44 236.587 1861.96 236.587 Q1855.76 236.587 1852.12 232.976 Q1848.51 229.365 1848.51 223.207 Q1848.51 216.842 1851.94 213.115 Q1855.39 209.365 1861.22 209.365 Q1866.45 209.365 1869.48 212.745 Q1872.54 216.101 1872.54 221.888 M1868.28 220.638 Q1868.23 217.143 1866.31 215.059 Q1864.41 212.976 1861.27 212.976 Q1857.7 212.976 1855.55 214.99 Q1853.42 217.004 1853.1 220.661 L1868.28 220.638 Z" fill="#000000" fill-rule="nonzero" fill-opacity="1"></path><path clip-path="url(#clip560)" d="M1898.19 210.985 L1898.19 214.967 Q1896.38 213.971 1894.55 213.485 Q1892.75 212.976 1890.9 212.976 Q1886.75 212.976 1884.46 215.615 Q1882.17 218.231 1882.17 222.976 Q1882.17 227.721 1884.46 230.36 Q1886.75 232.976 1890.9 232.976 Q1892.75 232.976 1894.55 232.49 Q1896.38 231.981 1898.19 230.985 L1898.19 234.92 Q1896.41 235.754 1894.48 236.17 Q1892.59 236.587 1890.43 236.587 Q1884.58 236.587 1881.13 232.906 Q1877.68 229.226 1877.68 222.976 Q1877.68 216.633 1881.15 212.999 Q1884.65 209.365 1890.71 209.365 Q1892.68 209.365 1894.55 209.782 Q1896.43 210.175 1898.19 210.985 Z" fill="#000000" fill-rule="nonzero" fill-opacity="1"></path><path clip-path="url(#clip560)" d="M1905.59 209.99 L1909.85 209.99 L1909.85 235.916 L1905.59 235.916 L1905.59 209.99 M1905.59 199.897 L1909.85 199.897 L1909.85 205.291 L1905.59 205.291 L1905.59 199.897 Z" fill="#000000" fill-rule="nonzero" fill-opacity="1"></path><path clip-path="url(#clip560)" d="M1935.29 210.754 L1935.29 214.782 Q1933.49 213.856 1931.54 213.393 Q1929.6 212.93 1927.52 212.93 Q1924.34 212.93 1922.75 213.902 Q1921.17 214.874 1921.17 216.819 Q1921.17 218.3 1922.31 219.157 Q1923.44 219.99 1926.87 220.754 L1928.33 221.078 Q1932.86 222.05 1934.76 223.832 Q1936.68 225.592 1936.68 228.763 Q1936.68 232.374 1933.81 234.481 Q1930.97 236.587 1925.97 236.587 Q1923.88 236.587 1921.61 236.17 Q1919.37 235.777 1916.87 234.967 L1916.87 230.569 Q1919.23 231.795 1921.52 232.42 Q1923.81 233.022 1926.06 233.022 Q1929.07 233.022 1930.69 232.004 Q1932.31 230.962 1932.31 229.087 Q1932.31 227.351 1931.13 226.425 Q1929.97 225.499 1926.01 224.643 L1924.53 224.295 Q1920.57 223.462 1918.81 221.749 Q1917.05 220.013 1917.05 217.004 Q1917.05 213.346 1919.65 211.356 Q1922.24 209.365 1927.01 209.365 Q1929.37 209.365 1931.45 209.712 Q1933.53 210.059 1935.29 210.754 Z" fill="#000000" fill-rule="nonzero" fill-opacity="1"></path><path clip-path="url(#clip560)" d="M1943.47 209.99 L1947.72 209.99 L1947.72 235.916 L1943.47 235.916 L1943.47 209.99 M1943.47 199.897 L1947.72 199.897 L1947.72 205.291 L1943.47 205.291 L1943.47 199.897 Z" fill="#000000" fill-rule="nonzero" fill-opacity="1"></path><path clip-path="url(#clip560)" d="M1966.68 212.976 Q1963.26 212.976 1961.27 215.661 Q1959.28 218.323 1959.28 222.976 Q1959.28 227.629 1961.24 230.314 Q1963.23 232.976 1966.68 232.976 Q1970.09 232.976 1972.08 230.291 Q1974.07 227.606 1974.07 222.976 Q1974.07 218.37 1972.08 215.684 Q1970.09 212.976 1966.68 212.976 M1966.68 209.365 Q1972.24 209.365 1975.41 212.976 Q1978.58 216.587 1978.58 222.976 Q1978.58 229.342 1975.41 232.976 Q1972.24 236.587 1966.68 236.587 Q1961.1 236.587 1957.93 232.976 Q1954.78 229.342 1954.78 222.976 Q1954.78 216.587 1957.93 212.976 Q1961.1 209.365 1966.68 209.365 Z" fill="#000000" fill-rule="nonzero" fill-opacity="1"></path><path clip-path="url(#clip560)" d="M2007.19 220.268 L2007.19 235.916 L2002.93 235.916 L2002.93 220.407 Q2002.93 216.726 2001.5 214.897 Q2000.06 213.069 1997.19 213.069 Q1993.74 213.069 1991.75 215.268 Q1989.76 217.467 1989.76 221.263 L1989.76 235.916 L1985.48 235.916 L1985.48 209.99 L1989.76 209.99 L1989.76 214.018 Q1991.29 211.68 1993.35 210.522 Q1995.43 209.365 1998.14 209.365 Q2002.61 209.365 2004.9 212.143 Q2007.19 214.897 2007.19 220.268 Z" fill="#000000" fill-rule="nonzero" fill-opacity="1"></path><path clip-path="url(#clip560)" d="M2026.15 201.356 L2055.39 201.356 L2055.39 205.291 L2043.12 205.291 L2043.12 235.916 L2038.42 235.916 L2038.42 205.291 L2026.15 205.291 L2026.15 201.356 Z" fill="#000000" fill-rule="nonzero" fill-opacity="1"></path><path clip-path="url(#clip560)" d="M2067.77 213.971 Q2067.05 213.555 2066.2 213.37 Q2065.36 213.161 2064.34 213.161 Q2060.73 213.161 2058.79 215.522 Q2056.87 217.86 2056.87 222.258 L2056.87 235.916 L2052.58 235.916 L2052.58 209.99 L2056.87 209.99 L2056.87 214.018 Q2058.21 211.657 2060.36 210.522 Q2062.52 209.365 2065.59 209.365 Q2066.03 209.365 2066.57 209.434 Q2067.1 209.481 2067.75 209.596 L2067.77 213.971 Z" fill="#000000" fill-rule="nonzero" fill-opacity="1"></path><path clip-path="url(#clip560)" d="M2093.37 221.888 L2093.37 223.971 L2073.79 223.971 Q2074.07 228.369 2076.43 230.684 Q2078.81 232.976 2083.05 232.976 Q2085.5 232.976 2087.79 232.374 Q2090.11 231.772 2092.38 230.569 L2092.38 234.596 Q2090.08 235.568 2087.68 236.078 Q2085.27 236.587 2082.79 236.587 Q2076.59 236.587 2072.96 232.976 Q2069.34 229.365 2069.34 223.207 Q2069.34 216.842 2072.77 213.115 Q2076.22 209.365 2082.05 209.365 Q2087.28 209.365 2090.32 212.745 Q2093.37 216.101 2093.37 221.888 M2089.11 220.638 Q2089.07 217.143 2087.14 215.059 Q2085.25 212.976 2082.1 212.976 Q2078.53 212.976 2076.38 214.99 Q2074.25 217.004 2073.93 220.661 L2089.11 220.638 Z" fill="#000000" fill-rule="nonzero" fill-opacity="1"></path><path clip-path="url(#clip560)" d="M2122.54 221.888 L2122.54 223.971 L2102.95 223.971 Q2103.23 228.369 2105.59 230.684 Q2107.98 232.976 2112.21 232.976 Q2114.67 232.976 2116.96 232.374 Q2119.27 231.772 2121.54 230.569 L2121.54 234.596 Q2119.25 235.568 2116.84 236.078 Q2114.44 236.587 2111.96 236.587 Q2105.76 236.587 2102.12 232.976 Q2098.51 229.365 2098.51 223.207 Q2098.51 216.842 2101.94 213.115 Q2105.39 209.365 2111.22 209.365 Q2116.45 209.365 2119.48 212.745 Q2122.54 216.101 2122.54 221.888 M2118.28 220.638 Q2118.23 217.143 2116.31 215.059 Q2114.41 212.976 2111.27 212.976 Q2107.7 212.976 2105.55 214.99 Q2103.42 217.004 2103.09 220.661 L2118.28 220.638 Z" fill="#000000" fill-rule="nonzero" fill-opacity="1"></path><polyline clip-path="url(#clip560)" style="stroke:#e26f46; stroke-linecap:round; stroke-linejoin:round; stroke-width:4; stroke-opacity:1; fill:none" stroke-dasharray="16, 10" points="1644.7,270.476 1789.85,270.476 "></polyline>
<path clip-path="url(#clip560)" d="M1841.91 255.858 L1841.91 260.788 Q1839.55 258.589 1836.87 257.501 Q1834.21 256.413 1831.2 256.413 Q1825.27 256.413 1822.12 260.048 Q1818.97 263.659 1818.97 270.51 Q1818.97 277.339 1822.12 280.973 Q1825.27 284.584 1831.2 284.584 Q1834.21 284.584 1836.87 283.496 Q1839.55 282.409 1841.91 280.209 L1841.91 285.094 Q1839.46 286.76 1836.71 287.594 Q1833.97 288.427 1830.92 288.427 Q1823.07 288.427 1818.56 283.635 Q1814.04 278.821 1814.04 270.51 Q1814.04 262.177 1818.56 257.386 Q1823.07 252.571 1830.92 252.571 Q1834.02 252.571 1836.75 253.404 Q1839.51 254.214 1841.91 255.858 Z" fill="#000000" fill-rule="nonzero" fill-opacity="1"></path><path clip-path="url(#clip560)" d="M1859 264.816 Q1855.57 264.816 1853.58 267.501 Q1851.59 270.163 1851.59 274.816 Q1851.59 279.469 1853.56 282.154 Q1855.55 284.816 1859 284.816 Q1862.4 284.816 1864.39 282.131 Q1866.38 279.446 1866.38 274.816 Q1866.38 270.21 1864.39 267.524 Q1862.4 264.816 1859 264.816 M1859 261.205 Q1864.55 261.205 1867.72 264.816 Q1870.9 268.427 1870.9 274.816 Q1870.9 281.182 1867.72 284.816 Q1864.55 288.427 1859 288.427 Q1853.42 288.427 1850.25 284.816 Q1847.1 281.182 1847.1 274.816 Q1847.1 268.427 1850.25 264.816 Q1853.42 261.205 1859 261.205 Z" fill="#000000" fill-rule="nonzero" fill-opacity="1"></path><path clip-path="url(#clip560)" d="M1899.51 272.108 L1899.51 287.756 L1895.25 287.756 L1895.25 272.247 Q1895.25 268.566 1893.81 266.737 Q1892.38 264.909 1889.51 264.909 Q1886.06 264.909 1884.07 267.108 Q1882.08 269.307 1882.08 273.103 L1882.08 287.756 L1877.79 287.756 L1877.79 261.83 L1882.08 261.83 L1882.08 265.858 Q1883.6 263.52 1885.66 262.362 Q1887.75 261.205 1890.46 261.205 Q1894.92 261.205 1897.22 263.983 Q1899.51 266.737 1899.51 272.108 Z" fill="#000000" fill-rule="nonzero" fill-opacity="1"></path><path clip-path="url(#clip560)" d="M1924.53 262.594 L1924.53 266.622 Q1922.72 265.696 1920.78 265.233 Q1918.84 264.77 1916.75 264.77 Q1913.58 264.77 1911.98 265.742 Q1910.41 266.714 1910.41 268.659 Q1910.41 270.14 1911.54 270.997 Q1912.68 271.83 1916.1 272.594 L1917.56 272.918 Q1922.1 273.89 1924 275.672 Q1925.92 277.432 1925.92 280.603 Q1925.92 284.214 1923.05 286.321 Q1920.2 288.427 1915.2 288.427 Q1913.12 288.427 1910.85 288.01 Q1908.6 287.617 1906.1 286.807 L1906.1 282.409 Q1908.47 283.635 1910.76 284.26 Q1913.05 284.862 1915.29 284.862 Q1918.3 284.862 1919.92 283.844 Q1921.54 282.802 1921.54 280.927 Q1921.54 279.191 1920.36 278.265 Q1919.21 277.339 1915.25 276.483 L1913.77 276.135 Q1909.81 275.302 1908.05 273.589 Q1906.29 271.853 1906.29 268.844 Q1906.29 265.186 1908.88 263.196 Q1911.47 261.205 1916.24 261.205 Q1918.6 261.205 1920.69 261.552 Q1922.77 261.899 1924.53 262.594 Z" fill="#000000" fill-rule="nonzero" fill-opacity="1"></path><path clip-path="url(#clip560)" d="M1936.91 254.469 L1936.91 261.83 L1945.69 261.83 L1945.69 265.14 L1936.91 265.14 L1936.91 279.214 Q1936.91 282.385 1937.77 283.288 Q1938.65 284.191 1941.31 284.191 L1945.69 284.191 L1945.69 287.756 L1941.31 287.756 Q1936.38 287.756 1934.51 285.927 Q1932.63 284.075 1932.63 279.214 L1932.63 265.14 L1929.51 265.14 L1929.51 261.83 L1932.63 261.83 L1932.63 254.469 L1936.91 254.469 Z" fill="#000000" fill-rule="nonzero" fill-opacity="1"></path><path clip-path="url(#clip560)" d="M1963.07 274.723 Q1957.91 274.723 1955.92 275.904 Q1953.93 277.084 1953.93 279.932 Q1953.93 282.2 1955.41 283.543 Q1956.91 284.862 1959.48 284.862 Q1963.03 284.862 1965.15 282.362 Q1967.31 279.839 1967.31 275.672 L1967.31 274.723 L1963.07 274.723 M1971.57 272.964 L1971.57 287.756 L1967.31 287.756 L1967.31 283.821 Q1965.85 286.182 1963.67 287.316 Q1961.5 288.427 1958.35 288.427 Q1954.37 288.427 1952.01 286.205 Q1949.67 283.959 1949.67 280.209 Q1949.67 275.834 1952.59 273.612 Q1955.53 271.39 1961.34 271.39 L1967.31 271.39 L1967.31 270.973 Q1967.31 268.034 1965.36 266.436 Q1963.44 264.816 1959.95 264.816 Q1957.72 264.816 1955.62 265.348 Q1953.51 265.881 1951.57 266.946 L1951.57 263.01 Q1953.9 262.108 1956.1 261.668 Q1958.3 261.205 1960.39 261.205 Q1966.01 261.205 1968.79 264.122 Q1971.57 267.038 1971.57 272.964 Z" fill="#000000" fill-rule="nonzero" fill-opacity="1"></path><path clip-path="url(#clip560)" d="M2001.89 272.108 L2001.89 287.756 L1997.63 287.756 L1997.63 272.247 Q1997.63 268.566 1996.2 266.737 Q1994.76 264.909 1991.89 264.909 Q1988.44 264.909 1986.45 267.108 Q1984.46 269.307 1984.46 273.103 L1984.46 287.756 L1980.18 287.756 L1980.18 261.83 L1984.46 261.83 L1984.46 265.858 Q1985.99 263.52 1988.05 262.362 Q1990.13 261.205 1992.84 261.205 Q1997.31 261.205 1999.6 263.983 Q2001.89 266.737 2001.89 272.108 Z" fill="#000000" fill-rule="nonzero" fill-opacity="1"></path><path clip-path="url(#clip560)" d="M2014.6 254.469 L2014.6 261.83 L2023.37 261.83 L2023.37 265.14 L2014.6 265.14 L2014.6 279.214 Q2014.6 282.385 2015.46 283.288 Q2016.34 284.191 2019 284.191 L2023.37 284.191 L2023.37 287.756 L2019 287.756 Q2014.07 287.756 2012.19 285.927 Q2010.32 284.075 2010.32 279.214 L2010.32 265.14 L2007.19 265.14 L2007.19 261.83 L2010.32 261.83 L2010.32 254.469 L2014.6 254.469 Z" fill="#000000" fill-rule="nonzero" fill-opacity="1"></path><path clip-path="url(#clip560)" d="M2070.11 255.858 L2070.11 260.788 Q2067.75 258.589 2065.06 257.501 Q2062.4 256.413 2059.39 256.413 Q2053.46 256.413 2050.32 260.048 Q2047.17 263.659 2047.17 270.51 Q2047.17 277.339 2050.32 280.973 Q2053.46 284.584 2059.39 284.584 Q2062.4 284.584 2065.06 283.496 Q2067.75 282.409 2070.11 280.209 L2070.11 285.094 Q2067.65 286.76 2064.9 287.594 Q2062.17 288.427 2059.11 288.427 Q2051.27 288.427 2046.75 283.635 Q2042.24 278.821 2042.24 270.51 Q2042.24 262.177 2046.75 257.386 Q2051.27 252.571 2059.11 252.571 Q2062.21 252.571 2064.95 253.404 Q2067.7 254.214 2070.11 255.858 Z" fill="#000000" fill-rule="nonzero" fill-opacity="1"></path><path clip-path="url(#clip560)" d="M2077.14 251.737 L2081.4 251.737 L2081.4 287.756 L2077.14 287.756 L2077.14 251.737 Z" fill="#000000" fill-rule="nonzero" fill-opacity="1"></path><path clip-path="url(#clip560)" d="M2102.1 274.723 Q2096.94 274.723 2094.95 275.904 Q2092.96 277.084 2092.96 279.932 Q2092.96 282.2 2094.44 283.543 Q2095.94 284.862 2098.51 284.862 Q2102.05 284.862 2104.18 282.362 Q2106.33 279.839 2106.33 275.672 L2106.33 274.723 L2102.1 274.723 M2110.59 272.964 L2110.59 287.756 L2106.33 287.756 L2106.33 283.821 Q2104.88 286.182 2102.7 287.316 Q2100.52 288.427 2097.38 288.427 Q2093.39 288.427 2091.03 286.205 Q2088.7 283.959 2088.7 280.209 Q2088.7 275.834 2091.61 273.612 Q2094.55 271.39 2100.36 271.39 L2106.33 271.39 L2106.33 270.973 Q2106.33 268.034 2104.39 266.436 Q2102.47 264.816 2098.97 264.816 Q2096.75 264.816 2094.64 265.348 Q2092.54 265.881 2090.59 266.946 L2090.59 263.01 Q2092.93 262.108 2095.13 261.668 Q2097.33 261.205 2099.41 261.205 Q2105.04 261.205 2107.82 264.122 Q2110.59 267.038 2110.59 272.964 Z" fill="#000000" fill-rule="nonzero" fill-opacity="1"></path><path clip-path="url(#clip560)" d="M2135.89 262.594 L2135.89 266.622 Q2134.09 265.696 2132.14 265.233 Q2130.2 264.77 2128.12 264.77 Q2124.95 264.77 2123.35 265.742 Q2121.77 266.714 2121.77 268.659 Q2121.77 270.14 2122.91 270.997 Q2124.04 271.83 2127.47 272.594 L2128.93 272.918 Q2133.46 273.89 2135.36 275.672 Q2137.28 277.432 2137.28 280.603 Q2137.28 284.214 2134.41 286.321 Q2131.57 288.427 2126.57 288.427 Q2124.48 288.427 2122.21 288.01 Q2119.97 287.617 2117.47 286.807 L2117.47 282.409 Q2119.83 283.635 2122.12 284.26 Q2124.41 284.862 2126.66 284.862 Q2129.67 284.862 2131.29 283.844 Q2132.91 282.802 2132.91 280.927 Q2132.91 279.191 2131.73 278.265 Q2130.57 277.339 2126.61 276.483 L2125.13 276.135 Q2121.17 275.302 2119.41 273.589 Q2117.65 271.853 2117.65 268.844 Q2117.65 265.186 2120.25 263.196 Q2122.84 261.205 2127.61 261.205 Q2129.97 261.205 2132.05 261.552 Q2134.14 261.899 2135.89 262.594 Z" fill="#000000" fill-rule="nonzero" fill-opacity="1"></path><path clip-path="url(#clip560)" d="M2160.59 262.594 L2160.59 266.622 Q2158.79 265.696 2156.84 265.233 Q2154.9 264.77 2152.82 264.77 Q2149.64 264.77 2148.05 265.742 Q2146.47 266.714 2146.47 268.659 Q2146.47 270.14 2147.61 270.997 Q2148.74 271.83 2152.17 272.594 L2153.63 272.918 Q2158.16 273.89 2160.06 275.672 Q2161.98 277.432 2161.98 280.603 Q2161.98 284.214 2159.11 286.321 Q2156.26 288.427 2151.26 288.427 Q2149.18 288.427 2146.91 288.01 Q2144.67 287.617 2142.17 286.807 L2142.17 282.409 Q2144.53 283.635 2146.82 284.26 Q2149.11 284.862 2151.36 284.862 Q2154.37 284.862 2155.99 283.844 Q2157.61 282.802 2157.61 280.927 Q2157.61 279.191 2156.43 278.265 Q2155.27 277.339 2151.31 276.483 L2149.83 276.135 Q2145.87 275.302 2144.11 273.589 Q2142.35 271.853 2142.35 268.844 Q2142.35 265.186 2144.95 263.196 Q2147.54 261.205 2152.31 261.205 Q2154.67 261.205 2156.75 261.552 Q2158.83 261.899 2160.59 262.594 Z" fill="#000000" fill-rule="nonzero" fill-opacity="1"></path><path clip-path="url(#clip560)" d="M2168.76 261.83 L2173.02 261.83 L2173.02 287.756 L2168.76 287.756 L2168.76 261.83 M2168.76 251.737 L2173.02 251.737 L2173.02 257.131 L2168.76 257.131 L2168.76 251.737 Z" fill="#000000" fill-rule="nonzero" fill-opacity="1"></path><path clip-path="url(#clip560)" d="M2195.06 251.737 L2195.06 255.279 L2190.99 255.279 Q2188.7 255.279 2187.79 256.205 Q2186.91 257.131 2186.91 259.538 L2186.91 261.83 L2193.93 261.83 L2193.93 265.14 L2186.91 265.14 L2186.91 287.756 L2182.63 287.756 L2182.63 265.14 L2178.56 265.14 L2178.56 261.83 L2182.63 261.83 L2182.63 260.024 Q2182.63 255.696 2184.64 253.728 Q2186.66 251.737 2191.03 251.737 L2195.06 251.737 Z" fill="#000000" fill-rule="nonzero" fill-opacity="1"></path><path clip-path="url(#clip560)" d="M2198.63 261.83 L2202.88 261.83 L2202.88 287.756 L2198.63 287.756 L2198.63 261.83 M2198.63 251.737 L2202.88 251.737 L2202.88 257.131 L2198.63 257.131 L2198.63 251.737 Z" fill="#000000" fill-rule="nonzero" fill-opacity="1"></path><path clip-path="url(#clip560)" d="M2233.97 273.728 L2233.97 275.811 L2214.39 275.811 Q2214.67 280.209 2217.03 282.524 Q2219.41 284.816 2223.65 284.816 Q2226.1 284.816 2228.39 284.214 Q2230.71 283.612 2232.98 282.409 L2232.98 286.436 Q2230.69 287.408 2228.28 287.918 Q2225.87 288.427 2223.39 288.427 Q2217.19 288.427 2213.56 284.816 Q2209.95 281.205 2209.95 275.047 Q2209.95 268.682 2213.37 264.955 Q2216.82 261.205 2222.65 261.205 Q2227.88 261.205 2230.92 264.585 Q2233.97 267.941 2233.97 273.728 M2229.71 272.478 Q2229.67 268.983 2227.75 266.899 Q2225.85 264.816 2222.7 264.816 Q2219.13 264.816 2216.98 266.83 Q2214.85 268.844 2214.53 272.501 L2229.71 272.478 Z" fill="#000000" fill-rule="nonzero" fill-opacity="1"></path><path clip-path="url(#clip560)" d="M2255.99 265.811 Q2255.27 265.395 2254.41 265.21 Q2253.58 265.001 2252.56 265.001 Q2248.95 265.001 2247.01 267.362 Q2245.08 269.7 2245.08 274.098 L2245.08 287.756 L2240.8 287.756 L2240.8 261.83 L2245.08 261.83 L2245.08 265.858 Q2246.43 263.497 2248.58 262.362 Q2250.73 261.205 2253.81 261.205 Q2254.25 261.205 2254.78 261.274 Q2255.32 261.321 2255.96 261.436 L2255.99 265.811 Z" fill="#000000" fill-rule="nonzero" fill-opacity="1"></path></svg>