<svg xmlns="http://www.w3.org/2000/svg" xmlns:xlink="http://www.w3.org/1999/xlink" width="600" height="400" viewBox="0 0 2400 1600">
<defs>
  <clipPath id="clip390">
    <rect x="0" y="0" width="2400" height="1600"></rect>
  </clipPath>
</defs>
<path clip-path="url(#clip390)" d="M0 1600 L2400 1600 L2400 0 L0 0  Z" fill="#ffffff" fill-rule="evenodd" fill-opacity="1"></path>
<defs>
  <clipPath id="clip391">
    <rect x="480" y="0" width="1681" height="1600"></rect>
  </clipPath>
</defs>
<path clip-path="url(#clip390)" d="M203.964 1423.18 L2352.76 1423.18 L2352.76 123.472 L203.964 123.472  Z" fill="#ffffff" fill-rule="evenodd" fill-opacity="1"></path>
<defs>
  <clipPath id="clip392">
    <rect x="203" y="123" width="2150" height="1301"></rect>
  </clipPath>
</defs>
<polyline clip-path="url(#clip392)" style="stroke:#000000; stroke-linecap:round; stroke-linejoin:round; stroke-width:2; stroke-opacity:0.1; fill:none" points="264.103,1423.18 264.103,123.472 "></polyline>
<polyline clip-path="url(#clip392)" style="stroke:#000000; stroke-linecap:round; stroke-linejoin:round; stroke-width:2; stroke-opacity:0.1; fill:none" points="940.049,1423.18 940.049,123.472 "></polyline>
<polyline clip-path="url(#clip392)" style="stroke:#000000; stroke-linecap:round; stroke-linejoin:round; stroke-width:2; stroke-opacity:0.1; fill:none" points="1615.99,1423.18 1615.99,123.472 "></polyline>
<polyline clip-path="url(#clip392)" style="stroke:#000000; stroke-linecap:round; stroke-linejoin:round; stroke-width:2; stroke-opacity:0.1; fill:none" points="2291.94,1423.18 2291.94,123.472 "></polyline>
<polyline clip-path="url(#clip392)" style="stroke:#000000; stroke-linecap:round; stroke-linejoin:round; stroke-width:2; stroke-opacity:0.1; fill:none" points="203.964,1399.79 2352.76,1399.79 "></polyline>
<polyline clip-path="url(#clip392)" style="stroke:#000000; stroke-linecap:round; stroke-linejoin:round; stroke-width:2; stroke-opacity:0.1; fill:none" points="203.964,1055.59 2352.76,1055.59 "></polyline>
<polyline clip-path="url(#clip392)" style="stroke:#000000; stroke-linecap:round; stroke-linejoin:round; stroke-width:2; stroke-opacity:0.1; fill:none" points="203.964,711.398 2352.76,711.398 "></polyline>
<polyline clip-path="url(#clip392)" style="stroke:#000000; stroke-linecap:round; stroke-linejoin:round; stroke-width:2; stroke-opacity:0.1; fill:none" points="203.964,367.203 2352.76,367.203 "></polyline>
<polyline clip-path="url(#clip390)" style="stroke:#000000; stroke-linecap:round; stroke-linejoin:round; stroke-width:4; stroke-opacity:1; fill:none" points="203.964,1423.18 2352.76,1423.18 "></polyline>
<polyline clip-path="url(#clip390)" style="stroke:#000000; stroke-linecap:round; stroke-linejoin:round; stroke-width:4; stroke-opacity:1; fill:none" points="264.103,1423.18 264.103,1404.28 "></polyline>
<polyline clip-path="url(#clip390)" style="stroke:#000000; stroke-linecap:round; stroke-linejoin:round; stroke-width:4; stroke-opacity:1; fill:none" points="940.049,1423.18 940.049,1404.28 "></polyline>
<polyline clip-path="url(#clip390)" style="stroke:#000000; stroke-linecap:round; stroke-linejoin:round; stroke-width:4; stroke-opacity:1; fill:none" points="1615.99,1423.18 1615.99,1404.28 "></polyline>
<polyline clip-path="url(#clip390)" style="stroke:#000000; stroke-linecap:round; stroke-linejoin:round; stroke-width:4; stroke-opacity:1; fill:none" points="2291.94,1423.18 2291.94,1404.28 "></polyline>
<path clip-path="url(#clip390)" d="M264.103 1454.1 Q260.491 1454.1 258.663 1457.66 Q256.857 1461.2 256.857 1468.33 Q256.857 1475.44 258.663 1479.01 Q260.491 1482.55 264.103 1482.55 Q267.737 1482.55 269.542 1479.01 Q271.371 1475.44 271.371 1468.33 Q271.371 1461.2 269.542 1457.66 Q267.737 1454.1 264.103 1454.1 M264.103 1450.39 Q269.913 1450.39 272.968 1455 Q276.047 1459.58 276.047 1468.33 Q276.047 1477.06 272.968 1481.67 Q269.913 1486.25 264.103 1486.25 Q258.292 1486.25 255.214 1481.67 Q252.158 1477.06 252.158 1468.33 Q252.158 1459.58 255.214 1455 Q258.292 1450.39 264.103 1450.39 Z" fill="#000000" fill-rule="nonzero" fill-opacity="1"></path><path clip-path="url(#clip390)" d="M884.574 1481.64 L892.213 1481.64 L892.213 1455.28 L883.903 1456.95 L883.903 1452.69 L892.167 1451.02 L896.843 1451.02 L896.843 1481.64 L904.482 1481.64 L904.482 1485.58 L884.574 1485.58 L884.574 1481.64 Z" fill="#000000" fill-rule="nonzero" fill-opacity="1"></path><path clip-path="url(#clip390)" d="M923.926 1454.1 Q920.315 1454.1 918.486 1457.66 Q916.681 1461.2 916.681 1468.33 Q916.681 1475.44 918.486 1479.01 Q920.315 1482.55 923.926 1482.55 Q927.56 1482.55 929.366 1479.01 Q931.195 1475.44 931.195 1468.33 Q931.195 1461.2 929.366 1457.66 Q927.56 1454.1 923.926 1454.1 M923.926 1450.39 Q929.736 1450.39 932.792 1455 Q935.87 1459.58 935.87 1468.33 Q935.87 1477.06 932.792 1481.67 Q929.736 1486.25 923.926 1486.25 Q918.116 1486.25 915.037 1481.67 Q911.982 1477.06 911.982 1468.33 Q911.982 1459.58 915.037 1455 Q918.116 1450.39 923.926 1450.39 Z" fill="#000000" fill-rule="nonzero" fill-opacity="1"></path><path clip-path="url(#clip390)" d="M954.088 1454.1 Q950.477 1454.1 948.648 1457.66 Q946.843 1461.2 946.843 1468.33 Q946.843 1475.44 948.648 1479.01 Q950.477 1482.55 954.088 1482.55 Q957.722 1482.55 959.528 1479.01 Q961.356 1475.44 961.356 1468.33 Q961.356 1461.2 959.528 1457.66 Q957.722 1454.1 954.088 1454.1 M954.088 1450.39 Q959.898 1450.39 962.954 1455 Q966.032 1459.58 966.032 1468.33 Q966.032 1477.06 962.954 1481.67 Q959.898 1486.25 954.088 1486.25 Q948.278 1486.25 945.199 1481.67 Q942.144 1477.06 942.144 1468.33 Q942.144 1459.58 945.199 1455 Q948.278 1450.39 954.088 1450.39 Z" fill="#000000" fill-rule="nonzero" fill-opacity="1"></path><path clip-path="url(#clip390)" d="M984.25 1454.1 Q980.639 1454.1 978.81 1457.66 Q977.004 1461.2 977.004 1468.33 Q977.004 1475.44 978.81 1479.01 Q980.639 1482.55 984.25 1482.55 Q987.884 1482.55 989.69 1479.01 Q991.518 1475.44 991.518 1468.33 Q991.518 1461.2 989.69 1457.66 Q987.884 1454.1 984.25 1454.1 M984.25 1450.39 Q990.06 1450.39 993.116 1455 Q996.194 1459.58 996.194 1468.33 Q996.194 1477.06 993.116 1481.67 Q990.06 1486.25 984.25 1486.25 Q978.44 1486.25 975.361 1481.67 Q972.305 1477.06 972.305 1468.33 Q972.305 1459.58 975.361 1455 Q978.44 1450.39 984.25 1450.39 Z" fill="#000000" fill-rule="nonzero" fill-opacity="1"></path><path clip-path="url(#clip390)" d="M1564.61 1481.64 L1580.93 1481.64 L1580.93 1485.58 L1558.98 1485.58 L1558.98 1481.64 Q1561.64 1478.89 1566.23 1474.26 Q1570.83 1469.61 1572.01 1468.27 Q1574.26 1465.74 1575.14 1464.01 Q1576.04 1462.25 1576.04 1460.56 Q1576.04 1457.8 1574.1 1456.07 Q1572.18 1454.33 1569.07 1454.33 Q1566.87 1454.33 1564.42 1455.09 Q1561.99 1455.86 1559.21 1457.41 L1559.21 1452.69 Q1562.04 1451.55 1564.49 1450.97 Q1566.94 1450.39 1568.98 1450.39 Q1574.35 1450.39 1577.55 1453.08 Q1580.74 1455.77 1580.74 1460.26 Q1580.74 1462.39 1579.93 1464.31 Q1579.14 1466.2 1577.04 1468.8 Q1576.46 1469.47 1573.36 1472.69 Q1570.25 1475.88 1564.61 1481.64 Z" fill="#000000" fill-rule="nonzero" fill-opacity="1"></path><path clip-path="url(#clip390)" d="M1600.74 1454.1 Q1597.13 1454.1 1595.3 1457.66 Q1593.49 1461.2 1593.49 1468.33 Q1593.49 1475.44 1595.3 1479.01 Q1597.13 1482.55 1600.74 1482.55 Q1604.37 1482.55 1606.18 1479.01 Q1608.01 1475.44 1608.01 1468.33 Q1608.01 1461.2 1606.18 1457.66 Q1604.37 1454.1 1600.74 1454.1 M1600.74 1450.39 Q1606.55 1450.39 1609.61 1455 Q1612.68 1459.58 1612.68 1468.33 Q1612.68 1477.06 1609.61 1481.67 Q1606.55 1486.25 1600.74 1486.25 Q1594.93 1486.25 1591.85 1481.67 Q1588.8 1477.06 1588.8 1468.33 Q1588.8 1459.58 1591.85 1455 Q1594.93 1450.39 1600.74 1450.39 Z" fill="#000000" fill-rule="nonzero" fill-opacity="1"></path><path clip-path="url(#clip390)" d="M1630.9 1454.1 Q1627.29 1454.1 1625.46 1457.66 Q1623.66 1461.2 1623.66 1468.33 Q1623.66 1475.44 1625.46 1479.01 Q1627.29 1482.55 1630.9 1482.55 Q1634.54 1482.55 1636.34 1479.01 Q1638.17 1475.44 1638.17 1468.33 Q1638.17 1461.2 1636.34 1457.66 Q1634.54 1454.1 1630.9 1454.1 M1630.9 1450.39 Q1636.71 1450.39 1639.77 1455 Q1642.85 1459.58 1642.85 1468.33 Q1642.85 1477.06 1639.77 1481.67 Q1636.71 1486.25 1630.9 1486.25 Q1625.09 1486.25 1622.01 1481.67 Q1618.96 1477.06 1618.96 1468.33 Q1618.96 1459.58 1622.01 1455 Q1625.09 1450.39 1630.9 1450.39 Z" fill="#000000" fill-rule="nonzero" fill-opacity="1"></path><path clip-path="url(#clip390)" d="M1661.06 1454.1 Q1657.45 1454.1 1655.62 1457.66 Q1653.82 1461.2 1653.82 1468.33 Q1653.82 1475.44 1655.62 1479.01 Q1657.45 1482.55 1661.06 1482.55 Q1664.7 1482.55 1666.5 1479.01 Q1668.33 1475.44 1668.33 1468.33 Q1668.33 1461.2 1666.5 1457.66 Q1664.7 1454.1 1661.06 1454.1 M1661.06 1450.39 Q1666.87 1450.39 1669.93 1455 Q1673.01 1459.58 1673.01 1468.33 Q1673.01 1477.06 1669.93 1481.67 Q1666.87 1486.25 1661.06 1486.25 Q1655.25 1486.25 1652.18 1481.67 Q1649.12 1477.06 1649.12 1468.33 Q1649.12 1459.58 1652.18 1455 Q1655.25 1450.39 1661.06 1450.39 Z" fill="#000000" fill-rule="nonzero" fill-opacity="1"></path><path clip-path="url(#clip390)" d="M2250.62 1466.95 Q2253.98 1467.66 2255.85 1469.93 Q2257.75 1472.2 2257.75 1475.53 Q2257.75 1480.65 2254.23 1483.45 Q2250.71 1486.25 2244.23 1486.25 Q2242.06 1486.25 2239.74 1485.81 Q2237.45 1485.39 2235 1484.54 L2235 1480.02 Q2236.94 1481.16 2239.26 1481.74 Q2241.57 1482.32 2244.09 1482.32 Q2248.49 1482.32 2250.78 1480.58 Q2253.1 1478.84 2253.1 1475.53 Q2253.1 1472.48 2250.95 1470.77 Q2248.82 1469.03 2245 1469.03 L2240.97 1469.03 L2240.97 1465.19 L2245.18 1465.19 Q2248.63 1465.19 2250.46 1463.82 Q2252.29 1462.43 2252.29 1459.84 Q2252.29 1457.18 2250.39 1455.77 Q2248.52 1454.33 2245 1454.33 Q2243.08 1454.33 2240.88 1454.75 Q2238.68 1455.16 2236.04 1456.04 L2236.04 1451.88 Q2238.7 1451.14 2241.02 1450.77 Q2243.35 1450.39 2245.41 1450.39 Q2250.74 1450.39 2253.84 1452.83 Q2256.94 1455.23 2256.94 1459.35 Q2256.94 1462.22 2255.3 1464.21 Q2253.65 1466.18 2250.62 1466.95 Z" fill="#000000" fill-rule="nonzero" fill-opacity="1"></path><path clip-path="url(#clip390)" d="M2276.62 1454.1 Q2273.01 1454.1 2271.18 1457.66 Q2269.37 1461.2 2269.37 1468.33 Q2269.37 1475.44 2271.18 1479.01 Q2273.01 1482.55 2276.62 1482.55 Q2280.25 1482.55 2282.06 1479.01 Q2283.89 1475.44 2283.89 1468.33 Q2283.89 1461.2 2282.06 1457.66 Q2280.25 1454.1 2276.62 1454.1 M2276.62 1450.39 Q2282.43 1450.39 2285.48 1455 Q2288.56 1459.58 2288.56 1468.33 Q2288.56 1477.06 2285.48 1481.67 Q2282.43 1486.25 2276.62 1486.25 Q2270.81 1486.25 2267.73 1481.67 Q2264.67 1477.06 2264.67 1468.33 Q2264.67 1459.58 2267.73 1455 Q2270.81 1450.39 2276.62 1450.39 Z" fill="#000000" fill-rule="nonzero" fill-opacity="1"></path><path clip-path="url(#clip390)" d="M2306.78 1454.1 Q2303.17 1454.1 2301.34 1457.66 Q2299.53 1461.2 2299.53 1468.33 Q2299.53 1475.44 2301.34 1479.01 Q2303.17 1482.55 2306.78 1482.55 Q2310.41 1482.55 2312.22 1479.01 Q2314.05 1475.44 2314.05 1468.33 Q2314.05 1461.2 2312.22 1457.66 Q2310.41 1454.1 2306.78 1454.1 M2306.78 1450.39 Q2312.59 1450.39 2315.64 1455 Q2318.72 1459.58 2318.72 1468.33 Q2318.72 1477.06 2315.64 1481.67 Q2312.59 1486.25 2306.78 1486.25 Q2300.97 1486.25 2297.89 1481.67 Q2294.83 1477.06 2294.83 1468.33 Q2294.83 1459.58 2297.89 1455 Q2300.97 1450.39 2306.78 1450.39 Z" fill="#000000" fill-rule="nonzero" fill-opacity="1"></path><path clip-path="url(#clip390)" d="M2336.94 1454.1 Q2333.33 1454.1 2331.5 1457.66 Q2329.7 1461.2 2329.7 1468.33 Q2329.7 1475.44 2331.5 1479.01 Q2333.33 1482.55 2336.94 1482.55 Q2340.58 1482.55 2342.38 1479.01 Q2344.21 1475.44 2344.21 1468.33 Q2344.21 1461.2 2342.38 1457.66 Q2340.58 1454.1 2336.94 1454.1 M2336.94 1450.39 Q2342.75 1450.39 2345.81 1455 Q2348.89 1459.58 2348.89 1468.33 Q2348.89 1477.06 2345.81 1481.67 Q2342.75 1486.25 2336.94 1486.25 Q2331.13 1486.25 2328.05 1481.67 Q2325 1477.06 2325 1468.33 Q2325 1459.58 2328.05 1455 Q2331.13 1450.39 2336.94 1450.39 Z" fill="#000000" fill-rule="nonzero" fill-opacity="1"></path><path clip-path="url(#clip390)" d="M1198.55 1548.76 L1198.55 1551.62 L1171.62 1551.62 Q1172 1557.67 1175.25 1560.85 Q1178.53 1564 1184.35 1564 Q1187.73 1564 1190.88 1563.17 Q1194.06 1562.35 1197.18 1560.69 L1197.18 1566.23 Q1194.03 1567.57 1190.72 1568.27 Q1187.41 1568.97 1184 1568.97 Q1175.47 1568.97 1170.48 1564 Q1165.51 1559.04 1165.51 1550.57 Q1165.51 1541.82 1170.22 1536.69 Q1174.96 1531.54 1182.99 1531.54 Q1190.18 1531.54 1194.35 1536.18 Q1198.55 1540.8 1198.55 1548.76 M1192.69 1547.04 Q1192.63 1542.23 1189.99 1539.37 Q1187.38 1536.5 1183.05 1536.5 Q1178.15 1536.5 1175.19 1539.27 Q1172.26 1542.04 1171.81 1547.07 L1192.69 1547.04 Z" fill="#000000" fill-rule="nonzero" fill-opacity="1"></path><path clip-path="url(#clip390)" d="M1213.83 1562.7 L1213.83 1581.6 L1207.94 1581.6 L1207.94 1532.4 L1213.83 1532.4 L1213.83 1537.81 Q1215.67 1534.62 1218.47 1533.1 Q1221.31 1531.54 1225.22 1531.54 Q1231.72 1531.54 1235.76 1536.69 Q1239.83 1541.85 1239.83 1550.25 Q1239.83 1558.65 1235.76 1563.81 Q1231.72 1568.97 1225.22 1568.97 Q1221.31 1568.97 1218.47 1567.44 Q1215.67 1565.88 1213.83 1562.7 M1233.75 1550.25 Q1233.75 1543.79 1231.08 1540.13 Q1228.44 1536.44 1223.79 1536.44 Q1219.14 1536.44 1216.47 1540.13 Q1213.83 1543.79 1213.83 1550.25 Q1213.83 1556.71 1216.47 1560.4 Q1219.14 1564.07 1223.79 1564.07 Q1228.44 1564.07 1231.08 1560.4 Q1233.75 1556.71 1233.75 1550.25 Z" fill="#000000" fill-rule="nonzero" fill-opacity="1"></path><path clip-path="url(#clip390)" d="M1263.35 1536.5 Q1258.64 1536.5 1255.9 1540.19 Q1253.17 1543.85 1253.17 1550.25 Q1253.17 1556.65 1255.87 1560.34 Q1258.61 1564 1263.35 1564 Q1268.03 1564 1270.77 1560.31 Q1273.51 1556.62 1273.51 1550.25 Q1273.51 1543.92 1270.77 1540.23 Q1268.03 1536.5 1263.35 1536.5 M1263.35 1531.54 Q1270.99 1531.54 1275.35 1536.5 Q1279.71 1541.47 1279.71 1550.25 Q1279.71 1559 1275.35 1564 Q1270.99 1568.97 1263.35 1568.97 Q1255.68 1568.97 1251.32 1564 Q1246.99 1559 1246.99 1550.25 Q1246.99 1541.47 1251.32 1536.5 Q1255.68 1531.54 1263.35 1531.54 Z" fill="#000000" fill-rule="nonzero" fill-opacity="1"></path><path clip-path="url(#clip390)" d="M1315.07 1533.76 L1315.07 1539.24 Q1312.59 1537.87 1310.08 1537.2 Q1307.59 1536.5 1305.05 1536.5 Q1299.35 1536.5 1296.2 1540.13 Q1293.05 1543.73 1293.05 1550.25 Q1293.05 1556.78 1296.2 1560.4 Q1299.35 1564 1305.05 1564 Q1307.59 1564 1310.08 1563.33 Q1312.59 1562.63 1315.07 1561.26 L1315.07 1566.68 Q1312.62 1567.82 1309.98 1568.39 Q1307.37 1568.97 1304.41 1568.97 Q1296.36 1568.97 1291.62 1563.91 Q1286.87 1558.85 1286.87 1550.25 Q1286.87 1541.53 1291.65 1536.53 Q1296.45 1531.54 1304.79 1531.54 Q1307.5 1531.54 1310.08 1532.11 Q1312.65 1532.65 1315.07 1533.76 Z" fill="#000000" fill-rule="nonzero" fill-opacity="1"></path><path clip-path="url(#clip390)" d="M1354.89 1546.53 L1354.89 1568.04 L1349.03 1568.04 L1349.03 1546.72 Q1349.03 1541.66 1347.06 1539.14 Q1345.09 1536.63 1341.14 1536.63 Q1336.4 1536.63 1333.66 1539.65 Q1330.92 1542.68 1330.92 1547.9 L1330.92 1568.04 L1325.04 1568.04 L1325.04 1518.52 L1330.92 1518.52 L1330.92 1537.93 Q1333.03 1534.72 1335.86 1533.13 Q1338.72 1531.54 1342.45 1531.54 Q1348.59 1531.54 1351.74 1535.36 Q1354.89 1539.14 1354.89 1546.53 Z" fill="#000000" fill-rule="nonzero" fill-opacity="1"></path><path clip-path="url(#clip390)" d="M1389.3 1533.45 L1389.3 1538.98 Q1386.82 1537.71 1384.14 1537.07 Q1381.47 1536.44 1378.6 1536.44 Q1374.24 1536.44 1372.05 1537.77 Q1369.88 1539.11 1369.88 1541.79 Q1369.88 1543.82 1371.44 1545 Q1373 1546.15 1377.71 1547.2 L1379.72 1547.64 Q1385.96 1548.98 1388.57 1551.43 Q1391.21 1553.85 1391.21 1558.21 Q1391.21 1563.17 1387.26 1566.07 Q1383.35 1568.97 1376.47 1568.97 Q1373.61 1568.97 1370.49 1568.39 Q1367.4 1567.85 1363.96 1566.74 L1363.96 1560.69 Q1367.21 1562.38 1370.36 1563.24 Q1373.51 1564.07 1376.6 1564.07 Q1380.74 1564.07 1382.96 1562.66 Q1385.19 1561.23 1385.19 1558.65 Q1385.19 1556.27 1383.57 1554.99 Q1381.98 1553.72 1376.53 1552.54 L1374.5 1552.07 Q1369.06 1550.92 1366.64 1548.56 Q1364.22 1546.18 1364.22 1542.04 Q1364.22 1537.01 1367.78 1534.27 Q1371.35 1531.54 1377.9 1531.54 Q1381.15 1531.54 1384.01 1532.01 Q1386.88 1532.49 1389.3 1533.45 Z" fill="#000000" fill-rule="nonzero" fill-opacity="1"></path><polyline clip-path="url(#clip390)" style="stroke:#000000; stroke-linecap:round; stroke-linejoin:round; stroke-width:4; stroke-opacity:1; fill:none" points="203.964,1423.18 203.964,123.472 "></polyline>
<polyline clip-path="url(#clip390)" style="stroke:#000000; stroke-linecap:round; stroke-linejoin:round; stroke-width:4; stroke-opacity:1; fill:none" points="203.964,1399.79 222.861,1399.79 "></polyline>
<polyline clip-path="url(#clip390)" style="stroke:#000000; stroke-linecap:round; stroke-linejoin:round; stroke-width:4; stroke-opacity:1; fill:none" points="203.964,1055.59 222.861,1055.59 "></polyline>
<polyline clip-path="url(#clip390)" style="stroke:#000000; stroke-linecap:round; stroke-linejoin:round; stroke-width:4; stroke-opacity:1; fill:none" points="203.964,711.398 222.861,711.398 "></polyline>
<polyline clip-path="url(#clip390)" style="stroke:#000000; stroke-linecap:round; stroke-linejoin:round; stroke-width:4; stroke-opacity:1; fill:none" points="203.964,367.203 222.861,367.203 "></polyline>
<path clip-path="url(#clip390)" d="M156.019 1385.59 Q152.408 1385.59 150.579 1389.15 Q148.774 1392.69 148.774 1399.82 Q148.774 1406.93 150.579 1410.49 Q152.408 1414.03 156.019 1414.03 Q159.653 1414.03 161.459 1410.49 Q163.288 1406.93 163.288 1399.82 Q163.288 1392.69 161.459 1389.15 Q159.653 1385.59 156.019 1385.59 M156.019 1381.88 Q161.829 1381.88 164.885 1386.49 Q167.964 1391.07 167.964 1399.82 Q167.964 1408.55 164.885 1413.16 Q161.829 1417.74 156.019 1417.74 Q150.209 1417.74 147.13 1413.16 Q144.075 1408.55 144.075 1399.82 Q144.075 1391.07 147.13 1386.49 Q150.209 1381.88 156.019 1381.88 Z" fill="#000000" fill-rule="nonzero" fill-opacity="1"></path><path clip-path="url(#clip390)" d="M116.668 1068.94 L124.306 1068.94 L124.306 1042.57 L115.996 1044.24 L115.996 1039.98 L124.26 1038.31 L128.936 1038.31 L128.936 1068.94 L136.575 1068.94 L136.575 1072.87 L116.668 1072.87 L116.668 1068.94 Z" fill="#000000" fill-rule="nonzero" fill-opacity="1"></path><path clip-path="url(#clip390)" d="M156.019 1041.39 Q152.408 1041.39 150.579 1044.96 Q148.774 1048.5 148.774 1055.63 Q148.774 1062.73 150.579 1066.3 Q152.408 1069.84 156.019 1069.84 Q159.653 1069.84 161.459 1066.3 Q163.288 1062.73 163.288 1055.63 Q163.288 1048.5 161.459 1044.96 Q159.653 1041.39 156.019 1041.39 M156.019 1037.69 Q161.829 1037.69 164.885 1042.29 Q167.964 1046.88 167.964 1055.63 Q167.964 1064.35 164.885 1068.96 Q161.829 1073.54 156.019 1073.54 Q150.209 1073.54 147.13 1068.96 Q144.075 1064.35 144.075 1055.63 Q144.075 1046.88 147.13 1042.29 Q150.209 1037.69 156.019 1037.69 Z" fill="#000000" fill-rule="nonzero" fill-opacity="1"></path><path clip-path="url(#clip390)" d="M119.885 724.742 L136.204 724.742 L136.204 728.678 L114.26 728.678 L114.26 724.742 Q116.922 721.988 121.505 717.358 Q126.112 712.705 127.292 711.363 Q129.538 708.84 130.417 707.104 Q131.32 705.344 131.32 703.655 Q131.32 700.9 129.376 699.164 Q127.455 697.428 124.353 697.428 Q122.154 697.428 119.7 698.192 Q117.269 698.955 114.492 700.506 L114.492 695.784 Q117.316 694.65 119.769 694.071 Q122.223 693.493 124.26 693.493 Q129.63 693.493 132.825 696.178 Q136.019 698.863 136.019 703.354 Q136.019 705.483 135.209 707.404 Q134.422 709.303 132.316 711.895 Q131.737 712.566 128.635 715.784 Q125.533 718.978 119.885 724.742 Z" fill="#000000" fill-rule="nonzero" fill-opacity="1"></path><path clip-path="url(#clip390)" d="M156.019 697.196 Q152.408 697.196 150.579 700.761 Q148.774 704.303 148.774 711.432 Q148.774 718.539 150.579 722.103 Q152.408 725.645 156.019 725.645 Q159.653 725.645 161.459 722.103 Q163.288 718.539 163.288 711.432 Q163.288 704.303 161.459 700.761 Q159.653 697.196 156.019 697.196 M156.019 693.493 Q161.829 693.493 164.885 698.099 Q167.964 702.682 167.964 711.432 Q167.964 720.159 164.885 724.766 Q161.829 729.349 156.019 729.349 Q150.209 729.349 147.13 724.766 Q144.075 720.159 144.075 711.432 Q144.075 702.682 147.13 698.099 Q150.209 693.493 156.019 693.493 Z" fill="#000000" fill-rule="nonzero" fill-opacity="1"></path><path clip-path="url(#clip390)" d="M130.024 365.848 Q133.38 366.566 135.255 368.835 Q137.154 371.103 137.154 374.436 Q137.154 379.552 133.635 382.353 Q130.117 385.154 123.635 385.154 Q121.459 385.154 119.144 384.714 Q116.853 384.297 114.399 383.441 L114.399 378.927 Q116.343 380.061 118.658 380.64 Q120.973 381.219 123.496 381.219 Q127.894 381.219 130.186 379.483 Q132.501 377.747 132.501 374.436 Q132.501 371.381 130.348 369.668 Q128.218 367.932 124.399 367.932 L120.371 367.932 L120.371 364.089 L124.584 364.089 Q128.033 364.089 129.862 362.723 Q131.691 361.335 131.691 358.742 Q131.691 356.08 129.792 354.668 Q127.917 353.233 124.399 353.233 Q122.478 353.233 120.279 353.649 Q118.08 354.066 115.441 354.946 L115.441 350.779 Q118.103 350.038 120.418 349.668 Q122.755 349.298 124.816 349.298 Q130.14 349.298 133.242 351.728 Q136.343 354.136 136.343 358.256 Q136.343 361.126 134.7 363.117 Q133.056 365.085 130.024 365.848 Z" fill="#000000" fill-rule="nonzero" fill-opacity="1"></path><path clip-path="url(#clip390)" d="M156.019 353.001 Q152.408 353.001 150.579 356.566 Q148.774 360.108 148.774 367.237 Q148.774 374.344 150.579 377.909 Q152.408 381.45 156.019 381.45 Q159.653 381.45 161.459 377.909 Q163.288 374.344 163.288 367.237 Q163.288 360.108 161.459 356.566 Q159.653 353.001 156.019 353.001 M156.019 349.298 Q161.829 349.298 164.885 353.904 Q167.964 358.487 167.964 367.237 Q167.964 375.964 164.885 380.571 Q161.829 385.154 156.019 385.154 Q150.209 385.154 147.13 380.571 Q144.075 375.964 144.075 367.237 Q144.075 358.487 147.13 353.904 Q150.209 349.298 156.019 349.298 Z" fill="#000000" fill-rule="nonzero" fill-opacity="1"></path><path clip-path="url(#clip390)" d="M16.4842 908.597 L16.4842 902.168 L58.5933 902.168 L58.5933 879.029 L64.0042 879.029 L64.0042 908.597 L16.4842 908.597 Z" fill="#000000" fill-rule="nonzero" fill-opacity="1"></path><path clip-path="url(#clip390)" d="M32.4621 859.868 Q32.4621 864.578 36.1542 867.316 Q39.8145 870.053 46.212 870.053 Q52.6095 870.053 56.3017 867.347 Q59.9619 864.61 59.9619 859.868 Q59.9619 855.189 56.2698 852.452 Q52.5777 849.714 46.212 849.714 Q39.8781 849.714 36.186 852.452 Q32.4621 855.189 32.4621 859.868 M27.4968 859.868 Q27.4968 852.229 32.4621 847.868 Q37.4273 843.508 46.212 843.508 Q54.9649 843.508 59.9619 847.868 Q64.9272 852.229 64.9272 859.868 Q64.9272 867.538 59.9619 871.899 Q54.9649 876.228 46.212 876.228 Q37.4273 876.228 32.4621 871.899 Q27.4968 867.538 27.4968 859.868 Z" fill="#000000" fill-rule="nonzero" fill-opacity="1"></path><path clip-path="url(#clip390)" d="M45.7664 810.343 Q39.4007 810.343 35.8996 812.984 Q32.3984 815.594 32.3984 820.337 Q32.3984 825.047 35.8996 827.689 Q39.4007 830.299 45.7664 830.299 Q52.1003 830.299 55.6014 827.689 Q59.1026 825.047 59.1026 820.337 Q59.1026 815.594 55.6014 812.984 Q52.1003 810.343 45.7664 810.343 M59.58 804.486 Q68.683 804.486 73.1071 808.528 Q77.5631 812.571 77.5631 820.91 Q77.5631 823.997 77.0857 826.734 Q76.6401 829.472 75.6852 832.05 L69.9879 832.05 Q71.3884 829.472 72.0568 826.957 Q72.7252 824.443 72.7252 821.833 Q72.7252 816.072 69.7015 813.207 Q66.7096 810.343 60.6303 810.343 L57.7339 810.343 Q60.885 812.157 62.4446 814.99 Q64.0042 817.822 64.0042 821.769 Q64.0042 828.326 59.0071 832.336 Q54.01 836.346 45.7664 836.346 Q37.491 836.346 32.4939 832.336 Q27.4968 828.326 27.4968 821.769 Q27.4968 817.822 29.0564 814.99 Q30.616 812.157 33.7671 810.343 L28.3562 810.343 L28.3562 804.486 L59.58 804.486 Z" fill="#000000" fill-rule="nonzero" fill-opacity="1"></path><path clip-path="url(#clip390)" d="M16.4842 771.448 L16.4842 765.019 L58.5933 765.019 L58.5933 741.879 L64.0042 741.879 L64.0042 771.448 L16.4842 771.448 Z" fill="#000000" fill-rule="nonzero" fill-opacity="1"></path><path clip-path="url(#clip390)" d="M32.4621 722.719 Q32.4621 727.429 36.1542 730.166 Q39.8145 732.904 46.212 732.904 Q52.6095 732.904 56.3017 730.198 Q59.9619 727.461 59.9619 722.719 Q59.9619 718.04 56.2698 715.303 Q52.5777 712.565 46.212 712.565 Q39.8781 712.565 36.186 715.303 Q32.4621 718.04 32.4621 722.719 M27.4968 722.719 Q27.4968 715.08 32.4621 710.719 Q37.4273 706.359 46.212 706.359 Q54.9649 706.359 59.9619 710.719 Q64.9272 715.08 64.9272 722.719 Q64.9272 730.389 59.9619 734.75 Q54.9649 739.078 46.212 739.078 Q37.4273 739.078 32.4621 734.75 Q27.4968 730.389 27.4968 722.719 Z" fill="#000000" fill-rule="nonzero" fill-opacity="1"></path><path clip-path="url(#clip390)" d="M29.4065 673.925 L34.9447 673.925 Q33.6716 676.408 33.035 679.082 Q32.3984 681.755 32.3984 684.62 Q32.3984 688.98 33.7352 691.177 Q35.072 693.341 37.7456 693.341 Q39.7826 693.341 40.9603 691.781 Q42.1061 690.222 43.1565 685.511 L43.6021 683.506 Q44.9389 677.267 47.3897 674.658 Q49.8086 672.016 54.1691 672.016 Q59.1344 672.016 62.0308 675.963 Q64.9272 679.877 64.9272 686.752 Q64.9272 689.617 64.3543 692.736 Q63.8132 695.824 62.6992 699.261 L56.6518 699.261 Q58.3387 696.014 59.198 692.863 Q60.0256 689.712 60.0256 686.625 Q60.0256 682.487 58.6251 680.259 Q57.1929 678.031 54.6147 678.031 Q52.2276 678.031 50.9545 679.655 Q49.6813 681.246 48.5037 686.689 L48.0262 688.726 Q46.8804 694.168 44.5251 696.587 Q42.138 699.006 38.0002 699.006 Q32.9713 699.006 30.2341 695.442 Q27.4968 691.877 27.4968 685.32 Q27.4968 682.074 27.9743 679.209 Q28.4517 676.344 29.4065 673.925 Z" fill="#000000" fill-rule="nonzero" fill-opacity="1"></path><path clip-path="url(#clip390)" d="M29.4065 639.964 L34.9447 639.964 Q33.6716 642.447 33.035 645.121 Q32.3984 647.794 32.3984 650.659 Q32.3984 655.019 33.7352 657.215 Q35.072 659.38 37.7456 659.38 Q39.7826 659.38 40.9603 657.82 Q42.1061 656.261 43.1565 651.55 L43.6021 649.545 Q44.9389 643.306 47.3897 640.696 Q49.8086 638.055 54.1691 638.055 Q59.1344 638.055 62.0308 642.001 Q64.9272 645.916 64.9272 652.791 Q64.9272 655.656 64.3543 658.775 Q63.8132 661.862 62.6992 665.3 L56.6518 665.3 Q58.3387 662.053 59.198 658.902 Q60.0256 655.751 60.0256 652.664 Q60.0256 648.526 58.6251 646.298 Q57.1929 644.07 54.6147 644.07 Q52.2276 644.07 50.9545 645.694 Q49.6813 647.285 48.5037 652.728 L48.0262 654.765 Q46.8804 660.207 44.5251 662.626 Q42.138 665.045 38.0002 665.045 Q32.9713 665.045 30.2341 661.481 Q27.4968 657.916 27.4968 651.359 Q27.4968 648.113 27.9743 645.248 Q28.4517 642.383 29.4065 639.964 Z" fill="#000000" fill-rule="nonzero" fill-opacity="1"></path><path clip-path="url(#clip390)" d="M968.992 12.096 L977.175 12.096 L977.175 65.6895 L1006.63 65.6895 L1006.63 72.576 L968.992 72.576 L968.992 12.096 Z" fill="#000000" fill-rule="nonzero" fill-opacity="1"></path><path clip-path="url(#clip390)" d="M1052.24 48.0275 L1052.24 51.6733 L1017.97 51.6733 Q1018.45 59.3701 1022.59 63.421 Q1026.76 67.4314 1034.17 67.4314 Q1038.47 67.4314 1042.48 66.3781 Q1046.53 65.3249 1050.5 63.2184 L1050.5 70.267 Q1046.49 71.9684 1042.27 72.8596 Q1038.06 73.7508 1033.73 73.7508 Q1022.87 73.7508 1016.51 67.4314 Q1010.19 61.1119 1010.19 50.3365 Q1010.19 39.1965 1016.19 32.6746 Q1022.22 26.1121 1032.43 26.1121 Q1041.58 26.1121 1046.89 32.0264 Q1052.24 37.9003 1052.24 48.0275 M1044.78 45.84 Q1044.7 39.7232 1041.34 36.0774 Q1038.02 32.4315 1032.51 32.4315 Q1026.27 32.4315 1022.5 35.9558 Q1018.78 39.4801 1018.21 45.8805 L1044.78 45.84 Z" fill="#000000" fill-rule="nonzero" fill-opacity="1"></path><path clip-path="url(#clip390)" d="M1085.09 49.7694 Q1076.06 49.7694 1072.57 51.8354 Q1069.09 53.9013 1069.09 58.8839 Q1069.09 62.8538 1071.68 65.2034 Q1074.32 67.5124 1078.81 67.5124 Q1085.01 67.5124 1088.74 63.1374 Q1092.5 58.7219 1092.5 51.4303 L1092.5 49.7694 L1085.09 49.7694 M1099.96 46.6907 L1099.96 72.576 L1092.5 72.576 L1092.5 65.6895 Q1089.95 69.8214 1086.14 71.8063 Q1082.34 73.7508 1076.83 73.7508 Q1069.86 73.7508 1065.73 69.8619 Q1061.64 65.9325 1061.64 59.3701 Q1061.64 51.7138 1066.74 47.825 Q1071.89 43.9361 1082.05 43.9361 L1092.5 43.9361 L1092.5 43.2069 Q1092.5 38.0623 1089.1 35.2672 Q1085.74 32.4315 1079.62 32.4315 Q1075.73 32.4315 1072.05 33.3632 Q1068.36 34.295 1064.96 36.1584 L1064.96 29.2718 Q1069.05 27.692 1072.9 26.9223 Q1076.75 26.1121 1080.39 26.1121 Q1090.24 26.1121 1095.1 31.2163 Q1099.96 36.3204 1099.96 46.6907 Z" fill="#000000" fill-rule="nonzero" fill-opacity="1"></path><path clip-path="url(#clip390)" d="M1141.6 34.1734 Q1140.35 33.4443 1138.85 33.1202 Q1137.39 32.7556 1135.61 32.7556 Q1129.29 32.7556 1125.88 36.8875 Q1122.52 40.9789 1122.52 48.6757 L1122.52 72.576 L1115.03 72.576 L1115.03 27.2059 L1122.52 27.2059 L1122.52 34.2544 Q1124.87 30.1225 1128.64 28.1376 Q1132.41 26.1121 1137.79 26.1121 Q1138.56 26.1121 1139.49 26.2337 Q1140.43 26.3147 1141.56 26.5172 L1141.6 34.1734 Z" fill="#000000" fill-rule="nonzero" fill-opacity="1"></path><path clip-path="url(#clip390)" d="M1185.68 45.1919 L1185.68 72.576 L1178.22 72.576 L1178.22 45.4349 Q1178.22 38.994 1175.71 35.7938 Q1173.2 32.5936 1168.18 32.5936 Q1162.14 32.5936 1158.66 36.4419 Q1155.17 40.2903 1155.17 46.9338 L1155.17 72.576 L1147.68 72.576 L1147.68 27.2059 L1155.17 27.2059 L1155.17 34.2544 Q1157.85 30.163 1161.45 28.1376 Q1165.1 26.1121 1169.84 26.1121 Q1177.65 26.1121 1181.66 30.9732 Q1185.68 35.7938 1185.68 45.1919 Z" fill="#000000" fill-rule="nonzero" fill-opacity="1"></path><path clip-path="url(#clip390)" d="M1200.54 27.2059 L1208 27.2059 L1208 72.576 L1200.54 72.576 L1200.54 27.2059 M1200.54 9.54393 L1208 9.54393 L1208 18.9825 L1200.54 18.9825 L1200.54 9.54393 Z" fill="#000000" fill-rule="nonzero" fill-opacity="1"></path><path clip-path="url(#clip390)" d="M1261.31 45.1919 L1261.31 72.576 L1253.85 72.576 L1253.85 45.4349 Q1253.85 38.994 1251.34 35.7938 Q1248.83 32.5936 1243.81 32.5936 Q1237.77 32.5936 1234.29 36.4419 Q1230.8 40.2903 1230.8 46.9338 L1230.8 72.576 L1223.31 72.576 L1223.31 27.2059 L1230.8 27.2059 L1230.8 34.2544 Q1233.48 30.163 1237.08 28.1376 Q1240.73 26.1121 1245.47 26.1121 Q1253.28 26.1121 1257.3 30.9732 Q1261.31 35.7938 1261.31 45.1919 Z" fill="#000000" fill-rule="nonzero" fill-opacity="1"></path><path clip-path="url(#clip390)" d="M1306.03 49.3643 Q1306.03 41.2625 1302.67 36.8065 Q1299.34 32.3505 1293.31 32.3505 Q1287.31 32.3505 1283.95 36.8065 Q1280.63 41.2625 1280.63 49.3643 Q1280.63 57.4256 1283.95 61.8816 Q1287.31 66.3376 1293.31 66.3376 Q1299.34 66.3376 1302.67 61.8816 Q1306.03 57.4256 1306.03 49.3643 M1313.48 66.9452 Q1313.48 78.5308 1308.34 84.1616 Q1303.19 89.8329 1292.58 89.8329 Q1288.65 89.8329 1285.17 89.2252 Q1281.68 88.6581 1278.4 87.4428 L1278.4 80.1917 Q1281.68 81.9741 1284.88 82.8248 Q1288.08 83.6755 1291.4 83.6755 Q1298.74 83.6755 1302.38 79.8271 Q1306.03 76.0193 1306.03 68.282 L1306.03 64.5957 Q1303.72 68.6061 1300.11 70.5911 Q1296.51 72.576 1291.48 72.576 Q1283.14 72.576 1278.04 66.2161 Q1272.93 59.8562 1272.93 49.3643 Q1272.93 38.832 1278.04 32.472 Q1283.14 26.1121 1291.48 26.1121 Q1296.51 26.1121 1300.11 28.0971 Q1303.72 30.082 1306.03 34.0924 L1306.03 27.2059 L1313.48 27.2059 L1313.48 66.9452 Z" fill="#000000" fill-rule="nonzero" fill-opacity="1"></path><path clip-path="url(#clip390)" d="M1400.82 16.7545 L1400.82 25.383 Q1396.69 21.5346 1391.99 19.6307 Q1387.33 17.7268 1382.06 17.7268 Q1371.69 17.7268 1366.18 24.0867 Q1360.67 30.4061 1360.67 42.3968 Q1360.67 54.3469 1366.18 60.7069 Q1371.69 67.0263 1382.06 67.0263 Q1387.33 67.0263 1391.99 65.1223 Q1396.69 63.2184 1400.82 59.3701 L1400.82 67.9175 Q1396.52 70.8341 1391.7 72.2924 Q1386.92 73.7508 1381.58 73.7508 Q1367.84 73.7508 1359.94 65.3654 Q1352.05 56.9395 1352.05 42.3968 Q1352.05 27.8135 1359.94 19.4281 Q1367.84 11.0023 1381.58 11.0023 Q1387 11.0023 1391.79 12.4606 Q1396.61 13.8784 1400.82 16.7545 Z" fill="#000000" fill-rule="nonzero" fill-opacity="1"></path><path clip-path="url(#clip390)" d="M1412.36 54.671 L1412.36 27.2059 L1419.82 27.2059 L1419.82 54.3874 Q1419.82 60.8284 1422.33 64.0691 Q1424.84 67.2693 1429.86 67.2693 Q1435.9 67.2693 1439.38 63.421 Q1442.91 59.5726 1442.91 52.9291 L1442.91 27.2059 L1450.36 27.2059 L1450.36 72.576 L1442.91 72.576 L1442.91 65.6084 Q1440.19 69.7404 1436.59 71.7658 Q1433.02 73.7508 1428.28 73.7508 Q1420.47 73.7508 1416.41 68.8897 Q1412.36 64.0286 1412.36 54.671 M1431.12 26.1121 L1431.12 26.1121 Z" fill="#000000" fill-rule="nonzero" fill-opacity="1"></path><path clip-path="url(#clip390)" d="M1492 34.1734 Q1490.75 33.4443 1489.25 33.1202 Q1487.79 32.7556 1486.01 32.7556 Q1479.69 32.7556 1476.29 36.8875 Q1472.92 40.9789 1472.92 48.6757 L1472.92 72.576 L1465.43 72.576 L1465.43 27.2059 L1472.92 27.2059 L1472.92 34.2544 Q1475.27 30.1225 1479.04 28.1376 Q1482.81 26.1121 1488.2 26.1121 Q1488.97 26.1121 1489.9 26.2337 Q1490.83 26.3147 1491.96 26.5172 L1492 34.1734 Z" fill="#000000" fill-rule="nonzero" fill-opacity="1"></path><path clip-path="url(#clip390)" d="M1494.48 27.2059 L1502.37 27.2059 L1516.55 65.2844 L1530.73 27.2059 L1538.63 27.2059 L1521.62 72.576 L1511.49 72.576 L1494.48 27.2059 Z" fill="#000000" fill-rule="nonzero" fill-opacity="1"></path><path clip-path="url(#clip390)" d="M1587.73 48.0275 L1587.73 51.6733 L1553.46 51.6733 Q1553.94 59.3701 1558.07 63.421 Q1562.25 67.4314 1569.66 67.4314 Q1573.95 67.4314 1577.96 66.3781 Q1582.02 65.3249 1585.99 63.2184 L1585.99 70.267 Q1581.98 71.9684 1577.76 72.8596 Q1573.55 73.7508 1569.21 73.7508 Q1558.36 73.7508 1552 67.4314 Q1545.68 61.1119 1545.68 50.3365 Q1545.68 39.1965 1551.67 32.6746 Q1557.71 26.1121 1567.92 26.1121 Q1577.07 26.1121 1582.38 32.0264 Q1587.73 37.9003 1587.73 48.0275 M1580.27 45.84 Q1580.19 39.7232 1576.83 36.0774 Q1573.51 32.4315 1568 32.4315 Q1561.76 32.4315 1557.99 35.9558 Q1554.27 39.4801 1553.7 45.8805 L1580.27 45.84 Z" fill="#000000" fill-rule="nonzero" fill-opacity="1"></path><polyline clip-path="url(#clip392)" style="stroke:#009af9; stroke-linecap:round; stroke-linejoin:round; stroke-width:4; stroke-opacity:1; fill:none" points="270.862,186.013 272.214,186.013 274.242,1371.42 276.27,186.013 278.973,1011.29 282.353,1344.39 286.409,160.256 291.14,1369.72 296.548,1011.29 303.983,1011.29 312.095,186.013 322.91,186.013 335.753,1344.39 351.3,477.92 370.226,477.92 393.208,201.037 421.598,201.037 455.395,160.256 497.304,201.037 548,160.256 609.511,201.037 684.541,186.013 775.794,1344.39 887.325,1344.39 1022.51,160.256 1187.44,1344.72 1388.2,1344.39 1632.22,1386.4 1929.63,1011.29 2291.94,160.256 "></polyline>
<polyline clip-path="url(#clip392)" style="stroke:#e26f46; stroke-linecap:round; stroke-linejoin:round; stroke-width:4; stroke-opacity:1; fill:none" stroke-dasharray="16, 10" points="264.778,1371.61 2291.94,1371.61 "></polyline>
<path clip-path="url(#clip390)" d="M1325.84 1379.86 L2281.13 1379.86 L2281.13 1224.34 L1325.84 1224.34  Z" fill="#ffffff" fill-rule="evenodd" fill-opacity="1"></path>
<polyline clip-path="url(#clip390)" style="stroke:#000000; stroke-linecap:round; stroke-linejoin:round; stroke-width:4; stroke-opacity:1; fill:none" points="1325.84,1379.86 2281.13,1379.86 2281.13,1224.34 1325.84,1224.34 1325.84,1379.86 "></polyline>
<polyline clip-path="url(#clip390)" style="stroke:#009af9; stroke-linecap:round; stroke-linejoin:round; stroke-width:4; stroke-opacity:1; fill:none" points="1349.71,1276.18 1492.97,1276.18 "></polyline>
<path clip-path="url(#clip390)" d="M1516.84 1258.9 L1523.14 1258.9 L1538.46 1287.81 L1538.46 1258.9 L1543 1258.9 L1543 1293.46 L1536.7 1293.46 L1521.38 1264.54 L1521.38 1293.46 L1516.84 1293.46 L1516.84 1258.9 Z" fill="#000000" fill-rule="nonzero" fill-opacity="1"></path><path clip-path="url(#clip390)" d="M1574.29 1279.43 L1574.29 1281.51 L1554.71 1281.51 Q1554.99 1285.91 1557.35 1288.22 Q1559.73 1290.52 1563.97 1290.52 Q1566.42 1290.52 1568.72 1289.91 Q1571.03 1289.31 1573.3 1288.11 L1573.3 1292.14 Q1571.01 1293.11 1568.6 1293.62 Q1566.19 1294.13 1563.72 1294.13 Q1557.51 1294.13 1553.88 1290.52 Q1550.27 1286.91 1550.27 1280.75 Q1550.27 1274.38 1553.69 1270.66 Q1557.14 1266.91 1562.98 1266.91 Q1568.21 1266.91 1571.24 1270.29 Q1574.29 1273.64 1574.29 1279.43 M1570.04 1278.18 Q1569.99 1274.68 1568.07 1272.6 Q1566.17 1270.52 1563.02 1270.52 Q1559.46 1270.52 1557.3 1272.53 Q1555.17 1274.54 1554.85 1278.2 L1570.04 1278.18 Z" fill="#000000" fill-rule="nonzero" fill-opacity="1"></path><path clip-path="url(#clip390)" d="M1580.85 1283.22 L1580.85 1267.53 L1585.1 1267.53 L1585.1 1283.06 Q1585.1 1286.74 1586.54 1288.6 Q1587.98 1290.42 1590.85 1290.42 Q1594.29 1290.42 1596.29 1288.22 Q1598.3 1286.03 1598.3 1282.23 L1598.3 1267.53 L1602.56 1267.53 L1602.56 1293.46 L1598.3 1293.46 L1598.3 1289.47 Q1596.75 1291.84 1594.69 1292.99 Q1592.65 1294.13 1589.94 1294.13 Q1585.48 1294.13 1583.16 1291.35 Q1580.85 1288.57 1580.85 1283.22 M1591.56 1266.91 L1591.56 1266.91 Z" fill="#000000" fill-rule="nonzero" fill-opacity="1"></path><path clip-path="url(#clip390)" d="M1626.35 1271.51 Q1625.64 1271.1 1624.78 1270.91 Q1623.95 1270.7 1622.93 1270.7 Q1619.32 1270.7 1617.37 1273.06 Q1615.45 1275.4 1615.45 1279.8 L1615.45 1293.46 L1611.17 1293.46 L1611.17 1267.53 L1615.45 1267.53 L1615.45 1271.56 Q1616.79 1269.2 1618.95 1268.06 Q1621.1 1266.91 1624.18 1266.91 Q1624.62 1266.91 1625.15 1266.97 Q1625.68 1267.02 1626.33 1267.14 L1626.35 1271.51 Z" fill="#000000" fill-rule="nonzero" fill-opacity="1"></path><path clip-path="url(#clip390)" d="M1642.6 1280.42 Q1637.44 1280.42 1635.45 1281.6 Q1633.46 1282.79 1633.46 1285.63 Q1633.46 1287.9 1634.94 1289.24 Q1636.45 1290.56 1639.02 1290.56 Q1642.56 1290.56 1644.69 1288.06 Q1646.84 1285.54 1646.84 1281.37 L1646.84 1280.42 L1642.6 1280.42 M1651.1 1278.66 L1651.1 1293.46 L1646.84 1293.46 L1646.84 1289.52 Q1645.38 1291.88 1643.21 1293.02 Q1641.03 1294.13 1637.88 1294.13 Q1633.9 1294.13 1631.54 1291.91 Q1629.2 1289.66 1629.2 1285.91 Q1629.2 1281.54 1632.12 1279.31 Q1635.06 1277.09 1640.87 1277.09 L1646.84 1277.09 L1646.84 1276.67 Q1646.84 1273.73 1644.9 1272.14 Q1642.97 1270.52 1639.48 1270.52 Q1637.26 1270.52 1635.15 1271.05 Q1633.04 1271.58 1631.1 1272.65 L1631.1 1268.71 Q1633.44 1267.81 1635.64 1267.37 Q1637.84 1266.91 1639.92 1266.91 Q1645.54 1266.91 1648.32 1269.82 Q1651.1 1272.74 1651.1 1278.66 Z" fill="#000000" fill-rule="nonzero" fill-opacity="1"></path><path clip-path="url(#clip390)" d="M1659.87 1257.44 L1664.13 1257.44 L1664.13 1293.46 L1659.87 1293.46 L1659.87 1257.44 Z" fill="#000000" fill-rule="nonzero" fill-opacity="1"></path><path clip-path="url(#clip390)" d="M1688.3 1258.9 L1694.6 1258.9 L1709.92 1287.81 L1709.92 1258.9 L1714.46 1258.9 L1714.46 1293.46 L1708.16 1293.46 L1692.84 1264.54 L1692.84 1293.46 L1688.3 1293.46 L1688.3 1258.9 Z" fill="#000000" fill-rule="nonzero" fill-opacity="1"></path><path clip-path="url(#clip390)" d="M1745.75 1279.43 L1745.75 1281.51 L1726.17 1281.51 Q1726.45 1285.91 1728.81 1288.22 Q1731.19 1290.52 1735.43 1290.52 Q1737.88 1290.52 1740.17 1289.91 Q1742.49 1289.31 1744.76 1288.11 L1744.76 1292.14 Q1742.47 1293.11 1740.06 1293.62 Q1737.65 1294.13 1735.17 1294.13 Q1728.97 1294.13 1725.34 1290.52 Q1721.72 1286.91 1721.72 1280.75 Q1721.72 1274.38 1725.15 1270.66 Q1728.6 1266.91 1734.43 1266.91 Q1739.66 1266.91 1742.7 1270.29 Q1745.75 1273.64 1745.75 1279.43 M1741.49 1278.18 Q1741.45 1274.68 1739.53 1272.6 Q1737.63 1270.52 1734.48 1270.52 Q1730.91 1270.52 1728.76 1272.53 Q1726.63 1274.54 1726.31 1278.2 L1741.49 1278.18 Z" fill="#000000" fill-rule="nonzero" fill-opacity="1"></path><path clip-path="url(#clip390)" d="M1756.96 1260.17 L1756.96 1267.53 L1765.73 1267.53 L1765.73 1270.84 L1756.96 1270.84 L1756.96 1284.91 Q1756.96 1288.09 1757.81 1288.99 Q1758.69 1289.89 1761.35 1289.89 L1765.73 1289.89 L1765.73 1293.46 L1761.35 1293.46 Q1756.42 1293.46 1754.55 1291.63 Q1752.67 1289.78 1752.67 1284.91 L1752.67 1270.84 L1749.55 1270.84 L1749.55 1267.53 L1752.67 1267.53 L1752.67 1260.17 L1756.96 1260.17 Z" fill="#000000" fill-rule="nonzero" fill-opacity="1"></path><path clip-path="url(#clip390)" d="M1768.85 1267.53 L1773.11 1267.53 L1778.44 1287.76 L1783.74 1267.53 L1788.76 1267.53 L1794.09 1287.76 L1799.39 1267.53 L1803.65 1267.53 L1796.86 1293.46 L1791.84 1293.46 L1786.26 1272.21 L1780.66 1293.46 L1775.64 1293.46 L1768.85 1267.53 Z" fill="#000000" fill-rule="nonzero" fill-opacity="1"></path><path clip-path="url(#clip390)" d="M1820.15 1270.52 Q1816.72 1270.52 1814.73 1273.2 Q1812.74 1275.86 1812.74 1280.52 Q1812.74 1285.17 1814.71 1287.85 Q1816.7 1290.52 1820.15 1290.52 Q1823.55 1290.52 1825.54 1287.83 Q1827.53 1285.15 1827.53 1280.52 Q1827.53 1275.91 1825.54 1273.22 Q1823.55 1270.52 1820.15 1270.52 M1820.15 1266.91 Q1825.71 1266.91 1828.88 1270.52 Q1832.05 1274.13 1832.05 1280.52 Q1832.05 1286.88 1828.88 1290.52 Q1825.71 1294.13 1820.15 1294.13 Q1814.57 1294.13 1811.4 1290.52 Q1808.25 1286.88 1808.25 1280.52 Q1808.25 1274.13 1811.4 1270.52 Q1814.57 1266.91 1820.15 1266.91 Z" fill="#000000" fill-rule="nonzero" fill-opacity="1"></path><path clip-path="url(#clip390)" d="M1854.13 1271.51 Q1853.41 1271.1 1852.56 1270.91 Q1851.72 1270.7 1850.71 1270.7 Q1847.09 1270.7 1845.15 1273.06 Q1843.23 1275.4 1843.23 1279.8 L1843.23 1293.46 L1838.95 1293.46 L1838.95 1267.53 L1843.23 1267.53 L1843.23 1271.56 Q1844.57 1269.2 1846.72 1268.06 Q1848.88 1266.91 1851.96 1266.91 Q1852.4 1266.91 1852.93 1266.97 Q1853.46 1267.02 1854.11 1267.14 L1854.13 1271.51 Z" fill="#000000" fill-rule="nonzero" fill-opacity="1"></path><path clip-path="url(#clip390)" d="M1858.44 1257.44 L1862.72 1257.44 L1862.72 1278.71 L1875.43 1267.53 L1880.87 1267.53 L1867.12 1279.66 L1881.45 1293.46 L1875.89 1293.46 L1862.72 1280.79 L1862.72 1293.46 L1858.44 1293.46 L1858.44 1257.44 Z" fill="#000000" fill-rule="nonzero" fill-opacity="1"></path><path clip-path="url(#clip390)" d="M1927.19 1261.56 L1927.19 1266.49 Q1924.83 1264.29 1922.14 1263.2 Q1919.48 1262.11 1916.47 1262.11 Q1910.54 1262.11 1907.39 1265.75 Q1904.25 1269.36 1904.25 1276.21 Q1904.25 1283.04 1907.39 1286.67 Q1910.54 1290.28 1916.47 1290.28 Q1919.48 1290.28 1922.14 1289.2 Q1924.83 1288.11 1927.19 1285.91 L1927.19 1290.79 Q1924.73 1292.46 1921.98 1293.29 Q1919.25 1294.13 1916.19 1294.13 Q1908.34 1294.13 1903.83 1289.34 Q1899.32 1284.52 1899.32 1276.21 Q1899.32 1267.88 1903.83 1263.09 Q1908.34 1258.27 1916.19 1258.27 Q1919.29 1258.27 1922.02 1259.1 Q1924.78 1259.91 1927.19 1261.56 Z" fill="#000000" fill-rule="nonzero" fill-opacity="1"></path><path clip-path="url(#clip390)" d="M1934.22 1257.44 L1938.48 1257.44 L1938.48 1293.46 L1934.22 1293.46 L1934.22 1257.44 Z" fill="#000000" fill-rule="nonzero" fill-opacity="1"></path><path clip-path="url(#clip390)" d="M1959.18 1280.42 Q1954.01 1280.42 1952.02 1281.6 Q1950.03 1282.79 1950.03 1285.63 Q1950.03 1287.9 1951.51 1289.24 Q1953.02 1290.56 1955.59 1290.56 Q1959.13 1290.56 1961.26 1288.06 Q1963.41 1285.54 1963.41 1281.37 L1963.41 1280.42 L1959.18 1280.42 M1967.67 1278.66 L1967.67 1293.46 L1963.41 1293.46 L1963.41 1289.52 Q1961.95 1291.88 1959.78 1293.02 Q1957.6 1294.13 1954.45 1294.13 Q1950.47 1294.13 1948.11 1291.91 Q1945.77 1289.66 1945.77 1285.91 Q1945.77 1281.54 1948.69 1279.31 Q1951.63 1277.09 1957.44 1277.09 L1963.41 1277.09 L1963.41 1276.67 Q1963.41 1273.73 1961.47 1272.14 Q1959.55 1270.52 1956.05 1270.52 Q1953.83 1270.52 1951.72 1271.05 Q1949.62 1271.58 1947.67 1272.65 L1947.67 1268.71 Q1950.01 1267.81 1952.21 1267.37 Q1954.41 1266.91 1956.49 1266.91 Q1962.12 1266.91 1964.89 1269.82 Q1967.67 1272.74 1967.67 1278.66 Z" fill="#000000" fill-rule="nonzero" fill-opacity="1"></path><path clip-path="url(#clip390)" d="M1992.97 1268.29 L1992.97 1272.32 Q1991.17 1271.4 1989.22 1270.93 Q1987.28 1270.47 1985.2 1270.47 Q1982.02 1270.47 1980.43 1271.44 Q1978.85 1272.41 1978.85 1274.36 Q1978.85 1275.84 1979.99 1276.7 Q1981.12 1277.53 1984.55 1278.29 L1986.01 1278.62 Q1990.54 1279.59 1992.44 1281.37 Q1994.36 1283.13 1994.36 1286.3 Q1994.36 1289.91 1991.49 1292.02 Q1988.64 1294.13 1983.64 1294.13 Q1981.56 1294.13 1979.29 1293.71 Q1977.05 1293.32 1974.55 1292.51 L1974.55 1288.11 Q1976.91 1289.34 1979.2 1289.96 Q1981.49 1290.56 1983.74 1290.56 Q1986.75 1290.56 1988.37 1289.54 Q1989.99 1288.5 1989.99 1286.63 Q1989.99 1284.89 1988.81 1283.97 Q1987.65 1283.04 1983.69 1282.18 L1982.21 1281.84 Q1978.25 1281 1976.49 1279.29 Q1974.73 1277.55 1974.73 1274.54 Q1974.73 1270.89 1977.32 1268.9 Q1979.92 1266.91 1984.69 1266.91 Q1987.05 1266.91 1989.13 1267.25 Q1991.21 1267.6 1992.97 1268.29 Z" fill="#000000" fill-rule="nonzero" fill-opacity="1"></path><path clip-path="url(#clip390)" d="M2017.67 1268.29 L2017.67 1272.32 Q2015.87 1271.4 2013.92 1270.93 Q2011.98 1270.47 2009.89 1270.47 Q2006.72 1270.47 2005.13 1271.44 Q2003.55 1272.41 2003.55 1274.36 Q2003.55 1275.84 2004.69 1276.7 Q2005.82 1277.53 2009.25 1278.29 L2010.7 1278.62 Q2015.24 1279.59 2017.14 1281.37 Q2019.06 1283.13 2019.06 1286.3 Q2019.06 1289.91 2016.19 1292.02 Q2013.34 1294.13 2008.34 1294.13 Q2006.26 1294.13 2003.99 1293.71 Q2001.75 1293.32 1999.25 1292.51 L1999.25 1288.11 Q2001.61 1289.34 2003.9 1289.96 Q2006.19 1290.56 2008.44 1290.56 Q2011.45 1290.56 2013.07 1289.54 Q2014.69 1288.5 2014.69 1286.63 Q2014.69 1284.89 2013.51 1283.97 Q2012.35 1283.04 2008.39 1282.18 L2006.91 1281.84 Q2002.95 1281 2001.19 1279.29 Q1999.43 1277.55 1999.43 1274.54 Q1999.43 1270.89 2002.02 1268.9 Q2004.62 1266.91 2009.38 1266.91 Q2011.75 1266.91 2013.83 1267.25 Q2015.91 1267.6 2017.67 1268.29 Z" fill="#000000" fill-rule="nonzero" fill-opacity="1"></path><path clip-path="url(#clip390)" d="M2025.84 1267.53 L2030.1 1267.53 L2030.1 1293.46 L2025.84 1293.46 L2025.84 1267.53 M2025.84 1257.44 L2030.1 1257.44 L2030.1 1262.83 L2025.84 1262.83 L2025.84 1257.44 Z" fill="#000000" fill-rule="nonzero" fill-opacity="1"></path><path clip-path="url(#clip390)" d="M2052.14 1257.44 L2052.14 1260.98 L2048.07 1260.98 Q2045.77 1260.98 2044.87 1261.91 Q2043.99 1262.83 2043.99 1265.24 L2043.99 1267.53 L2051.01 1267.53 L2051.01 1270.84 L2043.99 1270.84 L2043.99 1293.46 L2039.71 1293.46 L2039.71 1270.84 L2035.63 1270.84 L2035.63 1267.53 L2039.71 1267.53 L2039.71 1265.72 Q2039.71 1261.4 2041.72 1259.43 Q2043.74 1257.44 2048.11 1257.44 L2052.14 1257.44 Z" fill="#000000" fill-rule="nonzero" fill-opacity="1"></path><path clip-path="url(#clip390)" d="M2055.7 1267.53 L2059.96 1267.53 L2059.96 1293.46 L2055.7 1293.46 L2055.7 1267.53 M2055.7 1257.44 L2059.96 1257.44 L2059.96 1262.83 L2055.7 1262.83 L2055.7 1257.44 Z" fill="#000000" fill-rule="nonzero" fill-opacity="1"></path><path clip-path="url(#clip390)" d="M2091.05 1279.43 L2091.05 1281.51 L2071.47 1281.51 Q2071.75 1285.91 2074.11 1288.22 Q2076.49 1290.52 2080.73 1290.52 Q2083.18 1290.52 2085.47 1289.91 Q2087.79 1289.31 2090.06 1288.11 L2090.06 1292.14 Q2087.76 1293.11 2085.36 1293.62 Q2082.95 1294.13 2080.47 1294.13 Q2074.27 1294.13 2070.63 1290.52 Q2067.02 1286.91 2067.02 1280.75 Q2067.02 1274.38 2070.45 1270.66 Q2073.9 1266.91 2079.73 1266.91 Q2084.96 1266.91 2088 1270.29 Q2091.05 1273.64 2091.05 1279.43 M2086.79 1278.18 Q2086.75 1274.68 2084.82 1272.6 Q2082.93 1270.52 2079.78 1270.52 Q2076.21 1270.52 2074.06 1272.53 Q2071.93 1274.54 2071.61 1278.2 L2086.79 1278.18 Z" fill="#000000" fill-rule="nonzero" fill-opacity="1"></path><path clip-path="url(#clip390)" d="M2113.06 1271.51 Q2112.35 1271.1 2111.49 1270.91 Q2110.66 1270.7 2109.64 1270.7 Q2106.03 1270.7 2104.08 1273.06 Q2102.16 1275.4 2102.16 1279.8 L2102.16 1293.46 L2097.88 1293.46 L2097.88 1267.53 L2102.16 1267.53 L2102.16 1271.56 Q2103.5 1269.2 2105.66 1268.06 Q2107.81 1266.91 2110.89 1266.91 Q2111.33 1266.91 2111.86 1266.97 Q2112.39 1267.02 2113.04 1267.14 L2113.06 1271.51 Z" fill="#000000" fill-rule="nonzero" fill-opacity="1"></path><path clip-path="url(#clip390)" d="M2132.79 1258.9 L2152.65 1258.9 L2152.65 1262.83 L2137.46 1262.83 L2137.46 1273.02 L2151.17 1273.02 L2151.17 1276.95 L2137.46 1276.95 L2137.46 1293.46 L2132.79 1293.46 L2132.79 1258.9 Z" fill="#000000" fill-rule="nonzero" fill-opacity="1"></path><path clip-path="url(#clip390)" d="M2156.42 1267.53 L2160.68 1267.53 L2160.68 1293.46 L2156.42 1293.46 L2156.42 1267.53 M2156.42 1257.44 L2160.68 1257.44 L2160.68 1262.83 L2156.42 1262.83 L2156.42 1257.44 Z" fill="#000000" fill-rule="nonzero" fill-opacity="1"></path><path clip-path="url(#clip390)" d="M2173.81 1260.17 L2173.81 1267.53 L2182.58 1267.53 L2182.58 1270.84 L2173.81 1270.84 L2173.81 1284.91 Q2173.81 1288.09 2174.66 1288.99 Q2175.54 1289.89 2178.2 1289.89 L2182.58 1289.89 L2182.58 1293.46 L2178.2 1293.46 Q2173.27 1293.46 2171.4 1291.63 Q2169.52 1289.78 2169.52 1284.91 L2169.52 1270.84 L2166.4 1270.84 L2166.4 1267.53 L2169.52 1267.53 L2169.52 1260.17 L2173.81 1260.17 Z" fill="#000000" fill-rule="nonzero" fill-opacity="1"></path><path clip-path="url(#clip390)" d="M2192.39 1260.17 L2192.39 1267.53 L2201.17 1267.53 L2201.17 1270.84 L2192.39 1270.84 L2192.39 1284.91 Q2192.39 1288.09 2193.25 1288.99 Q2194.13 1289.89 2196.79 1289.89 L2201.17 1289.89 L2201.17 1293.46 L2196.79 1293.46 Q2191.86 1293.46 2189.99 1291.63 Q2188.11 1289.78 2188.11 1284.91 L2188.11 1270.84 L2184.99 1270.84 L2184.99 1267.53 L2188.11 1267.53 L2188.11 1260.17 L2192.39 1260.17 Z" fill="#000000" fill-rule="nonzero" fill-opacity="1"></path><path clip-path="url(#clip390)" d="M2228.94 1279.43 L2228.94 1281.51 L2209.36 1281.51 Q2209.64 1285.91 2212 1288.22 Q2214.38 1290.52 2218.62 1290.52 Q2221.07 1290.52 2223.37 1289.91 Q2225.68 1289.31 2227.95 1288.11 L2227.95 1292.14 Q2225.66 1293.11 2223.25 1293.62 Q2220.84 1294.13 2218.37 1294.13 Q2212.16 1294.13 2208.53 1290.52 Q2204.92 1286.91 2204.92 1280.75 Q2204.92 1274.38 2208.34 1270.66 Q2211.79 1266.91 2217.62 1266.91 Q2222.86 1266.91 2225.89 1270.29 Q2228.94 1273.64 2228.94 1279.43 M2224.68 1278.18 Q2224.64 1274.68 2222.72 1272.6 Q2220.82 1270.52 2217.67 1270.52 Q2214.11 1270.52 2211.95 1272.53 Q2209.82 1274.54 2209.5 1278.2 L2224.68 1278.18 Z" fill="#000000" fill-rule="nonzero" fill-opacity="1"></path><path clip-path="url(#clip390)" d="M2252.99 1271.47 L2252.99 1257.44 L2257.25 1257.44 L2257.25 1293.46 L2252.99 1293.46 L2252.99 1289.57 Q2251.65 1291.88 2249.59 1293.02 Q2247.56 1294.13 2244.68 1294.13 Q2239.99 1294.13 2237.02 1290.38 Q2234.08 1286.63 2234.08 1280.52 Q2234.08 1274.41 2237.02 1270.66 Q2239.99 1266.91 2244.68 1266.91 Q2247.56 1266.91 2249.59 1268.04 Q2251.65 1269.15 2252.99 1271.47 M2238.48 1280.52 Q2238.48 1285.22 2240.4 1287.9 Q2242.35 1290.56 2245.73 1290.56 Q2249.11 1290.56 2251.05 1287.9 Q2252.99 1285.22 2252.99 1280.52 Q2252.99 1275.82 2251.05 1273.16 Q2249.11 1270.47 2245.73 1270.47 Q2242.35 1270.47 2240.4 1273.16 Q2238.48 1275.82 2238.48 1280.52 Z" fill="#000000" fill-rule="nonzero" fill-opacity="1"></path><polyline clip-path="url(#clip390)" style="stroke:#e26f46; stroke-linecap:round; stroke-linejoin:round; stroke-width:4; stroke-opacity:1; fill:none" stroke-dasharray="16, 10" points="1349.71,1328.02 1492.97,1328.02 "></polyline>
<path clip-path="url(#clip390)" d="M1544.71 1313.4 L1544.71 1318.33 Q1542.35 1316.13 1539.67 1315.04 Q1537 1313.95 1533.99 1313.95 Q1528.07 1313.95 1524.92 1317.59 Q1521.77 1321.2 1521.77 1328.05 Q1521.77 1334.88 1524.92 1338.51 Q1528.07 1342.12 1533.99 1342.12 Q1537 1342.12 1539.67 1341.04 Q1542.35 1339.95 1544.71 1337.75 L1544.71 1342.63 Q1542.26 1344.3 1539.5 1345.13 Q1536.77 1345.97 1533.72 1345.97 Q1525.87 1345.97 1521.36 1341.18 Q1516.84 1336.36 1516.84 1328.05 Q1516.84 1319.72 1521.36 1314.93 Q1525.87 1310.11 1533.72 1310.11 Q1536.82 1310.11 1539.55 1310.94 Q1542.3 1311.75 1544.71 1313.4 Z" fill="#000000" fill-rule="nonzero" fill-opacity="1"></path><path clip-path="url(#clip390)" d="M1561.79 1322.36 Q1558.37 1322.36 1556.38 1325.04 Q1554.39 1327.7 1554.39 1332.36 Q1554.39 1337.01 1556.36 1339.69 Q1558.35 1342.36 1561.79 1342.36 Q1565.2 1342.36 1567.19 1339.67 Q1569.18 1336.99 1569.18 1332.36 Q1569.18 1327.75 1567.19 1325.06 Q1565.2 1322.36 1561.79 1322.36 M1561.79 1318.75 Q1567.35 1318.75 1570.52 1322.36 Q1573.69 1325.97 1573.69 1332.36 Q1573.69 1338.72 1570.52 1342.36 Q1567.35 1345.97 1561.79 1345.97 Q1556.22 1345.97 1553.04 1342.36 Q1549.9 1338.72 1549.9 1332.36 Q1549.9 1325.97 1553.04 1322.36 Q1556.22 1318.75 1561.79 1318.75 Z" fill="#000000" fill-rule="nonzero" fill-opacity="1"></path><path clip-path="url(#clip390)" d="M1602.3 1329.65 L1602.3 1345.3 L1598.04 1345.3 L1598.04 1329.79 Q1598.04 1326.11 1596.61 1324.28 Q1595.17 1322.45 1592.3 1322.45 Q1588.85 1322.45 1586.86 1324.65 Q1584.87 1326.85 1584.87 1330.64 L1584.87 1345.3 L1580.59 1345.3 L1580.59 1319.37 L1584.87 1319.37 L1584.87 1323.4 Q1586.4 1321.06 1588.46 1319.9 Q1590.54 1318.75 1593.25 1318.75 Q1597.72 1318.75 1600.01 1321.52 Q1602.3 1324.28 1602.3 1329.65 Z" fill="#000000" fill-rule="nonzero" fill-opacity="1"></path><path clip-path="url(#clip390)" d="M1627.33 1320.13 L1627.33 1324.16 Q1625.52 1323.24 1623.58 1322.77 Q1621.63 1322.31 1619.55 1322.31 Q1616.38 1322.31 1614.78 1323.28 Q1613.21 1324.25 1613.21 1326.2 Q1613.21 1327.68 1614.34 1328.54 Q1615.48 1329.37 1618.9 1330.13 L1620.36 1330.46 Q1624.9 1331.43 1626.79 1333.21 Q1628.72 1334.97 1628.72 1338.14 Q1628.72 1341.75 1625.85 1343.86 Q1623 1345.97 1618 1345.97 Q1615.91 1345.97 1613.65 1345.55 Q1611.4 1345.16 1608.9 1344.35 L1608.9 1339.95 Q1611.26 1341.18 1613.55 1341.8 Q1615.85 1342.4 1618.09 1342.4 Q1621.1 1342.4 1622.72 1341.38 Q1624.34 1340.34 1624.34 1338.47 Q1624.34 1336.73 1623.16 1335.81 Q1622 1334.88 1618.04 1334.02 L1616.56 1333.68 Q1612.6 1332.84 1610.85 1331.13 Q1609.09 1329.39 1609.09 1326.38 Q1609.09 1322.73 1611.68 1320.74 Q1614.27 1318.75 1619.04 1318.75 Q1621.4 1318.75 1623.48 1319.09 Q1625.57 1319.44 1627.33 1320.13 Z" fill="#000000" fill-rule="nonzero" fill-opacity="1"></path><path clip-path="url(#clip390)" d="M1639.71 1312.01 L1639.71 1319.37 L1648.48 1319.37 L1648.48 1322.68 L1639.71 1322.68 L1639.71 1336.75 Q1639.71 1339.93 1640.57 1340.83 Q1641.45 1341.73 1644.11 1341.73 L1648.48 1341.73 L1648.48 1345.3 L1644.11 1345.3 Q1639.18 1345.3 1637.3 1343.47 Q1635.43 1341.62 1635.43 1336.75 L1635.43 1322.68 L1632.3 1322.68 L1632.3 1319.37 L1635.43 1319.37 L1635.43 1312.01 L1639.71 1312.01 Z" fill="#000000" fill-rule="nonzero" fill-opacity="1"></path><path clip-path="url(#clip390)" d="M1665.87 1332.26 Q1660.71 1332.26 1658.72 1333.44 Q1656.72 1334.63 1656.72 1337.47 Q1656.72 1339.74 1658.21 1341.08 Q1659.71 1342.4 1662.28 1342.4 Q1665.82 1342.4 1667.95 1339.9 Q1670.1 1337.38 1670.1 1333.21 L1670.1 1332.26 L1665.87 1332.26 M1674.36 1330.5 L1674.36 1345.3 L1670.1 1345.3 L1670.1 1341.36 Q1668.65 1343.72 1666.47 1344.86 Q1664.29 1345.97 1661.15 1345.97 Q1657.16 1345.97 1654.8 1343.75 Q1652.47 1341.5 1652.47 1337.75 Q1652.47 1333.38 1655.38 1331.15 Q1658.32 1328.93 1664.13 1328.93 L1670.1 1328.93 L1670.1 1328.51 Q1670.1 1325.57 1668.16 1323.98 Q1666.24 1322.36 1662.74 1322.36 Q1660.52 1322.36 1658.41 1322.89 Q1656.31 1323.42 1654.36 1324.49 L1654.36 1320.55 Q1656.7 1319.65 1658.9 1319.21 Q1661.1 1318.75 1663.18 1318.75 Q1668.81 1318.75 1671.59 1321.66 Q1674.36 1324.58 1674.36 1330.5 Z" fill="#000000" fill-rule="nonzero" fill-opacity="1"></path><path clip-path="url(#clip390)" d="M1704.69 1329.65 L1704.69 1345.3 L1700.43 1345.3 L1700.43 1329.79 Q1700.43 1326.11 1698.99 1324.28 Q1697.56 1322.45 1694.69 1322.45 Q1691.24 1322.45 1689.25 1324.65 Q1687.26 1326.85 1687.26 1330.64 L1687.26 1345.3 L1682.97 1345.3 L1682.97 1319.37 L1687.26 1319.37 L1687.26 1323.4 Q1688.78 1321.06 1690.85 1319.9 Q1692.93 1318.75 1695.64 1318.75 Q1700.1 1318.75 1702.4 1321.52 Q1704.69 1324.28 1704.69 1329.65 Z" fill="#000000" fill-rule="nonzero" fill-opacity="1"></path><path clip-path="url(#clip390)" d="M1717.4 1312.01 L1717.4 1319.37 L1726.17 1319.37 L1726.17 1322.68 L1717.4 1322.68 L1717.4 1336.75 Q1717.4 1339.93 1718.25 1340.83 Q1719.13 1341.73 1721.79 1341.73 L1726.17 1341.73 L1726.17 1345.3 L1721.79 1345.3 Q1716.86 1345.3 1714.99 1343.47 Q1713.11 1341.62 1713.11 1336.75 L1713.11 1322.68 L1709.99 1322.68 L1709.99 1319.37 L1713.11 1319.37 L1713.11 1312.01 L1717.4 1312.01 Z" fill="#000000" fill-rule="nonzero" fill-opacity="1"></path><path clip-path="url(#clip390)" d="M1772.9 1313.4 L1772.9 1318.33 Q1770.54 1316.13 1767.86 1315.04 Q1765.2 1313.95 1762.19 1313.95 Q1756.26 1313.95 1753.11 1317.59 Q1749.97 1321.2 1749.97 1328.05 Q1749.97 1334.88 1753.11 1338.51 Q1756.26 1342.12 1762.19 1342.12 Q1765.2 1342.12 1767.86 1341.04 Q1770.54 1339.95 1772.9 1337.75 L1772.9 1342.63 Q1770.45 1344.3 1767.7 1345.13 Q1764.96 1345.97 1761.91 1345.97 Q1754.06 1345.97 1749.55 1341.18 Q1745.03 1336.36 1745.03 1328.05 Q1745.03 1319.72 1749.55 1314.93 Q1754.06 1310.11 1761.91 1310.11 Q1765.01 1310.11 1767.74 1310.94 Q1770.5 1311.75 1772.9 1313.4 Z" fill="#000000" fill-rule="nonzero" fill-opacity="1"></path><path clip-path="url(#clip390)" d="M1779.94 1309.28 L1784.2 1309.28 L1784.2 1345.3 L1779.94 1345.3 L1779.94 1309.28 Z" fill="#000000" fill-rule="nonzero" fill-opacity="1"></path><path clip-path="url(#clip390)" d="M1804.9 1332.26 Q1799.73 1332.26 1797.74 1333.44 Q1795.75 1334.63 1795.75 1337.47 Q1795.75 1339.74 1797.23 1341.08 Q1798.74 1342.4 1801.31 1342.4 Q1804.85 1342.4 1806.98 1339.9 Q1809.13 1337.38 1809.13 1333.21 L1809.13 1332.26 L1804.9 1332.26 M1813.39 1330.5 L1813.39 1345.3 L1809.13 1345.3 L1809.13 1341.36 Q1807.67 1343.72 1805.5 1344.86 Q1803.32 1345.97 1800.17 1345.97 Q1796.19 1345.97 1793.83 1343.75 Q1791.49 1341.5 1791.49 1337.75 Q1791.49 1333.38 1794.41 1331.15 Q1797.35 1328.93 1803.16 1328.93 L1809.13 1328.93 L1809.13 1328.51 Q1809.13 1325.57 1807.19 1323.98 Q1805.27 1322.36 1801.77 1322.36 Q1799.55 1322.36 1797.44 1322.89 Q1795.34 1323.42 1793.39 1324.49 L1793.39 1320.55 Q1795.73 1319.65 1797.93 1319.21 Q1800.13 1318.75 1802.21 1318.75 Q1807.84 1318.75 1810.61 1321.66 Q1813.39 1324.58 1813.39 1330.5 Z" fill="#000000" fill-rule="nonzero" fill-opacity="1"></path><path clip-path="url(#clip390)" d="M1838.69 1320.13 L1838.69 1324.16 Q1836.89 1323.24 1834.94 1322.77 Q1833 1322.31 1830.91 1322.31 Q1827.74 1322.31 1826.15 1323.28 Q1824.57 1324.25 1824.57 1326.2 Q1824.57 1327.68 1825.71 1328.54 Q1826.84 1329.37 1830.27 1330.13 L1831.72 1330.46 Q1836.26 1331.43 1838.16 1333.21 Q1840.08 1334.97 1840.08 1338.14 Q1840.08 1341.75 1837.21 1343.86 Q1834.36 1345.97 1829.36 1345.97 Q1827.28 1345.97 1825.01 1345.55 Q1822.77 1345.16 1820.27 1344.35 L1820.27 1339.95 Q1822.63 1341.18 1824.92 1341.8 Q1827.21 1342.4 1829.46 1342.4 Q1832.46 1342.4 1834.08 1341.38 Q1835.71 1340.34 1835.71 1338.47 Q1835.71 1336.73 1834.52 1335.81 Q1833.37 1334.88 1829.41 1334.02 L1827.93 1333.68 Q1823.97 1332.84 1822.21 1331.13 Q1820.45 1329.39 1820.45 1326.38 Q1820.45 1322.73 1823.04 1320.74 Q1825.64 1318.75 1830.4 1318.75 Q1832.77 1318.75 1834.85 1319.09 Q1836.93 1319.44 1838.69 1320.13 Z" fill="#000000" fill-rule="nonzero" fill-opacity="1"></path><path clip-path="url(#clip390)" d="M1863.39 1320.13 L1863.39 1324.16 Q1861.58 1323.24 1859.64 1322.77 Q1857.7 1322.31 1855.61 1322.31 Q1852.44 1322.31 1850.84 1323.28 Q1849.27 1324.25 1849.27 1326.2 Q1849.27 1327.68 1850.4 1328.54 Q1851.54 1329.37 1854.96 1330.13 L1856.42 1330.46 Q1860.96 1331.43 1862.86 1333.21 Q1864.78 1334.97 1864.78 1338.14 Q1864.78 1341.75 1861.91 1343.86 Q1859.06 1345.97 1854.06 1345.97 Q1851.98 1345.97 1849.71 1345.55 Q1847.46 1345.16 1844.96 1344.35 L1844.96 1339.95 Q1847.33 1341.18 1849.62 1341.8 Q1851.91 1342.4 1854.15 1342.4 Q1857.16 1342.4 1858.78 1341.38 Q1860.4 1340.34 1860.4 1338.47 Q1860.4 1336.73 1859.22 1335.81 Q1858.07 1334.88 1854.11 1334.02 L1852.63 1333.68 Q1848.67 1332.84 1846.91 1331.13 Q1845.15 1329.39 1845.15 1326.38 Q1845.15 1322.73 1847.74 1320.74 Q1850.33 1318.75 1855.1 1318.75 Q1857.46 1318.75 1859.55 1319.09 Q1861.63 1319.44 1863.39 1320.13 Z" fill="#000000" fill-rule="nonzero" fill-opacity="1"></path><path clip-path="url(#clip390)" d="M1871.56 1319.37 L1875.82 1319.37 L1875.82 1345.3 L1871.56 1345.3 L1871.56 1319.37 M1871.56 1309.28 L1875.82 1309.28 L1875.82 1314.67 L1871.56 1314.67 L1871.56 1309.28 Z" fill="#000000" fill-rule="nonzero" fill-opacity="1"></path><path clip-path="url(#clip390)" d="M1897.86 1309.28 L1897.86 1312.82 L1893.78 1312.82 Q1891.49 1312.82 1890.59 1313.75 Q1889.71 1314.67 1889.71 1317.08 L1889.71 1319.37 L1896.72 1319.37 L1896.72 1322.68 L1889.71 1322.68 L1889.71 1345.3 L1885.43 1345.3 L1885.43 1322.68 L1881.35 1322.68 L1881.35 1319.37 L1885.43 1319.37 L1885.43 1317.56 Q1885.43 1313.24 1887.44 1311.27 Q1889.46 1309.28 1893.83 1309.28 L1897.86 1309.28 Z" fill="#000000" fill-rule="nonzero" fill-opacity="1"></path><path clip-path="url(#clip390)" d="M1901.42 1319.37 L1905.68 1319.37 L1905.68 1345.3 L1901.42 1345.3 L1901.42 1319.37 M1901.42 1309.28 L1905.68 1309.28 L1905.68 1314.67 L1901.42 1314.67 L1901.42 1309.28 Z" fill="#000000" fill-rule="nonzero" fill-opacity="1"></path><path clip-path="url(#clip390)" d="M1936.77 1331.27 L1936.77 1333.35 L1917.19 1333.35 Q1917.46 1337.75 1919.83 1340.06 Q1922.21 1342.36 1926.45 1342.36 Q1928.9 1342.36 1931.19 1341.75 Q1933.51 1341.15 1935.77 1339.95 L1935.77 1343.98 Q1933.48 1344.95 1931.08 1345.46 Q1928.67 1345.97 1926.19 1345.97 Q1919.99 1345.97 1916.35 1342.36 Q1912.74 1338.75 1912.74 1332.59 Q1912.74 1326.22 1916.17 1322.5 Q1919.62 1318.75 1925.45 1318.75 Q1930.68 1318.75 1933.71 1322.13 Q1936.77 1325.48 1936.77 1331.27 M1932.51 1330.02 Q1932.46 1326.52 1930.54 1324.44 Q1928.64 1322.36 1925.5 1322.36 Q1921.93 1322.36 1919.78 1324.37 Q1917.65 1326.38 1917.33 1330.04 L1932.51 1330.02 Z" fill="#000000" fill-rule="nonzero" fill-opacity="1"></path><path clip-path="url(#clip390)" d="M1958.78 1323.35 Q1958.07 1322.94 1957.21 1322.75 Q1956.38 1322.54 1955.36 1322.54 Q1951.75 1322.54 1949.8 1324.9 Q1947.88 1327.24 1947.88 1331.64 L1947.88 1345.3 L1943.6 1345.3 L1943.6 1319.37 L1947.88 1319.37 L1947.88 1323.4 Q1949.22 1321.04 1951.38 1319.9 Q1953.53 1318.75 1956.61 1318.75 Q1957.05 1318.75 1957.58 1318.81 Q1958.11 1318.86 1958.76 1318.98 L1958.78 1323.35 Z" fill="#000000" fill-rule="nonzero" fill-opacity="1"></path></svg>