<svg xmlns="http://www.w3.org/2000/svg" xmlns:xlink="http://www.w3.org/1999/xlink" width="600" height="400" viewBox="0 0 2400 1600">
<defs>
  <clipPath id="clip740">
    <rect x="0" y="0" width="2400" height="1600"></rect>
  </clipPath>
</defs>
<path clip-path="url(#clip740)" d="M0 1600 L2400 1600 L2400 0 L0 0  Z" fill="#ffffff" fill-rule="evenodd" fill-opacity="1"></path>
<defs>
  <clipPath id="clip741">
    <rect x="480" y="0" width="1681" height="1600"></rect>
  </clipPath>
</defs>
<path clip-path="url(#clip740)" d="M193.936 1486.45 L2352.76 1486.45 L2352.76 123.472 L193.936 123.472  Z" fill="#ffffff" fill-rule="evenodd" fill-opacity="1"></path>
<defs>
  <clipPath id="clip742">
    <rect x="193" y="123" width="2160" height="1364"></rect>
  </clipPath>
</defs>
<path clip-path="url(#clip740)" d="M486.863 18.8205 L486.863 65.8515 L496.747 65.8515 Q509.264 65.8515 515.057 60.1802 Q520.89 54.509 520.89 42.2752 Q520.89 30.1225 515.057 24.4918 Q509.264 18.8205 496.747 18.8205 L486.863 18.8205 M478.68 12.096 L495.491 12.096 Q513.072 12.096 521.296 19.4281 Q529.519 26.7198 529.519 42.2752 Q529.519 57.9117 521.255 65.2439 Q512.991 72.576 495.491 72.576 L478.68 72.576 L478.68 12.096 Z" fill="#000000" fill-rule="nonzero" fill-opacity="1"></path><path clip-path="url(#clip740)" d="M542.239 27.2059 L549.692 27.2059 L549.692 72.576 L542.239 72.576 L542.239 27.2059 M542.239 9.54393 L549.692 9.54393 L549.692 18.9825 L542.239 18.9825 L542.239 9.54393 Z" fill="#000000" fill-rule="nonzero" fill-opacity="1"></path><path clip-path="url(#clip740)" d="M594.212 28.5427 L594.212 35.5912 Q591.052 33.9709 587.649 33.1607 Q584.247 32.3505 580.601 32.3505 Q575.051 32.3505 572.256 34.0519 Q569.501 35.7533 569.501 39.156 Q569.501 41.7486 571.486 43.2475 Q573.471 44.7058 579.467 46.0426 L582.019 46.6097 Q589.958 48.3111 593.28 51.4303 Q596.642 54.509 596.642 60.0587 Q596.642 66.3781 591.619 70.0644 Q586.637 73.7508 577.887 73.7508 Q574.241 73.7508 570.271 73.0216 Q566.342 72.3329 561.967 70.9151 L561.967 63.2184 Q566.099 65.3654 570.109 66.4591 Q574.119 67.5124 578.049 67.5124 Q583.315 67.5124 586.151 65.73 Q588.986 63.9071 588.986 60.6258 Q588.986 57.5877 586.92 55.9673 Q584.895 54.3469 577.968 52.8481 L575.375 52.2405 Q568.448 50.7821 565.369 47.7845 Q562.291 44.7463 562.291 39.4801 Q562.291 33.0797 566.828 29.5959 Q571.365 26.1121 579.71 26.1121 Q583.842 26.1121 587.487 26.7198 Q591.133 27.3274 594.212 28.5427 Z" fill="#000000" fill-rule="nonzero" fill-opacity="1"></path><path clip-path="url(#clip740)" d="M615.884 14.324 L615.884 27.2059 L631.237 27.2059 L631.237 32.9987 L615.884 32.9987 L615.884 57.6282 Q615.884 63.1779 617.383 64.7578 Q618.922 66.3376 623.581 66.3376 L631.237 66.3376 L631.237 72.576 L623.581 72.576 Q614.952 72.576 611.671 69.3758 Q608.39 66.1351 608.39 57.6282 L608.39 32.9987 L602.921 32.9987 L602.921 27.2059 L608.39 27.2059 L608.39 14.324 L615.884 14.324 Z" fill="#000000" fill-rule="nonzero" fill-opacity="1"></path><path clip-path="url(#clip740)" d="M667.331 34.1734 Q666.075 33.4443 664.576 33.1202 Q663.118 32.7556 661.335 32.7556 Q655.016 32.7556 651.613 36.8875 Q648.251 40.9789 648.251 48.6757 L648.251 72.576 L640.757 72.576 L640.757 27.2059 L648.251 27.2059 L648.251 34.2544 Q650.6 30.1225 654.368 28.1376 Q658.135 26.1121 663.523 26.1121 Q664.293 26.1121 665.224 26.2337 Q666.156 26.3147 667.29 26.5172 L667.331 34.1734 Z" fill="#000000" fill-rule="nonzero" fill-opacity="1"></path><path clip-path="url(#clip740)" d="M675.149 27.2059 L682.603 27.2059 L682.603 72.576 L675.149 72.576 L675.149 27.2059 M675.149 9.54393 L682.603 9.54393 L682.603 18.9825 L675.149 18.9825 L675.149 9.54393 Z" fill="#000000" fill-rule="nonzero" fill-opacity="1"></path><path clip-path="url(#clip740)" d="M730.768 49.9314 Q730.768 41.7081 727.365 37.0496 Q724.003 32.3505 718.089 32.3505 Q712.174 32.3505 708.771 37.0496 Q705.409 41.7081 705.409 49.9314 Q705.409 58.1548 708.771 62.8538 Q712.174 67.5124 718.089 67.5124 Q724.003 67.5124 727.365 62.8538 Q730.768 58.1548 730.768 49.9314 M705.409 34.0924 Q707.759 30.0415 711.324 28.0971 Q714.929 26.1121 719.911 26.1121 Q728.175 26.1121 733.32 32.6746 Q738.505 39.2371 738.505 49.9314 Q738.505 60.6258 733.32 67.1883 Q728.175 73.7508 719.911 73.7508 Q714.929 73.7508 711.324 71.8063 Q707.759 69.8214 705.409 65.7705 L705.409 72.576 L697.915 72.576 L697.915 9.54393 L705.409 9.54393 L705.409 34.0924 Z" fill="#000000" fill-rule="nonzero" fill-opacity="1"></path><path clip-path="url(#clip740)" d="M750.091 54.671 L750.091 27.2059 L757.544 27.2059 L757.544 54.3874 Q757.544 60.8284 760.056 64.0691 Q762.567 67.2693 767.591 67.2693 Q773.626 67.2693 777.11 63.421 Q780.634 59.5726 780.634 52.9291 L780.634 27.2059 L788.088 27.2059 L788.088 72.576 L780.634 72.576 L780.634 65.6084 Q777.92 69.7404 774.315 71.7658 Q770.75 73.7508 766.011 73.7508 Q758.192 73.7508 754.142 68.8897 Q750.091 64.0286 750.091 54.671 M768.846 26.1121 L768.846 26.1121 Z" fill="#000000" fill-rule="nonzero" fill-opacity="1"></path><path clip-path="url(#clip740)" d="M800.2 27.2059 L835.605 27.2059 L835.605 34.0114 L807.573 66.6212 L835.605 66.6212 L835.605 72.576 L799.188 72.576 L799.188 65.7705 L827.22 33.1607 L800.2 33.1607 L800.2 27.2059 Z" fill="#000000" fill-rule="nonzero" fill-opacity="1"></path><path clip-path="url(#clip740)" d="M846.988 27.2059 L854.442 27.2059 L854.442 72.576 L846.988 72.576 L846.988 27.2059 M846.988 9.54393 L854.442 9.54393 L854.442 18.9825 L846.988 18.9825 L846.988 9.54393 Z" fill="#000000" fill-rule="nonzero" fill-opacity="1"></path><path clip-path="url(#clip740)" d="M887.619 32.4315 Q881.624 32.4315 878.14 37.1306 Q874.656 41.7891 874.656 49.9314 Q874.656 58.0738 878.099 62.7728 Q881.583 67.4314 887.619 67.4314 Q893.574 67.4314 897.057 62.7323 Q900.541 58.0333 900.541 49.9314 Q900.541 41.8701 897.057 37.1711 Q893.574 32.4315 887.619 32.4315 M887.619 26.1121 Q897.341 26.1121 902.891 32.4315 Q908.44 38.7509 908.44 49.9314 Q908.44 61.0714 902.891 67.4314 Q897.341 73.7508 887.619 73.7508 Q877.856 73.7508 872.306 67.4314 Q866.797 61.0714 866.797 49.9314 Q866.797 38.7509 872.306 32.4315 Q877.856 26.1121 887.619 26.1121 Z" fill="#000000" fill-rule="nonzero" fill-opacity="1"></path><path clip-path="url(#clip740)" d="M958.51 45.1919 L958.51 72.576 L951.056 72.576 L951.056 45.4349 Q951.056 38.994 948.544 35.7938 Q946.033 32.5936 941.01 32.5936 Q934.974 32.5936 931.49 36.4419 Q928.006 40.2903 928.006 46.9338 L928.006 72.576 L920.512 72.576 L920.512 27.2059 L928.006 27.2059 L928.006 34.2544 Q930.68 30.163 934.285 28.1376 Q937.931 26.1121 942.671 26.1121 Q950.489 26.1121 954.499 30.9732 Q958.51 35.7938 958.51 45.1919 Z" fill="#000000" fill-rule="nonzero" fill-opacity="1"></path><path clip-path="url(#clip740)" d="M1012.18 48.0275 L1012.18 51.6733 L977.914 51.6733 Q978.4 59.3701 982.532 63.421 Q986.704 67.4314 994.117 67.4314 Q998.411 67.4314 1002.42 66.3781 Q1006.47 65.3249 1010.44 63.2184 L1010.44 70.267 Q1006.43 71.9684 1002.22 72.8596 Q998.006 73.7508 993.672 73.7508 Q982.815 73.7508 976.455 67.4314 Q970.136 61.1119 970.136 50.3365 Q970.136 39.1965 976.131 32.6746 Q982.167 26.1121 992.375 26.1121 Q1001.53 26.1121 1006.84 32.0264 Q1012.18 37.9003 1012.18 48.0275 M1004.73 45.84 Q1004.65 39.7232 1001.29 36.0774 Q997.965 32.4315 992.456 32.4315 Q986.218 32.4315 982.451 35.9558 Q978.724 39.4801 978.157 45.8805 L1004.73 45.84 Z" fill="#000000" fill-rule="nonzero" fill-opacity="1"></path><path clip-path="url(#clip740)" d="M1080.64 34.0924 L1080.64 9.54393 L1088.1 9.54393 L1088.1 72.576 L1080.64 72.576 L1080.64 65.7705 Q1078.29 69.8214 1074.69 71.8063 Q1071.12 73.7508 1066.1 73.7508 Q1057.88 73.7508 1052.69 67.1883 Q1047.55 60.6258 1047.55 49.9314 Q1047.55 39.2371 1052.69 32.6746 Q1057.88 26.1121 1066.1 26.1121 Q1071.12 26.1121 1074.69 28.0971 Q1078.29 30.0415 1080.64 34.0924 M1055.25 49.9314 Q1055.25 58.1548 1058.61 62.8538 Q1062.01 67.5124 1067.92 67.5124 Q1073.84 67.5124 1077.24 62.8538 Q1080.64 58.1548 1080.64 49.9314 Q1080.64 41.7081 1077.24 37.0496 Q1073.84 32.3505 1067.92 32.3505 Q1062.01 32.3505 1058.61 37.0496 Q1055.25 41.7081 1055.25 49.9314 Z" fill="#000000" fill-rule="nonzero" fill-opacity="1"></path><path clip-path="url(#clip740)" d="M1142.26 48.0275 L1142.26 51.6733 L1107.99 51.6733 Q1108.47 59.3701 1112.61 63.421 Q1116.78 67.4314 1124.19 67.4314 Q1128.49 67.4314 1132.5 66.3781 Q1136.55 65.3249 1140.52 63.2184 L1140.52 70.267 Q1136.51 71.9684 1132.29 72.8596 Q1128.08 73.7508 1123.75 73.7508 Q1112.89 73.7508 1106.53 67.4314 Q1100.21 61.1119 1100.21 50.3365 Q1100.21 39.1965 1106.21 32.6746 Q1112.24 26.1121 1122.45 26.1121 Q1131.6 26.1121 1136.91 32.0264 Q1142.26 37.9003 1142.26 48.0275 M1134.81 45.84 Q1134.72 39.7232 1131.36 36.0774 Q1128.04 32.4315 1122.53 32.4315 Q1116.29 32.4315 1112.53 35.9558 Q1108.8 39.4801 1108.23 45.8805 L1134.81 45.84 Z" fill="#000000" fill-rule="nonzero" fill-opacity="1"></path><path clip-path="url(#clip740)" d="M1154.49 9.54393 L1161.95 9.54393 L1161.95 72.576 L1154.49 72.576 L1154.49 9.54393 Z" fill="#000000" fill-rule="nonzero" fill-opacity="1"></path><path clip-path="url(#clip740)" d="M1177.54 9.54393 L1185 9.54393 L1185 72.576 L1177.54 72.576 L1177.54 9.54393 Z" fill="#000000" fill-rule="nonzero" fill-opacity="1"></path><path clip-path="url(#clip740)" d="M1239.4 48.0275 L1239.4 51.6733 L1205.13 51.6733 Q1205.61 59.3701 1209.75 63.421 Q1213.92 67.4314 1221.33 67.4314 Q1225.63 67.4314 1229.64 66.3781 Q1233.69 65.3249 1237.66 63.2184 L1237.66 70.267 Q1233.65 71.9684 1229.43 72.8596 Q1225.22 73.7508 1220.89 73.7508 Q1210.03 73.7508 1203.67 67.4314 Q1197.35 61.1119 1197.35 50.3365 Q1197.35 39.1965 1203.35 32.6746 Q1209.38 26.1121 1219.59 26.1121 Q1228.75 26.1121 1234.05 32.0264 Q1239.4 37.9003 1239.4 48.0275 M1231.95 45.84 Q1231.86 39.7232 1228.5 36.0774 Q1225.18 32.4315 1219.67 32.4315 Q1213.43 32.4315 1209.67 35.9558 Q1205.94 39.4801 1205.37 45.8805 L1231.95 45.84 Z" fill="#000000" fill-rule="nonzero" fill-opacity="1"></path><path clip-path="url(#clip740)" d="M1269.94 12.096 L1321.11 12.096 L1321.11 18.9825 L1299.64 18.9825 L1299.64 72.576 L1291.41 72.576 L1291.41 18.9825 L1269.94 18.9825 L1269.94 12.096 Z" fill="#000000" fill-rule="nonzero" fill-opacity="1"></path><path clip-path="url(#clip740)" d="M1326.13 27.2059 L1333.58 27.2059 L1333.58 72.576 L1326.13 72.576 L1326.13 27.2059 M1326.13 9.54393 L1333.58 9.54393 L1333.58 18.9825 L1326.13 18.9825 L1326.13 9.54393 Z" fill="#000000" fill-rule="nonzero" fill-opacity="1"></path><path clip-path="url(#clip740)" d="M1356.39 65.7705 L1356.39 89.8329 L1348.9 89.8329 L1348.9 27.2059 L1356.39 27.2059 L1356.39 34.0924 Q1358.74 30.0415 1362.3 28.0971 Q1365.91 26.1121 1370.89 26.1121 Q1379.16 26.1121 1384.3 32.6746 Q1389.49 39.2371 1389.49 49.9314 Q1389.49 60.6258 1384.3 67.1883 Q1379.16 73.7508 1370.89 73.7508 Q1365.91 73.7508 1362.3 71.8063 Q1358.74 69.8214 1356.39 65.7705 M1381.75 49.9314 Q1381.75 41.7081 1378.35 37.0496 Q1374.98 32.3505 1369.07 32.3505 Q1363.15 32.3505 1359.75 37.0496 Q1356.39 41.7081 1356.39 49.9314 Q1356.39 58.1548 1359.75 62.8538 Q1363.15 67.5124 1369.07 67.5124 Q1374.98 67.5124 1378.35 62.8538 Q1381.75 58.1548 1381.75 49.9314 Z" fill="#000000" fill-rule="nonzero" fill-opacity="1"></path><path clip-path="url(#clip740)" d="M1419.42 32.4315 Q1413.43 32.4315 1409.94 37.1306 Q1406.46 41.7891 1406.46 49.9314 Q1406.46 58.0738 1409.9 62.7728 Q1413.39 67.4314 1419.42 67.4314 Q1425.38 67.4314 1428.86 62.7323 Q1432.34 58.0333 1432.34 49.9314 Q1432.34 41.8701 1428.86 37.1711 Q1425.38 32.4315 1419.42 32.4315 M1419.42 26.1121 Q1429.14 26.1121 1434.69 32.4315 Q1440.24 38.7509 1440.24 49.9314 Q1440.24 61.0714 1434.69 67.4314 Q1429.14 73.7508 1419.42 73.7508 Q1409.66 73.7508 1404.11 67.4314 Q1398.6 61.0714 1398.6 49.9314 Q1398.6 38.7509 1404.11 32.4315 Q1409.66 26.1121 1419.42 26.1121 Z" fill="#000000" fill-rule="nonzero" fill-opacity="1"></path><path clip-path="url(#clip740)" d="M1452.6 9.54393 L1460.05 9.54393 L1460.05 72.576 L1452.6 72.576 L1452.6 9.54393 Z" fill="#000000" fill-rule="nonzero" fill-opacity="1"></path><path clip-path="url(#clip740)" d="M1493.23 32.4315 Q1487.23 32.4315 1483.75 37.1306 Q1480.27 41.7891 1480.27 49.9314 Q1480.27 58.0738 1483.71 62.7728 Q1487.19 67.4314 1493.23 67.4314 Q1499.18 67.4314 1502.67 62.7323 Q1506.15 58.0333 1506.15 49.9314 Q1506.15 41.8701 1502.67 37.1711 Q1499.18 32.4315 1493.23 32.4315 M1493.23 26.1121 Q1502.95 26.1121 1508.5 32.4315 Q1514.05 38.7509 1514.05 49.9314 Q1514.05 61.0714 1508.5 67.4314 Q1502.95 73.7508 1493.23 73.7508 Q1483.47 73.7508 1477.92 67.4314 Q1472.41 61.0714 1472.41 49.9314 Q1472.41 38.7509 1477.92 32.4315 Q1483.47 26.1121 1493.23 26.1121 Z" fill="#000000" fill-rule="nonzero" fill-opacity="1"></path><path clip-path="url(#clip740)" d="M1556.26 49.3643 Q1556.26 41.2625 1552.9 36.8065 Q1549.58 32.3505 1543.54 32.3505 Q1537.55 32.3505 1534.18 36.8065 Q1530.86 41.2625 1530.86 49.3643 Q1530.86 57.4256 1534.18 61.8816 Q1537.55 66.3376 1543.54 66.3376 Q1549.58 66.3376 1552.9 61.8816 Q1556.26 57.4256 1556.26 49.3643 M1563.71 66.9452 Q1563.71 78.5308 1558.57 84.1616 Q1553.43 89.8329 1542.81 89.8329 Q1538.88 89.8329 1535.4 89.2252 Q1531.92 88.6581 1528.63 87.4428 L1528.63 80.1917 Q1531.92 81.9741 1535.12 82.8248 Q1538.32 83.6755 1541.64 83.6755 Q1548.97 83.6755 1552.62 79.8271 Q1556.26 76.0193 1556.26 68.282 L1556.26 64.5957 Q1553.95 68.6061 1550.35 70.5911 Q1546.74 72.576 1541.72 72.576 Q1533.37 72.576 1528.27 66.2161 Q1523.17 59.8562 1523.17 49.3643 Q1523.17 38.832 1528.27 32.472 Q1533.37 26.1121 1541.72 26.1121 Q1546.74 26.1121 1550.35 28.0971 Q1553.95 30.082 1556.26 34.0924 L1556.26 27.2059 L1563.71 27.2059 L1563.71 66.9452 Z" fill="#000000" fill-rule="nonzero" fill-opacity="1"></path><path clip-path="url(#clip740)" d="M1579.07 27.2059 L1586.52 27.2059 L1586.52 72.576 L1579.07 72.576 L1579.07 27.2059 M1579.07 9.54393 L1586.52 9.54393 L1586.52 18.9825 L1579.07 18.9825 L1579.07 9.54393 Z" fill="#000000" fill-rule="nonzero" fill-opacity="1"></path><path clip-path="url(#clip740)" d="M1640.93 48.0275 L1640.93 51.6733 L1606.65 51.6733 Q1607.14 59.3701 1611.27 63.421 Q1615.44 67.4314 1622.86 67.4314 Q1627.15 67.4314 1631.16 66.3781 Q1635.21 65.3249 1639.18 63.2184 L1639.18 70.267 Q1635.17 71.9684 1630.96 72.8596 Q1626.75 73.7508 1622.41 73.7508 Q1611.56 73.7508 1605.2 67.4314 Q1598.88 61.1119 1598.88 50.3365 Q1598.88 39.1965 1604.87 32.6746 Q1610.91 26.1121 1621.12 26.1121 Q1630.27 26.1121 1635.58 32.0264 Q1640.93 37.9003 1640.93 48.0275 M1633.47 45.84 Q1633.39 39.7232 1630.03 36.0774 Q1626.71 32.4315 1621.2 32.4315 Q1614.96 32.4315 1611.19 35.9558 Q1607.46 39.4801 1606.9 45.8805 L1633.47 45.84 Z" fill="#000000" fill-rule="nonzero" fill-opacity="1"></path><path clip-path="url(#clip740)" d="M1709.39 34.0924 L1709.39 9.54393 L1716.84 9.54393 L1716.84 72.576 L1709.39 72.576 L1709.39 65.7705 Q1707.04 69.8214 1703.43 71.8063 Q1699.87 73.7508 1694.84 73.7508 Q1686.62 73.7508 1681.43 67.1883 Q1676.29 60.6258 1676.29 49.9314 Q1676.29 39.2371 1681.43 32.6746 Q1686.62 26.1121 1694.84 26.1121 Q1699.87 26.1121 1703.43 28.0971 Q1707.04 30.0415 1709.39 34.0924 M1683.99 49.9314 Q1683.99 58.1548 1687.35 62.8538 Q1690.75 67.5124 1696.67 67.5124 Q1702.58 67.5124 1705.98 62.8538 Q1709.39 58.1548 1709.39 49.9314 Q1709.39 41.7081 1705.98 37.0496 Q1702.58 32.3505 1696.67 32.3505 Q1690.75 32.3505 1687.35 37.0496 Q1683.99 41.7081 1683.99 49.9314 Z" fill="#000000" fill-rule="nonzero" fill-opacity="1"></path><path clip-path="url(#clip740)" d="M1732.19 27.2059 L1739.65 27.2059 L1739.65 72.576 L1732.19 72.576 L1732.19 27.2059 M1732.19 9.54393 L1739.65 9.54393 L1739.65 18.9825 L1732.19 18.9825 L1732.19 9.54393 Z" fill="#000000" fill-rule="nonzero" fill-opacity="1"></path><path clip-path="url(#clip740)" d="M1781.94 12.096 L1790.12 12.096 L1790.12 72.576 L1781.94 72.576 L1781.94 12.096 Z" fill="#000000" fill-rule="nonzero" fill-opacity="1"></path><path clip-path="url(#clip740)" d="M1843.79 45.1919 L1843.79 72.576 L1836.34 72.576 L1836.34 45.4349 Q1836.34 38.994 1833.83 35.7938 Q1831.32 32.5936 1826.29 32.5936 Q1820.26 32.5936 1816.77 36.4419 Q1813.29 40.2903 1813.29 46.9338 L1813.29 72.576 L1805.8 72.576 L1805.8 27.2059 L1813.29 27.2059 L1813.29 34.2544 Q1815.96 30.163 1819.57 28.1376 Q1823.22 26.1121 1827.96 26.1121 Q1835.77 26.1121 1839.78 30.9732 Q1843.79 35.7938 1843.79 45.1919 Z" fill="#000000" fill-rule="nonzero" fill-opacity="1"></path><path clip-path="url(#clip740)" d="M1891.31 28.9478 L1891.31 35.9153 Q1888.15 34.1734 1884.95 33.3227 Q1881.79 32.4315 1878.55 32.4315 Q1871.3 32.4315 1867.29 37.0496 Q1863.28 41.6271 1863.28 49.9314 Q1863.28 58.2358 1867.29 62.8538 Q1871.3 67.4314 1878.55 67.4314 Q1881.79 67.4314 1884.95 66.5807 Q1888.15 65.6895 1891.31 63.9476 L1891.31 70.8341 Q1888.19 72.2924 1884.83 73.0216 Q1881.51 73.7508 1877.74 73.7508 Q1867.49 73.7508 1861.46 67.3098 Q1855.42 60.8689 1855.42 49.9314 Q1855.42 38.832 1861.5 32.472 Q1867.61 26.1121 1878.23 26.1121 Q1881.67 26.1121 1884.95 26.8413 Q1888.23 27.5299 1891.31 28.9478 Z" fill="#000000" fill-rule="nonzero" fill-opacity="1"></path><path clip-path="url(#clip740)" d="M1943.08 48.0275 L1943.08 51.6733 L1908.81 51.6733 Q1909.3 59.3701 1913.43 63.421 Q1917.6 67.4314 1925.01 67.4314 Q1929.31 67.4314 1933.32 66.3781 Q1937.37 65.3249 1941.34 63.2184 L1941.34 70.267 Q1937.33 71.9684 1933.12 72.8596 Q1928.9 73.7508 1924.57 73.7508 Q1913.71 73.7508 1907.35 67.4314 Q1901.03 61.1119 1901.03 50.3365 Q1901.03 39.1965 1907.03 32.6746 Q1913.06 26.1121 1923.27 26.1121 Q1932.43 26.1121 1937.73 32.0264 Q1943.08 37.9003 1943.08 48.0275 M1935.63 45.84 Q1935.55 39.7232 1932.19 36.0774 Q1928.86 32.4315 1923.35 32.4315 Q1917.12 32.4315 1913.35 35.9558 Q1909.62 39.4801 1909.05 45.8805 L1935.63 45.84 Z" fill="#000000" fill-rule="nonzero" fill-opacity="1"></path><path clip-path="url(#clip740)" d="M1993.03 45.1919 L1993.03 72.576 L1985.58 72.576 L1985.58 45.4349 Q1985.58 38.994 1983.06 35.7938 Q1980.55 32.5936 1975.53 32.5936 Q1969.49 32.5936 1966.01 36.4419 Q1962.53 40.2903 1962.53 46.9338 L1962.53 72.576 L1955.03 72.576 L1955.03 27.2059 L1962.53 27.2059 L1962.53 34.2544 Q1965.2 30.163 1968.81 28.1376 Q1972.45 26.1121 1977.19 26.1121 Q1985.01 26.1121 1989.02 30.9732 Q1993.03 35.7938 1993.03 45.1919 Z" fill="#000000" fill-rule="nonzero" fill-opacity="1"></path><path clip-path="url(#clip740)" d="M2037.75 34.0924 L2037.75 9.54393 L2045.21 9.54393 L2045.21 72.576 L2037.75 72.576 L2037.75 65.7705 Q2035.4 69.8214 2031.8 71.8063 Q2028.23 73.7508 2023.21 73.7508 Q2014.99 73.7508 2009.8 67.1883 Q2004.66 60.6258 2004.66 49.9314 Q2004.66 39.2371 2009.8 32.6746 Q2014.99 26.1121 2023.21 26.1121 Q2028.23 26.1121 2031.8 28.0971 Q2035.4 30.0415 2037.75 34.0924 M2012.35 49.9314 Q2012.35 58.1548 2015.71 62.8538 Q2019.12 67.5124 2025.03 67.5124 Q2030.95 67.5124 2034.35 62.8538 Q2037.75 58.1548 2037.75 49.9314 Q2037.75 41.7081 2034.35 37.0496 Q2030.95 32.3505 2025.03 32.3505 Q2019.12 32.3505 2015.71 37.0496 Q2012.35 41.7081 2012.35 49.9314 Z" fill="#000000" fill-rule="nonzero" fill-opacity="1"></path><path clip-path="url(#clip740)" d="M2060.56 27.2059 L2068.01 27.2059 L2068.01 72.576 L2060.56 72.576 L2060.56 27.2059 M2060.56 9.54393 L2068.01 9.54393 L2068.01 18.9825 L2060.56 18.9825 L2060.56 9.54393 Z" fill="#000000" fill-rule="nonzero" fill-opacity="1"></path><path clip-path="url(#clip742)" d="M1273.27 804.975 L1916.25 804.975 L1915.41 772.142 L1912.9 739.396 L1908.72 706.82 L1902.88 674.501 L1895.39 642.521 L1886.28 610.966 L1875.58 579.917 L1863.3 549.455 L1849.48 519.66 L1834.16 490.609 L1817.38 462.379 L1799.17 435.042 L1779.6 408.671 L1758.7 383.333 L1736.54 359.096 L1713.17 336.022 L1688.65 314.171 L1663.04 293.601 L1636.42 274.366 L1608.85 256.515 L1580.41 240.094 L1551.17 225.148 L1521.2 211.714 L1490.58 199.828 L1459.39 189.522 L1427.72 180.821 L1395.65 173.748 L1363.26 168.322 L1330.63 164.558 L1297.86 162.464 L1265.02 162.047 L1232.2 163.307 L1199.49 166.242 L1166.97 170.842 L1134.73 177.098 L1102.84 184.992 L1071.41 194.503 L1040.5 205.607 L1010.2 218.275 L980.583 232.473 L951.731 248.166 L923.719 265.311 L896.618 283.864 L870.5 303.777 L845.433 324.997 L821.482 347.47 L798.71 371.136 L777.176 395.935 L756.937 421.8 L1273.27 804.975  Z" fill="#009af9" fill-rule="evenodd" fill-opacity="1"></path>
<polyline clip-path="url(#clip742)" style="stroke:#000000; stroke-linecap:round; stroke-linejoin:round; stroke-width:4; stroke-opacity:1; fill:none" points="1273.27,804.975 1916.25,804.975 1915.41,772.142 1912.9,739.396 1908.72,706.82 1902.88,674.501 1895.39,642.521 1886.28,610.966 1875.58,579.917 1863.3,549.455 1849.48,519.66 1834.16,490.609 1817.38,462.379 1799.17,435.042 1779.6,408.671 1758.7,383.333 1736.54,359.096 1713.17,336.022 1688.65,314.171 1663.04,293.601 1636.42,274.366 1608.85,256.515 1580.41,240.094 1551.17,225.148 1521.2,211.714 1490.58,199.828 1459.39,189.522 1427.72,180.821 1395.65,173.748 1363.26,168.322 1330.63,164.558 1297.86,162.464 1265.02,162.047 1232.2,163.307 1199.49,166.242 1166.97,170.842 1134.73,177.098 1102.84,184.992 1071.41,194.503 1040.5,205.607 1010.2,218.275 980.583,232.473 951.731,248.166 923.719,265.311 896.618,283.864 870.5,303.777 845.433,324.997 821.482,347.47 798.71,371.136 777.176,395.935 756.937,421.8 1273.27,804.975 "></polyline>
<path clip-path="url(#clip742)" d="M1273.27 804.975 L756.937 421.8 L740.559 444.916 L725.216 468.731 L710.937 493.198 L697.75 518.271 L685.679 543.9 L674.75 570.036 L664.982 596.628 L656.395 623.625 L649.005 650.973 L642.828 678.621 L637.874 706.513 L634.154 734.597 L631.674 762.818 L630.44 791.12 L630.453 819.45 L631.715 847.751 L634.222 875.969 L637.969 904.049 L642.95 931.937 L649.154 959.579 L656.57 986.92 L665.183 1013.91 L674.977 1040.49 L685.932 1066.62 L698.027 1092.23 L711.238 1117.29 L725.541 1141.75 L740.907 1165.55 L757.307 1188.65 L774.708 1211 L793.077 1232.57 L812.378 1253.31 L832.573 1273.17 L853.625 1292.13 L875.49 1310.14 L898.128 1327.17 L921.495 1343.19 L945.544 1358.16 L970.229 1372.06 L995.503 1384.86 L1021.32 1396.53 L1047.62 1407.06 L1074.36 1416.41 L1101.48 1424.58 L1128.94 1431.55 L1156.68 1437.3 L1184.65 1441.82 L1212.79 1445.1 L1241.04 1447.15 L1273.27 804.975  Z" fill="#e26f46" fill-rule="evenodd" fill-opacity="1"></path>
<polyline clip-path="url(#clip742)" style="stroke:#000000; stroke-linecap:round; stroke-linejoin:round; stroke-width:4; stroke-opacity:1; fill:none" points="1273.27,804.975 756.937,421.8 740.559,444.916 725.216,468.731 710.937,493.198 697.75,518.271 685.679,543.9 674.75,570.036 664.982,596.628 656.395,623.625 649.005,650.973 642.828,678.621 637.874,706.513 634.154,734.597 631.674,762.818 630.44,791.12 630.453,819.45 631.715,847.751 634.222,875.969 637.969,904.049 642.95,931.937 649.154,959.579 656.57,986.92 665.183,1013.91 674.977,1040.49 685.932,1066.62 698.027,1092.23 711.238,1117.29 725.541,1141.75 740.907,1165.55 757.307,1188.65 774.708,1211 793.077,1232.57 812.378,1253.31 832.573,1273.17 853.625,1292.13 875.49,1310.14 898.128,1327.17 921.495,1343.19 945.544,1358.16 970.229,1372.06 995.503,1384.86 1021.32,1396.53 1047.62,1407.06 1074.36,1416.41 1101.48,1424.58 1128.94,1431.55 1156.68,1437.3 1184.65,1441.82 1212.79,1445.1 1241.04,1447.15 1273.27,804.975 "></polyline>
<path clip-path="url(#clip742)" d="M1273.27 804.975 L1241.04 1447.15 L1262.3 1447.86 L1283.57 1447.87 L1304.83 1447.18 L1326.05 1445.79 L1347.22 1443.69 L1368.3 1440.89 L1389.28 1437.4 L1410.13 1433.22 L1430.84 1428.35 L1451.37 1422.8 L1471.71 1416.57 L1491.83 1409.67 L1511.71 1402.11 L1531.33 1393.9 L1550.66 1385.04 L1569.7 1375.55 L1588.41 1365.43 L1606.77 1354.7 L1624.77 1343.37 L1642.39 1331.45 L1659.6 1318.96 L1676.38 1305.9 L1692.73 1292.29 L1708.62 1278.15 L1724.03 1263.49 L1738.95 1248.33 L1753.36 1232.69 L1767.24 1216.58 L1780.59 1200.01 L1793.37 1183.02 L1805.59 1165.61 L1817.23 1147.81 L1828.27 1129.63 L1838.71 1111.09 L1848.52 1092.22 L1857.71 1073.04 L1866.25 1053.56 L1874.15 1033.82 L1881.39 1013.82 L1887.97 993.59 L1893.87 973.156 L1899.09 952.538 L1903.63 931.759 L1907.48 910.841 L1910.63 889.807 L1913.09 868.68 L1914.85 847.484 L1915.9 826.241 L1916.25 804.975 L1273.27 804.975  Z" fill="#3da44d" fill-rule="evenodd" fill-opacity="1"></path>
<polyline clip-path="url(#clip742)" style="stroke:#000000; stroke-linecap:round; stroke-linejoin:round; stroke-width:4; stroke-opacity:1; fill:none" points="1273.27,804.975 1241.04,1447.15 1262.3,1447.86 1283.57,1447.87 1304.83,1447.18 1326.05,1445.79 1347.22,1443.69 1368.3,1440.89 1389.28,1437.4 1410.13,1433.22 1430.84,1428.35 1451.37,1422.8 1471.71,1416.57 1491.83,1409.67 1511.71,1402.11 1531.33,1393.9 1550.66,1385.04 1569.7,1375.55 1588.41,1365.43 1606.77,1354.7 1624.77,1343.37 1642.39,1331.45 1659.6,1318.96 1676.38,1305.9 1692.73,1292.29 1708.62,1278.15 1724.03,1263.49 1738.95,1248.33 1753.36,1232.69 1767.24,1216.58 1780.59,1200.01 1793.37,1183.02 1805.59,1165.61 1817.23,1147.81 1828.27,1129.63 1838.71,1111.09 1848.52,1092.22 1857.71,1073.04 1866.25,1053.56 1874.15,1033.82 1881.39,1013.82 1887.97,993.59 1893.87,973.156 1899.09,952.538 1903.63,931.759 1907.48,910.841 1910.63,889.807 1913.09,868.68 1914.85,847.484 1915.9,826.241 1916.25,804.975 1273.27,804.975 "></polyline>
<path clip-path="url(#clip740)" d="M265.897 376.265 L675.528 376.265 L675.528 168.905 L265.897 168.905  Z" fill="#ffffff" fill-rule="evenodd" fill-opacity="1"></path>
<polyline clip-path="url(#clip740)" style="stroke:#000000; stroke-linecap:round; stroke-linejoin:round; stroke-width:4; stroke-opacity:1; fill:none" points="265.897,376.265 675.528,376.265 675.528,168.905 265.897,168.905 265.897,376.265 "></polyline>
<path clip-path="url(#clip740)" d="M289.884 241.481 L433.805 241.481 L433.805 200.009 L289.884 200.009 L289.884 241.481  Z" fill="#009af9" fill-rule="evenodd" fill-opacity="1"></path>
<polyline clip-path="url(#clip740)" style="stroke:#000000; stroke-linecap:round; stroke-linejoin:round; stroke-width:4; stroke-opacity:1; fill:none" points="289.884,241.481 433.805,241.481 433.805,200.009 289.884,200.009 289.884,241.481 "></polyline>
<path clip-path="url(#clip740)" d="M462.468 221.52 L462.468 234.182 L469.968 234.182 Q473.741 234.182 475.546 232.631 Q477.375 231.057 477.375 227.84 Q477.375 224.599 475.546 223.071 Q473.741 221.52 469.968 221.52 L462.468 221.52 M462.468 207.307 L462.468 217.724 L469.389 217.724 Q472.815 217.724 474.481 216.451 Q476.171 215.154 476.171 212.516 Q476.171 209.9 474.481 208.604 Q472.815 207.307 469.389 207.307 L462.468 207.307 M457.792 203.465 L469.736 203.465 Q475.083 203.465 477.977 205.687 Q480.87 207.909 480.87 212.006 Q480.87 215.178 479.389 217.053 Q477.907 218.928 475.037 219.39 Q478.486 220.131 480.384 222.492 Q482.306 224.83 482.306 228.349 Q482.306 232.978 479.157 235.502 Q476.009 238.025 470.199 238.025 L457.792 238.025 L457.792 203.465 Z" fill="#000000" fill-rule="nonzero" fill-opacity="1"></path><path clip-path="url(#clip740)" d="M500.176 215.085 Q496.75 215.085 494.759 217.77 Q492.768 220.432 492.768 225.085 Q492.768 229.738 494.736 232.423 Q496.727 235.085 500.176 235.085 Q503.579 235.085 505.569 232.4 Q507.56 229.715 507.56 225.085 Q507.56 220.478 505.569 217.793 Q503.579 215.085 500.176 215.085 M500.176 211.474 Q505.731 211.474 508.903 215.085 Q512.074 218.696 512.074 225.085 Q512.074 231.451 508.903 235.085 Q505.731 238.696 500.176 238.696 Q494.597 238.696 491.426 235.085 Q488.278 231.451 488.278 225.085 Q488.278 218.696 491.426 215.085 Q494.597 211.474 500.176 211.474 Z" fill="#000000" fill-rule="nonzero" fill-opacity="1"></path><path clip-path="url(#clip740)" d="M535.662 212.863 L535.662 216.891 Q533.856 215.965 531.912 215.502 Q529.967 215.039 527.884 215.039 Q524.713 215.039 523.115 216.011 Q521.541 216.983 521.541 218.928 Q521.541 220.409 522.676 221.265 Q523.81 222.099 527.236 222.863 L528.694 223.187 Q533.231 224.159 535.129 225.941 Q537.051 227.701 537.051 230.872 Q537.051 234.483 534.18 236.589 Q531.333 238.696 526.333 238.696 Q524.25 238.696 521.981 238.279 Q519.736 237.886 517.236 237.076 L517.236 232.677 Q519.597 233.904 521.889 234.529 Q524.18 235.131 526.426 235.131 Q529.435 235.131 531.055 234.113 Q532.676 233.071 532.676 231.196 Q532.676 229.46 531.495 228.534 Q530.338 227.608 526.379 226.752 L524.898 226.404 Q520.94 225.571 519.18 223.858 Q517.421 222.122 517.421 219.113 Q517.421 215.455 520.014 213.465 Q522.606 211.474 527.375 211.474 Q529.736 211.474 531.819 211.821 Q533.902 212.168 535.662 212.863 Z" fill="#000000" fill-rule="nonzero" fill-opacity="1"></path><path clip-path="url(#clip740)" d="M562.49 213.094 L562.49 217.076 Q560.685 216.08 558.856 215.594 Q557.05 215.085 555.199 215.085 Q551.055 215.085 548.763 217.724 Q546.472 220.34 546.472 225.085 Q546.472 229.83 548.763 232.469 Q551.055 235.085 555.199 235.085 Q557.05 235.085 558.856 234.599 Q560.685 234.089 562.49 233.094 L562.49 237.029 Q560.708 237.863 558.787 238.279 Q556.888 238.696 554.736 238.696 Q548.879 238.696 545.43 235.015 Q541.981 231.335 541.981 225.085 Q541.981 218.742 545.453 215.108 Q548.949 211.474 555.013 211.474 Q556.981 211.474 558.856 211.891 Q560.731 212.284 562.49 213.094 Z" fill="#000000" fill-rule="nonzero" fill-opacity="1"></path><path clip-path="url(#clip740)" d="M579.944 215.085 Q576.518 215.085 574.527 217.77 Q572.537 220.432 572.537 225.085 Q572.537 229.738 574.504 232.423 Q576.495 235.085 579.944 235.085 Q583.347 235.085 585.337 232.4 Q587.328 229.715 587.328 225.085 Q587.328 220.478 585.337 217.793 Q583.347 215.085 579.944 215.085 M579.944 211.474 Q585.499 211.474 588.671 215.085 Q591.842 218.696 591.842 225.085 Q591.842 231.451 588.671 235.085 Q585.499 238.696 579.944 238.696 Q574.365 238.696 571.194 235.085 Q568.046 231.451 568.046 225.085 Q568.046 218.696 571.194 215.085 Q574.365 211.474 579.944 211.474 Z" fill="#000000" fill-rule="nonzero" fill-opacity="1"></path><path clip-path="url(#clip740)" d="M289.884 293.321 L433.805 293.321 L433.805 251.849 L289.884 251.849 L289.884 293.321  Z" fill="#e26f46" fill-rule="evenodd" fill-opacity="1"></path>
<polyline clip-path="url(#clip740)" style="stroke:#000000; stroke-linecap:round; stroke-linejoin:round; stroke-width:4; stroke-opacity:1; fill:none" points="289.884,293.321 433.805,293.321 433.805,251.849 289.884,251.849 289.884,293.321 "></polyline>
<path clip-path="url(#clip740)" d="M457.792 255.305 L464.759 255.305 L473.579 278.823 L482.444 255.305 L489.412 255.305 L489.412 289.865 L484.852 289.865 L484.852 259.518 L475.94 283.221 L471.241 283.221 L462.329 259.518 L462.329 289.865 L457.792 289.865 L457.792 255.305 Z" fill="#000000" fill-rule="nonzero" fill-opacity="1"></path><path clip-path="url(#clip740)" d="M510.291 276.832 Q505.129 276.832 503.139 278.013 Q501.148 279.193 501.148 282.041 Q501.148 284.309 502.629 285.652 Q504.134 286.971 506.704 286.971 Q510.245 286.971 512.375 284.471 Q514.528 281.948 514.528 277.781 L514.528 276.832 L510.291 276.832 M518.787 275.073 L518.787 289.865 L514.528 289.865 L514.528 285.929 Q513.069 288.291 510.893 289.425 Q508.717 290.536 505.569 290.536 Q501.588 290.536 499.227 288.314 Q496.889 286.068 496.889 282.318 Q496.889 277.943 499.805 275.721 Q502.745 273.499 508.555 273.499 L514.528 273.499 L514.528 273.082 Q514.528 270.143 512.583 268.545 Q510.662 266.925 507.166 266.925 Q504.944 266.925 502.838 267.457 Q500.731 267.99 498.787 269.055 L498.787 265.119 Q501.125 264.217 503.324 263.777 Q505.523 263.314 507.606 263.314 Q513.231 263.314 516.009 266.231 Q518.787 269.147 518.787 275.073 Z" fill="#000000" fill-rule="nonzero" fill-opacity="1"></path><path clip-path="url(#clip740)" d="M546.217 264.934 L546.217 268.916 Q544.412 267.92 542.583 267.434 Q540.777 266.925 538.926 266.925 Q534.782 266.925 532.49 269.564 Q530.199 272.18 530.199 276.925 Q530.199 281.67 532.49 284.309 Q534.782 286.925 538.926 286.925 Q540.777 286.925 542.583 286.439 Q544.412 285.929 546.217 284.934 L546.217 288.869 Q544.435 289.703 542.514 290.119 Q540.615 290.536 538.463 290.536 Q532.606 290.536 529.157 286.855 Q525.708 283.175 525.708 276.925 Q525.708 270.582 529.18 266.948 Q532.676 263.314 538.74 263.314 Q540.708 263.314 542.583 263.731 Q544.458 264.124 546.217 264.934 Z" fill="#000000" fill-rule="nonzero" fill-opacity="1"></path><path clip-path="url(#clip740)" d="M572.282 264.934 L572.282 268.916 Q570.476 267.92 568.648 267.434 Q566.842 266.925 564.99 266.925 Q560.847 266.925 558.555 269.564 Q556.263 272.18 556.263 276.925 Q556.263 281.67 558.555 284.309 Q560.847 286.925 564.99 286.925 Q566.842 286.925 568.648 286.439 Q570.476 285.929 572.282 284.934 L572.282 288.869 Q570.499 289.703 568.578 290.119 Q566.68 290.536 564.527 290.536 Q558.671 290.536 555.222 286.855 Q551.773 283.175 551.773 276.925 Q551.773 270.582 555.245 266.948 Q558.74 263.314 564.805 263.314 Q566.773 263.314 568.648 263.731 Q570.523 264.124 572.282 264.934 Z" fill="#000000" fill-rule="nonzero" fill-opacity="1"></path><path clip-path="url(#clip740)" d="M601.24 274.217 L601.24 289.865 L596.981 289.865 L596.981 274.355 Q596.981 270.675 595.546 268.846 Q594.11 267.018 591.24 267.018 Q587.791 267.018 585.8 269.217 Q583.81 271.416 583.81 275.212 L583.81 289.865 L579.527 289.865 L579.527 253.846 L583.81 253.846 L583.81 267.967 Q585.337 265.629 587.398 264.471 Q589.481 263.314 592.189 263.314 Q596.657 263.314 598.948 266.092 Q601.24 268.846 601.24 274.217 Z" fill="#000000" fill-rule="nonzero" fill-opacity="1"></path><path clip-path="url(#clip740)" d="M609.735 263.939 L613.995 263.939 L613.995 289.865 L609.735 289.865 L609.735 263.939 M609.735 253.846 L613.995 253.846 L613.995 259.24 L609.735 259.24 L609.735 253.846 Z" fill="#000000" fill-rule="nonzero" fill-opacity="1"></path><path clip-path="url(#clip740)" d="M634.689 276.832 Q629.527 276.832 627.536 278.013 Q625.545 279.193 625.545 282.041 Q625.545 284.309 627.027 285.652 Q628.532 286.971 631.101 286.971 Q634.643 286.971 636.772 284.471 Q638.925 281.948 638.925 277.781 L638.925 276.832 L634.689 276.832 M643.184 275.073 L643.184 289.865 L638.925 289.865 L638.925 285.929 Q637.467 288.291 635.291 289.425 Q633.115 290.536 629.967 290.536 Q625.985 290.536 623.624 288.314 Q621.286 286.068 621.286 282.318 Q621.286 277.943 624.203 275.721 Q627.143 273.499 632.953 273.499 L638.925 273.499 L638.925 273.082 Q638.925 270.143 636.981 268.545 Q635.059 266.925 631.564 266.925 Q629.342 266.925 627.235 267.457 Q625.129 267.99 623.184 269.055 L623.184 265.119 Q625.522 264.217 627.721 263.777 Q629.92 263.314 632.004 263.314 Q637.629 263.314 640.407 266.231 Q643.184 269.147 643.184 275.073 Z" fill="#000000" fill-rule="nonzero" fill-opacity="1"></path><path clip-path="url(#clip740)" d="M289.884 345.161 L433.805 345.161 L433.805 303.689 L289.884 303.689 L289.884 345.161  Z" fill="#3da44d" fill-rule="evenodd" fill-opacity="1"></path>
<polyline clip-path="url(#clip740)" style="stroke:#000000; stroke-linecap:round; stroke-linejoin:round; stroke-width:4; stroke-opacity:1; fill:none" points="289.884,345.161 433.805,345.161 433.805,303.689 289.884,303.689 289.884,345.161 "></polyline>
<path clip-path="url(#clip740)" d="M485.662 309.807 L485.662 314.737 Q483.301 312.538 480.616 311.45 Q477.954 310.362 474.944 310.362 Q469.019 310.362 465.87 313.996 Q462.722 317.608 462.722 324.459 Q462.722 331.288 465.87 334.922 Q469.019 338.533 474.944 338.533 Q477.954 338.533 480.616 337.445 Q483.301 336.357 485.662 334.158 L485.662 339.043 Q483.208 340.709 480.454 341.543 Q477.722 342.376 474.667 342.376 Q466.819 342.376 462.306 337.584 Q457.792 332.77 457.792 324.459 Q457.792 316.126 462.306 311.334 Q466.819 306.52 474.667 306.52 Q477.769 306.52 480.5 307.353 Q483.255 308.163 485.662 309.807 Z" fill="#000000" fill-rule="nonzero" fill-opacity="1"></path><path clip-path="url(#clip740)" d="M504.481 328.672 Q499.319 328.672 497.329 329.853 Q495.338 331.033 495.338 333.881 Q495.338 336.149 496.819 337.492 Q498.324 338.811 500.893 338.811 Q504.435 338.811 506.565 336.311 Q508.717 333.788 508.717 329.621 L508.717 328.672 L504.481 328.672 M512.977 326.913 L512.977 341.705 L508.717 341.705 L508.717 337.769 Q507.259 340.131 505.083 341.265 Q502.907 342.376 499.759 342.376 Q495.778 342.376 493.417 340.154 Q491.079 337.908 491.079 334.158 Q491.079 329.783 493.995 327.561 Q496.935 325.339 502.745 325.339 L508.717 325.339 L508.717 324.922 Q508.717 321.983 506.773 320.385 Q504.852 318.765 501.356 318.765 Q499.134 318.765 497.028 319.297 Q494.921 319.83 492.977 320.895 L492.977 316.959 Q495.315 316.057 497.514 315.617 Q499.713 315.154 501.796 315.154 Q507.421 315.154 510.199 318.071 Q512.977 320.987 512.977 326.913 Z" fill="#000000" fill-rule="nonzero" fill-opacity="1"></path><path clip-path="url(#clip740)" d="M543.301 326.057 L543.301 341.705 L539.041 341.705 L539.041 326.195 Q539.041 322.515 537.606 320.686 Q536.171 318.858 533.301 318.858 Q529.852 318.858 527.861 321.057 Q525.87 323.256 525.87 327.052 L525.87 341.705 L521.588 341.705 L521.588 315.779 L525.87 315.779 L525.87 319.807 Q527.398 317.469 529.458 316.311 Q531.541 315.154 534.25 315.154 Q538.717 315.154 541.009 317.932 Q543.301 320.686 543.301 326.057 Z" fill="#000000" fill-rule="nonzero" fill-opacity="1"></path><path clip-path="url(#clip740)" d="M573.347 326.057 L573.347 341.705 L569.087 341.705 L569.087 326.195 Q569.087 322.515 567.652 320.686 Q566.217 318.858 563.347 318.858 Q559.898 318.858 557.907 321.057 Q555.916 323.256 555.916 327.052 L555.916 341.705 L551.634 341.705 L551.634 315.779 L555.916 315.779 L555.916 319.807 Q557.444 317.469 559.504 316.311 Q561.588 315.154 564.296 315.154 Q568.763 315.154 571.055 317.932 Q573.347 320.686 573.347 326.057 Z" fill="#000000" fill-rule="nonzero" fill-opacity="1"></path><path clip-path="url(#clip740)" d="M604.018 327.677 L604.018 329.76 L584.435 329.76 Q584.712 334.158 587.073 336.473 Q589.458 338.765 593.694 338.765 Q596.148 338.765 598.439 338.163 Q600.754 337.561 603.022 336.357 L603.022 340.385 Q600.731 341.357 598.323 341.867 Q595.916 342.376 593.439 342.376 Q587.236 342.376 583.601 338.765 Q579.99 335.154 579.99 328.996 Q579.99 322.631 583.416 318.904 Q586.865 315.154 592.698 315.154 Q597.93 315.154 600.962 318.533 Q604.018 321.89 604.018 327.677 M599.759 326.427 Q599.712 322.932 597.791 320.848 Q595.893 318.765 592.745 318.765 Q589.18 318.765 587.027 320.779 Q584.898 322.793 584.573 326.45 L599.759 326.427 Z" fill="#000000" fill-rule="nonzero" fill-opacity="1"></path><path clip-path="url(#clip740)" d="M615.221 308.418 L615.221 315.779 L623.995 315.779 L623.995 319.089 L615.221 319.089 L615.221 333.163 Q615.221 336.334 616.078 337.237 Q616.958 338.14 619.62 338.14 L623.995 338.14 L623.995 341.705 L619.62 341.705 Q614.689 341.705 612.814 339.876 Q610.939 338.024 610.939 333.163 L610.939 319.089 L607.814 319.089 L607.814 315.779 L610.939 315.779 L610.939 308.418 L615.221 308.418 Z" fill="#000000" fill-rule="nonzero" fill-opacity="1"></path><path clip-path="url(#clip740)" d="M639.643 318.765 Q636.217 318.765 634.226 321.45 Q632.235 324.112 632.235 328.765 Q632.235 333.418 634.203 336.103 Q636.194 338.765 639.643 338.765 Q643.045 338.765 645.036 336.08 Q647.027 333.395 647.027 328.765 Q647.027 324.158 645.036 321.473 Q643.045 318.765 639.643 318.765 M639.643 315.154 Q645.198 315.154 648.369 318.765 Q651.541 322.376 651.541 328.765 Q651.541 335.131 648.369 338.765 Q645.198 342.376 639.643 342.376 Q634.064 342.376 630.893 338.765 Q627.745 335.131 627.745 328.765 Q627.745 322.376 630.893 318.765 Q634.064 315.154 639.643 315.154 Z" fill="#000000" fill-rule="nonzero" fill-opacity="1"></path></svg>