<svg xmlns="http://www.w3.org/2000/svg" xmlns:xlink="http://www.w3.org/1999/xlink" width="600" height="400" viewBox="0 0 2400 1600">
<defs>
  <clipPath id="clip510">
    <rect x="0" y="0" width="2400" height="1600"></rect>
  </clipPath>
</defs>
<path clip-path="url(#clip510)" d="M0 1600 L2400 1600 L2400 0 L0 0  Z" fill="#ffffff" fill-rule="evenodd" fill-opacity="1"></path>
<defs>
  <clipPath id="clip511">
    <rect x="480" y="0" width="1681" height="1600"></rect>
  </clipPath>
</defs>
<path clip-path="url(#clip510)" d="M262.551 1423.18 L2352.76 1423.18 L2352.76 123.472 L262.551 123.472  Z" fill="#ffffff" fill-rule="evenodd" fill-opacity="1"></path>
<defs>
  <clipPath id="clip512">
    <rect x="262" y="123" width="2091" height="1301"></rect>
  </clipPath>
</defs>
<polyline clip-path="url(#clip512)" style="stroke:#000000; stroke-linecap:round; stroke-linejoin:round; stroke-width:2; stroke-opacity:0.1; fill:none" points="282.926,1423.18 282.926,123.472 "></polyline>
<polyline clip-path="url(#clip512)" style="stroke:#000000; stroke-linecap:round; stroke-linejoin:round; stroke-width:2; stroke-opacity:0.1; fill:none" points="598.227,1423.18 598.227,123.472 "></polyline>
<polyline clip-path="url(#clip512)" style="stroke:#000000; stroke-linecap:round; stroke-linejoin:round; stroke-width:2; stroke-opacity:0.1; fill:none" points="913.528,1423.18 913.528,123.472 "></polyline>
<polyline clip-path="url(#clip512)" style="stroke:#000000; stroke-linecap:round; stroke-linejoin:round; stroke-width:2; stroke-opacity:0.1; fill:none" points="1228.83,1423.18 1228.83,123.472 "></polyline>
<polyline clip-path="url(#clip512)" style="stroke:#000000; stroke-linecap:round; stroke-linejoin:round; stroke-width:2; stroke-opacity:0.1; fill:none" points="1544.13,1423.18 1544.13,123.472 "></polyline>
<polyline clip-path="url(#clip512)" style="stroke:#000000; stroke-linecap:round; stroke-linejoin:round; stroke-width:2; stroke-opacity:0.1; fill:none" points="1859.43,1423.18 1859.43,123.472 "></polyline>
<polyline clip-path="url(#clip512)" style="stroke:#000000; stroke-linecap:round; stroke-linejoin:round; stroke-width:2; stroke-opacity:0.1; fill:none" points="2174.73,1423.18 2174.73,123.472 "></polyline>
<polyline clip-path="url(#clip512)" style="stroke:#000000; stroke-linecap:round; stroke-linejoin:round; stroke-width:2; stroke-opacity:0.1; fill:none" points="262.551,1423.18 2352.76,1423.18 "></polyline>
<polyline clip-path="url(#clip512)" style="stroke:#000000; stroke-linecap:round; stroke-linejoin:round; stroke-width:2; stroke-opacity:0.1; fill:none" points="262.551,1161.35 2352.76,1161.35 "></polyline>
<polyline clip-path="url(#clip512)" style="stroke:#000000; stroke-linecap:round; stroke-linejoin:round; stroke-width:2; stroke-opacity:0.1; fill:none" points="262.551,899.526 2352.76,899.526 "></polyline>
<polyline clip-path="url(#clip512)" style="stroke:#000000; stroke-linecap:round; stroke-linejoin:round; stroke-width:2; stroke-opacity:0.1; fill:none" points="262.551,637.7 2352.76,637.7 "></polyline>
<polyline clip-path="url(#clip512)" style="stroke:#000000; stroke-linecap:round; stroke-linejoin:round; stroke-width:2; stroke-opacity:0.1; fill:none" points="262.551,375.873 2352.76,375.873 "></polyline>
<polyline clip-path="url(#clip510)" style="stroke:#000000; stroke-linecap:round; stroke-linejoin:round; stroke-width:4; stroke-opacity:1; fill:none" points="262.551,1423.18 2352.76,1423.18 "></polyline>
<polyline clip-path="url(#clip510)" style="stroke:#000000; stroke-linecap:round; stroke-linejoin:round; stroke-width:4; stroke-opacity:1; fill:none" points="282.926,1423.18 282.926,1404.28 "></polyline>
<polyline clip-path="url(#clip510)" style="stroke:#000000; stroke-linecap:round; stroke-linejoin:round; stroke-width:4; stroke-opacity:1; fill:none" points="598.227,1423.18 598.227,1404.28 "></polyline>
<polyline clip-path="url(#clip510)" style="stroke:#000000; stroke-linecap:round; stroke-linejoin:round; stroke-width:4; stroke-opacity:1; fill:none" points="913.528,1423.18 913.528,1404.28 "></polyline>
<polyline clip-path="url(#clip510)" style="stroke:#000000; stroke-linecap:round; stroke-linejoin:round; stroke-width:4; stroke-opacity:1; fill:none" points="1228.83,1423.18 1228.83,1404.28 "></polyline>
<polyline clip-path="url(#clip510)" style="stroke:#000000; stroke-linecap:round; stroke-linejoin:round; stroke-width:4; stroke-opacity:1; fill:none" points="1544.13,1423.18 1544.13,1404.28 "></polyline>
<polyline clip-path="url(#clip510)" style="stroke:#000000; stroke-linecap:round; stroke-linejoin:round; stroke-width:4; stroke-opacity:1; fill:none" points="1859.43,1423.18 1859.43,1404.28 "></polyline>
<polyline clip-path="url(#clip510)" style="stroke:#000000; stroke-linecap:round; stroke-linejoin:round; stroke-width:4; stroke-opacity:1; fill:none" points="2174.73,1423.18 2174.73,1404.28 "></polyline>
<path clip-path="url(#clip510)" d="M282.926 1454.1 Q279.315 1454.1 277.486 1457.66 Q275.681 1461.2 275.681 1468.33 Q275.681 1475.44 277.486 1479.01 Q279.315 1482.55 282.926 1482.55 Q286.56 1482.55 288.366 1479.01 Q290.194 1475.44 290.194 1468.33 Q290.194 1461.2 288.366 1457.66 Q286.56 1454.1 282.926 1454.1 M282.926 1450.39 Q288.736 1450.39 291.792 1455 Q294.87 1459.58 294.87 1468.33 Q294.87 1477.06 291.792 1481.67 Q288.736 1486.25 282.926 1486.25 Q277.116 1486.25 274.037 1481.67 Q270.982 1477.06 270.982 1468.33 Q270.982 1459.58 274.037 1455 Q277.116 1450.39 282.926 1450.39 Z" fill="#000000" fill-rule="nonzero" fill-opacity="1"></path><path clip-path="url(#clip510)" d="M592.88 1481.64 L609.199 1481.64 L609.199 1485.58 L587.255 1485.58 L587.255 1481.64 Q589.917 1478.89 594.5 1474.26 Q599.106 1469.61 600.287 1468.27 Q602.532 1465.74 603.412 1464.01 Q604.315 1462.25 604.315 1460.56 Q604.315 1457.8 602.37 1456.07 Q600.449 1454.33 597.347 1454.33 Q595.148 1454.33 592.694 1455.09 Q590.264 1455.86 587.486 1457.41 L587.486 1452.69 Q590.31 1451.55 592.764 1450.97 Q595.218 1450.39 597.255 1450.39 Q602.625 1450.39 605.819 1453.08 Q609.014 1455.77 609.014 1460.26 Q609.014 1462.39 608.204 1464.31 Q607.417 1466.2 605.31 1468.8 Q604.731 1469.47 601.63 1472.69 Q598.528 1475.88 592.88 1481.64 Z" fill="#000000" fill-rule="nonzero" fill-opacity="1"></path><path clip-path="url(#clip510)" d="M916.537 1455.09 L904.731 1473.54 L916.537 1473.54 L916.537 1455.09 M915.31 1451.02 L921.19 1451.02 L921.19 1473.54 L926.12 1473.54 L926.12 1477.43 L921.19 1477.43 L921.19 1485.58 L916.537 1485.58 L916.537 1477.43 L900.935 1477.43 L900.935 1472.92 L915.31 1451.02 Z" fill="#000000" fill-rule="nonzero" fill-opacity="1"></path><path clip-path="url(#clip510)" d="M1229.23 1466.44 Q1226.09 1466.44 1224.23 1468.59 Q1222.4 1470.74 1222.4 1474.49 Q1222.4 1478.22 1224.23 1480.39 Q1226.09 1482.55 1229.23 1482.55 Q1232.38 1482.55 1234.21 1480.39 Q1236.06 1478.22 1236.06 1474.49 Q1236.06 1470.74 1234.21 1468.59 Q1232.38 1466.44 1229.23 1466.44 M1238.52 1451.78 L1238.52 1456.04 Q1236.76 1455.21 1234.95 1454.77 Q1233.17 1454.33 1231.41 1454.33 Q1226.78 1454.33 1224.33 1457.45 Q1221.9 1460.58 1221.55 1466.9 Q1222.91 1464.89 1224.97 1463.82 Q1227.03 1462.73 1229.51 1462.73 Q1234.72 1462.73 1237.73 1465.9 Q1240.76 1469.05 1240.76 1474.49 Q1240.76 1479.82 1237.61 1483.03 Q1234.46 1486.25 1229.23 1486.25 Q1223.24 1486.25 1220.07 1481.67 Q1216.9 1477.06 1216.9 1468.33 Q1216.9 1460.14 1220.78 1455.28 Q1224.67 1450.39 1231.22 1450.39 Q1232.98 1450.39 1234.77 1450.74 Q1236.57 1451.09 1238.52 1451.78 Z" fill="#000000" fill-rule="nonzero" fill-opacity="1"></path><path clip-path="url(#clip510)" d="M1544.13 1469.17 Q1540.8 1469.17 1538.87 1470.95 Q1536.98 1472.73 1536.98 1475.86 Q1536.98 1478.98 1538.87 1480.77 Q1540.8 1482.55 1544.13 1482.55 Q1547.46 1482.55 1549.38 1480.77 Q1551.31 1478.96 1551.31 1475.86 Q1551.31 1472.73 1549.38 1470.95 Q1547.49 1469.17 1544.13 1469.17 M1539.45 1467.18 Q1536.44 1466.44 1534.75 1464.38 Q1533.09 1462.32 1533.09 1459.35 Q1533.09 1455.21 1536.03 1452.8 Q1538.99 1450.39 1544.13 1450.39 Q1549.29 1450.39 1552.23 1452.8 Q1555.17 1455.21 1555.17 1459.35 Q1555.17 1462.32 1553.48 1464.38 Q1551.81 1466.44 1548.83 1467.18 Q1552.21 1467.96 1554.08 1470.26 Q1555.98 1472.55 1555.98 1475.86 Q1555.98 1480.88 1552.9 1483.57 Q1549.85 1486.25 1544.13 1486.25 Q1538.41 1486.25 1535.33 1483.57 Q1532.28 1480.88 1532.28 1475.86 Q1532.28 1472.55 1534.18 1470.26 Q1536.07 1467.96 1539.45 1467.18 M1537.74 1459.79 Q1537.74 1462.48 1539.41 1463.98 Q1541.1 1465.49 1544.13 1465.49 Q1547.14 1465.49 1548.83 1463.98 Q1550.54 1462.48 1550.54 1459.79 Q1550.54 1457.11 1548.83 1455.6 Q1547.14 1454.1 1544.13 1454.1 Q1541.1 1454.1 1539.41 1455.6 Q1537.74 1457.11 1537.74 1459.79 Z" fill="#000000" fill-rule="nonzero" fill-opacity="1"></path><path clip-path="url(#clip510)" d="M1834.12 1481.64 L1841.76 1481.64 L1841.76 1455.28 L1833.45 1456.95 L1833.45 1452.69 L1841.71 1451.02 L1846.39 1451.02 L1846.39 1481.64 L1854.02 1481.64 L1854.02 1485.58 L1834.12 1485.58 L1834.12 1481.64 Z" fill="#000000" fill-rule="nonzero" fill-opacity="1"></path><path clip-path="url(#clip510)" d="M1873.47 1454.1 Q1869.86 1454.1 1868.03 1457.66 Q1866.22 1461.2 1866.22 1468.33 Q1866.22 1475.44 1868.03 1479.01 Q1869.86 1482.55 1873.47 1482.55 Q1877.1 1482.55 1878.91 1479.01 Q1880.74 1475.44 1880.74 1468.33 Q1880.74 1461.2 1878.91 1457.66 Q1877.1 1454.1 1873.47 1454.1 M1873.47 1450.39 Q1879.28 1450.39 1882.33 1455 Q1885.41 1459.58 1885.41 1468.33 Q1885.41 1477.06 1882.33 1481.67 Q1879.28 1486.25 1873.47 1486.25 Q1867.66 1486.25 1864.58 1481.67 Q1861.52 1477.06 1861.52 1468.33 Q1861.52 1459.58 1864.58 1455 Q1867.66 1450.39 1873.47 1450.39 Z" fill="#000000" fill-rule="nonzero" fill-opacity="1"></path><path clip-path="url(#clip510)" d="M2150.22 1481.64 L2157.86 1481.64 L2157.86 1455.28 L2149.55 1456.95 L2149.55 1452.69 L2157.81 1451.02 L2162.49 1451.02 L2162.49 1481.64 L2170.12 1481.64 L2170.12 1485.58 L2150.22 1485.58 L2150.22 1481.64 Z" fill="#000000" fill-rule="nonzero" fill-opacity="1"></path><path clip-path="url(#clip510)" d="M2183.6 1481.64 L2199.92 1481.64 L2199.92 1485.58 L2177.97 1485.58 L2177.97 1481.64 Q2180.63 1478.89 2185.22 1474.26 Q2189.82 1469.61 2191 1468.27 Q2193.25 1465.74 2194.13 1464.01 Q2195.03 1462.25 2195.03 1460.56 Q2195.03 1457.8 2193.09 1456.07 Q2191.17 1454.33 2188.06 1454.33 Q2185.86 1454.33 2183.41 1455.09 Q2180.98 1455.86 2178.2 1457.41 L2178.2 1452.69 Q2181.03 1451.55 2183.48 1450.97 Q2185.93 1450.39 2187.97 1450.39 Q2193.34 1450.39 2196.54 1453.08 Q2199.73 1455.77 2199.73 1460.26 Q2199.73 1462.39 2198.92 1464.31 Q2198.13 1466.2 2196.03 1468.8 Q2195.45 1469.47 2192.35 1472.69 Q2189.24 1475.88 2183.6 1481.64 Z" fill="#000000" fill-rule="nonzero" fill-opacity="1"></path><path clip-path="url(#clip510)" d="M1227.38 1520.52 L1236.96 1520.52 L1249.09 1552.86 L1261.28 1520.52 L1270.86 1520.52 L1270.86 1568.04 L1264.59 1568.04 L1264.59 1526.32 L1252.34 1558.91 L1245.87 1558.91 L1233.62 1526.32 L1233.62 1568.04 L1227.38 1568.04 L1227.38 1520.52 Z" fill="#000000" fill-rule="nonzero" fill-opacity="1"></path><path clip-path="url(#clip510)" d="M1313.86 1548.76 L1313.86 1551.62 L1286.93 1551.62 Q1287.32 1557.67 1290.56 1560.85 Q1293.84 1564 1299.66 1564 Q1303.04 1564 1306.19 1563.17 Q1309.37 1562.35 1312.49 1560.69 L1312.49 1566.23 Q1309.34 1567.57 1306.03 1568.27 Q1302.72 1568.97 1299.31 1568.97 Q1290.78 1568.97 1285.79 1564 Q1280.82 1559.04 1280.82 1550.57 Q1280.82 1541.82 1285.53 1536.69 Q1290.28 1531.54 1298.3 1531.54 Q1305.49 1531.54 1309.66 1536.18 Q1313.86 1540.8 1313.86 1548.76 M1308 1547.04 Q1307.94 1542.23 1305.3 1539.37 Q1302.69 1536.5 1298.36 1536.5 Q1293.46 1536.5 1290.5 1539.27 Q1287.57 1542.04 1287.12 1547.07 L1308 1547.04 Z" fill="#000000" fill-rule="nonzero" fill-opacity="1"></path><path clip-path="url(#clip510)" d="M1346.2 1533.45 L1346.2 1538.98 Q1343.72 1537.71 1341.04 1537.07 Q1338.37 1536.44 1335.5 1536.44 Q1331.14 1536.44 1328.95 1537.77 Q1326.78 1539.11 1326.78 1541.79 Q1326.78 1543.82 1328.34 1545 Q1329.9 1546.15 1334.61 1547.2 L1336.62 1547.64 Q1342.86 1548.98 1345.47 1551.43 Q1348.11 1553.85 1348.11 1558.21 Q1348.11 1563.17 1344.16 1566.07 Q1340.25 1568.97 1333.37 1568.97 Q1330.51 1568.97 1327.39 1568.39 Q1324.3 1567.85 1320.86 1566.74 L1320.86 1560.69 Q1324.11 1562.38 1327.26 1563.24 Q1330.41 1564.07 1333.5 1564.07 Q1337.64 1564.07 1339.86 1562.66 Q1342.09 1561.23 1342.09 1558.65 Q1342.09 1556.27 1340.47 1554.99 Q1338.88 1553.72 1333.43 1552.54 L1331.4 1552.07 Q1325.95 1550.92 1323.54 1548.56 Q1321.12 1546.18 1321.12 1542.04 Q1321.12 1537.01 1324.68 1534.27 Q1328.25 1531.54 1334.8 1531.54 Q1338.05 1531.54 1340.91 1532.01 Q1343.78 1532.49 1346.2 1533.45 Z" fill="#000000" fill-rule="nonzero" fill-opacity="1"></path><path clip-path="url(#clip510)" d="M1387.93 1548.76 L1387.93 1551.62 L1361 1551.62 Q1361.38 1557.67 1364.63 1560.85 Q1367.9 1564 1373.73 1564 Q1377.1 1564 1380.25 1563.17 Q1383.44 1562.35 1386.56 1560.69 L1386.56 1566.23 Q1383.41 1567.57 1380.1 1568.27 Q1376.79 1568.97 1373.38 1568.97 Q1364.85 1568.97 1359.85 1564 Q1354.89 1559.04 1354.89 1550.57 Q1354.89 1541.82 1359.6 1536.69 Q1364.34 1531.54 1372.36 1531.54 Q1379.55 1531.54 1383.72 1536.18 Q1387.93 1540.8 1387.93 1548.76 M1382.07 1547.04 Q1382.01 1542.23 1379.36 1539.37 Q1376.75 1536.5 1372.42 1536.5 Q1367.52 1536.5 1364.56 1539.27 Q1361.63 1542.04 1361.19 1547.07 L1382.07 1547.04 Z" fill="#000000" fill-rule="nonzero" fill-opacity="1"></path><polyline clip-path="url(#clip510)" style="stroke:#000000; stroke-linecap:round; stroke-linejoin:round; stroke-width:4; stroke-opacity:1; fill:none" points="262.551,1423.18 262.551,123.472 "></polyline>
<polyline clip-path="url(#clip510)" style="stroke:#000000; stroke-linecap:round; stroke-linejoin:round; stroke-width:4; stroke-opacity:1; fill:none" points="262.551,1423.18 281.449,1423.18 "></polyline>
<polyline clip-path="url(#clip510)" style="stroke:#000000; stroke-linecap:round; stroke-linejoin:round; stroke-width:4; stroke-opacity:1; fill:none" points="262.551,1161.35 281.449,1161.35 "></polyline>
<polyline clip-path="url(#clip510)" style="stroke:#000000; stroke-linecap:round; stroke-linejoin:round; stroke-width:4; stroke-opacity:1; fill:none" points="262.551,899.526 281.449,899.526 "></polyline>
<polyline clip-path="url(#clip510)" style="stroke:#000000; stroke-linecap:round; stroke-linejoin:round; stroke-width:4; stroke-opacity:1; fill:none" points="262.551,637.7 281.449,637.7 "></polyline>
<polyline clip-path="url(#clip510)" style="stroke:#000000; stroke-linecap:round; stroke-linejoin:round; stroke-width:4; stroke-opacity:1; fill:none" points="262.551,375.873 281.449,375.873 "></polyline>
<path clip-path="url(#clip510)" d="M214.607 1408.98 Q210.996 1408.98 209.167 1412.54 Q207.362 1416.08 207.362 1423.21 Q207.362 1430.32 209.167 1433.89 Q210.996 1437.43 214.607 1437.43 Q218.241 1437.43 220.047 1433.89 Q221.875 1430.32 221.875 1423.21 Q221.875 1416.08 220.047 1412.54 Q218.241 1408.98 214.607 1408.98 M214.607 1405.27 Q220.417 1405.27 223.473 1409.88 Q226.551 1414.46 226.551 1423.21 Q226.551 1431.94 223.473 1436.55 Q220.417 1441.13 214.607 1441.13 Q208.797 1441.13 205.718 1436.55 Q202.662 1431.94 202.662 1423.21 Q202.662 1414.46 205.718 1409.88 Q208.797 1405.27 214.607 1405.27 Z" fill="#000000" fill-rule="nonzero" fill-opacity="1"></path><path clip-path="url(#clip510)" d="M148.311 1174.7 L164.63 1174.7 L164.63 1178.63 L142.686 1178.63 L142.686 1174.7 Q145.348 1171.94 149.931 1167.31 Q154.538 1162.66 155.718 1161.32 Q157.964 1158.8 158.843 1157.06 Q159.746 1155.3 159.746 1153.61 Q159.746 1150.86 157.802 1149.12 Q155.88 1147.38 152.778 1147.38 Q150.579 1147.38 148.126 1148.15 Q145.695 1148.91 142.917 1150.46 L142.917 1145.74 Q145.741 1144.61 148.195 1144.03 Q150.649 1143.45 152.686 1143.45 Q158.056 1143.45 161.251 1146.13 Q164.445 1148.82 164.445 1153.31 Q164.445 1155.44 163.635 1157.36 Q162.848 1159.26 160.741 1161.85 Q160.163 1162.52 157.061 1165.74 Q153.959 1168.93 148.311 1174.7 Z" fill="#000000" fill-rule="nonzero" fill-opacity="1"></path><path clip-path="url(#clip510)" d="M174.491 1144.07 L192.848 1144.07 L192.848 1148.01 L178.774 1148.01 L178.774 1156.48 Q179.792 1156.13 180.811 1155.97 Q181.829 1155.79 182.848 1155.79 Q188.635 1155.79 192.014 1158.96 Q195.394 1162.13 195.394 1167.55 Q195.394 1173.12 191.922 1176.23 Q188.45 1179.3 182.13 1179.3 Q179.954 1179.3 177.686 1178.93 Q175.44 1178.56 173.033 1177.82 L173.033 1173.12 Q175.116 1174.26 177.339 1174.81 Q179.561 1175.37 182.038 1175.37 Q186.042 1175.37 188.38 1173.26 Q190.718 1171.16 190.718 1167.55 Q190.718 1163.93 188.38 1161.83 Q186.042 1159.72 182.038 1159.72 Q180.163 1159.72 178.288 1160.14 Q176.436 1160.55 174.491 1161.43 L174.491 1144.07 Z" fill="#000000" fill-rule="nonzero" fill-opacity="1"></path><path clip-path="url(#clip510)" d="M214.607 1147.15 Q210.996 1147.15 209.167 1150.72 Q207.362 1154.26 207.362 1161.39 Q207.362 1168.49 209.167 1172.06 Q210.996 1175.6 214.607 1175.6 Q218.241 1175.6 220.047 1172.06 Q221.875 1168.49 221.875 1161.39 Q221.875 1154.26 220.047 1150.72 Q218.241 1147.15 214.607 1147.15 M214.607 1143.45 Q220.417 1143.45 223.473 1148.05 Q226.551 1152.64 226.551 1161.39 Q226.551 1170.11 223.473 1174.72 Q220.417 1179.3 214.607 1179.3 Q208.797 1179.3 205.718 1174.72 Q202.662 1170.11 202.662 1161.39 Q202.662 1152.64 205.718 1148.05 Q208.797 1143.45 214.607 1143.45 Z" fill="#000000" fill-rule="nonzero" fill-opacity="1"></path><path clip-path="url(#clip510)" d="M144.329 882.246 L162.686 882.246 L162.686 886.182 L148.612 886.182 L148.612 894.654 Q149.63 894.307 150.649 894.145 Q151.667 893.959 152.686 893.959 Q158.473 893.959 161.852 897.131 Q165.232 900.302 165.232 905.719 Q165.232 911.297 161.76 914.399 Q158.288 917.478 151.968 917.478 Q149.792 917.478 147.524 917.107 Q145.279 916.737 142.871 915.996 L142.871 911.297 Q144.954 912.431 147.177 912.987 Q149.399 913.543 151.876 913.543 Q155.88 913.543 158.218 911.436 Q160.556 909.33 160.556 905.719 Q160.556 902.107 158.218 900.001 Q155.88 897.895 151.876 897.895 Q150.001 897.895 148.126 898.311 Q146.274 898.728 144.329 899.607 L144.329 882.246 Z" fill="#000000" fill-rule="nonzero" fill-opacity="1"></path><path clip-path="url(#clip510)" d="M184.445 885.325 Q180.834 885.325 179.005 888.89 Q177.2 892.432 177.2 899.561 Q177.2 906.668 179.005 910.232 Q180.834 913.774 184.445 913.774 Q188.079 913.774 189.885 910.232 Q191.713 906.668 191.713 899.561 Q191.713 892.432 189.885 888.89 Q188.079 885.325 184.445 885.325 M184.445 881.621 Q190.255 881.621 193.311 886.228 Q196.389 890.811 196.389 899.561 Q196.389 908.288 193.311 912.894 Q190.255 917.478 184.445 917.478 Q178.635 917.478 175.556 912.894 Q172.501 908.288 172.501 899.561 Q172.501 890.811 175.556 886.228 Q178.635 881.621 184.445 881.621 Z" fill="#000000" fill-rule="nonzero" fill-opacity="1"></path><path clip-path="url(#clip510)" d="M214.607 885.325 Q210.996 885.325 209.167 888.89 Q207.362 892.432 207.362 899.561 Q207.362 906.668 209.167 910.232 Q210.996 913.774 214.607 913.774 Q218.241 913.774 220.047 910.232 Q221.875 906.668 221.875 899.561 Q221.875 892.432 220.047 888.89 Q218.241 885.325 214.607 885.325 M214.607 881.621 Q220.417 881.621 223.473 886.228 Q226.551 890.811 226.551 899.561 Q226.551 908.288 223.473 912.894 Q220.417 917.478 214.607 917.478 Q208.797 917.478 205.718 912.894 Q202.662 908.288 202.662 899.561 Q202.662 890.811 205.718 886.228 Q208.797 881.621 214.607 881.621 Z" fill="#000000" fill-rule="nonzero" fill-opacity="1"></path><path clip-path="url(#clip510)" d="M143.103 620.42 L165.325 620.42 L165.325 622.41 L152.778 654.98 L147.894 654.98 L159.7 624.355 L143.103 624.355 L143.103 620.42 Z" fill="#000000" fill-rule="nonzero" fill-opacity="1"></path><path clip-path="url(#clip510)" d="M174.491 620.42 L192.848 620.42 L192.848 624.355 L178.774 624.355 L178.774 632.827 Q179.792 632.48 180.811 632.318 Q181.829 632.133 182.848 632.133 Q188.635 632.133 192.014 635.304 Q195.394 638.475 195.394 643.892 Q195.394 649.471 191.922 652.572 Q188.45 655.651 182.13 655.651 Q179.954 655.651 177.686 655.281 Q175.44 654.91 173.033 654.17 L173.033 649.471 Q175.116 650.605 177.339 651.16 Q179.561 651.716 182.038 651.716 Q186.042 651.716 188.38 649.609 Q190.718 647.503 190.718 643.892 Q190.718 640.281 188.38 638.174 Q186.042 636.068 182.038 636.068 Q180.163 636.068 178.288 636.484 Q176.436 636.901 174.491 637.781 L174.491 620.42 Z" fill="#000000" fill-rule="nonzero" fill-opacity="1"></path><path clip-path="url(#clip510)" d="M214.607 623.498 Q210.996 623.498 209.167 627.063 Q207.362 630.605 207.362 637.734 Q207.362 644.841 209.167 648.406 Q210.996 651.947 214.607 651.947 Q218.241 651.947 220.047 648.406 Q221.875 644.841 221.875 637.734 Q221.875 630.605 220.047 627.063 Q218.241 623.498 214.607 623.498 M214.607 619.795 Q220.417 619.795 223.473 624.401 Q226.551 628.985 226.551 637.734 Q226.551 646.461 223.473 651.068 Q220.417 655.651 214.607 655.651 Q208.797 655.651 205.718 651.068 Q202.662 646.461 202.662 637.734 Q202.662 628.985 205.718 624.401 Q208.797 619.795 214.607 619.795 Z" fill="#000000" fill-rule="nonzero" fill-opacity="1"></path><path clip-path="url(#clip510)" d="M114.931 389.218 L122.57 389.218 L122.57 362.852 L114.26 364.519 L114.26 360.26 L122.524 358.593 L127.2 358.593 L127.2 389.218 L134.839 389.218 L134.839 393.153 L114.931 393.153 L114.931 389.218 Z" fill="#000000" fill-rule="nonzero" fill-opacity="1"></path><path clip-path="url(#clip510)" d="M154.283 361.672 Q150.672 361.672 148.843 365.237 Q147.038 368.778 147.038 375.908 Q147.038 383.014 148.843 386.579 Q150.672 390.121 154.283 390.121 Q157.917 390.121 159.723 386.579 Q161.552 383.014 161.552 375.908 Q161.552 368.778 159.723 365.237 Q157.917 361.672 154.283 361.672 M154.283 357.968 Q160.093 357.968 163.149 362.575 Q166.227 367.158 166.227 375.908 Q166.227 384.635 163.149 389.241 Q160.093 393.824 154.283 393.824 Q148.473 393.824 145.394 389.241 Q142.339 384.635 142.339 375.908 Q142.339 367.158 145.394 362.575 Q148.473 357.968 154.283 357.968 Z" fill="#000000" fill-rule="nonzero" fill-opacity="1"></path><path clip-path="url(#clip510)" d="M184.445 361.672 Q180.834 361.672 179.005 365.237 Q177.2 368.778 177.2 375.908 Q177.2 383.014 179.005 386.579 Q180.834 390.121 184.445 390.121 Q188.079 390.121 189.885 386.579 Q191.713 383.014 191.713 375.908 Q191.713 368.778 189.885 365.237 Q188.079 361.672 184.445 361.672 M184.445 357.968 Q190.255 357.968 193.311 362.575 Q196.389 367.158 196.389 375.908 Q196.389 384.635 193.311 389.241 Q190.255 393.824 184.445 393.824 Q178.635 393.824 175.556 389.241 Q172.501 384.635 172.501 375.908 Q172.501 367.158 175.556 362.575 Q178.635 357.968 184.445 357.968 Z" fill="#000000" fill-rule="nonzero" fill-opacity="1"></path><path clip-path="url(#clip510)" d="M214.607 361.672 Q210.996 361.672 209.167 365.237 Q207.362 368.778 207.362 375.908 Q207.362 383.014 209.167 386.579 Q210.996 390.121 214.607 390.121 Q218.241 390.121 220.047 386.579 Q221.875 383.014 221.875 375.908 Q221.875 368.778 220.047 365.237 Q218.241 361.672 214.607 361.672 M214.607 357.968 Q220.417 357.968 223.473 362.575 Q226.551 367.158 226.551 375.908 Q226.551 384.635 223.473 389.241 Q220.417 393.824 214.607 393.824 Q208.797 393.824 205.718 389.241 Q202.662 384.635 202.662 375.908 Q202.662 367.158 205.718 362.575 Q208.797 357.968 214.607 357.968 Z" fill="#000000" fill-rule="nonzero" fill-opacity="1"></path><path clip-path="url(#clip510)" d="M16.4842 1065.64 L16.4842 1056.98 L56.238 1035.91 L16.4842 1035.91 L16.4842 1029.67 L64.0042 1029.67 L64.0042 1038.33 L24.2503 1059.4 L64.0042 1059.4 L64.0042 1065.64 L16.4842 1065.64 Z" fill="#000000" fill-rule="nonzero" fill-opacity="1"></path><path clip-path="url(#clip510)" d="M49.9359 1017.74 L28.3562 1017.74 L28.3562 1011.88 L49.7131 1011.88 Q54.7739 1011.88 57.3202 1009.91 Q59.8346 1007.93 59.8346 1003.99 Q59.8346 999.245 56.8109 996.508 Q53.7872 993.739 48.5673 993.739 L28.3562 993.739 L28.3562 987.882 L64.0042 987.882 L64.0042 993.739 L58.5296 993.739 Q61.7762 995.871 63.3676 998.704 Q64.9272 1001.5 64.9272 1005.23 Q64.9272 1011.37 61.1078 1014.55 Q57.2883 1017.74 49.9359 1017.74 M27.4968 1003 L27.4968 1003 Z" fill="#000000" fill-rule="nonzero" fill-opacity="1"></path><path clip-path="url(#clip510)" d="M35.1993 948.065 Q31.2526 945.868 29.3747 942.813 Q27.4968 939.757 27.4968 935.62 Q27.4968 930.05 31.4117 927.026 Q35.2948 924.002 42.4881 924.002 L64.0042 924.002 L64.0042 929.891 L42.679 929.891 Q37.5546 929.891 35.072 931.705 Q32.5894 933.519 32.5894 937.243 Q32.5894 941.794 35.6131 944.436 Q38.6368 947.078 43.8567 947.078 L64.0042 947.078 L64.0042 952.966 L42.679 952.966 Q37.5228 952.966 35.072 954.78 Q32.5894 956.595 32.5894 960.382 Q32.5894 964.87 35.6449 967.512 Q38.6686 970.154 43.8567 970.154 L64.0042 970.154 L64.0042 976.042 L28.3562 976.042 L28.3562 970.154 L33.8944 970.154 Q30.616 968.148 29.0564 965.348 Q27.4968 962.547 27.4968 958.695 Q27.4968 954.812 29.4702 952.107 Q31.4436 949.37 35.1993 948.065 Z" fill="#000000" fill-rule="nonzero" fill-opacity="1"></path><path clip-path="url(#clip510)" d="M44.7161 881.829 L47.5806 881.829 L47.5806 908.756 Q53.6281 908.374 56.8109 905.128 Q59.9619 901.85 59.9619 896.025 Q59.9619 892.651 59.1344 889.5 Q58.3069 886.317 56.6518 883.198 L62.1899 883.198 Q63.5267 886.349 64.227 889.659 Q64.9272 892.969 64.9272 896.375 Q64.9272 904.905 59.9619 909.902 Q54.9967 914.867 46.5303 914.867 Q37.7774 914.867 32.6531 910.157 Q27.4968 905.414 27.4968 897.394 Q27.4968 890.2 32.1438 886.031 Q36.7589 881.829 44.7161 881.829 M42.9973 887.686 Q38.1912 887.75 35.3266 890.391 Q32.4621 893.001 32.4621 897.33 Q32.4621 902.232 35.2312 905.192 Q38.0002 908.12 43.0292 908.565 L42.9973 887.686 Z" fill="#000000" fill-rule="nonzero" fill-opacity="1"></path><path clip-path="url(#clip510)" d="M33.8307 851.561 Q33.2578 852.547 33.0032 853.725 Q32.7167 854.871 32.7167 856.271 Q32.7167 861.236 35.9632 863.91 Q39.1779 866.552 45.2253 866.552 L64.0042 866.552 L64.0042 872.44 L28.3562 872.44 L28.3562 866.552 L33.8944 866.552 Q30.6479 864.706 29.0883 861.746 Q27.4968 858.786 27.4968 854.552 Q27.4968 853.948 27.5923 853.216 Q27.656 852.484 27.8151 851.592 L33.8307 851.561 Z" fill="#000000" fill-rule="nonzero" fill-opacity="1"></path><path clip-path="url(#clip510)" d="M32.4621 833.036 Q32.4621 837.747 36.1542 840.484 Q39.8145 843.221 46.212 843.221 Q52.6095 843.221 56.3017 840.516 Q59.9619 837.779 59.9619 833.036 Q59.9619 828.358 56.2698 825.62 Q52.5777 822.883 46.212 822.883 Q39.8781 822.883 36.186 825.62 Q32.4621 828.358 32.4621 833.036 M27.4968 833.036 Q27.4968 825.397 32.4621 821.037 Q37.4273 816.676 46.212 816.676 Q54.9649 816.676 59.9619 821.037 Q64.9272 825.397 64.9272 833.036 Q64.9272 840.707 59.9619 845.067 Q54.9649 849.396 46.212 849.396 Q37.4273 849.396 32.4621 845.067 Q27.4968 840.707 27.4968 833.036 Z" fill="#000000" fill-rule="nonzero" fill-opacity="1"></path><path clip-path="url(#clip510)" d="M33.7671 762.791 L14.479 762.791 L14.479 756.934 L64.0042 756.934 L64.0042 762.791 L58.657 762.791 Q61.8398 764.637 63.3994 767.47 Q64.9272 770.27 64.9272 774.217 Q64.9272 780.678 59.771 784.752 Q54.6147 788.795 46.212 788.795 Q37.8093 788.795 32.6531 784.752 Q27.4968 780.678 27.4968 774.217 Q27.4968 770.27 29.0564 767.47 Q30.5842 764.637 33.7671 762.791 M46.212 782.747 Q52.6732 782.747 56.3653 780.105 Q60.0256 777.432 60.0256 772.785 Q60.0256 768.138 56.3653 765.464 Q52.6732 762.791 46.212 762.791 Q39.7508 762.791 36.0905 765.464 Q32.3984 768.138 32.3984 772.785 Q32.3984 777.432 36.0905 780.105 Q39.7508 782.747 46.212 782.747 Z" fill="#000000" fill-rule="nonzero" fill-opacity="1"></path><path clip-path="url(#clip510)" d="M28.3562 744.871 L28.3562 739.015 L64.0042 739.015 L64.0042 744.871 L28.3562 744.871 M14.479 744.871 L14.479 739.015 L21.895 739.015 L21.895 744.871 L14.479 744.871 Z" fill="#000000" fill-rule="nonzero" fill-opacity="1"></path><path clip-path="url(#clip510)" d="M16.4842 705.786 L16.4842 699.356 L64.0042 699.356 L64.0042 705.786 L16.4842 705.786 Z" fill="#000000" fill-rule="nonzero" fill-opacity="1"></path><path clip-path="url(#clip510)" d="M42.4881 657.184 L64.0042 657.184 L64.0042 663.04 L42.679 663.04 Q37.6183 663.04 35.1038 665.013 Q32.5894 666.987 32.5894 670.934 Q32.5894 675.676 35.6131 678.413 Q38.6368 681.151 43.8567 681.151 L64.0042 681.151 L64.0042 687.039 L28.3562 687.039 L28.3562 681.151 L33.8944 681.151 Q30.6797 679.05 29.0883 676.217 Q27.4968 673.353 27.4968 669.629 Q27.4968 663.486 31.3163 660.335 Q35.1038 657.184 42.4881 657.184 Z" fill="#000000" fill-rule="nonzero" fill-opacity="1"></path><path clip-path="url(#clip510)" d="M29.7248 619.849 L35.1993 619.849 Q33.8307 622.331 33.1623 624.846 Q32.4621 627.329 32.4621 629.875 Q32.4621 635.572 36.0905 638.723 Q39.6872 641.874 46.212 641.874 Q52.7369 641.874 56.3653 638.723 Q59.9619 635.572 59.9619 629.875 Q59.9619 627.329 59.2935 624.846 Q58.5933 622.331 57.2247 619.849 L62.6355 619.849 Q63.7814 622.3 64.3543 624.941 Q64.9272 627.551 64.9272 630.511 Q64.9272 638.564 59.8664 643.306 Q54.8057 648.049 46.212 648.049 Q37.491 648.049 32.4939 643.275 Q27.4968 638.468 27.4968 630.129 Q27.4968 627.424 28.0697 624.846 Q28.6108 622.268 29.7248 619.849 Z" fill="#000000" fill-rule="nonzero" fill-opacity="1"></path><path clip-path="url(#clip510)" d="M44.7161 579.172 L47.5806 579.172 L47.5806 606.099 Q53.6281 605.717 56.8109 602.47 Q59.9619 599.192 59.9619 593.367 Q59.9619 589.994 59.1344 586.843 Q58.3069 583.66 56.6518 580.541 L62.1899 580.541 Q63.5267 583.692 64.227 587.002 Q64.9272 590.312 64.9272 593.718 Q64.9272 602.248 59.9619 607.245 Q54.9967 612.21 46.5303 612.21 Q37.7774 612.21 32.6531 607.499 Q27.4968 602.757 27.4968 594.736 Q27.4968 587.543 32.1438 583.373 Q36.7589 579.172 44.7161 579.172 M42.9973 585.028 Q38.1912 585.092 35.3266 587.734 Q32.4621 590.344 32.4621 594.672 Q32.4621 599.574 35.2312 602.534 Q38.0002 605.462 43.0292 605.908 L42.9973 585.028 Z" fill="#000000" fill-rule="nonzero" fill-opacity="1"></path><path clip-path="url(#clip510)" d="M42.4881 539.927 L64.0042 539.927 L64.0042 545.784 L42.679 545.784 Q37.6183 545.784 35.1038 547.757 Q32.5894 549.731 32.5894 553.677 Q32.5894 558.42 35.6131 561.157 Q38.6368 563.894 43.8567 563.894 L64.0042 563.894 L64.0042 569.783 L28.3562 569.783 L28.3562 563.894 L33.8944 563.894 Q30.6797 561.794 29.0883 558.961 Q27.4968 556.096 27.4968 552.372 Q27.4968 546.229 31.3163 543.078 Q35.1038 539.927 42.4881 539.927 Z" fill="#000000" fill-rule="nonzero" fill-opacity="1"></path><path clip-path="url(#clip510)" d="M33.7671 504.789 L14.479 504.789 L14.479 498.932 L64.0042 498.932 L64.0042 504.789 L58.657 504.789 Q61.8398 506.635 63.3994 509.467 Q64.9272 512.268 64.9272 516.215 Q64.9272 522.676 59.771 526.75 Q54.6147 530.793 46.212 530.793 Q37.8093 530.793 32.6531 526.75 Q27.4968 522.676 27.4968 516.215 Q27.4968 512.268 29.0564 509.467 Q30.5842 506.635 33.7671 504.789 M46.212 524.745 Q52.6732 524.745 56.3653 522.103 Q60.0256 519.43 60.0256 514.783 Q60.0256 510.136 56.3653 507.462 Q52.6732 504.789 46.212 504.789 Q39.7508 504.789 36.0905 507.462 Q32.3984 510.136 32.3984 514.783 Q32.3984 519.43 36.0905 522.103 Q39.7508 524.745 46.212 524.745 Z" fill="#000000" fill-rule="nonzero" fill-opacity="1"></path><path clip-path="url(#clip510)" d="M28.3562 486.869 L28.3562 481.013 L64.0042 481.013 L64.0042 486.869 L28.3562 486.869 M14.479 486.869 L14.479 481.013 L21.895 481.013 L21.895 486.869 L14.479 486.869 Z" fill="#000000" fill-rule="nonzero" fill-opacity="1"></path><path clip-path="url(#clip510)" d="M730.217 12.096 L741.236 12.096 L768.053 62.6918 L768.053 12.096 L775.993 12.096 L775.993 72.576 L764.974 72.576 L738.157 21.9802 L738.157 72.576 L730.217 72.576 L730.217 12.096 Z" fill="#000000" fill-rule="nonzero" fill-opacity="1"></path><path clip-path="url(#clip510)" d="M791.184 54.671 L791.184 27.2059 L798.637 27.2059 L798.637 54.3874 Q798.637 60.8284 801.149 64.0691 Q803.66 67.2693 808.683 67.2693 Q814.719 67.2693 818.203 63.421 Q821.727 59.5726 821.727 52.9291 L821.727 27.2059 L829.181 27.2059 L829.181 72.576 L821.727 72.576 L821.727 65.6084 Q819.013 69.7404 815.408 71.7658 Q811.843 73.7508 807.104 73.7508 Q799.285 73.7508 795.234 68.8897 Q791.184 64.0286 791.184 54.671 M809.939 26.1121 L809.939 26.1121 Z" fill="#000000" fill-rule="nonzero" fill-opacity="1"></path><path clip-path="url(#clip510)" d="M879.858 35.9153 Q882.653 30.8922 886.542 28.5022 Q890.431 26.1121 895.697 26.1121 Q902.786 26.1121 906.634 31.0947 Q910.483 36.0368 910.483 45.1919 L910.483 72.576 L902.988 72.576 L902.988 45.4349 Q902.988 38.913 900.679 35.7533 Q898.37 32.5936 893.631 32.5936 Q887.838 32.5936 884.476 36.4419 Q881.114 40.2903 881.114 46.9338 L881.114 72.576 L873.619 72.576 L873.619 45.4349 Q873.619 38.8725 871.31 35.7533 Q869.001 32.5936 864.181 32.5936 Q858.469 32.5936 855.107 36.4824 Q851.745 40.3308 851.745 46.9338 L851.745 72.576 L844.25 72.576 L844.25 27.2059 L851.745 27.2059 L851.745 34.2544 Q854.297 30.082 857.861 28.0971 Q861.426 26.1121 866.328 26.1121 Q871.27 26.1121 874.713 28.6237 Q878.197 31.1352 879.858 35.9153 Z" fill="#000000" fill-rule="nonzero" fill-opacity="1"></path><path clip-path="url(#clip510)" d="M964.157 48.0275 L964.157 51.6733 L929.886 51.6733 Q930.373 59.3701 934.505 63.421 Q938.677 67.4314 946.09 67.4314 Q950.384 67.4314 954.394 66.3781 Q958.445 65.3249 962.415 63.2184 L962.415 70.267 Q958.405 71.9684 954.192 72.8596 Q949.979 73.7508 945.645 73.7508 Q934.788 73.7508 928.428 67.4314 Q922.109 61.1119 922.109 50.3365 Q922.109 39.1965 928.104 32.6746 Q934.14 26.1121 944.348 26.1121 Q953.503 26.1121 958.81 32.0264 Q964.157 37.9003 964.157 48.0275 M956.703 45.84 Q956.622 39.7232 953.26 36.0774 Q949.938 32.4315 944.429 32.4315 Q938.191 32.4315 934.424 35.9558 Q930.697 39.4801 930.13 45.8805 L956.703 45.84 Z" fill="#000000" fill-rule="nonzero" fill-opacity="1"></path><path clip-path="url(#clip510)" d="M1002.68 34.1734 Q1001.43 33.4443 999.927 33.1202 Q998.468 32.7556 996.686 32.7556 Q990.366 32.7556 986.964 36.8875 Q983.601 40.9789 983.601 48.6757 L983.601 72.576 L976.107 72.576 L976.107 27.2059 L983.601 27.2059 L983.601 34.2544 Q985.951 30.1225 989.718 28.1376 Q993.486 26.1121 998.873 26.1121 Q999.643 26.1121 1000.57 26.2337 Q1001.51 26.3147 1002.64 26.5172 L1002.68 34.1734 Z" fill="#000000" fill-rule="nonzero" fill-opacity="1"></path><path clip-path="url(#clip510)" d="M1026.26 32.4315 Q1020.26 32.4315 1016.78 37.1306 Q1013.29 41.7891 1013.29 49.9314 Q1013.29 58.0738 1016.74 62.7728 Q1020.22 67.4314 1026.26 67.4314 Q1032.21 67.4314 1035.7 62.7323 Q1039.18 58.0333 1039.18 49.9314 Q1039.18 41.8701 1035.7 37.1711 Q1032.21 32.4315 1026.26 32.4315 M1026.26 26.1121 Q1035.98 26.1121 1041.53 32.4315 Q1047.08 38.7509 1047.08 49.9314 Q1047.08 61.0714 1041.53 67.4314 Q1035.98 73.7508 1026.26 73.7508 Q1016.49 73.7508 1010.95 67.4314 Q1005.44 61.0714 1005.44 49.9314 Q1005.44 38.7509 1010.95 32.4315 Q1016.49 26.1121 1026.26 26.1121 Z" fill="#000000" fill-rule="nonzero" fill-opacity="1"></path><path clip-path="url(#clip510)" d="M1115.66 34.0924 L1115.66 9.54393 L1123.11 9.54393 L1123.11 72.576 L1115.66 72.576 L1115.66 65.7705 Q1113.31 69.8214 1109.71 71.8063 Q1106.14 73.7508 1101.12 73.7508 Q1092.89 73.7508 1087.71 67.1883 Q1082.57 60.6258 1082.57 49.9314 Q1082.57 39.2371 1087.71 32.6746 Q1092.89 26.1121 1101.12 26.1121 Q1106.14 26.1121 1109.71 28.0971 Q1113.31 30.0415 1115.66 34.0924 M1090.26 49.9314 Q1090.26 58.1548 1093.62 62.8538 Q1097.03 67.5124 1102.94 67.5124 Q1108.86 67.5124 1112.26 62.8538 Q1115.66 58.1548 1115.66 49.9314 Q1115.66 41.7081 1112.26 37.0496 Q1108.86 32.3505 1102.94 32.3505 Q1097.03 32.3505 1093.62 37.0496 Q1090.26 41.7081 1090.26 49.9314 Z" fill="#000000" fill-rule="nonzero" fill-opacity="1"></path><path clip-path="url(#clip510)" d="M1138.47 27.2059 L1145.92 27.2059 L1145.92 72.576 L1138.47 72.576 L1138.47 27.2059 M1138.47 9.54393 L1145.92 9.54393 L1145.92 18.9825 L1138.47 18.9825 L1138.47 9.54393 Z" fill="#000000" fill-rule="nonzero" fill-opacity="1"></path><path clip-path="url(#clip510)" d="M1188.21 12.096 L1196.4 12.096 L1196.4 72.576 L1188.21 72.576 L1188.21 12.096 Z" fill="#000000" fill-rule="nonzero" fill-opacity="1"></path><path clip-path="url(#clip510)" d="M1250.07 45.1919 L1250.07 72.576 L1242.62 72.576 L1242.62 45.4349 Q1242.62 38.994 1240.1 35.7938 Q1237.59 32.5936 1232.57 32.5936 Q1226.53 32.5936 1223.05 36.4419 Q1219.57 40.2903 1219.57 46.9338 L1219.57 72.576 L1212.07 72.576 L1212.07 27.2059 L1219.57 27.2059 L1219.57 34.2544 Q1222.24 30.163 1225.85 28.1376 Q1229.49 26.1121 1234.23 26.1121 Q1242.05 26.1121 1246.06 30.9732 Q1250.07 35.7938 1250.07 45.1919 Z" fill="#000000" fill-rule="nonzero" fill-opacity="1"></path><path clip-path="url(#clip510)" d="M1297.59 28.9478 L1297.59 35.9153 Q1294.43 34.1734 1291.23 33.3227 Q1288.07 32.4315 1284.83 32.4315 Q1277.58 32.4315 1273.57 37.0496 Q1269.55 41.6271 1269.55 49.9314 Q1269.55 58.2358 1273.57 62.8538 Q1277.58 67.4314 1284.83 67.4314 Q1288.07 67.4314 1291.23 66.5807 Q1294.43 65.6895 1297.59 63.9476 L1297.59 70.8341 Q1294.47 72.2924 1291.11 73.0216 Q1287.78 73.7508 1284.02 73.7508 Q1273.77 73.7508 1267.73 67.3098 Q1261.7 60.8689 1261.7 49.9314 Q1261.7 38.832 1267.77 32.472 Q1273.89 26.1121 1284.5 26.1121 Q1287.95 26.1121 1291.23 26.8413 Q1294.51 27.5299 1297.59 28.9478 Z" fill="#000000" fill-rule="nonzero" fill-opacity="1"></path><path clip-path="url(#clip510)" d="M1349.36 48.0275 L1349.36 51.6733 L1315.09 51.6733 Q1315.57 59.3701 1319.71 63.421 Q1323.88 67.4314 1331.29 67.4314 Q1335.58 67.4314 1339.59 66.3781 Q1343.65 65.3249 1347.62 63.2184 L1347.62 70.267 Q1343.61 71.9684 1339.39 72.8596 Q1335.18 73.7508 1330.84 73.7508 Q1319.99 73.7508 1313.63 67.4314 Q1307.31 61.1119 1307.31 50.3365 Q1307.31 39.1965 1313.3 32.6746 Q1319.34 26.1121 1329.55 26.1121 Q1338.7 26.1121 1344.01 32.0264 Q1349.36 37.9003 1349.36 48.0275 M1341.9 45.84 Q1341.82 39.7232 1338.46 36.0774 Q1335.14 32.4315 1329.63 32.4315 Q1323.39 32.4315 1319.62 35.9558 Q1315.9 39.4801 1315.33 45.8805 L1341.9 45.84 Z" fill="#000000" fill-rule="nonzero" fill-opacity="1"></path><path clip-path="url(#clip510)" d="M1399.31 45.1919 L1399.31 72.576 L1391.85 72.576 L1391.85 45.4349 Q1391.85 38.994 1389.34 35.7938 Q1386.83 32.5936 1381.81 32.5936 Q1375.77 32.5936 1372.29 36.4419 Q1368.8 40.2903 1368.8 46.9338 L1368.8 72.576 L1361.31 72.576 L1361.31 27.2059 L1368.8 27.2059 L1368.8 34.2544 Q1371.48 30.163 1375.08 28.1376 Q1378.73 26.1121 1383.47 26.1121 Q1391.28 26.1121 1395.29 30.9732 Q1399.31 35.7938 1399.31 45.1919 Z" fill="#000000" fill-rule="nonzero" fill-opacity="1"></path><path clip-path="url(#clip510)" d="M1444.03 34.0924 L1444.03 9.54393 L1451.48 9.54393 L1451.48 72.576 L1444.03 72.576 L1444.03 65.7705 Q1441.68 69.8214 1438.07 71.8063 Q1434.51 73.7508 1429.48 73.7508 Q1421.26 73.7508 1416.08 67.1883 Q1410.93 60.6258 1410.93 49.9314 Q1410.93 39.2371 1416.08 32.6746 Q1421.26 26.1121 1429.48 26.1121 Q1434.51 26.1121 1438.07 28.0971 Q1441.68 30.0415 1444.03 34.0924 M1418.63 49.9314 Q1418.63 58.1548 1421.99 62.8538 Q1425.39 67.5124 1431.31 67.5124 Q1437.22 67.5124 1440.62 62.8538 Q1444.03 58.1548 1444.03 49.9314 Q1444.03 41.7081 1440.62 37.0496 Q1437.22 32.3505 1431.31 32.3505 Q1425.39 32.3505 1421.99 37.0496 Q1418.63 41.7081 1418.63 49.9314 Z" fill="#000000" fill-rule="nonzero" fill-opacity="1"></path><path clip-path="url(#clip510)" d="M1466.83 27.2059 L1474.29 27.2059 L1474.29 72.576 L1466.83 72.576 L1466.83 27.2059 M1466.83 9.54393 L1474.29 9.54393 L1474.29 18.9825 L1466.83 18.9825 L1466.83 9.54393 Z" fill="#000000" fill-rule="nonzero" fill-opacity="1"></path><path clip-path="url(#clip510)" d="M1523.47 65.7705 L1523.47 89.8329 L1515.97 89.8329 L1515.97 27.2059 L1523.47 27.2059 L1523.47 34.0924 Q1525.82 30.0415 1529.38 28.0971 Q1532.99 26.1121 1537.97 26.1121 Q1546.23 26.1121 1551.38 32.6746 Q1556.56 39.2371 1556.56 49.9314 Q1556.56 60.6258 1551.38 67.1883 Q1546.23 73.7508 1537.97 73.7508 Q1532.99 73.7508 1529.38 71.8063 Q1525.82 69.8214 1523.47 65.7705 M1548.82 49.9314 Q1548.82 41.7081 1545.42 37.0496 Q1542.06 32.3505 1536.14 32.3505 Q1530.23 32.3505 1526.83 37.0496 Q1523.47 41.7081 1523.47 49.9314 Q1523.47 58.1548 1526.83 62.8538 Q1530.23 67.5124 1536.14 67.5124 Q1542.06 67.5124 1545.42 62.8538 Q1548.82 58.1548 1548.82 49.9314 Z" fill="#000000" fill-rule="nonzero" fill-opacity="1"></path><path clip-path="url(#clip510)" d="M1607.72 48.0275 L1607.72 51.6733 L1573.45 51.6733 Q1573.94 59.3701 1578.07 63.421 Q1582.24 67.4314 1589.66 67.4314 Q1593.95 67.4314 1597.96 66.3781 Q1602.01 65.3249 1605.98 63.2184 L1605.98 70.267 Q1601.97 71.9684 1597.76 72.8596 Q1593.55 73.7508 1589.21 73.7508 Q1578.36 73.7508 1572 67.4314 Q1565.68 61.1119 1565.68 50.3365 Q1565.68 39.1965 1571.67 32.6746 Q1577.71 26.1121 1587.92 26.1121 Q1597.07 26.1121 1602.38 32.0264 Q1607.72 37.9003 1607.72 48.0275 M1600.27 45.84 Q1600.19 39.7232 1596.83 36.0774 Q1593.51 32.4315 1588 32.4315 Q1581.76 32.4315 1577.99 35.9558 Q1574.26 39.4801 1573.7 45.8805 L1600.27 45.84 Z" fill="#000000" fill-rule="nonzero" fill-opacity="1"></path><path clip-path="url(#clip510)" d="M1646.25 34.1734 Q1644.99 33.4443 1643.49 33.1202 Q1642.04 32.7556 1640.25 32.7556 Q1633.93 32.7556 1630.53 36.8875 Q1627.17 40.9789 1627.17 48.6757 L1627.17 72.576 L1619.67 72.576 L1619.67 27.2059 L1627.17 27.2059 L1627.17 34.2544 Q1629.52 30.1225 1633.29 28.1376 Q1637.05 26.1121 1642.44 26.1121 Q1643.21 26.1121 1644.14 26.2337 Q1645.07 26.3147 1646.21 26.5172 L1646.25 34.1734 Z" fill="#000000" fill-rule="nonzero" fill-opacity="1"></path><path clip-path="url(#clip510)" d="M1680.76 12.096 L1692.96 12.096 L1708.39 53.2532 L1723.9 12.096 L1736.1 12.096 L1736.1 72.576 L1728.12 72.576 L1728.12 19.4686 L1712.52 60.9499 L1704.3 60.9499 L1688.7 19.4686 L1688.7 72.576 L1680.76 72.576 L1680.76 12.096 Z" fill="#000000" fill-rule="nonzero" fill-opacity="1"></path><path clip-path="url(#clip510)" d="M1790.83 48.0275 L1790.83 51.6733 L1756.55 51.6733 Q1757.04 59.3701 1761.17 63.421 Q1765.34 67.4314 1772.76 67.4314 Q1777.05 67.4314 1781.06 66.3781 Q1785.11 65.3249 1789.08 63.2184 L1789.08 70.267 Q1785.07 71.9684 1780.86 72.8596 Q1776.65 73.7508 1772.31 73.7508 Q1761.46 73.7508 1755.1 67.4314 Q1748.78 61.1119 1748.78 50.3365 Q1748.78 39.1965 1754.77 32.6746 Q1760.81 26.1121 1771.02 26.1121 Q1780.17 26.1121 1785.48 32.0264 Q1790.83 37.9003 1790.83 48.0275 M1783.37 45.84 Q1783.29 39.7232 1779.93 36.0774 Q1776.61 32.4315 1771.1 32.4315 Q1764.86 32.4315 1761.09 35.9558 Q1757.36 39.4801 1756.8 45.8805 L1783.37 45.84 Z" fill="#000000" fill-rule="nonzero" fill-opacity="1"></path><path clip-path="url(#clip510)" d="M1831.98 28.5427 L1831.98 35.5912 Q1828.82 33.9709 1825.42 33.1607 Q1822.02 32.3505 1818.37 32.3505 Q1812.82 32.3505 1810.03 34.0519 Q1807.27 35.7533 1807.27 39.156 Q1807.27 41.7486 1809.26 43.2475 Q1811.24 44.7058 1817.24 46.0426 L1819.79 46.6097 Q1827.73 48.3111 1831.05 51.4303 Q1834.41 54.509 1834.41 60.0587 Q1834.41 66.3781 1829.39 70.0644 Q1824.41 73.7508 1815.66 73.7508 Q1812.01 73.7508 1808.04 73.0216 Q1804.11 72.3329 1799.74 70.9151 L1799.74 63.2184 Q1803.87 65.3654 1807.88 66.4591 Q1811.89 67.5124 1815.82 67.5124 Q1821.09 67.5124 1823.92 65.73 Q1826.76 63.9071 1826.76 60.6258 Q1826.76 57.5877 1824.69 55.9673 Q1822.67 54.3469 1815.74 52.8481 L1813.15 52.2405 Q1806.22 50.7821 1803.14 47.7845 Q1800.06 44.7463 1800.06 39.4801 Q1800.06 33.0797 1804.6 29.5959 Q1809.14 26.1121 1817.48 26.1121 Q1821.61 26.1121 1825.26 26.7198 Q1828.9 27.3274 1831.98 28.5427 Z" fill="#000000" fill-rule="nonzero" fill-opacity="1"></path><path clip-path="url(#clip510)" d="M1885.09 48.0275 L1885.09 51.6733 L1850.82 51.6733 Q1851.31 59.3701 1855.44 63.421 Q1859.61 67.4314 1867.02 67.4314 Q1871.32 67.4314 1875.33 66.3781 Q1879.38 65.3249 1883.35 63.2184 L1883.35 70.267 Q1879.34 71.9684 1875.12 72.8596 Q1870.91 73.7508 1866.58 73.7508 Q1855.72 73.7508 1849.36 67.4314 Q1843.04 61.1119 1843.04 50.3365 Q1843.04 39.1965 1849.04 32.6746 Q1855.07 26.1121 1865.28 26.1121 Q1874.44 26.1121 1879.74 32.0264 Q1885.09 37.9003 1885.09 48.0275 M1877.64 45.84 Q1877.56 39.7232 1874.19 36.0774 Q1870.87 32.4315 1865.36 32.4315 Q1859.12 32.4315 1855.36 35.9558 Q1851.63 39.4801 1851.06 45.8805 L1877.64 45.84 Z" fill="#000000" fill-rule="nonzero" fill-opacity="1"></path><path clip-path="url(#clip512)" d="M377.516 1421.09 L377.516 1423.18 L503.637 1423.18 L503.637 1421.09 L377.516 1421.09 L377.516 1421.09  Z" fill="#009af9" fill-rule="evenodd" fill-opacity="1"></path>
<polyline clip-path="url(#clip512)" style="stroke:#000000; stroke-linecap:round; stroke-linejoin:round; stroke-width:4; stroke-opacity:1; fill:none" points="377.516,1421.09 377.516,1423.18 503.637,1423.18 503.637,1421.09 377.516,1421.09 "></polyline>
<path clip-path="url(#clip512)" d="M535.167 1414.8 L535.167 1423.18 L661.287 1423.18 L661.287 1414.8 L535.167 1414.8 L535.167 1414.8  Z" fill="#009af9" fill-rule="evenodd" fill-opacity="1"></path>
<polyline clip-path="url(#clip512)" style="stroke:#000000; stroke-linecap:round; stroke-linejoin:round; stroke-width:4; stroke-opacity:1; fill:none" points="535.167,1414.8 535.167,1423.18 661.287,1423.18 661.287,1414.8 535.167,1414.8 "></polyline>
<path clip-path="url(#clip512)" d="M692.817 1415.85 L692.817 1423.18 L818.937 1423.18 L818.937 1415.85 L692.817 1415.85 L692.817 1415.85  Z" fill="#009af9" fill-rule="evenodd" fill-opacity="1"></path>
<polyline clip-path="url(#clip512)" style="stroke:#000000; stroke-linecap:round; stroke-linejoin:round; stroke-width:4; stroke-opacity:1; fill:none" points="692.817,1415.85 692.817,1423.18 818.937,1423.18 818.937,1415.85 692.817,1415.85 "></polyline>
<path clip-path="url(#clip512)" d="M850.467 1392.81 L850.467 1423.18 L976.588 1423.18 L976.588 1392.81 L850.467 1392.81 L850.467 1392.81  Z" fill="#009af9" fill-rule="evenodd" fill-opacity="1"></path>
<polyline clip-path="url(#clip512)" style="stroke:#000000; stroke-linecap:round; stroke-linejoin:round; stroke-width:4; stroke-opacity:1; fill:none" points="850.467,1392.81 850.467,1423.18 976.588,1423.18 976.588,1392.81 850.467,1392.81 "></polyline>
<path clip-path="url(#clip512)" d="M1008.12 1365.58 L1008.12 1423.18 L1134.24 1423.18 L1134.24 1365.58 L1008.12 1365.58 L1008.12 1365.58  Z" fill="#009af9" fill-rule="evenodd" fill-opacity="1"></path>
<polyline clip-path="url(#clip512)" style="stroke:#000000; stroke-linecap:round; stroke-linejoin:round; stroke-width:4; stroke-opacity:1; fill:none" points="1008.12,1365.58 1008.12,1423.18 1134.24,1423.18 1134.24,1365.58 1008.12,1365.58 "></polyline>
<path clip-path="url(#clip512)" d="M1165.77 884.864 L1165.77 1423.18 L1291.89 1423.18 L1291.89 884.864 L1165.77 884.864 L1165.77 884.864  Z" fill="#009af9" fill-rule="evenodd" fill-opacity="1"></path>
<polyline clip-path="url(#clip512)" style="stroke:#000000; stroke-linecap:round; stroke-linejoin:round; stroke-width:4; stroke-opacity:1; fill:none" points="1165.77,884.864 1165.77,1423.18 1291.89,1423.18 1291.89,884.864 1165.77,884.864 "></polyline>
<path clip-path="url(#clip512)" d="M1323.42 123.472 L1323.42 1423.18 L1449.54 1423.18 L1449.54 123.472 L1323.42 123.472 L1323.42 123.472  Z" fill="#009af9" fill-rule="evenodd" fill-opacity="1"></path>
<polyline clip-path="url(#clip512)" style="stroke:#000000; stroke-linecap:round; stroke-linejoin:round; stroke-width:4; stroke-opacity:1; fill:none" points="1323.42,123.472 1323.42,1423.18 1449.54,1423.18 1449.54,123.472 1323.42,123.472 "></polyline>
<path clip-path="url(#clip512)" d="M1481.07 144.418 L1481.07 1423.18 L1607.19 1423.18 L1607.19 144.418 L1481.07 144.418 L1481.07 144.418  Z" fill="#009af9" fill-rule="evenodd" fill-opacity="1"></path>
<polyline clip-path="url(#clip512)" style="stroke:#000000; stroke-linecap:round; stroke-linejoin:round; stroke-width:4; stroke-opacity:1; fill:none" points="1481.07,144.418 1481.07,1423.18 1607.19,1423.18 1607.19,144.418 1481.07,144.418 "></polyline>
<path clip-path="url(#clip512)" d="M1638.72 738.241 L1638.72 1423.18 L1764.84 1423.18 L1764.84 738.241 L1638.72 738.241 L1638.72 738.241  Z" fill="#009af9" fill-rule="evenodd" fill-opacity="1"></path>
<polyline clip-path="url(#clip512)" style="stroke:#000000; stroke-linecap:round; stroke-linejoin:round; stroke-width:4; stroke-opacity:1; fill:none" points="1638.72,738.241 1638.72,1423.18 1764.84,1423.18 1764.84,738.241 1638.72,738.241 "></polyline>
<path clip-path="url(#clip512)" d="M1796.37 1306.93 L1796.37 1423.18 L1922.49 1423.18 L1922.49 1306.93 L1796.37 1306.93 L1796.37 1306.93  Z" fill="#009af9" fill-rule="evenodd" fill-opacity="1"></path>
<polyline clip-path="url(#clip512)" style="stroke:#000000; stroke-linecap:round; stroke-linejoin:round; stroke-width:4; stroke-opacity:1; fill:none" points="1796.37,1306.93 1796.37,1423.18 1922.49,1423.18 1922.49,1306.93 1796.37,1306.93 "></polyline>
<path clip-path="url(#clip512)" d="M1954.02 1412.71 L1954.02 1423.18 L2080.14 1423.18 L2080.14 1412.71 L1954.02 1412.71 L1954.02 1412.71  Z" fill="#009af9" fill-rule="evenodd" fill-opacity="1"></path>
<polyline clip-path="url(#clip512)" style="stroke:#000000; stroke-linecap:round; stroke-linejoin:round; stroke-width:4; stroke-opacity:1; fill:none" points="1954.02,1412.71 1954.02,1423.18 2080.14,1423.18 2080.14,1412.71 1954.02,1412.71 "></polyline>
<path clip-path="url(#clip512)" d="M2111.67 1422.13 L2111.67 1423.18 L2237.79 1423.18 L2237.79 1422.13 L2111.67 1422.13 L2111.67 1422.13  Z" fill="#009af9" fill-rule="evenodd" fill-opacity="1"></path>
<polyline clip-path="url(#clip512)" style="stroke:#000000; stroke-linecap:round; stroke-linejoin:round; stroke-width:4; stroke-opacity:1; fill:none" points="2111.67,1422.13 2111.67,1423.18 2237.79,1423.18 2237.79,1422.13 2111.67,1422.13 "></polyline>
<circle clip-path="url(#clip512)" style="fill:#009af9; stroke:none; fill-opacity:0" cx="440.576" cy="1421.09" r="2"></circle>
<circle clip-path="url(#clip512)" style="fill:#009af9; stroke:none; fill-opacity:0" cx="598.227" cy="1414.8" r="2"></circle>
<circle clip-path="url(#clip512)" style="fill:#009af9; stroke:none; fill-opacity:0" cx="755.877" cy="1415.85" r="2"></circle>
<circle clip-path="url(#clip512)" style="fill:#009af9; stroke:none; fill-opacity:0" cx="913.528" cy="1392.81" r="2"></circle>
<circle clip-path="url(#clip512)" style="fill:#009af9; stroke:none; fill-opacity:0" cx="1071.18" cy="1365.58" r="2"></circle>
<circle clip-path="url(#clip512)" style="fill:#009af9; stroke:none; fill-opacity:0" cx="1228.83" cy="884.864" r="2"></circle>
<circle clip-path="url(#clip512)" style="fill:#009af9; stroke:none; fill-opacity:0" cx="1386.48" cy="123.472" r="2"></circle>
<circle clip-path="url(#clip512)" style="fill:#009af9; stroke:none; fill-opacity:0" cx="1544.13" cy="144.418" r="2"></circle>
<circle clip-path="url(#clip512)" style="fill:#009af9; stroke:none; fill-opacity:0" cx="1701.78" cy="738.241" r="2"></circle>
<circle clip-path="url(#clip512)" style="fill:#009af9; stroke:none; fill-opacity:0" cx="1859.43" cy="1306.93" r="2"></circle>
<circle clip-path="url(#clip512)" style="fill:#009af9; stroke:none; fill-opacity:0" cx="2017.08" cy="1412.71" r="2"></circle>
<circle clip-path="url(#clip512)" style="fill:#009af9; stroke:none; fill-opacity:0" cx="2174.73" cy="1422.13" r="2"></circle>
<path clip-path="url(#clip510)" d="M2021.63 270.476 L2283.08 270.476 L2283.08 166.796 L2021.63 166.796  Z" fill="#ffffff" fill-rule="evenodd" fill-opacity="1"></path>
<polyline clip-path="url(#clip510)" style="stroke:#000000; stroke-linecap:round; stroke-linejoin:round; stroke-width:4; stroke-opacity:1; fill:none" points="2021.63,270.476 2283.08,270.476 2283.08,166.796 2021.63,166.796 2021.63,270.476 "></polyline>
<path clip-path="url(#clip510)" d="M2044.86 239.372 L2184.2 239.372 L2184.2 197.9 L2044.86 197.9 L2044.86 239.372  Z" fill="#009af9" fill-rule="evenodd" fill-opacity="1"></path>
<polyline clip-path="url(#clip510)" style="stroke:#000000; stroke-linecap:round; stroke-linejoin:round; stroke-width:4; stroke-opacity:1; fill:none" points="2044.86,239.372 2184.2,239.372 2184.2,197.9 2044.86,197.9 2044.86,239.372 "></polyline>
<path clip-path="url(#clip510)" d="M2221.27 238.323 Q2219.46 242.953 2217.75 244.365 Q2216.04 245.777 2213.17 245.777 L2209.77 245.777 L2209.77 242.212 L2212.27 242.212 Q2214.02 242.212 2215 241.379 Q2215.97 240.545 2217.15 237.443 L2217.91 235.499 L2207.43 209.99 L2211.94 209.99 L2220.04 230.268 L2228.15 209.99 L2232.66 209.99 L2221.27 238.323 Z" fill="#000000" fill-rule="nonzero" fill-opacity="1"></path><path clip-path="url(#clip510)" d="M2239.95 231.981 L2247.59 231.981 L2247.59 205.615 L2239.28 207.282 L2239.28 203.022 L2247.54 201.356 L2252.22 201.356 L2252.22 231.981 L2259.86 231.981 L2259.86 235.916 L2239.95 235.916 L2239.95 231.981 Z" fill="#000000" fill-rule="nonzero" fill-opacity="1"></path></svg>