<svg xmlns="http://www.w3.org/2000/svg" xmlns:xlink="http://www.w3.org/1999/xlink" width="600" height="400" viewBox="0 0 2400 1600">
<defs>
  <clipPath id="clip660">
    <rect x="0" y="0" width="2400" height="1600"></rect>
  </clipPath>
</defs>
<path clip-path="url(#clip660)" d="M0 1600 L2400 1600 L2400 0 L0 0  Z" fill="#ffffff" fill-rule="evenodd" fill-opacity="1"></path>
<defs>
  <clipPath id="clip661">
    <rect x="480" y="0" width="1681" height="1600"></rect>
  </clipPath>
</defs>
<path clip-path="url(#clip660)" d="M235.283 1423.18 L2352.76 1423.18 L2352.76 123.472 L235.283 123.472  Z" fill="#ffffff" fill-rule="evenodd" fill-opacity="1"></path>
<defs>
  <clipPath id="clip662">
    <rect x="235" y="123" width="2118" height="1301"></rect>
  </clipPath>
</defs>
<polyline clip-path="url(#clip662)" style="stroke:#000000; stroke-linecap:round; stroke-linejoin:round; stroke-width:2; stroke-opacity:0.1; fill:none" points="689.999,1423.18 689.999,123.472 "></polyline>
<polyline clip-path="url(#clip662)" style="stroke:#000000; stroke-linecap:round; stroke-linejoin:round; stroke-width:2; stroke-opacity:0.1; fill:none" points="1173.22,1423.18 1173.22,123.472 "></polyline>
<polyline clip-path="url(#clip662)" style="stroke:#000000; stroke-linecap:round; stroke-linejoin:round; stroke-width:2; stroke-opacity:0.1; fill:none" points="1656.43,1423.18 1656.43,123.472 "></polyline>
<polyline clip-path="url(#clip662)" style="stroke:#000000; stroke-linecap:round; stroke-linejoin:round; stroke-width:2; stroke-opacity:0.1; fill:none" points="2139.65,1423.18 2139.65,123.472 "></polyline>
<polyline clip-path="url(#clip662)" style="stroke:#000000; stroke-linecap:round; stroke-linejoin:round; stroke-width:2; stroke-opacity:0.1; fill:none" points="235.283,1423.18 2352.76,1423.18 "></polyline>
<polyline clip-path="url(#clip662)" style="stroke:#000000; stroke-linecap:round; stroke-linejoin:round; stroke-width:2; stroke-opacity:0.1; fill:none" points="235.283,1222.3 2352.76,1222.3 "></polyline>
<polyline clip-path="url(#clip662)" style="stroke:#000000; stroke-linecap:round; stroke-linejoin:round; stroke-width:2; stroke-opacity:0.1; fill:none" points="235.283,1021.42 2352.76,1021.42 "></polyline>
<polyline clip-path="url(#clip662)" style="stroke:#000000; stroke-linecap:round; stroke-linejoin:round; stroke-width:2; stroke-opacity:0.1; fill:none" points="235.283,820.533 2352.76,820.533 "></polyline>
<polyline clip-path="url(#clip662)" style="stroke:#000000; stroke-linecap:round; stroke-linejoin:round; stroke-width:2; stroke-opacity:0.1; fill:none" points="235.283,619.651 2352.76,619.651 "></polyline>
<polyline clip-path="url(#clip662)" style="stroke:#000000; stroke-linecap:round; stroke-linejoin:round; stroke-width:2; stroke-opacity:0.1; fill:none" points="235.283,418.769 2352.76,418.769 "></polyline>
<polyline clip-path="url(#clip662)" style="stroke:#000000; stroke-linecap:round; stroke-linejoin:round; stroke-width:2; stroke-opacity:0.1; fill:none" points="235.283,217.887 2352.76,217.887 "></polyline>
<polyline clip-path="url(#clip660)" style="stroke:#000000; stroke-linecap:round; stroke-linejoin:round; stroke-width:4; stroke-opacity:1; fill:none" points="235.283,1423.18 2352.76,1423.18 "></polyline>
<polyline clip-path="url(#clip660)" style="stroke:#000000; stroke-linecap:round; stroke-linejoin:round; stroke-width:4; stroke-opacity:1; fill:none" points="689.999,1423.18 689.999,1404.28 "></polyline>
<polyline clip-path="url(#clip660)" style="stroke:#000000; stroke-linecap:round; stroke-linejoin:round; stroke-width:4; stroke-opacity:1; fill:none" points="1173.22,1423.18 1173.22,1404.28 "></polyline>
<polyline clip-path="url(#clip660)" style="stroke:#000000; stroke-linecap:round; stroke-linejoin:round; stroke-width:4; stroke-opacity:1; fill:none" points="1656.43,1423.18 1656.43,1404.28 "></polyline>
<polyline clip-path="url(#clip660)" style="stroke:#000000; stroke-linecap:round; stroke-linejoin:round; stroke-width:4; stroke-opacity:1; fill:none" points="2139.65,1423.18 2139.65,1404.28 "></polyline>
<path clip-path="url(#clip660)" d="M638.657 1481.64 L654.976 1481.64 L654.976 1485.58 L633.032 1485.58 L633.032 1481.64 Q635.694 1478.89 640.277 1474.26 Q644.884 1469.61 646.064 1468.27 Q648.309 1465.74 649.189 1464.01 Q650.092 1462.25 650.092 1460.56 Q650.092 1457.8 648.147 1456.07 Q646.226 1454.33 643.124 1454.33 Q640.925 1454.33 638.472 1455.09 Q636.041 1455.86 633.263 1457.41 L633.263 1452.69 Q636.087 1451.55 638.541 1450.97 Q640.995 1450.39 643.032 1450.39 Q648.402 1450.39 651.596 1453.08 Q654.791 1455.77 654.791 1460.26 Q654.791 1462.39 653.981 1464.31 Q653.194 1466.2 651.087 1468.8 Q650.509 1469.47 647.407 1472.69 Q644.305 1475.88 638.657 1481.64 Z" fill="#000000" fill-rule="nonzero" fill-opacity="1"></path><path clip-path="url(#clip660)" d="M674.791 1454.1 Q671.18 1454.1 669.351 1457.66 Q667.545 1461.2 667.545 1468.33 Q667.545 1475.44 669.351 1479.01 Q671.18 1482.55 674.791 1482.55 Q678.425 1482.55 680.231 1479.01 Q682.059 1475.44 682.059 1468.33 Q682.059 1461.2 680.231 1457.66 Q678.425 1454.1 674.791 1454.1 M674.791 1450.39 Q680.601 1450.39 683.656 1455 Q686.735 1459.58 686.735 1468.33 Q686.735 1477.06 683.656 1481.67 Q680.601 1486.25 674.791 1486.25 Q668.981 1486.25 665.902 1481.67 Q662.846 1477.06 662.846 1468.33 Q662.846 1459.58 665.902 1455 Q668.981 1450.39 674.791 1450.39 Z" fill="#000000" fill-rule="nonzero" fill-opacity="1"></path><path clip-path="url(#clip660)" d="M695.763 1481.64 L703.402 1481.64 L703.402 1455.28 L695.092 1456.95 L695.092 1452.69 L703.355 1451.02 L708.031 1451.02 L708.031 1481.64 L715.67 1481.64 L715.67 1485.58 L695.763 1485.58 L695.763 1481.64 Z" fill="#000000" fill-rule="nonzero" fill-opacity="1"></path><path clip-path="url(#clip660)" d="M735.115 1469.17 Q731.781 1469.17 729.86 1470.95 Q727.962 1472.73 727.962 1475.86 Q727.962 1478.98 729.86 1480.77 Q731.781 1482.55 735.115 1482.55 Q738.448 1482.55 740.369 1480.77 Q742.29 1478.96 742.29 1475.86 Q742.29 1472.73 740.369 1470.95 Q738.471 1469.17 735.115 1469.17 M730.439 1467.18 Q727.429 1466.44 725.74 1464.38 Q724.073 1462.32 724.073 1459.35 Q724.073 1455.21 727.013 1452.8 Q729.976 1450.39 735.115 1450.39 Q740.277 1450.39 743.216 1452.8 Q746.156 1455.21 746.156 1459.35 Q746.156 1462.32 744.466 1464.38 Q742.8 1466.44 739.814 1467.18 Q743.193 1467.96 745.068 1470.26 Q746.966 1472.55 746.966 1475.86 Q746.966 1480.88 743.888 1483.57 Q740.832 1486.25 735.115 1486.25 Q729.397 1486.25 726.318 1483.57 Q723.263 1480.88 723.263 1475.86 Q723.263 1472.55 725.161 1470.26 Q727.059 1467.96 730.439 1467.18 M728.726 1459.79 Q728.726 1462.48 730.392 1463.98 Q732.082 1465.49 735.115 1465.49 Q738.124 1465.49 739.814 1463.98 Q741.527 1462.48 741.527 1459.79 Q741.527 1457.11 739.814 1455.6 Q738.124 1454.1 735.115 1454.1 Q732.082 1454.1 730.392 1455.6 Q728.726 1457.11 728.726 1459.79 Z" fill="#000000" fill-rule="nonzero" fill-opacity="1"></path><path clip-path="url(#clip660)" d="M1121.83 1481.64 L1138.15 1481.64 L1138.15 1485.58 L1116.2 1485.58 L1116.2 1481.64 Q1118.86 1478.89 1123.45 1474.26 Q1128.05 1469.61 1129.23 1468.27 Q1131.48 1465.74 1132.36 1464.01 Q1133.26 1462.25 1133.26 1460.56 Q1133.26 1457.8 1131.32 1456.07 Q1129.4 1454.33 1126.29 1454.33 Q1124.1 1454.33 1121.64 1455.09 Q1119.21 1455.86 1116.43 1457.41 L1116.43 1452.69 Q1119.26 1451.55 1121.71 1450.97 Q1124.16 1450.39 1126.2 1450.39 Q1131.57 1450.39 1134.77 1453.08 Q1137.96 1455.77 1137.96 1460.26 Q1137.96 1462.39 1137.15 1464.31 Q1136.36 1466.2 1134.26 1468.8 Q1133.68 1469.47 1130.58 1472.69 Q1127.47 1475.88 1121.83 1481.64 Z" fill="#000000" fill-rule="nonzero" fill-opacity="1"></path><path clip-path="url(#clip660)" d="M1157.96 1454.1 Q1154.35 1454.1 1152.52 1457.66 Q1150.72 1461.2 1150.72 1468.33 Q1150.72 1475.44 1152.52 1479.01 Q1154.35 1482.55 1157.96 1482.55 Q1161.6 1482.55 1163.4 1479.01 Q1165.23 1475.44 1165.23 1468.33 Q1165.23 1461.2 1163.4 1457.66 Q1161.6 1454.1 1157.96 1454.1 M1157.96 1450.39 Q1163.77 1450.39 1166.83 1455 Q1169.91 1459.58 1169.91 1468.33 Q1169.91 1477.06 1166.83 1481.67 Q1163.77 1486.25 1157.96 1486.25 Q1152.15 1486.25 1149.07 1481.67 Q1146.02 1477.06 1146.02 1468.33 Q1146.02 1459.58 1149.07 1455 Q1152.15 1450.39 1157.96 1450.39 Z" fill="#000000" fill-rule="nonzero" fill-opacity="1"></path><path clip-path="url(#clip660)" d="M1182.15 1481.64 L1198.47 1481.64 L1198.47 1485.58 L1176.53 1485.58 L1176.53 1481.64 Q1179.19 1478.89 1183.77 1474.26 Q1188.38 1469.61 1189.56 1468.27 Q1191.8 1465.74 1192.68 1464.01 Q1193.59 1462.25 1193.59 1460.56 Q1193.59 1457.8 1191.64 1456.07 Q1189.72 1454.33 1186.62 1454.33 Q1184.42 1454.33 1181.97 1455.09 Q1179.53 1455.86 1176.76 1457.41 L1176.76 1452.69 Q1179.58 1451.55 1182.03 1450.97 Q1184.49 1450.39 1186.53 1450.39 Q1191.9 1450.39 1195.09 1453.08 Q1198.28 1455.77 1198.28 1460.26 Q1198.28 1462.39 1197.47 1464.31 Q1196.69 1466.2 1194.58 1468.8 Q1194 1469.47 1190.9 1472.69 Q1187.8 1475.88 1182.15 1481.64 Z" fill="#000000" fill-rule="nonzero" fill-opacity="1"></path><path clip-path="url(#clip660)" d="M1218.28 1454.1 Q1214.67 1454.1 1212.84 1457.66 Q1211.04 1461.2 1211.04 1468.33 Q1211.04 1475.44 1212.84 1479.01 Q1214.67 1482.55 1218.28 1482.55 Q1221.92 1482.55 1223.72 1479.01 Q1225.55 1475.44 1225.55 1468.33 Q1225.55 1461.2 1223.72 1457.66 Q1221.92 1454.1 1218.28 1454.1 M1218.28 1450.39 Q1224.09 1450.39 1227.15 1455 Q1230.23 1459.58 1230.23 1468.33 Q1230.23 1477.06 1227.15 1481.67 Q1224.09 1486.25 1218.28 1486.25 Q1212.47 1486.25 1209.4 1481.67 Q1206.34 1477.06 1206.34 1468.33 Q1206.34 1459.58 1209.4 1455 Q1212.47 1450.39 1218.28 1450.39 Z" fill="#000000" fill-rule="nonzero" fill-opacity="1"></path><path clip-path="url(#clip660)" d="M1605.84 1481.64 L1622.16 1481.64 L1622.16 1485.58 L1600.22 1485.58 L1600.22 1481.64 Q1602.88 1478.89 1607.46 1474.26 Q1612.07 1469.61 1613.25 1468.27 Q1615.49 1465.74 1616.37 1464.01 Q1617.28 1462.25 1617.28 1460.56 Q1617.28 1457.8 1615.33 1456.07 Q1613.41 1454.33 1610.31 1454.33 Q1608.11 1454.33 1605.66 1455.09 Q1603.23 1455.86 1600.45 1457.41 L1600.45 1452.69 Q1603.27 1451.55 1605.73 1450.97 Q1608.18 1450.39 1610.22 1450.39 Q1615.59 1450.39 1618.78 1453.08 Q1621.98 1455.77 1621.98 1460.26 Q1621.98 1462.39 1621.17 1464.31 Q1620.38 1466.2 1618.27 1468.8 Q1617.69 1469.47 1614.59 1472.69 Q1611.49 1475.88 1605.84 1481.64 Z" fill="#000000" fill-rule="nonzero" fill-opacity="1"></path><path clip-path="url(#clip660)" d="M1641.98 1454.1 Q1638.36 1454.1 1636.54 1457.66 Q1634.73 1461.2 1634.73 1468.33 Q1634.73 1475.44 1636.54 1479.01 Q1638.36 1482.55 1641.98 1482.55 Q1645.61 1482.55 1647.42 1479.01 Q1649.24 1475.44 1649.24 1468.33 Q1649.24 1461.2 1647.42 1457.66 Q1645.61 1454.1 1641.98 1454.1 M1641.98 1450.39 Q1647.79 1450.39 1650.84 1455 Q1653.92 1459.58 1653.92 1468.33 Q1653.92 1477.06 1650.84 1481.67 Q1647.79 1486.25 1641.98 1486.25 Q1636.17 1486.25 1633.09 1481.67 Q1630.03 1477.06 1630.03 1468.33 Q1630.03 1459.58 1633.09 1455 Q1636.17 1450.39 1641.98 1450.39 Z" fill="#000000" fill-rule="nonzero" fill-opacity="1"></path><path clip-path="url(#clip660)" d="M1666.17 1481.64 L1682.48 1481.64 L1682.48 1485.58 L1660.54 1485.58 L1660.54 1481.64 Q1663.2 1478.89 1667.79 1474.26 Q1672.39 1469.61 1673.57 1468.27 Q1675.82 1465.74 1676.7 1464.01 Q1677.6 1462.25 1677.6 1460.56 Q1677.6 1457.8 1675.66 1456.07 Q1673.73 1454.33 1670.63 1454.33 Q1668.43 1454.33 1665.98 1455.09 Q1663.55 1455.86 1660.77 1457.41 L1660.77 1452.69 Q1663.6 1451.55 1666.05 1450.97 Q1668.5 1450.39 1670.54 1450.39 Q1675.91 1450.39 1679.11 1453.08 Q1682.3 1455.77 1682.3 1460.26 Q1682.3 1462.39 1681.49 1464.31 Q1680.7 1466.2 1678.6 1468.8 Q1678.02 1469.47 1674.92 1472.69 Q1671.81 1475.88 1666.17 1481.64 Z" fill="#000000" fill-rule="nonzero" fill-opacity="1"></path><path clip-path="url(#clip660)" d="M1696.33 1481.64 L1712.65 1481.64 L1712.65 1485.58 L1690.7 1485.58 L1690.7 1481.64 Q1693.36 1478.89 1697.95 1474.26 Q1702.55 1469.61 1703.73 1468.27 Q1705.98 1465.74 1706.86 1464.01 Q1707.76 1462.25 1707.76 1460.56 Q1707.76 1457.8 1705.82 1456.07 Q1703.9 1454.33 1700.79 1454.33 Q1698.6 1454.33 1696.14 1455.09 Q1693.71 1455.86 1690.93 1457.41 L1690.93 1452.69 Q1693.76 1451.55 1696.21 1450.97 Q1698.67 1450.39 1700.7 1450.39 Q1706.07 1450.39 1709.27 1453.08 Q1712.46 1455.77 1712.46 1460.26 Q1712.46 1462.39 1711.65 1464.31 Q1710.86 1466.2 1708.76 1468.8 Q1708.18 1469.47 1705.08 1472.69 Q1701.98 1475.88 1696.33 1481.64 Z" fill="#000000" fill-rule="nonzero" fill-opacity="1"></path><path clip-path="url(#clip660)" d="M2088.02 1481.64 L2104.34 1481.64 L2104.34 1485.58 L2082.39 1485.58 L2082.39 1481.64 Q2085.05 1478.89 2089.64 1474.26 Q2094.24 1469.61 2095.42 1468.27 Q2097.67 1465.74 2098.55 1464.01 Q2099.45 1462.25 2099.45 1460.56 Q2099.45 1457.8 2097.51 1456.07 Q2095.59 1454.33 2092.48 1454.33 Q2090.28 1454.33 2087.83 1455.09 Q2085.4 1455.86 2082.62 1457.41 L2082.62 1452.69 Q2085.45 1451.55 2087.9 1450.97 Q2090.35 1450.39 2092.39 1450.39 Q2097.76 1450.39 2100.96 1453.08 Q2104.15 1455.77 2104.15 1460.26 Q2104.15 1462.39 2103.34 1464.31 Q2102.55 1466.2 2100.45 1468.8 Q2099.87 1469.47 2096.77 1472.69 Q2093.66 1475.88 2088.02 1481.64 Z" fill="#000000" fill-rule="nonzero" fill-opacity="1"></path><path clip-path="url(#clip660)" d="M2124.15 1454.1 Q2120.54 1454.1 2118.71 1457.66 Q2116.9 1461.2 2116.9 1468.33 Q2116.9 1475.44 2118.71 1479.01 Q2120.54 1482.55 2124.15 1482.55 Q2127.78 1482.55 2129.59 1479.01 Q2131.42 1475.44 2131.42 1468.33 Q2131.42 1461.2 2129.59 1457.66 Q2127.78 1454.1 2124.15 1454.1 M2124.15 1450.39 Q2129.96 1450.39 2133.02 1455 Q2136.09 1459.58 2136.09 1468.33 Q2136.09 1477.06 2133.02 1481.67 Q2129.96 1486.25 2124.15 1486.25 Q2118.34 1486.25 2115.26 1481.67 Q2112.21 1477.06 2112.21 1468.33 Q2112.21 1459.58 2115.26 1455 Q2118.34 1450.39 2124.15 1450.39 Z" fill="#000000" fill-rule="nonzero" fill-opacity="1"></path><path clip-path="url(#clip660)" d="M2148.34 1481.64 L2164.66 1481.64 L2164.66 1485.58 L2142.71 1485.58 L2142.71 1481.64 Q2145.38 1478.89 2149.96 1474.26 Q2154.57 1469.61 2155.75 1468.27 Q2157.99 1465.74 2158.87 1464.01 Q2159.78 1462.25 2159.78 1460.56 Q2159.78 1457.8 2157.83 1456.07 Q2155.91 1454.33 2152.81 1454.33 Q2150.61 1454.33 2148.15 1455.09 Q2145.72 1455.86 2142.95 1457.41 L2142.95 1452.69 Q2145.77 1451.55 2148.22 1450.97 Q2150.68 1450.39 2152.71 1450.39 Q2158.09 1450.39 2161.28 1453.08 Q2164.47 1455.77 2164.47 1460.26 Q2164.47 1462.39 2163.66 1464.31 Q2162.88 1466.2 2160.77 1468.8 Q2160.19 1469.47 2157.09 1472.69 Q2153.99 1475.88 2148.34 1481.64 Z" fill="#000000" fill-rule="nonzero" fill-opacity="1"></path><path clip-path="url(#clip660)" d="M2187.32 1455.09 L2175.52 1473.54 L2187.32 1473.54 L2187.32 1455.09 M2186.09 1451.02 L2191.97 1451.02 L2191.97 1473.54 L2196.9 1473.54 L2196.9 1477.43 L2191.97 1477.43 L2191.97 1485.58 L2187.32 1485.58 L2187.32 1477.43 L2171.72 1477.43 L2171.72 1472.92 L2186.09 1451.02 Z" fill="#000000" fill-rule="nonzero" fill-opacity="1"></path><path clip-path="url(#clip660)" d="M1234.28 1526.86 L1225.56 1550.51 L1243.03 1550.51 L1234.28 1526.86 M1230.65 1520.52 L1237.94 1520.52 L1256.05 1568.04 L1249.36 1568.04 L1245.04 1555.85 L1223.61 1555.85 L1219.29 1568.04 L1212.51 1568.04 L1230.65 1520.52 Z" fill="#000000" fill-rule="nonzero" fill-opacity="1"></path><path clip-path="url(#clip660)" d="M1292.36 1546.53 L1292.36 1568.04 L1286.51 1568.04 L1286.51 1546.72 Q1286.51 1541.66 1284.53 1539.14 Q1282.56 1536.63 1278.61 1536.63 Q1273.87 1536.63 1271.13 1539.65 Q1268.4 1542.68 1268.4 1547.9 L1268.4 1568.04 L1262.51 1568.04 L1262.51 1532.4 L1268.4 1532.4 L1268.4 1537.93 Q1270.5 1534.72 1273.33 1533.13 Q1276.2 1531.54 1279.92 1531.54 Q1286.06 1531.54 1289.21 1535.36 Q1292.36 1539.14 1292.36 1546.53 Z" fill="#000000" fill-rule="nonzero" fill-opacity="1"></path><path clip-path="url(#clip660)" d="M1333.68 1546.53 L1333.68 1568.04 L1327.82 1568.04 L1327.82 1546.72 Q1327.82 1541.66 1325.85 1539.14 Q1323.87 1536.63 1319.93 1536.63 Q1315.19 1536.63 1312.45 1539.65 Q1309.71 1542.68 1309.71 1547.9 L1309.71 1568.04 L1303.82 1568.04 L1303.82 1532.4 L1309.71 1532.4 L1309.71 1537.93 Q1311.81 1534.72 1314.64 1533.13 Q1317.51 1531.54 1321.23 1531.54 Q1327.38 1531.54 1330.53 1535.36 Q1333.68 1539.14 1333.68 1546.53 Z" fill="#000000" fill-rule="nonzero" fill-opacity="1"></path><path clip-path="url(#clip660)" d="M1359.17 1536.5 Q1354.46 1536.5 1351.72 1540.19 Q1348.99 1543.85 1348.99 1550.25 Q1348.99 1556.65 1351.69 1560.34 Q1354.43 1564 1359.17 1564 Q1363.85 1564 1366.59 1560.31 Q1369.33 1556.62 1369.33 1550.25 Q1369.33 1543.92 1366.59 1540.23 Q1363.85 1536.5 1359.17 1536.5 M1359.17 1531.54 Q1366.81 1531.54 1371.17 1536.5 Q1375.53 1541.47 1375.53 1550.25 Q1375.53 1559 1371.17 1564 Q1366.81 1568.97 1359.17 1568.97 Q1351.5 1568.97 1347.14 1564 Q1342.81 1559 1342.81 1550.25 Q1342.81 1541.47 1347.14 1536.5 Q1351.5 1531.54 1359.17 1531.54 Z" fill="#000000" fill-rule="nonzero" fill-opacity="1"></path><polyline clip-path="url(#clip660)" style="stroke:#000000; stroke-linecap:round; stroke-linejoin:round; stroke-width:4; stroke-opacity:1; fill:none" points="235.283,1423.18 235.283,123.472 "></polyline>
<polyline clip-path="url(#clip660)" style="stroke:#000000; stroke-linecap:round; stroke-linejoin:round; stroke-width:4; stroke-opacity:1; fill:none" points="235.283,1423.18 254.18,1423.18 "></polyline>
<polyline clip-path="url(#clip660)" style="stroke:#000000; stroke-linecap:round; stroke-linejoin:round; stroke-width:4; stroke-opacity:1; fill:none" points="235.283,1222.3 254.18,1222.3 "></polyline>
<polyline clip-path="url(#clip660)" style="stroke:#000000; stroke-linecap:round; stroke-linejoin:round; stroke-width:4; stroke-opacity:1; fill:none" points="235.283,1021.42 254.18,1021.42 "></polyline>
<polyline clip-path="url(#clip660)" style="stroke:#000000; stroke-linecap:round; stroke-linejoin:round; stroke-width:4; stroke-opacity:1; fill:none" points="235.283,820.533 254.18,820.533 "></polyline>
<polyline clip-path="url(#clip660)" style="stroke:#000000; stroke-linecap:round; stroke-linejoin:round; stroke-width:4; stroke-opacity:1; fill:none" points="235.283,619.651 254.18,619.651 "></polyline>
<polyline clip-path="url(#clip660)" style="stroke:#000000; stroke-linecap:round; stroke-linejoin:round; stroke-width:4; stroke-opacity:1; fill:none" points="235.283,418.769 254.18,418.769 "></polyline>
<polyline clip-path="url(#clip660)" style="stroke:#000000; stroke-linecap:round; stroke-linejoin:round; stroke-width:4; stroke-opacity:1; fill:none" points="235.283,217.887 254.18,217.887 "></polyline>
<path clip-path="url(#clip660)" d="M187.338 1408.98 Q183.727 1408.98 181.899 1412.54 Q180.093 1416.08 180.093 1423.21 Q180.093 1430.32 181.899 1433.89 Q183.727 1437.43 187.338 1437.43 Q190.973 1437.43 192.778 1433.89 Q194.607 1430.32 194.607 1423.21 Q194.607 1416.08 192.778 1412.54 Q190.973 1408.98 187.338 1408.98 M187.338 1405.27 Q193.149 1405.27 196.204 1409.88 Q199.283 1414.46 199.283 1423.21 Q199.283 1431.94 196.204 1436.55 Q193.149 1441.13 187.338 1441.13 Q181.528 1441.13 178.45 1436.55 Q175.394 1431.94 175.394 1423.21 Q175.394 1414.46 178.45 1409.88 Q181.528 1405.27 187.338 1405.27 Z" fill="#000000" fill-rule="nonzero" fill-opacity="1"></path><path clip-path="url(#clip660)" d="M117.825 1235.64 L125.464 1235.64 L125.464 1209.28 L117.154 1210.94 L117.154 1206.68 L125.418 1205.02 L130.093 1205.02 L130.093 1235.64 L137.732 1235.64 L137.732 1239.58 L117.825 1239.58 L117.825 1235.64 Z" fill="#000000" fill-rule="nonzero" fill-opacity="1"></path><path clip-path="url(#clip660)" d="M157.177 1208.1 Q153.566 1208.1 151.737 1211.66 Q149.931 1215.2 149.931 1222.33 Q149.931 1229.44 151.737 1233 Q153.566 1236.55 157.177 1236.55 Q160.811 1236.55 162.616 1233 Q164.445 1229.44 164.445 1222.33 Q164.445 1215.2 162.616 1211.66 Q160.811 1208.1 157.177 1208.1 M157.177 1204.39 Q162.987 1204.39 166.042 1209 Q169.121 1213.58 169.121 1222.33 Q169.121 1231.06 166.042 1235.67 Q162.987 1240.25 157.177 1240.25 Q151.366 1240.25 148.288 1235.67 Q145.232 1231.06 145.232 1222.33 Q145.232 1213.58 148.288 1209 Q151.366 1204.39 157.177 1204.39 Z" fill="#000000" fill-rule="nonzero" fill-opacity="1"></path><path clip-path="url(#clip660)" d="M187.338 1208.1 Q183.727 1208.1 181.899 1211.66 Q180.093 1215.2 180.093 1222.33 Q180.093 1229.44 181.899 1233 Q183.727 1236.55 187.338 1236.55 Q190.973 1236.55 192.778 1233 Q194.607 1229.44 194.607 1222.33 Q194.607 1215.2 192.778 1211.66 Q190.973 1208.1 187.338 1208.1 M187.338 1204.39 Q193.149 1204.39 196.204 1209 Q199.283 1213.58 199.283 1222.33 Q199.283 1231.06 196.204 1235.67 Q193.149 1240.25 187.338 1240.25 Q181.528 1240.25 178.45 1235.67 Q175.394 1231.06 175.394 1222.33 Q175.394 1213.58 178.45 1209 Q181.528 1204.39 187.338 1204.39 Z" fill="#000000" fill-rule="nonzero" fill-opacity="1"></path><path clip-path="url(#clip660)" d="M121.043 1034.76 L137.362 1034.76 L137.362 1038.7 L115.418 1038.7 L115.418 1034.76 Q118.08 1032.01 122.663 1027.38 Q127.269 1022.72 128.45 1021.38 Q130.695 1018.86 131.575 1017.12 Q132.478 1015.36 132.478 1013.67 Q132.478 1010.92 130.533 1009.18 Q128.612 1007.45 125.51 1007.45 Q123.311 1007.45 120.857 1008.21 Q118.427 1008.97 115.649 1010.52 L115.649 1005.8 Q118.473 1004.67 120.927 1004.09 Q123.38 1003.51 125.418 1003.51 Q130.788 1003.51 133.982 1006.2 Q137.177 1008.88 137.177 1013.37 Q137.177 1015.5 136.367 1017.42 Q135.579 1019.32 133.473 1021.91 Q132.894 1022.58 129.792 1025.8 Q126.691 1029 121.043 1034.76 Z" fill="#000000" fill-rule="nonzero" fill-opacity="1"></path><path clip-path="url(#clip660)" d="M157.177 1007.21 Q153.566 1007.21 151.737 1010.78 Q149.931 1014.32 149.931 1021.45 Q149.931 1028.56 151.737 1032.12 Q153.566 1035.66 157.177 1035.66 Q160.811 1035.66 162.616 1032.12 Q164.445 1028.56 164.445 1021.45 Q164.445 1014.32 162.616 1010.78 Q160.811 1007.21 157.177 1007.21 M157.177 1003.51 Q162.987 1003.51 166.042 1008.12 Q169.121 1012.7 169.121 1021.45 Q169.121 1030.18 166.042 1034.78 Q162.987 1039.37 157.177 1039.37 Q151.366 1039.37 148.288 1034.78 Q145.232 1030.18 145.232 1021.45 Q145.232 1012.7 148.288 1008.12 Q151.366 1003.51 157.177 1003.51 Z" fill="#000000" fill-rule="nonzero" fill-opacity="1"></path><path clip-path="url(#clip660)" d="M187.338 1007.21 Q183.727 1007.21 181.899 1010.78 Q180.093 1014.32 180.093 1021.45 Q180.093 1028.56 181.899 1032.12 Q183.727 1035.66 187.338 1035.66 Q190.973 1035.66 192.778 1032.12 Q194.607 1028.56 194.607 1021.45 Q194.607 1014.32 192.778 1010.78 Q190.973 1007.21 187.338 1007.21 M187.338 1003.51 Q193.149 1003.51 196.204 1008.12 Q199.283 1012.7 199.283 1021.45 Q199.283 1030.18 196.204 1034.78 Q193.149 1039.37 187.338 1039.37 Q181.528 1039.37 178.45 1034.78 Q175.394 1030.18 175.394 1021.45 Q175.394 1012.7 178.45 1008.12 Q181.528 1003.51 187.338 1003.51 Z" fill="#000000" fill-rule="nonzero" fill-opacity="1"></path><path clip-path="url(#clip660)" d="M131.181 819.179 Q134.538 819.897 136.413 822.165 Q138.311 824.434 138.311 827.767 Q138.311 832.883 134.792 835.684 Q131.274 838.485 124.793 838.485 Q122.617 838.485 120.302 838.045 Q118.01 837.628 115.556 836.772 L115.556 832.258 Q117.501 833.392 119.816 833.971 Q122.13 834.549 124.654 834.549 Q129.052 834.549 131.343 832.813 Q133.658 831.077 133.658 827.767 Q133.658 824.712 131.505 822.999 Q129.376 821.262 125.556 821.262 L121.529 821.262 L121.529 817.42 L125.742 817.42 Q129.191 817.42 131.019 816.054 Q132.848 814.665 132.848 812.073 Q132.848 809.411 130.95 807.999 Q129.075 806.563 125.556 806.563 Q123.635 806.563 121.436 806.98 Q119.237 807.397 116.598 808.276 L116.598 804.11 Q119.26 803.369 121.575 802.999 Q123.913 802.628 125.973 802.628 Q131.297 802.628 134.399 805.059 Q137.501 807.466 137.501 811.587 Q137.501 814.457 135.857 816.448 Q134.214 818.415 131.181 819.179 Z" fill="#000000" fill-rule="nonzero" fill-opacity="1"></path><path clip-path="url(#clip660)" d="M157.177 806.332 Q153.566 806.332 151.737 809.897 Q149.931 813.438 149.931 820.568 Q149.931 827.674 151.737 831.239 Q153.566 834.781 157.177 834.781 Q160.811 834.781 162.616 831.239 Q164.445 827.674 164.445 820.568 Q164.445 813.438 162.616 809.897 Q160.811 806.332 157.177 806.332 M157.177 802.628 Q162.987 802.628 166.042 807.235 Q169.121 811.818 169.121 820.568 Q169.121 829.295 166.042 833.901 Q162.987 838.485 157.177 838.485 Q151.366 838.485 148.288 833.901 Q145.232 829.295 145.232 820.568 Q145.232 811.818 148.288 807.235 Q151.366 802.628 157.177 802.628 Z" fill="#000000" fill-rule="nonzero" fill-opacity="1"></path><path clip-path="url(#clip660)" d="M187.338 806.332 Q183.727 806.332 181.899 809.897 Q180.093 813.438 180.093 820.568 Q180.093 827.674 181.899 831.239 Q183.727 834.781 187.338 834.781 Q190.973 834.781 192.778 831.239 Q194.607 827.674 194.607 820.568 Q194.607 813.438 192.778 809.897 Q190.973 806.332 187.338 806.332 M187.338 802.628 Q193.149 802.628 196.204 807.235 Q199.283 811.818 199.283 820.568 Q199.283 829.295 196.204 833.901 Q193.149 838.485 187.338 838.485 Q181.528 838.485 178.45 833.901 Q175.394 829.295 175.394 820.568 Q175.394 811.818 178.45 807.235 Q181.528 802.628 187.338 802.628 Z" fill="#000000" fill-rule="nonzero" fill-opacity="1"></path><path clip-path="url(#clip660)" d="M129.862 606.445 L118.056 624.894 L129.862 624.894 L129.862 606.445 M128.635 602.371 L134.515 602.371 L134.515 624.894 L139.445 624.894 L139.445 628.783 L134.515 628.783 L134.515 636.931 L129.862 636.931 L129.862 628.783 L114.26 628.783 L114.26 624.269 L128.635 602.371 Z" fill="#000000" fill-rule="nonzero" fill-opacity="1"></path><path clip-path="url(#clip660)" d="M157.177 605.45 Q153.566 605.45 151.737 609.015 Q149.931 612.556 149.931 619.686 Q149.931 626.792 151.737 630.357 Q153.566 633.899 157.177 633.899 Q160.811 633.899 162.616 630.357 Q164.445 626.792 164.445 619.686 Q164.445 612.556 162.616 609.015 Q160.811 605.45 157.177 605.45 M157.177 601.746 Q162.987 601.746 166.042 606.353 Q169.121 610.936 169.121 619.686 Q169.121 628.413 166.042 633.019 Q162.987 637.602 157.177 637.602 Q151.366 637.602 148.288 633.019 Q145.232 628.413 145.232 619.686 Q145.232 610.936 148.288 606.353 Q151.366 601.746 157.177 601.746 Z" fill="#000000" fill-rule="nonzero" fill-opacity="1"></path><path clip-path="url(#clip660)" d="M187.338 605.45 Q183.727 605.45 181.899 609.015 Q180.093 612.556 180.093 619.686 Q180.093 626.792 181.899 630.357 Q183.727 633.899 187.338 633.899 Q190.973 633.899 192.778 630.357 Q194.607 626.792 194.607 619.686 Q194.607 612.556 192.778 609.015 Q190.973 605.45 187.338 605.45 M187.338 601.746 Q193.149 601.746 196.204 606.353 Q199.283 610.936 199.283 619.686 Q199.283 628.413 196.204 633.019 Q193.149 637.602 187.338 637.602 Q181.528 637.602 178.45 633.019 Q175.394 628.413 175.394 619.686 Q175.394 610.936 178.45 606.353 Q181.528 601.746 187.338 601.746 Z" fill="#000000" fill-rule="nonzero" fill-opacity="1"></path><path clip-path="url(#clip660)" d="M117.061 401.489 L135.417 401.489 L135.417 405.424 L121.343 405.424 L121.343 413.896 Q122.362 413.549 123.38 413.387 Q124.399 413.202 125.418 413.202 Q131.205 413.202 134.584 416.373 Q137.964 419.544 137.964 424.961 Q137.964 430.54 134.492 433.642 Q131.019 436.72 124.7 436.72 Q122.524 436.72 120.255 436.35 Q118.01 435.979 115.603 435.239 L115.603 430.54 Q117.686 431.674 119.908 432.23 Q122.13 432.785 124.607 432.785 Q128.612 432.785 130.95 430.679 Q133.288 428.572 133.288 424.961 Q133.288 421.35 130.95 419.243 Q128.612 417.137 124.607 417.137 Q122.732 417.137 120.857 417.554 Q119.006 417.97 117.061 418.85 L117.061 401.489 Z" fill="#000000" fill-rule="nonzero" fill-opacity="1"></path><path clip-path="url(#clip660)" d="M157.177 404.568 Q153.566 404.568 151.737 408.132 Q149.931 411.674 149.931 418.804 Q149.931 425.91 151.737 429.475 Q153.566 433.017 157.177 433.017 Q160.811 433.017 162.616 429.475 Q164.445 425.91 164.445 418.804 Q164.445 411.674 162.616 408.132 Q160.811 404.568 157.177 404.568 M157.177 400.864 Q162.987 400.864 166.042 405.47 Q169.121 410.054 169.121 418.804 Q169.121 427.53 166.042 432.137 Q162.987 436.72 157.177 436.72 Q151.366 436.72 148.288 432.137 Q145.232 427.53 145.232 418.804 Q145.232 410.054 148.288 405.47 Q151.366 400.864 157.177 400.864 Z" fill="#000000" fill-rule="nonzero" fill-opacity="1"></path><path clip-path="url(#clip660)" d="M187.338 404.568 Q183.727 404.568 181.899 408.132 Q180.093 411.674 180.093 418.804 Q180.093 425.91 181.899 429.475 Q183.727 433.017 187.338 433.017 Q190.973 433.017 192.778 429.475 Q194.607 425.91 194.607 418.804 Q194.607 411.674 192.778 408.132 Q190.973 404.568 187.338 404.568 M187.338 400.864 Q193.149 400.864 196.204 405.47 Q199.283 410.054 199.283 418.804 Q199.283 427.53 196.204 432.137 Q193.149 436.72 187.338 436.72 Q181.528 436.72 178.45 432.137 Q175.394 427.53 175.394 418.804 Q175.394 410.054 178.45 405.47 Q181.528 400.864 187.338 400.864 Z" fill="#000000" fill-rule="nonzero" fill-opacity="1"></path><path clip-path="url(#clip660)" d="M127.593 216.023 Q124.445 216.023 122.593 218.176 Q120.765 220.329 120.765 224.079 Q120.765 227.806 122.593 229.982 Q124.445 232.134 127.593 232.134 Q130.742 232.134 132.57 229.982 Q134.422 227.806 134.422 224.079 Q134.422 220.329 132.57 218.176 Q130.742 216.023 127.593 216.023 M136.876 201.371 L136.876 205.63 Q135.117 204.797 133.311 204.357 Q131.529 203.917 129.769 203.917 Q125.14 203.917 122.686 207.042 Q120.255 210.167 119.908 216.486 Q121.274 214.472 123.334 213.408 Q125.394 212.32 127.871 212.32 Q133.08 212.32 136.089 215.491 Q139.121 218.639 139.121 224.079 Q139.121 229.403 135.973 232.62 Q132.825 235.838 127.593 235.838 Q121.598 235.838 118.427 231.255 Q115.256 226.648 115.256 217.921 Q115.256 209.727 119.144 204.866 Q123.033 199.982 129.584 199.982 Q131.343 199.982 133.126 200.329 Q134.931 200.676 136.876 201.371 Z" fill="#000000" fill-rule="nonzero" fill-opacity="1"></path><path clip-path="url(#clip660)" d="M157.177 203.685 Q153.566 203.685 151.737 207.25 Q149.931 210.792 149.931 217.921 Q149.931 225.028 151.737 228.593 Q153.566 232.134 157.177 232.134 Q160.811 232.134 162.616 228.593 Q164.445 225.028 164.445 217.921 Q164.445 210.792 162.616 207.25 Q160.811 203.685 157.177 203.685 M157.177 199.982 Q162.987 199.982 166.042 204.588 Q169.121 209.172 169.121 217.921 Q169.121 226.648 166.042 231.255 Q162.987 235.838 157.177 235.838 Q151.366 235.838 148.288 231.255 Q145.232 226.648 145.232 217.921 Q145.232 209.172 148.288 204.588 Q151.366 199.982 157.177 199.982 Z" fill="#000000" fill-rule="nonzero" fill-opacity="1"></path><path clip-path="url(#clip660)" d="M187.338 203.685 Q183.727 203.685 181.899 207.25 Q180.093 210.792 180.093 217.921 Q180.093 225.028 181.899 228.593 Q183.727 232.134 187.338 232.134 Q190.973 232.134 192.778 228.593 Q194.607 225.028 194.607 217.921 Q194.607 210.792 192.778 207.25 Q190.973 203.685 187.338 203.685 M187.338 199.982 Q193.149 199.982 196.204 204.588 Q199.283 209.172 199.283 217.921 Q199.283 226.648 196.204 231.255 Q193.149 235.838 187.338 235.838 Q181.528 235.838 178.45 231.255 Q175.394 226.648 175.394 217.921 Q175.394 209.172 178.45 204.588 Q181.528 199.982 187.338 199.982 Z" fill="#000000" fill-rule="nonzero" fill-opacity="1"></path><path clip-path="url(#clip660)" d="M16.4842 1065.64 L16.4842 1056.98 L56.238 1035.91 L16.4842 1035.91 L16.4842 1029.67 L64.0042 1029.67 L64.0042 1038.33 L24.2503 1059.4 L64.0042 1059.4 L64.0042 1065.64 L16.4842 1065.64 Z" fill="#000000" fill-rule="nonzero" fill-opacity="1"></path><path clip-path="url(#clip660)" d="M49.9359 1017.74 L28.3562 1017.74 L28.3562 1011.88 L49.7131 1011.88 Q54.7739 1011.88 57.3202 1009.91 Q59.8346 1007.93 59.8346 1003.99 Q59.8346 999.245 56.8109 996.508 Q53.7872 993.739 48.5673 993.739 L28.3562 993.739 L28.3562 987.882 L64.0042 987.882 L64.0042 993.739 L58.5296 993.739 Q61.7762 995.871 63.3676 998.704 Q64.9272 1001.5 64.9272 1005.23 Q64.9272 1011.37 61.1078 1014.55 Q57.2883 1017.74 49.9359 1017.74 M27.4968 1003 L27.4968 1003 Z" fill="#000000" fill-rule="nonzero" fill-opacity="1"></path><path clip-path="url(#clip660)" d="M35.1993 948.065 Q31.2526 945.868 29.3747 942.813 Q27.4968 939.757 27.4968 935.62 Q27.4968 930.05 31.4117 927.026 Q35.2948 924.002 42.4881 924.002 L64.0042 924.002 L64.0042 929.891 L42.679 929.891 Q37.5546 929.891 35.072 931.705 Q32.5894 933.519 32.5894 937.243 Q32.5894 941.794 35.6131 944.436 Q38.6368 947.078 43.8567 947.078 L64.0042 947.078 L64.0042 952.966 L42.679 952.966 Q37.5228 952.966 35.072 954.78 Q32.5894 956.595 32.5894 960.382 Q32.5894 964.87 35.6449 967.512 Q38.6686 970.154 43.8567 970.154 L64.0042 970.154 L64.0042 976.042 L28.3562 976.042 L28.3562 970.154 L33.8944 970.154 Q30.616 968.148 29.0564 965.348 Q27.4968 962.547 27.4968 958.695 Q27.4968 954.812 29.4702 952.107 Q31.4436 949.37 35.1993 948.065 Z" fill="#000000" fill-rule="nonzero" fill-opacity="1"></path><path clip-path="url(#clip660)" d="M44.7161 881.829 L47.5806 881.829 L47.5806 908.756 Q53.6281 908.374 56.8109 905.128 Q59.9619 901.85 59.9619 896.025 Q59.9619 892.651 59.1344 889.5 Q58.3069 886.317 56.6518 883.198 L62.1899 883.198 Q63.5267 886.349 64.227 889.659 Q64.9272 892.969 64.9272 896.375 Q64.9272 904.905 59.9619 909.902 Q54.9967 914.867 46.5303 914.867 Q37.7774 914.867 32.6531 910.157 Q27.4968 905.414 27.4968 897.394 Q27.4968 890.2 32.1438 886.031 Q36.7589 881.829 44.7161 881.829 M42.9973 887.686 Q38.1912 887.75 35.3266 890.391 Q32.4621 893.001 32.4621 897.33 Q32.4621 902.232 35.2312 905.192 Q38.0002 908.12 43.0292 908.565 L42.9973 887.686 Z" fill="#000000" fill-rule="nonzero" fill-opacity="1"></path><path clip-path="url(#clip660)" d="M33.8307 851.561 Q33.2578 852.547 33.0032 853.725 Q32.7167 854.871 32.7167 856.271 Q32.7167 861.236 35.9632 863.91 Q39.1779 866.552 45.2253 866.552 L64.0042 866.552 L64.0042 872.44 L28.3562 872.44 L28.3562 866.552 L33.8944 866.552 Q30.6479 864.706 29.0883 861.746 Q27.4968 858.786 27.4968 854.552 Q27.4968 853.948 27.5923 853.216 Q27.656 852.484 27.8151 851.592 L33.8307 851.561 Z" fill="#000000" fill-rule="nonzero" fill-opacity="1"></path><path clip-path="url(#clip660)" d="M32.4621 833.036 Q32.4621 837.747 36.1542 840.484 Q39.8145 843.221 46.212 843.221 Q52.6095 843.221 56.3017 840.516 Q59.9619 837.779 59.9619 833.036 Q59.9619 828.358 56.2698 825.62 Q52.5777 822.883 46.212 822.883 Q39.8781 822.883 36.186 825.62 Q32.4621 828.358 32.4621 833.036 M27.4968 833.036 Q27.4968 825.397 32.4621 821.037 Q37.4273 816.676 46.212 816.676 Q54.9649 816.676 59.9619 821.037 Q64.9272 825.397 64.9272 833.036 Q64.9272 840.707 59.9619 845.067 Q54.9649 849.396 46.212 849.396 Q37.4273 849.396 32.4621 845.067 Q27.4968 840.707 27.4968 833.036 Z" fill="#000000" fill-rule="nonzero" fill-opacity="1"></path><path clip-path="url(#clip660)" d="M33.7671 762.791 L14.479 762.791 L14.479 756.934 L64.0042 756.934 L64.0042 762.791 L58.657 762.791 Q61.8398 764.637 63.3994 767.47 Q64.9272 770.27 64.9272 774.217 Q64.9272 780.678 59.771 784.752 Q54.6147 788.795 46.212 788.795 Q37.8093 788.795 32.6531 784.752 Q27.4968 780.678 27.4968 774.217 Q27.4968 770.27 29.0564 767.47 Q30.5842 764.637 33.7671 762.791 M46.212 782.747 Q52.6732 782.747 56.3653 780.105 Q60.0256 777.432 60.0256 772.785 Q60.0256 768.138 56.3653 765.464 Q52.6732 762.791 46.212 762.791 Q39.7508 762.791 36.0905 765.464 Q32.3984 768.138 32.3984 772.785 Q32.3984 777.432 36.0905 780.105 Q39.7508 782.747 46.212 782.747 Z" fill="#000000" fill-rule="nonzero" fill-opacity="1"></path><path clip-path="url(#clip660)" d="M28.3562 744.871 L28.3562 739.015 L64.0042 739.015 L64.0042 744.871 L28.3562 744.871 M14.479 744.871 L14.479 739.015 L21.895 739.015 L21.895 744.871 L14.479 744.871 Z" fill="#000000" fill-rule="nonzero" fill-opacity="1"></path><path clip-path="url(#clip660)" d="M16.4842 705.786 L16.4842 699.356 L64.0042 699.356 L64.0042 705.786 L16.4842 705.786 Z" fill="#000000" fill-rule="nonzero" fill-opacity="1"></path><path clip-path="url(#clip660)" d="M42.4881 657.184 L64.0042 657.184 L64.0042 663.04 L42.679 663.04 Q37.6183 663.04 35.1038 665.013 Q32.5894 666.987 32.5894 670.934 Q32.5894 675.676 35.6131 678.413 Q38.6368 681.151 43.8567 681.151 L64.0042 681.151 L64.0042 687.039 L28.3562 687.039 L28.3562 681.151 L33.8944 681.151 Q30.6797 679.05 29.0883 676.217 Q27.4968 673.353 27.4968 669.629 Q27.4968 663.486 31.3163 660.335 Q35.1038 657.184 42.4881 657.184 Z" fill="#000000" fill-rule="nonzero" fill-opacity="1"></path><path clip-path="url(#clip660)" d="M29.7248 619.849 L35.1993 619.849 Q33.8307 622.331 33.1623 624.846 Q32.4621 627.329 32.4621 629.875 Q32.4621 635.572 36.0905 638.723 Q39.6872 641.874 46.212 641.874 Q52.7369 641.874 56.3653 638.723 Q59.9619 635.572 59.9619 629.875 Q59.9619 627.329 59.2935 624.846 Q58.5933 622.331 57.2247 619.849 L62.6355 619.849 Q63.7814 622.3 64.3543 624.941 Q64.9272 627.551 64.9272 630.511 Q64.9272 638.564 59.8664 643.306 Q54.8057 648.049 46.212 648.049 Q37.491 648.049 32.4939 643.275 Q27.4968 638.468 27.4968 630.129 Q27.4968 627.424 28.0697 624.846 Q28.6108 622.268 29.7248 619.849 Z" fill="#000000" fill-rule="nonzero" fill-opacity="1"></path><path clip-path="url(#clip660)" d="M44.7161 579.172 L47.5806 579.172 L47.5806 606.099 Q53.6281 605.717 56.8109 602.47 Q59.9619 599.192 59.9619 593.367 Q59.9619 589.994 59.1344 586.843 Q58.3069 583.66 56.6518 580.541 L62.1899 580.541 Q63.5267 583.692 64.227 587.002 Q64.9272 590.312 64.9272 593.718 Q64.9272 602.248 59.9619 607.245 Q54.9967 612.21 46.5303 612.21 Q37.7774 612.21 32.6531 607.499 Q27.4968 602.757 27.4968 594.736 Q27.4968 587.543 32.1438 583.373 Q36.7589 579.172 44.7161 579.172 M42.9973 585.028 Q38.1912 585.092 35.3266 587.734 Q32.4621 590.344 32.4621 594.672 Q32.4621 599.574 35.2312 602.534 Q38.0002 605.462 43.0292 605.908 L42.9973 585.028 Z" fill="#000000" fill-rule="nonzero" fill-opacity="1"></path><path clip-path="url(#clip660)" d="M42.4881 539.927 L64.0042 539.927 L64.0042 545.784 L42.679 545.784 Q37.6183 545.784 35.1038 547.757 Q32.5894 549.731 32.5894 553.677 Q32.5894 558.42 35.6131 561.157 Q38.6368 563.894 43.8567 563.894 L64.0042 563.894 L64.0042 569.783 L28.3562 569.783 L28.3562 563.894 L33.8944 563.894 Q30.6797 561.794 29.0883 558.961 Q27.4968 556.096 27.4968 552.372 Q27.4968 546.229 31.3163 543.078 Q35.1038 539.927 42.4881 539.927 Z" fill="#000000" fill-rule="nonzero" fill-opacity="1"></path><path clip-path="url(#clip660)" d="M33.7671 504.789 L14.479 504.789 L14.479 498.932 L64.0042 498.932 L64.0042 504.789 L58.657 504.789 Q61.8398 506.635 63.3994 509.467 Q64.9272 512.268 64.9272 516.215 Q64.9272 522.676 59.771 526.75 Q54.6147 530.793 46.212 530.793 Q37.8093 530.793 32.6531 526.75 Q27.4968 522.676 27.4968 516.215 Q27.4968 512.268 29.0564 509.467 Q30.5842 506.635 33.7671 504.789 M46.212 524.745 Q52.6732 524.745 56.3653 522.103 Q60.0256 519.43 60.0256 514.783 Q60.0256 510.136 56.3653 507.462 Q52.6732 504.789 46.212 504.789 Q39.7508 504.789 36.0905 507.462 Q32.3984 510.136 32.3984 514.783 Q32.3984 519.43 36.0905 522.103 Q39.7508 524.745 46.212 524.745 Z" fill="#000000" fill-rule="nonzero" fill-opacity="1"></path><path clip-path="url(#clip660)" d="M28.3562 486.869 L28.3562 481.013 L64.0042 481.013 L64.0042 486.869 L28.3562 486.869 M14.479 486.869 L14.479 481.013 L21.895 481.013 L21.895 486.869 L14.479 486.869 Z" fill="#000000" fill-rule="nonzero" fill-opacity="1"></path><path clip-path="url(#clip660)" d="M718.75 12.096 L729.769 12.096 L756.586 62.6918 L756.586 12.096 L764.526 12.096 L764.526 72.576 L753.507 72.576 L726.69 21.9802 L726.69 72.576 L718.75 72.576 L718.75 12.096 Z" fill="#000000" fill-rule="nonzero" fill-opacity="1"></path><path clip-path="url(#clip660)" d="M779.717 54.671 L779.717 27.2059 L787.17 27.2059 L787.17 54.3874 Q787.17 60.8284 789.682 64.0691 Q792.193 67.2693 797.216 67.2693 Q803.252 67.2693 806.736 63.421 Q810.26 59.5726 810.26 52.9291 L810.26 27.2059 L817.714 27.2059 L817.714 72.576 L810.26 72.576 L810.26 65.6084 Q807.546 69.7404 803.941 71.7658 Q800.376 73.7508 795.637 73.7508 Q787.818 73.7508 783.767 68.8897 Q779.717 64.0286 779.717 54.671 M798.472 26.1121 L798.472 26.1121 Z" fill="#000000" fill-rule="nonzero" fill-opacity="1"></path><path clip-path="url(#clip660)" d="M868.391 35.9153 Q871.186 30.8922 875.075 28.5022 Q878.964 26.1121 884.23 26.1121 Q891.319 26.1121 895.167 31.0947 Q899.016 36.0368 899.016 45.1919 L899.016 72.576 L891.522 72.576 L891.522 45.4349 Q891.522 38.913 889.213 35.7533 Q886.904 32.5936 882.164 32.5936 Q876.371 32.5936 873.009 36.4419 Q869.647 40.2903 869.647 46.9338 L869.647 72.576 L862.152 72.576 L862.152 45.4349 Q862.152 38.8725 859.843 35.7533 Q857.534 32.5936 852.714 32.5936 Q847.002 32.5936 843.64 36.4824 Q840.278 40.3308 840.278 46.9338 L840.278 72.576 L832.783 72.576 L832.783 27.2059 L840.278 27.2059 L840.278 34.2544 Q842.83 30.082 846.394 28.0971 Q849.959 26.1121 854.861 26.1121 Q859.803 26.1121 863.246 28.6237 Q866.73 31.1352 868.391 35.9153 Z" fill="#000000" fill-rule="nonzero" fill-opacity="1"></path><path clip-path="url(#clip660)" d="M952.69 48.0275 L952.69 51.6733 L918.42 51.6733 Q918.906 59.3701 923.038 63.421 Q927.21 67.4314 934.623 67.4314 Q938.917 67.4314 942.928 66.3781 Q946.978 65.3249 950.948 63.2184 L950.948 70.267 Q946.938 71.9684 942.725 72.8596 Q938.512 73.7508 934.178 73.7508 Q923.321 73.7508 916.961 67.4314 Q910.642 61.1119 910.642 50.3365 Q910.642 39.1965 916.637 32.6746 Q922.673 26.1121 932.881 26.1121 Q942.036 26.1121 947.343 32.0264 Q952.69 37.9003 952.69 48.0275 M945.237 45.84 Q945.156 39.7232 941.793 36.0774 Q938.472 32.4315 932.962 32.4315 Q926.724 32.4315 922.957 35.9558 Q919.23 39.4801 918.663 45.8805 L945.237 45.84 Z" fill="#000000" fill-rule="nonzero" fill-opacity="1"></path><path clip-path="url(#clip660)" d="M991.214 34.1734 Q989.959 33.4443 988.46 33.1202 Q987.001 32.7556 985.219 32.7556 Q978.9 32.7556 975.497 36.8875 Q972.135 40.9789 972.135 48.6757 L972.135 72.576 L964.64 72.576 L964.64 27.2059 L972.135 27.2059 L972.135 34.2544 Q974.484 30.1225 978.251 28.1376 Q982.019 26.1121 987.406 26.1121 Q988.176 26.1121 989.108 26.2337 Q990.04 26.3147 991.174 26.5172 L991.214 34.1734 Z" fill="#000000" fill-rule="nonzero" fill-opacity="1"></path><path clip-path="url(#clip660)" d="M1014.79 32.4315 Q1008.8 32.4315 1005.31 37.1306 Q1001.83 41.7891 1001.83 49.9314 Q1001.83 58.0738 1005.27 62.7728 Q1008.75 67.4314 1014.79 67.4314 Q1020.75 67.4314 1024.23 62.7323 Q1027.71 58.0333 1027.71 49.9314 Q1027.71 41.8701 1024.23 37.1711 Q1020.75 32.4315 1014.79 32.4315 M1014.79 26.1121 Q1024.51 26.1121 1030.06 32.4315 Q1035.61 38.7509 1035.61 49.9314 Q1035.61 61.0714 1030.06 67.4314 Q1024.51 73.7508 1014.79 73.7508 Q1005.03 73.7508 999.478 67.4314 Q993.969 61.0714 993.969 49.9314 Q993.969 38.7509 999.478 32.4315 Q1005.03 26.1121 1014.79 26.1121 Z" fill="#000000" fill-rule="nonzero" fill-opacity="1"></path><path clip-path="url(#clip660)" d="M1104.19 34.0924 L1104.19 9.54393 L1111.65 9.54393 L1111.65 72.576 L1104.19 72.576 L1104.19 65.7705 Q1101.84 69.8214 1098.24 71.8063 Q1094.67 73.7508 1089.65 73.7508 Q1081.43 73.7508 1076.24 67.1883 Q1071.1 60.6258 1071.1 49.9314 Q1071.1 39.2371 1076.24 32.6746 Q1081.43 26.1121 1089.65 26.1121 Q1094.67 26.1121 1098.24 28.0971 Q1101.84 30.0415 1104.19 34.0924 M1078.79 49.9314 Q1078.79 58.1548 1082.16 62.8538 Q1085.56 67.5124 1091.47 67.5124 Q1097.39 67.5124 1100.79 62.8538 Q1104.19 58.1548 1104.19 49.9314 Q1104.19 41.7081 1100.79 37.0496 Q1097.39 32.3505 1091.47 32.3505 Q1085.56 32.3505 1082.16 37.0496 Q1078.79 41.7081 1078.79 49.9314 Z" fill="#000000" fill-rule="nonzero" fill-opacity="1"></path><path clip-path="url(#clip660)" d="M1127 27.2059 L1134.45 27.2059 L1134.45 72.576 L1127 72.576 L1127 27.2059 M1127 9.54393 L1134.45 9.54393 L1134.45 18.9825 L1127 18.9825 L1127 9.54393 Z" fill="#000000" fill-rule="nonzero" fill-opacity="1"></path><path clip-path="url(#clip660)" d="M1176.75 12.096 L1184.93 12.096 L1184.93 72.576 L1176.75 72.576 L1176.75 12.096 Z" fill="#000000" fill-rule="nonzero" fill-opacity="1"></path><path clip-path="url(#clip660)" d="M1238.6 45.1919 L1238.6 72.576 L1231.15 72.576 L1231.15 45.4349 Q1231.15 38.994 1228.64 35.7938 Q1226.13 32.5936 1221.1 32.5936 Q1215.07 32.5936 1211.58 36.4419 Q1208.1 40.2903 1208.1 46.9338 L1208.1 72.576 L1200.61 72.576 L1200.61 27.2059 L1208.1 27.2059 L1208.1 34.2544 Q1210.77 30.163 1214.38 28.1376 Q1218.02 26.1121 1222.76 26.1121 Q1230.58 26.1121 1234.59 30.9732 Q1238.6 35.7938 1238.6 45.1919 Z" fill="#000000" fill-rule="nonzero" fill-opacity="1"></path><path clip-path="url(#clip660)" d="M1286.12 28.9478 L1286.12 35.9153 Q1282.96 34.1734 1279.76 33.3227 Q1276.6 32.4315 1273.36 32.4315 Q1266.11 32.4315 1262.1 37.0496 Q1258.09 41.6271 1258.09 49.9314 Q1258.09 58.2358 1262.1 62.8538 Q1266.11 67.4314 1273.36 67.4314 Q1276.6 67.4314 1279.76 66.5807 Q1282.96 65.6895 1286.12 63.9476 L1286.12 70.8341 Q1283 72.2924 1279.64 73.0216 Q1276.32 73.7508 1272.55 73.7508 Q1262.3 73.7508 1256.26 67.3098 Q1250.23 60.8689 1250.23 49.9314 Q1250.23 38.832 1256.31 32.472 Q1262.42 26.1121 1273.04 26.1121 Q1276.48 26.1121 1279.76 26.8413 Q1283.04 27.5299 1286.12 28.9478 Z" fill="#000000" fill-rule="nonzero" fill-opacity="1"></path><path clip-path="url(#clip660)" d="M1337.89 48.0275 L1337.89 51.6733 L1303.62 51.6733 Q1304.11 59.3701 1308.24 63.421 Q1312.41 67.4314 1319.82 67.4314 Q1324.12 67.4314 1328.13 66.3781 Q1332.18 65.3249 1336.15 63.2184 L1336.15 70.267 Q1332.14 71.9684 1327.93 72.8596 Q1323.71 73.7508 1319.38 73.7508 Q1308.52 73.7508 1302.16 67.4314 Q1295.84 61.1119 1295.84 50.3365 Q1295.84 39.1965 1301.84 32.6746 Q1307.87 26.1121 1318.08 26.1121 Q1327.24 26.1121 1332.54 32.0264 Q1337.89 37.9003 1337.89 48.0275 M1330.44 45.84 Q1330.36 39.7232 1326.99 36.0774 Q1323.67 32.4315 1318.16 32.4315 Q1311.92 32.4315 1308.16 35.9558 Q1304.43 39.4801 1303.86 45.8805 L1330.44 45.84 Z" fill="#000000" fill-rule="nonzero" fill-opacity="1"></path><path clip-path="url(#clip660)" d="M1387.84 45.1919 L1387.84 72.576 L1380.38 72.576 L1380.38 45.4349 Q1380.38 38.994 1377.87 35.7938 Q1375.36 32.5936 1370.34 32.5936 Q1364.3 32.5936 1360.82 36.4419 Q1357.34 40.2903 1357.34 46.9338 L1357.34 72.576 L1349.84 72.576 L1349.84 27.2059 L1357.34 27.2059 L1357.34 34.2544 Q1360.01 30.163 1363.61 28.1376 Q1367.26 26.1121 1372 26.1121 Q1379.82 26.1121 1383.83 30.9732 Q1387.84 35.7938 1387.84 45.1919 Z" fill="#000000" fill-rule="nonzero" fill-opacity="1"></path><path clip-path="url(#clip660)" d="M1432.56 34.0924 L1432.56 9.54393 L1440.01 9.54393 L1440.01 72.576 L1432.56 72.576 L1432.56 65.7705 Q1430.21 69.8214 1426.61 71.8063 Q1423.04 73.7508 1418.02 73.7508 Q1409.79 73.7508 1404.61 67.1883 Q1399.46 60.6258 1399.46 49.9314 Q1399.46 39.2371 1404.61 32.6746 Q1409.79 26.1121 1418.02 26.1121 Q1423.04 26.1121 1426.61 28.0971 Q1430.21 30.0415 1432.56 34.0924 M1407.16 49.9314 Q1407.16 58.1548 1410.52 62.8538 Q1413.93 67.5124 1419.84 67.5124 Q1425.75 67.5124 1429.16 62.8538 Q1432.56 58.1548 1432.56 49.9314 Q1432.56 41.7081 1429.16 37.0496 Q1425.75 32.3505 1419.84 32.3505 Q1413.93 32.3505 1410.52 37.0496 Q1407.16 41.7081 1407.16 49.9314 Z" fill="#000000" fill-rule="nonzero" fill-opacity="1"></path><path clip-path="url(#clip660)" d="M1455.37 27.2059 L1462.82 27.2059 L1462.82 72.576 L1455.37 72.576 L1455.37 27.2059 M1455.37 9.54393 L1462.82 9.54393 L1462.82 18.9825 L1455.37 18.9825 L1455.37 9.54393 Z" fill="#000000" fill-rule="nonzero" fill-opacity="1"></path><path clip-path="url(#clip660)" d="M1512 65.7705 L1512 89.8329 L1504.5 89.8329 L1504.5 27.2059 L1512 27.2059 L1512 34.0924 Q1514.35 30.0415 1517.91 28.0971 Q1521.52 26.1121 1526.5 26.1121 Q1534.76 26.1121 1539.91 32.6746 Q1545.09 39.2371 1545.09 49.9314 Q1545.09 60.6258 1539.91 67.1883 Q1534.76 73.7508 1526.5 73.7508 Q1521.52 73.7508 1517.91 71.8063 Q1514.35 69.8214 1512 65.7705 M1537.36 49.9314 Q1537.36 41.7081 1533.95 37.0496 Q1530.59 32.3505 1524.68 32.3505 Q1518.76 32.3505 1515.36 37.0496 Q1512 41.7081 1512 49.9314 Q1512 58.1548 1515.36 62.8538 Q1518.76 67.5124 1524.68 67.5124 Q1530.59 67.5124 1533.95 62.8538 Q1537.36 58.1548 1537.36 49.9314 Z" fill="#000000" fill-rule="nonzero" fill-opacity="1"></path><path clip-path="url(#clip660)" d="M1596.26 48.0275 L1596.26 51.6733 L1561.99 51.6733 Q1562.47 59.3701 1566.6 63.421 Q1570.78 67.4314 1578.19 67.4314 Q1582.48 67.4314 1586.49 66.3781 Q1590.55 65.3249 1594.52 63.2184 L1594.52 70.267 Q1590.51 71.9684 1586.29 72.8596 Q1582.08 73.7508 1577.74 73.7508 Q1566.89 73.7508 1560.53 67.4314 Q1554.21 61.1119 1554.21 50.3365 Q1554.21 39.1965 1560.2 32.6746 Q1566.24 26.1121 1576.45 26.1121 Q1585.6 26.1121 1590.91 32.0264 Q1596.26 37.9003 1596.26 48.0275 M1588.8 45.84 Q1588.72 39.7232 1585.36 36.0774 Q1582.04 32.4315 1576.53 32.4315 Q1570.29 32.4315 1566.52 35.9558 Q1562.8 39.4801 1562.23 45.8805 L1588.8 45.84 Z" fill="#000000" fill-rule="nonzero" fill-opacity="1"></path><path clip-path="url(#clip660)" d="M1634.78 34.1734 Q1633.53 33.4443 1632.03 33.1202 Q1630.57 32.7556 1628.79 32.7556 Q1622.47 32.7556 1619.06 36.8875 Q1615.7 40.9789 1615.7 48.6757 L1615.7 72.576 L1608.21 72.576 L1608.21 27.2059 L1615.7 27.2059 L1615.7 34.2544 Q1618.05 30.1225 1621.82 28.1376 Q1625.59 26.1121 1630.97 26.1121 Q1631.74 26.1121 1632.67 26.2337 Q1633.61 26.3147 1634.74 26.5172 L1634.78 34.1734 Z" fill="#000000" fill-rule="nonzero" fill-opacity="1"></path><path clip-path="url(#clip660)" d="M1689.51 20.1573 L1678.41 50.2555 L1700.65 50.2555 L1689.51 20.1573 M1684.89 12.096 L1694.17 12.096 L1717.22 72.576 L1708.71 72.576 L1703.2 57.061 L1675.94 57.061 L1670.43 72.576 L1661.8 72.576 L1684.89 12.096 Z" fill="#000000" fill-rule="nonzero" fill-opacity="1"></path><path clip-path="url(#clip660)" d="M1763.44 45.1919 L1763.44 72.576 L1755.98 72.576 L1755.98 45.4349 Q1755.98 38.994 1753.47 35.7938 Q1750.96 32.5936 1745.94 32.5936 Q1739.9 32.5936 1736.42 36.4419 Q1732.93 40.2903 1732.93 46.9338 L1732.93 72.576 L1725.44 72.576 L1725.44 27.2059 L1732.93 27.2059 L1732.93 34.2544 Q1735.61 30.163 1739.21 28.1376 Q1742.86 26.1121 1747.6 26.1121 Q1755.42 26.1121 1759.43 30.9732 Q1763.44 35.7938 1763.44 45.1919 Z" fill="#000000" fill-rule="nonzero" fill-opacity="1"></path><path clip-path="url(#clip660)" d="M1816.02 45.1919 L1816.02 72.576 L1808.57 72.576 L1808.57 45.4349 Q1808.57 38.994 1806.05 35.7938 Q1803.54 32.5936 1798.52 32.5936 Q1792.48 32.5936 1789 36.4419 Q1785.52 40.2903 1785.52 46.9338 L1785.52 72.576 L1778.02 72.576 L1778.02 27.2059 L1785.52 27.2059 L1785.52 34.2544 Q1788.19 30.163 1791.79 28.1376 Q1795.44 26.1121 1800.18 26.1121 Q1808 26.1121 1812.01 30.9732 Q1816.02 35.7938 1816.02 45.1919 Z" fill="#000000" fill-rule="nonzero" fill-opacity="1"></path><path clip-path="url(#clip660)" d="M1848.47 32.4315 Q1842.47 32.4315 1838.99 37.1306 Q1835.5 41.7891 1835.5 49.9314 Q1835.5 58.0738 1838.95 62.7728 Q1842.43 67.4314 1848.47 67.4314 Q1854.42 67.4314 1857.91 62.7323 Q1861.39 58.0333 1861.39 49.9314 Q1861.39 41.8701 1857.91 37.1711 Q1854.42 32.4315 1848.47 32.4315 M1848.47 26.1121 Q1858.19 26.1121 1863.74 32.4315 Q1869.29 38.7509 1869.29 49.9314 Q1869.29 61.0714 1863.74 67.4314 Q1858.19 73.7508 1848.47 73.7508 Q1838.7 73.7508 1833.15 67.4314 Q1827.64 61.0714 1827.64 49.9314 Q1827.64 38.7509 1833.15 32.4315 Q1838.7 26.1121 1848.47 26.1121 Z" fill="#000000" fill-rule="nonzero" fill-opacity="1"></path><path clip-path="url(#clip662)" d="M351.748 123.472 L351.748 1423.18 L545.034 1423.18 L545.034 123.472 L351.748 123.472 L351.748 123.472  Z" fill="#009af9" fill-rule="evenodd" fill-opacity="1"></path>
<polyline clip-path="url(#clip662)" style="stroke:#000000; stroke-linecap:round; stroke-linejoin:round; stroke-width:4; stroke-opacity:1; fill:none" points="351.748,123.472 351.748,1423.18 545.034,1423.18 545.034,123.472 351.748,123.472 "></polyline>
<path clip-path="url(#clip662)" d="M593.356 888.833 L593.356 1423.18 L786.642 1423.18 L786.642 888.833 L593.356 888.833 L593.356 888.833  Z" fill="#009af9" fill-rule="evenodd" fill-opacity="1"></path>
<polyline clip-path="url(#clip662)" style="stroke:#000000; stroke-linecap:round; stroke-linejoin:round; stroke-width:4; stroke-opacity:1; fill:none" points="593.356,888.833 593.356,1423.18 786.642,1423.18 786.642,888.833 593.356,888.833 "></polyline>
<path clip-path="url(#clip662)" d="M834.964 537.289 L834.964 1423.18 L1028.25 1423.18 L1028.25 537.289 L834.964 537.289 L834.964 537.289  Z" fill="#009af9" fill-rule="evenodd" fill-opacity="1"></path>
<polyline clip-path="url(#clip662)" style="stroke:#000000; stroke-linecap:round; stroke-linejoin:round; stroke-width:4; stroke-opacity:1; fill:none" points="834.964,537.289 834.964,1423.18 1028.25,1423.18 1028.25,537.289 834.964,537.289 "></polyline>
<path clip-path="url(#clip662)" d="M1076.57 286.187 L1076.57 1423.18 L1269.86 1423.18 L1269.86 286.187 L1076.57 286.187 L1076.57 286.187  Z" fill="#009af9" fill-rule="evenodd" fill-opacity="1"></path>
<polyline clip-path="url(#clip662)" style="stroke:#000000; stroke-linecap:round; stroke-linejoin:round; stroke-width:4; stroke-opacity:1; fill:none" points="1076.57,286.187 1076.57,1423.18 1269.86,1423.18 1269.86,286.187 1076.57,286.187 "></polyline>
<path clip-path="url(#clip662)" d="M1318.18 163.649 L1318.18 1423.18 L1511.47 1423.18 L1511.47 163.649 L1318.18 163.649 L1318.18 163.649  Z" fill="#009af9" fill-rule="evenodd" fill-opacity="1"></path>
<polyline clip-path="url(#clip662)" style="stroke:#000000; stroke-linecap:round; stroke-linejoin:round; stroke-width:4; stroke-opacity:1; fill:none" points="1318.18,163.649 1318.18,1423.18 1511.47,1423.18 1511.47,163.649 1318.18,163.649 "></polyline>
<path clip-path="url(#clip662)" d="M1559.79 603.581 L1559.79 1423.18 L1753.07 1423.18 L1753.07 603.581 L1559.79 603.581 L1559.79 603.581  Z" fill="#009af9" fill-rule="evenodd" fill-opacity="1"></path>
<polyline clip-path="url(#clip662)" style="stroke:#000000; stroke-linecap:round; stroke-linejoin:round; stroke-width:4; stroke-opacity:1; fill:none" points="1559.79,603.581 1559.79,1423.18 1753.07,1423.18 1753.07,603.581 1559.79,603.581 "></polyline>
<path clip-path="url(#clip662)" d="M1801.4 332.39 L1801.4 1423.18 L1994.68 1423.18 L1994.68 332.39 L1801.4 332.39 L1801.4 332.39  Z" fill="#009af9" fill-rule="evenodd" fill-opacity="1"></path>
<polyline clip-path="url(#clip662)" style="stroke:#000000; stroke-linecap:round; stroke-linejoin:round; stroke-width:4; stroke-opacity:1; fill:none" points="1801.4,332.39 1801.4,1423.18 1994.68,1423.18 1994.68,332.39 1801.4,332.39 "></polyline>
<path clip-path="url(#clip662)" d="M2043 710.048 L2043 1423.18 L2236.29 1423.18 L2236.29 710.048 L2043 710.048 L2043 710.048  Z" fill="#009af9" fill-rule="evenodd" fill-opacity="1"></path>
<polyline clip-path="url(#clip662)" style="stroke:#000000; stroke-linecap:round; stroke-linejoin:round; stroke-width:4; stroke-opacity:1; fill:none" points="2043,710.048 2043,1423.18 2236.29,1423.18 2236.29,710.048 2043,710.048 "></polyline>
<circle clip-path="url(#clip662)" style="fill:#009af9; stroke:none; fill-opacity:0" cx="448.391" cy="123.472" r="2"></circle>
<circle clip-path="url(#clip662)" style="fill:#009af9; stroke:none; fill-opacity:0" cx="689.999" cy="888.833" r="2"></circle>
<circle clip-path="url(#clip662)" style="fill:#009af9; stroke:none; fill-opacity:0" cx="931.607" cy="537.289" r="2"></circle>
<circle clip-path="url(#clip662)" style="fill:#009af9; stroke:none; fill-opacity:0" cx="1173.22" cy="286.187" r="2"></circle>
<circle clip-path="url(#clip662)" style="fill:#009af9; stroke:none; fill-opacity:0" cx="1414.82" cy="163.649" r="2"></circle>
<circle clip-path="url(#clip662)" style="fill:#009af9; stroke:none; fill-opacity:0" cx="1656.43" cy="603.581" r="2"></circle>
<circle clip-path="url(#clip662)" style="fill:#009af9; stroke:none; fill-opacity:0" cx="1898.04" cy="332.39" r="2"></circle>
<circle clip-path="url(#clip662)" style="fill:#009af9; stroke:none; fill-opacity:0" cx="2139.65" cy="710.048" r="2"></circle>
<path clip-path="url(#clip660)" d="M2018 270.476 L2282.17 270.476 L2282.17 166.796 L2018 166.796  Z" fill="#ffffff" fill-rule="evenodd" fill-opacity="1"></path>
<polyline clip-path="url(#clip660)" style="stroke:#000000; stroke-linecap:round; stroke-linejoin:round; stroke-width:4; stroke-opacity:1; fill:none" points="2018,270.476 2282.17,270.476 2282.17,166.796 2018,166.796 2018,270.476 "></polyline>
<path clip-path="url(#clip660)" d="M2041.52 239.372 L2182.69 239.372 L2182.69 197.9 L2041.52 197.9 L2041.52 239.372  Z" fill="#009af9" fill-rule="evenodd" fill-opacity="1"></path>
<polyline clip-path="url(#clip660)" style="stroke:#000000; stroke-linecap:round; stroke-linejoin:round; stroke-width:4; stroke-opacity:1; fill:none" points="2041.52,239.372 2182.69,239.372 2182.69,197.9 2041.52,197.9 2041.52,239.372 "></polyline>
<path clip-path="url(#clip660)" d="M2220.06 238.323 Q2218.25 242.953 2216.54 244.365 Q2214.83 245.777 2211.96 245.777 L2208.55 245.777 L2208.55 242.212 L2211.05 242.212 Q2212.81 242.212 2213.79 241.379 Q2214.76 240.545 2215.94 237.443 L2216.7 235.499 L2206.22 209.99 L2210.73 209.99 L2218.83 230.268 L2226.93 209.99 L2231.45 209.99 L2220.06 238.323 Z" fill="#000000" fill-rule="nonzero" fill-opacity="1"></path><path clip-path="url(#clip660)" d="M2238.74 231.981 L2246.38 231.981 L2246.38 205.615 L2238.07 207.282 L2238.07 203.022 L2246.33 201.356 L2251.01 201.356 L2251.01 231.981 L2258.65 231.981 L2258.65 235.916 L2238.74 235.916 L2238.74 231.981 Z" fill="#000000" fill-rule="nonzero" fill-opacity="1"></path></svg>