<svg xmlns="http://www.w3.org/2000/svg" xmlns:xlink="http://www.w3.org/1999/xlink" width="600" height="400" viewBox="0 0 2400 1600">
<defs>
  <clipPath id="clip940">
    <rect x="0" y="0" width="2400" height="1600"></rect>
  </clipPath>
</defs>
<path clip-path="url(#clip940)" d="M0 1600 L2400 1600 L2400 0 L0 0  Z" fill="#ffffff" fill-rule="evenodd" fill-opacity="1"></path>
<defs>
  <clipPath id="clip941">
    <rect x="480" y="0" width="1681" height="1600"></rect>
  </clipPath>
</defs>
<path clip-path="url(#clip940)" d="M199.283 1423.18 L2352.76 1423.18 L2352.76 47.2441 L199.283 47.2441  Z" fill="#ffffff" fill-rule="evenodd" fill-opacity="1"></path>
<defs>
  <clipPath id="clip942">
    <rect x="199" y="47" width="2154" height="1377"></rect>
  </clipPath>
</defs>
<polyline clip-path="url(#clip942)" style="stroke:#000000; stroke-linecap:round; stroke-linejoin:round; stroke-width:2; stroke-opacity:0.1; fill:none" points="220.275,1423.18 220.275,47.2441 "></polyline>
<polyline clip-path="url(#clip942)" style="stroke:#000000; stroke-linecap:round; stroke-linejoin:round; stroke-width:2; stroke-opacity:0.1; fill:none" points="545.119,1423.18 545.119,47.2441 "></polyline>
<polyline clip-path="url(#clip942)" style="stroke:#000000; stroke-linecap:round; stroke-linejoin:round; stroke-width:2; stroke-opacity:0.1; fill:none" points="869.964,1423.18 869.964,47.2441 "></polyline>
<polyline clip-path="url(#clip942)" style="stroke:#000000; stroke-linecap:round; stroke-linejoin:round; stroke-width:2; stroke-opacity:0.1; fill:none" points="1194.81,1423.18 1194.81,47.2441 "></polyline>
<polyline clip-path="url(#clip942)" style="stroke:#000000; stroke-linecap:round; stroke-linejoin:round; stroke-width:2; stroke-opacity:0.1; fill:none" points="1519.65,1423.18 1519.65,47.2441 "></polyline>
<polyline clip-path="url(#clip942)" style="stroke:#000000; stroke-linecap:round; stroke-linejoin:round; stroke-width:2; stroke-opacity:0.1; fill:none" points="1844.5,1423.18 1844.5,47.2441 "></polyline>
<polyline clip-path="url(#clip942)" style="stroke:#000000; stroke-linecap:round; stroke-linejoin:round; stroke-width:2; stroke-opacity:0.1; fill:none" points="2169.34,1423.18 2169.34,47.2441 "></polyline>
<polyline clip-path="url(#clip942)" style="stroke:#000000; stroke-linecap:round; stroke-linejoin:round; stroke-width:2; stroke-opacity:0.1; fill:none" points="199.283,1423.18 2352.76,1423.18 "></polyline>
<polyline clip-path="url(#clip942)" style="stroke:#000000; stroke-linecap:round; stroke-linejoin:round; stroke-width:2; stroke-opacity:0.1; fill:none" points="199.283,1146 2352.76,1146 "></polyline>
<polyline clip-path="url(#clip942)" style="stroke:#000000; stroke-linecap:round; stroke-linejoin:round; stroke-width:2; stroke-opacity:0.1; fill:none" points="199.283,868.814 2352.76,868.814 "></polyline>
<polyline clip-path="url(#clip942)" style="stroke:#000000; stroke-linecap:round; stroke-linejoin:round; stroke-width:2; stroke-opacity:0.1; fill:none" points="199.283,591.631 2352.76,591.631 "></polyline>
<polyline clip-path="url(#clip942)" style="stroke:#000000; stroke-linecap:round; stroke-linejoin:round; stroke-width:2; stroke-opacity:0.1; fill:none" points="199.283,314.448 2352.76,314.448 "></polyline>
<polyline clip-path="url(#clip940)" style="stroke:#000000; stroke-linecap:round; stroke-linejoin:round; stroke-width:4; stroke-opacity:1; fill:none" points="199.283,1423.18 2352.76,1423.18 "></polyline>
<polyline clip-path="url(#clip940)" style="stroke:#000000; stroke-linecap:round; stroke-linejoin:round; stroke-width:4; stroke-opacity:1; fill:none" points="220.275,1423.18 220.275,1404.28 "></polyline>
<polyline clip-path="url(#clip940)" style="stroke:#000000; stroke-linecap:round; stroke-linejoin:round; stroke-width:4; stroke-opacity:1; fill:none" points="545.119,1423.18 545.119,1404.28 "></polyline>
<polyline clip-path="url(#clip940)" style="stroke:#000000; stroke-linecap:round; stroke-linejoin:round; stroke-width:4; stroke-opacity:1; fill:none" points="869.964,1423.18 869.964,1404.28 "></polyline>
<polyline clip-path="url(#clip940)" style="stroke:#000000; stroke-linecap:round; stroke-linejoin:round; stroke-width:4; stroke-opacity:1; fill:none" points="1194.81,1423.18 1194.81,1404.28 "></polyline>
<polyline clip-path="url(#clip940)" style="stroke:#000000; stroke-linecap:round; stroke-linejoin:round; stroke-width:4; stroke-opacity:1; fill:none" points="1519.65,1423.18 1519.65,1404.28 "></polyline>
<polyline clip-path="url(#clip940)" style="stroke:#000000; stroke-linecap:round; stroke-linejoin:round; stroke-width:4; stroke-opacity:1; fill:none" points="1844.5,1423.18 1844.5,1404.28 "></polyline>
<polyline clip-path="url(#clip940)" style="stroke:#000000; stroke-linecap:round; stroke-linejoin:round; stroke-width:4; stroke-opacity:1; fill:none" points="2169.34,1423.18 2169.34,1404.28 "></polyline>
<path clip-path="url(#clip940)" d="M220.275 1454.1 Q216.664 1454.1 214.835 1457.66 Q213.029 1461.2 213.029 1468.33 Q213.029 1475.44 214.835 1479.01 Q216.664 1482.55 220.275 1482.55 Q223.909 1482.55 225.714 1479.01 Q227.543 1475.44 227.543 1468.33 Q227.543 1461.2 225.714 1457.66 Q223.909 1454.1 220.275 1454.1 M220.275 1450.39 Q226.085 1450.39 229.14 1455 Q232.219 1459.58 232.219 1468.33 Q232.219 1477.06 229.14 1481.67 Q226.085 1486.25 220.275 1486.25 Q214.464 1486.25 211.386 1481.67 Q208.33 1477.06 208.33 1468.33 Q208.33 1459.58 211.386 1455 Q214.464 1450.39 220.275 1450.39 Z" fill="#000000" fill-rule="nonzero" fill-opacity="1"></path><path clip-path="url(#clip940)" d="M539.772 1481.64 L556.091 1481.64 L556.091 1485.58 L534.147 1485.58 L534.147 1481.64 Q536.809 1478.89 541.392 1474.26 Q545.999 1469.61 547.179 1468.27 Q549.425 1465.74 550.304 1464.01 Q551.207 1462.25 551.207 1460.56 Q551.207 1457.8 549.263 1456.07 Q547.341 1454.33 544.24 1454.33 Q542.041 1454.33 539.587 1455.09 Q537.156 1455.86 534.379 1457.41 L534.379 1452.69 Q537.203 1451.55 539.656 1450.97 Q542.11 1450.39 544.147 1450.39 Q549.517 1450.39 552.712 1453.08 Q555.906 1455.77 555.906 1460.26 Q555.906 1462.39 555.096 1464.31 Q554.309 1466.2 552.203 1468.8 Q551.624 1469.47 548.522 1472.69 Q545.42 1475.88 539.772 1481.64 Z" fill="#000000" fill-rule="nonzero" fill-opacity="1"></path><path clip-path="url(#clip940)" d="M872.973 1455.09 L861.168 1473.54 L872.973 1473.54 L872.973 1455.09 M871.746 1451.02 L877.626 1451.02 L877.626 1473.54 L882.556 1473.54 L882.556 1477.43 L877.626 1477.43 L877.626 1485.58 L872.973 1485.58 L872.973 1477.43 L857.371 1477.43 L857.371 1472.92 L871.746 1451.02 Z" fill="#000000" fill-rule="nonzero" fill-opacity="1"></path><path clip-path="url(#clip940)" d="M1195.21 1466.44 Q1192.07 1466.44 1190.21 1468.59 Q1188.38 1470.74 1188.38 1474.49 Q1188.38 1478.22 1190.21 1480.39 Q1192.07 1482.55 1195.21 1482.55 Q1198.36 1482.55 1200.19 1480.39 Q1202.04 1478.22 1202.04 1474.49 Q1202.04 1470.74 1200.19 1468.59 Q1198.36 1466.44 1195.21 1466.44 M1204.5 1451.78 L1204.5 1456.04 Q1202.74 1455.21 1200.93 1454.77 Q1199.15 1454.33 1197.39 1454.33 Q1192.76 1454.33 1190.31 1457.45 Q1187.88 1460.58 1187.53 1466.9 Q1188.89 1464.89 1190.95 1463.82 Q1193.01 1462.73 1195.49 1462.73 Q1200.7 1462.73 1203.71 1465.9 Q1206.74 1469.05 1206.74 1474.49 Q1206.74 1479.82 1203.59 1483.03 Q1200.44 1486.25 1195.21 1486.25 Q1189.22 1486.25 1186.05 1481.67 Q1182.88 1477.06 1182.88 1468.33 Q1182.88 1460.14 1186.76 1455.28 Q1190.65 1450.39 1197.2 1450.39 Q1198.96 1450.39 1200.75 1450.74 Q1202.55 1451.09 1204.5 1451.78 Z" fill="#000000" fill-rule="nonzero" fill-opacity="1"></path><path clip-path="url(#clip940)" d="M1519.65 1469.17 Q1516.32 1469.17 1514.4 1470.95 Q1512.5 1472.73 1512.5 1475.86 Q1512.5 1478.98 1514.4 1480.77 Q1516.32 1482.55 1519.65 1482.55 Q1522.99 1482.55 1524.91 1480.77 Q1526.83 1478.96 1526.83 1475.86 Q1526.83 1472.73 1524.91 1470.95 Q1523.01 1469.17 1519.65 1469.17 M1514.98 1467.18 Q1511.97 1466.44 1510.28 1464.38 Q1508.61 1462.32 1508.61 1459.35 Q1508.61 1455.21 1511.55 1452.8 Q1514.51 1450.39 1519.65 1450.39 Q1524.81 1450.39 1527.75 1452.8 Q1530.69 1455.21 1530.69 1459.35 Q1530.69 1462.32 1529 1464.38 Q1527.34 1466.44 1524.35 1467.18 Q1527.73 1467.96 1529.61 1470.26 Q1531.5 1472.55 1531.5 1475.86 Q1531.5 1480.88 1528.43 1483.57 Q1525.37 1486.25 1519.65 1486.25 Q1513.94 1486.25 1510.86 1483.57 Q1507.8 1480.88 1507.8 1475.86 Q1507.8 1472.55 1509.7 1470.26 Q1511.6 1467.96 1514.98 1467.18 M1513.26 1459.79 Q1513.26 1462.48 1514.93 1463.98 Q1516.62 1465.49 1519.65 1465.49 Q1522.66 1465.49 1524.35 1463.98 Q1526.06 1462.48 1526.06 1459.79 Q1526.06 1457.11 1524.35 1455.6 Q1522.66 1454.1 1519.65 1454.1 Q1516.62 1454.1 1514.93 1455.6 Q1513.26 1457.11 1513.26 1459.79 Z" fill="#000000" fill-rule="nonzero" fill-opacity="1"></path><path clip-path="url(#clip940)" d="M1819.19 1481.64 L1826.82 1481.64 L1826.82 1455.28 L1818.51 1456.95 L1818.51 1452.69 L1826.78 1451.02 L1831.45 1451.02 L1831.45 1481.64 L1839.09 1481.64 L1839.09 1485.58 L1819.19 1485.58 L1819.19 1481.64 Z" fill="#000000" fill-rule="nonzero" fill-opacity="1"></path><path clip-path="url(#clip940)" d="M1858.54 1454.1 Q1854.93 1454.1 1853.1 1457.66 Q1851.29 1461.2 1851.29 1468.33 Q1851.29 1475.44 1853.1 1479.01 Q1854.93 1482.55 1858.54 1482.55 Q1862.17 1482.55 1863.98 1479.01 Q1865.81 1475.44 1865.81 1468.33 Q1865.81 1461.2 1863.98 1457.66 Q1862.17 1454.1 1858.54 1454.1 M1858.54 1450.39 Q1864.35 1450.39 1867.4 1455 Q1870.48 1459.58 1870.48 1468.33 Q1870.48 1477.06 1867.4 1481.67 Q1864.35 1486.25 1858.54 1486.25 Q1852.73 1486.25 1849.65 1481.67 Q1846.59 1477.06 1846.59 1468.33 Q1846.59 1459.58 1849.65 1455 Q1852.73 1450.39 1858.54 1450.39 Z" fill="#000000" fill-rule="nonzero" fill-opacity="1"></path><path clip-path="url(#clip940)" d="M2144.83 1481.64 L2152.47 1481.64 L2152.47 1455.28 L2144.16 1456.95 L2144.16 1452.69 L2152.42 1451.02 L2157.1 1451.02 L2157.1 1481.64 L2164.74 1481.64 L2164.74 1485.58 L2144.83 1485.58 L2144.83 1481.64 Z" fill="#000000" fill-rule="nonzero" fill-opacity="1"></path><path clip-path="url(#clip940)" d="M2178.21 1481.64 L2194.53 1481.64 L2194.53 1485.58 L2172.58 1485.58 L2172.58 1481.64 Q2175.24 1478.89 2179.83 1474.26 Q2184.43 1469.61 2185.62 1468.27 Q2187.86 1465.74 2188.74 1464.01 Q2189.64 1462.25 2189.64 1460.56 Q2189.64 1457.8 2187.7 1456.07 Q2185.78 1454.33 2182.68 1454.33 Q2180.48 1454.33 2178.02 1455.09 Q2175.59 1455.86 2172.81 1457.41 L2172.81 1452.69 Q2175.64 1451.55 2178.09 1450.97 Q2180.55 1450.39 2182.58 1450.39 Q2187.95 1450.39 2191.15 1453.08 Q2194.34 1455.77 2194.34 1460.26 Q2194.34 1462.39 2193.53 1464.31 Q2192.74 1466.2 2190.64 1468.8 Q2190.06 1469.47 2186.96 1472.69 Q2183.86 1475.88 2178.21 1481.64 Z" fill="#000000" fill-rule="nonzero" fill-opacity="1"></path><path clip-path="url(#clip940)" d="M1195.75 1520.52 L1205.33 1520.52 L1217.46 1552.86 L1229.65 1520.52 L1239.23 1520.52 L1239.23 1568.04 L1232.96 1568.04 L1232.96 1526.32 L1220.7 1558.91 L1214.24 1558.91 L1201.99 1526.32 L1201.99 1568.04 L1195.75 1568.04 L1195.75 1520.52 Z" fill="#000000" fill-rule="nonzero" fill-opacity="1"></path><path clip-path="url(#clip940)" d="M1282.23 1548.76 L1282.23 1551.62 L1255.3 1551.62 Q1255.68 1557.67 1258.93 1560.85 Q1262.21 1564 1268.03 1564 Q1271.4 1564 1274.56 1563.17 Q1277.74 1562.35 1280.86 1560.69 L1280.86 1566.23 Q1277.71 1567.57 1274.4 1568.27 Q1271.09 1568.97 1267.68 1568.97 Q1259.15 1568.97 1254.15 1564 Q1249.19 1559.04 1249.19 1550.57 Q1249.19 1541.82 1253.9 1536.69 Q1258.64 1531.54 1266.66 1531.54 Q1273.86 1531.54 1278.02 1536.18 Q1282.23 1540.8 1282.23 1548.76 M1276.37 1547.04 Q1276.31 1542.23 1273.66 1539.37 Q1271.05 1536.5 1266.73 1536.5 Q1261.82 1536.5 1258.86 1539.27 Q1255.94 1542.04 1255.49 1547.07 L1276.37 1547.04 Z" fill="#000000" fill-rule="nonzero" fill-opacity="1"></path><path clip-path="url(#clip940)" d="M1314.56 1533.45 L1314.56 1538.98 Q1312.08 1537.71 1309.41 1537.07 Q1306.73 1536.44 1303.87 1536.44 Q1299.51 1536.44 1297.31 1537.77 Q1295.15 1539.11 1295.15 1541.79 Q1295.15 1543.82 1296.71 1545 Q1298.27 1546.15 1302.98 1547.2 L1304.98 1547.64 Q1311.22 1548.98 1313.83 1551.43 Q1316.47 1553.85 1316.47 1558.21 Q1316.47 1563.17 1312.53 1566.07 Q1308.61 1568.97 1301.74 1568.97 Q1298.87 1568.97 1295.75 1568.39 Q1292.67 1567.85 1289.23 1566.74 L1289.23 1560.69 Q1292.47 1562.38 1295.63 1563.24 Q1298.78 1564.07 1301.86 1564.07 Q1306 1564.07 1308.23 1562.66 Q1310.46 1561.23 1310.46 1558.65 Q1310.46 1556.27 1308.83 1554.99 Q1307.24 1553.72 1301.8 1552.54 L1299.76 1552.07 Q1294.32 1550.92 1291.9 1548.56 Q1289.48 1546.18 1289.48 1542.04 Q1289.48 1537.01 1293.05 1534.27 Q1296.61 1531.54 1303.17 1531.54 Q1306.42 1531.54 1309.28 1532.01 Q1312.14 1532.49 1314.56 1533.45 Z" fill="#000000" fill-rule="nonzero" fill-opacity="1"></path><path clip-path="url(#clip940)" d="M1356.29 1548.76 L1356.29 1551.62 L1329.36 1551.62 Q1329.75 1557.67 1332.99 1560.85 Q1336.27 1564 1342.1 1564 Q1345.47 1564 1348.62 1563.17 Q1351.8 1562.35 1354.92 1560.69 L1354.92 1566.23 Q1351.77 1567.57 1348.46 1568.27 Q1345.15 1568.97 1341.75 1568.97 Q1333.22 1568.97 1328.22 1564 Q1323.25 1559.04 1323.25 1550.57 Q1323.25 1541.82 1327.96 1536.69 Q1332.71 1531.54 1340.73 1531.54 Q1347.92 1531.54 1352.09 1536.18 Q1356.29 1540.8 1356.29 1548.76 M1350.43 1547.04 Q1350.37 1542.23 1347.73 1539.37 Q1345.12 1536.5 1340.79 1536.5 Q1335.89 1536.5 1332.93 1539.27 Q1330 1542.04 1329.56 1547.07 L1350.43 1547.04 Z" fill="#000000" fill-rule="nonzero" fill-opacity="1"></path><polyline clip-path="url(#clip940)" style="stroke:#000000; stroke-linecap:round; stroke-linejoin:round; stroke-width:4; stroke-opacity:1; fill:none" points="199.283,1423.18 199.283,47.2441 "></polyline>
<polyline clip-path="url(#clip940)" style="stroke:#000000; stroke-linecap:round; stroke-linejoin:round; stroke-width:4; stroke-opacity:1; fill:none" points="199.283,1423.18 218.181,1423.18 "></polyline>
<polyline clip-path="url(#clip940)" style="stroke:#000000; stroke-linecap:round; stroke-linejoin:round; stroke-width:4; stroke-opacity:1; fill:none" points="199.283,1146 218.181,1146 "></polyline>
<polyline clip-path="url(#clip940)" style="stroke:#000000; stroke-linecap:round; stroke-linejoin:round; stroke-width:4; stroke-opacity:1; fill:none" points="199.283,868.814 218.181,868.814 "></polyline>
<polyline clip-path="url(#clip940)" style="stroke:#000000; stroke-linecap:round; stroke-linejoin:round; stroke-width:4; stroke-opacity:1; fill:none" points="199.283,591.631 218.181,591.631 "></polyline>
<polyline clip-path="url(#clip940)" style="stroke:#000000; stroke-linecap:round; stroke-linejoin:round; stroke-width:4; stroke-opacity:1; fill:none" points="199.283,314.448 218.181,314.448 "></polyline>
<path clip-path="url(#clip940)" d="M151.339 1408.98 Q147.728 1408.98 145.899 1412.54 Q144.093 1416.08 144.093 1423.21 Q144.093 1430.32 145.899 1433.89 Q147.728 1437.43 151.339 1437.43 Q154.973 1437.43 156.779 1433.89 Q158.607 1430.32 158.607 1423.21 Q158.607 1416.08 156.779 1412.54 Q154.973 1408.98 151.339 1408.98 M151.339 1405.27 Q157.149 1405.27 160.205 1409.88 Q163.283 1414.46 163.283 1423.21 Q163.283 1431.94 160.205 1436.55 Q157.149 1441.13 151.339 1441.13 Q145.529 1441.13 142.45 1436.55 Q139.394 1431.94 139.394 1423.21 Q139.394 1414.46 142.45 1409.88 Q145.529 1405.27 151.339 1405.27 Z" fill="#000000" fill-rule="nonzero" fill-opacity="1"></path><path clip-path="url(#clip940)" d="M85.0429 1159.34 L101.362 1159.34 L101.362 1163.28 L79.4179 1163.28 L79.4179 1159.34 Q82.0799 1156.59 86.6632 1151.96 Q91.2697 1147.3 92.4502 1145.96 Q94.6956 1143.44 95.5752 1141.7 Q96.478 1139.94 96.478 1138.25 Q96.478 1135.5 94.5336 1133.76 Q92.6123 1132.03 89.5104 1132.03 Q87.3114 1132.03 84.8577 1132.79 Q82.4271 1133.55 79.6494 1135.11 L79.6494 1130.38 Q82.4734 1129.25 84.9271 1128.67 Q87.3808 1128.09 89.4178 1128.09 Q94.7882 1128.09 97.9826 1130.78 Q101.177 1133.46 101.177 1137.95 Q101.177 1140.08 100.367 1142 Q99.5798 1143.9 97.4734 1146.49 Q96.8947 1147.17 93.7928 1150.38 Q90.691 1153.58 85.0429 1159.34 Z" fill="#000000" fill-rule="nonzero" fill-opacity="1"></path><path clip-path="url(#clip940)" d="M111.223 1128.72 L129.58 1128.72 L129.58 1132.65 L115.506 1132.65 L115.506 1141.12 Q116.524 1140.78 117.543 1140.62 Q118.561 1140.43 119.58 1140.43 Q125.367 1140.43 128.746 1143.6 Q132.126 1146.77 132.126 1152.19 Q132.126 1157.77 128.654 1160.87 Q125.182 1163.95 118.862 1163.95 Q116.686 1163.95 114.418 1163.58 Q112.172 1163.21 109.765 1162.47 L109.765 1157.77 Q111.848 1158.9 114.07 1159.46 Q116.293 1160.01 118.77 1160.01 Q122.774 1160.01 125.112 1157.91 Q127.45 1155.8 127.45 1152.19 Q127.45 1148.58 125.112 1146.47 Q122.774 1144.37 118.77 1144.37 Q116.895 1144.37 115.02 1144.78 Q113.168 1145.2 111.223 1146.08 L111.223 1128.72 Z" fill="#000000" fill-rule="nonzero" fill-opacity="1"></path><path clip-path="url(#clip940)" d="M151.339 1131.8 Q147.728 1131.8 145.899 1135.36 Q144.093 1138.9 144.093 1146.03 Q144.093 1153.14 145.899 1156.7 Q147.728 1160.24 151.339 1160.24 Q154.973 1160.24 156.779 1156.7 Q158.607 1153.14 158.607 1146.03 Q158.607 1138.9 156.779 1135.36 Q154.973 1131.8 151.339 1131.8 M151.339 1128.09 Q157.149 1128.09 160.205 1132.7 Q163.283 1137.28 163.283 1146.03 Q163.283 1154.76 160.205 1159.36 Q157.149 1163.95 151.339 1163.95 Q145.529 1163.95 142.45 1159.36 Q139.394 1154.76 139.394 1146.03 Q139.394 1137.28 142.45 1132.7 Q145.529 1128.09 151.339 1128.09 Z" fill="#000000" fill-rule="nonzero" fill-opacity="1"></path><path clip-path="url(#clip940)" d="M81.0614 851.534 L99.4178 851.534 L99.4178 855.469 L85.3438 855.469 L85.3438 863.941 Q86.3623 863.594 87.3808 863.432 Q88.3993 863.247 89.4178 863.247 Q95.2049 863.247 98.5845 866.418 Q101.964 869.59 101.964 875.006 Q101.964 880.585 98.4919 883.687 Q95.0197 886.765 88.7003 886.765 Q86.5243 886.765 84.2558 886.395 Q82.0105 886.025 79.6031 885.284 L79.6031 880.585 Q81.6864 881.719 83.9086 882.275 Q86.1308 882.83 88.6077 882.83 Q92.6123 882.83 94.9502 880.724 Q97.2882 878.617 97.2882 875.006 Q97.2882 871.395 94.9502 869.289 Q92.6123 867.182 88.6077 867.182 Q86.7327 867.182 84.8577 867.599 Q83.0058 868.016 81.0614 868.895 L81.0614 851.534 Z" fill="#000000" fill-rule="nonzero" fill-opacity="1"></path><path clip-path="url(#clip940)" d="M121.177 854.613 Q117.566 854.613 115.737 858.178 Q113.932 861.719 113.932 868.849 Q113.932 875.955 115.737 879.52 Q117.566 883.062 121.177 883.062 Q124.811 883.062 126.617 879.52 Q128.445 875.955 128.445 868.849 Q128.445 861.719 126.617 858.178 Q124.811 854.613 121.177 854.613 M121.177 850.909 Q126.987 850.909 130.043 855.516 Q133.121 860.099 133.121 868.849 Q133.121 877.576 130.043 882.182 Q126.987 886.765 121.177 886.765 Q115.367 886.765 112.288 882.182 Q109.233 877.576 109.233 868.849 Q109.233 860.099 112.288 855.516 Q115.367 850.909 121.177 850.909 Z" fill="#000000" fill-rule="nonzero" fill-opacity="1"></path><path clip-path="url(#clip940)" d="M151.339 854.613 Q147.728 854.613 145.899 858.178 Q144.093 861.719 144.093 868.849 Q144.093 875.955 145.899 879.52 Q147.728 883.062 151.339 883.062 Q154.973 883.062 156.779 879.52 Q158.607 875.955 158.607 868.849 Q158.607 861.719 156.779 858.178 Q154.973 854.613 151.339 854.613 M151.339 850.909 Q157.149 850.909 160.205 855.516 Q163.283 860.099 163.283 868.849 Q163.283 877.576 160.205 882.182 Q157.149 886.765 151.339 886.765 Q145.529 886.765 142.45 882.182 Q139.394 877.576 139.394 868.849 Q139.394 860.099 142.45 855.516 Q145.529 850.909 151.339 850.909 Z" fill="#000000" fill-rule="nonzero" fill-opacity="1"></path><path clip-path="url(#clip940)" d="M79.8346 574.351 L102.057 574.351 L102.057 576.342 L89.5104 608.911 L84.6262 608.911 L96.4317 578.286 L79.8346 578.286 L79.8346 574.351 Z" fill="#000000" fill-rule="nonzero" fill-opacity="1"></path><path clip-path="url(#clip940)" d="M111.223 574.351 L129.58 574.351 L129.58 578.286 L115.506 578.286 L115.506 586.759 Q116.524 586.411 117.543 586.249 Q118.561 586.064 119.58 586.064 Q125.367 586.064 128.746 589.235 Q132.126 592.407 132.126 597.823 Q132.126 603.402 128.654 606.504 Q125.182 609.583 118.862 609.583 Q116.686 609.583 114.418 609.212 Q112.172 608.842 109.765 608.101 L109.765 603.402 Q111.848 604.536 114.07 605.092 Q116.293 605.647 118.77 605.647 Q122.774 605.647 125.112 603.541 Q127.45 601.434 127.45 597.823 Q127.45 594.212 125.112 592.106 Q122.774 589.999 118.77 589.999 Q116.895 589.999 115.02 590.416 Q113.168 590.833 111.223 591.712 L111.223 574.351 Z" fill="#000000" fill-rule="nonzero" fill-opacity="1"></path><path clip-path="url(#clip940)" d="M151.339 577.43 Q147.728 577.43 145.899 580.995 Q144.093 584.536 144.093 591.666 Q144.093 598.772 145.899 602.337 Q147.728 605.879 151.339 605.879 Q154.973 605.879 156.779 602.337 Q158.607 598.772 158.607 591.666 Q158.607 584.536 156.779 580.995 Q154.973 577.43 151.339 577.43 M151.339 573.726 Q157.149 573.726 160.205 578.333 Q163.283 582.916 163.283 591.666 Q163.283 600.393 160.205 604.999 Q157.149 609.583 151.339 609.583 Q145.529 609.583 142.45 604.999 Q139.394 600.393 139.394 591.666 Q139.394 582.916 142.45 578.333 Q145.529 573.726 151.339 573.726 Z" fill="#000000" fill-rule="nonzero" fill-opacity="1"></path><path clip-path="url(#clip940)" d="M51.6634 327.793 L59.3023 327.793 L59.3023 301.428 L50.9921 303.094 L50.9921 298.835 L59.256 297.168 L63.9319 297.168 L63.9319 327.793 L71.5707 327.793 L71.5707 331.728 L51.6634 331.728 L51.6634 327.793 Z" fill="#000000" fill-rule="nonzero" fill-opacity="1"></path><path clip-path="url(#clip940)" d="M91.0151 300.247 Q87.404 300.247 85.5753 303.812 Q83.7697 307.354 83.7697 314.483 Q83.7697 321.59 85.5753 325.154 Q87.404 328.696 91.0151 328.696 Q94.6493 328.696 96.4548 325.154 Q98.2835 321.59 98.2835 314.483 Q98.2835 307.354 96.4548 303.812 Q94.6493 300.247 91.0151 300.247 M91.0151 296.543 Q96.8252 296.543 99.8808 301.15 Q102.959 305.733 102.959 314.483 Q102.959 323.21 99.8808 327.816 Q96.8252 332.4 91.0151 332.4 Q85.2049 332.4 82.1262 327.816 Q79.0707 323.21 79.0707 314.483 Q79.0707 305.733 82.1262 301.15 Q85.2049 296.543 91.0151 296.543 Z" fill="#000000" fill-rule="nonzero" fill-opacity="1"></path><path clip-path="url(#clip940)" d="M121.177 300.247 Q117.566 300.247 115.737 303.812 Q113.932 307.354 113.932 314.483 Q113.932 321.59 115.737 325.154 Q117.566 328.696 121.177 328.696 Q124.811 328.696 126.617 325.154 Q128.445 321.59 128.445 314.483 Q128.445 307.354 126.617 303.812 Q124.811 300.247 121.177 300.247 M121.177 296.543 Q126.987 296.543 130.043 301.15 Q133.121 305.733 133.121 314.483 Q133.121 323.21 130.043 327.816 Q126.987 332.4 121.177 332.4 Q115.367 332.4 112.288 327.816 Q109.233 323.21 109.233 314.483 Q109.233 305.733 112.288 301.15 Q115.367 296.543 121.177 296.543 Z" fill="#000000" fill-rule="nonzero" fill-opacity="1"></path><path clip-path="url(#clip940)" d="M151.339 300.247 Q147.728 300.247 145.899 303.812 Q144.093 307.354 144.093 314.483 Q144.093 321.59 145.899 325.154 Q147.728 328.696 151.339 328.696 Q154.973 328.696 156.779 325.154 Q158.607 321.59 158.607 314.483 Q158.607 307.354 156.779 303.812 Q154.973 300.247 151.339 300.247 M151.339 296.543 Q157.149 296.543 160.205 301.15 Q163.283 305.733 163.283 314.483 Q163.283 323.21 160.205 327.816 Q157.149 332.4 151.339 332.4 Q145.529 332.4 142.45 327.816 Q139.394 323.21 139.394 314.483 Q139.394 305.733 142.45 301.15 Q145.529 296.543 151.339 296.543 Z" fill="#000000" fill-rule="nonzero" fill-opacity="1"></path><path clip-path="url(#clip942)" d="M317.728 1420.96 L317.728 1423.18 L447.666 1423.18 L447.666 1420.96 L317.728 1420.96 L317.728 1420.96  Z" fill="#009af9" fill-rule="evenodd" fill-opacity="1"></path>
<polyline clip-path="url(#clip942)" style="stroke:#000000; stroke-linecap:round; stroke-linejoin:round; stroke-width:4; stroke-opacity:1; fill:none" points="317.728,1420.96 317.728,1423.18 447.666,1423.18 447.666,1420.96 317.728,1420.96 "></polyline>
<path clip-path="url(#clip942)" d="M480.15 1414.31 L480.15 1423.18 L610.088 1423.18 L610.088 1414.31 L480.15 1414.31 L480.15 1414.31  Z" fill="#009af9" fill-rule="evenodd" fill-opacity="1"></path>
<polyline clip-path="url(#clip942)" style="stroke:#000000; stroke-linecap:round; stroke-linejoin:round; stroke-width:4; stroke-opacity:1; fill:none" points="480.15,1414.31 480.15,1423.18 610.088,1423.18 610.088,1414.31 480.15,1414.31 "></polyline>
<path clip-path="url(#clip942)" d="M642.573 1415.42 L642.573 1423.18 L772.51 1423.18 L772.51 1415.42 L642.573 1415.42 L642.573 1415.42  Z" fill="#009af9" fill-rule="evenodd" fill-opacity="1"></path>
<polyline clip-path="url(#clip942)" style="stroke:#000000; stroke-linecap:round; stroke-linejoin:round; stroke-width:4; stroke-opacity:1; fill:none" points="642.573,1415.42 642.573,1423.18 772.51,1423.18 772.51,1415.42 642.573,1415.42 "></polyline>
<path clip-path="url(#clip942)" d="M804.995 1391.03 L804.995 1423.18 L934.933 1423.18 L934.933 1391.03 L804.995 1391.03 L804.995 1391.03  Z" fill="#009af9" fill-rule="evenodd" fill-opacity="1"></path>
<polyline clip-path="url(#clip942)" style="stroke:#000000; stroke-linecap:round; stroke-linejoin:round; stroke-width:4; stroke-opacity:1; fill:none" points="804.995,1391.03 804.995,1423.18 934.933,1423.18 934.933,1391.03 804.995,1391.03 "></polyline>
<path clip-path="url(#clip942)" d="M967.417 1362.2 L967.417 1423.18 L1097.36 1423.18 L1097.36 1362.2 L967.417 1362.2 L967.417 1362.2  Z" fill="#009af9" fill-rule="evenodd" fill-opacity="1"></path>
<polyline clip-path="url(#clip942)" style="stroke:#000000; stroke-linecap:round; stroke-linejoin:round; stroke-width:4; stroke-opacity:1; fill:none" points="967.417,1362.2 967.417,1423.18 1097.36,1423.18 1097.36,1362.2 967.417,1362.2 "></polyline>
<path clip-path="url(#clip942)" d="M1129.84 853.292 L1129.84 1423.18 L1259.78 1423.18 L1259.78 853.292 L1129.84 853.292 L1129.84 853.292  Z" fill="#009af9" fill-rule="evenodd" fill-opacity="1"></path>
<polyline clip-path="url(#clip942)" style="stroke:#000000; stroke-linecap:round; stroke-linejoin:round; stroke-width:4; stroke-opacity:1; fill:none" points="1129.84,853.292 1129.84,1423.18 1259.78,1423.18 1259.78,853.292 1129.84,853.292 "></polyline>
<path clip-path="url(#clip942)" d="M1292.26 47.2441 L1292.26 1423.18 L1422.2 1423.18 L1422.2 47.2441 L1292.26 47.2441 L1292.26 47.2441  Z" fill="#009af9" fill-rule="evenodd" fill-opacity="1"></path>
<polyline clip-path="url(#clip942)" style="stroke:#000000; stroke-linecap:round; stroke-linejoin:round; stroke-width:4; stroke-opacity:1; fill:none" points="1292.26,47.2441 1292.26,1423.18 1422.2,1423.18 1422.2,47.2441 1292.26,47.2441 "></polyline>
<path clip-path="url(#clip942)" d="M1454.68 69.4187 L1454.68 1423.18 L1584.62 1423.18 L1584.62 69.4187 L1454.68 69.4187 L1454.68 69.4187  Z" fill="#009af9" fill-rule="evenodd" fill-opacity="1"></path>
<polyline clip-path="url(#clip942)" style="stroke:#000000; stroke-linecap:round; stroke-linejoin:round; stroke-width:4; stroke-opacity:1; fill:none" points="1454.68,69.4187 1454.68,1423.18 1584.62,1423.18 1584.62,69.4187 1454.68,69.4187 "></polyline>
<path clip-path="url(#clip942)" d="M1617.11 698.069 L1617.11 1423.18 L1747.04 1423.18 L1747.04 698.069 L1617.11 698.069 L1617.11 698.069  Z" fill="#009af9" fill-rule="evenodd" fill-opacity="1"></path>
<polyline clip-path="url(#clip942)" style="stroke:#000000; stroke-linecap:round; stroke-linejoin:round; stroke-width:4; stroke-opacity:1; fill:none" points="1617.11,698.069 1617.11,1423.18 1747.04,1423.18 1747.04,698.069 1617.11,698.069 "></polyline>
<path clip-path="url(#clip942)" d="M1779.53 1300.11 L1779.53 1423.18 L1909.47 1423.18 L1909.47 1300.11 L1779.53 1300.11 L1779.53 1300.11  Z" fill="#009af9" fill-rule="evenodd" fill-opacity="1"></path>
<polyline clip-path="url(#clip942)" style="stroke:#000000; stroke-linecap:round; stroke-linejoin:round; stroke-width:4; stroke-opacity:1; fill:none" points="1779.53,1300.11 1779.53,1423.18 1909.47,1423.18 1909.47,1300.11 1779.53,1300.11 "></polyline>
<path clip-path="url(#clip942)" d="M1941.95 1412.09 L1941.95 1423.18 L2071.89 1423.18 L2071.89 1412.09 L1941.95 1412.09 L1941.95 1412.09  Z" fill="#009af9" fill-rule="evenodd" fill-opacity="1"></path>
<polyline clip-path="url(#clip942)" style="stroke:#000000; stroke-linecap:round; stroke-linejoin:round; stroke-width:4; stroke-opacity:1; fill:none" points="1941.95,1412.09 1941.95,1423.18 2071.89,1423.18 2071.89,1412.09 1941.95,1412.09 "></polyline>
<path clip-path="url(#clip942)" d="M2104.37 1422.07 L2104.37 1423.18 L2234.31 1423.18 L2234.31 1422.07 L2104.37 1422.07 L2104.37 1422.07  Z" fill="#009af9" fill-rule="evenodd" fill-opacity="1"></path>
<polyline clip-path="url(#clip942)" style="stroke:#000000; stroke-linecap:round; stroke-linejoin:round; stroke-width:4; stroke-opacity:1; fill:none" points="2104.37,1422.07 2104.37,1423.18 2234.31,1423.18 2234.31,1422.07 2104.37,1422.07 "></polyline>
<circle clip-path="url(#clip942)" style="fill:#009af9; stroke:none; fill-opacity:0" cx="382.697" cy="1420.96" r="2"></circle>
<circle clip-path="url(#clip942)" style="fill:#009af9; stroke:none; fill-opacity:0" cx="545.119" cy="1414.31" r="2"></circle>
<circle clip-path="url(#clip942)" style="fill:#009af9; stroke:none; fill-opacity:0" cx="707.542" cy="1415.42" r="2"></circle>
<circle clip-path="url(#clip942)" style="fill:#009af9; stroke:none; fill-opacity:0" cx="869.964" cy="1391.03" r="2"></circle>
<circle clip-path="url(#clip942)" style="fill:#009af9; stroke:none; fill-opacity:0" cx="1032.39" cy="1362.2" r="2"></circle>
<circle clip-path="url(#clip942)" style="fill:#009af9; stroke:none; fill-opacity:0" cx="1194.81" cy="853.292" r="2"></circle>
<circle clip-path="url(#clip942)" style="fill:#009af9; stroke:none; fill-opacity:0" cx="1357.23" cy="47.2441" r="2"></circle>
<circle clip-path="url(#clip942)" style="fill:#009af9; stroke:none; fill-opacity:0" cx="1519.65" cy="69.4187" r="2"></circle>
<circle clip-path="url(#clip942)" style="fill:#009af9; stroke:none; fill-opacity:0" cx="1682.08" cy="698.069" r="2"></circle>
<circle clip-path="url(#clip942)" style="fill:#009af9; stroke:none; fill-opacity:0" cx="1844.5" cy="1300.11" r="2"></circle>
<circle clip-path="url(#clip942)" style="fill:#009af9; stroke:none; fill-opacity:0" cx="2006.92" cy="1412.09" r="2"></circle>
<circle clip-path="url(#clip942)" style="fill:#009af9; stroke:none; fill-opacity:0" cx="2169.34" cy="1422.07" r="2"></circle>
<path clip-path="url(#clip940)" d="M1699.59 196.789 L2280.97 196.789 L2280.97 93.1086 L1699.59 93.1086  Z" fill="#ffffff" fill-rule="evenodd" fill-opacity="1"></path>
<polyline clip-path="url(#clip940)" style="stroke:#000000; stroke-linecap:round; stroke-linejoin:round; stroke-width:4; stroke-opacity:1; fill:none" points="1699.59,196.789 2280.97,196.789 2280.97,93.1086 1699.59,93.1086 1699.59,196.789 "></polyline>
<path clip-path="url(#clip940)" d="M1723.51 165.685 L1867.08 165.685 L1867.08 124.213 L1723.51 124.213 L1723.51 165.685  Z" fill="#009af9" fill-rule="evenodd" fill-opacity="1"></path>
<polyline clip-path="url(#clip940)" style="stroke:#000000; stroke-linecap:round; stroke-linejoin:round; stroke-width:4; stroke-opacity:1; fill:none" points="1723.51,165.685 1867.08,165.685 1867.08,124.213 1723.51,124.213 1723.51,165.685 "></polyline>
<path clip-path="url(#clip940)" d="M1891.01 127.669 L1897.3 127.669 L1912.63 156.581 L1912.63 127.669 L1917.16 127.669 L1917.16 162.229 L1910.87 162.229 L1895.54 133.317 L1895.54 162.229 L1891.01 162.229 L1891.01 127.669 Z" fill="#000000" fill-rule="nonzero" fill-opacity="1"></path><path clip-path="url(#clip940)" d="M1925.84 151.997 L1925.84 136.303 L1930.1 136.303 L1930.1 151.835 Q1930.1 155.516 1931.54 157.368 Q1932.97 159.196 1935.84 159.196 Q1939.29 159.196 1941.28 156.997 Q1943.3 154.798 1943.3 151.002 L1943.3 136.303 L1947.56 136.303 L1947.56 162.229 L1943.3 162.229 L1943.3 158.247 Q1941.75 160.608 1939.69 161.766 Q1937.65 162.9 1934.94 162.9 Q1930.47 162.9 1928.16 160.122 Q1925.84 157.344 1925.84 151.997 M1936.56 135.678 L1936.56 135.678 Z" fill="#000000" fill-rule="nonzero" fill-opacity="1"></path><path clip-path="url(#clip940)" d="M1976.52 141.28 Q1978.11 138.409 1980.33 137.044 Q1982.56 135.678 1985.57 135.678 Q1989.62 135.678 1991.82 138.525 Q1994.02 141.349 1994.02 146.581 L1994.02 162.229 L1989.73 162.229 L1989.73 146.719 Q1989.73 142.993 1988.41 141.187 Q1987.09 139.382 1984.39 139.382 Q1981.08 139.382 1979.15 141.581 Q1977.23 143.78 1977.23 147.576 L1977.23 162.229 L1972.95 162.229 L1972.95 146.719 Q1972.95 142.969 1971.63 141.187 Q1970.31 139.382 1967.56 139.382 Q1964.29 139.382 1962.37 141.604 Q1960.45 143.803 1960.45 147.576 L1960.45 162.229 L1956.17 162.229 L1956.17 136.303 L1960.45 136.303 L1960.45 140.331 Q1961.91 137.946 1963.95 136.812 Q1965.98 135.678 1968.78 135.678 Q1971.61 135.678 1973.58 137.113 Q1975.57 138.548 1976.52 141.28 Z" fill="#000000" fill-rule="nonzero" fill-opacity="1"></path><path clip-path="url(#clip940)" d="M2024.69 148.201 L2024.69 150.284 L2005.1 150.284 Q2005.38 154.682 2007.74 156.997 Q2010.13 159.289 2014.36 159.289 Q2016.82 159.289 2019.11 158.687 Q2021.42 158.085 2023.69 156.881 L2023.69 160.909 Q2021.4 161.881 2018.99 162.391 Q2016.58 162.9 2014.11 162.9 Q2007.9 162.9 2004.27 159.289 Q2000.66 155.678 2000.66 149.52 Q2000.66 143.155 2004.08 139.428 Q2007.53 135.678 2013.37 135.678 Q2018.6 135.678 2021.63 139.057 Q2024.69 142.414 2024.69 148.201 M2020.43 146.951 Q2020.38 143.456 2018.46 141.372 Q2016.56 139.289 2013.41 139.289 Q2009.85 139.289 2007.7 141.303 Q2005.57 143.317 2005.24 146.974 L2020.43 146.951 Z" fill="#000000" fill-rule="nonzero" fill-opacity="1"></path><path clip-path="url(#clip940)" d="M2046.7 140.284 Q2045.98 139.868 2045.13 139.682 Q2044.29 139.474 2043.27 139.474 Q2039.66 139.474 2037.72 141.835 Q2035.8 144.173 2035.8 148.571 L2035.8 162.229 L2031.51 162.229 L2031.51 136.303 L2035.8 136.303 L2035.8 140.331 Q2037.14 137.969 2039.29 136.835 Q2041.45 135.678 2044.52 135.678 Q2044.96 135.678 2045.5 135.747 Q2046.03 135.794 2046.68 135.909 L2046.7 140.284 Z" fill="#000000" fill-rule="nonzero" fill-opacity="1"></path><path clip-path="url(#clip940)" d="M2060.17 139.289 Q2056.75 139.289 2054.76 141.974 Q2052.76 144.636 2052.76 149.289 Q2052.76 153.942 2054.73 156.627 Q2056.72 159.289 2060.17 159.289 Q2063.57 159.289 2065.57 156.604 Q2067.56 153.918 2067.56 149.289 Q2067.56 144.682 2065.57 141.997 Q2063.57 139.289 2060.17 139.289 M2060.17 135.678 Q2065.73 135.678 2068.9 139.289 Q2072.07 142.9 2072.07 149.289 Q2072.07 155.655 2068.9 159.289 Q2065.73 162.9 2060.17 162.9 Q2054.59 162.9 2051.42 159.289 Q2048.27 155.655 2048.27 149.289 Q2048.27 142.9 2051.42 139.289 Q2054.59 135.678 2060.17 135.678 Z" fill="#000000" fill-rule="nonzero" fill-opacity="1"></path><path clip-path="url(#clip940)" d="M2094.2 136.303 L2098.46 136.303 L2098.46 162.229 L2094.2 162.229 L2094.2 136.303 M2094.2 126.21 L2098.46 126.21 L2098.46 131.604 L2094.2 131.604 L2094.2 126.21 Z" fill="#000000" fill-rule="nonzero" fill-opacity="1"></path><path clip-path="url(#clip940)" d="M2128.92 146.581 L2128.92 162.229 L2124.66 162.229 L2124.66 146.719 Q2124.66 143.039 2123.23 141.21 Q2121.79 139.382 2118.92 139.382 Q2115.47 139.382 2113.48 141.581 Q2111.49 143.78 2111.49 147.576 L2111.49 162.229 L2107.21 162.229 L2107.21 136.303 L2111.49 136.303 L2111.49 140.331 Q2113.02 137.993 2115.08 136.835 Q2117.16 135.678 2119.87 135.678 Q2124.34 135.678 2126.63 138.456 Q2128.92 141.21 2128.92 146.581 Z" fill="#000000" fill-rule="nonzero" fill-opacity="1"></path><path clip-path="url(#clip940)" d="M2156.07 137.298 L2156.07 141.28 Q2154.27 140.284 2152.44 139.798 Q2150.63 139.289 2148.78 139.289 Q2144.64 139.289 2142.35 141.928 Q2140.06 144.544 2140.06 149.289 Q2140.06 154.034 2142.35 156.673 Q2144.64 159.289 2148.78 159.289 Q2150.63 159.289 2152.44 158.803 Q2154.27 158.293 2156.07 157.298 L2156.07 161.233 Q2154.29 162.067 2152.37 162.483 Q2150.47 162.9 2148.32 162.9 Q2142.46 162.9 2139.01 159.219 Q2135.57 155.539 2135.57 149.289 Q2135.57 142.946 2139.04 139.312 Q2142.53 135.678 2148.6 135.678 Q2150.57 135.678 2152.44 136.095 Q2154.32 136.488 2156.07 137.298 Z" fill="#000000" fill-rule="nonzero" fill-opacity="1"></path><path clip-path="url(#clip940)" d="M2185.66 148.201 L2185.66 150.284 L2166.07 150.284 Q2166.35 154.682 2168.71 156.997 Q2171.1 159.289 2175.33 159.289 Q2177.79 159.289 2180.08 158.687 Q2182.39 158.085 2184.66 156.881 L2184.66 160.909 Q2182.37 161.881 2179.96 162.391 Q2177.56 162.9 2175.08 162.9 Q2168.88 162.9 2165.24 159.289 Q2161.63 155.678 2161.63 149.52 Q2161.63 143.155 2165.06 139.428 Q2168.5 135.678 2174.34 135.678 Q2179.57 135.678 2182.6 139.057 Q2185.66 142.414 2185.66 148.201 M2181.4 146.951 Q2181.35 143.456 2179.43 141.372 Q2177.53 139.289 2174.38 139.289 Q2170.82 139.289 2168.67 141.303 Q2166.54 143.317 2166.21 146.974 L2181.4 146.951 Z" fill="#000000" fill-rule="nonzero" fill-opacity="1"></path><path clip-path="url(#clip940)" d="M2214.2 146.581 L2214.2 162.229 L2209.94 162.229 L2209.94 146.719 Q2209.94 143.039 2208.5 141.21 Q2207.07 139.382 2204.2 139.382 Q2200.75 139.382 2198.76 141.581 Q2196.77 143.78 2196.77 147.576 L2196.77 162.229 L2192.49 162.229 L2192.49 136.303 L2196.77 136.303 L2196.77 140.331 Q2198.3 137.993 2200.36 136.835 Q2202.44 135.678 2205.15 135.678 Q2209.62 135.678 2211.91 138.456 Q2214.2 141.21 2214.2 146.581 Z" fill="#000000" fill-rule="nonzero" fill-opacity="1"></path><path clip-path="url(#clip940)" d="M2239.75 140.238 L2239.75 126.21 L2244.01 126.21 L2244.01 162.229 L2239.75 162.229 L2239.75 158.34 Q2238.41 160.655 2236.35 161.789 Q2234.31 162.9 2231.44 162.9 Q2226.75 162.9 2223.78 159.15 Q2220.84 155.4 2220.84 149.289 Q2220.84 143.178 2223.78 139.428 Q2226.75 135.678 2231.44 135.678 Q2234.31 135.678 2236.35 136.812 Q2238.41 137.923 2239.75 140.238 M2225.24 149.289 Q2225.24 153.988 2227.16 156.673 Q2229.11 159.335 2232.49 159.335 Q2235.87 159.335 2237.81 156.673 Q2239.75 153.988 2239.75 149.289 Q2239.75 144.59 2237.81 141.928 Q2235.87 139.243 2232.49 139.243 Q2229.11 139.243 2227.16 141.928 Q2225.24 144.59 2225.24 149.289 Z" fill="#000000" fill-rule="nonzero" fill-opacity="1"></path><path clip-path="url(#clip940)" d="M2252.79 136.303 L2257.05 136.303 L2257.05 162.229 L2252.79 162.229 L2252.79 136.303 M2252.79 126.21 L2257.05 126.21 L2257.05 131.604 L2252.79 131.604 L2252.79 126.21 Z" fill="#000000" fill-rule="nonzero" fill-opacity="1"></path></svg>