<svg xmlns="http://www.w3.org/2000/svg" xmlns:xlink="http://www.w3.org/1999/xlink" width="600" height="400" viewBox="0 0 2400 1600">
<defs>
  <clipPath id="clip720">
    <rect x="0" y="0" width="2400" height="1600"></rect>
  </clipPath>
</defs>
<path clip-path="url(#clip720)" d="M0 1600 L2400 1600 L2400 0 L0 0  Z" fill="#ffffff" fill-rule="evenodd" fill-opacity="1"></path>
<defs>
  <clipPath id="clip721">
    <rect x="480" y="0" width="1681" height="1600"></rect>
  </clipPath>
</defs>
<path clip-path="url(#clip720)" d="M219.033 1423.18 L2352.76 1423.18 L2352.76 123.472 L219.033 123.472  Z" fill="#ffffff" fill-rule="evenodd" fill-opacity="1"></path>
<defs>
  <clipPath id="clip722">
    <rect x="219" y="123" width="2135" height="1301"></rect>
  </clipPath>
</defs>
<polyline clip-path="url(#clip722)" style="stroke:#000000; stroke-linecap:round; stroke-linejoin:round; stroke-width:2; stroke-opacity:0.1; fill:none" points="238.341,1423.18 238.341,123.472 "></polyline>
<polyline clip-path="url(#clip722)" style="stroke:#000000; stroke-linecap:round; stroke-linejoin:round; stroke-width:2; stroke-opacity:0.1; fill:none" points="649.146,1423.18 649.146,123.472 "></polyline>
<polyline clip-path="url(#clip722)" style="stroke:#000000; stroke-linecap:round; stroke-linejoin:round; stroke-width:2; stroke-opacity:0.1; fill:none" points="1059.95,1423.18 1059.95,123.472 "></polyline>
<polyline clip-path="url(#clip722)" style="stroke:#000000; stroke-linecap:round; stroke-linejoin:round; stroke-width:2; stroke-opacity:0.1; fill:none" points="1470.76,1423.18 1470.76,123.472 "></polyline>
<polyline clip-path="url(#clip722)" style="stroke:#000000; stroke-linecap:round; stroke-linejoin:round; stroke-width:2; stroke-opacity:0.1; fill:none" points="1881.56,1423.18 1881.56,123.472 "></polyline>
<polyline clip-path="url(#clip722)" style="stroke:#000000; stroke-linecap:round; stroke-linejoin:round; stroke-width:2; stroke-opacity:0.1; fill:none" points="2292.37,1423.18 2292.37,123.472 "></polyline>
<polyline clip-path="url(#clip722)" style="stroke:#000000; stroke-linecap:round; stroke-linejoin:round; stroke-width:2; stroke-opacity:0.1; fill:none" points="219.033,1390.82 2352.76,1390.82 "></polyline>
<polyline clip-path="url(#clip722)" style="stroke:#000000; stroke-linecap:round; stroke-linejoin:round; stroke-width:2; stroke-opacity:0.1; fill:none" points="219.033,1051.68 2352.76,1051.68 "></polyline>
<polyline clip-path="url(#clip722)" style="stroke:#000000; stroke-linecap:round; stroke-linejoin:round; stroke-width:2; stroke-opacity:0.1; fill:none" points="219.033,712.547 2352.76,712.547 "></polyline>
<polyline clip-path="url(#clip722)" style="stroke:#000000; stroke-linecap:round; stroke-linejoin:round; stroke-width:2; stroke-opacity:0.1; fill:none" points="219.033,373.412 2352.76,373.412 "></polyline>
<polyline clip-path="url(#clip720)" style="stroke:#000000; stroke-linecap:round; stroke-linejoin:round; stroke-width:4; stroke-opacity:1; fill:none" points="219.033,1423.18 2352.76,1423.18 "></polyline>
<polyline clip-path="url(#clip720)" style="stroke:#000000; stroke-linecap:round; stroke-linejoin:round; stroke-width:4; stroke-opacity:1; fill:none" points="238.341,1423.18 238.341,1404.28 "></polyline>
<polyline clip-path="url(#clip720)" style="stroke:#000000; stroke-linecap:round; stroke-linejoin:round; stroke-width:4; stroke-opacity:1; fill:none" points="649.146,1423.18 649.146,1404.28 "></polyline>
<polyline clip-path="url(#clip720)" style="stroke:#000000; stroke-linecap:round; stroke-linejoin:round; stroke-width:4; stroke-opacity:1; fill:none" points="1059.95,1423.18 1059.95,1404.28 "></polyline>
<polyline clip-path="url(#clip720)" style="stroke:#000000; stroke-linecap:round; stroke-linejoin:round; stroke-width:4; stroke-opacity:1; fill:none" points="1470.76,1423.18 1470.76,1404.28 "></polyline>
<polyline clip-path="url(#clip720)" style="stroke:#000000; stroke-linecap:round; stroke-linejoin:round; stroke-width:4; stroke-opacity:1; fill:none" points="1881.56,1423.18 1881.56,1404.28 "></polyline>
<polyline clip-path="url(#clip720)" style="stroke:#000000; stroke-linecap:round; stroke-linejoin:round; stroke-width:4; stroke-opacity:1; fill:none" points="2292.37,1423.18 2292.37,1404.28 "></polyline>
<path clip-path="url(#clip720)" d="M238.341 1454.1 Q234.73 1454.1 232.901 1457.66 Q231.095 1461.2 231.095 1468.33 Q231.095 1475.44 232.901 1479.01 Q234.73 1482.55 238.341 1482.55 Q241.975 1482.55 243.781 1479.01 Q245.609 1475.44 245.609 1468.33 Q245.609 1461.2 243.781 1457.66 Q241.975 1454.1 238.341 1454.1 M238.341 1450.39 Q244.151 1450.39 247.206 1455 Q250.285 1459.58 250.285 1468.33 Q250.285 1477.06 247.206 1481.67 Q244.151 1486.25 238.341 1486.25 Q232.531 1486.25 229.452 1481.67 Q226.396 1477.06 226.396 1468.33 Q226.396 1459.58 229.452 1455 Q232.531 1450.39 238.341 1450.39 Z" fill="#000000" fill-rule="nonzero" fill-opacity="1"></path><path clip-path="url(#clip720)" d="M623.834 1481.64 L631.473 1481.64 L631.473 1455.28 L623.162 1456.95 L623.162 1452.69 L631.426 1451.02 L636.102 1451.02 L636.102 1481.64 L643.741 1481.64 L643.741 1485.58 L623.834 1485.58 L623.834 1481.64 Z" fill="#000000" fill-rule="nonzero" fill-opacity="1"></path><path clip-path="url(#clip720)" d="M663.185 1454.1 Q659.574 1454.1 657.746 1457.66 Q655.94 1461.2 655.94 1468.33 Q655.94 1475.44 657.746 1479.01 Q659.574 1482.55 663.185 1482.55 Q666.82 1482.55 668.625 1479.01 Q670.454 1475.44 670.454 1468.33 Q670.454 1461.2 668.625 1457.66 Q666.82 1454.1 663.185 1454.1 M663.185 1450.39 Q668.996 1450.39 672.051 1455 Q675.13 1459.58 675.13 1468.33 Q675.13 1477.06 672.051 1481.67 Q668.996 1486.25 663.185 1486.25 Q657.375 1486.25 654.297 1481.67 Q651.241 1477.06 651.241 1468.33 Q651.241 1459.58 654.297 1455 Q657.375 1450.39 663.185 1450.39 Z" fill="#000000" fill-rule="nonzero" fill-opacity="1"></path><path clip-path="url(#clip720)" d="M1038.72 1481.64 L1055.04 1481.64 L1055.04 1485.58 L1033.1 1485.58 L1033.1 1481.64 Q1035.76 1478.89 1040.35 1474.26 Q1044.95 1469.61 1046.13 1468.27 Q1048.38 1465.74 1049.26 1464.01 Q1050.16 1462.25 1050.16 1460.56 Q1050.16 1457.8 1048.22 1456.07 Q1046.29 1454.33 1043.19 1454.33 Q1040.99 1454.33 1038.54 1455.09 Q1036.11 1455.86 1033.33 1457.41 L1033.33 1452.69 Q1036.16 1451.55 1038.61 1450.97 Q1041.06 1450.39 1043.1 1450.39 Q1048.47 1450.39 1051.66 1453.08 Q1054.86 1455.77 1054.86 1460.26 Q1054.86 1462.39 1054.05 1464.31 Q1053.26 1466.2 1051.16 1468.8 Q1050.58 1469.47 1047.47 1472.69 Q1044.37 1475.88 1038.72 1481.64 Z" fill="#000000" fill-rule="nonzero" fill-opacity="1"></path><path clip-path="url(#clip720)" d="M1074.86 1454.1 Q1071.25 1454.1 1069.42 1457.66 Q1067.61 1461.2 1067.61 1468.33 Q1067.61 1475.44 1069.42 1479.01 Q1071.25 1482.55 1074.86 1482.55 Q1078.49 1482.55 1080.3 1479.01 Q1082.13 1475.44 1082.13 1468.33 Q1082.13 1461.2 1080.3 1457.66 Q1078.49 1454.1 1074.86 1454.1 M1074.86 1450.39 Q1080.67 1450.39 1083.72 1455 Q1086.8 1459.58 1086.8 1468.33 Q1086.8 1477.06 1083.72 1481.67 Q1080.67 1486.25 1074.86 1486.25 Q1069.05 1486.25 1065.97 1481.67 Q1062.91 1477.06 1062.91 1468.33 Q1062.91 1459.58 1065.97 1455 Q1069.05 1450.39 1074.86 1450.39 Z" fill="#000000" fill-rule="nonzero" fill-opacity="1"></path><path clip-path="url(#clip720)" d="M1459.6 1466.95 Q1462.96 1467.66 1464.83 1469.93 Q1466.73 1472.2 1466.73 1475.53 Q1466.73 1480.65 1463.21 1483.45 Q1459.69 1486.25 1453.21 1486.25 Q1451.03 1486.25 1448.72 1485.81 Q1446.43 1485.39 1443.97 1484.54 L1443.97 1480.02 Q1445.92 1481.16 1448.23 1481.74 Q1450.55 1482.32 1453.07 1482.32 Q1457.47 1482.32 1459.76 1480.58 Q1462.08 1478.84 1462.08 1475.53 Q1462.08 1472.48 1459.92 1470.77 Q1457.79 1469.03 1453.97 1469.03 L1449.95 1469.03 L1449.95 1465.19 L1454.16 1465.19 Q1457.61 1465.19 1459.44 1463.82 Q1461.27 1462.43 1461.27 1459.84 Q1461.27 1457.18 1459.37 1455.77 Q1457.49 1454.33 1453.97 1454.33 Q1452.05 1454.33 1449.85 1454.75 Q1447.66 1455.16 1445.02 1456.04 L1445.02 1451.88 Q1447.68 1451.14 1449.99 1450.77 Q1452.33 1450.39 1454.39 1450.39 Q1459.72 1450.39 1462.82 1452.83 Q1465.92 1455.23 1465.92 1459.35 Q1465.92 1462.22 1464.28 1464.21 Q1462.63 1466.18 1459.6 1466.95 Z" fill="#000000" fill-rule="nonzero" fill-opacity="1"></path><path clip-path="url(#clip720)" d="M1485.59 1454.1 Q1481.98 1454.1 1480.15 1457.66 Q1478.35 1461.2 1478.35 1468.33 Q1478.35 1475.44 1480.15 1479.01 Q1481.98 1482.55 1485.59 1482.55 Q1489.23 1482.55 1491.03 1479.01 Q1492.86 1475.44 1492.86 1468.33 Q1492.86 1461.2 1491.03 1457.66 Q1489.23 1454.1 1485.59 1454.1 M1485.59 1450.39 Q1491.4 1450.39 1494.46 1455 Q1497.54 1459.58 1497.54 1468.33 Q1497.54 1477.06 1494.46 1481.67 Q1491.4 1486.25 1485.59 1486.25 Q1479.78 1486.25 1476.71 1481.67 Q1473.65 1477.06 1473.65 1468.33 Q1473.65 1459.58 1476.71 1455 Q1479.78 1450.39 1485.59 1450.39 Z" fill="#000000" fill-rule="nonzero" fill-opacity="1"></path><path clip-path="url(#clip720)" d="M1869.73 1455.09 L1857.93 1473.54 L1869.73 1473.54 L1869.73 1455.09 M1868.51 1451.02 L1874.39 1451.02 L1874.39 1473.54 L1879.32 1473.54 L1879.32 1477.43 L1874.39 1477.43 L1874.39 1485.58 L1869.73 1485.58 L1869.73 1477.43 L1854.13 1477.43 L1854.13 1472.92 L1868.51 1451.02 Z" fill="#000000" fill-rule="nonzero" fill-opacity="1"></path><path clip-path="url(#clip720)" d="M1897.05 1454.1 Q1893.44 1454.1 1891.61 1457.66 Q1889.8 1461.2 1889.8 1468.33 Q1889.8 1475.44 1891.61 1479.01 Q1893.44 1482.55 1897.05 1482.55 Q1900.68 1482.55 1902.49 1479.01 Q1904.32 1475.44 1904.32 1468.33 Q1904.32 1461.2 1902.49 1457.66 Q1900.68 1454.1 1897.05 1454.1 M1897.05 1450.39 Q1902.86 1450.39 1905.91 1455 Q1908.99 1459.58 1908.99 1468.33 Q1908.99 1477.06 1905.91 1481.67 Q1902.86 1486.25 1897.05 1486.25 Q1891.24 1486.25 1888.16 1481.67 Q1885.1 1477.06 1885.1 1468.33 Q1885.1 1459.58 1888.16 1455 Q1891.24 1450.39 1897.05 1450.39 Z" fill="#000000" fill-rule="nonzero" fill-opacity="1"></path><path clip-path="url(#clip720)" d="M2267.07 1451.02 L2285.42 1451.02 L2285.42 1454.96 L2271.35 1454.96 L2271.35 1463.43 Q2272.37 1463.08 2273.39 1462.92 Q2274.4 1462.73 2275.42 1462.73 Q2281.21 1462.73 2284.59 1465.9 Q2287.97 1469.08 2287.97 1474.49 Q2287.97 1480.07 2284.5 1483.17 Q2281.02 1486.25 2274.71 1486.25 Q2272.53 1486.25 2270.26 1485.88 Q2268.02 1485.51 2265.61 1484.77 L2265.61 1480.07 Q2267.69 1481.2 2269.91 1481.76 Q2272.14 1482.32 2274.61 1482.32 Q2278.62 1482.32 2280.96 1480.21 Q2283.29 1478.1 2283.29 1474.49 Q2283.29 1470.88 2280.96 1468.77 Q2278.62 1466.67 2274.61 1466.67 Q2272.74 1466.67 2270.86 1467.08 Q2269.01 1467.5 2267.07 1468.38 L2267.07 1451.02 Z" fill="#000000" fill-rule="nonzero" fill-opacity="1"></path><path clip-path="url(#clip720)" d="M2307.18 1454.1 Q2303.57 1454.1 2301.74 1457.66 Q2299.94 1461.2 2299.94 1468.33 Q2299.94 1475.44 2301.74 1479.01 Q2303.57 1482.55 2307.18 1482.55 Q2310.82 1482.55 2312.62 1479.01 Q2314.45 1475.44 2314.45 1468.33 Q2314.45 1461.2 2312.62 1457.66 Q2310.82 1454.1 2307.18 1454.1 M2307.18 1450.39 Q2312.99 1450.39 2316.05 1455 Q2319.13 1459.58 2319.13 1468.33 Q2319.13 1477.06 2316.05 1481.67 Q2312.99 1486.25 2307.18 1486.25 Q2301.37 1486.25 2298.29 1481.67 Q2295.24 1477.06 2295.24 1468.33 Q2295.24 1459.58 2298.29 1455 Q2301.37 1450.39 2307.18 1450.39 Z" fill="#000000" fill-rule="nonzero" fill-opacity="1"></path><path clip-path="url(#clip720)" d="M1026.13 1539.24 Q1028.32 1535.29 1031.38 1533.41 Q1034.43 1531.54 1038.57 1531.54 Q1044.14 1531.54 1047.16 1535.45 Q1050.19 1539.33 1050.19 1546.53 L1050.19 1568.04 L1044.3 1568.04 L1044.3 1546.72 Q1044.3 1541.59 1042.49 1539.11 Q1040.67 1536.63 1036.95 1536.63 Q1032.4 1536.63 1029.75 1539.65 Q1027.11 1542.68 1027.11 1547.9 L1027.11 1568.04 L1021.22 1568.04 L1021.22 1546.72 Q1021.22 1541.56 1019.41 1539.11 Q1017.6 1536.63 1013.81 1536.63 Q1009.32 1536.63 1006.68 1539.68 Q1004.04 1542.71 1004.04 1547.9 L1004.04 1568.04 L998.149 1568.04 L998.149 1532.4 L1004.04 1532.4 L1004.04 1537.93 Q1006.04 1534.66 1008.84 1533.1 Q1011.64 1531.54 1015.5 1531.54 Q1019.38 1531.54 1022.08 1533.51 Q1024.82 1535.48 1026.13 1539.24 Z" fill="#000000" fill-rule="nonzero" fill-opacity="1"></path><path clip-path="url(#clip720)" d="M1061.87 1532.4 L1067.73 1532.4 L1067.73 1568.04 L1061.87 1568.04 L1061.87 1532.4 M1061.87 1518.52 L1067.73 1518.52 L1067.73 1525.93 L1061.87 1525.93 L1061.87 1518.52 Z" fill="#000000" fill-rule="nonzero" fill-opacity="1"></path><path clip-path="url(#clip720)" d="M1109.61 1546.53 L1109.61 1568.04 L1103.76 1568.04 L1103.76 1546.72 Q1103.76 1541.66 1101.78 1539.14 Q1099.81 1536.63 1095.86 1536.63 Q1091.12 1536.63 1088.38 1539.65 Q1085.65 1542.68 1085.65 1547.9 L1085.65 1568.04 L1079.76 1568.04 L1079.76 1532.4 L1085.65 1532.4 L1085.65 1537.93 Q1087.75 1534.72 1090.58 1533.13 Q1093.44 1531.54 1097.17 1531.54 Q1103.31 1531.54 1106.46 1535.36 Q1109.61 1539.14 1109.61 1546.53 Z" fill="#000000" fill-rule="nonzero" fill-opacity="1"></path><path clip-path="url(#clip720)" d="M1148.38 1578.87 L1148.38 1583.42 L1114.51 1583.42 L1114.51 1578.87 L1148.38 1578.87 Z" fill="#000000" fill-rule="nonzero" fill-opacity="1"></path><path clip-path="url(#clip720)" d="M1176.61 1533.45 L1176.61 1538.98 Q1174.13 1537.71 1171.45 1537.07 Q1168.78 1536.44 1165.92 1536.44 Q1161.56 1536.44 1159.36 1537.77 Q1157.2 1539.11 1157.2 1541.79 Q1157.2 1543.82 1158.76 1545 Q1160.31 1546.15 1165.03 1547.2 L1167.03 1547.64 Q1173.27 1548.98 1175.88 1551.43 Q1178.52 1553.85 1178.52 1558.21 Q1178.52 1563.17 1174.57 1566.07 Q1170.66 1568.97 1163.78 1568.97 Q1160.92 1568.97 1157.8 1568.39 Q1154.71 1567.85 1151.28 1566.74 L1151.28 1560.69 Q1154.52 1562.38 1157.67 1563.24 Q1160.82 1564.07 1163.91 1564.07 Q1168.05 1564.07 1170.28 1562.66 Q1172.51 1561.23 1172.51 1558.65 Q1172.51 1556.27 1170.88 1554.99 Q1169.29 1553.72 1163.85 1552.54 L1161.81 1552.07 Q1156.37 1550.92 1153.95 1548.56 Q1151.53 1546.18 1151.53 1542.04 Q1151.53 1537.01 1155.1 1534.27 Q1158.66 1531.54 1165.22 1531.54 Q1168.46 1531.54 1171.33 1532.01 Q1174.19 1532.49 1176.61 1533.45 Z" fill="#000000" fill-rule="nonzero" fill-opacity="1"></path><path clip-path="url(#clip720)" d="M1204.05 1550.12 Q1196.95 1550.12 1194.21 1551.75 Q1191.48 1553.37 1191.48 1557.29 Q1191.48 1560.4 1193.51 1562.25 Q1195.58 1564.07 1199.11 1564.07 Q1203.98 1564.07 1206.91 1560.63 Q1209.87 1557.16 1209.87 1551.43 L1209.87 1550.12 L1204.05 1550.12 M1215.73 1547.71 L1215.73 1568.04 L1209.87 1568.04 L1209.87 1562.63 Q1207.87 1565.88 1204.87 1567.44 Q1201.88 1568.97 1197.55 1568.97 Q1192.08 1568.97 1188.83 1565.91 Q1185.62 1562.82 1185.62 1557.67 Q1185.62 1551.65 1189.63 1548.6 Q1193.67 1545.54 1201.66 1545.54 L1209.87 1545.54 L1209.87 1544.97 Q1209.87 1540.93 1207.2 1538.73 Q1204.56 1536.5 1199.75 1536.5 Q1196.69 1536.5 1193.8 1537.23 Q1190.9 1537.97 1188.23 1539.43 L1188.23 1534.02 Q1191.44 1532.78 1194.47 1532.17 Q1197.49 1531.54 1200.36 1531.54 Q1208.09 1531.54 1211.91 1535.55 Q1215.73 1539.56 1215.73 1547.71 Z" fill="#000000" fill-rule="nonzero" fill-opacity="1"></path><path clip-path="url(#clip720)" d="M1255.55 1539.24 Q1257.74 1535.29 1260.8 1533.41 Q1263.85 1531.54 1267.99 1531.54 Q1273.56 1531.54 1276.58 1535.45 Q1279.61 1539.33 1279.61 1546.53 L1279.61 1568.04 L1273.72 1568.04 L1273.72 1546.72 Q1273.72 1541.59 1271.91 1539.11 Q1270.09 1536.63 1266.37 1536.63 Q1261.82 1536.63 1259.17 1539.65 Q1256.53 1542.68 1256.53 1547.9 L1256.53 1568.04 L1250.64 1568.04 L1250.64 1546.72 Q1250.64 1541.56 1248.83 1539.11 Q1247.02 1536.63 1243.23 1536.63 Q1238.74 1536.63 1236.1 1539.68 Q1233.46 1542.71 1233.46 1547.9 L1233.46 1568.04 L1227.57 1568.04 L1227.57 1532.4 L1233.46 1532.4 L1233.46 1537.93 Q1235.46 1534.66 1238.26 1533.1 Q1241.06 1531.54 1244.92 1531.54 Q1248.8 1531.54 1251.5 1533.51 Q1254.24 1535.48 1255.55 1539.24 Z" fill="#000000" fill-rule="nonzero" fill-opacity="1"></path><path clip-path="url(#clip720)" d="M1296.95 1562.7 L1296.95 1581.6 L1291.07 1581.6 L1291.07 1532.4 L1296.95 1532.4 L1296.95 1537.81 Q1298.8 1534.62 1301.6 1533.1 Q1304.43 1531.54 1308.35 1531.54 Q1314.84 1531.54 1318.88 1536.69 Q1322.96 1541.85 1322.96 1550.25 Q1322.96 1558.65 1318.88 1563.81 Q1314.84 1568.97 1308.35 1568.97 Q1304.43 1568.97 1301.6 1567.44 Q1298.8 1565.88 1296.95 1562.7 M1316.88 1550.25 Q1316.88 1543.79 1314.21 1540.13 Q1311.56 1536.44 1306.92 1536.44 Q1302.27 1536.44 1299.6 1540.13 Q1296.95 1543.79 1296.95 1550.25 Q1296.95 1556.71 1299.6 1560.4 Q1302.27 1564.07 1306.92 1564.07 Q1311.56 1564.07 1314.21 1560.4 Q1316.88 1556.71 1316.88 1550.25 Z" fill="#000000" fill-rule="nonzero" fill-opacity="1"></path><path clip-path="url(#clip720)" d="M1332.67 1518.52 L1338.52 1518.52 L1338.52 1568.04 L1332.67 1568.04 L1332.67 1518.52 Z" fill="#000000" fill-rule="nonzero" fill-opacity="1"></path><path clip-path="url(#clip720)" d="M1381.27 1548.76 L1381.27 1551.62 L1354.34 1551.62 Q1354.72 1557.67 1357.97 1560.85 Q1361.25 1564 1367.07 1564 Q1370.45 1564 1373.6 1563.17 Q1376.78 1562.35 1379.9 1560.69 L1379.9 1566.23 Q1376.75 1567.57 1373.44 1568.27 Q1370.13 1568.97 1366.72 1568.97 Q1358.19 1568.97 1353.2 1564 Q1348.23 1559.04 1348.23 1550.57 Q1348.23 1541.82 1352.94 1536.69 Q1357.68 1531.54 1365.7 1531.54 Q1372.9 1531.54 1377.07 1536.18 Q1381.27 1540.8 1381.27 1548.76 M1375.41 1547.04 Q1375.35 1542.23 1372.71 1539.37 Q1370.1 1536.5 1365.77 1536.5 Q1360.87 1536.5 1357.91 1539.27 Q1354.98 1542.04 1354.53 1547.07 L1375.41 1547.04 Z" fill="#000000" fill-rule="nonzero" fill-opacity="1"></path><path clip-path="url(#clip720)" d="M1413.61 1533.45 L1413.61 1538.98 Q1411.12 1537.71 1408.45 1537.07 Q1405.78 1536.44 1402.91 1536.44 Q1398.55 1536.44 1396.36 1537.77 Q1394.19 1539.11 1394.19 1541.79 Q1394.19 1543.82 1395.75 1545 Q1397.31 1546.15 1402.02 1547.2 L1404.03 1547.64 Q1410.26 1548.98 1412.87 1551.43 Q1415.52 1553.85 1415.52 1558.21 Q1415.52 1563.17 1411.57 1566.07 Q1407.65 1568.97 1400.78 1568.97 Q1397.91 1568.97 1394.8 1568.39 Q1391.71 1567.85 1388.27 1566.74 L1388.27 1560.69 Q1391.52 1562.38 1394.67 1563.24 Q1397.82 1564.07 1400.91 1564.07 Q1405.04 1564.07 1407.27 1562.66 Q1409.5 1561.23 1409.5 1558.65 Q1409.5 1556.27 1407.88 1554.99 Q1406.29 1553.72 1400.84 1552.54 L1398.81 1552.07 Q1393.36 1550.92 1390.94 1548.56 Q1388.53 1546.18 1388.53 1542.04 Q1388.53 1537.01 1392.09 1534.27 Q1395.66 1531.54 1402.21 1531.54 Q1405.46 1531.54 1408.32 1532.01 Q1411.19 1532.49 1413.61 1533.45 Z" fill="#000000" fill-rule="nonzero" fill-opacity="1"></path><path clip-path="url(#clip720)" d="M1451.93 1578.87 L1451.93 1583.42 L1418.06 1583.42 L1418.06 1578.87 L1451.93 1578.87 Z" fill="#000000" fill-rule="nonzero" fill-opacity="1"></path><path clip-path="url(#clip720)" d="M1457.43 1518.52 L1463.29 1518.52 L1463.29 1568.04 L1457.43 1568.04 L1457.43 1518.52 Z" fill="#000000" fill-rule="nonzero" fill-opacity="1"></path><path clip-path="url(#clip720)" d="M1506.04 1548.76 L1506.04 1551.62 L1479.11 1551.62 Q1479.49 1557.67 1482.74 1560.85 Q1486.02 1564 1491.84 1564 Q1495.21 1564 1498.37 1563.17 Q1501.55 1562.35 1504.67 1560.69 L1504.67 1566.23 Q1501.52 1567.57 1498.21 1568.27 Q1494.9 1568.97 1491.49 1568.97 Q1482.96 1568.97 1477.96 1564 Q1473 1559.04 1473 1550.57 Q1473 1541.82 1477.71 1536.69 Q1482.45 1531.54 1490.47 1531.54 Q1497.67 1531.54 1501.84 1536.18 Q1506.04 1540.8 1506.04 1548.76 M1500.18 1547.04 Q1500.12 1542.23 1497.47 1539.37 Q1494.86 1536.5 1490.54 1536.5 Q1485.63 1536.5 1482.67 1539.27 Q1479.75 1542.04 1479.3 1547.07 L1500.18 1547.04 Z" fill="#000000" fill-rule="nonzero" fill-opacity="1"></path><path clip-path="url(#clip720)" d="M1531.85 1550.12 Q1524.75 1550.12 1522.01 1551.75 Q1519.28 1553.37 1519.28 1557.29 Q1519.28 1560.4 1521.31 1562.25 Q1523.38 1564.07 1526.92 1564.07 Q1531.79 1564.07 1534.71 1560.63 Q1537.67 1557.16 1537.67 1551.43 L1537.67 1550.12 L1531.85 1550.12 M1543.53 1547.71 L1543.53 1568.04 L1537.67 1568.04 L1537.67 1562.63 Q1535.67 1565.88 1532.68 1567.44 Q1529.69 1568.97 1525.36 1568.97 Q1519.88 1568.97 1516.64 1565.91 Q1513.42 1562.82 1513.42 1557.67 Q1513.42 1551.65 1517.43 1548.6 Q1521.47 1545.54 1529.46 1545.54 L1537.67 1545.54 L1537.67 1544.97 Q1537.67 1540.93 1535 1538.73 Q1532.36 1536.5 1527.55 1536.5 Q1524.5 1536.5 1521.6 1537.23 Q1518.7 1537.97 1516.03 1539.43 L1516.03 1534.02 Q1519.25 1532.78 1522.27 1532.17 Q1525.29 1531.54 1528.16 1531.54 Q1535.89 1531.54 1539.71 1535.55 Q1543.53 1539.56 1543.53 1547.71 Z" fill="#000000" fill-rule="nonzero" fill-opacity="1"></path><path clip-path="url(#clip720)" d="M1573.64 1518.52 L1573.64 1523.39 L1568.04 1523.39 Q1564.89 1523.39 1563.65 1524.66 Q1562.44 1525.93 1562.44 1529.24 L1562.44 1532.4 L1572.08 1532.4 L1572.08 1536.95 L1562.44 1536.95 L1562.44 1568.04 L1556.55 1568.04 L1556.55 1536.95 L1550.95 1536.95 L1550.95 1532.4 L1556.55 1532.4 L1556.55 1529.91 Q1556.55 1523.96 1559.32 1521.26 Q1562.09 1518.52 1568.1 1518.52 L1573.64 1518.52 Z" fill="#000000" fill-rule="nonzero" fill-opacity="1"></path><polyline clip-path="url(#clip720)" style="stroke:#000000; stroke-linecap:round; stroke-linejoin:round; stroke-width:4; stroke-opacity:1; fill:none" points="219.033,1423.18 219.033,123.472 "></polyline>
<polyline clip-path="url(#clip720)" style="stroke:#000000; stroke-linecap:round; stroke-linejoin:round; stroke-width:4; stroke-opacity:1; fill:none" points="219.033,1390.82 237.931,1390.82 "></polyline>
<polyline clip-path="url(#clip720)" style="stroke:#000000; stroke-linecap:round; stroke-linejoin:round; stroke-width:4; stroke-opacity:1; fill:none" points="219.033,1051.68 237.931,1051.68 "></polyline>
<polyline clip-path="url(#clip720)" style="stroke:#000000; stroke-linecap:round; stroke-linejoin:round; stroke-width:4; stroke-opacity:1; fill:none" points="219.033,712.547 237.931,712.547 "></polyline>
<polyline clip-path="url(#clip720)" style="stroke:#000000; stroke-linecap:round; stroke-linejoin:round; stroke-width:4; stroke-opacity:1; fill:none" points="219.033,373.412 237.931,373.412 "></polyline>
<path clip-path="url(#clip720)" d="M126.853 1376.62 Q123.242 1376.62 121.413 1380.18 Q119.607 1383.72 119.607 1390.85 Q119.607 1397.96 121.413 1401.52 Q123.242 1405.06 126.853 1405.06 Q130.487 1405.06 132.292 1401.52 Q134.121 1397.96 134.121 1390.85 Q134.121 1383.72 132.292 1380.18 Q130.487 1376.62 126.853 1376.62 M126.853 1372.91 Q132.663 1372.91 135.718 1377.52 Q138.797 1382.1 138.797 1390.85 Q138.797 1399.58 135.718 1404.19 Q132.663 1408.77 126.853 1408.77 Q121.043 1408.77 117.964 1404.19 Q114.908 1399.58 114.908 1390.85 Q114.908 1382.1 117.964 1377.52 Q121.043 1372.91 126.853 1372.91 Z" fill="#000000" fill-rule="nonzero" fill-opacity="1"></path><path clip-path="url(#clip720)" d="M147.015 1402.22 L151.899 1402.22 L151.899 1408.1 L147.015 1408.1 L147.015 1402.22 Z" fill="#000000" fill-rule="nonzero" fill-opacity="1"></path><path clip-path="url(#clip720)" d="M162.13 1373.54 L180.487 1373.54 L180.487 1377.47 L166.413 1377.47 L166.413 1385.94 Q167.431 1385.6 168.45 1385.44 Q169.468 1385.25 170.487 1385.25 Q176.274 1385.25 179.653 1388.42 Q183.033 1391.59 183.033 1397.01 Q183.033 1402.59 179.561 1405.69 Q176.089 1408.77 169.769 1408.77 Q167.593 1408.77 165.325 1408.4 Q163.079 1408.03 160.672 1407.29 L160.672 1402.59 Q162.755 1403.72 164.977 1404.28 Q167.2 1404.83 169.677 1404.83 Q173.681 1404.83 176.019 1402.73 Q178.357 1400.62 178.357 1397.01 Q178.357 1393.4 176.019 1391.29 Q173.681 1389.19 169.677 1389.19 Q167.802 1389.19 165.927 1389.6 Q164.075 1390.02 162.13 1390.9 L162.13 1373.54 Z" fill="#000000" fill-rule="nonzero" fill-opacity="1"></path><path clip-path="url(#clip720)" d="M116.668 1065.03 L124.306 1065.03 L124.306 1038.66 L115.996 1040.33 L115.996 1036.07 L124.26 1034.4 L128.936 1034.4 L128.936 1065.03 L136.575 1065.03 L136.575 1068.96 L116.668 1068.96 L116.668 1065.03 Z" fill="#000000" fill-rule="nonzero" fill-opacity="1"></path><path clip-path="url(#clip720)" d="M146.019 1063.08 L150.903 1063.08 L150.903 1068.96 L146.019 1068.96 L146.019 1063.08 Z" fill="#000000" fill-rule="nonzero" fill-opacity="1"></path><path clip-path="url(#clip720)" d="M171.089 1037.48 Q167.477 1037.48 165.649 1041.05 Q163.843 1044.59 163.843 1051.72 Q163.843 1058.82 165.649 1062.39 Q167.477 1065.93 171.089 1065.93 Q174.723 1065.93 176.528 1062.39 Q178.357 1058.82 178.357 1051.72 Q178.357 1044.59 176.528 1041.05 Q174.723 1037.48 171.089 1037.48 M171.089 1033.78 Q176.899 1033.78 179.954 1038.38 Q183.033 1042.97 183.033 1051.72 Q183.033 1060.44 179.954 1065.05 Q176.899 1069.63 171.089 1069.63 Q165.278 1069.63 162.2 1065.05 Q159.144 1060.44 159.144 1051.72 Q159.144 1042.97 162.2 1038.38 Q165.278 1033.78 171.089 1033.78 Z" fill="#000000" fill-rule="nonzero" fill-opacity="1"></path><path clip-path="url(#clip720)" d="M117.663 725.892 L125.302 725.892 L125.302 699.526 L116.992 701.193 L116.992 696.933 L125.255 695.267 L129.931 695.267 L129.931 725.892 L137.57 725.892 L137.57 729.827 L117.663 729.827 L117.663 725.892 Z" fill="#000000" fill-rule="nonzero" fill-opacity="1"></path><path clip-path="url(#clip720)" d="M147.015 723.947 L151.899 723.947 L151.899 729.827 L147.015 729.827 L147.015 723.947 Z" fill="#000000" fill-rule="nonzero" fill-opacity="1"></path><path clip-path="url(#clip720)" d="M162.13 695.267 L180.487 695.267 L180.487 699.202 L166.413 699.202 L166.413 707.674 Q167.431 707.327 168.45 707.165 Q169.468 706.98 170.487 706.98 Q176.274 706.98 179.653 710.151 Q183.033 713.322 183.033 718.739 Q183.033 724.318 179.561 727.419 Q176.089 730.498 169.769 730.498 Q167.593 730.498 165.325 730.128 Q163.079 729.757 160.672 729.017 L160.672 724.318 Q162.755 725.452 164.977 726.007 Q167.2 726.563 169.677 726.563 Q173.681 726.563 176.019 724.456 Q178.357 722.35 178.357 718.739 Q178.357 715.128 176.019 713.021 Q173.681 710.915 169.677 710.915 Q167.802 710.915 165.927 711.332 Q164.075 711.748 162.13 712.628 L162.13 695.267 Z" fill="#000000" fill-rule="nonzero" fill-opacity="1"></path><path clip-path="url(#clip720)" d="M119.885 386.756 L136.204 386.756 L136.204 390.692 L114.26 390.692 L114.26 386.756 Q116.922 384.002 121.505 379.372 Q126.112 374.72 127.292 373.377 Q129.538 370.854 130.417 369.118 Q131.32 367.358 131.32 365.669 Q131.32 362.914 129.376 361.178 Q127.455 359.442 124.353 359.442 Q122.154 359.442 119.7 360.206 Q117.269 360.97 114.492 362.52 L114.492 357.798 Q117.316 356.664 119.769 356.085 Q122.223 355.507 124.26 355.507 Q129.63 355.507 132.825 358.192 Q136.019 360.877 136.019 365.368 Q136.019 367.497 135.209 369.419 Q134.422 371.317 132.316 373.909 Q131.737 374.581 128.635 377.798 Q125.533 380.993 119.885 386.756 Z" fill="#000000" fill-rule="nonzero" fill-opacity="1"></path><path clip-path="url(#clip720)" d="M146.019 384.812 L150.903 384.812 L150.903 390.692 L146.019 390.692 L146.019 384.812 Z" fill="#000000" fill-rule="nonzero" fill-opacity="1"></path><path clip-path="url(#clip720)" d="M171.089 359.21 Q167.477 359.21 165.649 362.775 Q163.843 366.317 163.843 373.446 Q163.843 380.553 165.649 384.118 Q167.477 387.659 171.089 387.659 Q174.723 387.659 176.528 384.118 Q178.357 380.553 178.357 373.446 Q178.357 366.317 176.528 362.775 Q174.723 359.21 171.089 359.21 M171.089 355.507 Q176.899 355.507 179.954 360.113 Q183.033 364.696 183.033 373.446 Q183.033 382.173 179.954 386.78 Q176.899 391.363 171.089 391.363 Q165.278 391.363 162.2 386.78 Q159.144 382.173 159.144 373.446 Q159.144 364.696 162.2 360.113 Q165.278 355.507 171.089 355.507 Z" fill="#000000" fill-rule="nonzero" fill-opacity="1"></path><path clip-path="url(#clip720)" d="M16.4842 908.597 L16.4842 902.168 L58.5933 902.168 L58.5933 879.029 L64.0042 879.029 L64.0042 908.597 L16.4842 908.597 Z" fill="#000000" fill-rule="nonzero" fill-opacity="1"></path><path clip-path="url(#clip720)" d="M32.4621 859.868 Q32.4621 864.578 36.1542 867.316 Q39.8145 870.053 46.212 870.053 Q52.6095 870.053 56.3017 867.347 Q59.9619 864.61 59.9619 859.868 Q59.9619 855.189 56.2698 852.452 Q52.5777 849.714 46.212 849.714 Q39.8781 849.714 36.186 852.452 Q32.4621 855.189 32.4621 859.868 M27.4968 859.868 Q27.4968 852.229 32.4621 847.868 Q37.4273 843.508 46.212 843.508 Q54.9649 843.508 59.9619 847.868 Q64.9272 852.229 64.9272 859.868 Q64.9272 867.538 59.9619 871.899 Q54.9649 876.228 46.212 876.228 Q37.4273 876.228 32.4621 871.899 Q27.4968 867.538 27.4968 859.868 Z" fill="#000000" fill-rule="nonzero" fill-opacity="1"></path><path clip-path="url(#clip720)" d="M45.7664 810.343 Q39.4007 810.343 35.8996 812.984 Q32.3984 815.594 32.3984 820.337 Q32.3984 825.047 35.8996 827.689 Q39.4007 830.299 45.7664 830.299 Q52.1003 830.299 55.6014 827.689 Q59.1026 825.047 59.1026 820.337 Q59.1026 815.594 55.6014 812.984 Q52.1003 810.343 45.7664 810.343 M59.58 804.486 Q68.683 804.486 73.1071 808.528 Q77.5631 812.571 77.5631 820.91 Q77.5631 823.997 77.0857 826.734 Q76.6401 829.472 75.6852 832.05 L69.9879 832.05 Q71.3884 829.472 72.0568 826.957 Q72.7252 824.443 72.7252 821.833 Q72.7252 816.072 69.7015 813.207 Q66.7096 810.343 60.6303 810.343 L57.7339 810.343 Q60.885 812.157 62.4446 814.99 Q64.0042 817.822 64.0042 821.769 Q64.0042 828.326 59.0071 832.336 Q54.01 836.346 45.7664 836.346 Q37.491 836.346 32.4939 832.336 Q27.4968 828.326 27.4968 821.769 Q27.4968 817.822 29.0564 814.99 Q30.616 812.157 33.7671 810.343 L28.3562 810.343 L28.3562 804.486 L59.58 804.486 Z" fill="#000000" fill-rule="nonzero" fill-opacity="1"></path><path clip-path="url(#clip720)" d="M16.4842 771.448 L16.4842 765.019 L58.5933 765.019 L58.5933 741.879 L64.0042 741.879 L64.0042 771.448 L16.4842 771.448 Z" fill="#000000" fill-rule="nonzero" fill-opacity="1"></path><path clip-path="url(#clip720)" d="M32.4621 722.719 Q32.4621 727.429 36.1542 730.166 Q39.8145 732.904 46.212 732.904 Q52.6095 732.904 56.3017 730.198 Q59.9619 727.461 59.9619 722.719 Q59.9619 718.04 56.2698 715.303 Q52.5777 712.565 46.212 712.565 Q39.8781 712.565 36.186 715.303 Q32.4621 718.04 32.4621 722.719 M27.4968 722.719 Q27.4968 715.08 32.4621 710.719 Q37.4273 706.359 46.212 706.359 Q54.9649 706.359 59.9619 710.719 Q64.9272 715.08 64.9272 722.719 Q64.9272 730.389 59.9619 734.75 Q54.9649 739.078 46.212 739.078 Q37.4273 739.078 32.4621 734.75 Q27.4968 730.389 27.4968 722.719 Z" fill="#000000" fill-rule="nonzero" fill-opacity="1"></path><path clip-path="url(#clip720)" d="M29.4065 673.925 L34.9447 673.925 Q33.6716 676.408 33.035 679.082 Q32.3984 681.755 32.3984 684.62 Q32.3984 688.98 33.7352 691.177 Q35.072 693.341 37.7456 693.341 Q39.7826 693.341 40.9603 691.781 Q42.1061 690.222 43.1565 685.511 L43.6021 683.506 Q44.9389 677.267 47.3897 674.658 Q49.8086 672.016 54.1691 672.016 Q59.1344 672.016 62.0308 675.963 Q64.9272 679.877 64.9272 686.752 Q64.9272 689.617 64.3543 692.736 Q63.8132 695.824 62.6992 699.261 L56.6518 699.261 Q58.3387 696.014 59.198 692.863 Q60.0256 689.712 60.0256 686.625 Q60.0256 682.487 58.6251 680.259 Q57.1929 678.031 54.6147 678.031 Q52.2276 678.031 50.9545 679.655 Q49.6813 681.246 48.5037 686.689 L48.0262 688.726 Q46.8804 694.168 44.5251 696.587 Q42.138 699.006 38.0002 699.006 Q32.9713 699.006 30.2341 695.442 Q27.4968 691.877 27.4968 685.32 Q27.4968 682.074 27.9743 679.209 Q28.4517 676.344 29.4065 673.925 Z" fill="#000000" fill-rule="nonzero" fill-opacity="1"></path><path clip-path="url(#clip720)" d="M29.4065 639.964 L34.9447 639.964 Q33.6716 642.447 33.035 645.121 Q32.3984 647.794 32.3984 650.659 Q32.3984 655.019 33.7352 657.215 Q35.072 659.38 37.7456 659.38 Q39.7826 659.38 40.9603 657.82 Q42.1061 656.261 43.1565 651.55 L43.6021 649.545 Q44.9389 643.306 47.3897 640.696 Q49.8086 638.055 54.1691 638.055 Q59.1344 638.055 62.0308 642.001 Q64.9272 645.916 64.9272 652.791 Q64.9272 655.656 64.3543 658.775 Q63.8132 661.862 62.6992 665.3 L56.6518 665.3 Q58.3387 662.053 59.198 658.902 Q60.0256 655.751 60.0256 652.664 Q60.0256 648.526 58.6251 646.298 Q57.1929 644.07 54.6147 644.07 Q52.2276 644.07 50.9545 645.694 Q49.6813 647.285 48.5037 652.728 L48.0262 654.765 Q46.8804 660.207 44.5251 662.626 Q42.138 665.045 38.0002 665.045 Q32.9713 665.045 30.2341 661.481 Q27.4968 657.916 27.4968 651.359 Q27.4968 648.113 27.9743 645.248 Q28.4517 642.383 29.4065 639.964 Z" fill="#000000" fill-rule="nonzero" fill-opacity="1"></path><path clip-path="url(#clip720)" d="M976.527 12.096 L984.71 12.096 L984.71 65.6895 L1014.16 65.6895 L1014.16 72.576 L976.527 72.576 L976.527 12.096 Z" fill="#000000" fill-rule="nonzero" fill-opacity="1"></path><path clip-path="url(#clip720)" d="M1059.77 48.0275 L1059.77 51.6733 L1025.5 51.6733 Q1025.99 59.3701 1030.12 63.421 Q1034.29 67.4314 1041.71 67.4314 Q1046 67.4314 1050.01 66.3781 Q1054.06 65.3249 1058.03 63.2184 L1058.03 70.267 Q1054.02 71.9684 1049.81 72.8596 Q1045.59 73.7508 1041.26 73.7508 Q1030.4 73.7508 1024.04 67.4314 Q1017.72 61.1119 1017.72 50.3365 Q1017.72 39.1965 1023.72 32.6746 Q1029.76 26.1121 1039.96 26.1121 Q1049.12 26.1121 1054.43 32.0264 Q1059.77 37.9003 1059.77 48.0275 M1052.32 45.84 Q1052.24 39.7232 1048.88 36.0774 Q1045.55 32.4315 1040.05 32.4315 Q1033.81 32.4315 1030.04 35.9558 Q1026.31 39.4801 1025.75 45.8805 L1052.32 45.84 Z" fill="#000000" fill-rule="nonzero" fill-opacity="1"></path><path clip-path="url(#clip720)" d="M1092.63 49.7694 Q1083.59 49.7694 1080.11 51.8354 Q1076.62 53.9013 1076.62 58.8839 Q1076.62 62.8538 1079.22 65.2034 Q1081.85 67.5124 1086.35 67.5124 Q1092.54 67.5124 1096.27 63.1374 Q1100.04 58.7219 1100.04 51.4303 L1100.04 49.7694 L1092.63 49.7694 M1107.49 46.6907 L1107.49 72.576 L1100.04 72.576 L1100.04 65.6895 Q1097.49 69.8214 1093.68 71.8063 Q1089.87 73.7508 1084.36 73.7508 Q1077.39 73.7508 1073.26 69.8619 Q1069.17 65.9325 1069.17 59.3701 Q1069.17 51.7138 1074.28 47.825 Q1079.42 43.9361 1089.59 43.9361 L1100.04 43.9361 L1100.04 43.2069 Q1100.04 38.0623 1096.64 35.2672 Q1093.27 32.4315 1087.16 32.4315 Q1083.27 32.4315 1079.58 33.3632 Q1075.9 34.295 1072.49 36.1584 L1072.49 29.2718 Q1076.58 27.692 1080.43 26.9223 Q1084.28 26.1121 1087.93 26.1121 Q1097.77 26.1121 1102.63 31.2163 Q1107.49 36.3204 1107.49 46.6907 Z" fill="#000000" fill-rule="nonzero" fill-opacity="1"></path><path clip-path="url(#clip720)" d="M1149.14 34.1734 Q1147.88 33.4443 1146.38 33.1202 Q1144.92 32.7556 1143.14 32.7556 Q1136.82 32.7556 1133.42 36.8875 Q1130.06 40.9789 1130.06 48.6757 L1130.06 72.576 L1122.56 72.576 L1122.56 27.2059 L1130.06 27.2059 L1130.06 34.2544 Q1132.41 30.1225 1136.17 28.1376 Q1139.94 26.1121 1145.33 26.1121 Q1146.1 26.1121 1147.03 26.2337 Q1147.96 26.3147 1149.1 26.5172 L1149.14 34.1734 Z" fill="#000000" fill-rule="nonzero" fill-opacity="1"></path><path clip-path="url(#clip720)" d="M1193.21 45.1919 L1193.21 72.576 L1185.76 72.576 L1185.76 45.4349 Q1185.76 38.994 1183.24 35.7938 Q1180.73 32.5936 1175.71 32.5936 Q1169.67 32.5936 1166.19 36.4419 Q1162.71 40.2903 1162.71 46.9338 L1162.71 72.576 L1155.21 72.576 L1155.21 27.2059 L1162.71 27.2059 L1162.71 34.2544 Q1165.38 30.163 1168.99 28.1376 Q1172.63 26.1121 1177.37 26.1121 Q1185.19 26.1121 1189.2 30.9732 Q1193.21 35.7938 1193.21 45.1919 Z" fill="#000000" fill-rule="nonzero" fill-opacity="1"></path><path clip-path="url(#clip720)" d="M1208.08 27.2059 L1215.53 27.2059 L1215.53 72.576 L1208.08 72.576 L1208.08 27.2059 M1208.08 9.54393 L1215.53 9.54393 L1215.53 18.9825 L1208.08 18.9825 L1208.08 9.54393 Z" fill="#000000" fill-rule="nonzero" fill-opacity="1"></path><path clip-path="url(#clip720)" d="M1268.84 45.1919 L1268.84 72.576 L1261.39 72.576 L1261.39 45.4349 Q1261.39 38.994 1258.87 35.7938 Q1256.36 32.5936 1251.34 32.5936 Q1245.3 32.5936 1241.82 36.4419 Q1238.34 40.2903 1238.34 46.9338 L1238.34 72.576 L1230.84 72.576 L1230.84 27.2059 L1238.34 27.2059 L1238.34 34.2544 Q1241.01 30.163 1244.62 28.1376 Q1248.26 26.1121 1253 26.1121 Q1260.82 26.1121 1264.83 30.9732 Q1268.84 35.7938 1268.84 45.1919 Z" fill="#000000" fill-rule="nonzero" fill-opacity="1"></path><path clip-path="url(#clip720)" d="M1313.56 49.3643 Q1313.56 41.2625 1310.2 36.8065 Q1306.88 32.3505 1300.84 32.3505 Q1294.85 32.3505 1291.48 36.8065 Q1288.16 41.2625 1288.16 49.3643 Q1288.16 57.4256 1291.48 61.8816 Q1294.85 66.3376 1300.84 66.3376 Q1306.88 66.3376 1310.2 61.8816 Q1313.56 57.4256 1313.56 49.3643 M1321.02 66.9452 Q1321.02 78.5308 1315.87 84.1616 Q1310.73 89.8329 1300.11 89.8329 Q1296.18 89.8329 1292.7 89.2252 Q1289.22 88.6581 1285.93 87.4428 L1285.93 80.1917 Q1289.22 81.9741 1292.42 82.8248 Q1295.62 83.6755 1298.94 83.6755 Q1306.27 83.6755 1309.92 79.8271 Q1313.56 76.0193 1313.56 68.282 L1313.56 64.5957 Q1311.25 68.6061 1307.65 70.5911 Q1304.04 72.576 1299.02 72.576 Q1290.67 72.576 1285.57 66.2161 Q1280.47 59.8562 1280.47 49.3643 Q1280.47 38.832 1285.57 32.472 Q1290.67 26.1121 1299.02 26.1121 Q1304.04 26.1121 1307.65 28.0971 Q1311.25 30.082 1313.56 34.0924 L1313.56 27.2059 L1321.02 27.2059 L1321.02 66.9452 Z" fill="#000000" fill-rule="nonzero" fill-opacity="1"></path><path clip-path="url(#clip720)" d="M1408.35 16.7545 L1408.35 25.383 Q1404.22 21.5346 1399.52 19.6307 Q1394.86 17.7268 1389.6 17.7268 Q1379.23 17.7268 1373.72 24.0867 Q1368.21 30.4061 1368.21 42.3968 Q1368.21 54.3469 1373.72 60.7069 Q1379.23 67.0263 1389.6 67.0263 Q1394.86 67.0263 1399.52 65.1223 Q1404.22 63.2184 1408.35 59.3701 L1408.35 67.9175 Q1404.06 70.8341 1399.24 72.2924 Q1394.46 73.7508 1389.11 73.7508 Q1375.38 73.7508 1367.48 65.3654 Q1359.58 56.9395 1359.58 42.3968 Q1359.58 27.8135 1367.48 19.4281 Q1375.38 11.0023 1389.11 11.0023 Q1394.54 11.0023 1399.32 12.4606 Q1404.14 13.8784 1408.35 16.7545 Z" fill="#000000" fill-rule="nonzero" fill-opacity="1"></path><path clip-path="url(#clip720)" d="M1419.9 54.671 L1419.9 27.2059 L1427.35 27.2059 L1427.35 54.3874 Q1427.35 60.8284 1429.86 64.0691 Q1432.38 67.2693 1437.4 67.2693 Q1443.43 67.2693 1446.92 63.421 Q1450.44 59.5726 1450.44 52.9291 L1450.44 27.2059 L1457.9 27.2059 L1457.9 72.576 L1450.44 72.576 L1450.44 65.6084 Q1447.73 69.7404 1444.12 71.7658 Q1440.56 73.7508 1435.82 73.7508 Q1428 73.7508 1423.95 68.8897 Q1419.9 64.0286 1419.9 54.671 M1438.65 26.1121 L1438.65 26.1121 Z" fill="#000000" fill-rule="nonzero" fill-opacity="1"></path><path clip-path="url(#clip720)" d="M1499.54 34.1734 Q1498.28 33.4443 1496.78 33.1202 Q1495.33 32.7556 1493.54 32.7556 Q1487.22 32.7556 1483.82 36.8875 Q1480.46 40.9789 1480.46 48.6757 L1480.46 72.576 L1472.97 72.576 L1472.97 27.2059 L1480.46 27.2059 L1480.46 34.2544 Q1482.81 30.1225 1486.58 28.1376 Q1490.34 26.1121 1495.73 26.1121 Q1496.5 26.1121 1497.43 26.2337 Q1498.36 26.3147 1499.5 26.5172 L1499.54 34.1734 Z" fill="#000000" fill-rule="nonzero" fill-opacity="1"></path><path clip-path="url(#clip720)" d="M1502.01 27.2059 L1509.91 27.2059 L1524.09 65.2844 L1538.27 27.2059 L1546.17 27.2059 L1529.15 72.576 L1519.02 72.576 L1502.01 27.2059 Z" fill="#000000" fill-rule="nonzero" fill-opacity="1"></path><path clip-path="url(#clip720)" d="M1595.26 48.0275 L1595.26 51.6733 L1560.99 51.6733 Q1561.48 59.3701 1565.61 63.421 Q1569.78 67.4314 1577.19 67.4314 Q1581.49 67.4314 1585.5 66.3781 Q1589.55 65.3249 1593.52 63.2184 L1593.52 70.267 Q1589.51 71.9684 1585.3 72.8596 Q1581.08 73.7508 1576.75 73.7508 Q1565.89 73.7508 1559.53 67.4314 Q1553.21 61.1119 1553.21 50.3365 Q1553.21 39.1965 1559.21 32.6746 Q1565.24 26.1121 1575.45 26.1121 Q1584.61 26.1121 1589.91 32.0264 Q1595.26 37.9003 1595.26 48.0275 M1587.81 45.84 Q1587.73 39.7232 1584.37 36.0774 Q1581.04 32.4315 1575.53 32.4315 Q1569.3 32.4315 1565.53 35.9558 Q1561.8 39.4801 1561.23 45.8805 L1587.81 45.84 Z" fill="#000000" fill-rule="nonzero" fill-opacity="1"></path><polyline clip-path="url(#clip722)" style="stroke:#009af9; stroke-linecap:round; stroke-linejoin:round; stroke-width:4; stroke-opacity:1; fill:none" points="279.421,1276.18 320.502,1386.4 361.582,1374.91 402.663,1302.77 443.743,1322.89 484.824,1284.33 525.905,1188.68 566.985,1227.6 608.066,1163.57 649.146,1127.94 690.227,1119.66 772.388,1058.71 854.549,1096.8 936.71,948.854 1018.87,791.475 1142.11,736.989 1265.35,601.833 1429.68,542.55 1594,263.44 1799.4,321.092 2045.88,160.256 2292.37,328.089 "></polyline>
<polyline clip-path="url(#clip722)" style="stroke:#e26f46; stroke-linecap:round; stroke-linejoin:round; stroke-width:4; stroke-opacity:1; fill:none" stroke-dasharray="16, 10" points="279.421,1174.79 2292.37,1174.79 "></polyline>
<path clip-path="url(#clip720)" d="M290.157 322.316 L1087.18 322.316 L1087.18 166.796 L290.157 166.796  Z" fill="#ffffff" fill-rule="evenodd" fill-opacity="1"></path>
<polyline clip-path="url(#clip720)" style="stroke:#000000; stroke-linecap:round; stroke-linejoin:round; stroke-width:4; stroke-opacity:1; fill:none" points="290.157,322.316 1087.18,322.316 1087.18,166.796 290.157,166.796 290.157,322.316 "></polyline>
<polyline clip-path="url(#clip720)" style="stroke:#009af9; stroke-linecap:round; stroke-linejoin:round; stroke-width:4; stroke-opacity:1; fill:none" points="313.865,218.636 456.113,218.636 "></polyline>
<path clip-path="url(#clip720)" d="M496.21 219.712 Q497.715 220.221 499.127 221.888 Q500.562 223.555 501.997 226.471 L506.742 235.916 L501.719 235.916 L497.298 227.05 Q495.585 223.578 493.965 222.444 Q492.368 221.309 489.59 221.309 L484.497 221.309 L484.497 235.916 L479.821 235.916 L479.821 201.356 L490.377 201.356 Q496.303 201.356 499.219 203.833 Q502.136 206.309 502.136 211.309 Q502.136 214.573 500.608 216.726 Q499.104 218.879 496.21 219.712 M484.497 205.198 L484.497 217.467 L490.377 217.467 Q493.756 217.467 495.469 215.916 Q497.205 214.342 497.205 211.309 Q497.205 208.277 495.469 206.749 Q493.756 205.198 490.377 205.198 L484.497 205.198 Z" fill="#000000" fill-rule="nonzero" fill-opacity="1"></path><path clip-path="url(#clip720)" d="M523.316 222.883 Q518.154 222.883 516.164 224.064 Q514.173 225.244 514.173 228.092 Q514.173 230.36 515.654 231.703 Q517.159 233.022 519.728 233.022 Q523.27 233.022 525.4 230.522 Q527.553 227.999 527.553 223.832 L527.553 222.883 L523.316 222.883 M531.812 221.124 L531.812 235.916 L527.553 235.916 L527.553 231.981 Q526.094 234.342 523.918 235.476 Q521.742 236.587 518.594 236.587 Q514.613 236.587 512.252 234.365 Q509.914 232.119 509.914 228.369 Q509.914 223.994 512.83 221.772 Q515.77 219.55 521.58 219.55 L527.553 219.55 L527.553 219.133 Q527.553 216.194 525.608 214.596 Q523.687 212.976 520.191 212.976 Q517.969 212.976 515.863 213.508 Q513.756 214.041 511.812 215.106 L511.812 211.17 Q514.15 210.268 516.349 209.828 Q518.548 209.365 520.631 209.365 Q526.256 209.365 529.034 212.282 Q531.812 215.198 531.812 221.124 Z" fill="#000000" fill-rule="nonzero" fill-opacity="1"></path><path clip-path="url(#clip720)" d="M562.136 220.268 L562.136 235.916 L557.876 235.916 L557.876 220.407 Q557.876 216.726 556.441 214.897 Q555.006 213.069 552.136 213.069 Q548.687 213.069 546.696 215.268 Q544.705 217.467 544.705 221.263 L544.705 235.916 L540.423 235.916 L540.423 209.99 L544.705 209.99 L544.705 214.018 Q546.233 211.68 548.293 210.522 Q550.376 209.365 553.085 209.365 Q557.552 209.365 559.844 212.143 Q562.136 214.897 562.136 220.268 Z" fill="#000000" fill-rule="nonzero" fill-opacity="1"></path><path clip-path="url(#clip720)" d="M587.691 213.925 L587.691 199.897 L591.95 199.897 L591.95 235.916 L587.691 235.916 L587.691 232.027 Q586.349 234.342 584.288 235.476 Q582.251 236.587 579.381 236.587 Q574.682 236.587 571.719 232.837 Q568.779 229.087 568.779 222.976 Q568.779 216.865 571.719 213.115 Q574.682 209.365 579.381 209.365 Q582.251 209.365 584.288 210.499 Q586.349 211.61 587.691 213.925 M573.177 222.976 Q573.177 227.675 575.099 230.36 Q577.043 233.022 580.423 233.022 Q583.802 233.022 585.747 230.36 Q587.691 227.675 587.691 222.976 Q587.691 218.277 585.747 215.615 Q583.802 212.93 580.423 212.93 Q577.043 212.93 575.099 215.615 Q573.177 218.277 573.177 222.976 Z" fill="#000000" fill-rule="nonzero" fill-opacity="1"></path><path clip-path="url(#clip720)" d="M610.77 212.976 Q607.344 212.976 605.353 215.661 Q603.362 218.323 603.362 222.976 Q603.362 227.629 605.33 230.314 Q607.321 232.976 610.77 232.976 Q614.172 232.976 616.163 230.291 Q618.154 227.606 618.154 222.976 Q618.154 218.37 616.163 215.684 Q614.172 212.976 610.77 212.976 M610.77 209.365 Q616.325 209.365 619.496 212.976 Q622.668 216.587 622.668 222.976 Q622.668 229.342 619.496 232.976 Q616.325 236.587 610.77 236.587 Q605.191 236.587 602.02 232.976 Q598.872 229.342 598.872 222.976 Q598.872 216.587 602.02 212.976 Q605.191 209.365 610.77 209.365 Z" fill="#000000" fill-rule="nonzero" fill-opacity="1"></path><path clip-path="url(#clip720)" d="M649.913 214.967 Q651.51 212.096 653.732 210.731 Q655.955 209.365 658.964 209.365 Q663.015 209.365 665.214 212.212 Q667.413 215.036 667.413 220.268 L667.413 235.916 L663.131 235.916 L663.131 220.407 Q663.131 216.68 661.811 214.874 Q660.492 213.069 657.783 213.069 Q654.473 213.069 652.552 215.268 Q650.631 217.467 650.631 221.263 L650.631 235.916 L646.348 235.916 L646.348 220.407 Q646.348 216.657 645.029 214.874 Q643.709 213.069 640.955 213.069 Q637.691 213.069 635.77 215.291 Q633.848 217.49 633.848 221.263 L633.848 235.916 L629.566 235.916 L629.566 209.99 L633.848 209.99 L633.848 214.018 Q635.307 211.633 637.344 210.499 Q639.381 209.365 642.182 209.365 Q645.006 209.365 646.973 210.8 Q648.964 212.235 649.913 214.967 Z" fill="#000000" fill-rule="nonzero" fill-opacity="1"></path><path clip-path="url(#clip720)" d="M691.163 201.356 L711.024 201.356 L711.024 205.291 L695.839 205.291 L695.839 215.476 L709.542 215.476 L709.542 219.411 L695.839 219.411 L695.839 235.916 L691.163 235.916 L691.163 201.356 Z" fill="#000000" fill-rule="nonzero" fill-opacity="1"></path><path clip-path="url(#clip720)" d="M726.602 212.976 Q723.176 212.976 721.186 215.661 Q719.195 218.323 719.195 222.976 Q719.195 227.629 721.163 230.314 Q723.153 232.976 726.602 232.976 Q730.005 232.976 731.996 230.291 Q733.987 227.606 733.987 222.976 Q733.987 218.37 731.996 215.684 Q730.005 212.976 726.602 212.976 M726.602 209.365 Q732.158 209.365 735.329 212.976 Q738.5 216.587 738.5 222.976 Q738.5 229.342 735.329 232.976 Q732.158 236.587 726.602 236.587 Q721.024 236.587 717.852 232.976 Q714.704 229.342 714.704 222.976 Q714.704 216.587 717.852 212.976 Q721.024 209.365 726.602 209.365 Z" fill="#000000" fill-rule="nonzero" fill-opacity="1"></path><path clip-path="url(#clip720)" d="M760.584 213.971 Q759.866 213.555 759.01 213.37 Q758.176 213.161 757.158 213.161 Q753.547 213.161 751.602 215.522 Q749.681 217.86 749.681 222.258 L749.681 235.916 L745.399 235.916 L745.399 209.99 L749.681 209.99 L749.681 214.018 Q751.024 211.657 753.176 210.522 Q755.329 209.365 758.408 209.365 Q758.848 209.365 759.38 209.434 Q759.912 209.481 760.561 209.596 L760.584 213.971 Z" fill="#000000" fill-rule="nonzero" fill-opacity="1"></path><path clip-path="url(#clip720)" d="M786.185 221.888 L786.185 223.971 L766.602 223.971 Q766.88 228.369 769.241 230.684 Q771.625 232.976 775.861 232.976 Q778.315 232.976 780.607 232.374 Q782.922 231.772 785.19 230.569 L785.19 234.596 Q782.898 235.568 780.491 236.078 Q778.084 236.587 775.607 236.587 Q769.403 236.587 765.769 232.976 Q762.158 229.365 762.158 223.207 Q762.158 216.842 765.584 213.115 Q769.033 209.365 774.866 209.365 Q780.097 209.365 783.13 212.745 Q786.185 216.101 786.185 221.888 M781.926 220.638 Q781.88 217.143 779.959 215.059 Q778.06 212.976 774.912 212.976 Q771.348 212.976 769.195 214.99 Q767.065 217.004 766.741 220.661 L781.926 220.638 Z" fill="#000000" fill-rule="nonzero" fill-opacity="1"></path><path clip-path="url(#clip720)" d="M809.704 210.754 L809.704 214.782 Q807.898 213.856 805.954 213.393 Q804.009 212.93 801.926 212.93 Q798.755 212.93 797.158 213.902 Q795.583 214.874 795.583 216.819 Q795.583 218.3 796.718 219.157 Q797.852 219.99 801.278 220.754 L802.736 221.078 Q807.273 222.05 809.171 223.832 Q811.093 225.592 811.093 228.763 Q811.093 232.374 808.222 234.481 Q805.375 236.587 800.375 236.587 Q798.292 236.587 796.023 236.17 Q793.778 235.777 791.278 234.967 L791.278 230.569 Q793.639 231.795 795.931 232.42 Q798.222 233.022 800.468 233.022 Q803.477 233.022 805.097 232.004 Q806.718 230.962 806.718 229.087 Q806.718 227.351 805.537 226.425 Q804.38 225.499 800.421 224.643 L798.94 224.295 Q794.982 223.462 793.222 221.749 Q791.463 220.013 791.463 217.004 Q791.463 213.346 794.056 211.356 Q796.648 209.365 801.417 209.365 Q803.778 209.365 805.861 209.712 Q807.945 210.059 809.704 210.754 Z" fill="#000000" fill-rule="nonzero" fill-opacity="1"></path><path clip-path="url(#clip720)" d="M822.088 202.629 L822.088 209.99 L830.861 209.99 L830.861 213.3 L822.088 213.3 L822.088 227.374 Q822.088 230.545 822.944 231.448 Q823.824 232.351 826.486 232.351 L830.861 232.351 L830.861 235.916 L826.486 235.916 Q821.556 235.916 819.681 234.087 Q817.806 232.235 817.806 227.374 L817.806 213.3 L814.681 213.3 L814.681 209.99 L817.806 209.99 L817.806 202.629 L822.088 202.629 Z" fill="#000000" fill-rule="nonzero" fill-opacity="1"></path><path clip-path="url(#clip720)" d="M877.597 204.018 L877.597 208.948 Q875.236 206.749 872.551 205.661 Q869.889 204.573 866.879 204.573 Q860.954 204.573 857.805 208.208 Q854.657 211.819 854.657 218.67 Q854.657 225.499 857.805 229.133 Q860.954 232.744 866.879 232.744 Q869.889 232.744 872.551 231.656 Q875.236 230.569 877.597 228.369 L877.597 233.254 Q875.143 234.92 872.389 235.754 Q869.657 236.587 866.602 236.587 Q858.754 236.587 854.241 231.795 Q849.727 226.981 849.727 218.67 Q849.727 210.337 854.241 205.546 Q858.754 200.731 866.602 200.731 Q869.703 200.731 872.435 201.564 Q875.19 202.374 877.597 204.018 Z" fill="#000000" fill-rule="nonzero" fill-opacity="1"></path><path clip-path="url(#clip720)" d="M884.634 199.897 L888.893 199.897 L888.893 235.916 L884.634 235.916 L884.634 199.897 Z" fill="#000000" fill-rule="nonzero" fill-opacity="1"></path><path clip-path="url(#clip720)" d="M909.588 222.883 Q904.426 222.883 902.435 224.064 Q900.444 225.244 900.444 228.092 Q900.444 230.36 901.926 231.703 Q903.43 233.022 906 233.022 Q909.541 233.022 911.671 230.522 Q913.824 227.999 913.824 223.832 L913.824 222.883 L909.588 222.883 M918.083 221.124 L918.083 235.916 L913.824 235.916 L913.824 231.981 Q912.365 234.342 910.189 235.476 Q908.013 236.587 904.865 236.587 Q900.884 236.587 898.523 234.365 Q896.185 232.119 896.185 228.369 Q896.185 223.994 899.101 221.772 Q902.041 219.55 907.851 219.55 L913.824 219.55 L913.824 219.133 Q913.824 216.194 911.879 214.596 Q909.958 212.976 906.463 212.976 Q904.24 212.976 902.134 213.508 Q900.027 214.041 898.083 215.106 L898.083 211.17 Q900.421 210.268 902.62 209.828 Q904.819 209.365 906.902 209.365 Q912.527 209.365 915.305 212.282 Q918.083 215.198 918.083 221.124 Z" fill="#000000" fill-rule="nonzero" fill-opacity="1"></path><path clip-path="url(#clip720)" d="M943.384 210.754 L943.384 214.782 Q941.578 213.856 939.634 213.393 Q937.689 212.93 935.606 212.93 Q932.435 212.93 930.837 213.902 Q929.263 214.874 929.263 216.819 Q929.263 218.3 930.398 219.157 Q931.532 219.99 934.958 220.754 L936.416 221.078 Q940.953 222.05 942.851 223.832 Q944.773 225.592 944.773 228.763 Q944.773 232.374 941.902 234.481 Q939.055 236.587 934.055 236.587 Q931.972 236.587 929.703 236.17 Q927.458 235.777 924.958 234.967 L924.958 230.569 Q927.319 231.795 929.611 232.42 Q931.902 233.022 934.148 233.022 Q937.157 233.022 938.777 232.004 Q940.398 230.962 940.398 229.087 Q940.398 227.351 939.217 226.425 Q938.06 225.499 934.101 224.643 L932.62 224.295 Q928.661 223.462 926.902 221.749 Q925.143 220.013 925.143 217.004 Q925.143 213.346 927.736 211.356 Q930.328 209.365 935.097 209.365 Q937.458 209.365 939.541 209.712 Q941.624 210.059 943.384 210.754 Z" fill="#000000" fill-rule="nonzero" fill-opacity="1"></path><path clip-path="url(#clip720)" d="M968.083 210.754 L968.083 214.782 Q966.277 213.856 964.333 213.393 Q962.388 212.93 960.305 212.93 Q957.134 212.93 955.536 213.902 Q953.962 214.874 953.962 216.819 Q953.962 218.3 955.097 219.157 Q956.231 219.99 959.657 220.754 L961.115 221.078 Q965.652 222.05 967.55 223.832 Q969.471 225.592 969.471 228.763 Q969.471 232.374 966.601 234.481 Q963.754 236.587 958.754 236.587 Q956.671 236.587 954.402 236.17 Q952.157 235.777 949.657 234.967 L949.657 230.569 Q952.018 231.795 954.309 232.42 Q956.601 233.022 958.847 233.022 Q961.856 233.022 963.476 232.004 Q965.096 230.962 965.096 229.087 Q965.096 227.351 963.916 226.425 Q962.759 225.499 958.8 224.643 L957.319 224.295 Q953.36 223.462 951.601 221.749 Q949.842 220.013 949.842 217.004 Q949.842 213.346 952.435 211.356 Q955.027 209.365 959.796 209.365 Q962.157 209.365 964.24 209.712 Q966.323 210.059 968.083 210.754 Z" fill="#000000" fill-rule="nonzero" fill-opacity="1"></path><path clip-path="url(#clip720)" d="M976.254 209.99 L980.513 209.99 L980.513 235.916 L976.254 235.916 L976.254 209.99 M976.254 199.897 L980.513 199.897 L980.513 205.291 L976.254 205.291 L976.254 199.897 Z" fill="#000000" fill-rule="nonzero" fill-opacity="1"></path><path clip-path="url(#clip720)" d="M1002.55 199.897 L1002.55 203.439 L998.476 203.439 Q996.184 203.439 995.282 204.365 Q994.402 205.291 994.402 207.698 L994.402 209.99 L1001.42 209.99 L1001.42 213.3 L994.402 213.3 L994.402 235.916 L990.119 235.916 L990.119 213.3 L986.045 213.3 L986.045 209.99 L990.119 209.99 L990.119 208.184 Q990.119 203.856 992.133 201.888 Q994.147 199.897 998.522 199.897 L1002.55 199.897 Z" fill="#000000" fill-rule="nonzero" fill-opacity="1"></path><path clip-path="url(#clip720)" d="M1006.11 209.99 L1010.37 209.99 L1010.37 235.916 L1006.11 235.916 L1006.11 209.99 M1006.11 199.897 L1010.37 199.897 L1010.37 205.291 L1006.11 205.291 L1006.11 199.897 Z" fill="#000000" fill-rule="nonzero" fill-opacity="1"></path><path clip-path="url(#clip720)" d="M1041.46 221.888 L1041.46 223.971 L1021.88 223.971 Q1022.16 228.369 1024.52 230.684 Q1026.9 232.976 1031.14 232.976 Q1033.59 232.976 1035.88 232.374 Q1038.2 231.772 1040.47 230.569 L1040.47 234.596 Q1038.17 235.568 1035.77 236.078 Q1033.36 236.587 1030.88 236.587 Q1024.68 236.587 1021.05 232.976 Q1017.43 229.365 1017.43 223.207 Q1017.43 216.842 1020.86 213.115 Q1024.31 209.365 1030.14 209.365 Q1035.37 209.365 1038.41 212.745 Q1041.46 216.101 1041.46 221.888 M1037.2 220.638 Q1037.16 217.143 1035.23 215.059 Q1033.34 212.976 1030.19 212.976 Q1026.62 212.976 1024.47 214.99 Q1022.34 217.004 1022.02 220.661 L1037.2 220.638 Z" fill="#000000" fill-rule="nonzero" fill-opacity="1"></path><path clip-path="url(#clip720)" d="M1063.48 213.971 Q1062.76 213.555 1061.9 213.37 Q1061.07 213.161 1060.05 213.161 Q1056.44 213.161 1054.49 215.522 Q1052.57 217.86 1052.57 222.258 L1052.57 235.916 L1048.29 235.916 L1048.29 209.99 L1052.57 209.99 L1052.57 214.018 Q1053.92 211.657 1056.07 210.522 Q1058.22 209.365 1061.3 209.365 Q1061.74 209.365 1062.27 209.434 Q1062.8 209.481 1063.45 209.596 L1063.48 213.971 Z" fill="#000000" fill-rule="nonzero" fill-opacity="1"></path><polyline clip-path="url(#clip720)" style="stroke:#e26f46; stroke-linecap:round; stroke-linejoin:round; stroke-width:4; stroke-opacity:1; fill:none" stroke-dasharray="16, 10" points="313.865,270.476 456.113,270.476 "></polyline>
<path clip-path="url(#clip720)" d="M507.692 255.858 L507.692 260.788 Q505.33 258.589 502.645 257.501 Q499.983 256.413 496.974 256.413 Q491.048 256.413 487.9 260.048 Q484.752 263.659 484.752 270.51 Q484.752 277.339 487.9 280.973 Q491.048 284.584 496.974 284.584 Q499.983 284.584 502.645 283.496 Q505.33 282.409 507.692 280.209 L507.692 285.094 Q505.238 286.76 502.483 287.594 Q499.752 288.427 496.696 288.427 Q488.849 288.427 484.335 283.635 Q479.821 278.821 479.821 270.51 Q479.821 262.177 484.335 257.386 Q488.849 252.571 496.696 252.571 Q499.798 252.571 502.53 253.404 Q505.284 254.214 507.692 255.858 Z" fill="#000000" fill-rule="nonzero" fill-opacity="1"></path><path clip-path="url(#clip720)" d="M524.775 264.816 Q521.349 264.816 519.358 267.501 Q517.367 270.163 517.367 274.816 Q517.367 279.469 519.335 282.154 Q521.326 284.816 524.775 284.816 Q528.178 284.816 530.168 282.131 Q532.159 279.446 532.159 274.816 Q532.159 270.21 530.168 267.524 Q528.178 264.816 524.775 264.816 M524.775 261.205 Q530.33 261.205 533.502 264.816 Q536.673 268.427 536.673 274.816 Q536.673 281.182 533.502 284.816 Q530.33 288.427 524.775 288.427 Q519.196 288.427 516.025 284.816 Q512.877 281.182 512.877 274.816 Q512.877 268.427 516.025 264.816 Q519.196 261.205 524.775 261.205 Z" fill="#000000" fill-rule="nonzero" fill-opacity="1"></path><path clip-path="url(#clip720)" d="M565.284 272.108 L565.284 287.756 L561.025 287.756 L561.025 272.247 Q561.025 268.566 559.589 266.737 Q558.154 264.909 555.284 264.909 Q551.835 264.909 549.844 267.108 Q547.853 269.307 547.853 273.103 L547.853 287.756 L543.571 287.756 L543.571 261.83 L547.853 261.83 L547.853 265.858 Q549.381 263.52 551.441 262.362 Q553.525 261.205 556.233 261.205 Q560.7 261.205 562.992 263.983 Q565.284 266.737 565.284 272.108 Z" fill="#000000" fill-rule="nonzero" fill-opacity="1"></path><path clip-path="url(#clip720)" d="M590.307 262.594 L590.307 266.622 Q588.501 265.696 586.557 265.233 Q584.612 264.77 582.529 264.77 Q579.358 264.77 577.761 265.742 Q576.187 266.714 576.187 268.659 Q576.187 270.14 577.321 270.997 Q578.455 271.83 581.881 272.594 L583.339 272.918 Q587.876 273.89 589.774 275.672 Q591.696 277.432 591.696 280.603 Q591.696 284.214 588.825 286.321 Q585.978 288.427 580.978 288.427 Q578.895 288.427 576.626 288.01 Q574.381 287.617 571.881 286.807 L571.881 282.409 Q574.242 283.635 576.534 284.26 Q578.825 284.862 581.071 284.862 Q584.08 284.862 585.7 283.844 Q587.321 282.802 587.321 280.927 Q587.321 279.191 586.14 278.265 Q584.983 277.339 581.024 276.483 L579.543 276.135 Q575.585 275.302 573.825 273.589 Q572.066 271.853 572.066 268.844 Q572.066 265.186 574.659 263.196 Q577.251 261.205 582.02 261.205 Q584.381 261.205 586.464 261.552 Q588.548 261.899 590.307 262.594 Z" fill="#000000" fill-rule="nonzero" fill-opacity="1"></path><path clip-path="url(#clip720)" d="M602.691 254.469 L602.691 261.83 L611.464 261.83 L611.464 265.14 L602.691 265.14 L602.691 279.214 Q602.691 282.385 603.547 283.288 Q604.427 284.191 607.089 284.191 L611.464 284.191 L611.464 287.756 L607.089 287.756 Q602.159 287.756 600.284 285.927 Q598.409 284.075 598.409 279.214 L598.409 265.14 L595.284 265.14 L595.284 261.83 L598.409 261.83 L598.409 254.469 L602.691 254.469 Z" fill="#000000" fill-rule="nonzero" fill-opacity="1"></path><path clip-path="url(#clip720)" d="M628.848 274.723 Q623.686 274.723 621.696 275.904 Q619.705 277.084 619.705 279.932 Q619.705 282.2 621.186 283.543 Q622.691 284.862 625.26 284.862 Q628.802 284.862 630.932 282.362 Q633.084 279.839 633.084 275.672 L633.084 274.723 L628.848 274.723 M637.344 272.964 L637.344 287.756 L633.084 287.756 L633.084 283.821 Q631.626 286.182 629.45 287.316 Q627.274 288.427 624.126 288.427 Q620.145 288.427 617.784 286.205 Q615.446 283.959 615.446 280.209 Q615.446 275.834 618.362 273.612 Q621.302 271.39 627.112 271.39 L633.084 271.39 L633.084 270.973 Q633.084 268.034 631.14 266.436 Q629.219 264.816 625.723 264.816 Q623.501 264.816 621.395 265.348 Q619.288 265.881 617.344 266.946 L617.344 263.01 Q619.682 262.108 621.881 261.668 Q624.08 261.205 626.163 261.205 Q631.788 261.205 634.566 264.122 Q637.344 267.038 637.344 272.964 Z" fill="#000000" fill-rule="nonzero" fill-opacity="1"></path><path clip-path="url(#clip720)" d="M667.668 272.108 L667.668 287.756 L663.408 287.756 L663.408 272.247 Q663.408 268.566 661.973 266.737 Q660.538 264.909 657.668 264.909 Q654.219 264.909 652.228 267.108 Q650.237 269.307 650.237 273.103 L650.237 287.756 L645.955 287.756 L645.955 261.83 L650.237 261.83 L650.237 265.858 Q651.765 263.52 653.825 262.362 Q655.908 261.205 658.617 261.205 Q663.084 261.205 665.376 263.983 Q667.668 266.737 667.668 272.108 Z" fill="#000000" fill-rule="nonzero" fill-opacity="1"></path><path clip-path="url(#clip720)" d="M680.376 254.469 L680.376 261.83 L689.149 261.83 L689.149 265.14 L680.376 265.14 L680.376 279.214 Q680.376 282.385 681.232 283.288 Q682.112 284.191 684.774 284.191 L689.149 284.191 L689.149 287.756 L684.774 287.756 Q679.843 287.756 677.968 285.927 Q676.093 284.075 676.093 279.214 L676.093 265.14 L672.968 265.14 L672.968 261.83 L676.093 261.83 L676.093 254.469 L680.376 254.469 Z" fill="#000000" fill-rule="nonzero" fill-opacity="1"></path><path clip-path="url(#clip720)" d="M735.885 255.858 L735.885 260.788 Q733.524 258.589 730.838 257.501 Q728.176 256.413 725.167 256.413 Q719.241 256.413 716.093 260.048 Q712.945 263.659 712.945 270.51 Q712.945 277.339 716.093 280.973 Q719.241 284.584 725.167 284.584 Q728.176 284.584 730.838 283.496 Q733.524 282.409 735.885 280.209 L735.885 285.094 Q733.431 286.76 730.676 287.594 Q727.945 288.427 724.889 288.427 Q717.042 288.427 712.528 283.635 Q708.015 278.821 708.015 270.51 Q708.015 262.177 712.528 257.386 Q717.042 252.571 724.889 252.571 Q727.991 252.571 730.723 253.404 Q733.477 254.214 735.885 255.858 Z" fill="#000000" fill-rule="nonzero" fill-opacity="1"></path><path clip-path="url(#clip720)" d="M742.922 251.737 L747.181 251.737 L747.181 287.756 L742.922 287.756 L742.922 251.737 Z" fill="#000000" fill-rule="nonzero" fill-opacity="1"></path><path clip-path="url(#clip720)" d="M767.875 274.723 Q762.713 274.723 760.723 275.904 Q758.732 277.084 758.732 279.932 Q758.732 282.2 760.213 283.543 Q761.718 284.862 764.287 284.862 Q767.829 284.862 769.959 282.362 Q772.111 279.839 772.111 275.672 L772.111 274.723 L767.875 274.723 M776.371 272.964 L776.371 287.756 L772.111 287.756 L772.111 283.821 Q770.653 286.182 768.477 287.316 Q766.301 288.427 763.153 288.427 Q759.172 288.427 756.811 286.205 Q754.473 283.959 754.473 280.209 Q754.473 275.834 757.389 273.612 Q760.329 271.39 766.139 271.39 L772.111 271.39 L772.111 270.973 Q772.111 268.034 770.167 266.436 Q768.246 264.816 764.75 264.816 Q762.528 264.816 760.422 265.348 Q758.315 265.881 756.371 266.946 L756.371 263.01 Q758.709 262.108 760.908 261.668 Q763.107 261.205 765.19 261.205 Q770.815 261.205 773.593 264.122 Q776.371 267.038 776.371 272.964 Z" fill="#000000" fill-rule="nonzero" fill-opacity="1"></path><path clip-path="url(#clip720)" d="M801.671 262.594 L801.671 266.622 Q799.866 265.696 797.921 265.233 Q795.977 264.77 793.894 264.77 Q790.722 264.77 789.125 265.742 Q787.551 266.714 787.551 268.659 Q787.551 270.14 788.685 270.997 Q789.82 271.83 793.246 272.594 L794.704 272.918 Q799.241 273.89 801.139 275.672 Q803.06 277.432 803.06 280.603 Q803.06 284.214 800.19 286.321 Q797.343 288.427 792.343 288.427 Q790.259 288.427 787.991 288.01 Q785.746 287.617 783.246 286.807 L783.246 282.409 Q785.607 283.635 787.898 284.26 Q790.19 284.862 792.435 284.862 Q795.445 284.862 797.065 283.844 Q798.685 282.802 798.685 280.927 Q798.685 279.191 797.505 278.265 Q796.347 277.339 792.389 276.483 L790.908 276.135 Q786.949 275.302 785.19 273.589 Q783.431 271.853 783.431 268.844 Q783.431 265.186 786.023 263.196 Q788.616 261.205 793.384 261.205 Q795.746 261.205 797.829 261.552 Q799.912 261.899 801.671 262.594 Z" fill="#000000" fill-rule="nonzero" fill-opacity="1"></path><path clip-path="url(#clip720)" d="M826.37 262.594 L826.37 266.622 Q824.565 265.696 822.62 265.233 Q820.676 264.77 818.593 264.77 Q815.421 264.77 813.824 265.742 Q812.25 266.714 812.25 268.659 Q812.25 270.14 813.384 270.997 Q814.519 271.83 817.944 272.594 L819.403 272.918 Q823.94 273.89 825.838 275.672 Q827.759 277.432 827.759 280.603 Q827.759 284.214 824.889 286.321 Q822.042 288.427 817.042 288.427 Q814.958 288.427 812.69 288.01 Q810.445 287.617 807.945 286.807 L807.945 282.409 Q810.306 283.635 812.597 284.26 Q814.889 284.862 817.134 284.862 Q820.144 284.862 821.764 283.844 Q823.384 282.802 823.384 280.927 Q823.384 279.191 822.204 278.265 Q821.046 277.339 817.088 276.483 L815.607 276.135 Q811.648 275.302 809.889 273.589 Q808.13 271.853 808.13 268.844 Q808.13 265.186 810.722 263.196 Q813.315 261.205 818.083 261.205 Q820.444 261.205 822.528 261.552 Q824.611 261.899 826.37 262.594 Z" fill="#000000" fill-rule="nonzero" fill-opacity="1"></path><path clip-path="url(#clip720)" d="M834.542 261.83 L838.801 261.83 L838.801 287.756 L834.542 287.756 L834.542 261.83 M834.542 251.737 L838.801 251.737 L838.801 257.131 L834.542 257.131 L834.542 251.737 Z" fill="#000000" fill-rule="nonzero" fill-opacity="1"></path><path clip-path="url(#clip720)" d="M860.838 251.737 L860.838 255.279 L856.764 255.279 Q854.472 255.279 853.569 256.205 Q852.69 257.131 852.69 259.538 L852.69 261.83 L859.704 261.83 L859.704 265.14 L852.69 265.14 L852.69 287.756 L848.407 287.756 L848.407 265.14 L844.333 265.14 L844.333 261.83 L848.407 261.83 L848.407 260.024 Q848.407 255.696 850.421 253.728 Q852.435 251.737 856.81 251.737 L860.838 251.737 Z" fill="#000000" fill-rule="nonzero" fill-opacity="1"></path><path clip-path="url(#clip720)" d="M864.403 261.83 L868.662 261.83 L868.662 287.756 L864.403 287.756 L864.403 261.83 M864.403 251.737 L868.662 251.737 L868.662 257.131 L864.403 257.131 L864.403 251.737 Z" fill="#000000" fill-rule="nonzero" fill-opacity="1"></path><path clip-path="url(#clip720)" d="M899.75 273.728 L899.75 275.811 L880.166 275.811 Q880.444 280.209 882.805 282.524 Q885.189 284.816 889.426 284.816 Q891.879 284.816 894.171 284.214 Q896.486 283.612 898.754 282.409 L898.754 286.436 Q896.463 287.408 894.055 287.918 Q891.648 288.427 889.171 288.427 Q882.967 288.427 879.333 284.816 Q875.722 281.205 875.722 275.047 Q875.722 268.682 879.148 264.955 Q882.597 261.205 888.43 261.205 Q893.662 261.205 896.694 264.585 Q899.75 267.941 899.75 273.728 M895.49 272.478 Q895.444 268.983 893.523 266.899 Q891.625 264.816 888.477 264.816 Q884.912 264.816 882.759 266.83 Q880.629 268.844 880.305 272.501 L895.49 272.478 Z" fill="#000000" fill-rule="nonzero" fill-opacity="1"></path><path clip-path="url(#clip720)" d="M921.763 265.811 Q921.046 265.395 920.189 265.21 Q919.356 265.001 918.337 265.001 Q914.726 265.001 912.782 267.362 Q910.861 269.7 910.861 274.098 L910.861 287.756 L906.578 287.756 L906.578 261.83 L910.861 261.83 L910.861 265.858 Q912.203 263.497 914.356 262.362 Q916.509 261.205 919.587 261.205 Q920.027 261.205 920.56 261.274 Q921.092 261.321 921.74 261.436 L921.763 265.811 Z" fill="#000000" fill-rule="nonzero" fill-opacity="1"></path></svg>