<svg xmlns="http://www.w3.org/2000/svg" xmlns:xlink="http://www.w3.org/1999/xlink" width="600" height="400" viewBox="0 0 2400 1600">
<defs>
  <clipPath id="clip470">
    <rect x="0" y="0" width="2400" height="1600"></rect>
  </clipPath>
</defs>
<path clip-path="url(#clip470)" d="M0 1600 L2400 1600 L2400 0 L0 0  Z" fill="#ffffff" fill-rule="evenodd" fill-opacity="1"></path>
<defs>
  <clipPath id="clip471">
    <rect x="480" y="0" width="1681" height="1600"></rect>
  </clipPath>
</defs>
<path clip-path="url(#clip470)" d="M219.866 1423.18 L2352.76 1423.18 L2352.76 123.472 L219.866 123.472  Z" fill="#ffffff" fill-rule="evenodd" fill-opacity="1"></path>
<defs>
  <clipPath id="clip472">
    <rect x="219" y="123" width="2134" height="1301"></rect>
  </clipPath>
</defs>
<polyline clip-path="url(#clip472)" style="stroke:#000000; stroke-linecap:round; stroke-linejoin:round; stroke-width:2; stroke-opacity:0.1; fill:none" points="557.77,1423.18 557.77,123.472 "></polyline>
<polyline clip-path="url(#clip472)" style="stroke:#000000; stroke-linecap:round; stroke-linejoin:round; stroke-width:2; stroke-opacity:0.1; fill:none" points="904.695,1423.18 904.695,123.472 "></polyline>
<polyline clip-path="url(#clip472)" style="stroke:#000000; stroke-linecap:round; stroke-linejoin:round; stroke-width:2; stroke-opacity:0.1; fill:none" points="1251.62,1423.18 1251.62,123.472 "></polyline>
<polyline clip-path="url(#clip472)" style="stroke:#000000; stroke-linecap:round; stroke-linejoin:round; stroke-width:2; stroke-opacity:0.1; fill:none" points="1598.54,1423.18 1598.54,123.472 "></polyline>
<polyline clip-path="url(#clip472)" style="stroke:#000000; stroke-linecap:round; stroke-linejoin:round; stroke-width:2; stroke-opacity:0.1; fill:none" points="1945.47,1423.18 1945.47,123.472 "></polyline>
<polyline clip-path="url(#clip472)" style="stroke:#000000; stroke-linecap:round; stroke-linejoin:round; stroke-width:2; stroke-opacity:0.1; fill:none" points="2292.39,1423.18 2292.39,123.472 "></polyline>
<polyline clip-path="url(#clip472)" style="stroke:#000000; stroke-linecap:round; stroke-linejoin:round; stroke-width:2; stroke-opacity:0.1; fill:none" points="219.866,1418.63 2352.76,1418.63 "></polyline>
<polyline clip-path="url(#clip472)" style="stroke:#000000; stroke-linecap:round; stroke-linejoin:round; stroke-width:2; stroke-opacity:0.1; fill:none" points="219.866,1175.94 2352.76,1175.94 "></polyline>
<polyline clip-path="url(#clip472)" style="stroke:#000000; stroke-linecap:round; stroke-linejoin:round; stroke-width:2; stroke-opacity:0.1; fill:none" points="219.866,933.242 2352.76,933.242 "></polyline>
<polyline clip-path="url(#clip472)" style="stroke:#000000; stroke-linecap:round; stroke-linejoin:round; stroke-width:2; stroke-opacity:0.1; fill:none" points="219.866,690.548 2352.76,690.548 "></polyline>
<polyline clip-path="url(#clip472)" style="stroke:#000000; stroke-linecap:round; stroke-linejoin:round; stroke-width:2; stroke-opacity:0.1; fill:none" points="219.866,447.854 2352.76,447.854 "></polyline>
<polyline clip-path="url(#clip472)" style="stroke:#000000; stroke-linecap:round; stroke-linejoin:round; stroke-width:2; stroke-opacity:0.1; fill:none" points="219.866,205.16 2352.76,205.16 "></polyline>
<polyline clip-path="url(#clip470)" style="stroke:#000000; stroke-linecap:round; stroke-linejoin:round; stroke-width:4; stroke-opacity:1; fill:none" points="219.866,1423.18 2352.76,1423.18 "></polyline>
<polyline clip-path="url(#clip470)" style="stroke:#000000; stroke-linecap:round; stroke-linejoin:round; stroke-width:4; stroke-opacity:1; fill:none" points="557.77,1423.18 557.77,1404.28 "></polyline>
<polyline clip-path="url(#clip470)" style="stroke:#000000; stroke-linecap:round; stroke-linejoin:round; stroke-width:4; stroke-opacity:1; fill:none" points="904.695,1423.18 904.695,1404.28 "></polyline>
<polyline clip-path="url(#clip470)" style="stroke:#000000; stroke-linecap:round; stroke-linejoin:round; stroke-width:4; stroke-opacity:1; fill:none" points="1251.62,1423.18 1251.62,1404.28 "></polyline>
<polyline clip-path="url(#clip470)" style="stroke:#000000; stroke-linecap:round; stroke-linejoin:round; stroke-width:4; stroke-opacity:1; fill:none" points="1598.54,1423.18 1598.54,1404.28 "></polyline>
<polyline clip-path="url(#clip470)" style="stroke:#000000; stroke-linecap:round; stroke-linejoin:round; stroke-width:4; stroke-opacity:1; fill:none" points="1945.47,1423.18 1945.47,1404.28 "></polyline>
<polyline clip-path="url(#clip470)" style="stroke:#000000; stroke-linecap:round; stroke-linejoin:round; stroke-width:4; stroke-opacity:1; fill:none" points="2292.39,1423.18 2292.39,1404.28 "></polyline>
<path clip-path="url(#clip470)" d="M548.048 1451.02 L566.405 1451.02 L566.405 1454.96 L552.331 1454.96 L552.331 1463.43 Q553.349 1463.08 554.368 1462.92 Q555.386 1462.73 556.405 1462.73 Q562.192 1462.73 565.571 1465.9 Q568.951 1469.08 568.951 1474.49 Q568.951 1480.07 565.479 1483.17 Q562.006 1486.25 555.687 1486.25 Q553.511 1486.25 551.243 1485.88 Q548.997 1485.51 546.59 1484.77 L546.59 1480.07 Q548.673 1481.2 550.895 1481.76 Q553.118 1482.32 555.594 1482.32 Q559.599 1482.32 561.937 1480.21 Q564.275 1478.1 564.275 1474.49 Q564.275 1470.88 561.937 1468.77 Q559.599 1466.67 555.594 1466.67 Q553.719 1466.67 551.844 1467.08 Q549.993 1467.5 548.048 1468.38 L548.048 1451.02 Z" fill="#000000" fill-rule="nonzero" fill-opacity="1"></path><path clip-path="url(#clip470)" d="M879.382 1481.64 L887.021 1481.64 L887.021 1455.28 L878.711 1456.95 L878.711 1452.69 L886.975 1451.02 L891.651 1451.02 L891.651 1481.64 L899.289 1481.64 L899.289 1485.58 L879.382 1485.58 L879.382 1481.64 Z" fill="#000000" fill-rule="nonzero" fill-opacity="1"></path><path clip-path="url(#clip470)" d="M918.734 1454.1 Q915.123 1454.1 913.294 1457.66 Q911.488 1461.2 911.488 1468.33 Q911.488 1475.44 913.294 1479.01 Q915.123 1482.55 918.734 1482.55 Q922.368 1482.55 924.174 1479.01 Q926.002 1475.44 926.002 1468.33 Q926.002 1461.2 924.174 1457.66 Q922.368 1454.1 918.734 1454.1 M918.734 1450.39 Q924.544 1450.39 927.599 1455 Q930.678 1459.58 930.678 1468.33 Q930.678 1477.06 927.599 1481.67 Q924.544 1486.25 918.734 1486.25 Q912.924 1486.25 909.845 1481.67 Q906.789 1477.06 906.789 1468.33 Q906.789 1459.58 909.845 1455 Q912.924 1450.39 918.734 1450.39 Z" fill="#000000" fill-rule="nonzero" fill-opacity="1"></path><path clip-path="url(#clip470)" d="M1226.8 1481.64 L1234.44 1481.64 L1234.44 1455.28 L1226.13 1456.95 L1226.13 1452.69 L1234.4 1451.02 L1239.07 1451.02 L1239.07 1481.64 L1246.71 1481.64 L1246.71 1485.58 L1226.8 1485.58 L1226.8 1481.64 Z" fill="#000000" fill-rule="nonzero" fill-opacity="1"></path><path clip-path="url(#clip470)" d="M1256.2 1451.02 L1274.56 1451.02 L1274.56 1454.96 L1260.48 1454.96 L1260.48 1463.43 Q1261.5 1463.08 1262.52 1462.92 Q1263.54 1462.73 1264.56 1462.73 Q1270.35 1462.73 1273.73 1465.9 Q1277.1 1469.08 1277.1 1474.49 Q1277.1 1480.07 1273.63 1483.17 Q1270.16 1486.25 1263.84 1486.25 Q1261.66 1486.25 1259.4 1485.88 Q1257.15 1485.51 1254.74 1484.77 L1254.74 1480.07 Q1256.83 1481.2 1259.05 1481.76 Q1261.27 1482.32 1263.75 1482.32 Q1267.75 1482.32 1270.09 1480.21 Q1272.43 1478.1 1272.43 1474.49 Q1272.43 1470.88 1270.09 1468.77 Q1267.75 1466.67 1263.75 1466.67 Q1261.87 1466.67 1260 1467.08 Q1258.15 1467.5 1256.2 1468.38 L1256.2 1451.02 Z" fill="#000000" fill-rule="nonzero" fill-opacity="1"></path><path clip-path="url(#clip470)" d="M1577.32 1481.64 L1593.64 1481.64 L1593.64 1485.58 L1571.69 1485.58 L1571.69 1481.64 Q1574.35 1478.89 1578.94 1474.26 Q1583.54 1469.61 1584.72 1468.27 Q1586.97 1465.74 1587.85 1464.01 Q1588.75 1462.25 1588.75 1460.56 Q1588.75 1457.8 1586.81 1456.07 Q1584.89 1454.33 1581.78 1454.33 Q1579.58 1454.33 1577.13 1455.09 Q1574.7 1455.86 1571.92 1457.41 L1571.92 1452.69 Q1574.75 1451.55 1577.2 1450.97 Q1579.65 1450.39 1581.69 1450.39 Q1587.06 1450.39 1590.26 1453.08 Q1593.45 1455.77 1593.45 1460.26 Q1593.45 1462.39 1592.64 1464.31 Q1591.85 1466.2 1589.75 1468.8 Q1589.17 1469.47 1586.07 1472.69 Q1582.96 1475.88 1577.32 1481.64 Z" fill="#000000" fill-rule="nonzero" fill-opacity="1"></path><path clip-path="url(#clip470)" d="M1613.45 1454.1 Q1609.84 1454.1 1608.01 1457.66 Q1606.2 1461.2 1606.2 1468.33 Q1606.2 1475.44 1608.01 1479.01 Q1609.84 1482.55 1613.45 1482.55 Q1617.08 1482.55 1618.89 1479.01 Q1620.72 1475.44 1620.72 1468.33 Q1620.72 1461.2 1618.89 1457.66 Q1617.08 1454.1 1613.45 1454.1 M1613.45 1450.39 Q1619.26 1450.39 1622.32 1455 Q1625.39 1459.58 1625.39 1468.33 Q1625.39 1477.06 1622.32 1481.67 Q1619.26 1486.25 1613.45 1486.25 Q1607.64 1486.25 1604.56 1481.67 Q1601.51 1477.06 1601.51 1468.33 Q1601.51 1459.58 1604.56 1455 Q1607.64 1450.39 1613.45 1450.39 Z" fill="#000000" fill-rule="nonzero" fill-opacity="1"></path><path clip-path="url(#clip470)" d="M1924.74 1481.64 L1941.06 1481.64 L1941.06 1485.58 L1919.11 1485.58 L1919.11 1481.64 Q1921.77 1478.89 1926.36 1474.26 Q1930.96 1469.61 1932.15 1468.27 Q1934.39 1465.74 1935.27 1464.01 Q1936.17 1462.25 1936.17 1460.56 Q1936.17 1457.8 1934.23 1456.07 Q1932.31 1454.33 1929.21 1454.33 Q1927.01 1454.33 1924.55 1455.09 Q1922.12 1455.86 1919.34 1457.41 L1919.34 1452.69 Q1922.17 1451.55 1924.62 1450.97 Q1927.08 1450.39 1929.11 1450.39 Q1934.48 1450.39 1937.68 1453.08 Q1940.87 1455.77 1940.87 1460.26 Q1940.87 1462.39 1940.06 1464.31 Q1939.27 1466.2 1937.17 1468.8 Q1936.59 1469.47 1933.49 1472.69 Q1930.39 1475.88 1924.74 1481.64 Z" fill="#000000" fill-rule="nonzero" fill-opacity="1"></path><path clip-path="url(#clip470)" d="M1950.92 1451.02 L1969.27 1451.02 L1969.27 1454.96 L1955.2 1454.96 L1955.2 1463.43 Q1956.22 1463.08 1957.24 1462.92 Q1958.26 1462.73 1959.27 1462.73 Q1965.06 1462.73 1968.44 1465.9 Q1971.82 1469.08 1971.82 1474.49 Q1971.82 1480.07 1968.35 1483.17 Q1964.88 1486.25 1958.56 1486.25 Q1956.38 1486.25 1954.11 1485.88 Q1951.87 1485.51 1949.46 1484.77 L1949.46 1480.07 Q1951.54 1481.2 1953.77 1481.76 Q1955.99 1482.32 1958.46 1482.32 Q1962.47 1482.32 1964.81 1480.21 Q1967.15 1478.1 1967.15 1474.49 Q1967.15 1470.88 1964.81 1468.77 Q1962.47 1466.67 1958.46 1466.67 Q1956.59 1466.67 1954.71 1467.08 Q1952.86 1467.5 1950.92 1468.38 L1950.92 1451.02 Z" fill="#000000" fill-rule="nonzero" fill-opacity="1"></path><path clip-path="url(#clip470)" d="M2281.23 1466.95 Q2284.59 1467.66 2286.47 1469.93 Q2288.36 1472.2 2288.36 1475.53 Q2288.36 1480.65 2284.84 1483.45 Q2281.33 1486.25 2274.84 1486.25 Q2272.67 1486.25 2270.35 1485.81 Q2268.06 1485.39 2265.61 1484.54 L2265.61 1480.02 Q2267.55 1481.16 2269.87 1481.74 Q2272.18 1482.32 2274.71 1482.32 Q2279.1 1482.32 2281.4 1480.58 Q2283.71 1478.84 2283.71 1475.53 Q2283.71 1472.48 2281.56 1470.77 Q2279.43 1469.03 2275.61 1469.03 L2271.58 1469.03 L2271.58 1465.19 L2275.79 1465.19 Q2279.24 1465.19 2281.07 1463.82 Q2282.9 1462.43 2282.9 1459.84 Q2282.9 1457.18 2281 1455.77 Q2279.13 1454.33 2275.61 1454.33 Q2273.69 1454.33 2271.49 1454.75 Q2269.29 1455.16 2266.65 1456.04 L2266.65 1451.88 Q2269.31 1451.14 2271.63 1450.77 Q2273.97 1450.39 2276.03 1450.39 Q2281.35 1450.39 2284.45 1452.83 Q2287.55 1455.23 2287.55 1459.35 Q2287.55 1462.22 2285.91 1464.21 Q2284.27 1466.18 2281.23 1466.95 Z" fill="#000000" fill-rule="nonzero" fill-opacity="1"></path><path clip-path="url(#clip470)" d="M2307.23 1454.1 Q2303.62 1454.1 2301.79 1457.66 Q2299.98 1461.2 2299.98 1468.33 Q2299.98 1475.44 2301.79 1479.01 Q2303.62 1482.55 2307.23 1482.55 Q2310.86 1482.55 2312.67 1479.01 Q2314.5 1475.44 2314.5 1468.33 Q2314.5 1461.2 2312.67 1457.66 Q2310.86 1454.1 2307.23 1454.1 M2307.23 1450.39 Q2313.04 1450.39 2316.09 1455 Q2319.17 1459.58 2319.17 1468.33 Q2319.17 1477.06 2316.09 1481.67 Q2313.04 1486.25 2307.23 1486.25 Q2301.42 1486.25 2298.34 1481.67 Q2295.28 1477.06 2295.28 1468.33 Q2295.28 1459.58 2298.34 1455 Q2301.42 1450.39 2307.23 1450.39 Z" fill="#000000" fill-rule="nonzero" fill-opacity="1"></path><path clip-path="url(#clip470)" d="M1133.44 1539.24 Q1135.63 1535.29 1138.69 1533.41 Q1141.75 1531.54 1145.88 1531.54 Q1151.45 1531.54 1154.48 1535.45 Q1157.5 1539.33 1157.5 1546.53 L1157.5 1568.04 L1151.61 1568.04 L1151.61 1546.72 Q1151.61 1541.59 1149.8 1539.11 Q1147.98 1536.63 1144.26 1536.63 Q1139.71 1536.63 1137.07 1539.65 Q1134.43 1542.68 1134.43 1547.9 L1134.43 1568.04 L1128.54 1568.04 L1128.54 1546.72 Q1128.54 1541.56 1126.72 1539.11 Q1124.91 1536.63 1121.12 1536.63 Q1116.63 1536.63 1113.99 1539.68 Q1111.35 1542.71 1111.35 1547.9 L1111.35 1568.04 L1105.46 1568.04 L1105.46 1532.4 L1111.35 1532.4 L1111.35 1537.93 Q1113.35 1534.66 1116.16 1533.1 Q1118.96 1531.54 1122.81 1531.54 Q1126.69 1531.54 1129.4 1533.51 Q1132.13 1535.48 1133.44 1539.24 Z" fill="#000000" fill-rule="nonzero" fill-opacity="1"></path><path clip-path="url(#clip470)" d="M1185.38 1550.12 Q1178.29 1550.12 1175.55 1551.75 Q1172.81 1553.37 1172.81 1557.29 Q1172.81 1560.4 1174.85 1562.25 Q1176.92 1564.07 1180.45 1564.07 Q1185.32 1564.07 1188.25 1560.63 Q1191.21 1557.16 1191.21 1551.43 L1191.21 1550.12 L1185.38 1550.12 M1197.06 1547.71 L1197.06 1568.04 L1191.21 1568.04 L1191.21 1562.63 Q1189.2 1565.88 1186.21 1567.44 Q1183.22 1568.97 1178.89 1568.97 Q1173.42 1568.97 1170.17 1565.91 Q1166.95 1562.82 1166.95 1557.67 Q1166.95 1551.65 1170.96 1548.6 Q1175.01 1545.54 1183 1545.54 L1191.21 1545.54 L1191.21 1544.97 Q1191.21 1540.93 1188.53 1538.73 Q1185.89 1536.5 1181.09 1536.5 Q1178.03 1536.5 1175.13 1537.23 Q1172.24 1537.97 1169.56 1539.43 L1169.56 1534.02 Q1172.78 1532.78 1175.8 1532.17 Q1178.83 1531.54 1181.69 1531.54 Q1189.43 1531.54 1193.24 1535.55 Q1197.06 1539.56 1197.06 1547.71 Z" fill="#000000" fill-rule="nonzero" fill-opacity="1"></path><path clip-path="url(#clip470)" d="M1238.76 1532.4 L1225.87 1549.74 L1239.43 1568.04 L1232.52 1568.04 L1222.14 1554.04 L1211.77 1568.04 L1204.86 1568.04 L1218.71 1549.39 L1206.04 1532.4 L1212.95 1532.4 L1222.4 1545.1 L1231.85 1532.4 L1238.76 1532.4 Z" fill="#000000" fill-rule="nonzero" fill-opacity="1"></path><path clip-path="url(#clip470)" d="M1274.79 1578.87 L1274.79 1583.42 L1240.92 1583.42 L1240.92 1578.87 L1274.79 1578.87 Z" fill="#000000" fill-rule="nonzero" fill-opacity="1"></path><path clip-path="url(#clip470)" d="M1286.98 1525.81 L1286.98 1562.76 L1294.75 1562.76 Q1304.58 1562.76 1309.13 1558.3 Q1313.72 1553.85 1313.72 1544.24 Q1313.72 1534.69 1309.13 1530.26 Q1304.58 1525.81 1294.75 1525.81 L1286.98 1525.81 M1280.55 1520.52 L1293.76 1520.52 Q1307.57 1520.52 1314.03 1526.28 Q1320.49 1532.01 1320.49 1544.24 Q1320.49 1556.52 1314 1562.28 Q1307.51 1568.04 1293.76 1568.04 L1280.55 1568.04 L1280.55 1520.52 Z" fill="#000000" fill-rule="nonzero" fill-opacity="1"></path><path clip-path="url(#clip470)" d="M1360.98 1548.76 L1360.98 1551.62 L1334.05 1551.62 Q1334.44 1557.67 1337.68 1560.85 Q1340.96 1564 1346.79 1564 Q1350.16 1564 1353.31 1563.17 Q1356.49 1562.35 1359.61 1560.69 L1359.61 1566.23 Q1356.46 1567.57 1353.15 1568.27 Q1349.84 1568.97 1346.44 1568.97 Q1337.91 1568.97 1332.91 1564 Q1327.94 1559.04 1327.94 1550.57 Q1327.94 1541.82 1332.65 1536.69 Q1337.4 1531.54 1345.42 1531.54 Q1352.61 1531.54 1356.78 1536.18 Q1360.98 1540.8 1360.98 1548.76 M1355.12 1547.04 Q1355.06 1542.23 1352.42 1539.37 Q1349.81 1536.5 1345.48 1536.5 Q1340.58 1536.5 1337.62 1539.27 Q1334.69 1542.04 1334.24 1547.07 L1355.12 1547.04 Z" fill="#000000" fill-rule="nonzero" fill-opacity="1"></path><path clip-path="url(#clip470)" d="M1376.26 1562.7 L1376.26 1581.6 L1370.37 1581.6 L1370.37 1532.4 L1376.26 1532.4 L1376.26 1537.81 Q1378.1 1534.62 1380.91 1533.1 Q1383.74 1531.54 1387.65 1531.54 Q1394.15 1531.54 1398.19 1536.69 Q1402.26 1541.85 1402.26 1550.25 Q1402.26 1558.65 1398.19 1563.81 Q1394.15 1568.97 1387.65 1568.97 Q1383.74 1568.97 1380.91 1567.44 Q1378.1 1565.88 1376.26 1562.7 M1396.18 1550.25 Q1396.18 1543.79 1393.51 1540.13 Q1390.87 1536.44 1386.22 1536.44 Q1381.57 1536.44 1378.9 1540.13 Q1376.26 1543.79 1376.26 1550.25 Q1376.26 1556.71 1378.9 1560.4 Q1381.57 1564.07 1386.22 1564.07 Q1390.87 1564.07 1393.51 1560.4 Q1396.18 1556.71 1396.18 1550.25 Z" fill="#000000" fill-rule="nonzero" fill-opacity="1"></path><path clip-path="url(#clip470)" d="M1417.76 1522.27 L1417.76 1532.4 L1429.83 1532.4 L1429.83 1536.95 L1417.76 1536.95 L1417.76 1556.3 Q1417.76 1560.66 1418.94 1561.9 Q1420.15 1563.14 1423.81 1563.14 L1429.83 1563.14 L1429.83 1568.04 L1423.81 1568.04 Q1417.03 1568.04 1414.45 1565.53 Q1411.87 1562.98 1411.87 1556.3 L1411.87 1536.95 L1407.58 1536.95 L1407.58 1532.4 L1411.87 1532.4 L1411.87 1522.27 L1417.76 1522.27 Z" fill="#000000" fill-rule="nonzero" fill-opacity="1"></path><path clip-path="url(#clip470)" d="M1467.16 1546.53 L1467.16 1568.04 L1461.3 1568.04 L1461.3 1546.72 Q1461.3 1541.66 1459.33 1539.14 Q1457.36 1536.63 1453.41 1536.63 Q1448.67 1536.63 1445.93 1539.65 Q1443.19 1542.68 1443.19 1547.9 L1443.19 1568.04 L1437.31 1568.04 L1437.31 1518.52 L1443.19 1518.52 L1443.19 1537.93 Q1445.29 1534.72 1448.13 1533.13 Q1450.99 1531.54 1454.72 1531.54 Q1460.86 1531.54 1464.01 1535.36 Q1467.16 1539.14 1467.16 1546.53 Z" fill="#000000" fill-rule="nonzero" fill-opacity="1"></path><polyline clip-path="url(#clip470)" style="stroke:#000000; stroke-linecap:round; stroke-linejoin:round; stroke-width:4; stroke-opacity:1; fill:none" points="219.866,1423.18 219.866,123.472 "></polyline>
<polyline clip-path="url(#clip470)" style="stroke:#000000; stroke-linecap:round; stroke-linejoin:round; stroke-width:4; stroke-opacity:1; fill:none" points="219.866,1418.63 238.764,1418.63 "></polyline>
<polyline clip-path="url(#clip470)" style="stroke:#000000; stroke-linecap:round; stroke-linejoin:round; stroke-width:4; stroke-opacity:1; fill:none" points="219.866,1175.94 238.764,1175.94 "></polyline>
<polyline clip-path="url(#clip470)" style="stroke:#000000; stroke-linecap:round; stroke-linejoin:round; stroke-width:4; stroke-opacity:1; fill:none" points="219.866,933.242 238.764,933.242 "></polyline>
<polyline clip-path="url(#clip470)" style="stroke:#000000; stroke-linecap:round; stroke-linejoin:round; stroke-width:4; stroke-opacity:1; fill:none" points="219.866,690.548 238.764,690.548 "></polyline>
<polyline clip-path="url(#clip470)" style="stroke:#000000; stroke-linecap:round; stroke-linejoin:round; stroke-width:4; stroke-opacity:1; fill:none" points="219.866,447.854 238.764,447.854 "></polyline>
<polyline clip-path="url(#clip470)" style="stroke:#000000; stroke-linecap:round; stroke-linejoin:round; stroke-width:4; stroke-opacity:1; fill:none" points="219.866,205.16 238.764,205.16 "></polyline>
<path clip-path="url(#clip470)" d="M127.339 1404.43 Q123.728 1404.43 121.899 1407.99 Q120.093 1411.53 120.093 1418.66 Q120.093 1425.77 121.899 1429.34 Q123.728 1432.88 127.339 1432.88 Q130.973 1432.88 132.779 1429.34 Q134.607 1425.77 134.607 1418.66 Q134.607 1411.53 132.779 1407.99 Q130.973 1404.43 127.339 1404.43 M127.339 1400.72 Q133.149 1400.72 136.204 1405.33 Q139.283 1409.91 139.283 1418.66 Q139.283 1427.39 136.204 1432 Q133.149 1436.58 127.339 1436.58 Q121.529 1436.58 118.45 1432 Q115.394 1427.39 115.394 1418.66 Q115.394 1409.91 118.45 1405.33 Q121.529 1400.72 127.339 1400.72 Z" fill="#000000" fill-rule="nonzero" fill-opacity="1"></path><path clip-path="url(#clip470)" d="M147.501 1430.03 L152.385 1430.03 L152.385 1435.91 L147.501 1435.91 L147.501 1430.03 Z" fill="#000000" fill-rule="nonzero" fill-opacity="1"></path><path clip-path="url(#clip470)" d="M176.737 1417.28 Q180.093 1417.99 181.968 1420.26 Q183.866 1422.53 183.866 1425.86 Q183.866 1430.98 180.348 1433.78 Q176.829 1436.58 170.348 1436.58 Q168.172 1436.58 165.857 1436.14 Q163.565 1435.72 161.112 1434.87 L161.112 1430.35 Q163.056 1431.49 165.371 1432.07 Q167.686 1432.65 170.209 1432.65 Q174.607 1432.65 176.899 1430.91 Q179.214 1429.17 179.214 1425.86 Q179.214 1422.81 177.061 1421.09 Q174.931 1419.36 171.112 1419.36 L167.084 1419.36 L167.084 1415.52 L171.297 1415.52 Q174.746 1415.52 176.575 1414.15 Q178.403 1412.76 178.403 1410.17 Q178.403 1407.51 176.505 1406.09 Q174.63 1404.66 171.112 1404.66 Q169.19 1404.66 166.991 1405.08 Q164.792 1405.49 162.153 1406.37 L162.153 1402.21 Q164.815 1401.46 167.13 1401.09 Q169.468 1400.72 171.528 1400.72 Q176.852 1400.72 179.954 1403.15 Q183.056 1405.56 183.056 1409.68 Q183.056 1412.55 181.413 1414.54 Q179.769 1416.51 176.737 1417.28 Z" fill="#000000" fill-rule="nonzero" fill-opacity="1"></path><path clip-path="url(#clip470)" d="M126.205 1161.73 Q122.593 1161.73 120.765 1165.3 Q118.959 1168.84 118.959 1175.97 Q118.959 1183.08 120.765 1186.64 Q122.593 1190.18 126.205 1190.18 Q129.839 1190.18 131.644 1186.64 Q133.473 1183.08 133.473 1175.97 Q133.473 1168.84 131.644 1165.3 Q129.839 1161.73 126.205 1161.73 M126.205 1158.03 Q132.015 1158.03 135.07 1162.64 Q138.149 1167.22 138.149 1175.97 Q138.149 1184.7 135.07 1189.3 Q132.015 1193.89 126.205 1193.89 Q120.394 1193.89 117.316 1189.3 Q114.26 1184.7 114.26 1175.97 Q114.26 1167.22 117.316 1162.64 Q120.394 1158.03 126.205 1158.03 Z" fill="#000000" fill-rule="nonzero" fill-opacity="1"></path><path clip-path="url(#clip470)" d="M146.366 1187.34 L151.251 1187.34 L151.251 1193.22 L146.366 1193.22 L146.366 1187.34 Z" fill="#000000" fill-rule="nonzero" fill-opacity="1"></path><path clip-path="url(#clip470)" d="M174.283 1162.73 L162.477 1181.18 L174.283 1181.18 L174.283 1162.73 M173.056 1158.66 L178.936 1158.66 L178.936 1181.18 L183.866 1181.18 L183.866 1185.07 L178.936 1185.07 L178.936 1193.22 L174.283 1193.22 L174.283 1185.07 L158.681 1185.07 L158.681 1180.55 L173.056 1158.66 Z" fill="#000000" fill-rule="nonzero" fill-opacity="1"></path><path clip-path="url(#clip470)" d="M127.686 919.04 Q124.075 919.04 122.246 922.605 Q120.441 926.147 120.441 933.276 Q120.441 940.383 122.246 943.948 Q124.075 947.489 127.686 947.489 Q131.32 947.489 133.126 943.948 Q134.954 940.383 134.954 933.276 Q134.954 926.147 133.126 922.605 Q131.32 919.04 127.686 919.04 M127.686 915.337 Q133.496 915.337 136.552 919.943 Q139.63 924.526 139.63 933.276 Q139.63 942.003 136.552 946.61 Q133.496 951.193 127.686 951.193 Q121.876 951.193 118.797 946.61 Q115.742 942.003 115.742 933.276 Q115.742 924.526 118.797 919.943 Q121.876 915.337 127.686 915.337 Z" fill="#000000" fill-rule="nonzero" fill-opacity="1"></path><path clip-path="url(#clip470)" d="M147.848 944.642 L152.732 944.642 L152.732 950.522 L147.848 950.522 L147.848 944.642 Z" fill="#000000" fill-rule="nonzero" fill-opacity="1"></path><path clip-path="url(#clip470)" d="M162.964 915.962 L181.32 915.962 L181.32 919.897 L167.246 919.897 L167.246 928.369 Q168.264 928.022 169.283 927.86 Q170.302 927.674 171.32 927.674 Q177.107 927.674 180.487 930.846 Q183.866 934.017 183.866 939.434 Q183.866 945.012 180.394 948.114 Q176.922 951.193 170.602 951.193 Q168.427 951.193 166.158 950.822 Q163.913 950.452 161.505 949.711 L161.505 945.012 Q163.589 946.147 165.811 946.702 Q168.033 947.258 170.51 947.258 Q174.514 947.258 176.852 945.151 Q179.19 943.045 179.19 939.434 Q179.19 935.823 176.852 933.716 Q174.514 931.61 170.51 931.61 Q168.635 931.61 166.76 932.026 Q164.908 932.443 162.964 933.323 L162.964 915.962 Z" fill="#000000" fill-rule="nonzero" fill-opacity="1"></path><path clip-path="url(#clip470)" d="M126.529 676.346 Q122.918 676.346 121.089 679.911 Q119.283 683.453 119.283 690.582 Q119.283 697.689 121.089 701.254 Q122.918 704.795 126.529 704.795 Q130.163 704.795 131.968 701.254 Q133.797 697.689 133.797 690.582 Q133.797 683.453 131.968 679.911 Q130.163 676.346 126.529 676.346 M126.529 672.643 Q132.339 672.643 135.394 677.249 Q138.473 681.833 138.473 690.582 Q138.473 699.309 135.394 703.916 Q132.339 708.499 126.529 708.499 Q120.718 708.499 117.64 703.916 Q114.584 699.309 114.584 690.582 Q114.584 681.833 117.64 677.249 Q120.718 672.643 126.529 672.643 Z" fill="#000000" fill-rule="nonzero" fill-opacity="1"></path><path clip-path="url(#clip470)" d="M146.691 701.948 L151.575 701.948 L151.575 707.828 L146.691 707.828 L146.691 701.948 Z" fill="#000000" fill-rule="nonzero" fill-opacity="1"></path><path clip-path="url(#clip470)" d="M172.339 688.684 Q169.19 688.684 167.339 690.837 Q165.51 692.99 165.51 696.74 Q165.51 700.467 167.339 702.643 Q169.19 704.795 172.339 704.795 Q175.487 704.795 177.315 702.643 Q179.167 700.467 179.167 696.74 Q179.167 692.99 177.315 690.837 Q175.487 688.684 172.339 688.684 M181.621 674.032 L181.621 678.291 Q179.862 677.458 178.056 677.018 Q176.274 676.578 174.514 676.578 Q169.885 676.578 167.431 679.703 Q165.001 682.828 164.653 689.147 Q166.019 687.133 168.079 686.069 Q170.139 684.981 172.616 684.981 Q177.825 684.981 180.834 688.152 Q183.866 691.3 183.866 696.74 Q183.866 702.064 180.718 705.281 Q177.57 708.499 172.339 708.499 Q166.343 708.499 163.172 703.916 Q160.001 699.309 160.001 690.582 Q160.001 682.388 163.89 677.527 Q167.778 672.643 174.329 672.643 Q176.089 672.643 177.871 672.99 Q179.676 673.337 181.621 674.032 Z" fill="#000000" fill-rule="nonzero" fill-opacity="1"></path><path clip-path="url(#clip470)" d="M127.593 433.653 Q123.982 433.653 122.154 437.217 Q120.348 440.759 120.348 447.889 Q120.348 454.995 122.154 458.56 Q123.982 462.102 127.593 462.102 Q131.228 462.102 133.033 458.56 Q134.862 454.995 134.862 447.889 Q134.862 440.759 133.033 437.217 Q131.228 433.653 127.593 433.653 M127.593 429.949 Q133.404 429.949 136.459 434.555 Q139.538 439.139 139.538 447.889 Q139.538 456.615 136.459 461.222 Q133.404 465.805 127.593 465.805 Q121.783 465.805 118.705 461.222 Q115.649 456.615 115.649 447.889 Q115.649 439.139 118.705 434.555 Q121.783 429.949 127.593 429.949 Z" fill="#000000" fill-rule="nonzero" fill-opacity="1"></path><path clip-path="url(#clip470)" d="M147.755 459.254 L152.64 459.254 L152.64 465.134 L147.755 465.134 L147.755 459.254 Z" fill="#000000" fill-rule="nonzero" fill-opacity="1"></path><path clip-path="url(#clip470)" d="M161.644 430.574 L183.866 430.574 L183.866 432.565 L171.32 465.134 L166.436 465.134 L178.241 434.509 L161.644 434.509 L161.644 430.574 Z" fill="#000000" fill-rule="nonzero" fill-opacity="1"></path><path clip-path="url(#clip470)" d="M126.783 190.959 Q123.172 190.959 121.343 194.524 Q119.538 198.065 119.538 205.195 Q119.538 212.301 121.343 215.866 Q123.172 219.408 126.783 219.408 Q130.417 219.408 132.223 215.866 Q134.052 212.301 134.052 205.195 Q134.052 198.065 132.223 194.524 Q130.417 190.959 126.783 190.959 M126.783 187.255 Q132.593 187.255 135.649 191.862 Q138.728 196.445 138.728 205.195 Q138.728 213.922 135.649 218.528 Q132.593 223.111 126.783 223.111 Q120.973 223.111 117.894 218.528 Q114.839 213.922 114.839 205.195 Q114.839 196.445 117.894 191.862 Q120.973 187.255 126.783 187.255 Z" fill="#000000" fill-rule="nonzero" fill-opacity="1"></path><path clip-path="url(#clip470)" d="M146.945 216.56 L151.829 216.56 L151.829 222.44 L146.945 222.44 L146.945 216.56 Z" fill="#000000" fill-rule="nonzero" fill-opacity="1"></path><path clip-path="url(#clip470)" d="M172.014 206.028 Q168.681 206.028 166.76 207.811 Q164.862 209.593 164.862 212.718 Q164.862 215.843 166.76 217.625 Q168.681 219.408 172.014 219.408 Q175.348 219.408 177.269 217.625 Q179.19 215.82 179.19 212.718 Q179.19 209.593 177.269 207.811 Q175.371 206.028 172.014 206.028 M167.339 204.037 Q164.329 203.297 162.64 201.236 Q160.973 199.176 160.973 196.213 Q160.973 192.07 163.913 189.662 Q166.876 187.255 172.014 187.255 Q177.176 187.255 180.116 189.662 Q183.056 192.07 183.056 196.213 Q183.056 199.176 181.366 201.236 Q179.7 203.297 176.714 204.037 Q180.093 204.824 181.968 207.116 Q183.866 209.408 183.866 212.718 Q183.866 217.741 180.788 220.426 Q177.732 223.111 172.014 223.111 Q166.297 223.111 163.218 220.426 Q160.163 217.741 160.163 212.718 Q160.163 209.408 162.061 207.116 Q163.959 204.824 167.339 204.037 M165.626 196.653 Q165.626 199.338 167.292 200.843 Q168.982 202.348 172.014 202.348 Q175.024 202.348 176.714 200.843 Q178.426 199.338 178.426 196.653 Q178.426 193.968 176.714 192.463 Q175.024 190.959 172.014 190.959 Q168.982 190.959 167.292 192.463 Q165.626 193.968 165.626 196.653 Z" fill="#000000" fill-rule="nonzero" fill-opacity="1"></path><path clip-path="url(#clip470)" d="M16.4842 908.597 L16.4842 902.168 L58.5933 902.168 L58.5933 879.029 L64.0042 879.029 L64.0042 908.597 L16.4842 908.597 Z" fill="#000000" fill-rule="nonzero" fill-opacity="1"></path><path clip-path="url(#clip470)" d="M32.4621 859.868 Q32.4621 864.578 36.1542 867.316 Q39.8145 870.053 46.212 870.053 Q52.6095 870.053 56.3017 867.347 Q59.9619 864.61 59.9619 859.868 Q59.9619 855.189 56.2698 852.452 Q52.5777 849.714 46.212 849.714 Q39.8781 849.714 36.186 852.452 Q32.4621 855.189 32.4621 859.868 M27.4968 859.868 Q27.4968 852.229 32.4621 847.868 Q37.4273 843.508 46.212 843.508 Q54.9649 843.508 59.9619 847.868 Q64.9272 852.229 64.9272 859.868 Q64.9272 867.538 59.9619 871.899 Q54.9649 876.228 46.212 876.228 Q37.4273 876.228 32.4621 871.899 Q27.4968 867.538 27.4968 859.868 Z" fill="#000000" fill-rule="nonzero" fill-opacity="1"></path><path clip-path="url(#clip470)" d="M45.7664 810.343 Q39.4007 810.343 35.8996 812.984 Q32.3984 815.594 32.3984 820.337 Q32.3984 825.047 35.8996 827.689 Q39.4007 830.299 45.7664 830.299 Q52.1003 830.299 55.6014 827.689 Q59.1026 825.047 59.1026 820.337 Q59.1026 815.594 55.6014 812.984 Q52.1003 810.343 45.7664 810.343 M59.58 804.486 Q68.683 804.486 73.1071 808.528 Q77.5631 812.571 77.5631 820.91 Q77.5631 823.997 77.0857 826.734 Q76.6401 829.472 75.6852 832.05 L69.9879 832.05 Q71.3884 829.472 72.0568 826.957 Q72.7252 824.443 72.7252 821.833 Q72.7252 816.072 69.7015 813.207 Q66.7096 810.343 60.6303 810.343 L57.7339 810.343 Q60.885 812.157 62.4446 814.99 Q64.0042 817.822 64.0042 821.769 Q64.0042 828.326 59.0071 832.336 Q54.01 836.346 45.7664 836.346 Q37.491 836.346 32.4939 832.336 Q27.4968 828.326 27.4968 821.769 Q27.4968 817.822 29.0564 814.99 Q30.616 812.157 33.7671 810.343 L28.3562 810.343 L28.3562 804.486 L59.58 804.486 Z" fill="#000000" fill-rule="nonzero" fill-opacity="1"></path><path clip-path="url(#clip470)" d="M16.4842 771.448 L16.4842 765.019 L58.5933 765.019 L58.5933 741.879 L64.0042 741.879 L64.0042 771.448 L16.4842 771.448 Z" fill="#000000" fill-rule="nonzero" fill-opacity="1"></path><path clip-path="url(#clip470)" d="M32.4621 722.719 Q32.4621 727.429 36.1542 730.166 Q39.8145 732.904 46.212 732.904 Q52.6095 732.904 56.3017 730.198 Q59.9619 727.461 59.9619 722.719 Q59.9619 718.04 56.2698 715.303 Q52.5777 712.565 46.212 712.565 Q39.8781 712.565 36.186 715.303 Q32.4621 718.04 32.4621 722.719 M27.4968 722.719 Q27.4968 715.08 32.4621 710.719 Q37.4273 706.359 46.212 706.359 Q54.9649 706.359 59.9619 710.719 Q64.9272 715.08 64.9272 722.719 Q64.9272 730.389 59.9619 734.75 Q54.9649 739.078 46.212 739.078 Q37.4273 739.078 32.4621 734.75 Q27.4968 730.389 27.4968 722.719 Z" fill="#000000" fill-rule="nonzero" fill-opacity="1"></path><path clip-path="url(#clip470)" d="M29.4065 673.925 L34.9447 673.925 Q33.6716 676.408 33.035 679.082 Q32.3984 681.755 32.3984 684.62 Q32.3984 688.98 33.7352 691.177 Q35.072 693.341 37.7456 693.341 Q39.7826 693.341 40.9603 691.781 Q42.1061 690.222 43.1565 685.511 L43.6021 683.506 Q44.9389 677.267 47.3897 674.658 Q49.8086 672.016 54.1691 672.016 Q59.1344 672.016 62.0308 675.963 Q64.9272 679.877 64.9272 686.752 Q64.9272 689.617 64.3543 692.736 Q63.8132 695.824 62.6992 699.261 L56.6518 699.261 Q58.3387 696.014 59.198 692.863 Q60.0256 689.712 60.0256 686.625 Q60.0256 682.487 58.6251 680.259 Q57.1929 678.031 54.6147 678.031 Q52.2276 678.031 50.9545 679.655 Q49.6813 681.246 48.5037 686.689 L48.0262 688.726 Q46.8804 694.168 44.5251 696.587 Q42.138 699.006 38.0002 699.006 Q32.9713 699.006 30.2341 695.442 Q27.4968 691.877 27.4968 685.32 Q27.4968 682.074 27.9743 679.209 Q28.4517 676.344 29.4065 673.925 Z" fill="#000000" fill-rule="nonzero" fill-opacity="1"></path><path clip-path="url(#clip470)" d="M29.4065 639.964 L34.9447 639.964 Q33.6716 642.447 33.035 645.121 Q32.3984 647.794 32.3984 650.659 Q32.3984 655.019 33.7352 657.215 Q35.072 659.38 37.7456 659.38 Q39.7826 659.38 40.9603 657.82 Q42.1061 656.261 43.1565 651.55 L43.6021 649.545 Q44.9389 643.306 47.3897 640.696 Q49.8086 638.055 54.1691 638.055 Q59.1344 638.055 62.0308 642.001 Q64.9272 645.916 64.9272 652.791 Q64.9272 655.656 64.3543 658.775 Q63.8132 661.862 62.6992 665.3 L56.6518 665.3 Q58.3387 662.053 59.198 658.902 Q60.0256 655.751 60.0256 652.664 Q60.0256 648.526 58.6251 646.298 Q57.1929 644.07 54.6147 644.07 Q52.2276 644.07 50.9545 645.694 Q49.6813 647.285 48.5037 652.728 L48.0262 654.765 Q46.8804 660.207 44.5251 662.626 Q42.138 665.045 38.0002 665.045 Q32.9713 665.045 30.2341 661.481 Q27.4968 657.916 27.4968 651.359 Q27.4968 648.113 27.9743 645.248 Q28.4517 642.383 29.4065 639.964 Z" fill="#000000" fill-rule="nonzero" fill-opacity="1"></path><path clip-path="url(#clip470)" d="M976.944 12.096 L985.126 12.096 L985.126 65.6895 L1014.58 65.6895 L1014.58 72.576 L976.944 72.576 L976.944 12.096 Z" fill="#000000" fill-rule="nonzero" fill-opacity="1"></path><path clip-path="url(#clip470)" d="M1060.19 48.0275 L1060.19 51.6733 L1025.92 51.6733 Q1026.41 59.3701 1030.54 63.421 Q1034.71 67.4314 1042.12 67.4314 Q1046.42 67.4314 1050.43 66.3781 Q1054.48 65.3249 1058.45 63.2184 L1058.45 70.267 Q1054.44 71.9684 1050.22 72.8596 Q1046.01 73.7508 1041.68 73.7508 Q1030.82 73.7508 1024.46 67.4314 Q1018.14 61.1119 1018.14 50.3365 Q1018.14 39.1965 1024.14 32.6746 Q1030.17 26.1121 1040.38 26.1121 Q1049.54 26.1121 1054.84 32.0264 Q1060.19 37.9003 1060.19 48.0275 M1052.74 45.84 Q1052.65 39.7232 1049.29 36.0774 Q1045.97 32.4315 1040.46 32.4315 Q1034.22 32.4315 1030.46 35.9558 Q1026.73 39.4801 1026.16 45.8805 L1052.74 45.84 Z" fill="#000000" fill-rule="nonzero" fill-opacity="1"></path><path clip-path="url(#clip470)" d="M1093.04 49.7694 Q1084.01 49.7694 1080.53 51.8354 Q1077.04 53.9013 1077.04 58.8839 Q1077.04 62.8538 1079.63 65.2034 Q1082.27 67.5124 1086.76 67.5124 Q1092.96 67.5124 1096.69 63.1374 Q1100.46 58.7219 1100.46 51.4303 L1100.46 49.7694 L1093.04 49.7694 M1107.91 46.6907 L1107.91 72.576 L1100.46 72.576 L1100.46 65.6895 Q1097.9 69.8214 1094.1 71.8063 Q1090.29 73.7508 1084.78 73.7508 Q1077.81 73.7508 1073.68 69.8619 Q1069.59 65.9325 1069.59 59.3701 Q1069.59 51.7138 1074.69 47.825 Q1079.84 43.9361 1090 43.9361 L1100.46 43.9361 L1100.46 43.2069 Q1100.46 38.0623 1097.05 35.2672 Q1093.69 32.4315 1087.57 32.4315 Q1083.68 32.4315 1080 33.3632 Q1076.31 34.295 1072.91 36.1584 L1072.91 29.2718 Q1077 27.692 1080.85 26.9223 Q1084.7 26.1121 1088.34 26.1121 Q1098.19 26.1121 1103.05 31.2163 Q1107.91 36.3204 1107.91 46.6907 Z" fill="#000000" fill-rule="nonzero" fill-opacity="1"></path><path clip-path="url(#clip470)" d="M1149.55 34.1734 Q1148.3 33.4443 1146.8 33.1202 Q1145.34 32.7556 1143.56 32.7556 Q1137.24 32.7556 1133.84 36.8875 Q1130.47 40.9789 1130.47 48.6757 L1130.47 72.576 L1122.98 72.576 L1122.98 27.2059 L1130.47 27.2059 L1130.47 34.2544 Q1132.82 30.1225 1136.59 28.1376 Q1140.36 26.1121 1145.74 26.1121 Q1146.51 26.1121 1147.45 26.2337 Q1148.38 26.3147 1149.51 26.5172 L1149.55 34.1734 Z" fill="#000000" fill-rule="nonzero" fill-opacity="1"></path><path clip-path="url(#clip470)" d="M1193.63 45.1919 L1193.63 72.576 L1186.17 72.576 L1186.17 45.4349 Q1186.17 38.994 1183.66 35.7938 Q1181.15 32.5936 1176.13 32.5936 Q1170.09 32.5936 1166.61 36.4419 Q1163.12 40.2903 1163.12 46.9338 L1163.12 72.576 L1155.63 72.576 L1155.63 27.2059 L1163.12 27.2059 L1163.12 34.2544 Q1165.8 30.163 1169.4 28.1376 Q1173.05 26.1121 1177.79 26.1121 Q1185.61 26.1121 1189.62 30.9732 Q1193.63 35.7938 1193.63 45.1919 Z" fill="#000000" fill-rule="nonzero" fill-opacity="1"></path><path clip-path="url(#clip470)" d="M1208.49 27.2059 L1215.95 27.2059 L1215.95 72.576 L1208.49 72.576 L1208.49 27.2059 M1208.49 9.54393 L1215.95 9.54393 L1215.95 18.9825 L1208.49 18.9825 L1208.49 9.54393 Z" fill="#000000" fill-rule="nonzero" fill-opacity="1"></path><path clip-path="url(#clip470)" d="M1269.26 45.1919 L1269.26 72.576 L1261.8 72.576 L1261.8 45.4349 Q1261.8 38.994 1259.29 35.7938 Q1256.78 32.5936 1251.76 32.5936 Q1245.72 32.5936 1242.24 36.4419 Q1238.75 40.2903 1238.75 46.9338 L1238.75 72.576 L1231.26 72.576 L1231.26 27.2059 L1238.75 27.2059 L1238.75 34.2544 Q1241.43 30.163 1245.03 28.1376 Q1248.68 26.1121 1253.42 26.1121 Q1261.24 26.1121 1265.25 30.9732 Q1269.26 35.7938 1269.26 45.1919 Z" fill="#000000" fill-rule="nonzero" fill-opacity="1"></path><path clip-path="url(#clip470)" d="M1313.98 49.3643 Q1313.98 41.2625 1310.62 36.8065 Q1307.29 32.3505 1301.26 32.3505 Q1295.26 32.3505 1291.9 36.8065 Q1288.58 41.2625 1288.58 49.3643 Q1288.58 57.4256 1291.9 61.8816 Q1295.26 66.3376 1301.26 66.3376 Q1307.29 66.3376 1310.62 61.8816 Q1313.98 57.4256 1313.98 49.3643 M1321.43 66.9452 Q1321.43 78.5308 1316.29 84.1616 Q1311.14 89.8329 1300.53 89.8329 Q1296.6 89.8329 1293.12 89.2252 Q1289.63 88.6581 1286.35 87.4428 L1286.35 80.1917 Q1289.63 81.9741 1292.83 82.8248 Q1296.03 83.6755 1299.35 83.6755 Q1306.69 83.6755 1310.33 79.8271 Q1313.98 76.0193 1313.98 68.282 L1313.98 64.5957 Q1311.67 68.6061 1308.06 70.5911 Q1304.46 72.576 1299.44 72.576 Q1291.09 72.576 1285.99 66.2161 Q1280.88 59.8562 1280.88 49.3643 Q1280.88 38.832 1285.99 32.472 Q1291.09 26.1121 1299.44 26.1121 Q1304.46 26.1121 1308.06 28.0971 Q1311.67 30.082 1313.98 34.0924 L1313.98 27.2059 L1321.43 27.2059 L1321.43 66.9452 Z" fill="#000000" fill-rule="nonzero" fill-opacity="1"></path><path clip-path="url(#clip470)" d="M1408.77 16.7545 L1408.77 25.383 Q1404.64 21.5346 1399.94 19.6307 Q1395.28 17.7268 1390.01 17.7268 Q1379.64 17.7268 1374.13 24.0867 Q1368.63 30.4061 1368.63 42.3968 Q1368.63 54.3469 1374.13 60.7069 Q1379.64 67.0263 1390.01 67.0263 Q1395.28 67.0263 1399.94 65.1223 Q1404.64 63.2184 1408.77 59.3701 L1408.77 67.9175 Q1404.48 70.8341 1399.66 72.2924 Q1394.88 73.7508 1389.53 73.7508 Q1375.8 73.7508 1367.9 65.3654 Q1360 56.9395 1360 42.3968 Q1360 27.8135 1367.9 19.4281 Q1375.8 11.0023 1389.53 11.0023 Q1394.96 11.0023 1399.74 12.4606 Q1404.56 13.8784 1408.77 16.7545 Z" fill="#000000" fill-rule="nonzero" fill-opacity="1"></path><path clip-path="url(#clip470)" d="M1420.31 54.671 L1420.31 27.2059 L1427.77 27.2059 L1427.77 54.3874 Q1427.77 60.8284 1430.28 64.0691 Q1432.79 67.2693 1437.81 67.2693 Q1443.85 67.2693 1447.33 63.421 Q1450.86 59.5726 1450.86 52.9291 L1450.86 27.2059 L1458.31 27.2059 L1458.31 72.576 L1450.86 72.576 L1450.86 65.6084 Q1448.14 69.7404 1444.54 71.7658 Q1440.97 73.7508 1436.24 73.7508 Q1428.42 73.7508 1424.37 68.8897 Q1420.31 64.0286 1420.31 54.671 M1439.07 26.1121 L1439.07 26.1121 Z" fill="#000000" fill-rule="nonzero" fill-opacity="1"></path><path clip-path="url(#clip470)" d="M1499.96 34.1734 Q1498.7 33.4443 1497.2 33.1202 Q1495.74 32.7556 1493.96 32.7556 Q1487.64 32.7556 1484.24 36.8875 Q1480.88 40.9789 1480.88 48.6757 L1480.88 72.576 L1473.38 72.576 L1473.38 27.2059 L1480.88 27.2059 L1480.88 34.2544 Q1483.23 30.1225 1486.99 28.1376 Q1490.76 26.1121 1496.15 26.1121 Q1496.92 26.1121 1497.85 26.2337 Q1498.78 26.3147 1499.92 26.5172 L1499.96 34.1734 Z" fill="#000000" fill-rule="nonzero" fill-opacity="1"></path><path clip-path="url(#clip470)" d="M1502.43 27.2059 L1510.33 27.2059 L1524.5 65.2844 L1538.68 27.2059 L1546.58 27.2059 L1529.57 72.576 L1519.44 72.576 L1502.43 27.2059 Z" fill="#000000" fill-rule="nonzero" fill-opacity="1"></path><path clip-path="url(#clip470)" d="M1595.68 48.0275 L1595.68 51.6733 L1561.41 51.6733 Q1561.89 59.3701 1566.03 63.421 Q1570.2 67.4314 1577.61 67.4314 Q1581.91 67.4314 1585.92 66.3781 Q1589.97 65.3249 1593.94 63.2184 L1593.94 70.267 Q1589.93 71.9684 1585.71 72.8596 Q1581.5 73.7508 1577.17 73.7508 Q1566.31 73.7508 1559.95 67.4314 Q1553.63 61.1119 1553.63 50.3365 Q1553.63 39.1965 1559.63 32.6746 Q1565.66 26.1121 1575.87 26.1121 Q1585.02 26.1121 1590.33 32.0264 Q1595.68 37.9003 1595.68 48.0275 M1588.22 45.84 Q1588.14 39.7232 1584.78 36.0774 Q1581.46 32.4315 1575.95 32.4315 Q1569.71 32.4315 1565.95 35.9558 Q1562.22 39.4801 1561.65 45.8805 L1588.22 45.84 Z" fill="#000000" fill-rule="nonzero" fill-opacity="1"></path><polyline clip-path="url(#clip472)" style="stroke:#009af9; stroke-linecap:round; stroke-linejoin:round; stroke-width:4; stroke-opacity:1; fill:none" points="280.231,179.419 349.616,413.211 419.001,771.836 488.386,1013.67 557.77,1148.46 627.155,1265.49 696.54,1343.34 765.925,1386.4 835.31,1380.37 904.695,1322.88 1043.46,1110.34 1112.85,1168.57 1251.62,1003.66 1390.39,1202.82 1529.16,824.098 1667.93,782.82 1876.08,913.899 2084.24,977.813 2292.39,839.352 "></polyline>
<polyline clip-path="url(#clip472)" style="stroke:#e26f46; stroke-linecap:round; stroke-linejoin:round; stroke-width:4; stroke-opacity:1; fill:none" stroke-dasharray="16, 10" points="280.231,160.256 2292.39,160.256 "></polyline>
<path clip-path="url(#clip470)" d="M1484.72 1379.86 L2281.66 1379.86 L2281.66 1224.34 L1484.72 1224.34  Z" fill="#ffffff" fill-rule="evenodd" fill-opacity="1"></path>
<polyline clip-path="url(#clip470)" style="stroke:#000000; stroke-linecap:round; stroke-linejoin:round; stroke-width:4; stroke-opacity:1; fill:none" points="1484.72,1379.86 2281.66,1379.86 2281.66,1224.34 1484.72,1224.34 1484.72,1379.86 "></polyline>
<polyline clip-path="url(#clip470)" style="stroke:#009af9; stroke-linecap:round; stroke-linejoin:round; stroke-width:4; stroke-opacity:1; fill:none" points="1508.42,1276.18 1650.61,1276.18 "></polyline>
<path clip-path="url(#clip470)" d="M1690.7 1277.25 Q1692.2 1277.76 1693.61 1279.43 Q1695.05 1281.1 1696.48 1284.01 L1701.23 1293.46 L1696.2 1293.46 L1691.78 1284.59 Q1690.07 1281.12 1688.45 1279.98 Q1686.85 1278.85 1684.07 1278.85 L1678.98 1278.85 L1678.98 1293.46 L1674.31 1293.46 L1674.31 1258.9 L1684.86 1258.9 Q1690.79 1258.9 1693.7 1261.37 Q1696.62 1263.85 1696.62 1268.85 Q1696.62 1272.11 1695.09 1274.27 Q1693.59 1276.42 1690.7 1277.25 M1678.98 1262.74 L1678.98 1275.01 L1684.86 1275.01 Q1688.24 1275.01 1689.95 1273.46 Q1691.69 1271.88 1691.69 1268.85 Q1691.69 1265.82 1689.95 1264.29 Q1688.24 1262.74 1684.86 1262.74 L1678.98 1262.74 Z" fill="#000000" fill-rule="nonzero" fill-opacity="1"></path><path clip-path="url(#clip470)" d="M1717.8 1280.42 Q1712.64 1280.42 1710.65 1281.6 Q1708.66 1282.79 1708.66 1285.63 Q1708.66 1287.9 1710.14 1289.24 Q1711.64 1290.56 1714.21 1290.56 Q1717.76 1290.56 1719.88 1288.06 Q1722.04 1285.54 1722.04 1281.37 L1722.04 1280.42 L1717.8 1280.42 M1726.3 1278.66 L1726.3 1293.46 L1722.04 1293.46 L1722.04 1289.52 Q1720.58 1291.88 1718.4 1293.02 Q1716.23 1294.13 1713.08 1294.13 Q1709.1 1294.13 1706.74 1291.91 Q1704.4 1289.66 1704.4 1285.91 Q1704.4 1281.54 1707.32 1279.31 Q1710.26 1277.09 1716.07 1277.09 L1722.04 1277.09 L1722.04 1276.67 Q1722.04 1273.73 1720.09 1272.14 Q1718.17 1270.52 1714.68 1270.52 Q1712.45 1270.52 1710.35 1271.05 Q1708.24 1271.58 1706.3 1272.65 L1706.3 1268.71 Q1708.64 1267.81 1710.83 1267.37 Q1713.03 1266.91 1715.12 1266.91 Q1720.74 1266.91 1723.52 1269.82 Q1726.3 1272.74 1726.3 1278.66 Z" fill="#000000" fill-rule="nonzero" fill-opacity="1"></path><path clip-path="url(#clip470)" d="M1756.62 1277.81 L1756.62 1293.46 L1752.36 1293.46 L1752.36 1277.95 Q1752.36 1274.27 1750.93 1272.44 Q1749.49 1270.61 1746.62 1270.61 Q1743.17 1270.61 1741.18 1272.81 Q1739.19 1275.01 1739.19 1278.8 L1739.19 1293.46 L1734.91 1293.46 L1734.91 1267.53 L1739.19 1267.53 L1739.19 1271.56 Q1740.72 1269.22 1742.78 1268.06 Q1744.86 1266.91 1747.57 1266.91 Q1752.04 1266.91 1754.33 1269.68 Q1756.62 1272.44 1756.62 1277.81 Z" fill="#000000" fill-rule="nonzero" fill-opacity="1"></path><path clip-path="url(#clip470)" d="M1782.18 1271.47 L1782.18 1257.44 L1786.44 1257.44 L1786.44 1293.46 L1782.18 1293.46 L1782.18 1289.57 Q1780.83 1291.88 1778.77 1293.02 Q1776.74 1294.13 1773.87 1294.13 Q1769.17 1294.13 1766.2 1290.38 Q1763.26 1286.63 1763.26 1280.52 Q1763.26 1274.41 1766.2 1270.66 Q1769.17 1266.91 1773.87 1266.91 Q1776.74 1266.91 1778.77 1268.04 Q1780.83 1269.15 1782.18 1271.47 M1767.66 1280.52 Q1767.66 1285.22 1769.58 1287.9 Q1771.53 1290.56 1774.91 1290.56 Q1778.29 1290.56 1780.23 1287.9 Q1782.18 1285.22 1782.18 1280.52 Q1782.18 1275.82 1780.23 1273.16 Q1778.29 1270.47 1774.91 1270.47 Q1771.53 1270.47 1769.58 1273.16 Q1767.66 1275.82 1767.66 1280.52 Z" fill="#000000" fill-rule="nonzero" fill-opacity="1"></path><path clip-path="url(#clip470)" d="M1805.25 1270.52 Q1801.83 1270.52 1799.84 1273.2 Q1797.85 1275.86 1797.85 1280.52 Q1797.85 1285.17 1799.82 1287.85 Q1801.81 1290.52 1805.25 1290.52 Q1808.66 1290.52 1810.65 1287.83 Q1812.64 1285.15 1812.64 1280.52 Q1812.64 1275.91 1810.65 1273.22 Q1808.66 1270.52 1805.25 1270.52 M1805.25 1266.91 Q1810.81 1266.91 1813.98 1270.52 Q1817.15 1274.13 1817.15 1280.52 Q1817.15 1286.88 1813.98 1290.52 Q1810.81 1294.13 1805.25 1294.13 Q1799.68 1294.13 1796.5 1290.52 Q1793.36 1286.88 1793.36 1280.52 Q1793.36 1274.13 1796.5 1270.52 Q1799.68 1266.91 1805.25 1266.91 Z" fill="#000000" fill-rule="nonzero" fill-opacity="1"></path><path clip-path="url(#clip470)" d="M1844.4 1272.51 Q1846 1269.64 1848.22 1268.27 Q1850.44 1266.91 1853.45 1266.91 Q1857.5 1266.91 1859.7 1269.75 Q1861.9 1272.58 1861.9 1277.81 L1861.9 1293.46 L1857.62 1293.46 L1857.62 1277.95 Q1857.62 1274.22 1856.3 1272.41 Q1854.98 1270.61 1852.27 1270.61 Q1848.96 1270.61 1847.04 1272.81 Q1845.12 1275.01 1845.12 1278.8 L1845.12 1293.46 L1840.83 1293.46 L1840.83 1277.95 Q1840.83 1274.2 1839.51 1272.41 Q1838.19 1270.61 1835.44 1270.61 Q1832.18 1270.61 1830.25 1272.83 Q1828.33 1275.03 1828.33 1278.8 L1828.33 1293.46 L1824.05 1293.46 L1824.05 1267.53 L1828.33 1267.53 L1828.33 1271.56 Q1829.79 1269.17 1831.83 1268.04 Q1833.87 1266.91 1836.67 1266.91 Q1839.49 1266.91 1841.46 1268.34 Q1843.45 1269.78 1844.4 1272.51 Z" fill="#000000" fill-rule="nonzero" fill-opacity="1"></path><path clip-path="url(#clip470)" d="M1885.65 1258.9 L1905.51 1258.9 L1905.51 1262.83 L1890.32 1262.83 L1890.32 1273.02 L1904.03 1273.02 L1904.03 1276.95 L1890.32 1276.95 L1890.32 1293.46 L1885.65 1293.46 L1885.65 1258.9 Z" fill="#000000" fill-rule="nonzero" fill-opacity="1"></path><path clip-path="url(#clip470)" d="M1921.09 1270.52 Q1917.66 1270.52 1915.67 1273.2 Q1913.68 1275.86 1913.68 1280.52 Q1913.68 1285.17 1915.65 1287.85 Q1917.64 1290.52 1921.09 1290.52 Q1924.49 1290.52 1926.48 1287.83 Q1928.47 1285.15 1928.47 1280.52 Q1928.47 1275.91 1926.48 1273.22 Q1924.49 1270.52 1921.09 1270.52 M1921.09 1266.91 Q1926.64 1266.91 1929.81 1270.52 Q1932.99 1274.13 1932.99 1280.52 Q1932.99 1286.88 1929.81 1290.52 Q1926.64 1294.13 1921.09 1294.13 Q1915.51 1294.13 1912.34 1290.52 Q1909.19 1286.88 1909.19 1280.52 Q1909.19 1274.13 1912.34 1270.52 Q1915.51 1266.91 1921.09 1266.91 Z" fill="#000000" fill-rule="nonzero" fill-opacity="1"></path><path clip-path="url(#clip470)" d="M1955.07 1271.51 Q1954.35 1271.1 1953.49 1270.91 Q1952.66 1270.7 1951.64 1270.7 Q1948.03 1270.7 1946.09 1273.06 Q1944.17 1275.4 1944.17 1279.8 L1944.17 1293.46 L1939.88 1293.46 L1939.88 1267.53 L1944.17 1267.53 L1944.17 1271.56 Q1945.51 1269.2 1947.66 1268.06 Q1949.81 1266.91 1952.89 1266.91 Q1953.33 1266.91 1953.87 1266.97 Q1954.4 1267.02 1955.05 1267.14 L1955.07 1271.51 Z" fill="#000000" fill-rule="nonzero" fill-opacity="1"></path><path clip-path="url(#clip470)" d="M1980.67 1279.43 L1980.67 1281.51 L1961.09 1281.51 Q1961.37 1285.91 1963.73 1288.22 Q1966.11 1290.52 1970.35 1290.52 Q1972.8 1290.52 1975.09 1289.91 Q1977.41 1289.31 1979.68 1288.11 L1979.68 1292.14 Q1977.38 1293.11 1974.98 1293.62 Q1972.57 1294.13 1970.09 1294.13 Q1963.89 1294.13 1960.25 1290.52 Q1956.64 1286.91 1956.64 1280.75 Q1956.64 1274.38 1960.07 1270.66 Q1963.52 1266.91 1969.35 1266.91 Q1974.58 1266.91 1977.62 1270.29 Q1980.67 1273.64 1980.67 1279.43 M1976.41 1278.18 Q1976.37 1274.68 1974.44 1272.6 Q1972.55 1270.52 1969.4 1270.52 Q1965.83 1270.52 1963.68 1272.53 Q1961.55 1274.54 1961.23 1278.2 L1976.41 1278.18 Z" fill="#000000" fill-rule="nonzero" fill-opacity="1"></path><path clip-path="url(#clip470)" d="M2004.19 1268.29 L2004.19 1272.32 Q2002.38 1271.4 2000.44 1270.93 Q1998.49 1270.47 1996.41 1270.47 Q1993.24 1270.47 1991.64 1271.44 Q1990.07 1272.41 1990.07 1274.36 Q1990.07 1275.84 1991.2 1276.7 Q1992.34 1277.53 1995.76 1278.29 L1997.22 1278.62 Q2001.76 1279.59 2003.66 1281.37 Q2005.58 1283.13 2005.58 1286.3 Q2005.58 1289.91 2002.71 1292.02 Q1999.86 1294.13 1994.86 1294.13 Q1992.78 1294.13 1990.51 1293.71 Q1988.26 1293.32 1985.76 1292.51 L1985.76 1288.11 Q1988.12 1289.34 1990.42 1289.96 Q1992.71 1290.56 1994.95 1290.56 Q1997.96 1290.56 1999.58 1289.54 Q2001.2 1288.5 2001.2 1286.63 Q2001.2 1284.89 2000.02 1283.97 Q1998.86 1283.04 1994.91 1282.18 L1993.43 1281.84 Q1989.47 1281 1987.71 1279.29 Q1985.95 1277.55 1985.95 1274.54 Q1985.95 1270.89 1988.54 1268.9 Q1991.13 1266.91 1995.9 1266.91 Q1998.26 1266.91 2000.35 1267.25 Q2002.43 1267.6 2004.19 1268.29 Z" fill="#000000" fill-rule="nonzero" fill-opacity="1"></path><path clip-path="url(#clip470)" d="M2016.57 1260.17 L2016.57 1267.53 L2025.35 1267.53 L2025.35 1270.84 L2016.57 1270.84 L2016.57 1284.91 Q2016.57 1288.09 2017.43 1288.99 Q2018.31 1289.89 2020.97 1289.89 L2025.35 1289.89 L2025.35 1293.46 L2020.97 1293.46 Q2016.04 1293.46 2014.17 1291.63 Q2012.29 1289.78 2012.29 1284.91 L2012.29 1270.84 L2009.17 1270.84 L2009.17 1267.53 L2012.29 1267.53 L2012.29 1260.17 L2016.57 1260.17 Z" fill="#000000" fill-rule="nonzero" fill-opacity="1"></path><path clip-path="url(#clip470)" d="M2072.08 1261.56 L2072.08 1266.49 Q2069.72 1264.29 2067.04 1263.2 Q2064.37 1262.11 2061.36 1262.11 Q2055.44 1262.11 2052.29 1265.75 Q2049.14 1269.36 2049.14 1276.21 Q2049.14 1283.04 2052.29 1286.67 Q2055.44 1290.28 2061.36 1290.28 Q2064.37 1290.28 2067.04 1289.2 Q2069.72 1288.11 2072.08 1285.91 L2072.08 1290.79 Q2069.63 1292.46 2066.87 1293.29 Q2064.14 1294.13 2061.09 1294.13 Q2053.24 1294.13 2048.73 1289.34 Q2044.21 1284.52 2044.21 1276.21 Q2044.21 1267.88 2048.73 1263.09 Q2053.24 1258.27 2061.09 1258.27 Q2064.19 1258.27 2066.92 1259.1 Q2069.67 1259.91 2072.08 1261.56 Z" fill="#000000" fill-rule="nonzero" fill-opacity="1"></path><path clip-path="url(#clip470)" d="M2079.12 1257.44 L2083.38 1257.44 L2083.38 1293.46 L2079.12 1293.46 L2079.12 1257.44 Z" fill="#000000" fill-rule="nonzero" fill-opacity="1"></path><path clip-path="url(#clip470)" d="M2104.07 1280.42 Q2098.91 1280.42 2096.92 1281.6 Q2094.93 1282.79 2094.93 1285.63 Q2094.93 1287.9 2096.41 1289.24 Q2097.92 1290.56 2100.48 1290.56 Q2104.03 1290.56 2106.16 1288.06 Q2108.31 1285.54 2108.31 1281.37 L2108.31 1280.42 L2104.07 1280.42 M2112.57 1278.66 L2112.57 1293.46 L2108.31 1293.46 L2108.31 1289.52 Q2106.85 1291.88 2104.67 1293.02 Q2102.5 1294.13 2099.35 1294.13 Q2095.37 1294.13 2093.01 1291.91 Q2090.67 1289.66 2090.67 1285.91 Q2090.67 1281.54 2093.59 1279.31 Q2096.53 1277.09 2102.34 1277.09 L2108.31 1277.09 L2108.31 1276.67 Q2108.31 1273.73 2106.36 1272.14 Q2104.44 1270.52 2100.95 1270.52 Q2098.73 1270.52 2096.62 1271.05 Q2094.51 1271.58 2092.57 1272.65 L2092.57 1268.71 Q2094.91 1267.81 2097.11 1267.37 Q2099.3 1266.91 2101.39 1266.91 Q2107.01 1266.91 2109.79 1269.82 Q2112.57 1272.74 2112.57 1278.66 Z" fill="#000000" fill-rule="nonzero" fill-opacity="1"></path><path clip-path="url(#clip470)" d="M2137.87 1268.29 L2137.87 1272.32 Q2136.06 1271.4 2134.12 1270.93 Q2132.17 1270.47 2130.09 1270.47 Q2126.92 1270.47 2125.32 1271.44 Q2123.75 1272.41 2123.75 1274.36 Q2123.75 1275.84 2124.88 1276.7 Q2126.02 1277.53 2129.44 1278.29 L2130.9 1278.62 Q2135.44 1279.59 2137.34 1281.37 Q2139.26 1283.13 2139.26 1286.3 Q2139.26 1289.91 2136.39 1292.02 Q2133.54 1294.13 2128.54 1294.13 Q2126.46 1294.13 2124.19 1293.71 Q2121.94 1293.32 2119.44 1292.51 L2119.44 1288.11 Q2121.8 1289.34 2124.1 1289.96 Q2126.39 1290.56 2128.63 1290.56 Q2131.64 1290.56 2133.26 1289.54 Q2134.88 1288.5 2134.88 1286.63 Q2134.88 1284.89 2133.7 1283.97 Q2132.54 1283.04 2128.59 1282.18 L2127.11 1281.84 Q2123.15 1281 2121.39 1279.29 Q2119.63 1277.55 2119.63 1274.54 Q2119.63 1270.89 2122.22 1268.9 Q2124.81 1266.91 2129.58 1266.91 Q2131.94 1266.91 2134.03 1267.25 Q2136.11 1267.6 2137.87 1268.29 Z" fill="#000000" fill-rule="nonzero" fill-opacity="1"></path><path clip-path="url(#clip470)" d="M2162.57 1268.29 L2162.57 1272.32 Q2160.76 1271.4 2158.82 1270.93 Q2156.87 1270.47 2154.79 1270.47 Q2151.62 1270.47 2150.02 1271.44 Q2148.45 1272.41 2148.45 1274.36 Q2148.45 1275.84 2149.58 1276.7 Q2150.72 1277.53 2154.14 1278.29 L2155.6 1278.62 Q2160.14 1279.59 2162.04 1281.37 Q2163.96 1283.13 2163.96 1286.3 Q2163.96 1289.91 2161.09 1292.02 Q2158.24 1294.13 2153.24 1294.13 Q2151.16 1294.13 2148.89 1293.71 Q2146.64 1293.32 2144.14 1292.51 L2144.14 1288.11 Q2146.5 1289.34 2148.79 1289.96 Q2151.09 1290.56 2153.33 1290.56 Q2156.34 1290.56 2157.96 1289.54 Q2159.58 1288.5 2159.58 1286.63 Q2159.58 1284.89 2158.4 1283.97 Q2157.24 1283.04 2153.29 1282.18 L2151.8 1281.84 Q2147.85 1281 2146.09 1279.29 Q2144.33 1277.55 2144.33 1274.54 Q2144.33 1270.89 2146.92 1268.9 Q2149.51 1266.91 2154.28 1266.91 Q2156.64 1266.91 2158.73 1267.25 Q2160.81 1267.6 2162.57 1268.29 Z" fill="#000000" fill-rule="nonzero" fill-opacity="1"></path><path clip-path="url(#clip470)" d="M2170.74 1267.53 L2175 1267.53 L2175 1293.46 L2170.74 1293.46 L2170.74 1267.53 M2170.74 1257.44 L2175 1257.44 L2175 1262.83 L2170.74 1262.83 L2170.74 1257.44 Z" fill="#000000" fill-rule="nonzero" fill-opacity="1"></path><path clip-path="url(#clip470)" d="M2197.04 1257.44 L2197.04 1260.98 L2192.96 1260.98 Q2190.67 1260.98 2189.77 1261.91 Q2188.89 1262.83 2188.89 1265.24 L2188.89 1267.53 L2195.9 1267.53 L2195.9 1270.84 L2188.89 1270.84 L2188.89 1293.46 L2184.6 1293.46 L2184.6 1270.84 L2180.53 1270.84 L2180.53 1267.53 L2184.6 1267.53 L2184.6 1265.72 Q2184.6 1261.4 2186.62 1259.43 Q2188.63 1257.44 2193.01 1257.44 L2197.04 1257.44 Z" fill="#000000" fill-rule="nonzero" fill-opacity="1"></path><path clip-path="url(#clip470)" d="M2200.6 1267.53 L2204.86 1267.53 L2204.86 1293.46 L2200.6 1293.46 L2200.6 1267.53 M2200.6 1257.44 L2204.86 1257.44 L2204.86 1262.83 L2200.6 1262.83 L2200.6 1257.44 Z" fill="#000000" fill-rule="nonzero" fill-opacity="1"></path><path clip-path="url(#clip470)" d="M2235.95 1279.43 L2235.95 1281.51 L2216.36 1281.51 Q2216.64 1285.91 2219 1288.22 Q2221.39 1290.52 2225.62 1290.52 Q2228.08 1290.52 2230.37 1289.91 Q2232.68 1289.31 2234.95 1288.11 L2234.95 1292.14 Q2232.66 1293.11 2230.25 1293.62 Q2227.85 1294.13 2225.37 1294.13 Q2219.16 1294.13 2215.53 1290.52 Q2211.92 1286.91 2211.92 1280.75 Q2211.92 1274.38 2215.35 1270.66 Q2218.79 1266.91 2224.63 1266.91 Q2229.86 1266.91 2232.89 1270.29 Q2235.95 1273.64 2235.95 1279.43 M2231.69 1278.18 Q2231.64 1274.68 2229.72 1272.6 Q2227.82 1270.52 2224.67 1270.52 Q2221.11 1270.52 2218.96 1272.53 Q2216.83 1274.54 2216.5 1278.2 L2231.69 1278.18 Z" fill="#000000" fill-rule="nonzero" fill-opacity="1"></path><path clip-path="url(#clip470)" d="M2257.96 1271.51 Q2257.24 1271.1 2256.39 1270.91 Q2255.55 1270.7 2254.53 1270.7 Q2250.92 1270.7 2248.98 1273.06 Q2247.06 1275.4 2247.06 1279.8 L2247.06 1293.46 L2242.78 1293.46 L2242.78 1267.53 L2247.06 1267.53 L2247.06 1271.56 Q2248.4 1269.2 2250.55 1268.06 Q2252.71 1266.91 2255.78 1266.91 Q2256.22 1266.91 2256.76 1266.97 Q2257.29 1267.02 2257.94 1267.14 L2257.96 1271.51 Z" fill="#000000" fill-rule="nonzero" fill-opacity="1"></path><polyline clip-path="url(#clip470)" style="stroke:#e26f46; stroke-linecap:round; stroke-linejoin:round; stroke-width:4; stroke-opacity:1; fill:none" stroke-dasharray="16, 10" points="1508.42,1328.02 1650.61,1328.02 "></polyline>
<path clip-path="url(#clip470)" d="M1702.18 1313.4 L1702.18 1318.33 Q1699.82 1316.13 1697.13 1315.04 Q1694.47 1313.95 1691.46 1313.95 Q1685.53 1313.95 1682.39 1317.59 Q1679.24 1321.2 1679.24 1328.05 Q1679.24 1334.88 1682.39 1338.51 Q1685.53 1342.12 1691.46 1342.12 Q1694.47 1342.12 1697.13 1341.04 Q1699.82 1339.95 1702.18 1337.75 L1702.18 1342.63 Q1699.72 1344.3 1696.97 1345.13 Q1694.24 1345.97 1691.18 1345.97 Q1683.33 1345.97 1678.82 1341.18 Q1674.31 1336.36 1674.31 1328.05 Q1674.31 1319.72 1678.82 1314.93 Q1683.33 1310.11 1691.18 1310.11 Q1694.28 1310.11 1697.01 1310.94 Q1699.77 1311.75 1702.18 1313.4 Z" fill="#000000" fill-rule="nonzero" fill-opacity="1"></path><path clip-path="url(#clip470)" d="M1719.26 1322.36 Q1715.83 1322.36 1713.84 1325.04 Q1711.85 1327.7 1711.85 1332.36 Q1711.85 1337.01 1713.82 1339.69 Q1715.81 1342.36 1719.26 1342.36 Q1722.66 1342.36 1724.65 1339.67 Q1726.64 1336.99 1726.64 1332.36 Q1726.64 1327.75 1724.65 1325.06 Q1722.66 1322.36 1719.26 1322.36 M1719.26 1318.75 Q1724.82 1318.75 1727.99 1322.36 Q1731.16 1325.97 1731.16 1332.36 Q1731.16 1338.72 1727.99 1342.36 Q1724.82 1345.97 1719.26 1345.97 Q1713.68 1345.97 1710.51 1342.36 Q1707.36 1338.72 1707.36 1332.36 Q1707.36 1325.97 1710.51 1322.36 Q1713.68 1318.75 1719.26 1318.75 Z" fill="#000000" fill-rule="nonzero" fill-opacity="1"></path><path clip-path="url(#clip470)" d="M1759.77 1329.65 L1759.77 1345.3 L1755.51 1345.3 L1755.51 1329.79 Q1755.51 1326.11 1754.07 1324.28 Q1752.64 1322.45 1749.77 1322.45 Q1746.32 1322.45 1744.33 1324.65 Q1742.34 1326.85 1742.34 1330.64 L1742.34 1345.3 L1738.06 1345.3 L1738.06 1319.37 L1742.34 1319.37 L1742.34 1323.4 Q1743.87 1321.06 1745.93 1319.9 Q1748.01 1318.75 1750.72 1318.75 Q1755.19 1318.75 1757.48 1321.52 Q1759.77 1324.28 1759.77 1329.65 Z" fill="#000000" fill-rule="nonzero" fill-opacity="1"></path><path clip-path="url(#clip470)" d="M1784.79 1320.13 L1784.79 1324.16 Q1782.99 1323.24 1781.04 1322.77 Q1779.1 1322.31 1777.01 1322.31 Q1773.84 1322.31 1772.25 1323.28 Q1770.67 1324.25 1770.67 1326.2 Q1770.67 1327.68 1771.81 1328.54 Q1772.94 1329.37 1776.37 1330.13 L1777.82 1330.46 Q1782.36 1331.43 1784.26 1333.21 Q1786.18 1334.97 1786.18 1338.14 Q1786.18 1341.75 1783.31 1343.86 Q1780.46 1345.97 1775.46 1345.97 Q1773.38 1345.97 1771.11 1345.55 Q1768.87 1345.16 1766.37 1344.35 L1766.37 1339.95 Q1768.73 1341.18 1771.02 1341.8 Q1773.31 1342.4 1775.56 1342.4 Q1778.57 1342.4 1780.19 1341.38 Q1781.81 1340.34 1781.81 1338.47 Q1781.81 1336.73 1780.63 1335.81 Q1779.47 1334.88 1775.51 1334.02 L1774.03 1333.68 Q1770.07 1332.84 1768.31 1331.13 Q1766.55 1329.39 1766.55 1326.38 Q1766.55 1322.73 1769.14 1320.74 Q1771.74 1318.75 1776.51 1318.75 Q1778.87 1318.75 1780.95 1319.09 Q1783.03 1319.44 1784.79 1320.13 Z" fill="#000000" fill-rule="nonzero" fill-opacity="1"></path><path clip-path="url(#clip470)" d="M1797.18 1312.01 L1797.18 1319.37 L1805.95 1319.37 L1805.95 1322.68 L1797.18 1322.68 L1797.18 1336.75 Q1797.18 1339.93 1798.03 1340.83 Q1798.91 1341.73 1801.57 1341.73 L1805.95 1341.73 L1805.95 1345.3 L1801.57 1345.3 Q1796.64 1345.3 1794.77 1343.47 Q1792.89 1341.62 1792.89 1336.75 L1792.89 1322.68 L1789.77 1322.68 L1789.77 1319.37 L1792.89 1319.37 L1792.89 1312.01 L1797.18 1312.01 Z" fill="#000000" fill-rule="nonzero" fill-opacity="1"></path><path clip-path="url(#clip470)" d="M1823.33 1332.26 Q1818.17 1332.26 1816.18 1333.44 Q1814.19 1334.63 1814.19 1337.47 Q1814.19 1339.74 1815.67 1341.08 Q1817.18 1342.4 1819.75 1342.4 Q1823.29 1342.4 1825.42 1339.9 Q1827.57 1337.38 1827.57 1333.21 L1827.57 1332.26 L1823.33 1332.26 M1831.83 1330.5 L1831.83 1345.3 L1827.57 1345.3 L1827.57 1341.36 Q1826.11 1343.72 1823.94 1344.86 Q1821.76 1345.97 1818.61 1345.97 Q1814.63 1345.97 1812.27 1343.75 Q1809.93 1341.5 1809.93 1337.75 Q1809.93 1333.38 1812.85 1331.15 Q1815.79 1328.93 1821.6 1328.93 L1827.57 1328.93 L1827.57 1328.51 Q1827.57 1325.57 1825.63 1323.98 Q1823.7 1322.36 1820.21 1322.36 Q1817.99 1322.36 1815.88 1322.89 Q1813.77 1323.42 1811.83 1324.49 L1811.83 1320.55 Q1814.17 1319.65 1816.37 1319.21 Q1818.57 1318.75 1820.65 1318.75 Q1826.27 1318.75 1829.05 1321.66 Q1831.83 1324.58 1831.83 1330.5 Z" fill="#000000" fill-rule="nonzero" fill-opacity="1"></path><path clip-path="url(#clip470)" d="M1862.15 1329.65 L1862.15 1345.3 L1857.89 1345.3 L1857.89 1329.79 Q1857.89 1326.11 1856.46 1324.28 Q1855.02 1322.45 1852.15 1322.45 Q1848.7 1322.45 1846.71 1324.65 Q1844.72 1326.85 1844.72 1330.64 L1844.72 1345.3 L1840.44 1345.3 L1840.44 1319.37 L1844.72 1319.37 L1844.72 1323.4 Q1846.25 1321.06 1848.31 1319.9 Q1850.39 1318.75 1853.1 1318.75 Q1857.57 1318.75 1859.86 1321.52 Q1862.15 1324.28 1862.15 1329.65 Z" fill="#000000" fill-rule="nonzero" fill-opacity="1"></path><path clip-path="url(#clip470)" d="M1874.86 1312.01 L1874.86 1319.37 L1883.63 1319.37 L1883.63 1322.68 L1874.86 1322.68 L1874.86 1336.75 Q1874.86 1339.93 1875.72 1340.83 Q1876.6 1341.73 1879.26 1341.73 L1883.63 1341.73 L1883.63 1345.3 L1879.26 1345.3 Q1874.33 1345.3 1872.45 1343.47 Q1870.58 1341.62 1870.58 1336.75 L1870.58 1322.68 L1867.45 1322.68 L1867.45 1319.37 L1870.58 1319.37 L1870.58 1312.01 L1874.86 1312.01 Z" fill="#000000" fill-rule="nonzero" fill-opacity="1"></path><path clip-path="url(#clip470)" d="M1930.37 1313.4 L1930.37 1318.33 Q1928.01 1316.13 1925.32 1315.04 Q1922.66 1313.95 1919.65 1313.95 Q1913.73 1313.95 1910.58 1317.59 Q1907.43 1321.2 1907.43 1328.05 Q1907.43 1334.88 1910.58 1338.51 Q1913.73 1342.12 1919.65 1342.12 Q1922.66 1342.12 1925.32 1341.04 Q1928.01 1339.95 1930.37 1337.75 L1930.37 1342.63 Q1927.92 1344.3 1925.16 1345.13 Q1922.43 1345.97 1919.37 1345.97 Q1911.53 1345.97 1907.01 1341.18 Q1902.5 1336.36 1902.5 1328.05 Q1902.5 1319.72 1907.01 1314.93 Q1911.53 1310.11 1919.37 1310.11 Q1922.48 1310.11 1925.21 1310.94 Q1927.96 1311.75 1930.37 1313.4 Z" fill="#000000" fill-rule="nonzero" fill-opacity="1"></path><path clip-path="url(#clip470)" d="M1937.41 1309.28 L1941.67 1309.28 L1941.67 1345.3 L1937.41 1345.3 L1937.41 1309.28 Z" fill="#000000" fill-rule="nonzero" fill-opacity="1"></path><path clip-path="url(#clip470)" d="M1962.36 1332.26 Q1957.2 1332.26 1955.21 1333.44 Q1953.22 1334.63 1953.22 1337.47 Q1953.22 1339.74 1954.7 1341.08 Q1956.2 1342.4 1958.77 1342.4 Q1962.31 1342.4 1964.44 1339.9 Q1966.6 1337.38 1966.6 1333.21 L1966.6 1332.26 L1962.36 1332.26 M1970.86 1330.5 L1970.86 1345.3 L1966.6 1345.3 L1966.6 1341.36 Q1965.14 1343.72 1962.96 1344.86 Q1960.79 1345.97 1957.64 1345.97 Q1953.66 1345.97 1951.3 1343.75 Q1948.96 1341.5 1948.96 1337.75 Q1948.96 1333.38 1951.87 1331.15 Q1954.81 1328.93 1960.62 1328.93 L1966.6 1328.93 L1966.6 1328.51 Q1966.6 1325.57 1964.65 1323.98 Q1962.73 1322.36 1959.24 1322.36 Q1957.01 1322.36 1954.91 1322.89 Q1952.8 1323.42 1950.86 1324.49 L1950.86 1320.55 Q1953.19 1319.65 1955.39 1319.21 Q1957.59 1318.75 1959.68 1318.75 Q1965.3 1318.75 1968.08 1321.66 Q1970.86 1324.58 1970.86 1330.5 Z" fill="#000000" fill-rule="nonzero" fill-opacity="1"></path><path clip-path="url(#clip470)" d="M1996.16 1320.13 L1996.16 1324.16 Q1994.35 1323.24 1992.41 1322.77 Q1990.46 1322.31 1988.38 1322.31 Q1985.21 1322.31 1983.61 1323.28 Q1982.04 1324.25 1982.04 1326.2 Q1982.04 1327.68 1983.17 1328.54 Q1984.3 1329.37 1987.73 1330.13 L1989.19 1330.46 Q1993.73 1331.43 1995.62 1333.21 Q1997.55 1334.97 1997.55 1338.14 Q1997.55 1341.75 1994.68 1343.86 Q1991.83 1345.97 1986.83 1345.97 Q1984.74 1345.97 1982.48 1345.55 Q1980.23 1345.16 1977.73 1344.35 L1977.73 1339.95 Q1980.09 1341.18 1982.38 1341.8 Q1984.68 1342.4 1986.92 1342.4 Q1989.93 1342.4 1991.55 1341.38 Q1993.17 1340.34 1993.17 1338.47 Q1993.17 1336.73 1991.99 1335.81 Q1990.83 1334.88 1986.87 1334.02 L1985.39 1333.68 Q1981.43 1332.84 1979.68 1331.13 Q1977.92 1329.39 1977.92 1326.38 Q1977.92 1322.73 1980.51 1320.74 Q1983.1 1318.75 1987.87 1318.75 Q1990.23 1318.75 1992.31 1319.09 Q1994.4 1319.44 1996.16 1320.13 Z" fill="#000000" fill-rule="nonzero" fill-opacity="1"></path><path clip-path="url(#clip470)" d="M2020.86 1320.13 L2020.86 1324.16 Q2019.05 1323.24 2017.11 1322.77 Q2015.16 1322.31 2013.08 1322.31 Q2009.91 1322.31 2008.31 1323.28 Q2006.74 1324.25 2006.74 1326.2 Q2006.74 1327.68 2007.87 1328.54 Q2009 1329.37 2012.43 1330.13 L2013.89 1330.46 Q2018.43 1331.43 2020.32 1333.21 Q2022.24 1334.97 2022.24 1338.14 Q2022.24 1341.75 2019.37 1343.86 Q2016.53 1345.97 2011.53 1345.97 Q2009.44 1345.97 2007.18 1345.55 Q2004.93 1345.16 2002.43 1344.35 L2002.43 1339.95 Q2004.79 1341.18 2007.08 1341.8 Q2009.37 1342.4 2011.62 1342.4 Q2014.63 1342.4 2016.25 1341.38 Q2017.87 1340.34 2017.87 1338.47 Q2017.87 1336.73 2016.69 1335.81 Q2015.53 1334.88 2011.57 1334.02 L2010.09 1333.68 Q2006.13 1332.84 2004.37 1331.13 Q2002.61 1329.39 2002.61 1326.38 Q2002.61 1322.73 2005.21 1320.74 Q2007.8 1318.75 2012.57 1318.75 Q2014.93 1318.75 2017.01 1319.09 Q2019.1 1319.44 2020.86 1320.13 Z" fill="#000000" fill-rule="nonzero" fill-opacity="1"></path><path clip-path="url(#clip470)" d="M2029.03 1319.37 L2033.29 1319.37 L2033.29 1345.3 L2029.03 1345.3 L2029.03 1319.37 M2029.03 1309.28 L2033.29 1309.28 L2033.29 1314.67 L2029.03 1314.67 L2029.03 1309.28 Z" fill="#000000" fill-rule="nonzero" fill-opacity="1"></path><path clip-path="url(#clip470)" d="M2055.32 1309.28 L2055.32 1312.82 L2051.25 1312.82 Q2048.96 1312.82 2048.05 1313.75 Q2047.17 1314.67 2047.17 1317.08 L2047.17 1319.37 L2054.19 1319.37 L2054.19 1322.68 L2047.17 1322.68 L2047.17 1345.3 L2042.89 1345.3 L2042.89 1322.68 L2038.82 1322.68 L2038.82 1319.37 L2042.89 1319.37 L2042.89 1317.56 Q2042.89 1313.24 2044.91 1311.27 Q2046.92 1309.28 2051.3 1309.28 L2055.32 1309.28 Z" fill="#000000" fill-rule="nonzero" fill-opacity="1"></path><path clip-path="url(#clip470)" d="M2058.89 1319.37 L2063.15 1319.37 L2063.15 1345.3 L2058.89 1345.3 L2058.89 1319.37 M2058.89 1309.28 L2063.15 1309.28 L2063.15 1314.67 L2058.89 1314.67 L2058.89 1309.28 Z" fill="#000000" fill-rule="nonzero" fill-opacity="1"></path><path clip-path="url(#clip470)" d="M2094.23 1331.27 L2094.23 1333.35 L2074.65 1333.35 Q2074.93 1337.75 2077.29 1340.06 Q2079.67 1342.36 2083.91 1342.36 Q2086.36 1342.36 2088.66 1341.75 Q2090.97 1341.15 2093.24 1339.95 L2093.24 1343.98 Q2090.95 1344.95 2088.54 1345.46 Q2086.13 1345.97 2083.66 1345.97 Q2077.45 1345.97 2073.82 1342.36 Q2070.21 1338.75 2070.21 1332.59 Q2070.21 1326.22 2073.63 1322.5 Q2077.08 1318.75 2082.92 1318.75 Q2088.15 1318.75 2091.18 1322.13 Q2094.23 1325.48 2094.23 1331.27 M2089.98 1330.02 Q2089.93 1326.52 2088.01 1324.44 Q2086.11 1322.36 2082.96 1322.36 Q2079.4 1322.36 2077.24 1324.37 Q2075.11 1326.38 2074.79 1330.04 L2089.98 1330.02 Z" fill="#000000" fill-rule="nonzero" fill-opacity="1"></path><path clip-path="url(#clip470)" d="M2116.25 1323.35 Q2115.53 1322.94 2114.67 1322.75 Q2113.84 1322.54 2112.82 1322.54 Q2109.21 1322.54 2107.27 1324.9 Q2105.35 1327.24 2105.35 1331.64 L2105.35 1345.3 L2101.06 1345.3 L2101.06 1319.37 L2105.35 1319.37 L2105.35 1323.4 Q2106.69 1321.04 2108.84 1319.9 Q2110.99 1318.75 2114.07 1318.75 Q2114.51 1318.75 2115.04 1318.81 Q2115.58 1318.86 2116.23 1318.98 L2116.25 1323.35 Z" fill="#000000" fill-rule="nonzero" fill-opacity="1"></path></svg>