<svg xmlns="http://www.w3.org/2000/svg" xmlns:xlink="http://www.w3.org/1999/xlink" width="600" height="400" viewBox="0 0 2400 1600">
<defs>
  <clipPath id="clip230">
    <rect x="0" y="0" width="2400" height="1600"></rect>
  </clipPath>
</defs>
<path clip-path="url(#clip230)" d="M0 1600 L2400 1600 L2400 0 L0 0  Z" fill="#ffffff" fill-rule="evenodd" fill-opacity="1"></path>
<defs>
  <clipPath id="clip231">
    <rect x="480" y="0" width="1681" height="1600"></rect>
  </clipPath>
</defs>
<path clip-path="url(#clip230)" d="M203.964 1423.18 L2352.76 1423.18 L2352.76 123.472 L203.964 123.472  Z" fill="#ffffff" fill-rule="evenodd" fill-opacity="1"></path>
<defs>
  <clipPath id="clip232">
    <rect x="203" y="123" width="2150" height="1301"></rect>
  </clipPath>
</defs>
<polyline clip-path="url(#clip232)" style="stroke:#000000; stroke-linecap:round; stroke-linejoin:round; stroke-width:2; stroke-opacity:0.1; fill:none" points="257.999,1423.18 257.999,123.472 "></polyline>
<polyline clip-path="url(#clip232)" style="stroke:#000000; stroke-linecap:round; stroke-linejoin:round; stroke-width:2; stroke-opacity:0.1; fill:none" points="935.979,1423.18 935.979,123.472 "></polyline>
<polyline clip-path="url(#clip232)" style="stroke:#000000; stroke-linecap:round; stroke-linejoin:round; stroke-width:2; stroke-opacity:0.1; fill:none" points="1613.96,1423.18 1613.96,123.472 "></polyline>
<polyline clip-path="url(#clip232)" style="stroke:#000000; stroke-linecap:round; stroke-linejoin:round; stroke-width:2; stroke-opacity:0.1; fill:none" points="2291.94,1423.18 2291.94,123.472 "></polyline>
<polyline clip-path="url(#clip232)" style="stroke:#000000; stroke-linecap:round; stroke-linejoin:round; stroke-width:2; stroke-opacity:0.1; fill:none" points="203.964,1414.91 2352.76,1414.91 "></polyline>
<polyline clip-path="url(#clip232)" style="stroke:#000000; stroke-linecap:round; stroke-linejoin:round; stroke-width:2; stroke-opacity:0.1; fill:none" points="203.964,1066.52 2352.76,1066.52 "></polyline>
<polyline clip-path="url(#clip232)" style="stroke:#000000; stroke-linecap:round; stroke-linejoin:round; stroke-width:2; stroke-opacity:0.1; fill:none" points="203.964,718.122 2352.76,718.122 "></polyline>
<polyline clip-path="url(#clip232)" style="stroke:#000000; stroke-linecap:round; stroke-linejoin:round; stroke-width:2; stroke-opacity:0.1; fill:none" points="203.964,369.728 2352.76,369.728 "></polyline>
<polyline clip-path="url(#clip230)" style="stroke:#000000; stroke-linecap:round; stroke-linejoin:round; stroke-width:4; stroke-opacity:1; fill:none" points="203.964,1423.18 2352.76,1423.18 "></polyline>
<polyline clip-path="url(#clip230)" style="stroke:#000000; stroke-linecap:round; stroke-linejoin:round; stroke-width:4; stroke-opacity:1; fill:none" points="257.999,1423.18 257.999,1404.28 "></polyline>
<polyline clip-path="url(#clip230)" style="stroke:#000000; stroke-linecap:round; stroke-linejoin:round; stroke-width:4; stroke-opacity:1; fill:none" points="935.979,1423.18 935.979,1404.28 "></polyline>
<polyline clip-path="url(#clip230)" style="stroke:#000000; stroke-linecap:round; stroke-linejoin:round; stroke-width:4; stroke-opacity:1; fill:none" points="1613.96,1423.18 1613.96,1404.28 "></polyline>
<polyline clip-path="url(#clip230)" style="stroke:#000000; stroke-linecap:round; stroke-linejoin:round; stroke-width:4; stroke-opacity:1; fill:none" points="2291.94,1423.18 2291.94,1404.28 "></polyline>
<path clip-path="url(#clip230)" d="M257.999 1454.1 Q254.388 1454.1 252.559 1457.66 Q250.753 1461.2 250.753 1468.33 Q250.753 1475.44 252.559 1479.01 Q254.388 1482.55 257.999 1482.55 Q261.633 1482.55 263.438 1479.01 Q265.267 1475.44 265.267 1468.33 Q265.267 1461.2 263.438 1457.66 Q261.633 1454.1 257.999 1454.1 M257.999 1450.39 Q263.809 1450.39 266.864 1455 Q269.943 1459.58 269.943 1468.33 Q269.943 1477.06 266.864 1481.67 Q263.809 1486.25 257.999 1486.25 Q252.188 1486.25 249.11 1481.67 Q246.054 1477.06 246.054 1468.33 Q246.054 1459.58 249.11 1455 Q252.188 1450.39 257.999 1450.39 Z" fill="#000000" fill-rule="nonzero" fill-opacity="1"></path><path clip-path="url(#clip230)" d="M895.586 1481.64 L903.225 1481.64 L903.225 1455.28 L894.915 1456.95 L894.915 1452.69 L903.179 1451.02 L907.855 1451.02 L907.855 1481.64 L915.493 1481.64 L915.493 1485.58 L895.586 1485.58 L895.586 1481.64 Z" fill="#000000" fill-rule="nonzero" fill-opacity="1"></path><path clip-path="url(#clip230)" d="M934.938 1454.1 Q931.327 1454.1 929.498 1457.66 Q927.692 1461.2 927.692 1468.33 Q927.692 1475.44 929.498 1479.01 Q931.327 1482.55 934.938 1482.55 Q938.572 1482.55 940.378 1479.01 Q942.206 1475.44 942.206 1468.33 Q942.206 1461.2 940.378 1457.66 Q938.572 1454.1 934.938 1454.1 M934.938 1450.39 Q940.748 1450.39 943.803 1455 Q946.882 1459.58 946.882 1468.33 Q946.882 1477.06 943.803 1481.67 Q940.748 1486.25 934.938 1486.25 Q929.128 1486.25 926.049 1481.67 Q922.993 1477.06 922.993 1468.33 Q922.993 1459.58 926.049 1455 Q929.128 1450.39 934.938 1450.39 Z" fill="#000000" fill-rule="nonzero" fill-opacity="1"></path><path clip-path="url(#clip230)" d="M965.1 1454.1 Q961.489 1454.1 959.66 1457.66 Q957.854 1461.2 957.854 1468.33 Q957.854 1475.44 959.66 1479.01 Q961.489 1482.55 965.1 1482.55 Q968.734 1482.55 970.539 1479.01 Q972.368 1475.44 972.368 1468.33 Q972.368 1461.2 970.539 1457.66 Q968.734 1454.1 965.1 1454.1 M965.1 1450.39 Q970.91 1450.39 973.965 1455 Q977.044 1459.58 977.044 1468.33 Q977.044 1477.06 973.965 1481.67 Q970.91 1486.25 965.1 1486.25 Q959.289 1486.25 956.211 1481.67 Q953.155 1477.06 953.155 1468.33 Q953.155 1459.58 956.211 1455 Q959.289 1450.39 965.1 1450.39 Z" fill="#000000" fill-rule="nonzero" fill-opacity="1"></path><path clip-path="url(#clip230)" d="M1577.65 1481.64 L1593.97 1481.64 L1593.97 1485.58 L1572.03 1485.58 L1572.03 1481.64 Q1574.69 1478.89 1579.27 1474.26 Q1583.88 1469.61 1585.06 1468.27 Q1587.31 1465.74 1588.18 1464.01 Q1589.09 1462.25 1589.09 1460.56 Q1589.09 1457.8 1587.14 1456.07 Q1585.22 1454.33 1582.12 1454.33 Q1579.92 1454.33 1577.47 1455.09 Q1575.04 1455.86 1572.26 1457.41 L1572.26 1452.69 Q1575.08 1451.55 1577.54 1450.97 Q1579.99 1450.39 1582.03 1450.39 Q1587.4 1450.39 1590.59 1453.08 Q1593.79 1455.77 1593.79 1460.26 Q1593.79 1462.39 1592.98 1464.31 Q1592.19 1466.2 1590.08 1468.8 Q1589.5 1469.47 1586.4 1472.69 Q1583.3 1475.88 1577.65 1481.64 Z" fill="#000000" fill-rule="nonzero" fill-opacity="1"></path><path clip-path="url(#clip230)" d="M1613.79 1454.1 Q1610.18 1454.1 1608.35 1457.66 Q1606.54 1461.2 1606.54 1468.33 Q1606.54 1475.44 1608.35 1479.01 Q1610.18 1482.55 1613.79 1482.55 Q1617.42 1482.55 1619.23 1479.01 Q1621.06 1475.44 1621.06 1468.33 Q1621.06 1461.2 1619.23 1457.66 Q1617.42 1454.1 1613.79 1454.1 M1613.79 1450.39 Q1619.6 1450.39 1622.65 1455 Q1625.73 1459.58 1625.73 1468.33 Q1625.73 1477.06 1622.65 1481.67 Q1619.6 1486.25 1613.79 1486.25 Q1607.98 1486.25 1604.9 1481.67 Q1601.84 1477.06 1601.84 1468.33 Q1601.84 1459.58 1604.9 1455 Q1607.98 1450.39 1613.79 1450.39 Z" fill="#000000" fill-rule="nonzero" fill-opacity="1"></path><path clip-path="url(#clip230)" d="M1643.95 1454.1 Q1640.34 1454.1 1638.51 1457.66 Q1636.7 1461.2 1636.7 1468.33 Q1636.7 1475.44 1638.51 1479.01 Q1640.34 1482.55 1643.95 1482.55 Q1647.58 1482.55 1649.39 1479.01 Q1651.22 1475.44 1651.22 1468.33 Q1651.22 1461.2 1649.39 1457.66 Q1647.58 1454.1 1643.95 1454.1 M1643.95 1450.39 Q1649.76 1450.39 1652.81 1455 Q1655.89 1459.58 1655.89 1468.33 Q1655.89 1477.06 1652.81 1481.67 Q1649.76 1486.25 1643.95 1486.25 Q1638.14 1486.25 1635.06 1481.67 Q1632 1477.06 1632 1468.33 Q1632 1459.58 1635.06 1455 Q1638.14 1450.39 1643.95 1450.39 Z" fill="#000000" fill-rule="nonzero" fill-opacity="1"></path><path clip-path="url(#clip230)" d="M2265.7 1466.95 Q2269.06 1467.66 2270.93 1469.93 Q2272.83 1472.2 2272.83 1475.53 Q2272.83 1480.65 2269.31 1483.45 Q2265.8 1486.25 2259.31 1486.25 Q2257.14 1486.25 2254.82 1485.81 Q2252.53 1485.39 2250.08 1484.54 L2250.08 1480.02 Q2252.02 1481.16 2254.34 1481.74 Q2256.65 1482.32 2259.18 1482.32 Q2263.57 1482.32 2265.86 1480.58 Q2268.18 1478.84 2268.18 1475.53 Q2268.18 1472.48 2266.03 1470.77 Q2263.9 1469.03 2260.08 1469.03 L2256.05 1469.03 L2256.05 1465.19 L2260.26 1465.19 Q2263.71 1465.19 2265.54 1463.82 Q2267.37 1462.43 2267.37 1459.84 Q2267.37 1457.18 2265.47 1455.77 Q2263.6 1454.33 2260.08 1454.33 Q2258.16 1454.33 2255.96 1454.75 Q2253.76 1455.16 2251.12 1456.04 L2251.12 1451.88 Q2253.78 1451.14 2256.1 1450.77 Q2258.43 1450.39 2260.49 1450.39 Q2265.82 1450.39 2268.92 1452.83 Q2272.02 1455.23 2272.02 1459.35 Q2272.02 1462.22 2270.38 1464.21 Q2268.74 1466.18 2265.7 1466.95 Z" fill="#000000" fill-rule="nonzero" fill-opacity="1"></path><path clip-path="url(#clip230)" d="M2291.7 1454.1 Q2288.09 1454.1 2286.26 1457.66 Q2284.45 1461.2 2284.45 1468.33 Q2284.45 1475.44 2286.26 1479.01 Q2288.09 1482.55 2291.7 1482.55 Q2295.33 1482.55 2297.14 1479.01 Q2298.97 1475.44 2298.97 1468.33 Q2298.97 1461.2 2297.14 1457.66 Q2295.33 1454.1 2291.7 1454.1 M2291.7 1450.39 Q2297.51 1450.39 2300.56 1455 Q2303.64 1459.58 2303.64 1468.33 Q2303.64 1477.06 2300.56 1481.67 Q2297.51 1486.25 2291.7 1486.25 Q2285.89 1486.25 2282.81 1481.67 Q2279.75 1477.06 2279.75 1468.33 Q2279.75 1459.58 2282.81 1455 Q2285.89 1450.39 2291.7 1450.39 Z" fill="#000000" fill-rule="nonzero" fill-opacity="1"></path><path clip-path="url(#clip230)" d="M2321.86 1454.1 Q2318.25 1454.1 2316.42 1457.66 Q2314.61 1461.2 2314.61 1468.33 Q2314.61 1475.44 2316.42 1479.01 Q2318.25 1482.55 2321.86 1482.55 Q2325.49 1482.55 2327.3 1479.01 Q2329.13 1475.44 2329.13 1468.33 Q2329.13 1461.2 2327.3 1457.66 Q2325.49 1454.1 2321.86 1454.1 M2321.86 1450.39 Q2327.67 1450.39 2330.73 1455 Q2333.8 1459.58 2333.8 1468.33 Q2333.8 1477.06 2330.73 1481.67 Q2327.67 1486.25 2321.86 1486.25 Q2316.05 1486.25 2312.97 1481.67 Q2309.92 1477.06 2309.92 1468.33 Q2309.92 1459.58 2312.97 1455 Q2316.05 1450.39 2321.86 1450.39 Z" fill="#000000" fill-rule="nonzero" fill-opacity="1"></path><path clip-path="url(#clip230)" d="M1198.55 1548.76 L1198.55 1551.62 L1171.62 1551.62 Q1172 1557.67 1175.25 1560.85 Q1178.53 1564 1184.35 1564 Q1187.73 1564 1190.88 1563.17 Q1194.06 1562.35 1197.18 1560.69 L1197.18 1566.23 Q1194.03 1567.57 1190.72 1568.27 Q1187.41 1568.97 1184 1568.97 Q1175.47 1568.97 1170.48 1564 Q1165.51 1559.04 1165.51 1550.57 Q1165.51 1541.82 1170.22 1536.69 Q1174.96 1531.54 1182.99 1531.54 Q1190.18 1531.54 1194.35 1536.18 Q1198.55 1540.8 1198.55 1548.76 M1192.69 1547.04 Q1192.63 1542.23 1189.99 1539.37 Q1187.38 1536.5 1183.05 1536.5 Q1178.15 1536.5 1175.19 1539.27 Q1172.26 1542.04 1171.81 1547.07 L1192.69 1547.04 Z" fill="#000000" fill-rule="nonzero" fill-opacity="1"></path><path clip-path="url(#clip230)" d="M1213.83 1562.7 L1213.83 1581.6 L1207.94 1581.6 L1207.94 1532.4 L1213.83 1532.4 L1213.83 1537.81 Q1215.67 1534.62 1218.47 1533.1 Q1221.31 1531.54 1225.22 1531.54 Q1231.72 1531.54 1235.76 1536.69 Q1239.83 1541.85 1239.83 1550.25 Q1239.83 1558.65 1235.76 1563.81 Q1231.72 1568.97 1225.22 1568.97 Q1221.31 1568.97 1218.47 1567.44 Q1215.67 1565.88 1213.83 1562.7 M1233.75 1550.25 Q1233.75 1543.79 1231.08 1540.13 Q1228.44 1536.44 1223.79 1536.44 Q1219.14 1536.44 1216.47 1540.13 Q1213.83 1543.79 1213.83 1550.25 Q1213.83 1556.71 1216.47 1560.4 Q1219.14 1564.07 1223.79 1564.07 Q1228.44 1564.07 1231.08 1560.4 Q1233.75 1556.71 1233.75 1550.25 Z" fill="#000000" fill-rule="nonzero" fill-opacity="1"></path><path clip-path="url(#clip230)" d="M1263.35 1536.5 Q1258.64 1536.5 1255.9 1540.19 Q1253.17 1543.85 1253.17 1550.25 Q1253.17 1556.65 1255.87 1560.34 Q1258.61 1564 1263.35 1564 Q1268.03 1564 1270.77 1560.31 Q1273.51 1556.62 1273.51 1550.25 Q1273.51 1543.92 1270.77 1540.23 Q1268.03 1536.5 1263.35 1536.5 M1263.35 1531.54 Q1270.99 1531.54 1275.35 1536.5 Q1279.71 1541.47 1279.71 1550.25 Q1279.71 1559 1275.35 1564 Q1270.99 1568.97 1263.35 1568.97 Q1255.68 1568.97 1251.32 1564 Q1246.99 1559 1246.99 1550.25 Q1246.99 1541.47 1251.32 1536.5 Q1255.68 1531.54 1263.35 1531.54 Z" fill="#000000" fill-rule="nonzero" fill-opacity="1"></path><path clip-path="url(#clip230)" d="M1315.07 1533.76 L1315.07 1539.24 Q1312.59 1537.87 1310.08 1537.2 Q1307.59 1536.5 1305.05 1536.5 Q1299.35 1536.5 1296.2 1540.13 Q1293.05 1543.73 1293.05 1550.25 Q1293.05 1556.78 1296.2 1560.4 Q1299.35 1564 1305.05 1564 Q1307.59 1564 1310.08 1563.33 Q1312.59 1562.63 1315.07 1561.26 L1315.07 1566.68 Q1312.62 1567.82 1309.98 1568.39 Q1307.37 1568.97 1304.41 1568.97 Q1296.36 1568.97 1291.62 1563.91 Q1286.87 1558.85 1286.87 1550.25 Q1286.87 1541.53 1291.65 1536.53 Q1296.45 1531.54 1304.79 1531.54 Q1307.5 1531.54 1310.08 1532.11 Q1312.65 1532.65 1315.07 1533.76 Z" fill="#000000" fill-rule="nonzero" fill-opacity="1"></path><path clip-path="url(#clip230)" d="M1354.89 1546.53 L1354.89 1568.04 L1349.03 1568.04 L1349.03 1546.72 Q1349.03 1541.66 1347.06 1539.14 Q1345.09 1536.63 1341.14 1536.63 Q1336.4 1536.63 1333.66 1539.65 Q1330.92 1542.68 1330.92 1547.9 L1330.92 1568.04 L1325.04 1568.04 L1325.04 1518.52 L1330.92 1518.52 L1330.92 1537.93 Q1333.03 1534.72 1335.86 1533.13 Q1338.72 1531.54 1342.45 1531.54 Q1348.59 1531.54 1351.74 1535.36 Q1354.89 1539.14 1354.89 1546.53 Z" fill="#000000" fill-rule="nonzero" fill-opacity="1"></path><path clip-path="url(#clip230)" d="M1389.3 1533.45 L1389.3 1538.98 Q1386.82 1537.71 1384.14 1537.07 Q1381.47 1536.44 1378.6 1536.44 Q1374.24 1536.44 1372.05 1537.77 Q1369.88 1539.11 1369.88 1541.79 Q1369.88 1543.82 1371.44 1545 Q1373 1546.15 1377.71 1547.2 L1379.72 1547.64 Q1385.96 1548.98 1388.57 1551.43 Q1391.21 1553.85 1391.21 1558.21 Q1391.21 1563.17 1387.26 1566.07 Q1383.35 1568.97 1376.47 1568.97 Q1373.61 1568.97 1370.49 1568.39 Q1367.4 1567.85 1363.96 1566.74 L1363.96 1560.69 Q1367.21 1562.38 1370.36 1563.24 Q1373.51 1564.07 1376.6 1564.07 Q1380.74 1564.07 1382.96 1562.66 Q1385.19 1561.23 1385.19 1558.65 Q1385.19 1556.27 1383.57 1554.99 Q1381.98 1553.72 1376.53 1552.54 L1374.5 1552.07 Q1369.06 1550.92 1366.64 1548.56 Q1364.22 1546.18 1364.22 1542.04 Q1364.22 1537.01 1367.78 1534.27 Q1371.35 1531.54 1377.9 1531.54 Q1381.15 1531.54 1384.01 1532.01 Q1386.88 1532.49 1389.3 1533.45 Z" fill="#000000" fill-rule="nonzero" fill-opacity="1"></path><polyline clip-path="url(#clip230)" style="stroke:#000000; stroke-linecap:round; stroke-linejoin:round; stroke-width:4; stroke-opacity:1; fill:none" points="203.964,1423.18 203.964,123.472 "></polyline>
<polyline clip-path="url(#clip230)" style="stroke:#000000; stroke-linecap:round; stroke-linejoin:round; stroke-width:4; stroke-opacity:1; fill:none" points="203.964,1414.91 222.861,1414.91 "></polyline>
<polyline clip-path="url(#clip230)" style="stroke:#000000; stroke-linecap:round; stroke-linejoin:round; stroke-width:4; stroke-opacity:1; fill:none" points="203.964,1066.52 222.861,1066.52 "></polyline>
<polyline clip-path="url(#clip230)" style="stroke:#000000; stroke-linecap:round; stroke-linejoin:round; stroke-width:4; stroke-opacity:1; fill:none" points="203.964,718.122 222.861,718.122 "></polyline>
<polyline clip-path="url(#clip230)" style="stroke:#000000; stroke-linecap:round; stroke-linejoin:round; stroke-width:4; stroke-opacity:1; fill:none" points="203.964,369.728 222.861,369.728 "></polyline>
<path clip-path="url(#clip230)" d="M156.019 1400.71 Q152.408 1400.71 150.579 1404.28 Q148.774 1407.82 148.774 1414.95 Q148.774 1422.05 150.579 1425.62 Q152.408 1429.16 156.019 1429.16 Q159.653 1429.16 161.459 1425.62 Q163.288 1422.05 163.288 1414.95 Q163.288 1407.82 161.459 1404.28 Q159.653 1400.71 156.019 1400.71 M156.019 1397.01 Q161.829 1397.01 164.885 1401.61 Q167.964 1406.2 167.964 1414.95 Q167.964 1423.67 164.885 1428.28 Q161.829 1432.86 156.019 1432.86 Q150.209 1432.86 147.13 1428.28 Q144.075 1423.67 144.075 1414.95 Q144.075 1406.2 147.13 1401.61 Q150.209 1397.01 156.019 1397.01 Z" fill="#000000" fill-rule="nonzero" fill-opacity="1"></path><path clip-path="url(#clip230)" d="M116.668 1079.86 L124.306 1079.86 L124.306 1053.5 L115.996 1055.16 L115.996 1050.9 L124.26 1049.24 L128.936 1049.24 L128.936 1079.86 L136.575 1079.86 L136.575 1083.8 L116.668 1083.8 L116.668 1079.86 Z" fill="#000000" fill-rule="nonzero" fill-opacity="1"></path><path clip-path="url(#clip230)" d="M156.019 1052.32 Q152.408 1052.32 150.579 1055.88 Q148.774 1059.42 148.774 1066.55 Q148.774 1073.66 150.579 1077.22 Q152.408 1080.76 156.019 1080.76 Q159.653 1080.76 161.459 1077.22 Q163.288 1073.66 163.288 1066.55 Q163.288 1059.42 161.459 1055.88 Q159.653 1052.32 156.019 1052.32 M156.019 1048.61 Q161.829 1048.61 164.885 1053.22 Q167.964 1057.8 167.964 1066.55 Q167.964 1075.28 164.885 1079.89 Q161.829 1084.47 156.019 1084.47 Q150.209 1084.47 147.13 1079.89 Q144.075 1075.28 144.075 1066.55 Q144.075 1057.8 147.13 1053.22 Q150.209 1048.61 156.019 1048.61 Z" fill="#000000" fill-rule="nonzero" fill-opacity="1"></path><path clip-path="url(#clip230)" d="M119.885 731.467 L136.204 731.467 L136.204 735.402 L114.26 735.402 L114.26 731.467 Q116.922 728.713 121.505 724.083 Q126.112 719.43 127.292 718.088 Q129.538 715.565 130.417 713.828 Q131.32 712.069 131.32 710.379 Q131.32 707.625 129.376 705.889 Q127.455 704.153 124.353 704.153 Q122.154 704.153 119.7 704.916 Q117.269 705.68 114.492 707.231 L114.492 702.509 Q117.316 701.375 119.769 700.796 Q122.223 700.217 124.26 700.217 Q129.63 700.217 132.825 702.903 Q136.019 705.588 136.019 710.078 Q136.019 712.208 135.209 714.129 Q134.422 716.028 132.316 718.62 Q131.737 719.291 128.635 722.509 Q125.533 725.703 119.885 731.467 Z" fill="#000000" fill-rule="nonzero" fill-opacity="1"></path><path clip-path="url(#clip230)" d="M156.019 703.921 Q152.408 703.921 150.579 707.486 Q148.774 711.028 148.774 718.157 Q148.774 725.264 150.579 728.828 Q152.408 732.37 156.019 732.37 Q159.653 732.37 161.459 728.828 Q163.288 725.264 163.288 718.157 Q163.288 711.028 161.459 707.486 Q159.653 703.921 156.019 703.921 M156.019 700.217 Q161.829 700.217 164.885 704.824 Q167.964 709.407 167.964 718.157 Q167.964 726.884 164.885 731.49 Q161.829 736.074 156.019 736.074 Q150.209 736.074 147.13 731.49 Q144.075 726.884 144.075 718.157 Q144.075 709.407 147.13 704.824 Q150.209 700.217 156.019 700.217 Z" fill="#000000" fill-rule="nonzero" fill-opacity="1"></path><path clip-path="url(#clip230)" d="M130.024 368.374 Q133.38 369.091 135.255 371.36 Q137.154 373.628 137.154 376.961 Q137.154 382.077 133.635 384.878 Q130.117 387.679 123.635 387.679 Q121.459 387.679 119.144 387.239 Q116.853 386.823 114.399 385.966 L114.399 381.452 Q116.343 382.586 118.658 383.165 Q120.973 383.744 123.496 383.744 Q127.894 383.744 130.186 382.008 Q132.501 380.272 132.501 376.961 Q132.501 373.906 130.348 372.193 Q128.218 370.457 124.399 370.457 L120.371 370.457 L120.371 366.614 L124.584 366.614 Q128.033 366.614 129.862 365.249 Q131.691 363.86 131.691 361.267 Q131.691 358.605 129.792 357.193 Q127.917 355.758 124.399 355.758 Q122.478 355.758 120.279 356.175 Q118.08 356.591 115.441 357.471 L115.441 353.304 Q118.103 352.563 120.418 352.193 Q122.755 351.823 124.816 351.823 Q130.14 351.823 133.242 354.253 Q136.343 356.661 136.343 360.781 Q136.343 363.651 134.7 365.642 Q133.056 367.61 130.024 368.374 Z" fill="#000000" fill-rule="nonzero" fill-opacity="1"></path><path clip-path="url(#clip230)" d="M156.019 355.526 Q152.408 355.526 150.579 359.091 Q148.774 362.633 148.774 369.762 Q148.774 376.869 150.579 380.434 Q152.408 383.975 156.019 383.975 Q159.653 383.975 161.459 380.434 Q163.288 376.869 163.288 369.762 Q163.288 362.633 161.459 359.091 Q159.653 355.526 156.019 355.526 M156.019 351.823 Q161.829 351.823 164.885 356.429 Q167.964 361.012 167.964 369.762 Q167.964 378.489 164.885 383.096 Q161.829 387.679 156.019 387.679 Q150.209 387.679 147.13 383.096 Q144.075 378.489 144.075 369.762 Q144.075 361.012 147.13 356.429 Q150.209 351.823 156.019 351.823 Z" fill="#000000" fill-rule="nonzero" fill-opacity="1"></path><path clip-path="url(#clip230)" d="M16.4842 908.597 L16.4842 902.168 L58.5933 902.168 L58.5933 879.029 L64.0042 879.029 L64.0042 908.597 L16.4842 908.597 Z" fill="#000000" fill-rule="nonzero" fill-opacity="1"></path><path clip-path="url(#clip230)" d="M32.4621 859.868 Q32.4621 864.578 36.1542 867.316 Q39.8145 870.053 46.212 870.053 Q52.6095 870.053 56.3017 867.347 Q59.9619 864.61 59.9619 859.868 Q59.9619 855.189 56.2698 852.452 Q52.5777 849.714 46.212 849.714 Q39.8781 849.714 36.186 852.452 Q32.4621 855.189 32.4621 859.868 M27.4968 859.868 Q27.4968 852.229 32.4621 847.868 Q37.4273 843.508 46.212 843.508 Q54.9649 843.508 59.9619 847.868 Q64.9272 852.229 64.9272 859.868 Q64.9272 867.538 59.9619 871.899 Q54.9649 876.228 46.212 876.228 Q37.4273 876.228 32.4621 871.899 Q27.4968 867.538 27.4968 859.868 Z" fill="#000000" fill-rule="nonzero" fill-opacity="1"></path><path clip-path="url(#clip230)" d="M45.7664 810.343 Q39.4007 810.343 35.8996 812.984 Q32.3984 815.594 32.3984 820.337 Q32.3984 825.047 35.8996 827.689 Q39.4007 830.299 45.7664 830.299 Q52.1003 830.299 55.6014 827.689 Q59.1026 825.047 59.1026 820.337 Q59.1026 815.594 55.6014 812.984 Q52.1003 810.343 45.7664 810.343 M59.58 804.486 Q68.683 804.486 73.1071 808.528 Q77.5631 812.571 77.5631 820.91 Q77.5631 823.997 77.0857 826.734 Q76.6401 829.472 75.6852 832.05 L69.9879 832.05 Q71.3884 829.472 72.0568 826.957 Q72.7252 824.443 72.7252 821.833 Q72.7252 816.072 69.7015 813.207 Q66.7096 810.343 60.6303 810.343 L57.7339 810.343 Q60.885 812.157 62.4446 814.99 Q64.0042 817.822 64.0042 821.769 Q64.0042 828.326 59.0071 832.336 Q54.01 836.346 45.7664 836.346 Q37.491 836.346 32.4939 832.336 Q27.4968 828.326 27.4968 821.769 Q27.4968 817.822 29.0564 814.99 Q30.616 812.157 33.7671 810.343 L28.3562 810.343 L28.3562 804.486 L59.58 804.486 Z" fill="#000000" fill-rule="nonzero" fill-opacity="1"></path><path clip-path="url(#clip230)" d="M16.4842 771.448 L16.4842 765.019 L58.5933 765.019 L58.5933 741.879 L64.0042 741.879 L64.0042 771.448 L16.4842 771.448 Z" fill="#000000" fill-rule="nonzero" fill-opacity="1"></path><path clip-path="url(#clip230)" d="M32.4621 722.719 Q32.4621 727.429 36.1542 730.166 Q39.8145 732.904 46.212 732.904 Q52.6095 732.904 56.3017 730.198 Q59.9619 727.461 59.9619 722.719 Q59.9619 718.04 56.2698 715.303 Q52.5777 712.565 46.212 712.565 Q39.8781 712.565 36.186 715.303 Q32.4621 718.04 32.4621 722.719 M27.4968 722.719 Q27.4968 715.08 32.4621 710.719 Q37.4273 706.359 46.212 706.359 Q54.9649 706.359 59.9619 710.719 Q64.9272 715.08 64.9272 722.719 Q64.9272 730.389 59.9619 734.75 Q54.9649 739.078 46.212 739.078 Q37.4273 739.078 32.4621 734.75 Q27.4968 730.389 27.4968 722.719 Z" fill="#000000" fill-rule="nonzero" fill-opacity="1"></path><path clip-path="url(#clip230)" d="M29.4065 673.925 L34.9447 673.925 Q33.6716 676.408 33.035 679.082 Q32.3984 681.755 32.3984 684.62 Q32.3984 688.98 33.7352 691.177 Q35.072 693.341 37.7456 693.341 Q39.7826 693.341 40.9603 691.781 Q42.1061 690.222 43.1565 685.511 L43.6021 683.506 Q44.9389 677.267 47.3897 674.658 Q49.8086 672.016 54.1691 672.016 Q59.1344 672.016 62.0308 675.963 Q64.9272 679.877 64.9272 686.752 Q64.9272 689.617 64.3543 692.736 Q63.8132 695.824 62.6992 699.261 L56.6518 699.261 Q58.3387 696.014 59.198 692.863 Q60.0256 689.712 60.0256 686.625 Q60.0256 682.487 58.6251 680.259 Q57.1929 678.031 54.6147 678.031 Q52.2276 678.031 50.9545 679.655 Q49.6813 681.246 48.5037 686.689 L48.0262 688.726 Q46.8804 694.168 44.5251 696.587 Q42.138 699.006 38.0002 699.006 Q32.9713 699.006 30.2341 695.442 Q27.4968 691.877 27.4968 685.32 Q27.4968 682.074 27.9743 679.209 Q28.4517 676.344 29.4065 673.925 Z" fill="#000000" fill-rule="nonzero" fill-opacity="1"></path><path clip-path="url(#clip230)" d="M29.4065 639.964 L34.9447 639.964 Q33.6716 642.447 33.035 645.121 Q32.3984 647.794 32.3984 650.659 Q32.3984 655.019 33.7352 657.215 Q35.072 659.38 37.7456 659.38 Q39.7826 659.38 40.9603 657.82 Q42.1061 656.261 43.1565 651.55 L43.6021 649.545 Q44.9389 643.306 47.3897 640.696 Q49.8086 638.055 54.1691 638.055 Q59.1344 638.055 62.0308 642.001 Q64.9272 645.916 64.9272 652.791 Q64.9272 655.656 64.3543 658.775 Q63.8132 661.862 62.6992 665.3 L56.6518 665.3 Q58.3387 662.053 59.198 658.902 Q60.0256 655.751 60.0256 652.664 Q60.0256 648.526 58.6251 646.298 Q57.1929 644.07 54.6147 644.07 Q52.2276 644.07 50.9545 645.694 Q49.6813 647.285 48.5037 652.728 L48.0262 654.765 Q46.8804 660.207 44.5251 662.626 Q42.138 665.045 38.0002 665.045 Q32.9713 665.045 30.2341 661.481 Q27.4968 657.916 27.4968 651.359 Q27.4968 648.113 27.9743 645.248 Q28.4517 642.383 29.4065 639.964 Z" fill="#000000" fill-rule="nonzero" fill-opacity="1"></path><path clip-path="url(#clip230)" d="M968.992 12.096 L977.175 12.096 L977.175 65.6895 L1006.63 65.6895 L1006.63 72.576 L968.992 72.576 L968.992 12.096 Z" fill="#000000" fill-rule="nonzero" fill-opacity="1"></path><path clip-path="url(#clip230)" d="M1052.24 48.0275 L1052.24 51.6733 L1017.97 51.6733 Q1018.45 59.3701 1022.59 63.421 Q1026.76 67.4314 1034.17 67.4314 Q1038.47 67.4314 1042.48 66.3781 Q1046.53 65.3249 1050.5 63.2184 L1050.5 70.267 Q1046.49 71.9684 1042.27 72.8596 Q1038.06 73.7508 1033.73 73.7508 Q1022.87 73.7508 1016.51 67.4314 Q1010.19 61.1119 1010.19 50.3365 Q1010.19 39.1965 1016.19 32.6746 Q1022.22 26.1121 1032.43 26.1121 Q1041.58 26.1121 1046.89 32.0264 Q1052.24 37.9003 1052.24 48.0275 M1044.78 45.84 Q1044.7 39.7232 1041.34 36.0774 Q1038.02 32.4315 1032.51 32.4315 Q1026.27 32.4315 1022.5 35.9558 Q1018.78 39.4801 1018.21 45.8805 L1044.78 45.84 Z" fill="#000000" fill-rule="nonzero" fill-opacity="1"></path><path clip-path="url(#clip230)" d="M1085.09 49.7694 Q1076.06 49.7694 1072.57 51.8354 Q1069.09 53.9013 1069.09 58.8839 Q1069.09 62.8538 1071.68 65.2034 Q1074.32 67.5124 1078.81 67.5124 Q1085.01 67.5124 1088.74 63.1374 Q1092.5 58.7219 1092.5 51.4303 L1092.5 49.7694 L1085.09 49.7694 M1099.96 46.6907 L1099.96 72.576 L1092.5 72.576 L1092.5 65.6895 Q1089.95 69.8214 1086.14 71.8063 Q1082.34 73.7508 1076.83 73.7508 Q1069.86 73.7508 1065.73 69.8619 Q1061.64 65.9325 1061.64 59.3701 Q1061.64 51.7138 1066.74 47.825 Q1071.89 43.9361 1082.05 43.9361 L1092.5 43.9361 L1092.5 43.2069 Q1092.5 38.0623 1089.1 35.2672 Q1085.74 32.4315 1079.62 32.4315 Q1075.73 32.4315 1072.05 33.3632 Q1068.36 34.295 1064.96 36.1584 L1064.96 29.2718 Q1069.05 27.692 1072.9 26.9223 Q1076.75 26.1121 1080.39 26.1121 Q1090.24 26.1121 1095.1 31.2163 Q1099.96 36.3204 1099.96 46.6907 Z" fill="#000000" fill-rule="nonzero" fill-opacity="1"></path><path clip-path="url(#clip230)" d="M1141.6 34.1734 Q1140.35 33.4443 1138.85 33.1202 Q1137.39 32.7556 1135.61 32.7556 Q1129.29 32.7556 1125.88 36.8875 Q1122.52 40.9789 1122.52 48.6757 L1122.52 72.576 L1115.03 72.576 L1115.03 27.2059 L1122.52 27.2059 L1122.52 34.2544 Q1124.87 30.1225 1128.64 28.1376 Q1132.41 26.1121 1137.79 26.1121 Q1138.56 26.1121 1139.49 26.2337 Q1140.43 26.3147 1141.56 26.5172 L1141.6 34.1734 Z" fill="#000000" fill-rule="nonzero" fill-opacity="1"></path><path clip-path="url(#clip230)" d="M1185.68 45.1919 L1185.68 72.576 L1178.22 72.576 L1178.22 45.4349 Q1178.22 38.994 1175.71 35.7938 Q1173.2 32.5936 1168.18 32.5936 Q1162.14 32.5936 1158.66 36.4419 Q1155.17 40.2903 1155.17 46.9338 L1155.17 72.576 L1147.68 72.576 L1147.68 27.2059 L1155.17 27.2059 L1155.17 34.2544 Q1157.85 30.163 1161.45 28.1376 Q1165.1 26.1121 1169.84 26.1121 Q1177.65 26.1121 1181.66 30.9732 Q1185.68 35.7938 1185.68 45.1919 Z" fill="#000000" fill-rule="nonzero" fill-opacity="1"></path><path clip-path="url(#clip230)" d="M1200.54 27.2059 L1208 27.2059 L1208 72.576 L1200.54 72.576 L1200.54 27.2059 M1200.54 9.54393 L1208 9.54393 L1208 18.9825 L1200.54 18.9825 L1200.54 9.54393 Z" fill="#000000" fill-rule="nonzero" fill-opacity="1"></path><path clip-path="url(#clip230)" d="M1261.31 45.1919 L1261.31 72.576 L1253.85 72.576 L1253.85 45.4349 Q1253.85 38.994 1251.34 35.7938 Q1248.83 32.5936 1243.81 32.5936 Q1237.77 32.5936 1234.29 36.4419 Q1230.8 40.2903 1230.8 46.9338 L1230.8 72.576 L1223.31 72.576 L1223.31 27.2059 L1230.8 27.2059 L1230.8 34.2544 Q1233.48 30.163 1237.08 28.1376 Q1240.73 26.1121 1245.47 26.1121 Q1253.28 26.1121 1257.3 30.9732 Q1261.31 35.7938 1261.31 45.1919 Z" fill="#000000" fill-rule="nonzero" fill-opacity="1"></path><path clip-path="url(#clip230)" d="M1306.03 49.3643 Q1306.03 41.2625 1302.67 36.8065 Q1299.34 32.3505 1293.31 32.3505 Q1287.31 32.3505 1283.95 36.8065 Q1280.63 41.2625 1280.63 49.3643 Q1280.63 57.4256 1283.95 61.8816 Q1287.31 66.3376 1293.31 66.3376 Q1299.34 66.3376 1302.67 61.8816 Q1306.03 57.4256 1306.03 49.3643 M1313.48 66.9452 Q1313.48 78.5308 1308.34 84.1616 Q1303.19 89.8329 1292.58 89.8329 Q1288.65 89.8329 1285.17 89.2252 Q1281.68 88.6581 1278.4 87.4428 L1278.4 80.1917 Q1281.68 81.9741 1284.88 82.8248 Q1288.08 83.6755 1291.4 83.6755 Q1298.74 83.6755 1302.38 79.8271 Q1306.03 76.0193 1306.03 68.282 L1306.03 64.5957 Q1303.72 68.6061 1300.11 70.5911 Q1296.51 72.576 1291.48 72.576 Q1283.14 72.576 1278.04 66.2161 Q1272.93 59.8562 1272.93 49.3643 Q1272.93 38.832 1278.04 32.472 Q1283.14 26.1121 1291.48 26.1121 Q1296.51 26.1121 1300.11 28.0971 Q1303.72 30.082 1306.03 34.0924 L1306.03 27.2059 L1313.48 27.2059 L1313.48 66.9452 Z" fill="#000000" fill-rule="nonzero" fill-opacity="1"></path><path clip-path="url(#clip230)" d="M1400.82 16.7545 L1400.82 25.383 Q1396.69 21.5346 1391.99 19.6307 Q1387.33 17.7268 1382.06 17.7268 Q1371.69 17.7268 1366.18 24.0867 Q1360.67 30.4061 1360.67 42.3968 Q1360.67 54.3469 1366.18 60.7069 Q1371.69 67.0263 1382.06 67.0263 Q1387.33 67.0263 1391.99 65.1223 Q1396.69 63.2184 1400.82 59.3701 L1400.82 67.9175 Q1396.52 70.8341 1391.7 72.2924 Q1386.92 73.7508 1381.58 73.7508 Q1367.84 73.7508 1359.94 65.3654 Q1352.05 56.9395 1352.05 42.3968 Q1352.05 27.8135 1359.94 19.4281 Q1367.84 11.0023 1381.58 11.0023 Q1387 11.0023 1391.79 12.4606 Q1396.61 13.8784 1400.82 16.7545 Z" fill="#000000" fill-rule="nonzero" fill-opacity="1"></path><path clip-path="url(#clip230)" d="M1412.36 54.671 L1412.36 27.2059 L1419.82 27.2059 L1419.82 54.3874 Q1419.82 60.8284 1422.33 64.0691 Q1424.84 67.2693 1429.86 67.2693 Q1435.9 67.2693 1439.38 63.421 Q1442.91 59.5726 1442.91 52.9291 L1442.91 27.2059 L1450.36 27.2059 L1450.36 72.576 L1442.91 72.576 L1442.91 65.6084 Q1440.19 69.7404 1436.59 71.7658 Q1433.02 73.7508 1428.28 73.7508 Q1420.47 73.7508 1416.41 68.8897 Q1412.36 64.0286 1412.36 54.671 M1431.12 26.1121 L1431.12 26.1121 Z" fill="#000000" fill-rule="nonzero" fill-opacity="1"></path><path clip-path="url(#clip230)" d="M1492 34.1734 Q1490.75 33.4443 1489.25 33.1202 Q1487.79 32.7556 1486.01 32.7556 Q1479.69 32.7556 1476.29 36.8875 Q1472.92 40.9789 1472.92 48.6757 L1472.92 72.576 L1465.43 72.576 L1465.43 27.2059 L1472.92 27.2059 L1472.92 34.2544 Q1475.27 30.1225 1479.04 28.1376 Q1482.81 26.1121 1488.2 26.1121 Q1488.97 26.1121 1489.9 26.2337 Q1490.83 26.3147 1491.96 26.5172 L1492 34.1734 Z" fill="#000000" fill-rule="nonzero" fill-opacity="1"></path><path clip-path="url(#clip230)" d="M1494.48 27.2059 L1502.37 27.2059 L1516.55 65.2844 L1530.73 27.2059 L1538.63 27.2059 L1521.62 72.576 L1511.49 72.576 L1494.48 27.2059 Z" fill="#000000" fill-rule="nonzero" fill-opacity="1"></path><path clip-path="url(#clip230)" d="M1587.73 48.0275 L1587.73 51.6733 L1553.46 51.6733 Q1553.94 59.3701 1558.07 63.421 Q1562.25 67.4314 1569.66 67.4314 Q1573.95 67.4314 1577.96 66.3781 Q1582.02 65.3249 1585.99 63.2184 L1585.99 70.267 Q1581.98 71.9684 1577.76 72.8596 Q1573.55 73.7508 1569.21 73.7508 Q1558.36 73.7508 1552 67.4314 Q1545.68 61.1119 1545.68 50.3365 Q1545.68 39.1965 1551.67 32.6746 Q1557.71 26.1121 1567.92 26.1121 Q1577.07 26.1121 1582.38 32.0264 Q1587.73 37.9003 1587.73 48.0275 M1580.27 45.84 Q1580.19 39.7232 1576.83 36.0774 Q1573.51 32.4315 1568 32.4315 Q1561.76 32.4315 1557.99 35.9558 Q1554.27 39.4801 1553.7 45.8805 L1580.27 45.84 Z" fill="#000000" fill-rule="nonzero" fill-opacity="1"></path><polyline clip-path="url(#clip232)" style="stroke:#009af9; stroke-linecap:round; stroke-linejoin:round; stroke-width:4; stroke-opacity:1; fill:none" points="325.797,1021.68 332.577,160.256 346.136,186.327 352.916,1361.12 366.476,1021.68 380.035,160.256 393.595,201.535 413.934,1378.12 434.274,1021.68 454.613,1021.68 474.952,160.256 502.072,1358.84 535.971,481.796 569.87,506.495 610.549,481.796 651.228,1021.68 698.686,1021.68 752.925,160.256 820.723,1021.68 888.521,481.796 963.099,1021.68 1051.24,481.796 1152.93,481.796 1261.41,481.796 1390.23,1021.68 1532.6,1021.68 1688.54,1319.93 1864.81,1021.68 2068.21,1359.17 2291.94,1083.15 "></polyline>
<polyline clip-path="url(#clip232)" style="stroke:#e26f46; stroke-linecap:round; stroke-linejoin:round; stroke-width:4; stroke-opacity:1; fill:none" stroke-dasharray="16, 10" points="264.778,1386.4 2291.94,1386.4 "></polyline>
<path clip-path="url(#clip230)" d="M1325.84 322.316 L2281.13 322.316 L2281.13 166.796 L1325.84 166.796  Z" fill="#ffffff" fill-rule="evenodd" fill-opacity="1"></path>
<polyline clip-path="url(#clip230)" style="stroke:#000000; stroke-linecap:round; stroke-linejoin:round; stroke-width:4; stroke-opacity:1; fill:none" points="1325.84,322.316 2281.13,322.316 2281.13,166.796 1325.84,166.796 1325.84,322.316 "></polyline>
<polyline clip-path="url(#clip230)" style="stroke:#009af9; stroke-linecap:round; stroke-linejoin:round; stroke-width:4; stroke-opacity:1; fill:none" points="1349.71,218.636 1492.97,218.636 "></polyline>
<path clip-path="url(#clip230)" d="M1516.84 201.356 L1523.14 201.356 L1538.46 230.268 L1538.46 201.356 L1543 201.356 L1543 235.916 L1536.7 235.916 L1521.38 207.004 L1521.38 235.916 L1516.84 235.916 L1516.84 201.356 Z" fill="#000000" fill-rule="nonzero" fill-opacity="1"></path><path clip-path="url(#clip230)" d="M1574.29 221.888 L1574.29 223.971 L1554.71 223.971 Q1554.99 228.369 1557.35 230.684 Q1559.73 232.976 1563.97 232.976 Q1566.42 232.976 1568.72 232.374 Q1571.03 231.772 1573.3 230.569 L1573.3 234.596 Q1571.01 235.568 1568.6 236.078 Q1566.19 236.587 1563.72 236.587 Q1557.51 236.587 1553.88 232.976 Q1550.27 229.365 1550.27 223.207 Q1550.27 216.842 1553.69 213.115 Q1557.14 209.365 1562.98 209.365 Q1568.21 209.365 1571.24 212.745 Q1574.29 216.101 1574.29 221.888 M1570.04 220.638 Q1569.99 217.143 1568.07 215.059 Q1566.17 212.976 1563.02 212.976 Q1559.46 212.976 1557.3 214.99 Q1555.17 217.004 1554.85 220.661 L1570.04 220.638 Z" fill="#000000" fill-rule="nonzero" fill-opacity="1"></path><path clip-path="url(#clip230)" d="M1580.85 225.684 L1580.85 209.99 L1585.1 209.99 L1585.1 225.522 Q1585.1 229.203 1586.54 231.055 Q1587.98 232.883 1590.85 232.883 Q1594.29 232.883 1596.29 230.684 Q1598.3 228.485 1598.3 224.689 L1598.3 209.99 L1602.56 209.99 L1602.56 235.916 L1598.3 235.916 L1598.3 231.934 Q1596.75 234.295 1594.69 235.453 Q1592.65 236.587 1589.94 236.587 Q1585.48 236.587 1583.16 233.809 Q1580.85 231.031 1580.85 225.684 M1591.56 209.365 L1591.56 209.365 Z" fill="#000000" fill-rule="nonzero" fill-opacity="1"></path><path clip-path="url(#clip230)" d="M1626.35 213.971 Q1625.64 213.555 1624.78 213.37 Q1623.95 213.161 1622.93 213.161 Q1619.32 213.161 1617.37 215.522 Q1615.45 217.86 1615.45 222.258 L1615.45 235.916 L1611.17 235.916 L1611.17 209.99 L1615.45 209.99 L1615.45 214.018 Q1616.79 211.657 1618.95 210.522 Q1621.1 209.365 1624.18 209.365 Q1624.62 209.365 1625.15 209.434 Q1625.68 209.481 1626.33 209.596 L1626.35 213.971 Z" fill="#000000" fill-rule="nonzero" fill-opacity="1"></path><path clip-path="url(#clip230)" d="M1642.6 222.883 Q1637.44 222.883 1635.45 224.064 Q1633.46 225.244 1633.46 228.092 Q1633.46 230.36 1634.94 231.703 Q1636.45 233.022 1639.02 233.022 Q1642.56 233.022 1644.69 230.522 Q1646.84 227.999 1646.84 223.832 L1646.84 222.883 L1642.6 222.883 M1651.1 221.124 L1651.1 235.916 L1646.84 235.916 L1646.84 231.981 Q1645.38 234.342 1643.21 235.476 Q1641.03 236.587 1637.88 236.587 Q1633.9 236.587 1631.54 234.365 Q1629.2 232.119 1629.2 228.369 Q1629.2 223.994 1632.12 221.772 Q1635.06 219.55 1640.87 219.55 L1646.84 219.55 L1646.84 219.133 Q1646.84 216.194 1644.9 214.596 Q1642.97 212.976 1639.48 212.976 Q1637.26 212.976 1635.15 213.508 Q1633.04 214.041 1631.1 215.106 L1631.1 211.17 Q1633.44 210.268 1635.64 209.828 Q1637.84 209.365 1639.92 209.365 Q1645.54 209.365 1648.32 212.282 Q1651.1 215.198 1651.1 221.124 Z" fill="#000000" fill-rule="nonzero" fill-opacity="1"></path><path clip-path="url(#clip230)" d="M1659.87 199.897 L1664.13 199.897 L1664.13 235.916 L1659.87 235.916 L1659.87 199.897 Z" fill="#000000" fill-rule="nonzero" fill-opacity="1"></path><path clip-path="url(#clip230)" d="M1688.3 201.356 L1694.6 201.356 L1709.92 230.268 L1709.92 201.356 L1714.46 201.356 L1714.46 235.916 L1708.16 235.916 L1692.84 207.004 L1692.84 235.916 L1688.3 235.916 L1688.3 201.356 Z" fill="#000000" fill-rule="nonzero" fill-opacity="1"></path><path clip-path="url(#clip230)" d="M1745.75 221.888 L1745.75 223.971 L1726.17 223.971 Q1726.45 228.369 1728.81 230.684 Q1731.19 232.976 1735.43 232.976 Q1737.88 232.976 1740.17 232.374 Q1742.49 231.772 1744.76 230.569 L1744.76 234.596 Q1742.47 235.568 1740.06 236.078 Q1737.65 236.587 1735.17 236.587 Q1728.97 236.587 1725.34 232.976 Q1721.72 229.365 1721.72 223.207 Q1721.72 216.842 1725.15 213.115 Q1728.6 209.365 1734.43 209.365 Q1739.66 209.365 1742.7 212.745 Q1745.75 216.101 1745.75 221.888 M1741.49 220.638 Q1741.45 217.143 1739.53 215.059 Q1737.63 212.976 1734.48 212.976 Q1730.91 212.976 1728.76 214.99 Q1726.63 217.004 1726.31 220.661 L1741.49 220.638 Z" fill="#000000" fill-rule="nonzero" fill-opacity="1"></path><path clip-path="url(#clip230)" d="M1756.96 202.629 L1756.96 209.99 L1765.73 209.99 L1765.73 213.3 L1756.96 213.3 L1756.96 227.374 Q1756.96 230.545 1757.81 231.448 Q1758.69 232.351 1761.35 232.351 L1765.73 232.351 L1765.73 235.916 L1761.35 235.916 Q1756.42 235.916 1754.55 234.087 Q1752.67 232.235 1752.67 227.374 L1752.67 213.3 L1749.55 213.3 L1749.55 209.99 L1752.67 209.99 L1752.67 202.629 L1756.96 202.629 Z" fill="#000000" fill-rule="nonzero" fill-opacity="1"></path><path clip-path="url(#clip230)" d="M1768.85 209.99 L1773.11 209.99 L1778.44 230.221 L1783.74 209.99 L1788.76 209.99 L1794.09 230.221 L1799.39 209.99 L1803.65 209.99 L1796.86 235.916 L1791.84 235.916 L1786.26 214.666 L1780.66 235.916 L1775.64 235.916 L1768.85 209.99 Z" fill="#000000" fill-rule="nonzero" fill-opacity="1"></path><path clip-path="url(#clip230)" d="M1820.15 212.976 Q1816.72 212.976 1814.73 215.661 Q1812.74 218.323 1812.74 222.976 Q1812.74 227.629 1814.71 230.314 Q1816.7 232.976 1820.15 232.976 Q1823.55 232.976 1825.54 230.291 Q1827.53 227.606 1827.53 222.976 Q1827.53 218.37 1825.54 215.684 Q1823.55 212.976 1820.15 212.976 M1820.15 209.365 Q1825.71 209.365 1828.88 212.976 Q1832.05 216.587 1832.05 222.976 Q1832.05 229.342 1828.88 232.976 Q1825.71 236.587 1820.15 236.587 Q1814.57 236.587 1811.4 232.976 Q1808.25 229.342 1808.25 222.976 Q1808.25 216.587 1811.4 212.976 Q1814.57 209.365 1820.15 209.365 Z" fill="#000000" fill-rule="nonzero" fill-opacity="1"></path><path clip-path="url(#clip230)" d="M1854.13 213.971 Q1853.41 213.555 1852.56 213.37 Q1851.72 213.161 1850.71 213.161 Q1847.09 213.161 1845.15 215.522 Q1843.23 217.86 1843.23 222.258 L1843.23 235.916 L1838.95 235.916 L1838.95 209.99 L1843.23 209.99 L1843.23 214.018 Q1844.57 211.657 1846.72 210.522 Q1848.88 209.365 1851.96 209.365 Q1852.4 209.365 1852.93 209.434 Q1853.46 209.481 1854.11 209.596 L1854.13 213.971 Z" fill="#000000" fill-rule="nonzero" fill-opacity="1"></path><path clip-path="url(#clip230)" d="M1858.44 199.897 L1862.72 199.897 L1862.72 221.17 L1875.43 209.99 L1880.87 209.99 L1867.12 222.119 L1881.45 235.916 L1875.89 235.916 L1862.72 223.254 L1862.72 235.916 L1858.44 235.916 L1858.44 199.897 Z" fill="#000000" fill-rule="nonzero" fill-opacity="1"></path><path clip-path="url(#clip230)" d="M1927.19 204.018 L1927.19 208.948 Q1924.83 206.749 1922.14 205.661 Q1919.48 204.573 1916.47 204.573 Q1910.54 204.573 1907.39 208.208 Q1904.25 211.819 1904.25 218.67 Q1904.25 225.499 1907.39 229.133 Q1910.54 232.744 1916.47 232.744 Q1919.48 232.744 1922.14 231.656 Q1924.83 230.569 1927.19 228.369 L1927.19 233.254 Q1924.73 234.92 1921.98 235.754 Q1919.25 236.587 1916.19 236.587 Q1908.34 236.587 1903.83 231.795 Q1899.32 226.981 1899.32 218.67 Q1899.32 210.337 1903.83 205.546 Q1908.34 200.731 1916.19 200.731 Q1919.29 200.731 1922.02 201.564 Q1924.78 202.374 1927.19 204.018 Z" fill="#000000" fill-rule="nonzero" fill-opacity="1"></path><path clip-path="url(#clip230)" d="M1934.22 199.897 L1938.48 199.897 L1938.48 235.916 L1934.22 235.916 L1934.22 199.897 Z" fill="#000000" fill-rule="nonzero" fill-opacity="1"></path><path clip-path="url(#clip230)" d="M1959.18 222.883 Q1954.01 222.883 1952.02 224.064 Q1950.03 225.244 1950.03 228.092 Q1950.03 230.36 1951.51 231.703 Q1953.02 233.022 1955.59 233.022 Q1959.13 233.022 1961.26 230.522 Q1963.41 227.999 1963.41 223.832 L1963.41 222.883 L1959.18 222.883 M1967.67 221.124 L1967.67 235.916 L1963.41 235.916 L1963.41 231.981 Q1961.95 234.342 1959.78 235.476 Q1957.6 236.587 1954.45 236.587 Q1950.47 236.587 1948.11 234.365 Q1945.77 232.119 1945.77 228.369 Q1945.77 223.994 1948.69 221.772 Q1951.63 219.55 1957.44 219.55 L1963.41 219.55 L1963.41 219.133 Q1963.41 216.194 1961.47 214.596 Q1959.55 212.976 1956.05 212.976 Q1953.83 212.976 1951.72 213.508 Q1949.62 214.041 1947.67 215.106 L1947.67 211.17 Q1950.01 210.268 1952.21 209.828 Q1954.41 209.365 1956.49 209.365 Q1962.12 209.365 1964.89 212.282 Q1967.67 215.198 1967.67 221.124 Z" fill="#000000" fill-rule="nonzero" fill-opacity="1"></path><path clip-path="url(#clip230)" d="M1992.97 210.754 L1992.97 214.782 Q1991.17 213.856 1989.22 213.393 Q1987.28 212.93 1985.2 212.93 Q1982.02 212.93 1980.43 213.902 Q1978.85 214.874 1978.85 216.819 Q1978.85 218.3 1979.99 219.157 Q1981.12 219.99 1984.55 220.754 L1986.01 221.078 Q1990.54 222.05 1992.44 223.832 Q1994.36 225.592 1994.36 228.763 Q1994.36 232.374 1991.49 234.481 Q1988.64 236.587 1983.64 236.587 Q1981.56 236.587 1979.29 236.17 Q1977.05 235.777 1974.55 234.967 L1974.55 230.569 Q1976.91 231.795 1979.2 232.42 Q1981.49 233.022 1983.74 233.022 Q1986.75 233.022 1988.37 232.004 Q1989.99 230.962 1989.99 229.087 Q1989.99 227.351 1988.81 226.425 Q1987.65 225.499 1983.69 224.643 L1982.21 224.295 Q1978.25 223.462 1976.49 221.749 Q1974.73 220.013 1974.73 217.004 Q1974.73 213.346 1977.32 211.356 Q1979.92 209.365 1984.69 209.365 Q1987.05 209.365 1989.13 209.712 Q1991.21 210.059 1992.97 210.754 Z" fill="#000000" fill-rule="nonzero" fill-opacity="1"></path><path clip-path="url(#clip230)" d="M2017.67 210.754 L2017.67 214.782 Q2015.87 213.856 2013.92 213.393 Q2011.98 212.93 2009.89 212.93 Q2006.72 212.93 2005.13 213.902 Q2003.55 214.874 2003.55 216.819 Q2003.55 218.3 2004.69 219.157 Q2005.82 219.99 2009.25 220.754 L2010.7 221.078 Q2015.24 222.05 2017.14 223.832 Q2019.06 225.592 2019.06 228.763 Q2019.06 232.374 2016.19 234.481 Q2013.34 236.587 2008.34 236.587 Q2006.26 236.587 2003.99 236.17 Q2001.75 235.777 1999.25 234.967 L1999.25 230.569 Q2001.61 231.795 2003.9 232.42 Q2006.19 233.022 2008.44 233.022 Q2011.45 233.022 2013.07 232.004 Q2014.69 230.962 2014.69 229.087 Q2014.69 227.351 2013.51 226.425 Q2012.35 225.499 2008.39 224.643 L2006.91 224.295 Q2002.95 223.462 2001.19 221.749 Q1999.43 220.013 1999.43 217.004 Q1999.43 213.346 2002.02 211.356 Q2004.62 209.365 2009.38 209.365 Q2011.75 209.365 2013.83 209.712 Q2015.91 210.059 2017.67 210.754 Z" fill="#000000" fill-rule="nonzero" fill-opacity="1"></path><path clip-path="url(#clip230)" d="M2025.84 209.99 L2030.1 209.99 L2030.1 235.916 L2025.84 235.916 L2025.84 209.99 M2025.84 199.897 L2030.1 199.897 L2030.1 205.291 L2025.84 205.291 L2025.84 199.897 Z" fill="#000000" fill-rule="nonzero" fill-opacity="1"></path><path clip-path="url(#clip230)" d="M2052.14 199.897 L2052.14 203.439 L2048.07 203.439 Q2045.77 203.439 2044.87 204.365 Q2043.99 205.291 2043.99 207.698 L2043.99 209.99 L2051.01 209.99 L2051.01 213.3 L2043.99 213.3 L2043.99 235.916 L2039.71 235.916 L2039.71 213.3 L2035.63 213.3 L2035.63 209.99 L2039.71 209.99 L2039.71 208.184 Q2039.71 203.856 2041.72 201.888 Q2043.74 199.897 2048.11 199.897 L2052.14 199.897 Z" fill="#000000" fill-rule="nonzero" fill-opacity="1"></path><path clip-path="url(#clip230)" d="M2055.7 209.99 L2059.96 209.99 L2059.96 235.916 L2055.7 235.916 L2055.7 209.99 M2055.7 199.897 L2059.96 199.897 L2059.96 205.291 L2055.7 205.291 L2055.7 199.897 Z" fill="#000000" fill-rule="nonzero" fill-opacity="1"></path><path clip-path="url(#clip230)" d="M2091.05 221.888 L2091.05 223.971 L2071.47 223.971 Q2071.75 228.369 2074.11 230.684 Q2076.49 232.976 2080.73 232.976 Q2083.18 232.976 2085.47 232.374 Q2087.79 231.772 2090.06 230.569 L2090.06 234.596 Q2087.76 235.568 2085.36 236.078 Q2082.95 236.587 2080.47 236.587 Q2074.27 236.587 2070.63 232.976 Q2067.02 229.365 2067.02 223.207 Q2067.02 216.842 2070.45 213.115 Q2073.9 209.365 2079.73 209.365 Q2084.96 209.365 2088 212.745 Q2091.05 216.101 2091.05 221.888 M2086.79 220.638 Q2086.75 217.143 2084.82 215.059 Q2082.93 212.976 2079.78 212.976 Q2076.21 212.976 2074.06 214.99 Q2071.93 217.004 2071.61 220.661 L2086.79 220.638 Z" fill="#000000" fill-rule="nonzero" fill-opacity="1"></path><path clip-path="url(#clip230)" d="M2113.06 213.971 Q2112.35 213.555 2111.49 213.37 Q2110.66 213.161 2109.64 213.161 Q2106.03 213.161 2104.08 215.522 Q2102.16 217.86 2102.16 222.258 L2102.16 235.916 L2097.88 235.916 L2097.88 209.99 L2102.16 209.99 L2102.16 214.018 Q2103.5 211.657 2105.66 210.522 Q2107.81 209.365 2110.89 209.365 Q2111.33 209.365 2111.86 209.434 Q2112.39 209.481 2113.04 209.596 L2113.06 213.971 Z" fill="#000000" fill-rule="nonzero" fill-opacity="1"></path><path clip-path="url(#clip230)" d="M2132.79 201.356 L2152.65 201.356 L2152.65 205.291 L2137.46 205.291 L2137.46 215.476 L2151.17 215.476 L2151.17 219.411 L2137.46 219.411 L2137.46 235.916 L2132.79 235.916 L2132.79 201.356 Z" fill="#000000" fill-rule="nonzero" fill-opacity="1"></path><path clip-path="url(#clip230)" d="M2156.42 209.99 L2160.68 209.99 L2160.68 235.916 L2156.42 235.916 L2156.42 209.99 M2156.42 199.897 L2160.68 199.897 L2160.68 205.291 L2156.42 205.291 L2156.42 199.897 Z" fill="#000000" fill-rule="nonzero" fill-opacity="1"></path><path clip-path="url(#clip230)" d="M2173.81 202.629 L2173.81 209.99 L2182.58 209.99 L2182.58 213.3 L2173.81 213.3 L2173.81 227.374 Q2173.81 230.545 2174.66 231.448 Q2175.54 232.351 2178.2 232.351 L2182.58 232.351 L2182.58 235.916 L2178.2 235.916 Q2173.27 235.916 2171.4 234.087 Q2169.52 232.235 2169.52 227.374 L2169.52 213.3 L2166.4 213.3 L2166.4 209.99 L2169.52 209.99 L2169.52 202.629 L2173.81 202.629 Z" fill="#000000" fill-rule="nonzero" fill-opacity="1"></path><path clip-path="url(#clip230)" d="M2192.39 202.629 L2192.39 209.99 L2201.17 209.99 L2201.17 213.3 L2192.39 213.3 L2192.39 227.374 Q2192.39 230.545 2193.25 231.448 Q2194.13 232.351 2196.79 232.351 L2201.17 232.351 L2201.17 235.916 L2196.79 235.916 Q2191.86 235.916 2189.99 234.087 Q2188.11 232.235 2188.11 227.374 L2188.11 213.3 L2184.99 213.3 L2184.99 209.99 L2188.11 209.99 L2188.11 202.629 L2192.39 202.629 Z" fill="#000000" fill-rule="nonzero" fill-opacity="1"></path><path clip-path="url(#clip230)" d="M2228.94 221.888 L2228.94 223.971 L2209.36 223.971 Q2209.64 228.369 2212 230.684 Q2214.38 232.976 2218.62 232.976 Q2221.07 232.976 2223.37 232.374 Q2225.68 231.772 2227.95 230.569 L2227.95 234.596 Q2225.66 235.568 2223.25 236.078 Q2220.84 236.587 2218.37 236.587 Q2212.16 236.587 2208.53 232.976 Q2204.92 229.365 2204.92 223.207 Q2204.92 216.842 2208.34 213.115 Q2211.79 209.365 2217.62 209.365 Q2222.86 209.365 2225.89 212.745 Q2228.94 216.101 2228.94 221.888 M2224.68 220.638 Q2224.64 217.143 2222.72 215.059 Q2220.82 212.976 2217.67 212.976 Q2214.11 212.976 2211.95 214.99 Q2209.82 217.004 2209.5 220.661 L2224.68 220.638 Z" fill="#000000" fill-rule="nonzero" fill-opacity="1"></path><path clip-path="url(#clip230)" d="M2252.99 213.925 L2252.99 199.897 L2257.25 199.897 L2257.25 235.916 L2252.99 235.916 L2252.99 232.027 Q2251.65 234.342 2249.59 235.476 Q2247.56 236.587 2244.68 236.587 Q2239.99 236.587 2237.02 232.837 Q2234.08 229.087 2234.08 222.976 Q2234.08 216.865 2237.02 213.115 Q2239.99 209.365 2244.68 209.365 Q2247.56 209.365 2249.59 210.499 Q2251.65 211.61 2252.99 213.925 M2238.48 222.976 Q2238.48 227.675 2240.4 230.36 Q2242.35 233.022 2245.73 233.022 Q2249.11 233.022 2251.05 230.36 Q2252.99 227.675 2252.99 222.976 Q2252.99 218.277 2251.05 215.615 Q2249.11 212.93 2245.73 212.93 Q2242.35 212.93 2240.4 215.615 Q2238.48 218.277 2238.48 222.976 Z" fill="#000000" fill-rule="nonzero" fill-opacity="1"></path><polyline clip-path="url(#clip230)" style="stroke:#e26f46; stroke-linecap:round; stroke-linejoin:round; stroke-width:4; stroke-opacity:1; fill:none" stroke-dasharray="16, 10" points="1349.71,270.476 1492.97,270.476 "></polyline>
<path clip-path="url(#clip230)" d="M1544.71 255.858 L1544.71 260.788 Q1542.35 258.589 1539.67 257.501 Q1537 256.413 1533.99 256.413 Q1528.07 256.413 1524.92 260.048 Q1521.77 263.659 1521.77 270.51 Q1521.77 277.339 1524.92 280.973 Q1528.07 284.584 1533.99 284.584 Q1537 284.584 1539.67 283.496 Q1542.35 282.409 1544.71 280.209 L1544.71 285.094 Q1542.26 286.76 1539.5 287.594 Q1536.77 288.427 1533.72 288.427 Q1525.87 288.427 1521.36 283.635 Q1516.84 278.821 1516.84 270.51 Q1516.84 262.177 1521.36 257.386 Q1525.87 252.571 1533.72 252.571 Q1536.82 252.571 1539.55 253.404 Q1542.3 254.214 1544.71 255.858 Z" fill="#000000" fill-rule="nonzero" fill-opacity="1"></path><path clip-path="url(#clip230)" d="M1561.79 264.816 Q1558.37 264.816 1556.38 267.501 Q1554.39 270.163 1554.39 274.816 Q1554.39 279.469 1556.36 282.154 Q1558.35 284.816 1561.79 284.816 Q1565.2 284.816 1567.19 282.131 Q1569.18 279.446 1569.18 274.816 Q1569.18 270.21 1567.19 267.524 Q1565.2 264.816 1561.79 264.816 M1561.79 261.205 Q1567.35 261.205 1570.52 264.816 Q1573.69 268.427 1573.69 274.816 Q1573.69 281.182 1570.52 284.816 Q1567.35 288.427 1561.79 288.427 Q1556.22 288.427 1553.04 284.816 Q1549.9 281.182 1549.9 274.816 Q1549.9 268.427 1553.04 264.816 Q1556.22 261.205 1561.79 261.205 Z" fill="#000000" fill-rule="nonzero" fill-opacity="1"></path><path clip-path="url(#clip230)" d="M1602.3 272.108 L1602.3 287.756 L1598.04 287.756 L1598.04 272.247 Q1598.04 268.566 1596.61 266.737 Q1595.17 264.909 1592.3 264.909 Q1588.85 264.909 1586.86 267.108 Q1584.87 269.307 1584.87 273.103 L1584.87 287.756 L1580.59 287.756 L1580.59 261.83 L1584.87 261.83 L1584.87 265.858 Q1586.4 263.52 1588.46 262.362 Q1590.54 261.205 1593.25 261.205 Q1597.72 261.205 1600.01 263.983 Q1602.3 266.737 1602.3 272.108 Z" fill="#000000" fill-rule="nonzero" fill-opacity="1"></path><path clip-path="url(#clip230)" d="M1627.33 262.594 L1627.33 266.622 Q1625.52 265.696 1623.58 265.233 Q1621.63 264.77 1619.55 264.77 Q1616.38 264.77 1614.78 265.742 Q1613.21 266.714 1613.21 268.659 Q1613.21 270.14 1614.34 270.997 Q1615.48 271.83 1618.9 272.594 L1620.36 272.918 Q1624.9 273.89 1626.79 275.672 Q1628.72 277.432 1628.72 280.603 Q1628.72 284.214 1625.85 286.321 Q1623 288.427 1618 288.427 Q1615.91 288.427 1613.65 288.01 Q1611.4 287.617 1608.9 286.807 L1608.9 282.409 Q1611.26 283.635 1613.55 284.26 Q1615.85 284.862 1618.09 284.862 Q1621.1 284.862 1622.72 283.844 Q1624.34 282.802 1624.34 280.927 Q1624.34 279.191 1623.16 278.265 Q1622 277.339 1618.04 276.483 L1616.56 276.135 Q1612.6 275.302 1610.85 273.589 Q1609.09 271.853 1609.09 268.844 Q1609.09 265.186 1611.68 263.196 Q1614.27 261.205 1619.04 261.205 Q1621.4 261.205 1623.48 261.552 Q1625.57 261.899 1627.33 262.594 Z" fill="#000000" fill-rule="nonzero" fill-opacity="1"></path><path clip-path="url(#clip230)" d="M1639.71 254.469 L1639.71 261.83 L1648.48 261.83 L1648.48 265.14 L1639.71 265.14 L1639.71 279.214 Q1639.71 282.385 1640.57 283.288 Q1641.45 284.191 1644.11 284.191 L1648.48 284.191 L1648.48 287.756 L1644.11 287.756 Q1639.18 287.756 1637.3 285.927 Q1635.43 284.075 1635.43 279.214 L1635.43 265.14 L1632.3 265.14 L1632.3 261.83 L1635.43 261.83 L1635.43 254.469 L1639.71 254.469 Z" fill="#000000" fill-rule="nonzero" fill-opacity="1"></path><path clip-path="url(#clip230)" d="M1665.87 274.723 Q1660.71 274.723 1658.72 275.904 Q1656.72 277.084 1656.72 279.932 Q1656.72 282.2 1658.21 283.543 Q1659.71 284.862 1662.28 284.862 Q1665.82 284.862 1667.95 282.362 Q1670.1 279.839 1670.1 275.672 L1670.1 274.723 L1665.87 274.723 M1674.36 272.964 L1674.36 287.756 L1670.1 287.756 L1670.1 283.821 Q1668.65 286.182 1666.47 287.316 Q1664.29 288.427 1661.15 288.427 Q1657.16 288.427 1654.8 286.205 Q1652.47 283.959 1652.47 280.209 Q1652.47 275.834 1655.38 273.612 Q1658.32 271.39 1664.13 271.39 L1670.1 271.39 L1670.1 270.973 Q1670.1 268.034 1668.16 266.436 Q1666.24 264.816 1662.74 264.816 Q1660.52 264.816 1658.41 265.348 Q1656.31 265.881 1654.36 266.946 L1654.36 263.01 Q1656.7 262.108 1658.9 261.668 Q1661.1 261.205 1663.18 261.205 Q1668.81 261.205 1671.59 264.122 Q1674.36 267.038 1674.36 272.964 Z" fill="#000000" fill-rule="nonzero" fill-opacity="1"></path><path clip-path="url(#clip230)" d="M1704.69 272.108 L1704.69 287.756 L1700.43 287.756 L1700.43 272.247 Q1700.43 268.566 1698.99 266.737 Q1697.56 264.909 1694.69 264.909 Q1691.24 264.909 1689.25 267.108 Q1687.26 269.307 1687.26 273.103 L1687.26 287.756 L1682.97 287.756 L1682.97 261.83 L1687.26 261.83 L1687.26 265.858 Q1688.78 263.52 1690.85 262.362 Q1692.93 261.205 1695.64 261.205 Q1700.1 261.205 1702.4 263.983 Q1704.69 266.737 1704.69 272.108 Z" fill="#000000" fill-rule="nonzero" fill-opacity="1"></path><path clip-path="url(#clip230)" d="M1717.4 254.469 L1717.4 261.83 L1726.17 261.83 L1726.17 265.14 L1717.4 265.14 L1717.4 279.214 Q1717.4 282.385 1718.25 283.288 Q1719.13 284.191 1721.79 284.191 L1726.17 284.191 L1726.17 287.756 L1721.79 287.756 Q1716.86 287.756 1714.99 285.927 Q1713.11 284.075 1713.11 279.214 L1713.11 265.14 L1709.99 265.14 L1709.99 261.83 L1713.11 261.83 L1713.11 254.469 L1717.4 254.469 Z" fill="#000000" fill-rule="nonzero" fill-opacity="1"></path><path clip-path="url(#clip230)" d="M1772.9 255.858 L1772.9 260.788 Q1770.54 258.589 1767.86 257.501 Q1765.2 256.413 1762.19 256.413 Q1756.26 256.413 1753.11 260.048 Q1749.97 263.659 1749.97 270.51 Q1749.97 277.339 1753.11 280.973 Q1756.26 284.584 1762.19 284.584 Q1765.2 284.584 1767.86 283.496 Q1770.54 282.409 1772.9 280.209 L1772.9 285.094 Q1770.45 286.76 1767.7 287.594 Q1764.96 288.427 1761.91 288.427 Q1754.06 288.427 1749.55 283.635 Q1745.03 278.821 1745.03 270.51 Q1745.03 262.177 1749.55 257.386 Q1754.06 252.571 1761.91 252.571 Q1765.01 252.571 1767.74 253.404 Q1770.5 254.214 1772.9 255.858 Z" fill="#000000" fill-rule="nonzero" fill-opacity="1"></path><path clip-path="url(#clip230)" d="M1779.94 251.737 L1784.2 251.737 L1784.2 287.756 L1779.94 287.756 L1779.94 251.737 Z" fill="#000000" fill-rule="nonzero" fill-opacity="1"></path><path clip-path="url(#clip230)" d="M1804.9 274.723 Q1799.73 274.723 1797.74 275.904 Q1795.75 277.084 1795.75 279.932 Q1795.75 282.2 1797.23 283.543 Q1798.74 284.862 1801.31 284.862 Q1804.85 284.862 1806.98 282.362 Q1809.13 279.839 1809.13 275.672 L1809.13 274.723 L1804.9 274.723 M1813.39 272.964 L1813.39 287.756 L1809.13 287.756 L1809.13 283.821 Q1807.67 286.182 1805.5 287.316 Q1803.32 288.427 1800.17 288.427 Q1796.19 288.427 1793.83 286.205 Q1791.49 283.959 1791.49 280.209 Q1791.49 275.834 1794.41 273.612 Q1797.35 271.39 1803.16 271.39 L1809.13 271.39 L1809.13 270.973 Q1809.13 268.034 1807.19 266.436 Q1805.27 264.816 1801.77 264.816 Q1799.55 264.816 1797.44 265.348 Q1795.34 265.881 1793.39 266.946 L1793.39 263.01 Q1795.73 262.108 1797.93 261.668 Q1800.13 261.205 1802.21 261.205 Q1807.84 261.205 1810.61 264.122 Q1813.39 267.038 1813.39 272.964 Z" fill="#000000" fill-rule="nonzero" fill-opacity="1"></path><path clip-path="url(#clip230)" d="M1838.69 262.594 L1838.69 266.622 Q1836.89 265.696 1834.94 265.233 Q1833 264.77 1830.91 264.77 Q1827.74 264.77 1826.15 265.742 Q1824.57 266.714 1824.57 268.659 Q1824.57 270.14 1825.71 270.997 Q1826.84 271.83 1830.27 272.594 L1831.72 272.918 Q1836.26 273.89 1838.16 275.672 Q1840.08 277.432 1840.08 280.603 Q1840.08 284.214 1837.21 286.321 Q1834.36 288.427 1829.36 288.427 Q1827.28 288.427 1825.01 288.01 Q1822.77 287.617 1820.27 286.807 L1820.27 282.409 Q1822.63 283.635 1824.92 284.26 Q1827.21 284.862 1829.46 284.862 Q1832.46 284.862 1834.08 283.844 Q1835.71 282.802 1835.71 280.927 Q1835.71 279.191 1834.52 278.265 Q1833.37 277.339 1829.41 276.483 L1827.93 276.135 Q1823.97 275.302 1822.21 273.589 Q1820.45 271.853 1820.45 268.844 Q1820.45 265.186 1823.04 263.196 Q1825.64 261.205 1830.4 261.205 Q1832.77 261.205 1834.85 261.552 Q1836.93 261.899 1838.69 262.594 Z" fill="#000000" fill-rule="nonzero" fill-opacity="1"></path><path clip-path="url(#clip230)" d="M1863.39 262.594 L1863.39 266.622 Q1861.58 265.696 1859.64 265.233 Q1857.7 264.77 1855.61 264.77 Q1852.44 264.77 1850.84 265.742 Q1849.27 266.714 1849.27 268.659 Q1849.27 270.14 1850.4 270.997 Q1851.54 271.83 1854.96 272.594 L1856.42 272.918 Q1860.96 273.89 1862.86 275.672 Q1864.78 277.432 1864.78 280.603 Q1864.78 284.214 1861.91 286.321 Q1859.06 288.427 1854.06 288.427 Q1851.98 288.427 1849.71 288.01 Q1847.46 287.617 1844.96 286.807 L1844.96 282.409 Q1847.33 283.635 1849.62 284.26 Q1851.91 284.862 1854.15 284.862 Q1857.16 284.862 1858.78 283.844 Q1860.4 282.802 1860.4 280.927 Q1860.4 279.191 1859.22 278.265 Q1858.07 277.339 1854.11 276.483 L1852.63 276.135 Q1848.67 275.302 1846.91 273.589 Q1845.15 271.853 1845.15 268.844 Q1845.15 265.186 1847.74 263.196 Q1850.33 261.205 1855.1 261.205 Q1857.46 261.205 1859.55 261.552 Q1861.63 261.899 1863.39 262.594 Z" fill="#000000" fill-rule="nonzero" fill-opacity="1"></path><path clip-path="url(#clip230)" d="M1871.56 261.83 L1875.82 261.83 L1875.82 287.756 L1871.56 287.756 L1871.56 261.83 M1871.56 251.737 L1875.82 251.737 L1875.82 257.131 L1871.56 257.131 L1871.56 251.737 Z" fill="#000000" fill-rule="nonzero" fill-opacity="1"></path><path clip-path="url(#clip230)" d="M1897.86 251.737 L1897.86 255.279 L1893.78 255.279 Q1891.49 255.279 1890.59 256.205 Q1889.71 257.131 1889.71 259.538 L1889.71 261.83 L1896.72 261.83 L1896.72 265.14 L1889.71 265.14 L1889.71 287.756 L1885.43 287.756 L1885.43 265.14 L1881.35 265.14 L1881.35 261.83 L1885.43 261.83 L1885.43 260.024 Q1885.43 255.696 1887.44 253.728 Q1889.46 251.737 1893.83 251.737 L1897.86 251.737 Z" fill="#000000" fill-rule="nonzero" fill-opacity="1"></path><path clip-path="url(#clip230)" d="M1901.42 261.83 L1905.68 261.83 L1905.68 287.756 L1901.42 287.756 L1901.42 261.83 M1901.42 251.737 L1905.68 251.737 L1905.68 257.131 L1901.42 257.131 L1901.42 251.737 Z" fill="#000000" fill-rule="nonzero" fill-opacity="1"></path><path clip-path="url(#clip230)" d="M1936.77 273.728 L1936.77 275.811 L1917.19 275.811 Q1917.46 280.209 1919.83 282.524 Q1922.21 284.816 1926.45 284.816 Q1928.9 284.816 1931.19 284.214 Q1933.51 283.612 1935.77 282.409 L1935.77 286.436 Q1933.48 287.408 1931.08 287.918 Q1928.67 288.427 1926.19 288.427 Q1919.99 288.427 1916.35 284.816 Q1912.74 281.205 1912.74 275.047 Q1912.74 268.682 1916.17 264.955 Q1919.62 261.205 1925.45 261.205 Q1930.68 261.205 1933.71 264.585 Q1936.77 267.941 1936.77 273.728 M1932.51 272.478 Q1932.46 268.983 1930.54 266.899 Q1928.64 264.816 1925.5 264.816 Q1921.93 264.816 1919.78 266.83 Q1917.65 268.844 1917.33 272.501 L1932.51 272.478 Z" fill="#000000" fill-rule="nonzero" fill-opacity="1"></path><path clip-path="url(#clip230)" d="M1958.78 265.811 Q1958.07 265.395 1957.21 265.21 Q1956.38 265.001 1955.36 265.001 Q1951.75 265.001 1949.8 267.362 Q1947.88 269.7 1947.88 274.098 L1947.88 287.756 L1943.6 287.756 L1943.6 261.83 L1947.88 261.83 L1947.88 265.858 Q1949.22 263.497 1951.38 262.362 Q1953.53 261.205 1956.61 261.205 Q1957.05 261.205 1957.58 261.274 Q1958.11 261.321 1958.76 261.436 L1958.78 265.811 Z" fill="#000000" fill-rule="nonzero" fill-opacity="1"></path></svg>