<svg xmlns="http://www.w3.org/2000/svg" xmlns:xlink="http://www.w3.org/1999/xlink" width="600" height="400" viewBox="0 0 2400 1600">
<defs>
  <clipPath id="clip110">
    <rect x="0" y="0" width="2400" height="1600"></rect>
  </clipPath>
</defs>
<path clip-path="url(#clip110)" d="M0 1600 L2400 1600 L2400 0 L0 0  Z" fill="#ffffff" fill-rule="evenodd" fill-opacity="1"></path>
<defs>
  <clipPath id="clip111">
    <rect x="480" y="0" width="1681" height="1600"></rect>
  </clipPath>
</defs>
<path clip-path="url(#clip110)" d="M203.964 1423.18 L2352.76 1423.18 L2352.76 123.472 L203.964 123.472  Z" fill="#ffffff" fill-rule="evenodd" fill-opacity="1"></path>
<defs>
  <clipPath id="clip112">
    <rect x="203" y="123" width="2150" height="1301"></rect>
  </clipPath>
</defs>
<polyline clip-path="url(#clip112)" style="stroke:#000000; stroke-linecap:round; stroke-linejoin:round; stroke-width:2; stroke-opacity:0.1; fill:none" points="257.999,1423.18 257.999,123.472 "></polyline>
<polyline clip-path="url(#clip112)" style="stroke:#000000; stroke-linecap:round; stroke-linejoin:round; stroke-width:2; stroke-opacity:0.1; fill:none" points="935.979,1423.18 935.979,123.472 "></polyline>
<polyline clip-path="url(#clip112)" style="stroke:#000000; stroke-linecap:round; stroke-linejoin:round; stroke-width:2; stroke-opacity:0.1; fill:none" points="1613.96,1423.18 1613.96,123.472 "></polyline>
<polyline clip-path="url(#clip112)" style="stroke:#000000; stroke-linecap:round; stroke-linejoin:round; stroke-width:2; stroke-opacity:0.1; fill:none" points="2291.94,1423.18 2291.94,123.472 "></polyline>
<polyline clip-path="url(#clip112)" style="stroke:#000000; stroke-linecap:round; stroke-linejoin:round; stroke-width:2; stroke-opacity:0.1; fill:none" points="203.964,1414.91 2352.76,1414.91 "></polyline>
<polyline clip-path="url(#clip112)" style="stroke:#000000; stroke-linecap:round; stroke-linejoin:round; stroke-width:2; stroke-opacity:0.1; fill:none" points="203.964,1066.52 2352.76,1066.52 "></polyline>
<polyline clip-path="url(#clip112)" style="stroke:#000000; stroke-linecap:round; stroke-linejoin:round; stroke-width:2; stroke-opacity:0.1; fill:none" points="203.964,718.122 2352.76,718.122 "></polyline>
<polyline clip-path="url(#clip112)" style="stroke:#000000; stroke-linecap:round; stroke-linejoin:round; stroke-width:2; stroke-opacity:0.1; fill:none" points="203.964,369.728 2352.76,369.728 "></polyline>
<polyline clip-path="url(#clip110)" style="stroke:#000000; stroke-linecap:round; stroke-linejoin:round; stroke-width:4; stroke-opacity:1; fill:none" points="203.964,1423.18 2352.76,1423.18 "></polyline>
<polyline clip-path="url(#clip110)" style="stroke:#000000; stroke-linecap:round; stroke-linejoin:round; stroke-width:4; stroke-opacity:1; fill:none" points="257.999,1423.18 257.999,1404.28 "></polyline>
<polyline clip-path="url(#clip110)" style="stroke:#000000; stroke-linecap:round; stroke-linejoin:round; stroke-width:4; stroke-opacity:1; fill:none" points="935.979,1423.18 935.979,1404.28 "></polyline>
<polyline clip-path="url(#clip110)" style="stroke:#000000; stroke-linecap:round; stroke-linejoin:round; stroke-width:4; stroke-opacity:1; fill:none" points="1613.96,1423.18 1613.96,1404.28 "></polyline>
<polyline clip-path="url(#clip110)" style="stroke:#000000; stroke-linecap:round; stroke-linejoin:round; stroke-width:4; stroke-opacity:1; fill:none" points="2291.94,1423.18 2291.94,1404.28 "></polyline>
<path clip-path="url(#clip110)" d="M257.999 1454.1 Q254.388 1454.1 252.559 1457.66 Q250.753 1461.2 250.753 1468.33 Q250.753 1475.44 252.559 1479.01 Q254.388 1482.55 257.999 1482.55 Q261.633 1482.55 263.438 1479.01 Q265.267 1475.44 265.267 1468.33 Q265.267 1461.2 263.438 1457.66 Q261.633 1454.1 257.999 1454.1 M257.999 1450.39 Q263.809 1450.39 266.864 1455 Q269.943 1459.58 269.943 1468.33 Q269.943 1477.06 266.864 1481.67 Q263.809 1486.25 257.999 1486.25 Q252.188 1486.25 249.11 1481.67 Q246.054 1477.06 246.054 1468.33 Q246.054 1459.58 249.11 1455 Q252.188 1450.39 257.999 1450.39 Z" fill="#000000" fill-rule="nonzero" fill-opacity="1"></path><path clip-path="url(#clip110)" d="M895.586 1481.64 L903.225 1481.64 L903.225 1455.28 L894.915 1456.95 L894.915 1452.69 L903.179 1451.02 L907.855 1451.02 L907.855 1481.64 L915.493 1481.64 L915.493 1485.58 L895.586 1485.58 L895.586 1481.64 Z" fill="#000000" fill-rule="nonzero" fill-opacity="1"></path><path clip-path="url(#clip110)" d="M934.938 1454.1 Q931.327 1454.1 929.498 1457.66 Q927.692 1461.2 927.692 1468.33 Q927.692 1475.44 929.498 1479.01 Q931.327 1482.55 934.938 1482.55 Q938.572 1482.55 940.378 1479.01 Q942.206 1475.44 942.206 1468.33 Q942.206 1461.2 940.378 1457.66 Q938.572 1454.1 934.938 1454.1 M934.938 1450.39 Q940.748 1450.39 943.803 1455 Q946.882 1459.58 946.882 1468.33 Q946.882 1477.06 943.803 1481.67 Q940.748 1486.25 934.938 1486.25 Q929.128 1486.25 926.049 1481.67 Q922.993 1477.06 922.993 1468.33 Q922.993 1459.58 926.049 1455 Q929.128 1450.39 934.938 1450.39 Z" fill="#000000" fill-rule="nonzero" fill-opacity="1"></path><path clip-path="url(#clip110)" d="M965.1 1454.1 Q961.489 1454.1 959.66 1457.66 Q957.854 1461.2 957.854 1468.33 Q957.854 1475.44 959.66 1479.01 Q961.489 1482.55 965.1 1482.55 Q968.734 1482.55 970.539 1479.01 Q972.368 1475.44 972.368 1468.33 Q972.368 1461.2 970.539 1457.66 Q968.734 1454.1 965.1 1454.1 M965.1 1450.39 Q970.91 1450.39 973.965 1455 Q977.044 1459.58 977.044 1468.33 Q977.044 1477.06 973.965 1481.67 Q970.91 1486.25 965.1 1486.25 Q959.289 1486.25 956.211 1481.67 Q953.155 1477.06 953.155 1468.33 Q953.155 1459.58 956.211 1455 Q959.289 1450.39 965.1 1450.39 Z" fill="#000000" fill-rule="nonzero" fill-opacity="1"></path><path clip-path="url(#clip110)" d="M1577.65 1481.64 L1593.97 1481.64 L1593.97 1485.58 L1572.03 1485.58 L1572.03 1481.64 Q1574.69 1478.89 1579.27 1474.26 Q1583.88 1469.61 1585.06 1468.27 Q1587.31 1465.74 1588.18 1464.01 Q1589.09 1462.25 1589.09 1460.56 Q1589.09 1457.8 1587.14 1456.07 Q1585.22 1454.33 1582.12 1454.33 Q1579.92 1454.33 1577.47 1455.09 Q1575.04 1455.86 1572.26 1457.41 L1572.26 1452.69 Q1575.08 1451.55 1577.54 1450.97 Q1579.99 1450.39 1582.03 1450.39 Q1587.4 1450.39 1590.59 1453.08 Q1593.79 1455.77 1593.79 1460.26 Q1593.79 1462.39 1592.98 1464.31 Q1592.19 1466.2 1590.08 1468.8 Q1589.5 1469.47 1586.4 1472.69 Q1583.3 1475.88 1577.65 1481.64 Z" fill="#000000" fill-rule="nonzero" fill-opacity="1"></path><path clip-path="url(#clip110)" d="M1613.79 1454.1 Q1610.18 1454.1 1608.35 1457.66 Q1606.54 1461.2 1606.54 1468.33 Q1606.54 1475.44 1608.35 1479.01 Q1610.18 1482.55 1613.79 1482.55 Q1617.42 1482.55 1619.23 1479.01 Q1621.06 1475.44 1621.06 1468.33 Q1621.06 1461.2 1619.23 1457.66 Q1617.42 1454.1 1613.79 1454.1 M1613.79 1450.39 Q1619.6 1450.39 1622.65 1455 Q1625.73 1459.58 1625.73 1468.33 Q1625.73 1477.06 1622.65 1481.67 Q1619.6 1486.25 1613.79 1486.25 Q1607.98 1486.25 1604.9 1481.67 Q1601.84 1477.06 1601.84 1468.33 Q1601.84 1459.58 1604.9 1455 Q1607.98 1450.39 1613.79 1450.39 Z" fill="#000000" fill-rule="nonzero" fill-opacity="1"></path><path clip-path="url(#clip110)" d="M1643.95 1454.1 Q1640.34 1454.1 1638.51 1457.66 Q1636.7 1461.2 1636.7 1468.33 Q1636.7 1475.44 1638.51 1479.01 Q1640.34 1482.55 1643.95 1482.55 Q1647.58 1482.55 1649.39 1479.01 Q1651.22 1475.44 1651.22 1468.33 Q1651.22 1461.2 1649.39 1457.66 Q1647.58 1454.1 1643.95 1454.1 M1643.95 1450.39 Q1649.76 1450.39 1652.81 1455 Q1655.89 1459.58 1655.89 1468.33 Q1655.89 1477.06 1652.81 1481.67 Q1649.76 1486.25 1643.95 1486.25 Q1638.14 1486.25 1635.06 1481.67 Q1632 1477.06 1632 1468.33 Q1632 1459.58 1635.06 1455 Q1638.14 1450.39 1643.95 1450.39 Z" fill="#000000" fill-rule="nonzero" fill-opacity="1"></path><path clip-path="url(#clip110)" d="M2265.7 1466.95 Q2269.06 1467.66 2270.93 1469.93 Q2272.83 1472.2 2272.83 1475.53 Q2272.83 1480.65 2269.31 1483.45 Q2265.8 1486.25 2259.31 1486.25 Q2257.14 1486.25 2254.82 1485.81 Q2252.53 1485.39 2250.08 1484.54 L2250.08 1480.02 Q2252.02 1481.16 2254.34 1481.74 Q2256.65 1482.32 2259.18 1482.32 Q2263.57 1482.32 2265.86 1480.58 Q2268.18 1478.84 2268.18 1475.53 Q2268.18 1472.48 2266.03 1470.77 Q2263.9 1469.03 2260.08 1469.03 L2256.05 1469.03 L2256.05 1465.19 L2260.26 1465.19 Q2263.71 1465.19 2265.54 1463.82 Q2267.37 1462.43 2267.37 1459.84 Q2267.37 1457.18 2265.47 1455.77 Q2263.6 1454.33 2260.08 1454.33 Q2258.16 1454.33 2255.96 1454.75 Q2253.76 1455.16 2251.12 1456.04 L2251.12 1451.88 Q2253.78 1451.14 2256.1 1450.77 Q2258.43 1450.39 2260.49 1450.39 Q2265.82 1450.39 2268.92 1452.83 Q2272.02 1455.23 2272.02 1459.35 Q2272.02 1462.22 2270.38 1464.21 Q2268.74 1466.18 2265.7 1466.95 Z" fill="#000000" fill-rule="nonzero" fill-opacity="1"></path><path clip-path="url(#clip110)" d="M2291.7 1454.1 Q2288.09 1454.1 2286.26 1457.66 Q2284.45 1461.2 2284.45 1468.33 Q2284.45 1475.44 2286.26 1479.01 Q2288.09 1482.55 2291.7 1482.55 Q2295.33 1482.55 2297.14 1479.01 Q2298.97 1475.44 2298.97 1468.33 Q2298.97 1461.2 2297.14 1457.66 Q2295.33 1454.1 2291.7 1454.1 M2291.7 1450.39 Q2297.51 1450.39 2300.56 1455 Q2303.64 1459.58 2303.64 1468.33 Q2303.64 1477.06 2300.56 1481.67 Q2297.51 1486.25 2291.7 1486.25 Q2285.89 1486.25 2282.81 1481.67 Q2279.75 1477.06 2279.75 1468.33 Q2279.75 1459.58 2282.81 1455 Q2285.89 1450.39 2291.7 1450.39 Z" fill="#000000" fill-rule="nonzero" fill-opacity="1"></path><path clip-path="url(#clip110)" d="M2321.86 1454.1 Q2318.25 1454.1 2316.42 1457.66 Q2314.61 1461.2 2314.61 1468.33 Q2314.61 1475.44 2316.42 1479.01 Q2318.25 1482.55 2321.86 1482.55 Q2325.49 1482.55 2327.3 1479.01 Q2329.13 1475.44 2329.13 1468.33 Q2329.13 1461.2 2327.3 1457.66 Q2325.49 1454.1 2321.86 1454.1 M2321.86 1450.39 Q2327.67 1450.39 2330.73 1455 Q2333.8 1459.58 2333.8 1468.33 Q2333.8 1477.06 2330.73 1481.67 Q2327.67 1486.25 2321.86 1486.25 Q2316.05 1486.25 2312.97 1481.67 Q2309.92 1477.06 2309.92 1468.33 Q2309.92 1459.58 2312.97 1455 Q2316.05 1450.39 2321.86 1450.39 Z" fill="#000000" fill-rule="nonzero" fill-opacity="1"></path><path clip-path="url(#clip110)" d="M1198.55 1548.76 L1198.55 1551.62 L1171.62 1551.62 Q1172 1557.67 1175.25 1560.85 Q1178.53 1564 1184.35 1564 Q1187.73 1564 1190.88 1563.17 Q1194.06 1562.35 1197.18 1560.69 L1197.18 1566.23 Q1194.03 1567.57 1190.72 1568.27 Q1187.41 1568.97 1184 1568.97 Q1175.47 1568.97 1170.48 1564 Q1165.51 1559.04 1165.51 1550.57 Q1165.51 1541.82 1170.22 1536.69 Q1174.96 1531.54 1182.99 1531.54 Q1190.18 1531.54 1194.35 1536.18 Q1198.55 1540.8 1198.55 1548.76 M1192.69 1547.04 Q1192.63 1542.23 1189.99 1539.37 Q1187.38 1536.5 1183.05 1536.5 Q1178.15 1536.5 1175.19 1539.27 Q1172.26 1542.04 1171.81 1547.07 L1192.69 1547.04 Z" fill="#000000" fill-rule="nonzero" fill-opacity="1"></path><path clip-path="url(#clip110)" d="M1213.83 1562.7 L1213.83 1581.6 L1207.94 1581.6 L1207.94 1532.4 L1213.83 1532.4 L1213.83 1537.81 Q1215.67 1534.62 1218.47 1533.1 Q1221.31 1531.54 1225.22 1531.54 Q1231.72 1531.54 1235.76 1536.69 Q1239.83 1541.85 1239.83 1550.25 Q1239.83 1558.65 1235.76 1563.81 Q1231.72 1568.97 1225.22 1568.97 Q1221.31 1568.97 1218.47 1567.44 Q1215.67 1565.88 1213.83 1562.7 M1233.75 1550.25 Q1233.75 1543.79 1231.08 1540.13 Q1228.44 1536.44 1223.79 1536.44 Q1219.14 1536.44 1216.47 1540.13 Q1213.83 1543.79 1213.83 1550.25 Q1213.83 1556.71 1216.47 1560.4 Q1219.14 1564.07 1223.79 1564.07 Q1228.44 1564.07 1231.08 1560.4 Q1233.75 1556.71 1233.75 1550.25 Z" fill="#000000" fill-rule="nonzero" fill-opacity="1"></path><path clip-path="url(#clip110)" d="M1263.35 1536.5 Q1258.64 1536.5 1255.9 1540.19 Q1253.17 1543.85 1253.17 1550.25 Q1253.17 1556.65 1255.87 1560.34 Q1258.61 1564 1263.35 1564 Q1268.03 1564 1270.77 1560.31 Q1273.51 1556.62 1273.51 1550.25 Q1273.51 1543.92 1270.77 1540.23 Q1268.03 1536.5 1263.35 1536.5 M1263.35 1531.54 Q1270.99 1531.54 1275.35 1536.5 Q1279.71 1541.47 1279.71 1550.25 Q1279.71 1559 1275.35 1564 Q1270.99 1568.97 1263.35 1568.97 Q1255.68 1568.97 1251.32 1564 Q1246.99 1559 1246.99 1550.25 Q1246.99 1541.47 1251.32 1536.5 Q1255.68 1531.54 1263.35 1531.54 Z" fill="#000000" fill-rule="nonzero" fill-opacity="1"></path><path clip-path="url(#clip110)" d="M1315.07 1533.76 L1315.07 1539.24 Q1312.59 1537.87 1310.08 1537.2 Q1307.59 1536.5 1305.05 1536.5 Q1299.35 1536.5 1296.2 1540.13 Q1293.05 1543.73 1293.05 1550.25 Q1293.05 1556.78 1296.2 1560.4 Q1299.35 1564 1305.05 1564 Q1307.59 1564 1310.08 1563.33 Q1312.59 1562.63 1315.07 1561.26 L1315.07 1566.68 Q1312.62 1567.82 1309.98 1568.39 Q1307.37 1568.97 1304.41 1568.97 Q1296.36 1568.97 1291.62 1563.91 Q1286.87 1558.85 1286.87 1550.25 Q1286.87 1541.53 1291.65 1536.53 Q1296.45 1531.54 1304.79 1531.54 Q1307.5 1531.54 1310.08 1532.11 Q1312.65 1532.65 1315.07 1533.76 Z" fill="#000000" fill-rule="nonzero" fill-opacity="1"></path><path clip-path="url(#clip110)" d="M1354.89 1546.53 L1354.89 1568.04 L1349.03 1568.04 L1349.03 1546.72 Q1349.03 1541.66 1347.06 1539.14 Q1345.09 1536.63 1341.14 1536.63 Q1336.4 1536.63 1333.66 1539.65 Q1330.92 1542.68 1330.92 1547.9 L1330.92 1568.04 L1325.04 1568.04 L1325.04 1518.52 L1330.92 1518.52 L1330.92 1537.93 Q1333.03 1534.72 1335.86 1533.13 Q1338.72 1531.54 1342.45 1531.54 Q1348.59 1531.54 1351.74 1535.36 Q1354.89 1539.14 1354.89 1546.53 Z" fill="#000000" fill-rule="nonzero" fill-opacity="1"></path><path clip-path="url(#clip110)" d="M1389.3 1533.45 L1389.3 1538.98 Q1386.82 1537.71 1384.14 1537.07 Q1381.47 1536.44 1378.6 1536.44 Q1374.24 1536.44 1372.05 1537.77 Q1369.88 1539.11 1369.88 1541.79 Q1369.88 1543.82 1371.44 1545 Q1373 1546.15 1377.71 1547.2 L1379.72 1547.64 Q1385.96 1548.98 1388.57 1551.43 Q1391.21 1553.85 1391.21 1558.21 Q1391.21 1563.17 1387.26 1566.07 Q1383.35 1568.97 1376.47 1568.97 Q1373.61 1568.97 1370.49 1568.39 Q1367.4 1567.85 1363.96 1566.74 L1363.96 1560.69 Q1367.21 1562.38 1370.36 1563.24 Q1373.51 1564.07 1376.6 1564.07 Q1380.74 1564.07 1382.96 1562.66 Q1385.19 1561.23 1385.19 1558.65 Q1385.19 1556.27 1383.57 1554.99 Q1381.98 1553.72 1376.53 1552.54 L1374.5 1552.07 Q1369.06 1550.92 1366.64 1548.56 Q1364.22 1546.18 1364.22 1542.04 Q1364.22 1537.01 1367.78 1534.27 Q1371.35 1531.54 1377.9 1531.54 Q1381.15 1531.54 1384.01 1532.01 Q1386.88 1532.49 1389.3 1533.45 Z" fill="#000000" fill-rule="nonzero" fill-opacity="1"></path><polyline clip-path="url(#clip110)" style="stroke:#000000; stroke-linecap:round; stroke-linejoin:round; stroke-width:4; stroke-opacity:1; fill:none" points="203.964,1423.18 203.964,123.472 "></polyline>
<polyline clip-path="url(#clip110)" style="stroke:#000000; stroke-linecap:round; stroke-linejoin:round; stroke-width:4; stroke-opacity:1; fill:none" points="203.964,1414.91 222.861,1414.91 "></polyline>
<polyline clip-path="url(#clip110)" style="stroke:#000000; stroke-linecap:round; stroke-linejoin:round; stroke-width:4; stroke-opacity:1; fill:none" points="203.964,1066.52 222.861,1066.52 "></polyline>
<polyline clip-path="url(#clip110)" style="stroke:#000000; stroke-linecap:round; stroke-linejoin:round; stroke-width:4; stroke-opacity:1; fill:none" points="203.964,718.122 222.861,718.122 "></polyline>
<polyline clip-path="url(#clip110)" style="stroke:#000000; stroke-linecap:round; stroke-linejoin:round; stroke-width:4; stroke-opacity:1; fill:none" points="203.964,369.728 222.861,369.728 "></polyline>
<path clip-path="url(#clip110)" d="M156.019 1400.71 Q152.408 1400.71 150.579 1404.28 Q148.774 1407.82 148.774 1414.95 Q148.774 1422.05 150.579 1425.62 Q152.408 1429.16 156.019 1429.16 Q159.653 1429.16 161.459 1425.62 Q163.288 1422.05 163.288 1414.95 Q163.288 1407.82 161.459 1404.28 Q159.653 1400.71 156.019 1400.71 M156.019 1397.01 Q161.829 1397.01 164.885 1401.61 Q167.964 1406.2 167.964 1414.95 Q167.964 1423.67 164.885 1428.28 Q161.829 1432.86 156.019 1432.86 Q150.209 1432.86 147.13 1428.28 Q144.075 1423.67 144.075 1414.95 Q144.075 1406.2 147.13 1401.61 Q150.209 1397.01 156.019 1397.01 Z" fill="#000000" fill-rule="nonzero" fill-opacity="1"></path><path clip-path="url(#clip110)" d="M116.668 1079.86 L124.306 1079.86 L124.306 1053.5 L115.996 1055.16 L115.996 1050.9 L124.26 1049.24 L128.936 1049.24 L128.936 1079.86 L136.575 1079.86 L136.575 1083.8 L116.668 1083.8 L116.668 1079.86 Z" fill="#000000" fill-rule="nonzero" fill-opacity="1"></path><path clip-path="url(#clip110)" d="M156.019 1052.32 Q152.408 1052.32 150.579 1055.88 Q148.774 1059.42 148.774 1066.55 Q148.774 1073.66 150.579 1077.22 Q152.408 1080.76 156.019 1080.76 Q159.653 1080.76 161.459 1077.22 Q163.288 1073.66 163.288 1066.55 Q163.288 1059.42 161.459 1055.88 Q159.653 1052.32 156.019 1052.32 M156.019 1048.61 Q161.829 1048.61 164.885 1053.22 Q167.964 1057.8 167.964 1066.55 Q167.964 1075.28 164.885 1079.89 Q161.829 1084.47 156.019 1084.47 Q150.209 1084.47 147.13 1079.89 Q144.075 1075.28 144.075 1066.55 Q144.075 1057.8 147.13 1053.22 Q150.209 1048.61 156.019 1048.61 Z" fill="#000000" fill-rule="nonzero" fill-opacity="1"></path><path clip-path="url(#clip110)" d="M119.885 731.467 L136.204 731.467 L136.204 735.402 L114.26 735.402 L114.26 731.467 Q116.922 728.713 121.505 724.083 Q126.112 719.43 127.292 718.088 Q129.538 715.565 130.417 713.828 Q131.32 712.069 131.32 710.379 Q131.32 707.625 129.376 705.889 Q127.455 704.153 124.353 704.153 Q122.154 704.153 119.7 704.916 Q117.269 705.68 114.492 707.231 L114.492 702.509 Q117.316 701.375 119.769 700.796 Q122.223 700.217 124.26 700.217 Q129.63 700.217 132.825 702.903 Q136.019 705.588 136.019 710.078 Q136.019 712.208 135.209 714.129 Q134.422 716.028 132.316 718.62 Q131.737 719.291 128.635 722.509 Q125.533 725.703 119.885 731.467 Z" fill="#000000" fill-rule="nonzero" fill-opacity="1"></path><path clip-path="url(#clip110)" d="M156.019 703.921 Q152.408 703.921 150.579 707.486 Q148.774 711.028 148.774 718.157 Q148.774 725.264 150.579 728.828 Q152.408 732.37 156.019 732.37 Q159.653 732.37 161.459 728.828 Q163.288 725.264 163.288 718.157 Q163.288 711.028 161.459 707.486 Q159.653 703.921 156.019 703.921 M156.019 700.217 Q161.829 700.217 164.885 704.824 Q167.964 709.407 167.964 718.157 Q167.964 726.884 164.885 731.49 Q161.829 736.074 156.019 736.074 Q150.209 736.074 147.13 731.49 Q144.075 726.884 144.075 718.157 Q144.075 709.407 147.13 704.824 Q150.209 700.217 156.019 700.217 Z" fill="#000000" fill-rule="nonzero" fill-opacity="1"></path><path clip-path="url(#clip110)" d="M130.024 368.374 Q133.38 369.091 135.255 371.36 Q137.154 373.628 137.154 376.961 Q137.154 382.077 133.635 384.878 Q130.117 387.679 123.635 387.679 Q121.459 387.679 119.144 387.239 Q116.853 386.823 114.399 385.966 L114.399 381.452 Q116.343 382.586 118.658 383.165 Q120.973 383.744 123.496 383.744 Q127.894 383.744 130.186 382.008 Q132.501 380.272 132.501 376.961 Q132.501 373.906 130.348 372.193 Q128.218 370.457 124.399 370.457 L120.371 370.457 L120.371 366.614 L124.584 366.614 Q128.033 366.614 129.862 365.249 Q131.691 363.86 131.691 361.267 Q131.691 358.605 129.792 357.193 Q127.917 355.758 124.399 355.758 Q122.478 355.758 120.279 356.175 Q118.08 356.591 115.441 357.471 L115.441 353.304 Q118.103 352.563 120.418 352.193 Q122.755 351.823 124.816 351.823 Q130.14 351.823 133.242 354.253 Q136.343 356.661 136.343 360.781 Q136.343 363.651 134.7 365.642 Q133.056 367.61 130.024 368.374 Z" fill="#000000" fill-rule="nonzero" fill-opacity="1"></path><path clip-path="url(#clip110)" d="M156.019 355.526 Q152.408 355.526 150.579 359.091 Q148.774 362.633 148.774 369.762 Q148.774 376.869 150.579 380.434 Q152.408 383.975 156.019 383.975 Q159.653 383.975 161.459 380.434 Q163.288 376.869 163.288 369.762 Q163.288 362.633 161.459 359.091 Q159.653 355.526 156.019 355.526 M156.019 351.823 Q161.829 351.823 164.885 356.429 Q167.964 361.012 167.964 369.762 Q167.964 378.489 164.885 383.096 Q161.829 387.679 156.019 387.679 Q150.209 387.679 147.13 383.096 Q144.075 378.489 144.075 369.762 Q144.075 361.012 147.13 356.429 Q150.209 351.823 156.019 351.823 Z" fill="#000000" fill-rule="nonzero" fill-opacity="1"></path><path clip-path="url(#clip110)" d="M16.4842 908.597 L16.4842 902.168 L58.5933 902.168 L58.5933 879.029 L64.0042 879.029 L64.0042 908.597 L16.4842 908.597 Z" fill="#000000" fill-rule="nonzero" fill-opacity="1"></path><path clip-path="url(#clip110)" d="M32.4621 859.868 Q32.4621 864.578 36.1542 867.316 Q39.8145 870.053 46.212 870.053 Q52.6095 870.053 56.3017 867.347 Q59.9619 864.61 59.9619 859.868 Q59.9619 855.189 56.2698 852.452 Q52.5777 849.714 46.212 849.714 Q39.8781 849.714 36.186 852.452 Q32.4621 855.189 32.4621 859.868 M27.4968 859.868 Q27.4968 852.229 32.4621 847.868 Q37.4273 843.508 46.212 843.508 Q54.9649 843.508 59.9619 847.868 Q64.9272 852.229 64.9272 859.868 Q64.9272 867.538 59.9619 871.899 Q54.9649 876.228 46.212 876.228 Q37.4273 876.228 32.4621 871.899 Q27.4968 867.538 27.4968 859.868 Z" fill="#000000" fill-rule="nonzero" fill-opacity="1"></path><path clip-path="url(#clip110)" d="M45.7664 810.343 Q39.4007 810.343 35.8996 812.984 Q32.3984 815.594 32.3984 820.337 Q32.3984 825.047 35.8996 827.689 Q39.4007 830.299 45.7664 830.299 Q52.1003 830.299 55.6014 827.689 Q59.1026 825.047 59.1026 820.337 Q59.1026 815.594 55.6014 812.984 Q52.1003 810.343 45.7664 810.343 M59.58 804.486 Q68.683 804.486 73.1071 808.528 Q77.5631 812.571 77.5631 820.91 Q77.5631 823.997 77.0857 826.734 Q76.6401 829.472 75.6852 832.05 L69.9879 832.05 Q71.3884 829.472 72.0568 826.957 Q72.7252 824.443 72.7252 821.833 Q72.7252 816.072 69.7015 813.207 Q66.7096 810.343 60.6303 810.343 L57.7339 810.343 Q60.885 812.157 62.4446 814.99 Q64.0042 817.822 64.0042 821.769 Q64.0042 828.326 59.0071 832.336 Q54.01 836.346 45.7664 836.346 Q37.491 836.346 32.4939 832.336 Q27.4968 828.326 27.4968 821.769 Q27.4968 817.822 29.0564 814.99 Q30.616 812.157 33.7671 810.343 L28.3562 810.343 L28.3562 804.486 L59.58 804.486 Z" fill="#000000" fill-rule="nonzero" fill-opacity="1"></path><path clip-path="url(#clip110)" d="M16.4842 771.448 L16.4842 765.019 L58.5933 765.019 L58.5933 741.879 L64.0042 741.879 L64.0042 771.448 L16.4842 771.448 Z" fill="#000000" fill-rule="nonzero" fill-opacity="1"></path><path clip-path="url(#clip110)" d="M32.4621 722.719 Q32.4621 727.429 36.1542 730.166 Q39.8145 732.904 46.212 732.904 Q52.6095 732.904 56.3017 730.198 Q59.9619 727.461 59.9619 722.719 Q59.9619 718.04 56.2698 715.303 Q52.5777 712.565 46.212 712.565 Q39.8781 712.565 36.186 715.303 Q32.4621 718.04 32.4621 722.719 M27.4968 722.719 Q27.4968 715.08 32.4621 710.719 Q37.4273 706.359 46.212 706.359 Q54.9649 706.359 59.9619 710.719 Q64.9272 715.08 64.9272 722.719 Q64.9272 730.389 59.9619 734.75 Q54.9649 739.078 46.212 739.078 Q37.4273 739.078 32.4621 734.75 Q27.4968 730.389 27.4968 722.719 Z" fill="#000000" fill-rule="nonzero" fill-opacity="1"></path><path clip-path="url(#clip110)" d="M29.4065 673.925 L34.9447 673.925 Q33.6716 676.408 33.035 679.082 Q32.3984 681.755 32.3984 684.62 Q32.3984 688.98 33.7352 691.177 Q35.072 693.341 37.7456 693.341 Q39.7826 693.341 40.9603 691.781 Q42.1061 690.222 43.1565 685.511 L43.6021 683.506 Q44.9389 677.267 47.3897 674.658 Q49.8086 672.016 54.1691 672.016 Q59.1344 672.016 62.0308 675.963 Q64.9272 679.877 64.9272 686.752 Q64.9272 689.617 64.3543 692.736 Q63.8132 695.824 62.6992 699.261 L56.6518 699.261 Q58.3387 696.014 59.198 692.863 Q60.0256 689.712 60.0256 686.625 Q60.0256 682.487 58.6251 680.259 Q57.1929 678.031 54.6147 678.031 Q52.2276 678.031 50.9545 679.655 Q49.6813 681.246 48.5037 686.689 L48.0262 688.726 Q46.8804 694.168 44.5251 696.587 Q42.138 699.006 38.0002 699.006 Q32.9713 699.006 30.2341 695.442 Q27.4968 691.877 27.4968 685.32 Q27.4968 682.074 27.9743 679.209 Q28.4517 676.344 29.4065 673.925 Z" fill="#000000" fill-rule="nonzero" fill-opacity="1"></path><path clip-path="url(#clip110)" d="M29.4065 639.964 L34.9447 639.964 Q33.6716 642.447 33.035 645.121 Q32.3984 647.794 32.3984 650.659 Q32.3984 655.019 33.7352 657.215 Q35.072 659.38 37.7456 659.38 Q39.7826 659.38 40.9603 657.82 Q42.1061 656.261 43.1565 651.55 L43.6021 649.545 Q44.9389 643.306 47.3897 640.696 Q49.8086 638.055 54.1691 638.055 Q59.1344 638.055 62.0308 642.001 Q64.9272 645.916 64.9272 652.791 Q64.9272 655.656 64.3543 658.775 Q63.8132 661.862 62.6992 665.3 L56.6518 665.3 Q58.3387 662.053 59.198 658.902 Q60.0256 655.751 60.0256 652.664 Q60.0256 648.526 58.6251 646.298 Q57.1929 644.07 54.6147 644.07 Q52.2276 644.07 50.9545 645.694 Q49.6813 647.285 48.5037 652.728 L48.0262 654.765 Q46.8804 660.207 44.5251 662.626 Q42.138 665.045 38.0002 665.045 Q32.9713 665.045 30.2341 661.481 Q27.4968 657.916 27.4968 651.359 Q27.4968 648.113 27.9743 645.248 Q28.4517 642.383 29.4065 639.964 Z" fill="#000000" fill-rule="nonzero" fill-opacity="1"></path><path clip-path="url(#clip110)" d="M968.992 12.096 L977.175 12.096 L977.175 65.6895 L1006.63 65.6895 L1006.63 72.576 L968.992 72.576 L968.992 12.096 Z" fill="#000000" fill-rule="nonzero" fill-opacity="1"></path><path clip-path="url(#clip110)" d="M1052.24 48.0275 L1052.24 51.6733 L1017.97 51.6733 Q1018.45 59.3701 1022.59 63.421 Q1026.76 67.4314 1034.17 67.4314 Q1038.47 67.4314 1042.48 66.3781 Q1046.53 65.3249 1050.5 63.2184 L1050.5 70.267 Q1046.49 71.9684 1042.27 72.8596 Q1038.06 73.7508 1033.73 73.7508 Q1022.87 73.7508 1016.51 67.4314 Q1010.19 61.1119 1010.19 50.3365 Q1010.19 39.1965 1016.19 32.6746 Q1022.22 26.1121 1032.43 26.1121 Q1041.58 26.1121 1046.89 32.0264 Q1052.24 37.9003 1052.24 48.0275 M1044.78 45.84 Q1044.7 39.7232 1041.34 36.0774 Q1038.02 32.4315 1032.51 32.4315 Q1026.27 32.4315 1022.5 35.9558 Q1018.78 39.4801 1018.21 45.8805 L1044.78 45.84 Z" fill="#000000" fill-rule="nonzero" fill-opacity="1"></path><path clip-path="url(#clip110)" d="M1085.09 49.7694 Q1076.06 49.7694 1072.57 51.8354 Q1069.09 53.9013 1069.09 58.8839 Q1069.09 62.8538 1071.68 65.2034 Q1074.32 67.5124 1078.81 67.5124 Q1085.01 67.5124 1088.74 63.1374 Q1092.5 58.7219 1092.5 51.4303 L1092.5 49.7694 L1085.09 49.7694 M1099.96 46.6907 L1099.96 72.576 L1092.5 72.576 L1092.5 65.6895 Q1089.95 69.8214 1086.14 71.8063 Q1082.34 73.7508 1076.83 73.7508 Q1069.86 73.7508 1065.73 69.8619 Q1061.64 65.9325 1061.64 59.3701 Q1061.64 51.7138 1066.74 47.825 Q1071.89 43.9361 1082.05 43.9361 L1092.5 43.9361 L1092.5 43.2069 Q1092.5 38.0623 1089.1 35.2672 Q1085.74 32.4315 1079.62 32.4315 Q1075.73 32.4315 1072.05 33.3632 Q1068.36 34.295 1064.96 36.1584 L1064.96 29.2718 Q1069.05 27.692 1072.9 26.9223 Q1076.75 26.1121 1080.39 26.1121 Q1090.24 26.1121 1095.1 31.2163 Q1099.96 36.3204 1099.96 46.6907 Z" fill="#000000" fill-rule="nonzero" fill-opacity="1"></path><path clip-path="url(#clip110)" d="M1141.6 34.1734 Q1140.35 33.4443 1138.85 33.1202 Q1137.39 32.7556 1135.61 32.7556 Q1129.29 32.7556 1125.88 36.8875 Q1122.52 40.9789 1122.52 48.6757 L1122.52 72.576 L1115.03 72.576 L1115.03 27.2059 L1122.52 27.2059 L1122.52 34.2544 Q1124.87 30.1225 1128.64 28.1376 Q1132.41 26.1121 1137.79 26.1121 Q1138.56 26.1121 1139.49 26.2337 Q1140.43 26.3147 1141.56 26.5172 L1141.6 34.1734 Z" fill="#000000" fill-rule="nonzero" fill-opacity="1"></path><path clip-path="url(#clip110)" d="M1185.68 45.1919 L1185.68 72.576 L1178.22 72.576 L1178.22 45.4349 Q1178.22 38.994 1175.71 35.7938 Q1173.2 32.5936 1168.18 32.5936 Q1162.14 32.5936 1158.66 36.4419 Q1155.17 40.2903 1155.17 46.9338 L1155.17 72.576 L1147.68 72.576 L1147.68 27.2059 L1155.17 27.2059 L1155.17 34.2544 Q1157.85 30.163 1161.45 28.1376 Q1165.1 26.1121 1169.84 26.1121 Q1177.65 26.1121 1181.66 30.9732 Q1185.68 35.7938 1185.68 45.1919 Z" fill="#000000" fill-rule="nonzero" fill-opacity="1"></path><path clip-path="url(#clip110)" d="M1200.54 27.2059 L1208 27.2059 L1208 72.576 L1200.54 72.576 L1200.54 27.2059 M1200.54 9.54393 L1208 9.54393 L1208 18.9825 L1200.54 18.9825 L1200.54 9.54393 Z" fill="#000000" fill-rule="nonzero" fill-opacity="1"></path><path clip-path="url(#clip110)" d="M1261.31 45.1919 L1261.31 72.576 L1253.85 72.576 L1253.85 45.4349 Q1253.85 38.994 1251.34 35.7938 Q1248.83 32.5936 1243.81 32.5936 Q1237.77 32.5936 1234.29 36.4419 Q1230.8 40.2903 1230.8 46.9338 L1230.8 72.576 L1223.31 72.576 L1223.31 27.2059 L1230.8 27.2059 L1230.8 34.2544 Q1233.48 30.163 1237.08 28.1376 Q1240.73 26.1121 1245.47 26.1121 Q1253.28 26.1121 1257.3 30.9732 Q1261.31 35.7938 1261.31 45.1919 Z" fill="#000000" fill-rule="nonzero" fill-opacity="1"></path><path clip-path="url(#clip110)" d="M1306.03 49.3643 Q1306.03 41.2625 1302.67 36.8065 Q1299.34 32.3505 1293.31 32.3505 Q1287.31 32.3505 1283.95 36.8065 Q1280.63 41.2625 1280.63 49.3643 Q1280.63 57.4256 1283.95 61.8816 Q1287.31 66.3376 1293.31 66.3376 Q1299.34 66.3376 1302.67 61.8816 Q1306.03 57.4256 1306.03 49.3643 M1313.48 66.9452 Q1313.48 78.5308 1308.34 84.1616 Q1303.19 89.8329 1292.58 89.8329 Q1288.65 89.8329 1285.17 89.2252 Q1281.68 88.6581 1278.4 87.4428 L1278.4 80.1917 Q1281.68 81.9741 1284.88 82.8248 Q1288.08 83.6755 1291.4 83.6755 Q1298.74 83.6755 1302.38 79.8271 Q1306.03 76.0193 1306.03 68.282 L1306.03 64.5957 Q1303.72 68.6061 1300.11 70.5911 Q1296.51 72.576 1291.48 72.576 Q1283.14 72.576 1278.04 66.2161 Q1272.93 59.8562 1272.93 49.3643 Q1272.93 38.832 1278.04 32.472 Q1283.14 26.1121 1291.48 26.1121 Q1296.51 26.1121 1300.11 28.0971 Q1303.72 30.082 1306.03 34.0924 L1306.03 27.2059 L1313.48 27.2059 L1313.48 66.9452 Z" fill="#000000" fill-rule="nonzero" fill-opacity="1"></path><path clip-path="url(#clip110)" d="M1400.82 16.7545 L1400.82 25.383 Q1396.69 21.5346 1391.99 19.6307 Q1387.33 17.7268 1382.06 17.7268 Q1371.69 17.7268 1366.18 24.0867 Q1360.67 30.4061 1360.67 42.3968 Q1360.67 54.3469 1366.18 60.7069 Q1371.69 67.0263 1382.06 67.0263 Q1387.33 67.0263 1391.99 65.1223 Q1396.69 63.2184 1400.82 59.3701 L1400.82 67.9175 Q1396.52 70.8341 1391.7 72.2924 Q1386.92 73.7508 1381.58 73.7508 Q1367.84 73.7508 1359.94 65.3654 Q1352.05 56.9395 1352.05 42.3968 Q1352.05 27.8135 1359.94 19.4281 Q1367.84 11.0023 1381.58 11.0023 Q1387 11.0023 1391.79 12.4606 Q1396.61 13.8784 1400.82 16.7545 Z" fill="#000000" fill-rule="nonzero" fill-opacity="1"></path><path clip-path="url(#clip110)" d="M1412.36 54.671 L1412.36 27.2059 L1419.82 27.2059 L1419.82 54.3874 Q1419.82 60.8284 1422.33 64.0691 Q1424.84 67.2693 1429.86 67.2693 Q1435.9 67.2693 1439.38 63.421 Q1442.91 59.5726 1442.91 52.9291 L1442.91 27.2059 L1450.36 27.2059 L1450.36 72.576 L1442.91 72.576 L1442.91 65.6084 Q1440.19 69.7404 1436.59 71.7658 Q1433.02 73.7508 1428.28 73.7508 Q1420.47 73.7508 1416.41 68.8897 Q1412.36 64.0286 1412.36 54.671 M1431.12 26.1121 L1431.12 26.1121 Z" fill="#000000" fill-rule="nonzero" fill-opacity="1"></path><path clip-path="url(#clip110)" d="M1492 34.1734 Q1490.75 33.4443 1489.25 33.1202 Q1487.79 32.7556 1486.01 32.7556 Q1479.69 32.7556 1476.29 36.8875 Q1472.92 40.9789 1472.92 48.6757 L1472.92 72.576 L1465.43 72.576 L1465.43 27.2059 L1472.92 27.2059 L1472.92 34.2544 Q1475.27 30.1225 1479.04 28.1376 Q1482.81 26.1121 1488.2 26.1121 Q1488.97 26.1121 1489.9 26.2337 Q1490.83 26.3147 1491.96 26.5172 L1492 34.1734 Z" fill="#000000" fill-rule="nonzero" fill-opacity="1"></path><path clip-path="url(#clip110)" d="M1494.48 27.2059 L1502.37 27.2059 L1516.55 65.2844 L1530.73 27.2059 L1538.63 27.2059 L1521.62 72.576 L1511.49 72.576 L1494.48 27.2059 Z" fill="#000000" fill-rule="nonzero" fill-opacity="1"></path><path clip-path="url(#clip110)" d="M1587.73 48.0275 L1587.73 51.6733 L1553.46 51.6733 Q1553.94 59.3701 1558.07 63.421 Q1562.25 67.4314 1569.66 67.4314 Q1573.95 67.4314 1577.96 66.3781 Q1582.02 65.3249 1585.99 63.2184 L1585.99 70.267 Q1581.98 71.9684 1577.76 72.8596 Q1573.55 73.7508 1569.21 73.7508 Q1558.36 73.7508 1552 67.4314 Q1545.68 61.1119 1545.68 50.3365 Q1545.68 39.1965 1551.67 32.6746 Q1557.71 26.1121 1567.92 26.1121 Q1577.07 26.1121 1582.38 32.0264 Q1587.73 37.9003 1587.73 48.0275 M1580.27 45.84 Q1580.19 39.7232 1576.83 36.0774 Q1573.51 32.4315 1568 32.4315 Q1561.76 32.4315 1557.99 35.9558 Q1554.27 39.4801 1553.7 45.8805 L1580.27 45.84 Z" fill="#000000" fill-rule="nonzero" fill-opacity="1"></path><polyline clip-path="url(#clip112)" style="stroke:#009af9; stroke-linecap:round; stroke-linejoin:round; stroke-width:4; stroke-opacity:1; fill:none" points="325.797,186.327 332.577,160.256 346.136,160.256 352.916,160.256 366.476,160.256 380.035,201.535 393.595,1021.68 413.934,1358.84 434.274,1021.68 454.613,481.796 474.952,201.535 502.072,481.796 535.971,481.796 569.87,481.796 610.549,160.256 651.228,186.327 698.686,160.256 752.925,520.556 820.723,186.327 888.521,481.796 963.099,160.256 1051.24,481.796 1152.93,186.327 1261.41,1358.84 1390.23,1385.95 1532.6,186.327 1688.54,160.256 1864.81,481.796 2068.21,186.327 2291.94,186.327 "></polyline>
<polyline clip-path="url(#clip112)" style="stroke:#e26f46; stroke-linecap:round; stroke-linejoin:round; stroke-width:4; stroke-opacity:1; fill:none" stroke-dasharray="16, 10" points="264.778,1386.4 2291.94,1386.4 "></polyline>
<path clip-path="url(#clip110)" d="M1470.03 1379.86 L2281.13 1379.86 L2281.13 1224.34 L1470.03 1224.34  Z" fill="#ffffff" fill-rule="evenodd" fill-opacity="1"></path>
<polyline clip-path="url(#clip110)" style="stroke:#000000; stroke-linecap:round; stroke-linejoin:round; stroke-width:4; stroke-opacity:1; fill:none" points="1470.03,1379.86 2281.13,1379.86 2281.13,1224.34 1470.03,1224.34 1470.03,1379.86 "></polyline>
<polyline clip-path="url(#clip110)" style="stroke:#009af9; stroke-linecap:round; stroke-linejoin:round; stroke-width:4; stroke-opacity:1; fill:none" points="1493.9,1276.18 1637.15,1276.18 "></polyline>
<path clip-path="url(#clip110)" d="M1661.03 1258.9 L1667.33 1258.9 L1682.65 1287.81 L1682.65 1258.9 L1687.19 1258.9 L1687.19 1293.46 L1680.89 1293.46 L1665.57 1264.54 L1665.57 1293.46 L1661.03 1293.46 L1661.03 1258.9 Z" fill="#000000" fill-rule="nonzero" fill-opacity="1"></path><path clip-path="url(#clip110)" d="M1718.48 1279.43 L1718.48 1281.51 L1698.9 1281.51 Q1699.18 1285.91 1701.54 1288.22 Q1703.92 1290.52 1708.16 1290.52 Q1710.61 1290.52 1712.91 1289.91 Q1715.22 1289.31 1717.49 1288.11 L1717.49 1292.14 Q1715.2 1293.11 1712.79 1293.62 Q1710.38 1294.13 1707.91 1294.13 Q1701.7 1294.13 1698.07 1290.52 Q1694.46 1286.91 1694.46 1280.75 Q1694.46 1274.38 1697.88 1270.66 Q1701.33 1266.91 1707.16 1266.91 Q1712.4 1266.91 1715.43 1270.29 Q1718.48 1273.64 1718.48 1279.43 M1714.22 1278.18 Q1714.18 1274.68 1712.26 1272.6 Q1710.36 1270.52 1707.21 1270.52 Q1703.65 1270.52 1701.49 1272.53 Q1699.36 1274.54 1699.04 1278.2 L1714.22 1278.18 Z" fill="#000000" fill-rule="nonzero" fill-opacity="1"></path><path clip-path="url(#clip110)" d="M1725.03 1283.22 L1725.03 1267.53 L1729.29 1267.53 L1729.29 1283.06 Q1729.29 1286.74 1730.73 1288.6 Q1732.16 1290.42 1735.03 1290.42 Q1738.48 1290.42 1740.47 1288.22 Q1742.49 1286.03 1742.49 1282.23 L1742.49 1267.53 L1746.75 1267.53 L1746.75 1293.46 L1742.49 1293.46 L1742.49 1289.47 Q1740.94 1291.84 1738.88 1292.99 Q1736.84 1294.13 1734.13 1294.13 Q1729.66 1294.13 1727.35 1291.35 Q1725.03 1288.57 1725.03 1283.22 M1735.75 1266.91 L1735.75 1266.91 Z" fill="#000000" fill-rule="nonzero" fill-opacity="1"></path><path clip-path="url(#clip110)" d="M1770.54 1271.51 Q1769.83 1271.1 1768.97 1270.91 Q1768.14 1270.7 1767.12 1270.7 Q1763.51 1270.7 1761.56 1273.06 Q1759.64 1275.4 1759.64 1279.8 L1759.64 1293.46 L1755.36 1293.46 L1755.36 1267.53 L1759.64 1267.53 L1759.64 1271.56 Q1760.98 1269.2 1763.14 1268.06 Q1765.29 1266.91 1768.37 1266.91 Q1768.81 1266.91 1769.34 1266.97 Q1769.87 1267.02 1770.52 1267.14 L1770.54 1271.51 Z" fill="#000000" fill-rule="nonzero" fill-opacity="1"></path><path clip-path="url(#clip110)" d="M1786.79 1280.42 Q1781.63 1280.42 1779.64 1281.6 Q1777.65 1282.79 1777.65 1285.63 Q1777.65 1287.9 1779.13 1289.24 Q1780.64 1290.56 1783.21 1290.56 Q1786.75 1290.56 1788.88 1288.06 Q1791.03 1285.54 1791.03 1281.37 L1791.03 1280.42 L1786.79 1280.42 M1795.29 1278.66 L1795.29 1293.46 L1791.03 1293.46 L1791.03 1289.52 Q1789.57 1291.88 1787.4 1293.02 Q1785.22 1294.13 1782.07 1294.13 Q1778.09 1294.13 1775.73 1291.91 Q1773.39 1289.66 1773.39 1285.91 Q1773.39 1281.54 1776.31 1279.31 Q1779.25 1277.09 1785.06 1277.09 L1791.03 1277.09 L1791.03 1276.67 Q1791.03 1273.73 1789.09 1272.14 Q1787.16 1270.52 1783.67 1270.52 Q1781.45 1270.52 1779.34 1271.05 Q1777.23 1271.58 1775.29 1272.65 L1775.29 1268.71 Q1777.63 1267.81 1779.83 1267.37 Q1782.03 1266.91 1784.11 1266.91 Q1789.73 1266.91 1792.51 1269.82 Q1795.29 1272.74 1795.29 1278.66 Z" fill="#000000" fill-rule="nonzero" fill-opacity="1"></path><path clip-path="url(#clip110)" d="M1804.06 1257.44 L1808.32 1257.44 L1808.32 1293.46 L1804.06 1293.46 L1804.06 1257.44 Z" fill="#000000" fill-rule="nonzero" fill-opacity="1"></path><path clip-path="url(#clip110)" d="M1832.49 1258.9 L1838.78 1258.9 L1854.11 1287.81 L1854.11 1258.9 L1858.65 1258.9 L1858.65 1293.46 L1852.35 1293.46 L1837.02 1264.54 L1837.02 1293.46 L1832.49 1293.46 L1832.49 1258.9 Z" fill="#000000" fill-rule="nonzero" fill-opacity="1"></path><path clip-path="url(#clip110)" d="M1889.94 1279.43 L1889.94 1281.51 L1870.36 1281.51 Q1870.64 1285.91 1873 1288.22 Q1875.38 1290.52 1879.62 1290.52 Q1882.07 1290.52 1884.36 1289.91 Q1886.68 1289.31 1888.95 1288.11 L1888.95 1292.14 Q1886.65 1293.11 1884.25 1293.62 Q1881.84 1294.13 1879.36 1294.13 Q1873.16 1294.13 1869.52 1290.52 Q1865.91 1286.91 1865.91 1280.75 Q1865.91 1274.38 1869.34 1270.66 Q1872.79 1266.91 1878.62 1266.91 Q1883.85 1266.91 1886.89 1270.29 Q1889.94 1273.64 1889.94 1279.43 M1885.68 1278.18 Q1885.64 1274.68 1883.71 1272.6 Q1881.82 1270.52 1878.67 1270.52 Q1875.1 1270.52 1872.95 1272.53 Q1870.82 1274.54 1870.5 1278.2 L1885.68 1278.18 Z" fill="#000000" fill-rule="nonzero" fill-opacity="1"></path><path clip-path="url(#clip110)" d="M1901.14 1260.17 L1901.14 1267.53 L1909.92 1267.53 L1909.92 1270.84 L1901.14 1270.84 L1901.14 1284.91 Q1901.14 1288.09 1902 1288.99 Q1902.88 1289.89 1905.54 1289.89 L1909.92 1289.89 L1909.92 1293.46 L1905.54 1293.46 Q1900.61 1293.46 1898.74 1291.63 Q1896.86 1289.78 1896.86 1284.91 L1896.86 1270.84 L1893.74 1270.84 L1893.74 1267.53 L1896.86 1267.53 L1896.86 1260.17 L1901.14 1260.17 Z" fill="#000000" fill-rule="nonzero" fill-opacity="1"></path><path clip-path="url(#clip110)" d="M1913.04 1267.53 L1917.3 1267.53 L1922.63 1287.76 L1927.93 1267.53 L1932.95 1267.53 L1938.27 1287.76 L1943.58 1267.53 L1947.83 1267.53 L1941.05 1293.46 L1936.03 1293.46 L1930.45 1272.21 L1924.85 1293.46 L1919.83 1293.46 L1913.04 1267.53 Z" fill="#000000" fill-rule="nonzero" fill-opacity="1"></path><path clip-path="url(#clip110)" d="M1964.34 1270.52 Q1960.91 1270.52 1958.92 1273.2 Q1956.93 1275.86 1956.93 1280.52 Q1956.93 1285.17 1958.9 1287.85 Q1960.89 1290.52 1964.34 1290.52 Q1967.74 1290.52 1969.73 1287.83 Q1971.72 1285.15 1971.72 1280.52 Q1971.72 1275.91 1969.73 1273.22 Q1967.74 1270.52 1964.34 1270.52 M1964.34 1266.91 Q1969.89 1266.91 1973.07 1270.52 Q1976.24 1274.13 1976.24 1280.52 Q1976.24 1286.88 1973.07 1290.52 Q1969.89 1294.13 1964.34 1294.13 Q1958.76 1294.13 1955.59 1290.52 Q1952.44 1286.88 1952.44 1280.52 Q1952.44 1274.13 1955.59 1270.52 Q1958.76 1266.91 1964.34 1266.91 Z" fill="#000000" fill-rule="nonzero" fill-opacity="1"></path><path clip-path="url(#clip110)" d="M1998.32 1271.51 Q1997.6 1271.1 1996.75 1270.91 Q1995.91 1270.7 1994.89 1270.7 Q1991.28 1270.7 1989.34 1273.06 Q1987.42 1275.4 1987.42 1279.8 L1987.42 1293.46 L1983.14 1293.46 L1983.14 1267.53 L1987.42 1267.53 L1987.42 1271.56 Q1988.76 1269.2 1990.91 1268.06 Q1993.07 1266.91 1996.14 1266.91 Q1996.58 1266.91 1997.12 1266.97 Q1997.65 1267.02 1998.3 1267.14 L1998.32 1271.51 Z" fill="#000000" fill-rule="nonzero" fill-opacity="1"></path><path clip-path="url(#clip110)" d="M2002.63 1257.44 L2006.91 1257.44 L2006.91 1278.71 L2019.62 1267.53 L2025.06 1267.53 L2011.31 1279.66 L2025.63 1293.46 L2020.08 1293.46 L2006.91 1280.79 L2006.91 1293.46 L2002.63 1293.46 L2002.63 1257.44 Z" fill="#000000" fill-rule="nonzero" fill-opacity="1"></path><path clip-path="url(#clip110)" d="M2071.38 1261.56 L2071.38 1266.49 Q2069.01 1264.29 2066.33 1263.2 Q2063.67 1262.11 2060.66 1262.11 Q2054.73 1262.11 2051.58 1265.75 Q2048.44 1269.36 2048.44 1276.21 Q2048.44 1283.04 2051.58 1286.67 Q2054.73 1290.28 2060.66 1290.28 Q2063.67 1290.28 2066.33 1289.2 Q2069.01 1288.11 2071.38 1285.91 L2071.38 1290.79 Q2068.92 1292.46 2066.17 1293.29 Q2063.44 1294.13 2060.38 1294.13 Q2052.53 1294.13 2048.02 1289.34 Q2043.51 1284.52 2043.51 1276.21 Q2043.51 1267.88 2048.02 1263.09 Q2052.53 1258.27 2060.38 1258.27 Q2063.48 1258.27 2066.21 1259.1 Q2068.97 1259.91 2071.38 1261.56 Z" fill="#000000" fill-rule="nonzero" fill-opacity="1"></path><path clip-path="url(#clip110)" d="M2078.41 1257.44 L2082.67 1257.44 L2082.67 1293.46 L2078.41 1293.46 L2078.41 1257.44 Z" fill="#000000" fill-rule="nonzero" fill-opacity="1"></path><path clip-path="url(#clip110)" d="M2103.37 1280.42 Q2098.2 1280.42 2096.21 1281.6 Q2094.22 1282.79 2094.22 1285.63 Q2094.22 1287.9 2095.7 1289.24 Q2097.21 1290.56 2099.78 1290.56 Q2103.32 1290.56 2105.45 1288.06 Q2107.6 1285.54 2107.6 1281.37 L2107.6 1280.42 L2103.37 1280.42 M2111.86 1278.66 L2111.86 1293.46 L2107.6 1293.46 L2107.6 1289.52 Q2106.14 1291.88 2103.97 1293.02 Q2101.79 1294.13 2098.64 1294.13 Q2094.66 1294.13 2092.3 1291.91 Q2089.96 1289.66 2089.96 1285.91 Q2089.96 1281.54 2092.88 1279.31 Q2095.82 1277.09 2101.63 1277.09 L2107.6 1277.09 L2107.6 1276.67 Q2107.6 1273.73 2105.66 1272.14 Q2103.74 1270.52 2100.24 1270.52 Q2098.02 1270.52 2095.91 1271.05 Q2093.81 1271.58 2091.86 1272.65 L2091.86 1268.71 Q2094.2 1267.81 2096.4 1267.37 Q2098.6 1266.91 2100.68 1266.91 Q2106.31 1266.91 2109.08 1269.82 Q2111.86 1272.74 2111.86 1278.66 Z" fill="#000000" fill-rule="nonzero" fill-opacity="1"></path><path clip-path="url(#clip110)" d="M2137.16 1268.29 L2137.16 1272.32 Q2135.36 1271.4 2133.41 1270.93 Q2131.47 1270.47 2129.38 1270.47 Q2126.21 1270.47 2124.62 1271.44 Q2123.04 1272.41 2123.04 1274.36 Q2123.04 1275.84 2124.18 1276.7 Q2125.31 1277.53 2128.74 1278.29 L2130.19 1278.62 Q2134.73 1279.59 2136.63 1281.37 Q2138.55 1283.13 2138.55 1286.3 Q2138.55 1289.91 2135.68 1292.02 Q2132.83 1294.13 2127.83 1294.13 Q2125.75 1294.13 2123.48 1293.71 Q2121.24 1293.32 2118.74 1292.51 L2118.74 1288.11 Q2121.1 1289.34 2123.39 1289.96 Q2125.68 1290.56 2127.93 1290.56 Q2130.94 1290.56 2132.56 1289.54 Q2134.18 1288.5 2134.18 1286.63 Q2134.18 1284.89 2133 1283.97 Q2131.84 1283.04 2127.88 1282.18 L2126.4 1281.84 Q2122.44 1281 2120.68 1279.29 Q2118.92 1277.55 2118.92 1274.54 Q2118.92 1270.89 2121.51 1268.9 Q2124.11 1266.91 2128.88 1266.91 Q2131.24 1266.91 2133.32 1267.25 Q2135.4 1267.6 2137.16 1268.29 Z" fill="#000000" fill-rule="nonzero" fill-opacity="1"></path><path clip-path="url(#clip110)" d="M2161.86 1268.29 L2161.86 1272.32 Q2160.06 1271.4 2158.11 1270.93 Q2156.17 1270.47 2154.08 1270.47 Q2150.91 1270.47 2149.31 1271.44 Q2147.74 1272.41 2147.74 1274.36 Q2147.74 1275.84 2148.87 1276.7 Q2150.01 1277.53 2153.44 1278.29 L2154.89 1278.62 Q2159.43 1279.59 2161.33 1281.37 Q2163.25 1283.13 2163.25 1286.3 Q2163.25 1289.91 2160.38 1292.02 Q2157.53 1294.13 2152.53 1294.13 Q2150.45 1294.13 2148.18 1293.71 Q2145.94 1293.32 2143.44 1292.51 L2143.44 1288.11 Q2145.8 1289.34 2148.09 1289.96 Q2150.38 1290.56 2152.62 1290.56 Q2155.63 1290.56 2157.25 1289.54 Q2158.87 1288.5 2158.87 1286.63 Q2158.87 1284.89 2157.69 1283.97 Q2156.54 1283.04 2152.58 1282.18 L2151.1 1281.84 Q2147.14 1281 2145.38 1279.29 Q2143.62 1277.55 2143.62 1274.54 Q2143.62 1270.89 2146.21 1268.9 Q2148.81 1266.91 2153.57 1266.91 Q2155.94 1266.91 2158.02 1267.25 Q2160.1 1267.6 2161.86 1268.29 Z" fill="#000000" fill-rule="nonzero" fill-opacity="1"></path><path clip-path="url(#clip110)" d="M2170.03 1267.53 L2174.29 1267.53 L2174.29 1293.46 L2170.03 1293.46 L2170.03 1267.53 M2170.03 1257.44 L2174.29 1257.44 L2174.29 1262.83 L2170.03 1262.83 L2170.03 1257.44 Z" fill="#000000" fill-rule="nonzero" fill-opacity="1"></path><path clip-path="url(#clip110)" d="M2196.33 1257.44 L2196.33 1260.98 L2192.25 1260.98 Q2189.96 1260.98 2189.06 1261.91 Q2188.18 1262.83 2188.18 1265.24 L2188.18 1267.53 L2195.19 1267.53 L2195.19 1270.84 L2188.18 1270.84 L2188.18 1293.46 L2183.9 1293.46 L2183.9 1270.84 L2179.82 1270.84 L2179.82 1267.53 L2183.9 1267.53 L2183.9 1265.72 Q2183.9 1261.4 2185.91 1259.43 Q2187.93 1257.44 2192.3 1257.44 L2196.33 1257.44 Z" fill="#000000" fill-rule="nonzero" fill-opacity="1"></path><path clip-path="url(#clip110)" d="M2199.89 1267.53 L2204.15 1267.53 L2204.15 1293.46 L2199.89 1293.46 L2199.89 1267.53 M2199.89 1257.44 L2204.15 1257.44 L2204.15 1262.83 L2199.89 1262.83 L2199.89 1257.44 Z" fill="#000000" fill-rule="nonzero" fill-opacity="1"></path><path clip-path="url(#clip110)" d="M2235.24 1279.43 L2235.24 1281.51 L2215.66 1281.51 Q2215.93 1285.91 2218.3 1288.22 Q2220.68 1290.52 2224.92 1290.52 Q2227.37 1290.52 2229.66 1289.91 Q2231.98 1289.31 2234.24 1288.11 L2234.24 1292.14 Q2231.95 1293.11 2229.55 1293.62 Q2227.14 1294.13 2224.66 1294.13 Q2218.46 1294.13 2214.82 1290.52 Q2211.21 1286.91 2211.21 1280.75 Q2211.21 1274.38 2214.64 1270.66 Q2218.09 1266.91 2223.92 1266.91 Q2229.15 1266.91 2232.18 1270.29 Q2235.24 1273.64 2235.24 1279.43 M2230.98 1278.18 Q2230.93 1274.68 2229.01 1272.6 Q2227.12 1270.52 2223.97 1270.52 Q2220.4 1270.52 2218.25 1272.53 Q2216.12 1274.54 2215.8 1278.2 L2230.98 1278.18 Z" fill="#000000" fill-rule="nonzero" fill-opacity="1"></path><path clip-path="url(#clip110)" d="M2257.25 1271.51 Q2256.54 1271.1 2255.68 1270.91 Q2254.85 1270.7 2253.83 1270.7 Q2250.22 1270.7 2248.27 1273.06 Q2246.35 1275.4 2246.35 1279.8 L2246.35 1293.46 L2242.07 1293.46 L2242.07 1267.53 L2246.35 1267.53 L2246.35 1271.56 Q2247.69 1269.2 2249.85 1268.06 Q2252 1266.91 2255.08 1266.91 Q2255.52 1266.91 2256.05 1266.97 Q2256.58 1267.02 2257.23 1267.14 L2257.25 1271.51 Z" fill="#000000" fill-rule="nonzero" fill-opacity="1"></path><polyline clip-path="url(#clip110)" style="stroke:#e26f46; stroke-linecap:round; stroke-linejoin:round; stroke-width:4; stroke-opacity:1; fill:none" stroke-dasharray="16, 10" points="1493.9,1328.02 1637.15,1328.02 "></polyline>
<path clip-path="url(#clip110)" d="M1688.9 1313.4 L1688.9 1318.33 Q1686.54 1316.13 1683.85 1315.04 Q1681.19 1313.95 1678.18 1313.95 Q1672.26 1313.95 1669.11 1317.59 Q1665.96 1321.2 1665.96 1328.05 Q1665.96 1334.88 1669.11 1338.51 Q1672.26 1342.12 1678.18 1342.12 Q1681.19 1342.12 1683.85 1341.04 Q1686.54 1339.95 1688.9 1337.75 L1688.9 1342.63 Q1686.45 1344.3 1683.69 1345.13 Q1680.96 1345.97 1677.91 1345.97 Q1670.06 1345.97 1665.54 1341.18 Q1661.03 1336.36 1661.03 1328.05 Q1661.03 1319.72 1665.54 1314.93 Q1670.06 1310.11 1677.91 1310.11 Q1681.01 1310.11 1683.74 1310.94 Q1686.49 1311.75 1688.9 1313.4 Z" fill="#000000" fill-rule="nonzero" fill-opacity="1"></path><path clip-path="url(#clip110)" d="M1705.98 1322.36 Q1702.56 1322.36 1700.57 1325.04 Q1698.58 1327.7 1698.58 1332.36 Q1698.58 1337.01 1700.54 1339.69 Q1702.53 1342.36 1705.98 1342.36 Q1709.39 1342.36 1711.38 1339.67 Q1713.37 1336.99 1713.37 1332.36 Q1713.37 1327.75 1711.38 1325.06 Q1709.39 1322.36 1705.98 1322.36 M1705.98 1318.75 Q1711.54 1318.75 1714.71 1322.36 Q1717.88 1325.97 1717.88 1332.36 Q1717.88 1338.72 1714.71 1342.36 Q1711.54 1345.97 1705.98 1345.97 Q1700.41 1345.97 1697.23 1342.36 Q1694.09 1338.72 1694.09 1332.36 Q1694.09 1325.97 1697.23 1322.36 Q1700.41 1318.75 1705.98 1318.75 Z" fill="#000000" fill-rule="nonzero" fill-opacity="1"></path><path clip-path="url(#clip110)" d="M1746.49 1329.65 L1746.49 1345.3 L1742.23 1345.3 L1742.23 1329.79 Q1742.23 1326.11 1740.8 1324.28 Q1739.36 1322.45 1736.49 1322.45 Q1733.04 1322.45 1731.05 1324.65 Q1729.06 1326.85 1729.06 1330.64 L1729.06 1345.3 L1724.78 1345.3 L1724.78 1319.37 L1729.06 1319.37 L1729.06 1323.4 Q1730.59 1321.06 1732.65 1319.9 Q1734.73 1318.75 1737.44 1318.75 Q1741.91 1318.75 1744.2 1321.52 Q1746.49 1324.28 1746.49 1329.65 Z" fill="#000000" fill-rule="nonzero" fill-opacity="1"></path><path clip-path="url(#clip110)" d="M1771.52 1320.13 L1771.52 1324.16 Q1769.71 1323.24 1767.77 1322.77 Q1765.82 1322.31 1763.74 1322.31 Q1760.57 1322.31 1758.97 1323.28 Q1757.4 1324.25 1757.4 1326.2 Q1757.4 1327.68 1758.53 1328.54 Q1759.66 1329.37 1763.09 1330.13 L1764.55 1330.46 Q1769.09 1331.43 1770.98 1333.21 Q1772.9 1334.97 1772.9 1338.14 Q1772.9 1341.75 1770.03 1343.86 Q1767.19 1345.97 1762.19 1345.97 Q1760.1 1345.97 1757.84 1345.55 Q1755.59 1345.16 1753.09 1344.35 L1753.09 1339.95 Q1755.45 1341.18 1757.74 1341.8 Q1760.03 1342.4 1762.28 1342.4 Q1765.29 1342.4 1766.91 1341.38 Q1768.53 1340.34 1768.53 1338.47 Q1768.53 1336.73 1767.35 1335.81 Q1766.19 1334.88 1762.23 1334.02 L1760.75 1333.68 Q1756.79 1332.84 1755.03 1331.13 Q1753.28 1329.39 1753.28 1326.38 Q1753.28 1322.73 1755.87 1320.74 Q1758.46 1318.75 1763.23 1318.75 Q1765.59 1318.75 1767.67 1319.09 Q1769.76 1319.44 1771.52 1320.13 Z" fill="#000000" fill-rule="nonzero" fill-opacity="1"></path><path clip-path="url(#clip110)" d="M1783.9 1312.01 L1783.9 1319.37 L1792.67 1319.37 L1792.67 1322.68 L1783.9 1322.68 L1783.9 1336.75 Q1783.9 1339.93 1784.76 1340.83 Q1785.64 1341.73 1788.3 1341.73 L1792.67 1341.73 L1792.67 1345.3 L1788.3 1345.3 Q1783.37 1345.3 1781.49 1343.47 Q1779.62 1341.62 1779.62 1336.75 L1779.62 1322.68 L1776.49 1322.68 L1776.49 1319.37 L1779.62 1319.37 L1779.62 1312.01 L1783.9 1312.01 Z" fill="#000000" fill-rule="nonzero" fill-opacity="1"></path><path clip-path="url(#clip110)" d="M1810.06 1332.26 Q1804.9 1332.26 1802.9 1333.44 Q1800.91 1334.63 1800.91 1337.47 Q1800.91 1339.74 1802.4 1341.08 Q1803.9 1342.4 1806.47 1342.4 Q1810.01 1342.4 1812.14 1339.9 Q1814.29 1337.38 1814.29 1333.21 L1814.29 1332.26 L1810.06 1332.26 M1818.55 1330.5 L1818.55 1345.3 L1814.29 1345.3 L1814.29 1341.36 Q1812.84 1343.72 1810.66 1344.86 Q1808.48 1345.97 1805.34 1345.97 Q1801.35 1345.97 1798.99 1343.75 Q1796.65 1341.5 1796.65 1337.75 Q1796.65 1333.38 1799.57 1331.15 Q1802.51 1328.93 1808.32 1328.93 L1814.29 1328.93 L1814.29 1328.51 Q1814.29 1325.57 1812.35 1323.98 Q1810.43 1322.36 1806.93 1322.36 Q1804.71 1322.36 1802.6 1322.89 Q1800.5 1323.42 1798.55 1324.49 L1798.55 1320.55 Q1800.89 1319.65 1803.09 1319.21 Q1805.29 1318.75 1807.37 1318.75 Q1813 1318.75 1815.77 1321.66 Q1818.55 1324.58 1818.55 1330.5 Z" fill="#000000" fill-rule="nonzero" fill-opacity="1"></path><path clip-path="url(#clip110)" d="M1848.88 1329.65 L1848.88 1345.3 L1844.62 1345.3 L1844.62 1329.79 Q1844.62 1326.11 1843.18 1324.28 Q1841.75 1322.45 1838.88 1322.45 Q1835.43 1322.45 1833.44 1324.65 Q1831.45 1326.85 1831.45 1330.64 L1831.45 1345.3 L1827.16 1345.3 L1827.16 1319.37 L1831.45 1319.37 L1831.45 1323.4 Q1832.97 1321.06 1835.03 1319.9 Q1837.12 1318.75 1839.83 1318.75 Q1844.29 1318.75 1846.58 1321.52 Q1848.88 1324.28 1848.88 1329.65 Z" fill="#000000" fill-rule="nonzero" fill-opacity="1"></path><path clip-path="url(#clip110)" d="M1861.58 1312.01 L1861.58 1319.37 L1870.36 1319.37 L1870.36 1322.68 L1861.58 1322.68 L1861.58 1336.75 Q1861.58 1339.93 1862.44 1340.83 Q1863.32 1341.73 1865.98 1341.73 L1870.36 1341.73 L1870.36 1345.3 L1865.98 1345.3 Q1861.05 1345.3 1859.18 1343.47 Q1857.3 1341.62 1857.3 1336.75 L1857.3 1322.68 L1854.18 1322.68 L1854.18 1319.37 L1857.3 1319.37 L1857.3 1312.01 L1861.58 1312.01 Z" fill="#000000" fill-rule="nonzero" fill-opacity="1"></path><path clip-path="url(#clip110)" d="M1917.09 1313.4 L1917.09 1318.33 Q1914.73 1316.13 1912.05 1315.04 Q1909.39 1313.95 1906.38 1313.95 Q1900.45 1313.95 1897.3 1317.59 Q1894.15 1321.2 1894.15 1328.05 Q1894.15 1334.88 1897.3 1338.51 Q1900.45 1342.12 1906.38 1342.12 Q1909.39 1342.12 1912.05 1341.04 Q1914.73 1339.95 1917.09 1337.75 L1917.09 1342.63 Q1914.64 1344.3 1911.89 1345.13 Q1909.15 1345.97 1906.1 1345.97 Q1898.25 1345.97 1893.74 1341.18 Q1889.22 1336.36 1889.22 1328.05 Q1889.22 1319.72 1893.74 1314.93 Q1898.25 1310.11 1906.1 1310.11 Q1909.2 1310.11 1911.93 1310.94 Q1914.69 1311.75 1917.09 1313.4 Z" fill="#000000" fill-rule="nonzero" fill-opacity="1"></path><path clip-path="url(#clip110)" d="M1924.13 1309.28 L1928.39 1309.28 L1928.39 1345.3 L1924.13 1345.3 L1924.13 1309.28 Z" fill="#000000" fill-rule="nonzero" fill-opacity="1"></path><path clip-path="url(#clip110)" d="M1949.08 1332.26 Q1943.92 1332.26 1941.93 1333.44 Q1939.94 1334.63 1939.94 1337.47 Q1939.94 1339.74 1941.42 1341.08 Q1942.93 1342.4 1945.5 1342.4 Q1949.04 1342.4 1951.17 1339.9 Q1953.32 1337.38 1953.32 1333.21 L1953.32 1332.26 L1949.08 1332.26 M1957.58 1330.5 L1957.58 1345.3 L1953.32 1345.3 L1953.32 1341.36 Q1951.86 1343.72 1949.69 1344.86 Q1947.51 1345.97 1944.36 1345.97 Q1940.38 1345.97 1938.02 1343.75 Q1935.68 1341.5 1935.68 1337.75 Q1935.68 1333.38 1938.6 1331.15 Q1941.54 1328.93 1947.35 1328.93 L1953.32 1328.93 L1953.32 1328.51 Q1953.32 1325.57 1951.38 1323.98 Q1949.45 1322.36 1945.96 1322.36 Q1943.74 1322.36 1941.63 1322.89 Q1939.52 1323.42 1937.58 1324.49 L1937.58 1320.55 Q1939.92 1319.65 1942.12 1319.21 Q1944.32 1318.75 1946.4 1318.75 Q1952.02 1318.75 1954.8 1321.66 Q1957.58 1324.58 1957.58 1330.5 Z" fill="#000000" fill-rule="nonzero" fill-opacity="1"></path><path clip-path="url(#clip110)" d="M1982.88 1320.13 L1982.88 1324.16 Q1981.07 1323.24 1979.13 1322.77 Q1977.19 1322.31 1975.1 1322.31 Q1971.93 1322.31 1970.33 1323.28 Q1968.76 1324.25 1968.76 1326.2 Q1968.76 1327.68 1969.89 1328.54 Q1971.03 1329.37 1974.45 1330.13 L1975.91 1330.46 Q1980.45 1331.43 1982.35 1333.21 Q1984.27 1334.97 1984.27 1338.14 Q1984.27 1341.75 1981.4 1343.86 Q1978.55 1345.97 1973.55 1345.97 Q1971.47 1345.97 1969.2 1345.55 Q1966.95 1345.16 1964.45 1344.35 L1964.45 1339.95 Q1966.82 1341.18 1969.11 1341.8 Q1971.4 1342.4 1973.64 1342.4 Q1976.65 1342.4 1978.27 1341.38 Q1979.89 1340.34 1979.89 1338.47 Q1979.89 1336.73 1978.71 1335.81 Q1977.56 1334.88 1973.6 1334.02 L1972.12 1333.68 Q1968.16 1332.84 1966.4 1331.13 Q1964.64 1329.39 1964.64 1326.38 Q1964.64 1322.73 1967.23 1320.74 Q1969.83 1318.75 1974.59 1318.75 Q1976.95 1318.75 1979.04 1319.09 Q1981.12 1319.44 1982.88 1320.13 Z" fill="#000000" fill-rule="nonzero" fill-opacity="1"></path><path clip-path="url(#clip110)" d="M2007.58 1320.13 L2007.58 1324.16 Q2005.77 1323.24 2003.83 1322.77 Q2001.89 1322.31 1999.8 1322.31 Q1996.63 1322.31 1995.03 1323.28 Q1993.46 1324.25 1993.46 1326.2 Q1993.46 1327.68 1994.59 1328.54 Q1995.73 1329.37 1999.15 1330.13 L2000.61 1330.46 Q2005.15 1331.43 2007.05 1333.21 Q2008.97 1334.97 2008.97 1338.14 Q2008.97 1341.75 2006.1 1343.86 Q2003.25 1345.97 1998.25 1345.97 Q1996.17 1345.97 1993.9 1345.55 Q1991.65 1345.16 1989.15 1344.35 L1989.15 1339.95 Q1991.51 1341.18 1993.81 1341.8 Q1996.1 1342.4 1998.34 1342.4 Q2001.35 1342.4 2002.97 1341.38 Q2004.59 1340.34 2004.59 1338.47 Q2004.59 1336.73 2003.41 1335.81 Q2002.26 1334.88 1998.3 1334.02 L1996.82 1333.68 Q1992.86 1332.84 1991.1 1331.13 Q1989.34 1329.39 1989.34 1326.38 Q1989.34 1322.73 1991.93 1320.74 Q1994.52 1318.75 1999.29 1318.75 Q2001.65 1318.75 2003.74 1319.09 Q2005.82 1319.44 2007.58 1320.13 Z" fill="#000000" fill-rule="nonzero" fill-opacity="1"></path><path clip-path="url(#clip110)" d="M2015.75 1319.37 L2020.01 1319.37 L2020.01 1345.3 L2015.75 1345.3 L2015.75 1319.37 M2015.75 1309.28 L2020.01 1309.28 L2020.01 1314.67 L2015.75 1314.67 L2015.75 1309.28 Z" fill="#000000" fill-rule="nonzero" fill-opacity="1"></path><path clip-path="url(#clip110)" d="M2042.05 1309.28 L2042.05 1312.82 L2037.97 1312.82 Q2035.68 1312.82 2034.78 1313.75 Q2033.9 1314.67 2033.9 1317.08 L2033.9 1319.37 L2040.91 1319.37 L2040.91 1322.68 L2033.9 1322.68 L2033.9 1345.3 L2029.62 1345.3 L2029.62 1322.68 L2025.54 1322.68 L2025.54 1319.37 L2029.62 1319.37 L2029.62 1317.56 Q2029.62 1313.24 2031.63 1311.27 Q2033.64 1309.28 2038.02 1309.28 L2042.05 1309.28 Z" fill="#000000" fill-rule="nonzero" fill-opacity="1"></path><path clip-path="url(#clip110)" d="M2045.61 1319.37 L2049.87 1319.37 L2049.87 1345.3 L2045.61 1345.3 L2045.61 1319.37 M2045.61 1309.28 L2049.87 1309.28 L2049.87 1314.67 L2045.61 1314.67 L2045.61 1309.28 Z" fill="#000000" fill-rule="nonzero" fill-opacity="1"></path><path clip-path="url(#clip110)" d="M2080.96 1331.27 L2080.96 1333.35 L2061.38 1333.35 Q2061.65 1337.75 2064.01 1340.06 Q2066.4 1342.36 2070.63 1342.36 Q2073.09 1342.36 2075.38 1341.75 Q2077.69 1341.15 2079.96 1339.95 L2079.96 1343.98 Q2077.67 1344.95 2075.26 1345.46 Q2072.86 1345.97 2070.38 1345.97 Q2064.18 1345.97 2060.54 1342.36 Q2056.93 1338.75 2056.93 1332.59 Q2056.93 1326.22 2060.36 1322.5 Q2063.81 1318.75 2069.64 1318.75 Q2074.87 1318.75 2077.9 1322.13 Q2080.96 1325.48 2080.96 1331.27 M2076.7 1330.02 Q2076.65 1326.52 2074.73 1324.44 Q2072.83 1322.36 2069.69 1322.36 Q2066.12 1322.36 2063.97 1324.37 Q2061.84 1326.38 2061.51 1330.04 L2076.7 1330.02 Z" fill="#000000" fill-rule="nonzero" fill-opacity="1"></path><path clip-path="url(#clip110)" d="M2102.97 1323.35 Q2102.25 1322.94 2101.4 1322.75 Q2100.57 1322.54 2099.55 1322.54 Q2095.94 1322.54 2093.99 1324.9 Q2092.07 1327.24 2092.07 1331.64 L2092.07 1345.3 L2087.79 1345.3 L2087.79 1319.37 L2092.07 1319.37 L2092.07 1323.4 Q2093.41 1321.04 2095.57 1319.9 Q2097.72 1318.75 2100.8 1318.75 Q2101.24 1318.75 2101.77 1318.81 Q2102.3 1318.86 2102.95 1318.98 L2102.97 1323.35 Z" fill="#000000" fill-rule="nonzero" fill-opacity="1"></path></svg>